<svg xmlns="http://www.w3.org/2000/svg" viewBox="0 0 400 200" width="400" height="200">
  <!-- Background -->
  <rect width="400" height="200" fill="#1a3a5c"/>
  
  <!-- Star icon -->
  <g transform="translate(35, 35)">
    <path d="M 0,-12 L 3,-3 L 12,-3 L 5,3 L 8,12 L 0,6 L -8,12 L -5,3 L -12,-3 L -3,-3 Z" 
          fill="none" stroke="white" stroke-width="2"/>
  </g>
  
  <!-- Plasmid 1 - Top left (Blue) -->
  <g transform="translate(80, 50)">
    <circle cx="0" cy="0" r="25" fill="none" stroke="#4a7ba7" stroke-width="5"/>
    <!-- Gene segments -->
    <path d="M 0,-25 A 25 25 0 0 1 21.65,-12.5" fill="none" stroke="#6b9bff" stroke-width="7"/>
    <path d="M 21.65,-12.5 A 25 25 0 0 1 21.65,12.5" fill="none" stroke="#4a7ba7" stroke-width="5"/>
    <path d="M 21.65,12.5 A 25 25 0 0 1 0,25" fill="none" stroke="#3d5f8a" stroke-width="7"/>
    <path d="M 0,25 A 25 25 0 0 1 -21.65,12.5" fill="none" stroke="#4a7ba7" stroke-width="5"/>
    <path d="M -21.65,12.5 A 25 25 0 0 1 -21.65,-12.5" fill="none" stroke="#5a8bc7" stroke-width="7"/>
    <path d="M -21.65,-12.5 A 25 25 0 0 1 0,-25" fill="none" stroke="#4a7ba7" stroke-width="5"/>
  </g>
  
  <!-- Plasmid 2 - Top middle (Red) -->
  <g transform="translate(160, 50)">
    <circle cx="0" cy="0" r="25" fill="none" stroke="#c94444" stroke-width="5"/>
    <path d="M 0,-25 A 25 25 0 0 1 17.68,-17.68" fill="none" stroke="#ff6b6b" stroke-width="7"/>
    <path d="M 17.68,-17.68 A 25 25 0 0 1 25,0" fill="none" stroke="#c94444" stroke-width="5"/>
    <path d="M 25,0 A 25 25 0 0 1 17.68,17.68" fill="none" stroke="#a93636" stroke-width="7"/>
    <path d="M 17.68,17.68 A 25 25 0 0 1 -17.68,17.68" fill="none" stroke="#c94444" stroke-width="5"/>
    <path d="M -17.68,17.68 A 25 25 0 0 1 -25,0" fill="none" stroke="#d95555" stroke-width="7"/>
    <path d="M -25,0 A 25 25 0 0 1 0,-25" fill="none" stroke="#c94444" stroke-width="5"/>
  </g>
  
  <!-- Plasmid 3 - Top right (Green) -->
  <g transform="translate(240, 50)">
    <circle cx="0" cy="0" r="25" fill="none" stroke="#6b9b6b" stroke-width="5"/>
    <path d="M 0,-25 A 25 25 0 0 1 12.5,-21.65" fill="none" stroke="#8bc78b" stroke-width="7"/>
    <path d="M 12.5,-21.65 A 25 25 0 0 1 21.65,-12.5" fill="none" stroke="#6b9b6b" stroke-width="5"/>
    <path d="M 21.65,-12.5 A 25 25 0 0 1 25,0" fill="none" stroke="#5a8a5a" stroke-width="7"/>
    <path d="M 25,0 A 25 25 0 0 1 0,25" fill="none" stroke="#6b9b6b" stroke-width="5"/>
    <path d="M 0,25 A 25 25 0 0 1 -25,0" fill="none" stroke="#7bab7b" stroke-width="7"/>
    <path d="M -25,0 A 25 25 0 0 1 0,-25" fill="none" stroke="#6b9b6b" stroke-width="5"/>
  </g>
  
  <!-- Plasmid 4 - Bottom left (Blue) -->
  <g transform="translate(80, 130)">
    <circle cx="0" cy="0" r="25" fill="none" stroke="#4a7ba7" stroke-width="5"/>
    <path d="M 0,-25 A 25 25 0 0 1 25,0" fill="none" stroke="#5a8bc7" stroke-width="7"/>
    <path d="M 25,0 A 25 25 0 0 1 12.5,21.65" fill="none" stroke="#4a7ba7" stroke-width="5"/>
    <path d="M 12.5,21.65 A 25 25 0 0 1 -12.5,21.65" fill="none" stroke="#6b9bff" stroke-width="7"/>
    <path d="M -12.5,21.65 A 25 25 0 0 1 -21.65,12.5" fill="none" stroke="#4a7ba7" stroke-width="5"/>
    <path d="M -21.65,12.5 A 25 25 0 0 1 0,-25" fill="none" stroke="#3d5f8a" stroke-width="7"/>
  </g>
  
  <!-- Plasmid 5 - Bottom middle (Yellow/Orange) -->
  <g transform="translate(160, 130)">
    <circle cx="0" cy="0" r="25" fill="none" stroke="#d4a744" stroke-width="5"/>
    <path d="M 0,-25 A 25 25 0 0 1 21.65,-12.5" fill="none" stroke="#ffcd5c" stroke-width="7"/>
    <path d="M 21.65,-12.5 A 25 25 0 0 1 21.65,12.5" fill="none" stroke="#d4a744" stroke-width="5"/>
    <path d="M 21.65,12.5 A 25 25 0 0 1 -21.65,12.5" fill="none" stroke="#e5b854" stroke-width="7"/>
    <path d="M -21.65,12.5 A 25 25 0 0 1 -25,0" fill="none" stroke="#d4a744" stroke-width="5"/>
    <path d="M -25,0 A 25 25 0 0 1 0,-25" fill="none" stroke="#c49634" stroke-width="7"/>
  </g>
  
  <!-- Plasmid 6 - Bottom right (Teal) -->
  <g transform="translate(240, 130)">
    <circle cx="0" cy="0" r="25" fill="none" stroke="#6b9b9b" stroke-width="5"/>
    <path d="M 0,-25 A 25 25 0 0 1 17.68,-17.68" fill="none" stroke="#8bbbbb" stroke-width="7"/>
    <path d="M 17.68,-17.68 A 25 25 0 0 1 25,0" fill="none" stroke="#6b9b9b" stroke-width="5"/>
    <path d="M 25,0 A 25 25 0 0 1 0,25" fill="none" stroke="#5a8a8a" stroke-width="7"/>
    <path d="M 0,25 A 25 25 0 0 1 -17.68,17.68" fill="none" stroke="#6b9b9b" stroke-width="5"/>
    <path d="M -17.68,17.68 A 25 25 0 0 1 0,-25" fill="none" stroke="#7babab" stroke-width="7"/>
  </g>
  
  <!-- Text -->
  <text x="30" y="175" font-family="Arial, sans-serif" font-size="18" font-weight="bold" fill="white">
    ΔΣ SIMULATION
  </text>
</svg>