<svg xmlns="http://www.w3.org/2000/svg" width="510" height="275" fill="none" viewBox="0 0 510 275">
    <mask id="a" fill="#fff">
        <path d="M0 13C0 5.82 5.82 0 13 0h330.017c7.179 0 13 5.82 13 13v249c0 7.18-5.821 13-13 13H13c-7.18 0-13-5.82-13-13V13z"/>
    </mask>
    <path fill="#001C30" fill-opacity=".3" d="M0 13C0 5.82 5.82 0 13 0h330.017c7.179 0 13 5.82 13 13v249c0 7.18-5.821 13-13 13H13c-7.18 0-13-5.82-13-13V13z"/>
    <path fill="#FAAC48" d="M13 3h330.017v-6H13v6zm340.017 10v249h6V13h-6zm-10 259H13v6h330.017v-6zM3 262V13h-6v249h6zm10 10c-5.523 0-10-4.477-10-10h-6c0 8.837 7.163 16 16 16v-6zm340.017-10c0 5.523-4.478 10-10 10v6c8.836 0 16-7.163 16-16h-6zm-10-259c5.522 0 10 4.477 10 10h6c0-8.837-7.164-16-16-16v6zM13-3C4.163-3-3 4.163-3 13h6C3 7.477 7.477 3 13 3v-6z" mask="url(#a)"/>
    <g opacity=".95">
        <mask id="b" width="331" height="275" x="9" y="0" maskUnits="userSpaceOnUse">
            <path fill="#C4C4C4" d="M9.506 0h330v275h-330z"/>
        </mask>
        <g mask="url(#b)">
            <path fill="#FAAC48" d="M32.36-1085.94l126.256-.71-6.343 1313.012-29.979 40.433H72.331l-29.978-40.401L32.36-1085.94zM72.332 266.797h49.963l-9.993 50.501H82.324l-9.992-50.501z"/>
            <path fill="#FFF7ED" d="M46.95 222.311l-2.536-438.046h104.011l-2.537 438.046-32.979 42.553h-32.98l-32.978-42.553z"/>
            <g fill="#FFF7ED" stroke="#FAAC48" opacity=".3">
                <path d="M75.133 219.807c0 5.259-4.216 9.512-9.406 9.512s-9.406-4.253-9.406-9.512 4.217-9.512 9.406-9.512c5.19 0 9.406 4.253 9.406 9.512zM94.945 219.807c0 5.259-4.216 9.512-9.406 9.512s-9.406-4.253-9.406-9.512 4.216-9.512 9.406-9.512 9.406 4.253 9.406 9.512zM114.756 219.807c0 5.259-4.216 9.512-9.405 9.512-5.19 0-9.406-4.253-9.406-9.512s4.216-9.512 9.406-9.512c5.189 0 9.405 4.253 9.405 9.512zM134.568 219.807c0 5.259-4.216 9.512-9.406 9.512-5.189 0-9.406-4.253-9.406-9.512s4.217-9.512 9.406-9.512c5.19 0 9.406 4.253 9.406 9.512z"/>
                <path d="M85.039 234.826c0 5.258-4.216 9.512-9.406 9.512s-9.406-4.254-9.406-9.512c0-5.259 4.216-9.513 9.406-9.513s9.406 4.254 9.406 9.513z"/>
                <path d="M94.945 249.845c0 5.259-4.216 9.512-9.406 9.512s-9.406-4.253-9.406-9.512 4.216-9.513 9.406-9.513 9.406 4.254 9.406 9.513zM114.756 249.845c0 5.259-4.216 9.512-9.405 9.512-5.19 0-9.406-4.253-9.406-9.512s4.216-9.513 9.406-9.513c5.189 0 9.405 4.254 9.405 9.513z"/>
                <path d="M124.662 234.826c0 5.258-4.216 9.512-9.406 9.512-5.189 0-9.405-4.254-9.405-9.512 0-5.259 4.216-9.513 9.405-9.513 5.19 0 9.406 4.254 9.406 9.513zM104.851 234.826c0 5.258-4.217 9.512-9.406 9.512-5.19 0-9.406-4.254-9.406-9.512 0-5.259 4.216-9.513 9.406-9.513 5.189 0 9.406 4.254 9.406 9.513zM144.474 204.789c0 5.258-4.216 9.512-9.406 9.512s-9.406-4.254-9.406-9.512c0-5.259 4.216-9.513 9.406-9.513s9.406 4.254 9.406 9.513zM124.662 204.789c0 5.258-4.216 9.512-9.406 9.512-5.189 0-9.405-4.254-9.405-9.512 0-5.259 4.216-9.513 9.405-9.513 5.19 0 9.406 4.254 9.406 9.513zM104.851 204.789c0 5.258-4.217 9.512-9.406 9.512-5.19 0-9.406-4.254-9.406-9.512 0-5.259 4.216-9.513 9.406-9.513 5.189 0 9.406 4.254 9.406 9.513zM85.039 204.789c0 5.258-4.216 9.512-9.406 9.512s-9.406-4.254-9.406-9.512c0-5.259 4.216-9.513 9.406-9.513s9.406 4.254 9.406 9.513z"/>
                <path d="M70.18 204.789c0 5.258-4.216 9.512-9.406 9.512s-9.406-4.254-9.406-9.512c0-5.259 4.216-9.513 9.406-9.513s9.406 4.254 9.406 9.513zM94.945 189.769c0 5.259-4.216 9.513-9.406 9.513s-9.406-4.254-9.406-9.513c0-5.258 4.216-9.512 9.406-9.512s9.406 4.254 9.406 9.512zM94.945 159.732c0 5.259-4.216 9.513-9.406 9.513s-9.406-4.254-9.406-9.513c0-5.258 4.216-9.512 9.406-9.512s9.406 4.254 9.406 9.512zM94.945 129.695c0 5.259-4.216 9.513-9.406 9.513s-9.406-4.254-9.406-9.513 4.216-9.513 9.406-9.513 9.406 4.254 9.406 9.513zM114.756 129.695c0 5.259-4.216 9.513-9.405 9.513-5.19 0-9.406-4.254-9.406-9.513s4.216-9.513 9.406-9.513c5.189 0 9.405 4.254 9.405 9.513zM134.568 129.695c0 5.259-4.216 9.513-9.406 9.513-5.189 0-9.406-4.254-9.406-9.513s4.217-9.513 9.406-9.513c5.19 0 9.406 4.254 9.406 9.513z"/>
                <path d="M144.474 129.695c0 5.259-4.216 9.513-9.406 9.513s-9.406-4.254-9.406-9.513 4.216-9.513 9.406-9.513 9.406 4.254 9.406 9.513zM75.133 129.695c0 5.259-4.216 9.513-9.406 9.513s-9.406-4.254-9.406-9.513 4.217-9.513 9.406-9.513c5.19 0 9.406 4.254 9.406 9.513z"/>
                <path d="M70.18 129.695c0 5.259-4.216 9.513-9.406 9.513s-9.406-4.254-9.406-9.513 4.217-9.513 9.406-9.513c5.19 0 9.406 4.254 9.406 9.513zM114.756 159.732c0 5.259-4.216 9.513-9.405 9.513-5.19 0-9.406-4.254-9.406-9.513 0-5.258 4.216-9.512 9.406-9.512 5.189 0 9.405 4.254 9.405 9.512zM134.568 159.732c0 5.259-4.216 9.513-9.406 9.513-5.189 0-9.406-4.254-9.406-9.513 0-5.258 4.217-9.512 9.406-9.512 5.19 0 9.406 4.254 9.406 9.512z"/>
                <path d="M139.521 159.732c0 5.259-4.216 9.513-9.406 9.513-5.189 0-9.406-4.254-9.406-9.513 0-5.258 4.217-9.512 9.406-9.512 5.19 0 9.406 4.254 9.406 9.512zM75.133 159.732c0 5.259-4.216 9.513-9.406 9.513s-9.406-4.254-9.406-9.513c0-5.258 4.217-9.512 9.406-9.512 5.19 0 9.406 4.254 9.406 9.512z"/>
                <path d="M70.18 159.732c0 5.259-4.216 9.513-9.406 9.513s-9.406-4.254-9.406-9.513c0-5.258 4.216-9.512 9.406-9.512s9.406 4.254 9.406 9.512zM114.756 189.769c0 5.259-4.216 9.513-9.405 9.513-5.19 0-9.406-4.254-9.406-9.513 0-5.258 4.216-9.512 9.406-9.512 5.189 0 9.405 4.254 9.405 9.512zM134.568 189.769c0 5.259-4.216 9.513-9.406 9.513-5.189 0-9.406-4.254-9.406-9.513 0-5.258 4.217-9.512 9.406-9.512 5.19 0 9.406 4.254 9.406 9.512z"/>
                <path d="M144.474 189.769c0 5.259-4.216 9.513-9.406 9.513s-9.406-4.254-9.406-9.513c0-5.258 4.216-9.512 9.406-9.512s9.406 4.254 9.406 9.512zM75.133 189.769c0 5.259-4.216 9.513-9.406 9.513s-9.406-4.254-9.406-9.513c0-5.258 4.217-9.512 9.406-9.512 5.19 0 9.406 4.254 9.406 9.512z"/>
                <path d="M70.18 189.769c0 5.259-4.216 9.513-9.406 9.513s-9.406-4.254-9.406-9.513c0-5.258 4.217-9.512 9.406-9.512 5.19 0 9.406 4.254 9.406 9.512zM104.851 174.751c0 5.259-4.217 9.513-9.406 9.513-5.19 0-9.406-4.254-9.406-9.513 0-5.258 4.216-9.512 9.406-9.512 5.189 0 9.406 4.254 9.406 9.512zM104.851 144.713c0 5.259-4.217 9.513-9.406 9.513-5.19 0-9.406-4.254-9.406-9.513 0-5.258 4.216-9.512 9.406-9.512 5.189 0 9.406 4.254 9.406 9.512zM124.662 144.713c0 5.259-4.216 9.513-9.406 9.513-5.189 0-9.405-4.254-9.405-9.513 0-5.258 4.216-9.512 9.405-9.512 5.19 0 9.406 4.254 9.406 9.512zM144.474 144.713c0 5.259-4.216 9.513-9.406 9.513s-9.406-4.254-9.406-9.513c0-5.258 4.216-9.512 9.406-9.512s9.406 4.254 9.406 9.512zM85.039 144.713c0 5.259-4.216 9.513-9.406 9.513s-9.406-4.254-9.406-9.513c0-5.258 4.216-9.512 9.406-9.512s9.406 4.254 9.406 9.512z"/>
                <path d="M70.18 144.713c0 5.259-4.216 9.513-9.406 9.513s-9.406-4.254-9.406-9.513c0-5.258 4.216-9.512 9.406-9.512s9.406 4.254 9.406 9.512zM104.851 114.676c0 5.259-4.217 9.513-9.406 9.513-5.19 0-9.406-4.254-9.406-9.513 0-5.258 4.216-9.512 9.406-9.512 5.189 0 9.406 4.254 9.406 9.512zM124.662 114.676c0 5.259-4.216 9.513-9.406 9.513-5.189 0-9.405-4.254-9.405-9.513 0-5.258 4.216-9.512 9.405-9.512 5.19 0 9.406 4.254 9.406 9.512zM144.474 114.676c0 5.259-4.216 9.513-9.406 9.513s-9.406-4.254-9.406-9.513c0-5.258 4.216-9.512 9.406-9.512s9.406 4.254 9.406 9.512zM85.039 114.676c0 5.259-4.216 9.513-9.406 9.513s-9.406-4.254-9.406-9.513c0-5.258 4.216-9.512 9.406-9.512s9.406 4.254 9.406 9.512z"/>
                <path d="M70.18 114.676c0 5.259-4.216 9.513-9.406 9.513s-9.406-4.254-9.406-9.513c0-5.258 4.216-9.512 9.406-9.512s9.406 4.254 9.406 9.512zM94.945 99.657c0 5.259-4.216 9.513-9.406 9.513s-9.406-4.254-9.406-9.513c0-5.258 4.216-9.512 9.406-9.512s9.406 4.254 9.406 9.512zM114.756 99.657c0 5.259-4.216 9.513-9.405 9.513-5.19 0-9.406-4.254-9.406-9.513 0-5.258 4.216-9.512 9.406-9.512 5.189 0 9.405 4.254 9.405 9.512zM134.568 99.657c0 5.259-4.216 9.513-9.406 9.513-5.189 0-9.406-4.254-9.406-9.513 0-5.258 4.217-9.512 9.406-9.512 5.19 0 9.406 4.254 9.406 9.512z"/>
                <path d="M144.474 99.657c0 5.259-4.216 9.513-9.406 9.513s-9.406-4.254-9.406-9.513c0-5.258 4.216-9.512 9.406-9.512s9.406 4.254 9.406 9.512zM75.133 99.657c0 5.259-4.216 9.513-9.406 9.513s-9.406-4.254-9.406-9.513c0-5.258 4.217-9.512 9.406-9.512 5.19 0 9.406 4.254 9.406 9.512z"/>
                <path d="M70.18 99.657c0 5.259-4.216 9.513-9.406 9.513s-9.406-4.254-9.406-9.513c0-5.258 4.217-9.512 9.406-9.512 5.19 0 9.406 4.254 9.406 9.512zM104.851 84.639c0 5.258-4.217 9.512-9.406 9.512-5.19 0-9.406-4.254-9.406-9.512 0-5.26 4.216-9.513 9.406-9.513 5.189 0 9.406 4.254 9.406 9.513zM124.662 84.639c0 5.258-4.216 9.512-9.406 9.512-5.189 0-9.405-4.254-9.405-9.512 0-5.26 4.216-9.513 9.405-9.513 5.19 0 9.406 4.254 9.406 9.513zM144.474 84.639c0 5.258-4.216 9.512-9.406 9.512s-9.406-4.254-9.406-9.512c0-5.26 4.216-9.513 9.406-9.513s9.406 4.254 9.406 9.513zM85.039 84.639c0 5.258-4.216 9.512-9.406 9.512s-9.406-4.254-9.406-9.512c0-5.26 4.216-9.513 9.406-9.513s9.406 4.254 9.406 9.513z"/>
                <path d="M70.18 84.639c0 5.258-4.216 9.512-9.406 9.512s-9.406-4.254-9.406-9.512c0-5.26 4.217-9.513 9.406-9.513 5.19 0 9.406 4.254 9.406 9.513zM94.945 69.62c0 5.258-4.216 9.512-9.406 9.512s-9.406-4.254-9.406-9.512c0-5.259 4.216-9.513 9.406-9.513s9.406 4.254 9.406 9.513zM114.756 69.62c0 5.258-4.216 9.512-9.405 9.512-5.19 0-9.406-4.254-9.406-9.512 0-5.259 4.216-9.513 9.406-9.513 5.189 0 9.405 4.254 9.405 9.513zM134.568 69.62c0 5.258-4.216 9.512-9.406 9.512-5.189 0-9.406-4.254-9.406-9.512 0-5.259 4.217-9.513 9.406-9.513 5.19 0 9.406 4.254 9.406 9.513z"/>
                <path d="M144.474 69.62c0 5.258-4.216 9.512-9.406 9.512s-9.406-4.254-9.406-9.512c0-5.259 4.216-9.513 9.406-9.513s9.406 4.254 9.406 9.513zM75.133 69.62c0 5.258-4.216 9.512-9.406 9.512s-9.406-4.254-9.406-9.512c0-5.259 4.217-9.513 9.406-9.513 5.19 0 9.406 4.254 9.406 9.513z"/>
                <path d="M70.18 69.62c0 5.258-4.216 9.512-9.406 9.512s-9.406-4.254-9.406-9.512c0-5.259 4.217-9.513 9.406-9.513 5.19 0 9.406 4.254 9.406 9.513zM104.851 54.6c0 5.26-4.217 9.513-9.406 9.513-5.19 0-9.406-4.253-9.406-9.512s4.216-9.513 9.406-9.513c5.189 0 9.406 4.254 9.406 9.513zM124.662 54.6c0 5.26-4.216 9.513-9.406 9.513-5.189 0-9.405-4.253-9.405-9.512s4.216-9.513 9.405-9.513c5.19 0 9.406 4.254 9.406 9.513zM144.474 54.6c0 5.26-4.216 9.513-9.406 9.513s-9.406-4.253-9.406-9.512 4.216-9.513 9.406-9.513 9.406 4.254 9.406 9.513zM85.039 54.6c0 5.26-4.216 9.513-9.406 9.513s-9.406-4.253-9.406-9.512 4.216-9.513 9.406-9.513 9.406 4.254 9.406 9.513z"/>
                <path d="M70.18 54.6c0 5.26-4.216 9.513-9.406 9.513s-9.406-4.253-9.406-9.512 4.216-9.513 9.406-9.513 9.406 4.254 9.406 9.513zM94.945 39.583c0 5.258-4.216 9.512-9.406 9.512s-9.406-4.254-9.406-9.512c0-5.26 4.216-9.513 9.406-9.513s9.406 4.254 9.406 9.513zM114.756 39.583c0 5.258-4.216 9.512-9.405 9.512-5.19 0-9.406-4.254-9.406-9.512 0-5.26 4.216-9.513 9.406-9.513 5.189 0 9.405 4.254 9.405 9.513zM134.568 39.583c0 5.258-4.216 9.512-9.406 9.512-5.189 0-9.406-4.254-9.406-9.512 0-5.26 4.217-9.513 9.406-9.513 5.19 0 9.406 4.254 9.406 9.513z"/>
                <path d="M144.474 39.583c0 5.258-4.216 9.512-9.406 9.512s-9.406-4.254-9.406-9.512c0-5.26 4.216-9.513 9.406-9.513s9.406 4.254 9.406 9.513zM75.133 39.583c0 5.258-4.216 9.512-9.406 9.512s-9.406-4.254-9.406-9.512c0-5.26 4.217-9.513 9.406-9.513 5.19 0 9.406 4.254 9.406 9.513z"/>
                <path d="M70.18 39.583c0 5.258-4.216 9.512-9.406 9.512s-9.406-4.254-9.406-9.512c0-5.26 4.217-9.513 9.406-9.513 5.19 0 9.406 4.254 9.406 9.513zM104.851 24.564c0 5.259-4.217 9.512-9.406 9.512-5.19 0-9.406-4.253-9.406-9.512s4.216-9.513 9.406-9.513c5.189 0 9.406 4.254 9.406 9.513zM124.662 24.564c0 5.259-4.216 9.512-9.406 9.512-5.189 0-9.405-4.253-9.405-9.512s4.216-9.513 9.405-9.513c5.19 0 9.406 4.254 9.406 9.513zM144.474 24.564c0 5.259-4.216 9.512-9.406 9.512s-9.406-4.253-9.406-9.512 4.216-9.513 9.406-9.513 9.406 4.254 9.406 9.513zM85.039 24.564c0 5.259-4.216 9.512-9.406 9.512s-9.406-4.253-9.406-9.512 4.216-9.513 9.406-9.513 9.406 4.254 9.406 9.513z"/>
                <path d="M70.18 24.564c0 5.26-4.216 9.513-9.406 9.513s-9.406-4.254-9.406-9.512c0-5.26 4.216-9.513 9.406-9.513s9.406 4.254 9.406 9.512zM124.662 174.751c0 5.259-4.216 9.513-9.406 9.513-5.189 0-9.405-4.254-9.405-9.513 0-5.258 4.216-9.512 9.405-9.512 5.19 0 9.406 4.254 9.406 9.512zM144.474 174.751c0 5.259-4.216 9.513-9.406 9.513s-9.406-4.254-9.406-9.513c0-5.258 4.216-9.512 9.406-9.512s9.406 4.254 9.406 9.512zM85.039 174.751c0 5.259-4.216 9.513-9.406 9.513s-9.406-4.254-9.406-9.513c0-5.258 4.216-9.512 9.406-9.512s9.406 4.254 9.406 9.512z"/>
                <path d="M70.18 174.751c0 5.259-4.216 9.513-9.406 9.513s-9.406-4.254-9.406-9.513c0-5.258 4.216-9.512 9.406-9.512s9.406 4.254 9.406 9.512z"/>
            </g>
            <mask id="c" width="482" height="276" x="-142" y="0" maskUnits="userSpaceOnUse">
                <path fill="#4A0000" d="M-141.594.028h481.25v275h-481.25z"/>
            </mask>
            <g mask="url(#c)">
                <path fill="#BDE5F4" d="M29.43-1147.62l132.438-.74-6.655 1380.81-31.446 42.522-52.41-.001-31.446-42.487L29.43-1147.62zM71.358 274.974h52.41l-10.482 53.109H81.84l-10.482-53.109z"/>
                <path fill="#F5F7F9" d="M44.734 228.19l-2.66-460.668h109.103l-2.661 460.668-34.594 44.751H79.328L44.734 228.19z"/>
                <g fill="#CCD8E1" stroke="#003E6B" stroke-width="2" opacity=".3">
                    <path d="M73.821 225.557c0 5.275-4.217 9.529-9.39 9.529-5.175 0-9.392-4.254-9.392-9.529s4.217-9.529 9.391-9.529 9.391 4.254 9.391 9.529zM94.603 225.557c0 5.275-4.217 9.529-9.391 9.529s-9.391-4.254-9.391-9.529 4.217-9.529 9.39-9.529c5.175 0 9.392 4.254 9.392 9.529zM115.385 225.557c0 5.275-4.217 9.529-9.391 9.529s-9.391-4.254-9.391-9.529 4.217-9.529 9.391-9.529 9.391 4.254 9.391 9.529zM136.166 225.557c0 5.275-4.217 9.529-9.391 9.529-5.173 0-9.39-4.254-9.39-9.529s4.217-9.529 9.39-9.529c5.174 0 9.391 4.254 9.391 9.529z" opacity=".9"/>
                    <path d="M84.212 241.351c0 5.276-4.217 9.529-9.39 9.529-5.175 0-9.392-4.253-9.392-9.529 0-5.275 4.217-9.529 9.391-9.529s9.391 4.254 9.391 9.529z" opacity=".9"/>
                    <path d="M94.603 257.146c0 5.276-4.217 9.53-9.391 9.53s-9.391-4.254-9.391-9.53 4.217-9.53 9.39-9.53c5.175 0 9.392 4.254 9.392 9.53zM115.385 257.146c0 5.276-4.217 9.53-9.391 9.53s-9.391-4.254-9.391-9.53 4.217-9.53 9.391-9.53 9.391 4.254 9.391 9.53zM125.776 241.351c0 5.276-4.217 9.529-9.391 9.529s-9.391-4.253-9.391-9.529c0-5.275 4.217-9.529 9.391-9.529s9.391 4.254 9.391 9.529z" opacity=".9"/>
                    <path d="M104.994 241.351c0 5.276-4.217 9.529-9.391 9.529s-9.391-4.253-9.391-9.529c0-5.275 4.217-9.529 9.39-9.529 5.175 0 9.392 4.254 9.392 9.529zM146.557 209.763c0 5.275-4.217 9.529-9.391 9.529s-9.391-4.254-9.391-9.529c0-5.276 4.217-9.53 9.391-9.53s9.391 4.254 9.391 9.53zM125.776 209.763c0 5.275-4.217 9.529-9.391 9.529s-9.391-4.254-9.391-9.529c0-5.276 4.217-9.53 9.391-9.53s9.391 4.254 9.391 9.53zM104.994 209.763c0 5.275-4.217 9.529-9.391 9.529s-9.391-4.254-9.391-9.529c0-5.276 4.217-9.53 9.39-9.53 5.175 0 9.392 4.254 9.392 9.53zM84.212 209.763c0 5.275-4.217 9.529-9.39 9.529-5.175 0-9.392-4.254-9.392-9.529 0-5.276 4.217-9.53 9.391-9.53s9.391 4.254 9.391 9.53z" opacity=".9"/>
                    <path d="M68.626 209.763c0 5.275-4.217 9.529-9.391 9.529s-9.391-4.254-9.391-9.529c0-5.276 4.217-9.53 9.39-9.53 5.175 0 9.392 4.254 9.392 9.53zM94.603 193.968c0 5.276-4.217 9.53-9.391 9.53s-9.391-4.254-9.391-9.53c0-5.275 4.217-9.53 9.39-9.53 5.175 0 9.392 4.255 9.392 9.53zM94.603 162.38c0 5.275-4.217 9.529-9.391 9.529s-9.391-4.254-9.391-9.529c0-5.276 4.217-9.53 9.39-9.53 5.175 0 9.392 4.254 9.392 9.53zM94.603 130.792c0 5.275-4.217 9.529-9.391 9.529s-9.391-4.254-9.391-9.529c0-5.276 4.217-9.53 9.39-9.53 5.175 0 9.392 4.254 9.392 9.53zM115.385 130.792c0 5.275-4.217 9.529-9.391 9.529s-9.391-4.254-9.391-9.529c0-5.276 4.217-9.53 9.391-9.53s9.391 4.254 9.391 9.53zM136.166 130.792c0 5.275-4.217 9.529-9.391 9.529-5.173 0-9.39-4.254-9.39-9.529 0-5.276 4.217-9.53 9.39-9.53 5.174 0 9.391 4.254 9.391 9.53z" opacity=".9"/>
                    <path d="M146.557 130.792c0 5.275-4.217 9.529-9.391 9.529s-9.391-4.254-9.391-9.529c0-5.276 4.217-9.53 9.391-9.53s9.391 4.254 9.391 9.53zM73.821 130.792c0 5.275-4.217 9.529-9.39 9.529-5.175 0-9.392-4.254-9.392-9.529 0-5.276 4.217-9.53 9.391-9.53s9.391 4.254 9.391 9.53z" opacity=".9"/>
                    <path d="M68.626 130.792c0 5.275-4.217 9.529-9.391 9.529s-9.391-4.254-9.391-9.529c0-5.276 4.217-9.53 9.39-9.53 5.175 0 9.392 4.254 9.392 9.53zM115.385 162.38c0 5.275-4.217 9.529-9.391 9.529s-9.391-4.254-9.391-9.529c0-5.276 4.217-9.53 9.391-9.53s9.391 4.254 9.391 9.53zM136.166 162.38c0 5.275-4.217 9.529-9.391 9.529-5.173 0-9.39-4.254-9.39-9.529 0-5.276 4.217-9.53 9.39-9.53 5.174 0 9.391 4.254 9.391 9.53z" opacity=".9"/>
                    <path d="M141.362 162.38c0 5.275-4.217 9.529-9.391 9.529s-9.391-4.254-9.391-9.529c0-5.276 4.217-9.53 9.391-9.53s9.391 4.254 9.391 9.53zM73.821 162.38c0 5.275-4.217 9.529-9.39 9.529-5.175 0-9.392-4.254-9.392-9.529 0-5.276 4.217-9.53 9.391-9.53s9.391 4.254 9.391 9.53z" opacity=".9"/>
                    <path d="M68.626 162.38c0 5.275-4.217 9.529-9.391 9.529s-9.391-4.254-9.391-9.529c0-5.276 4.217-9.53 9.39-9.53 5.175 0 9.392 4.254 9.392 9.53zM115.385 193.968c0 5.276-4.217 9.53-9.391 9.53s-9.391-4.254-9.391-9.53c0-5.275 4.217-9.53 9.391-9.53s9.391 4.255 9.391 9.53zM136.166 193.968c0 5.276-4.217 9.53-9.391 9.53-5.173 0-9.39-4.254-9.39-9.53s4.217-9.53 9.39-9.53c5.174 0 9.391 4.254 9.391 9.53z" opacity=".9"/>
                    <path d="M146.557 193.968c0 5.276-4.217 9.53-9.391 9.53s-9.391-4.254-9.391-9.53c0-5.275 4.217-9.53 9.391-9.53s9.391 4.255 9.391 9.53zM73.821 193.968c0 5.276-4.217 9.53-9.39 9.53-5.175 0-9.392-4.254-9.392-9.53 0-5.275 4.217-9.53 9.391-9.53s9.391 4.255 9.391 9.53z" opacity=".9"/>
                    <path d="M68.626 193.968c0 5.276-4.217 9.53-9.391 9.53s-9.391-4.254-9.391-9.53c0-5.275 4.217-9.53 9.39-9.53 5.175 0 9.392 4.255 9.392 9.53zM104.994 178.174c0 5.275-4.217 9.529-9.391 9.529s-9.391-4.254-9.391-9.529 4.217-9.529 9.39-9.529c5.175 0 9.392 4.254 9.392 9.529zM104.994 146.585c0 5.276-4.217 9.53-9.391 9.53s-9.391-4.254-9.391-9.53c0-5.275 4.217-9.529 9.39-9.529 5.175 0 9.392 4.254 9.392 9.529zM125.776 146.585c0 5.276-4.217 9.53-9.391 9.53s-9.391-4.254-9.391-9.53c0-5.275 4.217-9.529 9.391-9.529s9.391 4.254 9.391 9.529zM146.557 146.585c0 5.276-4.217 9.53-9.391 9.53s-9.391-4.254-9.391-9.53c0-5.275 4.217-9.529 9.391-9.529s9.391 4.254 9.391 9.529zM84.212 146.585c0 5.276-4.217 9.53-9.39 9.53-5.175 0-9.392-4.254-9.392-9.53 0-5.275 4.217-9.529 9.391-9.529s9.391 4.254 9.391 9.529z" opacity=".9"/>
                    <path d="M68.626 146.585c0 5.276-4.217 9.53-9.391 9.53s-9.391-4.254-9.391-9.53c0-5.275 4.217-9.529 9.39-9.529 5.175 0 9.392 4.254 9.392 9.529zM104.994 114.997c0 5.276-4.217 9.53-9.391 9.53s-9.391-4.254-9.391-9.53c0-5.275 4.217-9.529 9.39-9.529 5.175 0 9.392 4.254 9.392 9.529zM125.776 114.997c0 5.276-4.217 9.53-9.391 9.53s-9.391-4.254-9.391-9.53c0-5.275 4.217-9.529 9.391-9.529s9.391 4.254 9.391 9.529zM146.557 114.997c0 5.276-4.217 9.53-9.391 9.53s-9.391-4.254-9.391-9.53c0-5.275 4.217-9.529 9.391-9.529s9.391 4.254 9.391 9.529zM84.212 114.997c0 5.276-4.217 9.53-9.39 9.53-5.175 0-9.392-4.254-9.392-9.53 0-5.275 4.217-9.529 9.391-9.529s9.391 4.254 9.391 9.529z" opacity=".9"/>
                    <path d="M68.626 114.997c0 5.276-4.217 9.53-9.391 9.53s-9.391-4.254-9.391-9.53c0-5.275 4.217-9.529 9.39-9.529 5.175 0 9.392 4.254 9.392 9.529zM94.603 99.202c0 5.276-4.217 9.53-9.391 9.53s-9.391-4.254-9.391-9.53c0-5.275 4.217-9.53 9.39-9.53 5.175 0 9.392 4.255 9.392 9.53zM115.385 99.202c0 5.276-4.217 9.53-9.391 9.53s-9.391-4.254-9.391-9.53c0-5.275 4.217-9.53 9.391-9.53s9.391 4.255 9.391 9.53zM136.166 99.202c0 5.276-4.217 9.53-9.391 9.53-5.173 0-9.39-4.254-9.39-9.53 0-5.275 4.217-9.53 9.39-9.53 5.174 0 9.391 4.255 9.391 9.53z" opacity=".9"/>
                    <path d="M146.557 99.202c0 5.276-4.217 9.53-9.391 9.53s-9.391-4.254-9.391-9.53c0-5.275 4.217-9.53 9.391-9.53s9.391 4.255 9.391 9.53zM73.821 99.202c0 5.276-4.217 9.53-9.39 9.53-5.175 0-9.392-4.254-9.392-9.53 0-5.275 4.217-9.53 9.391-9.53s9.391 4.255 9.391 9.53z" opacity=".9"/>
                    <path d="M68.626 99.202c0 5.276-4.217 9.53-9.391 9.53s-9.391-4.254-9.391-9.53c0-5.275 4.217-9.53 9.39-9.53 5.175 0 9.392 4.255 9.392 9.53zM104.994 83.408c0 5.276-4.217 9.53-9.391 9.53s-9.391-4.254-9.391-9.53c0-5.275 4.217-9.53 9.39-9.53 5.175 0 9.392 4.255 9.392 9.53zM125.776 83.408c0 5.276-4.217 9.53-9.391 9.53s-9.391-4.254-9.391-9.53c0-5.275 4.217-9.53 9.391-9.53s9.391 4.255 9.391 9.53zM146.557 83.408c0 5.276-4.217 9.53-9.391 9.53s-9.391-4.254-9.391-9.53c0-5.275 4.217-9.53 9.391-9.53s9.391 4.255 9.391 9.53zM84.212 83.408c0 5.276-4.217 9.53-9.39 9.53-5.175 0-9.392-4.254-9.392-9.53 0-5.275 4.217-9.53 9.391-9.53s9.391 4.255 9.391 9.53z" opacity=".9"/>
                    <path d="M68.626 83.408c0 5.276-4.217 9.53-9.391 9.53s-9.391-4.254-9.391-9.53c0-5.275 4.217-9.53 9.39-9.53 5.175 0 9.392 4.255 9.392 9.53zM94.603 67.614c0 5.275-4.217 9.53-9.391 9.53s-9.391-4.255-9.391-9.53c0-5.276 4.217-9.53 9.39-9.53 5.175 0 9.392 4.254 9.392 9.53zM115.385 67.614c0 5.275-4.217 9.53-9.391 9.53s-9.391-4.255-9.391-9.53c0-5.276 4.217-9.53 9.391-9.53s9.391 4.254 9.391 9.53zM136.166 67.614c0 5.275-4.217 9.53-9.391 9.53-5.173 0-9.39-4.255-9.39-9.53 0-5.276 4.217-9.53 9.39-9.53 5.174 0 9.391 4.254 9.391 9.53z" opacity=".9"/>
                    <path d="M146.557 67.614c0 5.275-4.217 9.53-9.391 9.53s-9.391-4.255-9.391-9.53c0-5.276 4.217-9.53 9.391-9.53s9.391 4.254 9.391 9.53zM73.821 67.614c0 5.275-4.217 9.53-9.39 9.53-5.175 0-9.392-4.255-9.392-9.53 0-5.276 4.217-9.53 9.391-9.53s9.391 4.254 9.391 9.53z" opacity=".9"/>
                    <path d="M68.626 67.614c0 5.275-4.217 9.53-9.391 9.53s-9.391-4.255-9.391-9.53c0-5.276 4.217-9.53 9.39-9.53 5.175 0 9.392 4.254 9.392 9.53zM104.994 51.82c0 5.275-4.217 9.529-9.391 9.529s-9.391-4.254-9.391-9.53c0-5.275 4.217-9.53 9.39-9.53 5.175 0 9.392 4.255 9.392 9.53zM125.776 51.82c0 5.275-4.217 9.529-9.391 9.529s-9.391-4.254-9.391-9.53c0-5.275 4.217-9.53 9.391-9.53s9.391 4.255 9.391 9.53zM146.557 51.82c0 5.275-4.217 9.529-9.391 9.529s-9.391-4.254-9.391-9.53c0-5.275 4.217-9.53 9.391-9.53s9.391 4.255 9.391 9.53zM84.212 51.82c0 5.275-4.217 9.529-9.39 9.529-5.175 0-9.392-4.254-9.392-9.53 0-5.275 4.217-9.53 9.391-9.53s9.391 4.255 9.391 9.53z" opacity=".9"/>
                    <path d="M68.626 51.82c0 5.275-4.217 9.529-9.391 9.529s-9.391-4.254-9.391-9.53c0-5.275 4.217-9.53 9.39-9.53 5.175 0 9.392 4.255 9.392 9.53zM94.603 36.025c0 5.276-4.217 9.53-9.391 9.53s-9.391-4.254-9.391-9.53c0-5.275 4.217-9.53 9.39-9.53 5.175 0 9.392 4.255 9.392 9.53zM115.385 36.025c0 5.276-4.217 9.53-9.391 9.53s-9.391-4.254-9.391-9.53c0-5.275 4.217-9.53 9.391-9.53s9.391 4.255 9.391 9.53zM136.166 36.025c0 5.276-4.217 9.53-9.391 9.53-5.173 0-9.39-4.254-9.39-9.53 0-5.275 4.217-9.53 9.39-9.53 5.174 0 9.391 4.255 9.391 9.53z" opacity=".9"/>
                    <path d="M146.557 36.025c0 5.276-4.217 9.53-9.391 9.53s-9.391-4.254-9.391-9.53c0-5.275 4.217-9.53 9.391-9.53s9.391 4.255 9.391 9.53zM73.821 36.025c0 5.276-4.217 9.53-9.39 9.53-5.175 0-9.392-4.254-9.392-9.53 0-5.275 4.217-9.53 9.391-9.53s9.391 4.255 9.391 9.53z" opacity=".9"/>
                    <path d="M68.626 36.025c0 5.276-4.217 9.53-9.391 9.53s-9.391-4.254-9.391-9.53c0-5.275 4.217-9.53 9.39-9.53 5.175 0 9.392 4.255 9.392 9.53zM104.994 20.231c0 5.276-4.217 9.53-9.391 9.53s-9.391-4.254-9.391-9.53c0-5.275 4.217-9.53 9.39-9.53 5.175 0 9.392 4.255 9.392 9.53zM125.776 20.231c0 5.276-4.217 9.53-9.391 9.53s-9.391-4.254-9.391-9.53c0-5.275 4.217-9.53 9.391-9.53s9.391 4.255 9.391 9.53zM146.557 20.231c0 5.276-4.217 9.53-9.391 9.53s-9.391-4.254-9.391-9.53c0-5.275 4.217-9.53 9.391-9.53s9.391 4.255 9.391 9.53zM84.212 20.231c0 5.276-4.217 9.53-9.39 9.53-5.175 0-9.392-4.254-9.392-9.53 0-5.275 4.217-9.53 9.391-9.53s9.391 4.255 9.391 9.53z" opacity=".9"/>
                    <path d="M68.626 20.232c0 5.275-4.217 9.53-9.391 9.53s-9.391-4.255-9.391-9.53c0-5.276 4.217-9.53 9.39-9.53 5.175 0 9.392 4.254 9.392 9.53zM125.776 178.206c-.018 5.275-4.249 9.515-9.423 9.497-5.174-.017-9.377-4.285-9.359-9.561.018-5.275 4.249-9.515 9.423-9.497 5.174.017 9.376 4.285 9.359 9.561zM146.557 178.174c0 5.275-4.217 9.529-9.391 9.529s-9.391-4.254-9.391-9.529 4.217-9.529 9.391-9.529 9.391 4.254 9.391 9.529zM84.212 178.174c0 5.275-4.217 9.529-9.39 9.529-5.175 0-9.392-4.254-9.392-9.529s4.217-9.529 9.391-9.529 9.391 4.254 9.391 9.529z" opacity=".9"/>
                    <path d="M68.626 178.174c0 5.275-4.217 9.529-9.391 9.529s-9.391-4.254-9.391-9.529 4.217-9.529 9.39-9.529c5.175 0 9.392 4.254 9.392 9.529z" opacity=".9"/>
                </g>
            </g>
        </g>
    </g>
    <path stroke="#fff" stroke-dasharray="4 4" stroke-width="3" d="M450.614 98.5l-101.108-95M452.006 174l-102.5 98"/>
    <mask id="d" fill="#fff">
        <path d="M0 13C0 5.82 5.82 0 13 0h330.017c7.179 0 13 5.82 13 13v249c0 7.18-5.821 13-13 13H13c-7.18 0-13-5.82-13-13V13z"/>
    </mask>
    <path fill="#FAAC48" d="M13 3h330.017v-6H13v6zm340.017 10v249h6V13h-6zm-10 259H13v6h330.017v-6zM3 262V13h-6v249h6zm10 10c-5.523 0-10-4.477-10-10h-6c0 8.837 7.163 16 16 16v-6zm340.017-10c0 5.523-4.478 10-10 10v6c8.836 0 16-7.163 16-16h-6zm-10-259c5.522 0 10 4.477 10 10h6c0-8.837-7.164-16-16-16v6zM13-3C4.163-3-3 4.163-3 13h6C3 7.477 7.477 3 13 3v-6z" mask="url(#d)"/>
    <g opacity=".45">
        <mask id="e" width="130" height="270" x="388" y="16" maskUnits="userSpaceOnUse">
            <path fill="#C4C4C4" d="M388.506 16h129v270h-129z"/>
        </mask>
        <g mask="url(#e)">
            <rect width="112.469" height="9.362" x="395.936" y="79.005" fill="#00253F" rx="4.681"/>
            <rect width="114.791" height="13.492" x="394.314" y="71.789" fill="#9F9F9F" rx="4"/>
            <path fill="#797979" fill-opacity=".6" d="M429.018 71.689H474.4v13.492h-45.382z"/>
            <path fill="#C6EDFC" d="M434.357-189.759l33.729-.187-1.694 350.769-8.009 10.802h-13.348l-8.008-10.794-2.67-350.59z"/>
            <path fill="#AA2F2F" d="M438.255 159.741l-.678-117.024h27.787l-.678 117.024-8.81 11.368h-8.811l-8.81-11.368z"/>
            <path fill="#F5F7F9" stroke="#84BE60" d="M445.418 159.072c0 1.206-.966 2.175-2.147 2.175-1.18 0-2.146-.969-2.146-2.175s.966-2.175 2.146-2.175c1.181 0 2.147.969 2.147 2.175zM450.71 159.072c0 1.206-.966 2.175-2.146 2.175s-2.146-.969-2.146-2.175.966-2.175 2.146-2.175 2.146.969 2.146 2.175zM456.003 159.072c0 1.206-.966 2.175-2.146 2.175-1.181 0-2.147-.969-2.147-2.175s.966-2.175 2.147-2.175c1.18 0 2.146.969 2.146 2.175zM461.296 159.072c0 1.206-.966 2.175-2.147 2.175-1.18 0-2.146-.969-2.146-2.175s.966-2.175 2.146-2.175c1.181 0 2.147.969 2.147 2.175zM448.064 163.084c0 1.207-.966 2.175-2.147 2.175-1.18 0-2.146-.968-2.146-2.175 0-1.206.966-2.174 2.146-2.174 1.181 0 2.147.968 2.147 2.174zM450.71 167.097c0 1.206-.966 2.174-2.146 2.174-1.181 0-2.146-.968-2.146-2.174 0-1.207.965-2.175 2.146-2.175 1.18 0 2.146.968 2.146 2.175zM456.003 167.097c0 1.206-.966 2.174-2.146 2.174-1.181 0-2.147-.968-2.147-2.174 0-1.207.966-2.175 2.147-2.175 1.18 0 2.146.968 2.146 2.175zM458.649 163.084c0 1.207-.966 2.175-2.146 2.175s-2.146-.968-2.146-2.175c0-1.206.966-2.174 2.146-2.174s2.146.968 2.146 2.174zM453.357 163.084c0 1.207-.966 2.175-2.147 2.175-1.18 0-2.146-.968-2.146-2.175 0-1.206.966-2.174 2.146-2.174 1.181 0 2.147.968 2.147 2.174zM463.942 155.06c0 1.206-.966 2.175-2.146 2.175-1.181 0-2.147-.969-2.147-2.175s.966-2.175 2.147-2.175c1.18 0 2.146.969 2.146 2.175zM458.649 155.06c0 1.206-.966 2.175-2.146 2.175s-2.146-.969-2.146-2.175.966-2.175 2.146-2.175 2.146.969 2.146 2.175zM453.357 155.06c0 1.206-.966 2.175-2.147 2.175-1.18 0-2.146-.969-2.146-2.175s.966-2.175 2.146-2.175c1.181 0 2.147.969 2.147 2.175zM448.064 155.06c0 1.206-.966 2.175-2.147 2.175-1.18 0-2.146-.969-2.146-2.175s.966-2.175 2.146-2.175c1.181 0 2.147.969 2.147 2.175z"/>
            <path fill="#F5F7F9" stroke="#84BE60" d="M444.094 155.06c0 1.206-.966 2.175-2.146 2.175s-2.146-.969-2.146-2.175.966-2.175 2.146-2.175 2.146.969 2.146 2.175zM450.71 151.048c0 1.206-.966 2.174-2.146 2.174-1.181 0-2.146-.968-2.146-2.174 0-1.207.965-2.175 2.146-2.175 1.18 0 2.146.968 2.146 2.175zM450.71 143.023c0 1.207-.966 2.175-2.146 2.175s-2.146-.968-2.146-2.175c0-1.206.966-2.174 2.146-2.174s2.146.968 2.146 2.174zM450.71 134.999c0 1.206-.966 2.175-2.146 2.175-1.181 0-2.146-.969-2.146-2.175s.965-2.175 2.146-2.175c1.18 0 2.146.969 2.146 2.175zM456.003 134.999c0 1.206-.966 2.175-2.146 2.175-1.181 0-2.147-.969-2.147-2.175s.966-2.175 2.147-2.175c1.18 0 2.146.969 2.146 2.175zM461.296 134.999c0 1.206-.966 2.175-2.147 2.175-1.18 0-2.146-.969-2.146-2.175s.966-2.175 2.146-2.175c1.181 0 2.147.969 2.147 2.175z"/>
            <path fill="#F5F7F9" stroke="#84BE60" d="M463.942 134.999c0 1.206-.966 2.175-2.146 2.175-1.181 0-2.147-.969-2.147-2.175s.966-2.175 2.147-2.175c1.18 0 2.146.969 2.146 2.175zM445.418 134.999c0 1.206-.966 2.175-2.147 2.175-1.18 0-2.146-.969-2.146-2.175s.966-2.175 2.146-2.175c1.181 0 2.147.969 2.147 2.175z"/>
            <path fill="#F5F7F9" stroke="#84BE60" d="M444.094 134.999c0 1.206-.966 2.175-2.146 2.175s-2.146-.969-2.146-2.175.966-2.175 2.146-2.175 2.146.969 2.146 2.175zM456.003 143.023c0 1.207-.966 2.175-2.146 2.175-1.181 0-2.147-.968-2.147-2.175 0-1.206.966-2.174 2.147-2.174 1.18 0 2.146.968 2.146 2.174zM461.296 143.023c0 1.207-.966 2.175-2.147 2.175-1.18 0-2.146-.968-2.146-2.175 0-1.206.966-2.174 2.146-2.174 1.181 0 2.147.968 2.147 2.174z"/>
            <path fill="#F5F7F9" stroke="#84BE60" d="M462.619 143.023c0 1.207-.966 2.175-2.147 2.175-1.18 0-2.146-.968-2.146-2.175 0-1.206.966-2.174 2.146-2.174 1.181 0 2.147.968 2.147 2.174zM445.418 143.023c0 1.207-.966 2.175-2.147 2.175-1.18 0-2.146-.968-2.146-2.175 0-1.206.966-2.174 2.146-2.174 1.181 0 2.147.968 2.147 2.174z"/>
            <path fill="#F5F7F9" stroke="#84BE60" d="M444.094 143.023c0 1.207-.966 2.175-2.146 2.175s-2.146-.968-2.146-2.175c0-1.206.966-2.174 2.146-2.174s2.146.968 2.146 2.174zM456.003 151.048c0 1.206-.966 2.174-2.146 2.174-1.181 0-2.147-.968-2.147-2.174 0-1.207.966-2.175 2.147-2.175 1.18 0 2.146.968 2.146 2.175zM461.296 151.048c0 1.206-.966 2.174-2.147 2.174-1.18 0-2.146-.968-2.146-2.174 0-1.207.966-2.175 2.146-2.175 1.181 0 2.147.968 2.147 2.175z"/>
            <path fill="#F5F7F9" stroke="#84BE60" d="M463.942 151.048c0 1.206-.966 2.174-2.146 2.174-1.181 0-2.147-.968-2.147-2.174 0-1.207.966-2.175 2.147-2.175 1.18 0 2.146.968 2.146 2.175zM445.418 151.048c0 1.206-.966 2.174-2.147 2.174-1.18 0-2.146-.968-2.146-2.174 0-1.207.966-2.175 2.146-2.175 1.181 0 2.147.968 2.147 2.175z"/>
            <path fill="#F5F7F9" stroke="#84BE60" d="M444.094 151.048c0 1.206-.966 2.174-2.146 2.174s-2.146-.968-2.146-2.174c0-1.207.966-2.175 2.146-2.175s2.146.968 2.146 2.175zM453.357 147.035c0 1.207-.966 2.175-2.147 2.175-1.18 0-2.146-.968-2.146-2.175 0-1.206.966-2.174 2.146-2.174 1.181 0 2.147.968 2.147 2.174zM453.357 139.011c0 1.206-.966 2.175-2.147 2.175-1.18 0-2.146-.969-2.146-2.175s.966-2.175 2.146-2.175c1.181 0 2.147.969 2.147 2.175zM458.649 139.011c0 1.206-.966 2.175-2.146 2.175s-2.146-.969-2.146-2.175.966-2.175 2.146-2.175 2.146.969 2.146 2.175zM463.942 139.011c0 1.206-.966 2.175-2.146 2.175-1.181 0-2.147-.969-2.147-2.175s.966-2.175 2.147-2.175c1.18 0 2.146.969 2.146 2.175zM448.064 139.011c0 1.206-.966 2.175-2.147 2.175-1.18 0-2.146-.969-2.146-2.175s.966-2.175 2.146-2.175c1.181 0 2.147.969 2.147 2.175z"/>
            <path fill="#F5F7F9" stroke="#84BE60" d="M444.094 139.011c0 1.206-.966 2.175-2.146 2.175s-2.146-.969-2.146-2.175.966-2.175 2.146-2.175 2.146.969 2.146 2.175zM453.357 130.987c0 1.206-.966 2.174-2.147 2.174-1.18 0-2.146-.968-2.146-2.174 0-1.207.966-2.175 2.146-2.175 1.181 0 2.147.968 2.147 2.175zM458.649 130.987c0 1.206-.966 2.174-2.146 2.174s-2.146-.968-2.146-2.174c0-1.207.966-2.175 2.146-2.175s2.146.968 2.146 2.175zM463.942 130.987c0 1.206-.966 2.174-2.146 2.174-1.181 0-2.147-.968-2.147-2.174 0-1.207.966-2.175 2.147-2.175 1.18 0 2.146.968 2.146 2.175zM448.064 130.987c0 1.206-.966 2.174-2.147 2.174-1.18 0-2.146-.968-2.146-2.174 0-1.207.966-2.175 2.146-2.175 1.181 0 2.147.968 2.147 2.175z"/>
            <path fill="#F5F7F9" stroke="#84BE60" d="M444.094 130.987c0 1.206-.966 2.174-2.146 2.174s-2.146-.968-2.146-2.174c0-1.207.966-2.175 2.146-2.175s2.146.968 2.146 2.175zM450.71 126.974c0 1.206-.966 2.175-2.146 2.175s-2.146-.969-2.146-2.175.966-2.175 2.146-2.175 2.146.969 2.146 2.175zM456.003 126.974c0 1.206-.966 2.175-2.146 2.175-1.181 0-2.147-.969-2.147-2.175s.966-2.175 2.147-2.175c1.18 0 2.146.969 2.146 2.175zM461.296 126.974c0 1.206-.966 2.175-2.147 2.175-1.18 0-2.146-.969-2.146-2.175s.966-2.175 2.146-2.175c1.181 0 2.147.969 2.147 2.175z"/>
            <path fill="#F5F7F9" stroke="#84BE60" d="M463.942 126.974c0 1.206-.966 2.175-2.146 2.175-1.181 0-2.147-.969-2.147-2.175s.966-2.175 2.147-2.175c1.18 0 2.146.969 2.146 2.175zM445.418 126.974c0 1.206-.966 2.175-2.147 2.175-1.18 0-2.146-.969-2.146-2.175s.966-2.175 2.146-2.175c1.181 0 2.147.969 2.147 2.175z"/>
            <path fill="#F5F7F9" stroke="#84BE60" d="M444.094 126.974c0 1.206-.966 2.175-2.146 2.175s-2.146-.969-2.146-2.175.966-2.175 2.146-2.175 2.146.969 2.146 2.175zM453.357 122.962c0 1.206-.966 2.175-2.147 2.175-1.18 0-2.146-.969-2.146-2.175s.966-2.175 2.146-2.175c1.181 0 2.147.969 2.147 2.175zM458.649 122.962c0 1.206-.966 2.175-2.146 2.175s-2.146-.969-2.146-2.175.966-2.175 2.146-2.175 2.146.969 2.146 2.175zM463.942 122.962c0 1.206-.966 2.175-2.146 2.175-1.181 0-2.147-.969-2.147-2.175s.966-2.175 2.147-2.175c1.18 0 2.146.969 2.146 2.175zM448.064 122.962c0 1.206-.966 2.175-2.147 2.175-1.18 0-2.146-.969-2.146-2.175s.966-2.175 2.146-2.175c1.181 0 2.147.969 2.147 2.175z"/>
            <path fill="#F5F7F9" stroke="#84BE60" d="M444.094 122.962c0 1.206-.966 2.175-2.146 2.175s-2.146-.969-2.146-2.175.966-2.175 2.146-2.175 2.146.969 2.146 2.175zM450.71 118.95c0 1.206-.966 2.175-2.146 2.175s-2.146-.969-2.146-2.175.966-2.175 2.146-2.175 2.146.969 2.146 2.175zM456.003 118.95c0 1.206-.966 2.175-2.146 2.175-1.181 0-2.147-.969-2.147-2.175s.966-2.175 2.147-2.175c1.18 0 2.146.969 2.146 2.175zM461.296 118.95c0 1.206-.966 2.175-2.147 2.175-1.18 0-2.146-.969-2.146-2.175s.966-2.175 2.146-2.175c1.181 0 2.147.969 2.147 2.175z"/>
            <path fill="#F5F7F9" stroke="#84BE60" d="M463.942 118.95c0 1.206-.966 2.175-2.146 2.175-1.181 0-2.147-.969-2.147-2.175s.966-2.175 2.147-2.175c1.18 0 2.146.969 2.146 2.175zM445.418 118.95c0 1.206-.966 2.175-2.147 2.175-1.18 0-2.146-.969-2.146-2.175s.966-2.175 2.146-2.175c1.181 0 2.147.969 2.147 2.175z"/>
            <path fill="#F5F7F9" stroke="#84BE60" d="M444.094 118.95c0 1.206-.966 2.175-2.146 2.175s-2.146-.969-2.146-2.175.966-2.175 2.146-2.175 2.146.969 2.146 2.175zM453.357 114.938c0 1.206-.966 2.174-2.147 2.174-1.18 0-2.146-.968-2.146-2.174 0-1.207.966-2.175 2.146-2.175 1.181 0 2.147.968 2.147 2.175zM458.649 114.938c0 1.206-.966 2.174-2.146 2.174s-2.146-.968-2.146-2.174c0-1.207.966-2.175 2.146-2.175s2.146.968 2.146 2.175zM463.942 114.938c0 1.206-.966 2.174-2.146 2.174-1.181 0-2.147-.968-2.147-2.174 0-1.207.966-2.175 2.147-2.175 1.18 0 2.146.968 2.146 2.175zM448.064 114.938c0 1.206-.966 2.174-2.147 2.174-1.18 0-2.146-.968-2.146-2.174 0-1.207.966-2.175 2.146-2.175 1.181 0 2.147.968 2.147 2.175z"/>
            <path fill="#F5F7F9" stroke="#84BE60" d="M444.094 114.938c0 1.206-.966 2.174-2.146 2.174s-2.146-.968-2.146-2.174c0-1.207.966-2.175 2.146-2.175s2.146.968 2.146 2.175zM450.71 110.925c0 1.207-.966 2.175-2.146 2.175s-2.146-.968-2.146-2.175c0-1.206.966-2.175 2.146-2.175s2.146.969 2.146 2.175zM456.003 110.925c0 1.207-.966 2.175-2.146 2.175-1.181 0-2.147-.968-2.147-2.175 0-1.206.966-2.175 2.147-2.175 1.18 0 2.146.969 2.146 2.175zM461.296 110.925c0 1.207-.966 2.175-2.147 2.175-1.18 0-2.146-.968-2.146-2.175 0-1.206.966-2.175 2.146-2.175 1.181 0 2.147.969 2.147 2.175z"/>
            <path fill="#F5F7F9" stroke="#84BE60" d="M463.942 110.925c0 1.207-.966 2.175-2.146 2.175-1.181 0-2.147-.968-2.147-2.175 0-1.206.966-2.175 2.147-2.175 1.18 0 2.146.969 2.146 2.175zM445.418 110.925c0 1.207-.966 2.175-2.147 2.175-1.18 0-2.146-.968-2.146-2.175 0-1.206.966-2.175 2.146-2.175 1.181 0 2.147.969 2.147 2.175z"/>
            <path fill="#F5F7F9" stroke="#84BE60" d="M444.094 110.925c0 1.207-.966 2.175-2.146 2.175s-2.146-.968-2.146-2.175c0-1.206.966-2.175 2.146-2.175s2.146.969 2.146 2.175zM453.357 106.913c0 1.206-.966 2.175-2.147 2.175-1.18 0-2.146-.969-2.146-2.175s.966-2.175 2.146-2.175c1.181 0 2.147.969 2.147 2.175zM458.649 106.913c0 1.206-.966 2.175-2.146 2.175s-2.146-.969-2.146-2.175.966-2.175 2.146-2.175 2.146.969 2.146 2.175zM463.942 106.913c0 1.206-.966 2.175-2.146 2.175-1.181 0-2.147-.969-2.147-2.175s.966-2.175 2.147-2.175c1.18 0 2.146.969 2.146 2.175zM448.064 106.913c0 1.206-.966 2.175-2.147 2.175-1.18 0-2.146-.969-2.146-2.175s.966-2.175 2.146-2.175c1.181 0 2.147.969 2.147 2.175z"/>
            <path fill="#F5F7F9" stroke="#84BE60" d="M444.094 106.913c0 1.206-.966 2.175-2.146 2.175s-2.146-.969-2.146-2.175.966-2.175 2.146-2.175 2.146.969 2.146 2.175zM458.649 147.035c0 1.207-.966 2.175-2.146 2.175s-2.146-.968-2.146-2.175c0-1.206.966-2.174 2.146-2.174s2.146.968 2.146 2.174zM463.942 147.035c0 1.207-.966 2.175-2.146 2.175-1.181 0-2.147-.968-2.147-2.175 0-1.206.966-2.174 2.147-2.174 1.18 0 2.146.968 2.146 2.174zM448.064 147.035c0 1.207-.966 2.175-2.147 2.175-1.18 0-2.146-.968-2.146-2.175 0-1.206.966-2.174 2.146-2.174 1.181 0 2.147.968 2.147 2.174z"/>
            <path fill="#F5F7F9" stroke="#84BE60" d="M444.094 147.035c0 1.207-.966 2.175-2.146 2.175s-2.146-.968-2.146-2.175c0-1.206.966-2.174 2.146-2.174s2.146.968 2.146 2.174z"/>
            <path fill="#C6EDFC" fill-opacity=".6" d="M434.357-189.759l33.73-.187-1.695 350.769-8.009 10.802h-13.348l-8.008-10.793-2.67-350.591z"/>
            <path fill="#C6EDFC" d="M445.035 171.625h13.348l-2.669 15.515h-8.009l-2.67-15.515z"/>
            <path fill="#C6EDFC" d="M442.067 185.763h32.141v3.673h-32.141z"/>
            <path fill="#C6EDFC" d="M442.366 190.513l-2.67 2.698v-10.793l2.67 2.699v5.396z"/>
            <path fill="#C6EDFC" d="M439.697 193.211h-2.67v-10.793h2.67z"/>
            <path fill="#93BDCD" d="M469.061 185.117h8.009v5.396h-8.009z"/>
            <path fill="#93BDCD" d="M485.136 182.476v10.678h-10.793v-10.678z"/>
            <path fill="#3FB35F" d="M496.628 185.145a2 2 0 0 1 2 2v1.339a2 2 0 0 1-2 2h-8.793v-5.339h8.793zM462.851 190.485a2 2 0 0 1-2-2v-1.339a2 2 0 0 1 2-2h8.794v5.339h-8.794z"/>
            <path fill="#3FB25F" d="M487.835 185.145v5.339l-2.698 2.67v-10.678l2.698 2.669z"/>
            <path fill="#22803C" fill-opacity=".6" d="M487.835 185.145v5.339l-2.698 2.67v-10.678l2.698 2.669z"/>
            <path fill="#3FB25F" d="M471.644 190.484v-5.339l2.699-2.669v10.678l-2.699-2.67zM434.357 185.117h2.67v5.396h-2.67zM421.01 179.72h8.009v16.19h-8.009z"/>
            <path fill="#3FB25F" d="M429.018 179.72l5.339 5.396v5.397l-5.339 5.396V179.72z"/>
            <path fill="#22803C" fill-opacity=".6" d="M434.357 185.116l-5.339-5.396v16.189l5.339-5.396v-5.397zM471.644 190.484v-5.339l2.699-2.669v10.678l-2.699-2.67z"/>
            <path fill="#C6EDFC" d="M447.705 189.164h8.009v52.617h-2.67l-5.339-16.19v-36.427z"/>
            <path fill="#6698AB" d="M451.709 212.098l4.005 29.682h-2.67l-5.339-16.19 4.004-13.492z"/>
            <ellipse cx="400.988" cy="78.534" fill="#797878" rx="4.004" ry="4.047"/>
            <ellipse cx="402.322" cy="77.184" fill="#D1D1D1" rx="2.67" ry="2.698"/>
            <ellipse cx="502.431" cy="78.534" fill="#797878" rx="4.004" ry="4.047"/>
            <ellipse cx="503.766" cy="77.184" fill="#D1D1D1" rx="2.67" ry="2.698"/>
            <path fill="#B1D8E8" fill-opacity=".4" d="M434.357-187.249h10.678v358.873l-8.008-10.793-2.67-348.08zM467.726-187.249h-9.343v358.873l8.009-10.793 1.334-348.08z"/>
            <path fill="#fff" d="M474.489 66.01a4.945 4.945 0 0 0-4.946-5.008l-5.679-.009-.142 13.375 2.678.004c4.418.007 8.038-3.569 8.085-7.987l.004-.375zM429.071 90.195a4.946 4.946 0 0 1 4.947-5.008l5.678-.01.143 13.375-2.678.005c-4.419.007-8.039-3.57-8.086-7.987l-.004-.375zM474.489 90.195a4.945 4.945 0 0 0-4.946-5.008l-5.679-.01-.142 13.375 2.678.005c4.418.007 8.038-3.57 8.085-7.987l.004-.375zM429.071 66.01a4.946 4.946 0 0 1 4.947-5.008l5.678-.009.143 13.375-2.678.004c-4.419.007-8.039-3.569-8.086-7.987l-.004-.375z"/>
        </g>
    </g>
    <mask id="f" width="130" height="74" x="387" y="101" maskUnits="userSpaceOnUse">
        <path fill="#C4C4C4" d="M387.506 101.277h128.566v73.466H387.506z"/>
    </mask>
    <g mask="url(#f)">
        <path fill="#FAAC48" d="M433.978-188.84l33.73-.187-1.695 350.769-8.009 10.801h-13.348l-8.008-10.793-2.67-350.59zM444.657 172.544h13.347l-2.669 13.491h-8.009l-2.669-13.491z"/>
        <path fill="#FFF7ED" d="M437.876 160.659l-.678-117.023h27.787l-.678 117.023-8.81 11.368h-8.81l-8.811-11.368z"/>
        <g fill="#FFF7ED" stroke="#FAAC48" opacity=".3">
            <path d="M445.039 159.99c0 1.206-.966 2.175-2.147 2.175-1.18 0-2.146-.969-2.146-2.175s.966-2.175 2.146-2.175c1.181 0 2.147.969 2.147 2.175zM450.331 159.99c0 1.206-.966 2.175-2.146 2.175s-2.146-.969-2.146-2.175.966-2.175 2.146-2.175 2.146.969 2.146 2.175zM455.624 159.99c0 1.206-.966 2.175-2.146 2.175-1.181 0-2.147-.969-2.147-2.175s.966-2.175 2.147-2.175c1.18 0 2.146.969 2.146 2.175zM460.917 159.99c0 1.206-.966 2.175-2.147 2.175-1.18 0-2.146-.969-2.146-2.175s.966-2.175 2.146-2.175c1.181 0 2.147.969 2.147 2.175zM447.685 164.002c0 1.207-.966 2.175-2.146 2.175-1.181 0-2.147-.968-2.147-2.175 0-1.206.966-2.174 2.147-2.174 1.18 0 2.146.968 2.146 2.174zM450.331 168.015c0 1.206-.966 2.174-2.146 2.174s-2.146-.968-2.146-2.174c0-1.207.966-2.175 2.146-2.175s2.146.968 2.146 2.175zM455.624 168.015c0 1.206-.966 2.174-2.146 2.174-1.181 0-2.147-.968-2.147-2.174 0-1.207.966-2.175 2.147-2.175 1.18 0 2.146.968 2.146 2.175zM458.27 164.002c0 1.207-.966 2.175-2.146 2.175s-2.146-.968-2.146-2.175c0-1.206.966-2.174 2.146-2.174s2.146.968 2.146 2.174zM452.978 164.002c0 1.207-.966 2.175-2.147 2.175-1.18 0-2.146-.968-2.146-2.175 0-1.206.966-2.174 2.146-2.174 1.181 0 2.147.968 2.147 2.174zM463.563 155.978c0 1.206-.966 2.175-2.146 2.175-1.181 0-2.147-.969-2.147-2.175s.966-2.175 2.147-2.175c1.18 0 2.146.969 2.146 2.175zM458.27 155.978c0 1.206-.966 2.175-2.146 2.175s-2.146-.969-2.146-2.175.966-2.175 2.146-2.175 2.146.969 2.146 2.175zM452.978 155.978c0 1.206-.966 2.175-2.147 2.175-1.18 0-2.146-.969-2.146-2.175s.966-2.175 2.146-2.175c1.181 0 2.147.969 2.147 2.175zM447.685 155.978c0 1.206-.966 2.175-2.146 2.175-1.181 0-2.147-.969-2.147-2.175s.966-2.175 2.147-2.175c1.18 0 2.146.969 2.146 2.175z"/>
            <path d="M443.715 155.978c0 1.206-.966 2.175-2.146 2.175s-2.146-.969-2.146-2.175.966-2.175 2.146-2.175 2.146.969 2.146 2.175zM450.331 151.966c0 1.206-.966 2.174-2.146 2.174s-2.146-.968-2.146-2.174c0-1.207.966-2.175 2.146-2.175s2.146.968 2.146 2.175zM450.331 143.941c0 1.206-.966 2.175-2.146 2.175s-2.146-.969-2.146-2.175.966-2.175 2.146-2.175 2.146.969 2.146 2.175zM450.331 135.917c0 1.206-.966 2.175-2.146 2.175s-2.146-.969-2.146-2.175.966-2.175 2.146-2.175 2.146.969 2.146 2.175zM455.624 135.917c0 1.206-.966 2.175-2.146 2.175-1.181 0-2.147-.969-2.147-2.175s.966-2.175 2.147-2.175c1.18 0 2.146.969 2.146 2.175zM460.917 135.917c0 1.206-.966 2.175-2.147 2.175-1.18 0-2.146-.969-2.146-2.175s.966-2.175 2.146-2.175c1.181 0 2.147.969 2.147 2.175z"/>
            <path d="M463.563 135.917c0 1.206-.966 2.175-2.146 2.175-1.181 0-2.147-.969-2.147-2.175s.966-2.175 2.147-2.175c1.18 0 2.146.969 2.146 2.175zM445.039 135.917c0 1.206-.966 2.175-2.147 2.175-1.18 0-2.146-.969-2.146-2.175s.966-2.175 2.146-2.175c1.181 0 2.147.969 2.147 2.175z"/>
            <path d="M443.715 135.917c0 1.206-.966 2.175-2.146 2.175s-2.146-.969-2.146-2.175.966-2.175 2.146-2.175 2.146.969 2.146 2.175zM455.624 143.941c0 1.206-.966 2.175-2.146 2.175-1.181 0-2.147-.969-2.147-2.175s.966-2.175 2.147-2.175c1.18 0 2.146.969 2.146 2.175zM460.917 143.941c0 1.206-.966 2.175-2.147 2.175-1.18 0-2.146-.969-2.146-2.175s.966-2.175 2.146-2.175c1.181 0 2.147.969 2.147 2.175z"/>
            <path d="M462.24 143.941c0 1.206-.966 2.175-2.146 2.175-1.181 0-2.147-.969-2.147-2.175s.966-2.175 2.147-2.175c1.18 0 2.146.969 2.146 2.175zM445.039 143.941c0 1.206-.966 2.175-2.147 2.175-1.18 0-2.146-.969-2.146-2.175s.966-2.175 2.146-2.175c1.181 0 2.147.969 2.147 2.175z"/>
            <path d="M443.715 143.941c0 1.206-.966 2.175-2.146 2.175s-2.146-.969-2.146-2.175.966-2.175 2.146-2.175 2.146.969 2.146 2.175zM455.624 151.966c0 1.206-.966 2.174-2.146 2.174-1.181 0-2.147-.968-2.147-2.174 0-1.207.966-2.175 2.147-2.175 1.18 0 2.146.968 2.146 2.175zM460.917 151.966c0 1.206-.966 2.174-2.147 2.174-1.18 0-2.146-.968-2.146-2.174 0-1.207.966-2.175 2.146-2.175 1.181 0 2.147.968 2.147 2.175z"/>
            <path d="M463.563 151.966c0 1.206-.966 2.174-2.146 2.174-1.181 0-2.147-.968-2.147-2.174 0-1.207.966-2.175 2.147-2.175 1.18 0 2.146.968 2.146 2.175zM445.039 151.966c0 1.206-.966 2.174-2.147 2.174-1.18 0-2.146-.968-2.146-2.174 0-1.207.966-2.175 2.146-2.175 1.181 0 2.147.968 2.147 2.175z"/>
            <path d="M443.715 151.966c0 1.206-.966 2.174-2.146 2.174s-2.146-.968-2.146-2.174c0-1.207.966-2.175 2.146-2.175s2.146.968 2.146 2.175zM452.978 147.953c0 1.207-.966 2.175-2.147 2.175-1.18 0-2.146-.968-2.146-2.175 0-1.206.966-2.174 2.146-2.174 1.181 0 2.147.968 2.147 2.174zM452.978 139.929c0 1.206-.966 2.175-2.147 2.175-1.18 0-2.146-.969-2.146-2.175s.966-2.175 2.146-2.175c1.181 0 2.147.969 2.147 2.175zM458.27 139.929c0 1.206-.966 2.175-2.146 2.175s-2.146-.969-2.146-2.175.966-2.175 2.146-2.175 2.146.969 2.146 2.175zM463.563 139.929c0 1.206-.966 2.175-2.146 2.175-1.181 0-2.147-.969-2.147-2.175s.966-2.175 2.147-2.175c1.18 0 2.146.969 2.146 2.175zM447.685 139.929c0 1.206-.966 2.175-2.146 2.175-1.181 0-2.147-.969-2.147-2.175s.966-2.175 2.147-2.175c1.18 0 2.146.969 2.146 2.175z"/>
            <path d="M443.715 139.929c0 1.206-.966 2.175-2.146 2.175s-2.146-.969-2.146-2.175.966-2.175 2.146-2.175 2.146.969 2.146 2.175zM452.978 131.905c0 1.206-.966 2.174-2.147 2.174-1.18 0-2.146-.968-2.146-2.174 0-1.207.966-2.175 2.146-2.175 1.181 0 2.147.968 2.147 2.175zM458.27 131.905c0 1.206-.966 2.174-2.146 2.174s-2.146-.968-2.146-2.174c0-1.207.966-2.175 2.146-2.175s2.146.968 2.146 2.175zM463.563 131.905c0 1.206-.966 2.174-2.146 2.174-1.181 0-2.147-.968-2.147-2.174 0-1.207.966-2.175 2.147-2.175 1.18 0 2.146.968 2.146 2.175zM447.685 131.905c0 1.206-.966 2.174-2.146 2.174-1.181 0-2.147-.968-2.147-2.174 0-1.207.966-2.175 2.147-2.175 1.18 0 2.146.968 2.146 2.175z"/>
            <path d="M443.715 131.905c0 1.206-.966 2.174-2.146 2.174s-2.146-.968-2.146-2.174c0-1.207.966-2.175 2.146-2.175s2.146.968 2.146 2.175zM450.331 127.892c0 1.206-.966 2.175-2.146 2.175s-2.146-.969-2.146-2.175.966-2.175 2.146-2.175 2.146.969 2.146 2.175zM455.624 127.892c0 1.206-.966 2.175-2.146 2.175-1.181 0-2.147-.969-2.147-2.175s.966-2.175 2.147-2.175c1.18 0 2.146.969 2.146 2.175zM460.917 127.892c0 1.206-.966 2.175-2.147 2.175-1.18 0-2.146-.969-2.146-2.175s.966-2.175 2.146-2.175c1.181 0 2.147.969 2.147 2.175z"/>
            <path d="M463.563 127.892c0 1.206-.966 2.175-2.146 2.175-1.181 0-2.147-.969-2.147-2.175s.966-2.175 2.147-2.175c1.18 0 2.146.969 2.146 2.175zM445.039 127.892c0 1.206-.966 2.175-2.147 2.175-1.18 0-2.146-.969-2.146-2.175s.966-2.175 2.146-2.175c1.181 0 2.147.969 2.147 2.175z"/>
            <path d="M443.715 127.892c0 1.206-.966 2.175-2.146 2.175s-2.146-.969-2.146-2.175.966-2.175 2.146-2.175 2.146.969 2.146 2.175zM452.978 123.88c0 1.206-.966 2.175-2.147 2.175-1.18 0-2.146-.969-2.146-2.175s.966-2.175 2.146-2.175c1.181 0 2.147.969 2.147 2.175zM458.27 123.88c0 1.206-.966 2.175-2.146 2.175s-2.146-.969-2.146-2.175.966-2.175 2.146-2.175 2.146.969 2.146 2.175zM463.563 123.88c0 1.206-.966 2.175-2.146 2.175-1.181 0-2.147-.969-2.147-2.175s.966-2.175 2.147-2.175c1.18 0 2.146.969 2.146 2.175zM447.685 123.88c0 1.206-.966 2.175-2.146 2.175-1.181 0-2.147-.969-2.147-2.175s.966-2.175 2.147-2.175c1.18 0 2.146.969 2.146 2.175z"/>
            <path d="M443.715 123.88c0 1.206-.966 2.175-2.146 2.175s-2.146-.969-2.146-2.175.966-2.175 2.146-2.175 2.146.969 2.146 2.175zM450.331 119.868c0 1.206-.966 2.175-2.146 2.175s-2.146-.969-2.146-2.175.966-2.175 2.146-2.175 2.146.969 2.146 2.175zM455.624 119.868c0 1.206-.966 2.175-2.146 2.175-1.181 0-2.147-.969-2.147-2.175s.966-2.175 2.147-2.175c1.18 0 2.146.969 2.146 2.175zM460.917 119.868c0 1.206-.966 2.175-2.147 2.175-1.18 0-2.146-.969-2.146-2.175s.966-2.175 2.146-2.175c1.181 0 2.147.969 2.147 2.175z"/>
            <path d="M463.563 119.868c0 1.206-.966 2.175-2.146 2.175-1.181 0-2.147-.969-2.147-2.175s.966-2.175 2.147-2.175c1.18 0 2.146.969 2.146 2.175zM445.039 119.868c0 1.206-.966 2.175-2.147 2.175-1.18 0-2.146-.969-2.146-2.175s.966-2.175 2.146-2.175c1.181 0 2.147.969 2.147 2.175z"/>
            <path d="M443.715 119.868c0 1.206-.966 2.175-2.146 2.175s-2.146-.969-2.146-2.175.966-2.175 2.146-2.175 2.146.969 2.146 2.175zM452.978 115.856c0 1.206-.966 2.174-2.147 2.174-1.18 0-2.146-.968-2.146-2.174 0-1.207.966-2.175 2.146-2.175 1.181 0 2.147.968 2.147 2.175zM458.27 115.856c0 1.206-.966 2.174-2.146 2.174s-2.146-.968-2.146-2.174c0-1.207.966-2.175 2.146-2.175s2.146.968 2.146 2.175zM463.563 115.856c0 1.206-.966 2.174-2.146 2.174-1.181 0-2.147-.968-2.147-2.174 0-1.207.966-2.175 2.147-2.175 1.18 0 2.146.968 2.146 2.175zM447.685 115.856c0 1.206-.966 2.174-2.146 2.174-1.181 0-2.147-.968-2.147-2.174 0-1.207.966-2.175 2.147-2.175 1.18 0 2.146.968 2.146 2.175z"/>
            <path d="M443.715 115.856c0 1.206-.966 2.174-2.146 2.174s-2.146-.968-2.146-2.174c0-1.207.966-2.175 2.146-2.175s2.146.968 2.146 2.175zM450.331 111.843c0 1.207-.966 2.175-2.146 2.175s-2.146-.968-2.146-2.175c0-1.206.966-2.175 2.146-2.175s2.146.969 2.146 2.175zM455.624 111.843c0 1.207-.966 2.175-2.146 2.175-1.181 0-2.147-.968-2.147-2.175 0-1.206.966-2.175 2.147-2.175 1.18 0 2.146.969 2.146 2.175zM460.917 111.843c0 1.207-.966 2.175-2.147 2.175-1.18 0-2.146-.968-2.146-2.175 0-1.206.966-2.175 2.146-2.175 1.181 0 2.147.969 2.147 2.175z"/>
            <path d="M463.563 111.843c0 1.207-.966 2.175-2.146 2.175-1.181 0-2.147-.968-2.147-2.175 0-1.206.966-2.175 2.147-2.175 1.18 0 2.146.969 2.146 2.175zM445.039 111.843c0 1.207-.966 2.175-2.147 2.175-1.18 0-2.146-.968-2.146-2.175 0-1.206.966-2.175 2.146-2.175 1.181 0 2.147.969 2.147 2.175z"/>
            <path d="M443.715 111.843c0 1.207-.966 2.175-2.146 2.175s-2.146-.968-2.146-2.175c0-1.206.966-2.175 2.146-2.175s2.146.969 2.146 2.175zM452.978 107.831c0 1.206-.966 2.175-2.147 2.175-1.18 0-2.146-.969-2.146-2.175s.966-2.175 2.146-2.175c1.181 0 2.147.969 2.147 2.175zM458.27 107.831c0 1.206-.966 2.175-2.146 2.175s-2.146-.969-2.146-2.175.966-2.175 2.146-2.175 2.146.969 2.146 2.175zM463.563 107.831c0 1.206-.966 2.175-2.146 2.175-1.181 0-2.147-.969-2.147-2.175s.966-2.175 2.147-2.175c1.18 0 2.146.969 2.146 2.175zM447.685 107.831c0 1.206-.966 2.175-2.146 2.175-1.181 0-2.147-.969-2.147-2.175s.966-2.175 2.147-2.175c1.18 0 2.146.969 2.146 2.175z"/>
            <path d="M443.715 107.831c0 1.206-.966 2.175-2.146 2.175s-2.146-.969-2.146-2.175.966-2.175 2.146-2.175 2.146.969 2.146 2.175zM458.27 147.953c0 1.207-.966 2.175-2.146 2.175s-2.146-.968-2.146-2.175c0-1.206.966-2.174 2.146-2.174s2.146.968 2.146 2.174zM463.563 147.953c0 1.207-.966 2.175-2.146 2.175-1.181 0-2.147-.968-2.147-2.175 0-1.206.966-2.174 2.147-2.174 1.18 0 2.146.968 2.146 2.174zM447.685 147.953c0 1.207-.966 2.175-2.146 2.175-1.181 0-2.147-.968-2.147-2.175 0-1.206.966-2.174 2.147-2.174 1.18 0 2.146.968 2.146 2.174z"/>
            <path d="M443.715 147.953c0 1.207-.966 2.175-2.146 2.175s-2.146-.968-2.146-2.175c0-1.206.966-2.174 2.146-2.174s2.146.968 2.146 2.174z"/>
        </g>
        <mask id="g" width="130" height="76" x="387" y="99" maskUnits="userSpaceOnUse">
            <path fill="#C4C4C4" d="M387.506 99h129v76h-129z"/>
        </mask>
        <g mask="url(#g)">
            <path fill="#BDE5F4" d="M433.978-188.84l33.73-.187-1.695 350.769-8.009 10.801h-13.348l-8.008-10.793-2.67-350.59zM444.657 172.544h13.347l-2.669 13.491h-8.009l-2.669-13.491z"/>
            <path fill="#F5F7F9" d="M437.876 160.659l-.678-117.023h27.787l-.678 117.023-8.81 11.368h-8.81l-8.811-11.368z"/>
            <g fill="#CCD8E1" stroke="#003E6B" opacity=".3">
                <path d="M445.039 159.99c0 1.206-.966 2.175-2.147 2.175-1.18 0-2.146-.969-2.146-2.175s.966-2.175 2.146-2.175c1.181 0 2.147.969 2.147 2.175zM450.331 159.99c0 1.206-.966 2.175-2.146 2.175s-2.146-.969-2.146-2.175.966-2.175 2.146-2.175 2.146.969 2.146 2.175zM455.624 159.99c0 1.206-.966 2.175-2.146 2.175-1.181 0-2.147-.969-2.147-2.175s.966-2.175 2.147-2.175c1.18 0 2.146.969 2.146 2.175zM460.917 159.99c0 1.206-.966 2.175-2.147 2.175-1.18 0-2.146-.969-2.146-2.175s.966-2.175 2.146-2.175c1.181 0 2.147.969 2.147 2.175zM447.685 164.002c0 1.207-.966 2.175-2.146 2.175-1.181 0-2.147-.968-2.147-2.175 0-1.206.966-2.174 2.147-2.174 1.18 0 2.146.968 2.146 2.174zM450.331 168.015c0 1.206-.966 2.174-2.146 2.174s-2.146-.968-2.146-2.174c0-1.207.966-2.175 2.146-2.175s2.146.968 2.146 2.175zM455.624 168.015c0 1.206-.966 2.174-2.146 2.174-1.181 0-2.147-.968-2.147-2.174 0-1.207.966-2.175 2.147-2.175 1.18 0 2.146.968 2.146 2.175zM458.27 164.002c0 1.207-.966 2.175-2.146 2.175s-2.146-.968-2.146-2.175c0-1.206.966-2.174 2.146-2.174s2.146.968 2.146 2.174zM452.978 164.002c0 1.207-.966 2.175-2.147 2.175-1.18 0-2.146-.968-2.146-2.175 0-1.206.966-2.174 2.146-2.174 1.181 0 2.147.968 2.147 2.174zM463.563 155.978c0 1.206-.966 2.175-2.146 2.175-1.181 0-2.147-.969-2.147-2.175s.966-2.175 2.147-2.175c1.18 0 2.146.969 2.146 2.175zM458.27 155.978c0 1.206-.966 2.175-2.146 2.175s-2.146-.969-2.146-2.175.966-2.175 2.146-2.175 2.146.969 2.146 2.175zM452.978 155.978c0 1.206-.966 2.175-2.147 2.175-1.18 0-2.146-.969-2.146-2.175s.966-2.175 2.146-2.175c1.181 0 2.147.969 2.147 2.175zM447.685 155.978c0 1.206-.966 2.175-2.146 2.175-1.181 0-2.147-.969-2.147-2.175s.966-2.175 2.147-2.175c1.18 0 2.146.969 2.146 2.175z"/>
                <path d="M443.715 155.978c0 1.206-.966 2.175-2.146 2.175s-2.146-.969-2.146-2.175.966-2.175 2.146-2.175 2.146.969 2.146 2.175zM450.331 151.966c0 1.206-.966 2.174-2.146 2.174s-2.146-.968-2.146-2.174c0-1.207.966-2.175 2.146-2.175s2.146.968 2.146 2.175zM450.331 143.941c0 1.206-.966 2.175-2.146 2.175s-2.146-.969-2.146-2.175.966-2.175 2.146-2.175 2.146.969 2.146 2.175zM450.331 135.917c0 1.206-.966 2.175-2.146 2.175s-2.146-.969-2.146-2.175.966-2.175 2.146-2.175 2.146.969 2.146 2.175zM455.624 135.917c0 1.206-.966 2.175-2.146 2.175-1.181 0-2.147-.969-2.147-2.175s.966-2.175 2.147-2.175c1.18 0 2.146.969 2.146 2.175zM460.917 135.917c0 1.206-.966 2.175-2.147 2.175-1.18 0-2.146-.969-2.146-2.175s.966-2.175 2.146-2.175c1.181 0 2.147.969 2.147 2.175z"/>
                <path d="M463.563 135.917c0 1.206-.966 2.175-2.146 2.175-1.181 0-2.147-.969-2.147-2.175s.966-2.175 2.147-2.175c1.18 0 2.146.969 2.146 2.175zM445.039 135.917c0 1.206-.966 2.175-2.147 2.175-1.18 0-2.146-.969-2.146-2.175s.966-2.175 2.146-2.175c1.181 0 2.147.969 2.147 2.175z"/>
                <path d="M443.715 135.917c0 1.206-.966 2.175-2.146 2.175s-2.146-.969-2.146-2.175.966-2.175 2.146-2.175 2.146.969 2.146 2.175zM455.624 143.941c0 1.206-.966 2.175-2.146 2.175-1.181 0-2.147-.969-2.147-2.175s.966-2.175 2.147-2.175c1.18 0 2.146.969 2.146 2.175zM460.917 143.941c0 1.206-.966 2.175-2.147 2.175-1.18 0-2.146-.969-2.146-2.175s.966-2.175 2.146-2.175c1.181 0 2.147.969 2.147 2.175z"/>
                <path d="M462.24 143.941c0 1.206-.966 2.175-2.146 2.175-1.181 0-2.147-.969-2.147-2.175s.966-2.175 2.147-2.175c1.18 0 2.146.969 2.146 2.175zM445.039 143.941c0 1.206-.966 2.175-2.147 2.175-1.18 0-2.146-.969-2.146-2.175s.966-2.175 2.146-2.175c1.181 0 2.147.969 2.147 2.175z"/>
                <path d="M443.715 143.941c0 1.206-.966 2.175-2.146 2.175s-2.146-.969-2.146-2.175.966-2.175 2.146-2.175 2.146.969 2.146 2.175zM455.624 151.966c0 1.206-.966 2.174-2.146 2.174-1.181 0-2.147-.968-2.147-2.174 0-1.207.966-2.175 2.147-2.175 1.18 0 2.146.968 2.146 2.175zM460.917 151.966c0 1.206-.966 2.174-2.147 2.174-1.18 0-2.146-.968-2.146-2.174 0-1.207.966-2.175 2.146-2.175 1.181 0 2.147.968 2.147 2.175z"/>
                <path d="M463.563 151.966c0 1.206-.966 2.174-2.146 2.174-1.181 0-2.147-.968-2.147-2.174 0-1.207.966-2.175 2.147-2.175 1.18 0 2.146.968 2.146 2.175zM445.039 151.966c0 1.206-.966 2.174-2.147 2.174-1.18 0-2.146-.968-2.146-2.174 0-1.207.966-2.175 2.146-2.175 1.181 0 2.147.968 2.147 2.175z"/>
                <path d="M443.715 151.966c0 1.206-.966 2.174-2.146 2.174s-2.146-.968-2.146-2.174c0-1.207.966-2.175 2.146-2.175s2.146.968 2.146 2.175zM452.978 147.953c0 1.207-.966 2.175-2.147 2.175-1.18 0-2.146-.968-2.146-2.175 0-1.206.966-2.174 2.146-2.174 1.181 0 2.147.968 2.147 2.174zM452.978 139.929c0 1.206-.966 2.175-2.147 2.175-1.18 0-2.146-.969-2.146-2.175s.966-2.175 2.146-2.175c1.181 0 2.147.969 2.147 2.175zM458.27 139.929c0 1.206-.966 2.175-2.146 2.175s-2.146-.969-2.146-2.175.966-2.175 2.146-2.175 2.146.969 2.146 2.175zM463.563 139.929c0 1.206-.966 2.175-2.146 2.175-1.181 0-2.147-.969-2.147-2.175s.966-2.175 2.147-2.175c1.18 0 2.146.969 2.146 2.175zM447.685 139.929c0 1.206-.966 2.175-2.146 2.175-1.181 0-2.147-.969-2.147-2.175s.966-2.175 2.147-2.175c1.18 0 2.146.969 2.146 2.175z"/>
                <path d="M443.715 139.929c0 1.206-.966 2.175-2.146 2.175s-2.146-.969-2.146-2.175.966-2.175 2.146-2.175 2.146.969 2.146 2.175zM452.978 131.905c0 1.206-.966 2.174-2.147 2.174-1.18 0-2.146-.968-2.146-2.174 0-1.207.966-2.175 2.146-2.175 1.181 0 2.147.968 2.147 2.175zM458.27 131.905c0 1.206-.966 2.174-2.146 2.174s-2.146-.968-2.146-2.174c0-1.207.966-2.175 2.146-2.175s2.146.968 2.146 2.175zM463.563 131.905c0 1.206-.966 2.174-2.146 2.174-1.181 0-2.147-.968-2.147-2.174 0-1.207.966-2.175 2.147-2.175 1.18 0 2.146.968 2.146 2.175zM447.685 131.905c0 1.206-.966 2.174-2.146 2.174-1.181 0-2.147-.968-2.147-2.174 0-1.207.966-2.175 2.147-2.175 1.18 0 2.146.968 2.146 2.175z"/>
                <path d="M443.715 131.905c0 1.206-.966 2.174-2.146 2.174s-2.146-.968-2.146-2.174c0-1.207.966-2.175 2.146-2.175s2.146.968 2.146 2.175zM450.331 127.892c0 1.206-.966 2.175-2.146 2.175s-2.146-.969-2.146-2.175.966-2.175 2.146-2.175 2.146.969 2.146 2.175zM455.624 127.892c0 1.206-.966 2.175-2.146 2.175-1.181 0-2.147-.969-2.147-2.175s.966-2.175 2.147-2.175c1.18 0 2.146.969 2.146 2.175zM460.917 127.892c0 1.206-.966 2.175-2.147 2.175-1.18 0-2.146-.969-2.146-2.175s.966-2.175 2.146-2.175c1.181 0 2.147.969 2.147 2.175z"/>
                <path d="M463.563 127.892c0 1.206-.966 2.175-2.146 2.175-1.181 0-2.147-.969-2.147-2.175s.966-2.175 2.147-2.175c1.18 0 2.146.969 2.146 2.175zM445.039 127.892c0 1.206-.966 2.175-2.147 2.175-1.18 0-2.146-.969-2.146-2.175s.966-2.175 2.146-2.175c1.181 0 2.147.969 2.147 2.175z"/>
                <path d="M443.715 127.892c0 1.206-.966 2.175-2.146 2.175s-2.146-.969-2.146-2.175.966-2.175 2.146-2.175 2.146.969 2.146 2.175zM452.978 123.88c0 1.206-.966 2.175-2.147 2.175-1.18 0-2.146-.969-2.146-2.175s.966-2.175 2.146-2.175c1.181 0 2.147.969 2.147 2.175zM458.27 123.88c0 1.206-.966 2.175-2.146 2.175s-2.146-.969-2.146-2.175.966-2.175 2.146-2.175 2.146.969 2.146 2.175zM463.563 123.88c0 1.206-.966 2.175-2.146 2.175-1.181 0-2.147-.969-2.147-2.175s.966-2.175 2.147-2.175c1.18 0 2.146.969 2.146 2.175zM447.685 123.88c0 1.206-.966 2.175-2.146 2.175-1.181 0-2.147-.969-2.147-2.175s.966-2.175 2.147-2.175c1.18 0 2.146.969 2.146 2.175z"/>
                <path d="M443.715 123.88c0 1.206-.966 2.175-2.146 2.175s-2.146-.969-2.146-2.175.966-2.175 2.146-2.175 2.146.969 2.146 2.175zM450.331 119.868c0 1.206-.966 2.175-2.146 2.175s-2.146-.969-2.146-2.175.966-2.175 2.146-2.175 2.146.969 2.146 2.175zM455.624 119.868c0 1.206-.966 2.175-2.146 2.175-1.181 0-2.147-.969-2.147-2.175s.966-2.175 2.147-2.175c1.18 0 2.146.969 2.146 2.175zM460.917 119.868c0 1.206-.966 2.175-2.147 2.175-1.18 0-2.146-.969-2.146-2.175s.966-2.175 2.146-2.175c1.181 0 2.147.969 2.147 2.175z"/>
                <path d="M463.563 119.868c0 1.206-.966 2.175-2.146 2.175-1.181 0-2.147-.969-2.147-2.175s.966-2.175 2.147-2.175c1.18 0 2.146.969 2.146 2.175zM445.039 119.868c0 1.206-.966 2.175-2.147 2.175-1.18 0-2.146-.969-2.146-2.175s.966-2.175 2.146-2.175c1.181 0 2.147.969 2.147 2.175z"/>
                <path d="M443.715 119.868c0 1.206-.966 2.175-2.146 2.175s-2.146-.969-2.146-2.175.966-2.175 2.146-2.175 2.146.969 2.146 2.175zM452.978 115.856c0 1.206-.966 2.174-2.147 2.174-1.18 0-2.146-.968-2.146-2.174 0-1.207.966-2.175 2.146-2.175 1.181 0 2.147.968 2.147 2.175zM458.27 115.856c0 1.206-.966 2.174-2.146 2.174s-2.146-.968-2.146-2.174c0-1.207.966-2.175 2.146-2.175s2.146.968 2.146 2.175zM463.563 115.856c0 1.206-.966 2.174-2.146 2.174-1.181 0-2.147-.968-2.147-2.174 0-1.207.966-2.175 2.147-2.175 1.18 0 2.146.968 2.146 2.175zM447.685 115.856c0 1.206-.966 2.174-2.146 2.174-1.181 0-2.147-.968-2.147-2.174 0-1.207.966-2.175 2.147-2.175 1.18 0 2.146.968 2.146 2.175z"/>
                <path d="M443.715 115.856c0 1.206-.966 2.174-2.146 2.174s-2.146-.968-2.146-2.174c0-1.207.966-2.175 2.146-2.175s2.146.968 2.146 2.175zM450.331 111.843c0 1.207-.966 2.175-2.146 2.175s-2.146-.968-2.146-2.175c0-1.206.966-2.175 2.146-2.175s2.146.969 2.146 2.175zM455.624 111.843c0 1.207-.966 2.175-2.146 2.175-1.181 0-2.147-.968-2.147-2.175 0-1.206.966-2.175 2.147-2.175 1.18 0 2.146.969 2.146 2.175zM460.917 111.843c0 1.207-.966 2.175-2.147 2.175-1.18 0-2.146-.968-2.146-2.175 0-1.206.966-2.175 2.146-2.175 1.181 0 2.147.969 2.147 2.175z"/>
                <path d="M463.563 111.843c0 1.207-.966 2.175-2.146 2.175-1.181 0-2.147-.968-2.147-2.175 0-1.206.966-2.175 2.147-2.175 1.18 0 2.146.969 2.146 2.175zM445.039 111.843c0 1.207-.966 2.175-2.147 2.175-1.18 0-2.146-.968-2.146-2.175 0-1.206.966-2.175 2.146-2.175 1.181 0 2.147.969 2.147 2.175z"/>
                <path d="M443.715 111.843c0 1.207-.966 2.175-2.146 2.175s-2.146-.968-2.146-2.175c0-1.206.966-2.175 2.146-2.175s2.146.969 2.146 2.175zM452.978 107.831c0 1.206-.966 2.175-2.147 2.175-1.18 0-2.146-.969-2.146-2.175s.966-2.175 2.146-2.175c1.181 0 2.147.969 2.147 2.175zM458.27 107.831c0 1.206-.966 2.175-2.146 2.175s-2.146-.969-2.146-2.175.966-2.175 2.146-2.175 2.146.969 2.146 2.175zM463.563 107.831c0 1.206-.966 2.175-2.146 2.175-1.181 0-2.147-.969-2.147-2.175s.966-2.175 2.147-2.175c1.18 0 2.146.969 2.146 2.175zM447.685 107.831c0 1.206-.966 2.175-2.146 2.175-1.181 0-2.147-.969-2.147-2.175s.966-2.175 2.147-2.175c1.18 0 2.146.969 2.146 2.175z"/>
                <path d="M443.715 107.831c0 1.206-.966 2.175-2.146 2.175s-2.146-.969-2.146-2.175.966-2.175 2.146-2.175 2.146.969 2.146 2.175zM458.27 147.953c0 1.207-.966 2.175-2.146 2.175s-2.146-.968-2.146-2.175c0-1.206.966-2.174 2.146-2.174s2.146.968 2.146 2.174zM463.563 147.953c0 1.207-.966 2.175-2.146 2.175-1.181 0-2.147-.968-2.147-2.175 0-1.206.966-2.174 2.147-2.174 1.18 0 2.146.968 2.146 2.174zM447.685 147.953c0 1.207-.966 2.175-2.146 2.175-1.181 0-2.147-.968-2.147-2.175 0-1.206.966-2.174 2.147-2.174 1.18 0 2.146.968 2.146 2.174z"/>
                <path d="M443.715 147.953c0 1.207-.966 2.175-2.146 2.175s-2.146-.968-2.146-2.175c0-1.206.966-2.174 2.146-2.174s2.146.968 2.146 2.174z"/>
            </g>
        </g>
    </g>
    <mask id="h" fill="#fff">
        <path d="M408.151 107a8 8 0 0 1 8-8h70.355a8 8 0 0 1 8 8v59.595a8 8 0 0 1-8 8h-70.354a8 8 0 0 1-8.001-8V107z"/>
    </mask>
    <path fill="#001C30" fill-opacity=".1" d="M408.151 107a8 8 0 0 1 8-8h70.355a8 8 0 0 1 8 8v59.595a8 8 0 0 1-8 8h-70.354a8 8 0 0 1-8.001-8V107z"/>
    <path fill="#FAAC48" d="M416.151 101.5h70.355v-5h-70.355v5zm75.855 5.5v59.595h5V107h-5zm-5.5 65.095h-70.354v5h70.354v-5zm-75.855-5.5V107h-5v59.595h5zm5.501 5.5a5.5 5.5 0 0 1-5.501-5.5h-5c0 5.799 4.702 10.5 10.501 10.5v-5zm75.854-5.5a5.5 5.5 0 0 1-5.5 5.5v5c5.799 0 10.5-4.701 10.5-10.5h-5zm-5.5-65.095a5.5 5.5 0 0 1 5.5 5.5h5c0-5.799-4.701-10.5-10.5-10.5v5zm-70.355-5c-5.798 0-10.5 4.701-10.5 10.5h5a5.5 5.5 0 0 1 5.5-5.5v-5z" mask="url(#h)"/>
</svg>
