<?xml version="1.0" encoding="utf-8"?>
<!-- Generator: Adobe Illustrator 27.1.1, SVG Export Plug-In . SVG Version: 6.00 Build 0)  -->
<svg version="1.1" id="Layer_1" xmlns="http://www.w3.org/2000/svg" xmlns:xlink="http://www.w3.org/1999/xlink" x="0px" y="0px"
	 viewBox="0 0 589 217" style="enable-background:new 0 0 589 217;" xml:space="preserve">
<style type="text/css">
	.st0{fill:url(#SVGID_1_);}
	.st1{fill:#FFFFFF;}
	.st2{fill:#333332;}
	.st3{fill:#1399F1;}
	.st4{fill:#008D36;}
	.st5{fill:#E52826;}
	.st6{fill:#66A1DB;}
	.st7{display:none;fill:#FFFFFF;}
	.st8{fill:none;stroke:#C5C5C5;stroke-width:9.5;}
	.st9{fill:none;stroke:#333332;stroke-width:10;stroke-miterlimit:10;}
	.st10{fill:none;stroke:#66A1DB;stroke-width:10;stroke-miterlimit:10;}
	.st11{fill:none;stroke:#1399F1;stroke-width:10;stroke-miterlimit:10;}
	.st12{fill:none;stroke:#E52826;stroke-width:10;stroke-miterlimit:10;}
	.st13{fill:none;stroke:#008D36;stroke-width:10;stroke-miterlimit:10;}
	.st14{fill:none;stroke:#FFFFFF;stroke-width:4.1336;stroke-linecap:round;stroke-linejoin:round;stroke-miterlimit:10;}
	.st15{fill-rule:evenodd;clip-rule:evenodd;fill:#FAAC48;}
	.st16{enable-background:new    ;}
	.st17{display:none;}
	.st18{display:inline;fill:#FFFFFF;}
	.st19{font-family:'BioSans-Italic';}
	.st20{font-size:16px;}
	.st21{font-family:'BioSans-Regular';}
	.st22{display:inline;}
	.st23{font-size:13px;}
</style>
<g id="Layer_1_00000013897799059525300730000015552272778546001045_">
	
		<linearGradient id="SVGID_1_" gradientUnits="userSpaceOnUse" x1="294.5" y1="623.89" x2="294.5" y2="840.89" gradientTransform="matrix(1 0 0 1 0 -623.89)">
		<stop  offset="0" style="stop-color:#014C91"/>
		<stop  offset="1" style="stop-color:#003257"/>
	</linearGradient>
	<path class="st0" d="M5,0h579c2.8,0,5,2.2,5,5v207c0,2.8-2.2,5-5,5H5c-2.8,0-5-2.2-5-5V5C0,2.2,2.2,0,5,0z"/>
	<path class="st1" d="M93.1,116.4h1.1v-3.2c0.5,0.7,1.2,1,2.1,1c1.6,0,2.5-1,2.5-2.8V110c0-1.8-0.9-2.8-2.5-2.8
		c-1,0-1.7,0.4-2.3,1.2v-1.1h-1v9.1H93.1z M96.2,113.2c-0.9,0-1.5-0.6-2-1.5v-2c0.4-1,1.1-1.5,2-1.5s1.5,0.6,1.5,1.8v1.4
		C97.7,112.5,97.1,113.2,96.2,113.2z M100.8,114h3.7c1.9,0,2.8-0.8,2.8-2.4c0-1.2-0.4-1.9-1.5-2.2l0,0c0.8-0.3,1.2-0.9,1.2-1.9
		c0-1.6-0.9-2.3-2.8-2.3h-3.4C100.8,105.2,100.8,114,100.8,114z M101.9,109v-2.7h2.2c1.2,0,1.7,0.4,1.7,1.4s-0.5,1.4-1.7,1.4h-2.2
		V109z M101.9,112.9V110h2.2c1.4,0,2,0.4,2,1.5c0,1-0.5,1.5-1.8,1.5L101.9,112.9L101.9,112.9z M108,114h1.2l0.8-2.3h3.6l0.8,2.3h1.2
		l-3.2-8.8h-1.2L108,114z M110.4,110.7l1.4-4l1.4,4H110.4z M116.9,114h3c2.3,0,3.4-1.1,3.4-3.4v-2c0-2.4-1-3.4-3.4-3.4h-3V114z
		 M118.1,112.9v-6.7h1.7c1.7,0,2.3,0.7,2.3,2.4v1.9c0,1.7-0.7,2.4-2.3,2.4C119.8,112.9,118.1,112.9,118.1,112.9z"/>
	<path class="st2" d="M77.5,61L77.5,61c3.6,0,6.5,2.9,6.5,6.5l0,0c0,3.6-2.9,6.5-6.5,6.5l0,0c-3.6,0-6.5-2.9-6.5-6.5l0,0
		C71,63.9,73.9,61,77.5,61z"/>
	<path class="st3" d="M77.5,82L77.5,82c3.6,0,6.5,2.9,6.5,6.5l0,0c0,3.6-2.9,6.5-6.5,6.5l0,0c-3.6,0-6.5-2.9-6.5-6.5l0,0
		C71,84.9,73.9,82,77.5,82z"/>
	<path class="st4" d="M77.5,103L77.5,103c3.6,0,6.5,2.9,6.5,6.5l0,0c0,3.6-2.9,6.5-6.5,6.5l0,0c-3.6,0-6.5-2.9-6.5-6.5l0,0
		C71,105.9,73.9,103,77.5,103z"/>
	<path class="st5" d="M77.5,124L77.5,124c3.6,0,6.5,2.9,6.5,6.5l0,0c0,3.6-2.9,6.5-6.5,6.5l0,0c-3.6,0-6.5-2.9-6.5-6.5l0,0
		C71,126.9,73.9,124,77.5,124z"/>
	<path class="st6" d="M77.5,145L77.5,145c3.6,0,6.5,2.9,6.5,6.5l0,0c0,3.6-2.9,6.5-6.5,6.5l0,0c-3.6,0-6.5-2.9-6.5-6.5l0,0
		C71,147.9,73.9,145,77.5,145z"/>
	<path class="st7" d="M373.7,65.3h4.5c2.4,0,3.5-1,3.5-3c0-1.4-0.5-2.3-1.8-2.7l0,0c1-0.4,1.4-1.1,1.4-2.4c0-1.9-1.1-2.8-3.5-2.8
		h-4.2v10.9H373.7z M375.1,59v-3.4h2.7c1.5,0,2.1,0.5,2.1,1.7s-0.6,1.7-2.1,1.7H375.1z M375.1,63.9v-3.6h2.7c1.8,0,2.4,0.5,2.4,1.8
		s-0.6,1.8-2.3,1.8H375.1z M386.2,65.4c1.2,0,2.1-0.5,2.8-1.3v1.1h1.2v-5.4c0-2-1.1-3.1-3.2-3.1s-3.2,0.9-3.3,2.7h1.4
		c0-1,0.7-1.5,1.9-1.5c1.3,0,1.9,0.6,1.9,1.9v0.4h-2c-2.3,0-3.4,0.9-3.4,2.6C383.4,64.5,384.5,65.4,386.2,65.4z M386.4,64.2
		c-1,0-1.6-0.5-1.6-1.3c0-0.9,0.6-1.4,2-1.4h1.9v1.2C388.3,63.7,387.5,64.2,386.4,64.2z M392.7,65.3h1.4V60c0.6-1.3,1.3-1.8,2.2-1.8
		c0.9,0,1.3,0.5,1.3,1.6v5.5h1.4v-5.4c0.6-1.2,1.3-1.7,2.2-1.7c0.9,0,1.3,0.5,1.3,1.6v5.5h1.4v-5.6c0-1.8-0.9-2.8-2.6-2.8
		c-1.1,0-1.9,0.4-2.6,1.4c-0.3-0.9-1.1-1.4-2.3-1.4c-1.1,0-1.9,0.5-2.6,1.5v-1.3h-1.2v8.2H392.7z M406.7,65.3h1.4v-4.9h5.3v4.9h1.4
		V54.4h-1.4V59h-5.3v-4.6h-1.4V65.3z M417.7,65.3h1.4V54.4h-1.4V65.3z"/>
	<path class="st1" d="M408.6,117.2h1.4v-4c0.7,0.9,1.5,1.3,2.6,1.3c1.9,0,3-1.2,3-3.4v-1.8c0-2.3-1.1-3.4-3-3.4
		c-1.2,0-2.1,0.5-2.8,1.5v-1.3h-1.2V117.2z M412.4,113.2c-1.1,0-1.9-0.7-2.4-1.9v-2.4c0.5-1.2,1.4-1.9,2.4-1.9
		c1.1,0,1.8,0.8,1.8,2.3v1.7C414.2,112.4,413.6,113.2,412.4,113.2z M418,114.3h4.5c2.4,0,3.5-1,3.5-3c0-1.4-0.5-2.3-1.8-2.7l0,0
		c1-0.4,1.4-1.1,1.4-2.4c0-1.9-1.1-2.8-3.5-2.8H418V114.3z M419.5,108v-3.4h2.7c1.5,0,2.1,0.5,2.1,1.7s-0.6,1.7-2.1,1.7
		C422.2,108,419.5,108,419.5,108z M419.5,112.9v-3.6h2.7c1.8,0,2.4,0.5,2.4,1.8s-0.6,1.8-2.3,1.8
		C422.3,112.9,419.5,112.9,419.5,112.9z M426.9,114.3h1.5l1-2.8h4.4l1,2.8h1.5l-4-10.9h-1.5L426.9,114.3z M429.8,110.2l1.7-4.9
		l1.7,4.9H429.8z M437.9,114.3h3.7c2.8,0,4.1-1.3,4.1-4.2v-2.4c0-2.9-1.3-4.2-4.1-4.2h-3.7V114.3z M439.3,112.9v-8.3h2.1
		c2,0,2.9,0.8,2.9,2.9v2.4c0,2.1-0.8,2.9-2.9,2.9L439.3,112.9L439.3,112.9z M447.3,110.3h4.8v-1.4h-4.8V110.3z M419.2,134.4
		c2.6,0,4-1.1,4-3.1c0-1.4-0.6-2.3-1.9-2.7l0,0c1-0.4,1.6-1.2,1.6-2.4c0-1.9-1.4-3-3.7-3s-3.7,1.1-3.7,3c0,1.2,0.5,2,1.6,2.4l0,0
		c-1.2,0.4-1.9,1.3-1.9,2.7C415.2,133.3,416.6,134.4,419.2,134.4z M419.2,128c-1.5,0-2.3-0.6-2.3-1.8c0-1.2,0.8-1.8,2.3-1.8
		s2.3,0.6,2.3,1.8S420.7,128,419.2,128z M419.2,133.2c-1.7,0-2.6-0.7-2.6-1.9c0-1.3,0.9-1.9,2.6-1.9s2.6,0.7,2.6,1.9
		C421.8,132.5,420.9,133.2,419.2,133.2z M428.8,134.4c2.4,0,3.7-1.3,3.7-3.6v-4c0-2.4-1.3-3.6-3.7-3.6c-2.4,0-3.7,1.3-3.7,3.6v4
		C425.1,133.2,426.4,134.4,428.8,134.4z M428.8,133.2c-1.6,0-2.3-0.8-2.3-2.4V127c0-1.6,0.8-2.4,2.3-2.4c1.6,0,2.3,0.8,2.3,2.4v3.8
		C431.1,132.4,430.4,133.2,428.8,133.2z M436.3,134.3h1.5c0.2-3.7,1.6-6.8,4.5-9.5v-1.4h-7.7v1.3h6.1
		C437.9,127.3,436.5,130.5,436.3,134.3z M452.8,134.4c1.9,0,3-1.2,3-3.4v-1.8c0-2.3-1.1-3.4-3-3.4c-1.1,0-2,0.4-2.6,1.3v-4.5h-1.4
		v11.7h1.2V133C450.7,134,451.6,134.4,452.8,134.4z M452.6,133.2c-1,0-1.9-0.7-2.4-1.9v-2.4c0.5-1.2,1.4-1.9,2.4-1.9
		c1.1,0,1.8,0.8,1.8,2.3v1.7C454.4,132.4,453.8,133.2,452.6,133.2z M458.1,137.2h1.4v-4c0.7,0.9,1.5,1.3,2.6,1.3c1.9,0,3-1.2,3-3.4
		v-1.8c0-2.3-1.1-3.4-3-3.4c-1.2,0-2.1,0.5-2.8,1.5v-1.3h-1.2V137.2z M461.9,133.2c-1.1,0-1.9-0.7-2.4-1.9v-2.4
		c0.5-1.2,1.4-1.9,2.4-1.9c1.1,0,1.8,0.8,1.8,2.3v1.7C463.8,132.4,463.1,133.2,461.9,133.2z"/>
	<path class="st7" d="M373.7,173.3h1.4v-4.9h5.3v4.9h1.4v-10.9h-1.4v4.6h-5.3v-4.6h-1.4V173.3z M384.6,163.5h1.5v-1.6h-1.5V163.5z
		 M384.6,173.3h1.4V165h-1.4V173.3z M388.7,173.3h1.4v-5.4c0.6-1.2,1.3-1.8,2.3-1.8s1.5,0.6,1.5,1.9v5.3h1.4v-5.4c0-2-0.9-3-2.6-3
		c-1.2,0-2,0.5-2.8,1.5v-1.3h-1.2L388.7,173.3L388.7,173.3z M400.4,173.4c1.2,0,2.1-0.5,2.8-1.5v1.3h1.2v-11.7H403v4.5
		c-0.7-0.9-1.5-1.3-2.6-1.3c-1.9,0-3,1.2-3,3.4v1.8C397.4,172.3,398.5,173.4,400.4,173.4z M400.6,172.2c-1.1,0-1.8-0.8-1.8-2.3v-1.7
		c0-1.5,0.7-2.3,1.8-2.3c1.1,0,1.9,0.7,2.4,1.9v2.4C402.5,171.5,401.7,172.2,400.6,172.2z M407.3,173.3h1.4v-10.9h-1.4V173.3z
		 M411.7,173.3h1.4v-10.9h-1.4V173.3z M416.1,173.3h1.4v-10.9h-1.4V173.3z"/>
	<path class="st1" d="M231.6,107.3h2.7v-4c0.6,0.7,1.4,1,2.4,1c2.1,0,3.3-1.3,3.3-3.9v-2.1c0-2.5-1.2-3.9-3.3-3.9
		c-1.2,0-2.1,0.4-2.8,1.3l-0.1-1.1h-2.3v12.7H231.6z M236.1,102.1c-0.8,0-1.4-0.5-1.8-1.4V98c0.4-0.9,1-1.4,1.8-1.4
		c0.9,0,1.3,0.5,1.3,1.7v2.1C237.4,101.6,236.9,102.1,236.1,102.1z M240.9,104h2.7l0.8-2.5h3.9l0.8,2.5h2.9l-4.1-12.2H245L240.9,104
		z M245.1,99.3l1.3-4.5l1.3,4.5H245.1z M253.3,104h2.7v-4.5h1.5l2.4,4.5h3.1l-2.6-4.8c1.5-0.5,2.2-1.6,2.2-3.6
		c0-2.7-1.2-3.9-4.2-3.9h-5L253.3,104L253.3,104z M256,97.2v-3.1h2c1.3,0,1.8,0.4,1.8,1.6c0,1.1-0.5,1.5-1.8,1.5H256z M263.4,104
		h2.7l0.8-2.5h3.9l0.8,2.5h2.9l-4.1-12.2h-2.8L263.4,104z M267.6,99.3l1.3-4.5l1.3,4.5H267.6z M274.8,99.8h5.7v-2.3h-5.7V99.8z
		 M282.5,104h2.7v-4.5h1.5l2.4,4.5h3.1l-2.6-4.8c1.5-0.5,2.2-1.6,2.2-3.6c0-2.7-1.2-3.9-4.2-3.9h-5V104H282.5z M285.2,97.2v-3.1h2
		c1.3,0,1.8,0.4,1.8,1.6c0,1.1-0.5,1.5-1.8,1.5H285.2z M232.8,126.2c3,0,4.6-1.4,4.6-4.3c0-2.6-1.3-4.1-3.7-4.1
		c-0.9,0-1.7,0.2-2.4,0.7l0.2-2.6h5.4v-2.3h-7.6l-0.4,7.1h2.3c0.4-0.5,1-0.7,1.8-0.7c1.2,0,1.8,0.7,1.8,1.9s-0.6,1.9-1.9,1.9
		c-1.1,0-1.8-0.5-1.8-1.4h-2.6C228.4,125,230,126.2,232.8,126.2z M243.6,126.2c3,0,4.5-1.2,4.5-3.6c0-1.5-0.6-2.4-1.8-2.9l0,0
		c1-0.5,1.5-1.4,1.5-2.6c0-2.2-1.5-3.4-4.2-3.4c-2.8,0-4.3,1.3-4.3,3.7v0.4h2.5v-0.2c0-1,0.6-1.6,1.7-1.6c1.1,0,1.6,0.5,1.6,1.5
		s-0.6,1.4-1.9,1.4h-1.1v2.2h1.2c1.4,0,2.1,0.5,2.1,1.5c0,1.1-0.7,1.5-1.8,1.5c-1.3,0-1.9-0.5-1.9-1.6v-0.3h-2.6v0.6
		C239.1,125,240.6,126.2,243.6,126.2z M254.3,126.2c2.9,0,4.4-1.4,4.4-4.1v-4.4c0-2.7-1.5-4.1-4.4-4.1s-4.4,1.4-4.4,4.1v4.4
		C249.9,124.8,251.4,126.2,254.3,126.2z M254.3,124c-1.2,0-1.8-0.6-1.8-2v-4.2c0-1.4,0.5-2,1.8-2s1.8,0.6,1.8,2v4.2
		C256,123.4,255.5,124,254.3,124z M260.5,126h8.9v-2.3h-6.2c0.2-0.7,0.8-1.2,2.4-1.9c2.7-1.2,3.7-2.5,3.7-4.5c0-2.3-1.5-3.7-4.3-3.7
		s-4.3,1.3-4.3,3.9v0.6h2.5v-0.3c0-1.3,0.6-1.9,1.8-1.9c1.2,0,1.7,0.6,1.7,1.5c0,1-0.6,1.6-2.4,2.5c-2.7,1.3-3.8,2.7-3.8,5
		L260.5,126L260.5,126z M280.9,126.2c2.1,0,3.3-1.3,3.3-3.9v-2.1c0-2.5-1.2-3.9-3.3-3.9c-1,0-1.8,0.3-2.4,1v-4.5h-2.7V126h2.3
		l0.1-1.1C278.9,125.8,279.7,126.2,280.9,126.2z M280.3,124.1c-0.8,0-1.4-0.5-1.8-1.4V120c0.4-1,1-1.4,1.8-1.4s1.3,0.5,1.3,1.7v2.1
		C281.6,123.6,281.2,124.1,280.3,124.1z M286.3,129.3h2.7v-4c0.6,0.7,1.4,1,2.4,1c2.1,0,3.3-1.3,3.3-3.9v-2.1c0-2.5-1.2-3.9-3.3-3.9
		c-1.2,0-2.1,0.4-2.8,1.3l-0.1-1.1h-2.3L286.3,129.3L286.3,129.3z M290.7,124.1c-0.8,0-1.4-0.5-1.8-1.4V120c0.4-0.9,1-1.4,1.8-1.4
		c0.9,0,1.3,0.5,1.3,1.7v2.1C292,123.6,291.6,124.1,290.7,124.1z"/>
	<circle class="st8" cx="262.5" cy="107.6" r="70"/>
	<path class="st9" d="M194.6,124.9c-5.6-21.9-0.4-46.2,15.9-64.4"/>
	<path class="st10" d="M277.1,175.8c-28.4,6.1-58.4-6-74.1-31.4"/>
	<path class="st11" d="M237.1,42.2c21.5-8.3,46.6-5.9,66.4,8.7c2,1.4,3.8,2.9,5.5,4.5"/>
	<path class="st12" d="M332.4,100.5c1.9,19.5-4.4,39.3-17.9,54.2"/>
	<path class="st13" d="M322.6,71.3c4.9,8,7.9,16.5,9.3,25.2"/>
	<path class="st1" d="M322.8,154.9l-7.9-7.2c0,0-2.8,3.3-4.1,4.6l7.8,7.2C318.6,159.5,320.9,157.2,322.8,154.9z"/>
	<path class="st1" d="M317.5,150.1l-3.8-3.4c0,0-2.8,3.2-4.1,4.5l3.7,3.6C313.3,154.7,315.5,152.7,317.5,150.1z"/>
	<path class="st14" d="M318.2,154.8l15.5,14.3h29.9"/>
	<path class="st1" d="M326.8,66.3l-9.3,5.8c0,0,2.4,3.6,3.2,5.2l9.3-5.6C330,71.7,328.9,69.5,326.8,66.3z"/>
	<path class="st1" d="M320.8,70l-4.4,2.7c0,0,2.3,3.5,3.1,5.2l4.5-2.6C324,75.4,321.7,71.3,320.8,70z"/>
	<path class="st14" d="M326.2,70.3l18.9-11h18.5"/>
	<path class="st15" d="M439.6,59.3c0.6,0,1,0.4,1,1v1.9h-2v-0.9h-0.9v-2H439.6z M430.9,59.3h3.9v2h-3.9V59.3z M426.1,59.3h1.9v2
		h-1.9V59.3z M440.6,65.1V69h-2v-3.9H440.6z M440.6,71.9v3.9h-2v-3.9H440.6z M440.6,78.7v3.9h-2v-3.9H440.6z M440.6,85.6v3.9h-2
		v-3.9H440.6z M440.6,92.4v3.9h-2v-3.9H440.6z M440.6,140.1v3.9h-2v-3.9H440.6z M440.6,146.9v3.9h-2v-3.9H440.6z M440.6,153.7v3.9
		h-2v-3.9H440.6z M440.6,160.5v3.9h-2v-3.9H440.6z M440.6,167.3v1.9c0,0.6-0.4,1-1,1h-1.9v-2h0.9v-0.9H440.6z M434.8,170.3h-3.9v-2
		h3.9V170.3z M428,170.3h-1.9v-2h1.9V170.3z"/>
</g>
<g id="Outline_Text">
	<g class="st16">
		<path class="st1" d="M375,54.4h4.1c2.1,0,3.1,0.7,3.1,2.4c0,1.4-0.6,2.4-1.9,2.8l0,0c1,0.3,1.4,1,1.4,2.2c0,2.2-1.5,3.5-4.1,3.5
			H373L375,54.4z M377.6,64c1.7,0,2.7-0.8,2.7-2.2c0-1-0.5-1.4-2.2-1.4h-2.7l-0.6,3.6C374.8,64,377.6,64,377.6,64z M378.2,59.1
			c1.6,0,2.5-0.7,2.5-2c0-1-0.5-1.3-1.9-1.3h-2.7l-0.6,3.4h2.7V59.1z"/>
		<path class="st1" d="M383.2,63.3c0-1.9,1.5-2.9,3.8-2.9h2.1l0.1-0.4c0-0.2,0-0.4,0-0.6c0-0.9-0.5-1.3-1.6-1.3
			c-1.2,0-2,0.5-2.2,1.5H384c0.4-1.9,1.7-2.7,3.7-2.7s2.9,0.8,2.9,2.3c0,0.2,0,0.5-0.1,0.8l-0.9,5.3h-1.2l0.1-1.1
			c-0.9,0.9-1.8,1.3-2.9,1.3C384.1,65.5,383.2,64.8,383.2,63.3z M388.7,62.6l0.2-1.1H387c-1.4,0-2.3,0.6-2.3,1.7
			c0,0.7,0.4,1.1,1.3,1.1C387.1,64.2,388,63.7,388.7,62.6z"/>
		<path class="st1" d="M393.6,57h1.2l-0.2,1.2c0.8-1,1.7-1.4,2.7-1.4c1.2,0,1.9,0.5,2.1,1.4c0.8-1,1.7-1.4,2.8-1.4
			c1.4,0,2.2,0.7,2.2,2.1c0,0.2,0,0.4,0,0.7l-1,5.6H402l1-5.5c0-0.2,0-0.4,0-0.5c0-0.7-0.4-1.1-1.1-1.1c-0.9,0-1.7,0.6-2.5,1.8
			l-0.9,5.4H397l1-5.5c0-0.2,0-0.4,0-0.5c0-0.7-0.4-1.1-1.1-1.1c-0.9,0-1.7,0.6-2.5,1.8l-0.9,5.3h-1.4L393.6,57z"/>
		<path class="st1" d="M406.8,54.4h1.4V59h5.3v-4.6h1.4v10.9h-1.4v-4.9h-5.3v4.9h-1.4V54.4z"/>
		<path class="st1" d="M417.8,54.4h1.4v10.9h-1.4V54.4z"/>
	</g>
	<g class="st16">
		<path class="st1" d="M374.9,162.4h1.4l-0.8,4.6h5.2l0.8-4.6h1.4l-1.9,10.9h-1.4l0.9-4.9h-5.2l-0.9,4.9H373L374.9,162.4z"/>
		<path class="st1" d="M385.4,165h1.4l-1.5,8.3h-1.4L385.4,165z M385.8,161.9h1.5l-0.3,1.6h-1.5L385.8,161.9z"/>
		<path class="st1" d="M389.4,165h1.2l-0.2,1.2c0.9-1,1.8-1.4,2.9-1.4c1.5,0,2.2,0.8,2.2,2.2c0,0.3,0,0.6-0.1,0.9l-0.9,5.3h-1.4
			l0.9-5.3c0-0.3,0.1-0.5,0.1-0.8c0-0.8-0.4-1.1-1.1-1.1c-1,0-1.9,0.6-2.7,1.8l-0.9,5.3H388L389.4,165z"/>
		<path class="st1" d="M397.4,170v-1.8c0-2.3,1.1-3.4,3-3.4c1.1,0,2,0.4,2.6,1.3v-4.5h1.4v11.7h-1.2V172c-0.7,1-1.6,1.5-2.8,1.5
			C398.5,173.5,397.4,172.3,397.4,170z M403.1,170.4V168c-0.5-1.2-1.4-1.9-2.4-1.9c-1.1,0-1.8,0.8-1.8,2.3v1.7
			c0,1.5,0.7,2.3,1.8,2.3C401.7,172.2,402.5,171.5,403.1,170.4z"/>
		<path class="st1" d="M407.3,162.4h1.4v10.9h-1.4V162.4z"/>
		<path class="st1" d="M411.7,162.4h1.4v10.9h-1.4V162.4z"/>
		<path class="st1" d="M416.1,162.4h1.4v10.9h-1.4V162.4z"/>
	</g>
	<g class="st16">
		<path class="st1" d="M455.5,106h1.2l-0.2,1.5c0.6-1.1,1.4-1.6,2.6-1.6h0.6l-0.2,1.4h-0.4c-1.3,0-2.2,0.7-2.8,2.2l-0.8,4.8H454
			L455.5,106z"/>
		<path class="st1" d="M461.4,107.2h-1.5l0.2-1.2h1.5l0.2-0.9c0.3-1.8,1.1-2.5,2.7-2.5h1.4l-0.2,1.2h-1c-0.8,0-1.3,0.3-1.4,1.3
			L463,106h2.1l-0.2,1.2h-2.1l-1.2,7.1h-1.4L461.4,107.2z"/>
		<path class="st1" d="M466.7,106h1.2l-0.2,1.2c0.9-1,1.8-1.4,3-1.4c1.7,0,2.6,0.9,2.6,2.5c0,0.3,0,0.6-0.1,1l-0.3,1.7
			c-0.4,2.2-1.6,3.4-3.6,3.4c-1.2,0-2-0.4-2.5-1.4l-0.7,4.1h-1.4L466.7,106z M471.4,111l0.3-1.6c0-0.3,0.1-0.5,0.1-0.7
			c0-0.9-0.5-1.5-1.4-1.5c-1.1,0-2,0.7-2.8,1.9l-0.4,2.4c0.3,1.2,1,1.8,2.1,1.8C470.4,113.3,471.2,112.4,471.4,111z"/>
	</g>
	<g class="st16">
		<path class="st1" d="M92.8,154.4c0-1.5,1.2-2.4,3.1-2.4h1.7l0.1-0.4c0-0.2,0-0.3,0-0.5c0-0.7-0.4-1.1-1.3-1.1
			c-1,0-1.6,0.4-1.8,1.2h-1.1c0.4-1.5,1.4-2.2,3-2.2c1.6,0,2.3,0.7,2.3,1.9c0,0.2,0,0.4-0.1,0.6L98,156h-1l0.1-0.9
			c-0.7,0.7-1.5,1-2.4,1C93.5,156.2,92.8,155.6,92.8,154.4z M97.2,153.8l0.2-0.9h-1.6c-1.2,0-1.9,0.5-1.9,1.4c0,0.6,0.3,0.9,1.1,0.9
			C95.9,155.2,96.7,154.7,97.2,153.8z"/>
		<path class="st1" d="M101.2,149.3h1l-0.1,1c0.7-0.8,1.4-1.1,2.2-1.1c0.9,0,1.5,0.4,1.7,1.1c0.7-0.8,1.4-1.1,2.2-1.1
			c1.2,0,1.8,0.6,1.8,1.7c0,0.2,0,0.4,0,0.6l-0.8,4.6H108l0.8-4.5c0-0.2,0-0.3,0-0.4c0-0.6-0.3-0.9-0.9-0.9c-0.7,0-1.4,0.5-2.1,1.4
			l-0.8,4.4H104l0.8-4.5c0-0.2,0-0.3,0-0.4c0-0.6-0.3-0.9-0.9-0.9c-0.7,0-1.4,0.5-2.1,1.5l-0.8,4.3H100L101.2,149.3z"/>
		<path class="st1" d="M112.4,149.3h1l-0.1,1c0.7-0.8,1.5-1.2,2.4-1.2c1.4,0,2.1,0.8,2.1,2.1c0,0.2,0,0.5-0.1,0.8l-0.2,1.4
			c-0.3,1.8-1.3,2.8-2.9,2.8c-0.9,0-1.6-0.4-2-1.1l-0.6,3.3h-1.1L112.4,149.3z M116.3,153.3l0.2-1.3c0-0.2,0.1-0.4,0.1-0.6
			c0-0.8-0.4-1.2-1.2-1.2c-0.9,0-1.7,0.6-2.3,1.6l-0.4,2c0.3,0.9,0.8,1.5,1.7,1.5C115.4,155.2,116.1,154.5,116.3,153.3z"/>
		<path class="st1" d="M120.5,147.2h3.3c1.8,0,2.5,0.6,2.5,2.1c0,1.7-0.8,2.7-2.4,3l1.5,3.7h-1.3l-1.5-3.6h-2l-0.6,3.6h-1.2
			L120.5,147.2z M123,151.3c1.4,0,2.1-0.7,2.1-2c0-0.9-0.4-1.2-1.5-1.2h-2.1l-0.6,3.1H123z"/>
	</g>
	<g class="st16">
		<path class="st1" d="M94.2,128.3h1l-0.2,1.2c0.5-0.9,1.1-1.3,2.1-1.3h0.5l-0.2,1.1h-0.3c-1.1,0-1.8,0.6-2.3,1.8l-0.7,3.9H93
			L94.2,128.3z"/>
		<path class="st1" d="M99,129.2h-1.2l0.2-0.9h1.2l0.1-0.7c0.2-1.4,0.9-2.1,2.2-2.1h1.1l-0.2,1h-0.8c-0.7,0-1,0.3-1.2,1.1l-0.1,0.7
			h1.7l-0.2,0.9h-1.7l-1,5.8H98L99,129.2z"/>
		<path class="st1" d="M103.3,128.3h1l-0.1,1c0.7-0.8,1.5-1.2,2.4-1.2c1.4,0,2.1,0.8,2.1,2.1c0,0.2,0,0.5-0.1,0.8l-0.2,1.4
			c-0.3,1.8-1.3,2.8-2.9,2.8c-0.9,0-1.6-0.4-2-1.1l-0.6,3.3h-1.1L103.3,128.3z M107.2,132.3l0.2-1.3c0-0.2,0.1-0.4,0.1-0.6
			c0-0.8-0.4-1.2-1.2-1.2c-0.9,0-1.7,0.6-2.3,1.6l-0.4,2c0.3,0.9,0.8,1.5,1.7,1.5C106.3,134.2,106.9,133.5,107.2,132.3z"/>
	</g>
	<g class="st16">
		<path class="st1" d="M93.1,70.1c0-0.2,0-0.5,0.1-0.8l0.2-1.1c0.4-2,1.5-2.9,3.3-2.9c1.7,0,2.5,0.8,2.5,2.2c0,0.2,0,0.5-0.1,0.8
			l-0.2,1.1c-0.4,2-1.5,2.9-3.3,2.9C93.9,72.4,93.1,71.6,93.1,70.1z M97.8,69.3l0.2-1c0-0.2,0.1-0.4,0.1-0.6c0-0.9-0.5-1.3-1.4-1.3
			c-1.2,0-1.9,0.7-2.1,2l-0.2,1c0,0.2-0.1,0.4-0.1,0.6c0,0.9,0.5,1.3,1.4,1.3C96.9,71.4,97.6,70.7,97.8,69.3z"/>
		<path class="st1" d="M101.5,65.5h1l-0.2,1.2c0.5-0.9,1.1-1.3,2.1-1.3h0.5l-0.2,1.1h-0.3c-1.1,0-1.8,0.6-2.3,1.8l-0.7,3.9h-1.1
			L101.5,65.5z"/>
		<path class="st1" d="M106.1,65.5h1.1l-1.2,6.7h-1.1L106.1,65.5z M106.5,63h1.2l-0.2,1.3h-1.2L106.5,63z"/>
	</g>
	<g class="st16">
		<path class="st1" d="M92.8,91.6c0-1.5,1.2-2.4,3.1-2.4h1.7l0.1-0.4c0-0.2,0-0.3,0-0.5c0-0.7-0.4-1.1-1.3-1.1c-1,0-1.6,0.4-1.8,1.2
			h-1.1c0.4-1.5,1.4-2.2,3-2.2c1.6,0,2.3,0.7,2.3,1.9c0,0.2,0,0.4-0.1,0.6L98,93.2h-1l0.1-0.9c-0.7,0.7-1.5,1-2.4,1
			C93.5,93.4,92.8,92.8,92.8,91.6z M97.2,91l0.2-0.9h-1.6c-1.2,0-1.9,0.5-1.9,1.4c0,0.6,0.3,0.9,1.1,0.9
			C95.9,92.4,96.7,91.9,97.2,91z"/>
		<path class="st1" d="M101.2,86.5h1l-0.2,1.2c0.5-0.9,1.1-1.3,2.1-1.3h0.5l-0.2,1.1h-0.3c-1.1,0-1.8,0.6-2.3,1.8l-0.7,3.9H100
			L101.2,86.5z"/>
		<path class="st1" d="M104.4,91.6c0-1.5,1.2-2.4,3.1-2.4h1.7l0.1-0.4c0-0.2,0-0.3,0-0.5c0-0.7-0.4-1.1-1.3-1.1
			c-1,0-1.6,0.4-1.8,1.2h-1.1c0.4-1.5,1.4-2.2,3-2.2c1.6,0,2.3,0.7,2.3,1.9c0,0.2,0,0.4-0.1,0.6l-0.8,4.3h-1l0.1-0.9
			c-0.7,0.7-1.5,1-2.4,1C105.1,93.4,104.4,92.8,104.4,91.6z M108.9,91l0.2-0.9h-1.6c-1.2,0-1.9,0.5-1.9,1.4c0,0.6,0.3,0.9,1.1,0.9
			C107.5,92.4,108.3,91.9,108.9,91z"/>
		<path class="st1" d="M111.9,90.8c0-0.3,0-0.7,0.1-1l0.4-2.1c0.4-2.3,1.6-3.5,3.8-3.5c1.9,0,2.8,0.8,2.8,2.4c0,0.3,0,0.5-0.1,0.7
			h-1.1c0-0.2,0-0.3,0-0.5c0-1-0.6-1.5-1.7-1.5c-1.5,0-2.3,0.8-2.6,2.5l-0.4,2.1c-0.1,0.3-0.1,0.6-0.1,0.8c0,1.1,0.6,1.6,1.7,1.6
			c1.4,0,2.2-0.7,2.5-2h1.2c-0.4,2.1-1.6,3.1-3.7,3.1C112.8,93.4,111.9,92.5,111.9,90.8z"/>
	</g>
</g>
<g id="Editable_Text" class="st17">
	<text transform="matrix(1 0 0 1 372.3267 65.2696)" class="st18 st19 st20">Bam</text>
	<text transform="matrix(1 0 0 1 405.0267 65.2696)" class="st18 st21 st20">HI</text>
	<text transform="matrix(1 0 0 1 453.4128 114.3)" class="st18 st19 st20">rfp</text>
	<g class="st22">
		<text transform="matrix(1 0 0 1 92.5001 155.9998)" class="st1 st19 st23">ampR</text>
	</g>
	<g class="st22">
		<text transform="matrix(1 0 0 1 92.5001 135.0004)" class="st1 st19 st23">rfp</text>
	</g>
	<text transform="matrix(1 0 0 1 92.5001 72.2001)" class="st18 st19 st23">ori</text>
	<g class="st22">
		<text transform="matrix(1 0 0 1 92.5001 93.2)" class="st1 st19 st23">araC</text>
	</g>
	<text transform="matrix(1 0 0 1 372.2157 173.264)" class="st18 st19 st20">Hin</text>
	<text transform="matrix(1 0 0 1 396.5157 173.264)" class="st18 st21 st20">dIII</text>
</g>
</svg>
