<svg width="105" height="134" viewBox="0 0 105 134" fill="none" xmlns="http://www.w3.org/2000/svg">
<path fill-rule="evenodd" clip-rule="evenodd" d="M93.2201 108.412L90.9124 129.636L78.7695 32.6934H101.242L93.2201 108.412ZM13.4397 105.421L15.5001 130.116L27.8903 32.7475H5.36279L13.4397 105.421Z" fill="#E4E4E4"/>
<path d="M13 119.116H93L91.8974 130.116C91.8974 130.116 75.0769 133.116 53 133.116C30.9231 133.116 14.1026 130.116 14.1026 130.116L13 119.116Z" fill="#9F9F9F"/>
<path fill-rule="evenodd" clip-rule="evenodd" d="M5.07792 35.3918C5.02685 35.2484 5 35.1734 5 35.1734L5.01614 35.1734C5.00547 35.1356 5 35.1163 5 35.1163L53 35.1449L101 35.1163C101 35.1163 100.995 35.1356 100.984 35.1734L101 35.1734C101 35.1734 100.973 35.2484 100.922 35.3918C100.061 38.4376 92.3245 65.83 90.9277 71.8633C90.1879 75.0586 91.0415 91.9999 92.1227 102.613L92.1227 102.613C92.6349 107.749 93.0901 112.314 93.5454 116.251C94.0006 120.245 91.6675 124.011 88.0824 125.095C79.2051 127.72 67.4825 130.116 53.7113 130.116C53.4736 130.115 53.2365 130.114 53 130.111C52.7635 130.114 52.5264 130.115 52.2887 130.116C38.5175 130.116 26.7949 127.72 17.9176 125.095C14.3325 124.011 11.9994 120.245 12.4546 116.251C12.9098 112.314 13.3651 107.749 13.8772 102.614L13.8773 102.613C14.9585 91.9999 15.8121 75.0586 15.0723 71.8633C13.6755 65.83 5.9391 38.4376 5.07792 35.3918Z" fill="#F5F5F5"/>
<path d="M11 45.1721L94 45.1163C87.7694 63.5563 69.5036 72.1163 52.4731 72.1163C35.4427 72.1163 17.5298 63.5564 11 45.1721Z" fill="#D0D0D0"/>
<path d="M101.132 32.6934C101.132 35.0582 99.5382 37.313 96.6811 39.3479C89.0437 44.7375 72.3405 48.5323 52.9448 48.5323C33.6042 48.5323 16.9009 44.7925 9.26352 39.4029C6.40638 37.368 4.81299 35.1682 4.81299 32.8034C4.81299 24.114 26.3514 17.0195 52.9448 17.0195C79.5932 16.9095 101.132 23.949 101.132 32.6934Z" fill="#A8A8A8"/>
<path d="M96.6812 39.2929C89.0439 44.6826 72.3406 48.4773 52.945 48.4773C33.6043 48.4773 16.901 44.7376 9.26367 39.3479C16.901 33.9583 33.6043 30.1636 52.945 30.1636C72.3406 30.1636 89.0439 33.9033 96.6812 39.2929Z" fill="#0D0E0E"/>
<path fill-rule="evenodd" clip-rule="evenodd" d="M86.2818 21.8694C77.8464 18.818 66.0845 16.9098 53.0032 16.937L53 16.937C39.9467 16.937 28.1845 18.8722 19.7415 21.944C15.5134 23.4823 12.2004 25.2759 9.97379 27.1869C7.74087 29.1033 6.76025 30.9889 6.76025 32.7483C6.76025 34.654 7.89041 36.7206 10.5447 38.7643L10.5498 38.7682L10.555 38.7723C14.0894 41.5409 19.8818 43.9764 27.2844 45.7134C34.6533 47.4426 43.4886 48.4496 53 48.4496C62.5098 48.4496 71.3443 47.4291 78.7129 45.6866C86.1092 43.9375 91.9002 41.4908 95.4369 38.7236C98.0692 36.6032 99.2397 34.5328 99.2397 32.6383C99.2397 30.8781 98.2616 28.9962 96.0345 27.0869C93.813 25.1825 90.506 23.3974 86.2818 21.8694ZM98.0647 24.7035C100.671 26.9379 102.365 29.6138 102.365 32.6383C102.365 35.9115 100.351 38.7885 97.3842 41.1756L97.3762 41.182L97.3682 41.1883C93.3217 44.358 87.0279 46.9412 79.4299 48.738C71.7985 50.5427 62.7209 51.5846 53 51.5846C43.2806 51.5846 34.2038 50.5567 26.5727 48.7661C18.9785 46.9841 12.6851 44.4164 8.63685 41.2473C5.57982 38.892 3.63525 36.0103 3.63525 32.7483C3.63525 29.723 5.33321 27.0439 7.94232 24.8047C10.5578 22.56 14.2502 20.607 18.676 18.9968C27.5403 15.7717 39.6786 11.9211 52.9983 11.9209C66.3449 11.8933 78.4835 15.7158 87.3418 18.9202C91.7645 20.52 95.4527 22.4644 98.0647 24.7035Z" fill="#828383"/>
<path d="M53 54.8567C33.6593 54.8567 16.4616 49.9621 8.16485 42.0976C4.75826 38.8529 3 35.2781 3 31.4834C3 18.3393 24.978 8.055 53 8C81.022 8 103 18.2843 103 31.3734C103 35.1681 101.242 38.7429 97.8351 41.9876C89.5384 49.9621 72.3407 54.8567 53 54.8567ZM53 12.7297C25.6923 12.7297 7.3956 22.409 7.3956 31.4834C7.3956 33.8482 8.65931 36.268 11.0769 38.5779C18.4945 45.6174 34.978 50.1821 53.0549 50.1821C71.1319 50.1821 87.5604 45.5624 95.033 38.5229C97.4506 36.213 98.7143 33.8482 98.7143 31.4284C98.6044 22.354 80.3077 12.7297 53 12.7297Z" fill="#EEEEEE"/>
<mask id="mask0_1_4609" style="mask-type:alpha" maskUnits="userSpaceOnUse" x="14" y="57" width="78" height="71">
<path d="M86.8125 122.241C88.8672 121.615 90.4457 119.313 90.1406 116.616L88.7188 102.929C88.1717 97.5573 87.68 90.6263 87.4219 84.6163C87.2928 81.6106 87.2271 78.8206 87.2344 76.5538C87.2413 74.4194 87.3191 72.3652 87.5938 71.1788C88.1489 68.7807 89.6552 63.1974 91.3281 57.1163H90.6719C81.5319 69.471 66.2537 75.1163 52.0625 75.1163C38.051 75.1163 23.2189 69.6263 14 57.6788C15.6115 63.5438 17.0398 68.8536 17.5781 71.1788C17.8528 72.3652 17.9306 74.4194 17.9375 76.5538C17.9448 78.8206 17.8635 81.6106 17.7344 84.6163C17.4763 90.6242 17 97.5581 16.4531 102.929C16.3149 107.56 15.5466 112.024 15.0156 116.616C14.7092 119.314 16.304 121.615 18.3594 122.241C27.0225 124.802 38.4446 127.116 51.8594 127.116C52.0894 127.115 52.3182 127.119 52.5469 127.116H52.5781H52.6094C52.838 127.119 53.0669 127.115 53.2969 127.116C66.7117 127.116 78.1493 124.802 86.8125 122.241Z" fill="white"/>
</mask>
<g mask="url(#mask0_1_4609)">
<path d="M86.8125 122.241C88.8672 121.615 90.4457 119.313 90.1406 116.616L88.7188 102.929C88.1717 97.5573 87.68 90.6263 87.4219 84.6163C87.2928 81.6106 87.2271 78.8206 87.2344 76.5538C87.2413 74.4194 87.3191 72.3652 87.5938 71.1788C88.1489 68.7807 89.6552 63.1974 91.3281 57.1163H90.6719C81.5319 69.471 66.2537 75.1163 52.0625 75.1163C38.051 75.1163 23.2189 69.6263 14 57.6788C15.6115 63.5438 17.0398 68.8536 17.5781 71.1788C17.8528 72.3652 17.9306 74.4194 17.9375 76.5538C17.9448 78.8206 17.8635 81.6106 17.7344 84.6163C17.4763 90.6242 17 97.5581 16.4531 102.929C16.3149 107.56 15.5466 112.024 15.0156 116.616C14.7092 119.314 16.304 121.615 18.3594 122.241C27.0225 124.802 38.4446 127.116 51.8594 127.116C52.0894 127.115 52.3182 127.119 52.5469 127.116H52.5781H52.6094C52.838 127.119 53.0669 127.115 53.2969 127.116C66.7117 127.116 78.1493 124.802 86.8125 122.241Z" fill="white"/>
<path d="M11 80.1163L94 109.116V120.116H11V80.1163Z" fill="#99C1E7"/>
<path d="M11 88.1163L94 112.116V128.116H11V88.1163Z" fill="#66A1DB"/>
</g>
<rect x="47" y="119.116" width="13.3824" height="5" rx="2.5" fill="#FBBD6D"/>
<path d="M52.6177 122.352H52.9706V121.792H53.2506C53.6553 121.792 53.8271 121.639 53.8271 121.274C53.8271 120.907 53.6553 120.752 53.2506 120.752H52.6177V122.352ZM52.9706 121.49V121.053H53.22C53.3989 121.053 53.4741 121.119 53.4741 121.272C53.4741 121.425 53.3989 121.49 53.22 121.49H52.9706Z" fill="#333333"/>
<path d="M54.4482 122.38C54.6011 122.38 54.714 122.326 54.8105 122.201L54.8199 122.352H55.1164V121.123H54.7682V121.914C54.7164 122.032 54.6434 122.079 54.5493 122.079C54.4505 122.079 54.4058 122.027 54.4058 121.907V121.123H54.0576V121.938C54.0576 122.232 54.1917 122.38 54.4482 122.38Z" fill="#333333"/>
<path d="M55.4181 122.352H55.7663V120.634H55.4181V122.352Z" fill="#333333"/>
<path d="M56.5107 122.38C56.8589 122.38 57.0284 122.25 57.0284 121.982C57.0284 121.745 56.9084 121.629 56.5978 121.594C56.4189 121.573 56.3554 121.538 56.3554 121.458C56.3554 121.387 56.4072 121.347 56.5107 121.347C56.6237 121.347 56.6707 121.389 56.6707 121.486H57.0025C57.0025 121.232 56.8378 121.095 56.5131 121.095C56.1907 121.095 56.0119 121.234 56.0119 121.5C56.0119 121.733 56.1319 121.836 56.4354 121.872C56.6189 121.893 56.6848 121.93 56.6848 122.018C56.6848 122.093 56.6284 122.128 56.5131 122.128C56.3789 122.128 56.3225 122.081 56.3225 121.975H55.9907C55.9907 122.248 56.1554 122.38 56.5107 122.38Z" fill="#333333"/>
<path d="M57.7739 122.38C58.1057 122.38 58.2868 122.241 58.301 121.975H57.9692C57.9621 122.06 57.8939 122.107 57.7763 122.107C57.6257 122.107 57.5621 122.029 57.5621 121.869V121.846H58.308V121.622C58.308 121.281 58.1198 121.095 57.7598 121.095C57.4021 121.095 57.2139 121.276 57.2139 121.618V121.858C57.2139 122.203 57.4021 122.38 57.7739 122.38ZM57.5621 121.601C57.5621 121.436 57.6233 121.368 57.7716 121.368C57.9174 121.368 57.9786 121.436 57.9786 121.601H57.5621Z" fill="#333333"/>
<path fill-rule="evenodd" clip-rule="evenodd" d="M49.9015 120.233C49.6117 120.233 49.309 120.367 49.045 120.561L48.886 120.378C49.1726 120.167 49.5306 119.999 49.9015 119.999C50.2363 119.999 50.5708 120.094 50.8564 120.285L51.0578 120.115L51.223 120.923L50.397 120.671L50.6636 120.447C50.432 120.304 50.1667 120.233 49.9015 120.233ZM48.58 120.924L48.8003 121.681L48.5982 121.628C48.6151 122.18 48.9224 122.66 49.3982 122.834L49.3037 123.052C48.692 122.828 48.3425 122.22 48.3425 121.58V121.561L48.0294 121.479L48.58 120.924ZM50.5817 122.762C50.9733 122.511 51.2606 122.082 51.2606 121.58H51.5156C51.5156 122.2 51.1408 122.72 50.6473 123.003L50.7274 123.296L49.9014 123.044L50.5071 122.489L50.5817 122.762Z" fill="#333333"/>
<path opacity="0.7" d="M58.6995 35.7417C58.512 36.306 58.0745 36.745 57.4495 37.1839C56.3245 37.9363 54.5745 38.5006 52.762 38.5006C51.012 38.5006 49.262 37.999 48.0745 37.1839C47.4495 36.745 47.012 36.306 46.8245 35.7417C46.262 34.1742 48.9495 32.7948 52.762 32.7948C56.637 32.7948 59.262 34.1742 58.6995 35.7417Z" fill="#848484"/>
<path opacity="0.7" d="M57.5118 37.1839C56.3868 37.9363 54.6368 38.5006 52.8243 38.5006C51.0743 38.5006 49.3243 37.999 48.1368 37.1839C49.1993 36.6196 50.8868 36.2433 52.8243 36.2433C54.7618 36.2433 56.3868 36.6196 57.5118 37.1839Z" fill="#353535"/>
<path opacity="0.7" d="M30.5745 41.3848C30.387 41.9491 29.9495 42.388 29.3245 42.8269C28.1995 43.5794 26.4495 44.1437 24.637 44.1437C22.887 44.1437 21.137 43.6421 19.9495 42.8269C19.3245 42.388 18.887 41.9491 18.6995 41.3848C18.137 39.8173 20.8245 38.4379 24.637 38.4379C28.512 38.4379 31.137 39.8173 30.5745 41.3848Z" fill="#848484"/>
<path opacity="0.7" d="M29.3868 42.8269C28.2618 43.5794 26.5118 44.1437 24.6993 44.1437C22.9493 44.1437 21.1993 43.6421 20.0118 42.8269C21.0743 42.2626 22.7618 41.8864 24.6993 41.8864C26.6368 41.8864 28.2618 42.2626 29.3868 42.8269Z" fill="#353535"/>
<path opacity="0.7" d="M43.6995 37.6228C43.512 38.1871 43.0745 38.626 42.4495 39.0649C41.3245 39.8173 39.5745 40.3816 37.762 40.3816C36.012 40.3816 34.262 39.88 33.0745 39.0649C32.4495 38.626 32.012 38.1871 31.8245 37.6228C31.262 36.0552 33.9495 34.6758 37.762 34.6758C41.637 34.6758 44.262 36.0552 43.6995 37.6228Z" fill="#848484"/>
<path opacity="0.7" d="M42.5118 39.0649C41.3868 39.8173 39.6368 40.3816 37.8243 40.3816C36.0743 40.3816 34.3243 39.88 33.1368 39.0649C34.1993 38.5006 35.8868 38.1244 37.8243 38.1244C39.7618 38.1244 41.3868 38.5006 42.5118 39.0649Z" fill="#353535"/>
<path opacity="0.7" d="M74.9494 37.6228C74.7619 38.1871 74.3244 38.626 73.6994 39.0649C72.5744 39.8173 70.8244 40.3816 69.012 40.3816C67.262 40.3816 65.512 39.88 64.3245 39.0649C63.6995 38.626 63.262 38.1871 63.0745 37.6228C62.512 36.0552 65.1995 34.6758 69.012 34.6758C72.8869 34.6758 75.5119 36.0552 74.9494 37.6228Z" fill="#848484"/>
<path opacity="0.7" d="M73.7618 39.0649C72.6368 39.8173 70.8868 40.3816 69.0743 40.3816C67.3243 40.3816 65.5743 39.88 64.3868 39.0649C65.4493 38.5006 67.1368 38.1244 69.0743 38.1244C71.0118 38.1244 72.6368 38.5006 73.7618 39.0649Z" fill="#353535"/>
<path opacity="0.7" d="M88.6995 40.7578C88.512 41.3221 88.0745 41.761 87.4495 42.1999C86.3245 42.9524 84.5745 43.5167 82.762 43.5167C81.012 43.5167 79.262 43.0151 78.0745 42.1999C77.4495 41.761 77.012 41.3221 76.8245 40.7578C76.262 39.1903 78.9495 37.8109 82.762 37.8109C86.637 37.8109 89.262 39.1903 88.6995 40.7578Z" fill="#848484"/>
<path opacity="0.7" d="M87.5118 42.1999C86.3868 42.9523 84.6368 43.5167 82.8243 43.5167C81.0743 43.5167 79.3243 43.0151 78.1368 42.1999C79.1993 41.6356 80.8868 41.2594 82.8243 41.2594C84.7618 41.2594 86.3868 41.6356 87.5118 42.1999Z" fill="#353535"/>
<rect x="26.1" y="78.1" width="54" height="37.8" rx="1.9" fill="white"/>
<path d="M28.84 83.036C28.321 83.036 28.084 82.832 28.084 82.385H28.522C28.522 82.583 28.633 82.67 28.852 82.67C29.05 82.67 29.149 82.598 29.149 82.451C29.149 82.283 29.041 82.211 28.738 82.163C28.285 82.091 28.114 81.923 28.114 81.551C28.114 81.134 28.369 80.924 28.855 80.924C29.335 80.924 29.572 81.128 29.572 81.557H29.134C29.134 81.38 29.041 81.29 28.846 81.29C28.66 81.29 28.564 81.371 28.564 81.506C28.564 81.659 28.669 81.728 28.957 81.77C29.434 81.839 29.599 82.022 29.599 82.406C29.599 82.829 29.35 83.036 28.84 83.036ZM30.2987 82.355V82.385C30.2987 82.589 30.3797 82.688 30.5717 82.688C30.7217 82.688 30.8087 82.628 30.8177 82.52H31.2407C31.2227 82.859 30.9917 83.036 30.5687 83.036C30.0947 83.036 29.8547 82.811 29.8547 82.37V82.064C29.8547 81.629 30.0947 81.398 30.5507 81.398C31.0097 81.398 31.2497 81.635 31.2497 82.07V82.355H30.2987ZM30.5657 81.746C30.3767 81.746 30.2987 81.833 30.2987 82.043H30.8297C30.8297 81.833 30.7517 81.746 30.5657 81.746ZM32.236 82.652H32.41V83H32.083C31.762 83 31.627 82.85 31.627 82.49V81.77H31.399V81.434H31.636L31.66 81.044H32.071V81.434H32.395V81.77H32.071V82.463C32.071 82.61 32.107 82.652 32.236 82.652ZM34.5027 83L34.0977 82.247H33.8547V83H33.4047V80.96H34.2387C34.7397 80.96 34.9377 81.149 34.9377 81.605C34.9377 81.938 34.8297 82.13 34.5747 82.205L35.0157 83H34.5027ZM33.8547 81.344V81.863H34.1907C34.4097 81.863 34.4877 81.788 34.4877 81.605C34.4877 81.419 34.4097 81.344 34.1907 81.344H33.8547ZM36.1101 80.96C36.6261 80.96 36.8451 81.158 36.8451 81.626C36.8451 82.091 36.6261 82.286 36.1101 82.286H35.7531V83H35.3031V80.96H36.1101ZM36.0711 81.902C36.2991 81.902 36.3951 81.818 36.3951 81.623C36.3951 81.428 36.2991 81.344 36.0711 81.344H35.7531V81.902H36.0711ZM39.333 80.96V83H38.883V81.461L38.376 83H38.073L37.566 81.461V83H37.14V80.96H37.8L38.235 82.292L38.667 80.96H39.333Z" fill="#333333"/>
<g clip-path="url(#clip0_1_4609)">
<rect x="28" y="84" width="23" height="9" rx="1" fill="white" fill-opacity="0.5"/>
<path d="M51 84H28V93H51V84Z" fill="#173E50"/>
<path opacity="0.2" d="M45.4542 84L15 93H33.3573L64 84H45.4542Z" fill="white" fill-opacity="0.5"/>
<path opacity="0.2" d="M64.8406 84L35 93H36.9748L67 84H64.8406Z" fill="white" fill-opacity="0.5"/>
<path d="M50.2545 84H30C28.8954 84 28 84.8954 28 86V91.871C28 92.9755 28.8954 93.871 30 93.871H50.2545C51.3591 93.871 52.2545 92.9755 52.2545 91.871V86C52.2545 84.8954 51.3591 84 50.2545 84Z" stroke="#031D29" stroke-miterlimit="10"/>
</g>
<path fill-rule="evenodd" clip-rule="evenodd" d="M48.058 86.5233C47.6581 86.5233 47.2403 86.7085 46.876 86.9757L46.6565 86.723C47.0521 86.4328 47.5461 86.2 48.058 86.2C48.52 86.2 48.9818 86.3318 49.3759 86.5947L49.6538 86.3612L49.8818 87.4759L48.7419 87.1276L49.1098 86.8183C48.7902 86.6215 48.424 86.5233 48.058 86.5233ZM46.2343 87.4766L46.5383 88.5217L46.2594 88.4486C46.2827 89.2101 46.7068 89.8726 47.3635 90.1135L47.2331 90.4138C46.3889 90.1042 45.9065 89.2656 45.9065 88.3825V88.3562L45.4744 88.243L46.2343 87.4766ZM48.9968 90.0139C49.5372 89.6667 49.9338 89.0751 49.9338 88.3822H50.2857C50.2857 89.2383 49.7685 89.9562 49.0874 90.3462L49.1978 90.7513L48.058 90.4029L48.8939 89.6365L48.9968 90.0139Z" fill="white"/>
<path d="M30.7105 87.1651H30V86.7374C30.1936 86.7374 30.3481 86.7228 30.4634 86.6935C30.5828 86.6643 30.6776 86.6167 30.7476 86.5509C30.8176 86.4815 30.8794 86.3828 30.933 86.2548H31.3902V90.0933H30.7105V87.1651Z" fill="white"/>
<path d="M33.3203 90.1481C32.9867 90.1481 32.7333 90.0658 32.5603 89.9013C32.3915 89.7368 32.307 89.501 32.307 89.194V88.8814H32.9496V89.2214C32.9496 89.4736 33.067 89.5997 33.3018 89.5997C33.4171 89.5997 33.5036 89.5687 33.5613 89.5065C33.6231 89.4407 33.6539 89.3274 33.6539 89.1666V88.854C33.6539 88.6785 33.6189 88.5542 33.5489 88.4811C33.4789 88.4044 33.3656 88.366 33.2091 88.366H32.9805V87.8176H33.2276C33.3636 87.8176 33.4645 87.7865 33.5304 87.7244C33.6004 87.6623 33.6354 87.5581 33.6354 87.4118V87.1322C33.6354 87.0006 33.6045 86.9037 33.5427 86.8416C33.4809 86.7794 33.3986 86.7483 33.2956 86.7483C33.0773 86.7483 32.9681 86.8672 32.9681 87.1048V87.357H32.3256V87.1541C32.3256 86.847 32.41 86.6113 32.5789 86.4468C32.7519 86.2822 32.999 86.2 33.3203 86.2C33.6457 86.2 33.8929 86.2822 34.0617 86.4468C34.2306 86.6076 34.3151 86.8416 34.3151 87.1486V87.2857C34.3151 87.4941 34.2759 87.6623 34.1977 87.7902C34.1194 87.9145 33.9979 88.0041 33.8331 88.0589V88.0699C34.0102 88.1284 34.1379 88.2234 34.2162 88.355C34.2945 88.4866 34.3336 88.6548 34.3336 88.8595V89.1995C34.3336 89.5065 34.2471 89.7423 34.0741 89.9068C33.9052 90.0677 33.6539 90.1481 33.3203 90.1481Z" fill="white"/>
<path d="M35.1763 90.0933H34.9539V89.512H35.6088V90.0329L35.269 90.7513H34.9539L35.1763 90.0933Z" fill="white"/>
<path d="M38.3498 90.1481C38.0203 90.1481 37.769 90.0658 37.596 89.9013C37.423 89.7332 37.3365 89.4937 37.3365 89.183V88.8814H37.9791V89.2269C37.9791 89.4755 38.0965 89.5997 38.3313 89.5997C38.5661 89.5997 38.6835 89.4755 38.6835 89.2269V88.366C38.6835 88.1137 38.5661 87.9876 38.3313 87.9876C38.0965 87.9876 37.9791 88.1137 37.9791 88.366V88.3989H37.3365L37.4601 86.2548H39.2519V86.8032H38.0656L38.01 87.7189H38.0223C38.15 87.5325 38.3457 87.4393 38.6093 87.4393C38.8564 87.4393 39.0439 87.5142 39.1716 87.6641C39.2992 87.814 39.3631 88.0315 39.3631 88.3166V89.183C39.3631 89.4937 39.2766 89.7332 39.1036 89.9013C38.9306 90.0658 38.6793 90.1481 38.3498 90.1481Z" fill="white"/>
<path d="M40.9349 90.1481C40.6012 90.1481 40.3458 90.064 40.1687 89.8959C39.9916 89.7277 39.903 89.4901 39.903 89.183V87.1651C39.903 86.858 39.9916 86.6204 40.1687 86.4522C40.3458 86.2841 40.6012 86.2 40.9349 86.2C41.2685 86.2 41.5239 86.2841 41.701 86.4522C41.8781 86.6204 41.9667 86.858 41.9667 87.1651V89.183C41.9667 89.4901 41.8781 89.7277 41.701 89.8959C41.5239 90.064 41.2685 90.1481 40.9349 90.1481ZM40.9349 89.5997C41.1696 89.5997 41.287 89.4736 41.287 89.2214V87.1267C41.287 86.8745 41.1696 86.7483 40.9349 86.7483C40.7001 86.7483 40.5827 86.8745 40.5827 87.1267V89.2214C40.5827 89.4736 40.7001 89.5997 40.9349 89.5997Z" fill="white"/>
<path d="M43.5323 90.1481C43.1986 90.1481 42.9433 90.064 42.7661 89.8959C42.589 89.7277 42.5005 89.4901 42.5005 89.183V87.1651C42.5005 86.858 42.589 86.6204 42.7661 86.4522C42.9433 86.2841 43.1986 86.2 43.5323 86.2C43.8659 86.2 44.1213 86.2841 44.2984 86.4522C44.4755 86.6204 44.5641 86.858 44.5641 87.1651V89.183C44.5641 89.4901 44.4755 89.7277 44.2984 89.8959C44.1213 90.064 43.8659 90.1481 43.5323 90.1481ZM43.5323 89.5997C43.7671 89.5997 43.8845 89.4736 43.8845 89.2214V87.1267C43.8845 86.8745 43.7671 86.7483 43.5323 86.7483C43.2975 86.7483 43.1801 86.8745 43.1801 87.1267V89.2214C43.1801 89.4736 43.2975 89.5997 43.5323 89.5997Z" fill="white"/>
<rect x="28" y="94" width="23" height="14" rx="1" fill="#E5ECF0"/>
<rect x="37.5" y="95" width="4" height="4" rx="1" fill="#0063C3"/>
<path fill-rule="evenodd" clip-rule="evenodd" d="M38.0883 97.1846L39.5184 96.0588V96.6978L38.0883 97.8235V97.1846ZM40.9118 97.1846L39.5184 96.0588V96.6978L40.9118 97.8235V97.1846Z" fill="white"/>
<path d="M31.8981 102L31.5741 101.448H31.2761V102H31.0961V100.64H31.6181C31.9281 100.64 32.0561 100.758 32.0561 101.044C32.0561 101.276 31.9721 101.398 31.7741 101.436L32.1061 102H31.8981ZM31.2761 100.804V101.284H31.6021C31.8061 101.284 31.8761 101.218 31.8761 101.044C31.8761 100.87 31.8061 100.804 31.6021 100.804H31.2761ZM32.7475 102.024C32.4555 102.024 32.3015 101.868 32.3015 101.568V101.4C32.3015 101.1 32.4555 100.944 32.7475 100.944C33.0395 100.944 33.1935 101.1 33.1935 101.4V101.568C33.1935 101.868 33.0395 102.024 32.7475 102.024ZM32.7475 101.87C32.9295 101.87 33.0175 101.77 33.0175 101.562V101.404C33.0175 101.196 32.9295 101.098 32.7475 101.098C32.5655 101.098 32.4775 101.196 32.4775 101.404V101.562C32.4775 101.77 32.5655 101.87 32.7475 101.87ZM34.1126 100.968H34.2886V102H34.1386L34.1326 101.836C34.0426 101.966 33.9306 102.024 33.7846 102.024C33.5666 102.024 33.4566 101.894 33.4566 101.646V100.968H33.6326V101.63C33.6326 101.792 33.6926 101.862 33.8166 101.862C33.9406 101.862 34.0366 101.79 34.1126 101.638V100.968ZM35.1211 100.944C35.3371 100.944 35.4451 101.074 35.4451 101.322V102H35.2691V101.338C35.2691 101.176 35.2091 101.106 35.0871 101.106C34.9651 101.106 34.8711 101.178 34.7971 101.33V102H34.6211V100.968H34.7711L34.7771 101.13C34.8671 101.002 34.9771 100.944 35.1211 100.944ZM36.4177 100.54H36.5937V102H36.4437L36.4377 101.836C36.3497 101.966 36.2397 102.024 36.0897 102.024C35.8497 102.024 35.7097 101.876 35.7097 101.594V101.374C35.7097 101.092 35.8497 100.944 36.0897 100.944C36.2277 100.944 36.3337 100.994 36.4177 101.104V100.54ZM36.1117 101.87C36.2437 101.87 36.3497 101.784 36.4177 101.636V101.332C36.3497 101.184 36.2437 101.098 36.1117 101.098C35.9697 101.098 35.8857 101.196 35.8857 101.38V101.588C35.8857 101.772 35.9697 101.87 36.1117 101.87ZM37.2598 102.024C36.9758 102.024 36.8358 101.914 36.8358 101.696H37.0038C37.0038 101.814 37.0878 101.874 37.2598 101.874C37.4198 101.874 37.4998 101.82 37.4998 101.722C37.4998 101.62 37.4298 101.576 37.2298 101.552C36.9598 101.52 36.8598 101.44 36.8598 101.256C36.8598 101.056 37.0018 100.944 37.2578 100.944C37.5138 100.944 37.6498 101.054 37.6498 101.262H37.4778C37.4778 101.152 37.4038 101.094 37.2558 101.094C37.1118 101.094 37.0318 101.148 37.0318 101.242C37.0318 101.336 37.1018 101.374 37.2918 101.394C37.5678 101.424 37.6718 101.512 37.6718 101.708C37.6718 101.916 37.5318 102.024 37.2598 102.024ZM38.9513 100.944C39.1913 100.944 39.3313 101.092 39.3313 101.374V101.594C39.3313 101.876 39.1913 102.024 38.9513 102.024C38.8133 102.024 38.7073 101.974 38.6233 101.864V102.364H38.4473V100.968H38.5973L38.6033 101.132C38.6913 101.002 38.8013 100.944 38.9513 100.944ZM39.1553 101.588V101.38C39.1553 101.196 39.0713 101.098 38.9293 101.098C38.7973 101.098 38.6913 101.184 38.6233 101.332V101.636C38.6913 101.784 38.7973 101.87 38.9293 101.87C39.0713 101.87 39.1553 101.772 39.1553 101.588ZM39.7353 101.532V101.578C39.7353 101.78 39.8193 101.872 40.0033 101.872C40.1593 101.872 40.2413 101.804 40.2533 101.692H40.4233C40.4093 101.912 40.2553 102.024 40.0073 102.024C39.7173 102.024 39.5593 101.87 39.5593 101.586V101.382C39.5593 101.098 39.7133 100.944 39.9953 100.944C40.2773 100.944 40.4313 101.098 40.4313 101.382V101.532H39.7353ZM39.9993 101.096C39.8173 101.096 39.7353 101.188 39.7353 101.386H40.2613C40.2613 101.188 40.1793 101.096 39.9993 101.096ZM41.161 100.948H41.231V101.122H41.179C41.011 101.122 40.917 101.208 40.883 101.406V102H40.707V100.968H40.857L40.865 101.16C40.917 101.014 41.011 100.948 41.161 100.948ZM43.0392 100.944C43.2452 100.944 43.3592 101.068 43.3592 101.296V102H43.1832V101.31C43.1832 101.172 43.1232 101.106 43.0152 101.106C42.9072 101.106 42.8192 101.174 42.7432 101.324V102H42.5672V101.31C42.5672 101.172 42.5072 101.106 42.3992 101.106C42.2892 101.106 42.2032 101.174 42.1272 101.334V102H41.9512V100.968H42.1012L42.1072 101.13C42.1892 101.002 42.2912 100.944 42.4312 100.944C42.5752 100.944 42.6732 101.006 42.7152 101.124C42.8012 100.996 42.9072 100.944 43.0392 100.944ZM43.6678 100.782V100.586H43.8598V100.782H43.6678ZM43.6758 102V100.968H43.8518V102H43.6758ZM44.6836 100.944C44.8996 100.944 45.0076 101.074 45.0076 101.322V102H44.8316V101.338C44.8316 101.176 44.7716 101.106 44.6496 101.106C44.5276 101.106 44.4336 101.178 44.3596 101.33V102H44.1836V100.968H44.3336L44.3396 101.13C44.4296 101.002 44.5396 100.944 44.6836 100.944ZM45.9642 100.968H46.1402V102H45.9902L45.9842 101.836C45.8942 101.966 45.7822 102.024 45.6362 102.024C45.4182 102.024 45.3082 101.894 45.3082 101.646V100.968H45.4842V101.63C45.4842 101.792 45.5442 101.862 45.6682 101.862C45.7922 101.862 45.8882 101.79 45.9642 101.638V100.968ZM46.8346 101.848H46.9526V102H46.7926C46.5946 102 46.5106 101.904 46.5106 101.678V101.112H46.3326V100.968H46.5146L46.5286 100.696H46.6866V100.968H46.9406V101.112H46.6866V101.68C46.6866 101.814 46.7166 101.848 46.8346 101.848ZM47.2822 101.532V101.578C47.2822 101.78 47.3662 101.872 47.5502 101.872C47.7062 101.872 47.7882 101.804 47.8002 101.692H47.9702C47.9562 101.912 47.8022 102.024 47.5542 102.024C47.2642 102.024 47.1062 101.87 47.1062 101.586V101.382C47.1062 101.098 47.2602 100.944 47.5422 100.944C47.8242 100.944 47.9782 101.098 47.9782 101.382V101.532H47.2822ZM47.5462 101.096C47.3642 101.096 47.2822 101.188 47.2822 101.386H47.8082C47.8082 101.188 47.7262 101.096 47.5462 101.096Z" fill="#333333"/>
<rect x="37.5" y="103" width="4" height="4" rx="1" fill="#0063C3"/>
<path fill-rule="evenodd" clip-rule="evenodd" d="M40.9117 104.698L39.4816 105.824L39.4816 105.185L40.9117 104.059L40.9117 104.698ZM38.0882 104.698L39.4816 105.824L39.4816 105.185L38.0882 104.059L38.0882 104.698Z" fill="white"/>
<rect x="53" y="80" width="0.2" height="34" fill="#003E6B"/>
<path d="M56.04 83.036C55.521 83.036 55.284 82.832 55.284 82.385H55.722C55.722 82.583 55.833 82.67 56.052 82.67C56.25 82.67 56.349 82.598 56.349 82.451C56.349 82.283 56.241 82.211 55.938 82.163C55.485 82.091 55.314 81.923 55.314 81.551C55.314 81.134 55.569 80.924 56.055 80.924C56.535 80.924 56.772 81.128 56.772 81.557H56.334C56.334 81.38 56.241 81.29 56.046 81.29C55.86 81.29 55.764 81.371 55.764 81.506C55.764 81.659 55.869 81.728 56.157 81.77C56.634 81.839 56.799 82.022 56.799 82.406C56.799 82.829 56.55 83.036 56.04 83.036ZM57.4987 82.355V82.385C57.4987 82.589 57.5797 82.688 57.7717 82.688C57.9217 82.688 58.0087 82.628 58.0177 82.52H58.4407C58.4227 82.859 58.1917 83.036 57.7687 83.036C57.2947 83.036 57.0547 82.811 57.0547 82.37V82.064C57.0547 81.629 57.2947 81.398 57.7507 81.398C58.2097 81.398 58.4497 81.635 58.4497 82.07V82.355H57.4987ZM57.7657 81.746C57.5767 81.746 57.4987 81.833 57.4987 82.043H58.0297C58.0297 81.833 57.9517 81.746 57.7657 81.746ZM59.436 82.652H59.61V83H59.283C58.962 83 58.827 82.85 58.827 82.49V81.77H58.599V81.434H58.836L58.86 81.044H59.271V81.434H59.595V81.77H59.271V82.463C59.271 82.61 59.307 82.652 59.436 82.652ZM61.2407 82.652H61.4147V83H61.0877C60.7667 83 60.6317 82.85 60.6317 82.49V81.77H60.4037V81.434H60.6407L60.6647 81.044H61.0757V81.434H61.3997V81.77H61.0757V82.463C61.0757 82.61 61.1117 82.652 61.2407 82.652ZM61.6437 81.212V80.834H62.1117V81.212H61.6437ZM61.6557 83V81.434H62.0997V83H61.6557ZM64.1858 81.398C64.5038 81.398 64.6808 81.584 64.6808 81.935V83H64.2368V81.983C64.2368 81.845 64.1768 81.782 64.0688 81.782C63.9608 81.782 63.8768 81.845 63.8048 81.995V83H63.3608V81.983C63.3608 81.845 63.2978 81.782 63.1898 81.782C63.0848 81.782 62.9978 81.845 62.9288 81.995V83H62.4848V81.434H62.8628L62.8748 81.626C62.9888 81.467 63.1268 81.398 63.3188 81.398C63.5198 81.398 63.6608 81.473 63.7388 81.62C63.8588 81.461 64.0028 81.398 64.1858 81.398ZM65.4411 82.355V82.385C65.4411 82.589 65.5221 82.688 65.7141 82.688C65.8641 82.688 65.9511 82.628 65.9601 82.52H66.3831C66.3651 82.859 66.1341 83.036 65.7111 83.036C65.2371 83.036 64.9971 82.811 64.9971 82.37V82.064C64.9971 81.629 65.2371 81.398 65.6931 81.398C66.1521 81.398 66.3921 81.635 66.3921 82.07V82.355H65.4411ZM65.7081 81.746C65.5191 81.746 65.4411 81.833 65.4411 82.043H65.9721C65.9721 81.833 65.8941 81.746 65.7081 81.746Z" fill="#333333"/>
<g clip-path="url(#clip1_1_4609)">
<rect x="55.2" y="84" width="23" height="9" rx="1" fill="white" fill-opacity="0.5"/>
<path d="M78.2 84H55.2V93H78.2V84Z" fill="#173E50"/>
<path opacity="0.2" d="M72.6542 84L42.2 93H60.5573L91.2 84H72.6542Z" fill="white" fill-opacity="0.5"/>
<path opacity="0.2" d="M92.0406 84L62.2 93H64.1748L94.2 84H92.0406Z" fill="white" fill-opacity="0.5"/>
<path d="M77.4546 84H57.2C56.0954 84 55.2 84.8954 55.2 86V91.871C55.2 92.9755 56.0954 93.871 57.2 93.871H77.4546C78.5591 93.871 79.4546 92.9755 79.4546 91.871V86C79.4546 84.8954 78.5591 84 77.4546 84Z" stroke="#031D29" stroke-miterlimit="10"/>
</g>
<path d="M62.0489 91.7C61.7744 91.7 61.5643 91.6186 61.4186 91.4557C61.2729 91.2929 61.2 91.0627 61.2 90.7653V88.8111C61.2 88.5137 61.2729 88.2836 61.4186 88.1207C61.5643 87.9579 61.7744 87.8765 62.0489 87.8765C62.3234 87.8765 62.5335 87.9579 62.6792 88.1207C62.825 88.2836 62.8978 88.5137 62.8978 88.8111V90.7653C62.8978 91.0627 62.825 91.2929 62.6792 91.4557C62.5335 91.6186 62.3234 91.7 62.0489 91.7ZM62.0489 91.1689C62.2421 91.1689 62.3387 91.0468 62.3387 90.8025V88.7739C62.3387 88.5297 62.2421 88.4075 62.0489 88.4075C61.8558 88.4075 61.7592 88.5297 61.7592 88.7739V90.8025C61.7592 91.0468 61.8558 91.1689 62.0489 91.1689Z" fill="white"/>
<path d="M64.1859 91.7C63.9114 91.7 63.7013 91.6186 63.5556 91.4557C63.4098 91.2929 63.337 91.0627 63.337 90.7653V88.8111C63.337 88.5137 63.4098 88.2836 63.5556 88.1207C63.7013 87.9579 63.9114 87.8765 64.1859 87.8765C64.4604 87.8765 64.6705 87.9579 64.8162 88.1207C64.9619 88.2836 65.0348 88.5137 65.0348 88.8111V90.7653C65.0348 91.0627 64.9619 91.2929 64.8162 91.4557C64.6705 91.6186 64.4604 91.7 64.1859 91.7ZM64.1859 91.1689C64.379 91.1689 64.4756 91.0468 64.4756 90.8025V88.7739C64.4756 88.5297 64.379 88.4075 64.1859 88.4075C63.9927 88.4075 63.8961 88.5297 63.8961 88.7739V90.8025C63.8961 91.0468 63.9927 91.1689 64.1859 91.1689Z" fill="white"/>
<path d="M66.4304 89.0607H66.9692V89.6236H66.4304V89.0607ZM66.4304 91.084H66.9692V91.6469H66.4304V91.084Z" fill="white"/>
<path d="M69.2141 91.7C68.9397 91.7 68.7295 91.6186 68.5838 91.4557C68.4381 91.2929 68.3652 91.0627 68.3652 90.7653V88.8111C68.3652 88.5137 68.4381 88.2836 68.5838 88.1207C68.7295 87.9579 68.9397 87.8765 69.2141 87.8765C69.4886 87.8765 69.6988 87.9579 69.8445 88.1207C69.9902 88.2836 70.0631 88.5137 70.0631 88.8111V90.7653C70.0631 91.0627 69.9902 91.2929 69.8445 91.4557C69.6988 91.6186 69.4886 91.7 69.2141 91.7ZM69.2141 91.1689C69.4073 91.1689 69.5039 91.0468 69.5039 90.8025V88.7739C69.5039 88.5297 69.4073 88.4075 69.2141 88.4075C69.021 88.4075 68.9244 88.5297 68.9244 88.7739V90.8025C68.9244 91.0468 69.021 91.1689 69.2141 91.1689Z" fill="white"/>
<path d="M71.3511 91.7C71.0766 91.7 70.8665 91.6186 70.7208 91.4557C70.5751 91.2929 70.5022 91.0627 70.5022 90.7653V88.8111C70.5022 88.5137 70.5751 88.2836 70.7208 88.1207C70.8665 87.9579 71.0766 87.8765 71.3511 87.8765C71.6256 87.8765 71.8357 87.9579 71.9814 88.1207C72.1272 88.2836 72.2 88.5137 72.2 88.8111V90.7653C72.2 91.0627 72.1272 91.2929 71.9814 91.4557C71.8357 91.6186 71.6256 91.7 71.3511 91.7ZM71.3511 91.1689C71.5443 91.1689 71.6409 91.0468 71.6409 90.8025V88.7739C71.6409 88.5297 71.5443 88.4075 71.3511 88.4075C71.1579 88.4075 71.0614 88.5297 71.0614 88.7739V90.8025C71.0614 91.0468 71.1579 91.1689 71.3511 91.1689Z" fill="white"/>
<path d="M62.0023 86.7294H62.3427V86.0974H62.8736V86.7294H63.2139V85.2H62.8736V85.805H62.3427V85.2H62.0023V86.7294Z" fill="white" fill-opacity="0.7"/>
<path d="M63.5987 86.7294H63.9391V86.0974H64.47V86.7294H64.8104V85.2H64.47V85.805H63.9391V85.2H63.5987V86.7294Z" fill="white" fill-opacity="0.7"/>
<path d="M68.4207 86.7294H68.7348V85.5756L69.1087 86.7294H69.3322L69.7061 85.5756V86.7294H70.0379V85.2H69.5468L69.2282 86.1986L68.9074 85.2H68.4207V86.7294Z" fill="white" fill-opacity="0.7"/>
<path d="M70.4137 86.7294H70.7279V85.5756L71.1018 86.7294H71.3252L71.6991 85.5756V86.7294H72.031V85.2H71.5398L71.2213 86.1986L70.9005 85.2H70.4137V86.7294Z" fill="white" fill-opacity="0.7"/>
<rect x="55.2" y="94" width="11" height="14" rx="1" fill="#E5ECF0"/>
<rect x="58.7" y="95" width="4" height="4" rx="1" fill="#0063C3"/>
<path fill-rule="evenodd" clip-rule="evenodd" d="M59.2883 97.1846L60.7184 96.0588V96.6978L59.2883 97.8235V97.1846ZM62.1118 97.1846L60.7184 96.0588V96.6978L62.1118 97.8235V97.1846Z" fill="white"/>
<path d="M60.5154 100.64V102H60.3354V100.872L59.8994 102H59.7694L59.3314 100.868V102H59.1574V100.64H59.4274L59.8374 101.708L60.2474 100.64H60.5154ZM62.242 100.64V102H62.062V100.872L61.626 102H61.496L61.058 100.868V102H60.884V100.64H61.154L61.564 101.708L61.974 100.64H62.242Z" fill="#333333"/>
<rect x="58.7" y="103" width="4" height="4" rx="1" fill="#0063C3"/>
<path fill-rule="evenodd" clip-rule="evenodd" d="M62.1118 104.698L60.6816 105.824L60.6816 105.185L62.1118 104.059L62.1118 104.698ZM59.2882 104.698L60.6816 105.824L60.6816 105.185L59.2882 104.059L59.2882 104.698Z" fill="white"/>
<rect x="67.2" y="94" width="11" height="14" rx="1" fill="#E5ECF0"/>
<rect x="70.7" y="95" width="4" height="4" rx="1" fill="#0063C3"/>
<path fill-rule="evenodd" clip-rule="evenodd" d="M71.2883 97.1846L72.7184 96.0588V96.6978L71.2883 97.8235V97.1846ZM74.1118 97.1846L72.7184 96.0588V96.6978L74.1118 97.8235V97.1846Z" fill="white"/>
<path d="M72.5154 100.64V102H72.3354V100.872L71.8994 102H71.7694L71.3314 100.868V102H71.1574V100.64H71.4274L71.8374 101.708L72.2474 100.64H72.5154ZM74.242 100.64V102H74.062V100.872L73.626 102H73.496L73.058 100.868V102H72.884V100.64H73.154L73.564 101.708L73.974 100.64H74.242Z" fill="#333333"/>
<rect x="70.7" y="103" width="4" height="4" rx="1" fill="#0063C3"/>
<path fill-rule="evenodd" clip-rule="evenodd" d="M74.1118 104.698L72.6816 105.824L72.6816 105.185L74.1118 104.059L74.1118 104.698ZM71.2882 104.698L72.6816 105.824L72.6816 105.185L71.2882 104.059L71.2882 104.698Z" fill="white"/>
<rect x="55.2" y="109" width="11" height="5" rx="1" fill="#A41034"/>
<path d="M58.3629 112.401C58.8729 112.401 59.1219 112.194 59.1219 111.771C59.1219 111.387 58.9569 111.204 58.4799 111.135C58.1919 111.093 58.0869 111.024 58.0869 110.871C58.0869 110.736 58.1829 110.658 58.3689 110.658C58.5639 110.658 58.6569 110.745 58.6569 110.922H59.0949C59.0949 110.493 58.8579 110.289 58.3779 110.289C57.8919 110.289 57.6369 110.499 57.6369 110.916C57.6369 111.288 57.8079 111.456 58.2609 111.528C58.5639 111.576 58.6719 111.648 58.6719 111.816C58.6719 111.963 58.5729 112.035 58.3749 112.035C58.1559 112.035 58.0449 111.948 58.0449 111.75H57.6069C57.6069 112.197 57.8439 112.401 58.3629 112.401Z" fill="white"/>
<path d="M59.9989 112.365H60.3259V112.017H60.1519C60.0229 112.017 59.9869 111.975 59.9869 111.828V111.135H60.3109V110.799H59.9869V110.409H59.5759L59.5519 110.799H59.3149V111.135H59.5429V111.855C59.5429 112.215 59.6779 112.365 59.9989 112.365Z" fill="white"/>
<path d="M61.2868 112.401C61.7608 112.401 61.9978 112.176 61.9978 111.726V111.438C61.9978 110.988 61.7608 110.763 61.2868 110.763C60.8128 110.763 60.5758 110.988 60.5758 111.438V111.726C60.5758 112.176 60.8128 112.401 61.2868 112.401ZM61.2868 112.041C61.0978 112.041 61.0198 111.945 61.0198 111.717V111.447C61.0198 111.219 61.0978 111.123 61.2868 111.123C61.4758 111.123 61.5538 111.219 61.5538 111.447V111.717C61.5538 111.945 61.4758 112.041 61.2868 112.041Z" fill="white"/>
<path d="M62.3861 112.911H62.8301V112.239C62.9351 112.35 63.0671 112.401 63.2351 112.401C63.5921 112.401 63.7931 112.179 63.7931 111.756V111.405C63.7931 110.982 63.5921 110.763 63.2351 110.763C63.0371 110.763 62.8931 110.832 62.7761 110.988L62.7641 110.799H62.3861V112.911ZM63.1331 112.041C62.9921 112.041 62.8931 111.96 62.8301 111.801V111.36C62.8931 111.204 62.9921 111.123 63.1301 111.123C63.2741 111.123 63.3491 111.207 63.3491 111.408V111.756C63.3491 111.96 63.2741 112.041 63.1331 112.041Z" fill="white"/>
<rect x="55.2" y="109" width="11" height="5" rx="1" stroke="#C87085"/>
<rect x="67.2" y="109" width="11" height="5" rx="1" fill="#FAAC48"/>
<path d="M69.9875 112.8C70.5188 112.8 70.7781 112.584 70.7781 112.144C70.7781 111.744 70.6063 111.553 70.1094 111.481C69.8094 111.437 69.7 111.366 69.7 111.206C69.7 111.066 69.8 110.984 69.9938 110.984C70.1969 110.984 70.2938 111.075 70.2938 111.259H70.75C70.75 110.812 70.5031 110.6 70.0031 110.6C69.4969 110.6 69.2313 110.819 69.2313 111.253C69.2313 111.641 69.4094 111.816 69.8813 111.891C70.1969 111.941 70.3094 112.016 70.3094 112.191C70.3094 112.344 70.2063 112.419 70 112.419C69.7719 112.419 69.6563 112.328 69.6563 112.122H69.2C69.2 112.587 69.4469 112.8 69.9875 112.8Z" fill="#333333"/>
<path d="M71.6292 112.762H71.9698V112.4H71.7886C71.6542 112.4 71.6167 112.356 71.6167 112.203V111.481H71.9542V111.131H71.6167V110.725H71.1886L71.1636 111.131H70.9167V111.481H71.1542V112.231C71.1542 112.606 71.2948 112.762 71.6292 112.762Z" fill="#333333"/>
<path d="M72.6701 112.8C72.8857 112.8 73.0482 112.719 73.1607 112.559L73.1764 112.762H73.567V111.712C73.567 111.287 73.3545 111.094 72.892 111.094C72.442 111.094 72.2232 111.278 72.1982 111.641H72.6451C72.6514 111.528 72.7139 111.456 72.8732 111.456C73.0389 111.456 73.1045 111.537 73.1045 111.706V111.759H72.8045C72.3701 111.759 72.1545 111.95 72.1545 112.294C72.1545 112.619 72.3482 112.8 72.6701 112.8ZM72.8107 112.437C72.6795 112.437 72.6107 112.375 72.6107 112.256C72.6107 112.137 72.6795 112.066 72.8889 112.066H73.1045V112.253C73.0389 112.375 72.942 112.437 72.8107 112.437Z" fill="#333333"/>
<path d="M73.9451 112.762H74.4076V111.85C74.4513 111.622 74.567 111.531 74.8076 111.531H74.8951V111.1H74.7732C74.5482 111.1 74.4201 111.203 74.3576 111.434L74.3388 111.131H73.9451V112.762Z" fill="#333333"/>
<path d="M75.6911 112.762H76.0317V112.4H75.8505C75.7161 112.4 75.6786 112.356 75.6786 112.203V111.481H76.0161V111.131H75.6786V110.725H75.2504L75.2255 111.131H74.9786V111.481H75.2161V112.231C75.2161 112.606 75.3567 112.762 75.6911 112.762Z" fill="#333333"/>
<rect x="26.1" y="78.1" width="54" height="37.8" rx="1.9" stroke="#336589" stroke-width="0.2"/>
<path d="M99.8462 26.2085C99.8462 15.3192 78.8572 6.51982 52.9231 6.51982C26.989 6.51982 6 15.3742 6 26.2635V31.5431C6 42.4323 26.989 51.2317 52.9231 51.2317C78.8022 51.2317 99.8462 42.4323 99.8462 31.5431V26.2085Z" fill="#B2B2B2"/>
<path d="M52.9231 45.952C78.8572 45.952 99.8462 37.0976 99.8462 26.2084C99.8462 15.3191 78.8572 6.51971 52.9231 6.51971C26.989 6.51971 6 15.3741 6 26.2634C6 37.1526 26.989 45.952 52.9231 45.952ZM52.9231 19.9938C61.1099 19.9938 67.7583 22.7986 67.7583 26.2084C67.7583 29.6731 61.1099 32.4779 52.9231 32.4779C44.7363 32.4779 38.0879 29.6731 38.0879 26.2634C38.0879 22.8536 44.7363 19.9938 52.9231 19.9938Z" fill="#D0D0D0"/>
<path d="M92.9232 19.6638C92.9232 10.4245 75.011 3 52.9231 3C30.8352 3 12.9231 10.4795 12.9231 19.6638V24.0085C12.9231 33.2479 30.8352 40.6724 52.9231 40.6724C75.011 40.6724 92.9232 33.1929 92.9232 24.0085V19.6638Z" fill="#E5E5E5"/>
<path d="M52.9231 36.3825C75.011 36.3825 92.9231 28.903 92.9231 19.7187C92.9231 10.5343 75.011 3.05481 52.9231 3.05481C30.8352 3.05481 12.923 10.5343 12.923 19.7187C12.923 28.903 30.8352 36.3825 52.9231 36.3825Z" fill="#F2F2F2"/>
<path d="M67.7583 11.7995C67.7583 8.16975 61.1099 5.19996 52.9231 5.19996C44.7363 5.19996 38.088 8.16975 38.088 11.7995V16.9691C38.088 17.0241 38.088 17.0241 38.088 17.0791C38.088 20.7089 44.7363 23.6787 52.9231 23.6787C61.1099 23.6787 67.7583 20.7089 67.7583 17.0791C67.7583 17.0241 67.7583 17.0241 67.7583 16.9691V11.7995Z" fill="#E5E5E5"/>
<mask id="mask1_1_4609" style="mask-type:alpha" maskUnits="userSpaceOnUse" x="38" y="5" width="30" height="14">
<path d="M52.9231 18.3991C61.1163 18.3991 67.7583 15.4444 67.7583 11.7996C67.7583 8.15474 61.1163 5.20002 52.9231 5.20002C44.7299 5.20002 38.088 8.15474 38.088 11.7996C38.088 15.4444 44.7299 18.3991 52.9231 18.3991Z" fill="#D0D0D0"/>
</mask>
<g mask="url(#mask1_1_4609)">
<path d="M52.9231 18.3991C61.1163 18.3991 67.7583 15.4443 67.7583 11.7995C67.7583 8.15468 61.1163 5.19996 52.9231 5.19996C44.7299 5.19996 38.088 8.15468 38.088 11.7995C38.088 15.4443 44.7299 18.3991 52.9231 18.3991Z" fill="#D0D0D0"/>
<path d="M52.9231 26.3991C61.1163 26.3991 67.7583 23.4443 67.7583 19.7995C67.7583 16.1547 61.1163 13.2 52.9231 13.2C44.7299 13.2 38.088 16.1547 38.088 19.7995C38.088 23.4443 44.7299 26.3991 52.9231 26.3991Z" fill="#8A8A8A"/>
</g>
<path d="M38.0879 53.6513C41.4395 54.3113 46.3846 55.0262 52.3736 55.0812C58.9121 55.1362 64.2967 54.3663 67.8131 53.6513C67.8131 51.9464 67.8131 46.4468 67.8131 44.7419C64.1868 45.4019 59.0219 46.0619 52.7033 46.0619C46.6593 46.0619 41.6593 45.4019 38.0879 44.7419C38.0879 46.4468 38.0879 52.0014 38.0879 53.6513Z" fill="white"/>
<path d="M38.0879 53.6513C41.4395 54.3113 46.3846 55.0262 52.3736 55.0812C58.9121 55.1362 64.2967 54.3663 67.8131 53.6513C67.8131 51.9464 67.8131 46.4468 67.8131 44.7419C64.1868 45.4019 59.0219 46.0619 52.7033 46.0619C46.6593 46.0619 41.6593 45.4019 38.0879 44.7419C38.0879 46.4468 38.0879 52.0014 38.0879 53.6513Z" fill="white"/>
<defs>
<clipPath id="clip0_1_4609">
<rect x="28" y="84" width="23" height="9" rx="1" fill="white"/>
</clipPath>
<clipPath id="clip1_1_4609">
<rect x="55.2" y="84" width="23" height="9" rx="1" fill="white"/>
</clipPath>
</defs>
</svg>
