<svg width="591" height="720" viewBox="0 0 591 720" fill="none" xmlns="http://www.w3.org/2000/svg">
<rect width="591" height="720" rx="5" fill="url(#paint0_linear)"/>
<g filter="url(#filter0_d)">
<circle cx="132.5" cy="122.5" r="58.5" stroke="#C5C5C5" stroke-width="10"/>
</g>
<path d="M106.278 129H109.122C109.302 124.986 110.688 122.052 113.658 119.172V116.76H104.658V119.1H110.904C108.024 121.62 106.458 124.914 106.278 129ZM119.899 129.216C122.941 129.216 124.471 127.812 124.471 124.95C124.471 122.304 123.157 120.882 120.727 120.882C119.791 120.882 118.999 121.098 118.351 121.602L118.513 119.046H123.913V116.76H116.299L115.849 123.816H118.171C118.621 123.366 119.215 123.078 119.989 123.078C121.177 123.078 121.807 123.744 121.807 125.022C121.807 126.3 121.177 126.966 119.881 126.966C118.765 126.966 118.099 126.462 118.045 125.58H115.489C115.507 127.992 117.055 129.216 119.899 129.216ZM131.593 129H134.257V126.498H135.517V124.32H134.257V116.76H131.413L125.887 124.158V126.498H131.593V129ZM128.443 124.32L131.593 119.946V124.32H128.443ZM146.568 129.216C148.71 129.216 149.916 127.902 149.916 125.364V123.258C149.916 120.72 148.71 119.388 146.568 119.388C145.56 119.388 144.768 119.694 144.138 120.36V115.86H141.474V129H143.742L143.814 127.866C144.516 128.802 145.38 129.216 146.568 129.216ZM145.938 127.056C145.11 127.056 144.516 126.57 144.138 125.634V122.988C144.516 122.034 145.11 121.548 145.956 121.548C146.802 121.548 147.252 122.034 147.252 123.258V125.346C147.252 126.552 146.802 127.056 145.938 127.056ZM151.898 132.276H154.562V128.244C155.192 128.91 155.984 129.216 156.992 129.216C159.134 129.216 160.34 127.884 160.34 125.346V123.24C160.34 120.702 159.134 119.388 156.992 119.388C155.804 119.388 154.94 119.802 154.238 120.738L154.166 119.604H151.898V132.276ZM156.38 127.056C155.534 127.056 154.94 126.57 154.562 125.616V122.97C154.94 122.034 155.534 121.548 156.362 121.548C157.226 121.548 157.676 122.052 157.676 123.258V125.346C157.676 126.57 157.226 127.056 156.38 127.056Z" fill="white"/>
<g filter="url(#filter1_d)">
<circle cx="290.5" cy="122.5" r="58.5" stroke="#C5C5C5" stroke-width="10"/>
<path d="M349 122.5C349 105.23 341.517 89.7084 329.616 79" stroke="#008D36" stroke-width="10"/>
<path d="M259 171.723C242.763 161.327 232 143.13 232 122.419C232 99.4499 245.238 79.5726 264.5 70" stroke="#E52826" stroke-width="10"/>
</g>
<path d="M258.161 129H266.675V126.714H263.759V116.76H261.221C260.519 117.858 259.511 118.308 257.801 118.344V120.414C258.899 120.396 260.051 120.342 261.095 120.036V126.714H258.161V129ZM268.883 129H277.397V126.714H274.481V116.76H271.943C271.241 117.858 270.233 118.308 268.523 118.344V120.414C269.621 120.396 270.773 120.342 271.817 120.036V126.714H268.883V129ZM283.278 129.216C286.356 129.216 287.958 127.956 287.958 125.616C287.958 124.158 287.328 123.15 286.086 122.646V122.61C287.148 122.124 287.67 121.242 287.67 119.964C287.67 117.768 286.104 116.544 283.296 116.544C280.47 116.544 278.904 117.768 278.904 119.982C278.904 121.242 279.426 122.124 280.47 122.61V122.646C279.228 123.15 278.598 124.158 278.598 125.616C278.598 127.956 280.2 129.216 283.278 129.216ZM283.278 121.692C282.162 121.692 281.514 121.188 281.514 120.198C281.514 119.226 282.126 118.758 283.278 118.758C284.43 118.758 285.042 119.226 285.042 120.198C285.042 121.188 284.394 121.692 283.278 121.692ZM283.26 127.002C281.892 127.002 281.244 126.534 281.244 125.49C281.244 124.41 281.946 123.906 283.26 123.906C284.592 123.906 285.294 124.41 285.294 125.49C285.294 126.534 284.628 127.002 283.26 127.002ZM294.955 129H297.619V126.498H298.879V124.32H297.619V116.76H294.775L289.249 124.158V126.498H294.955V129ZM291.805 124.32L294.955 119.946V124.32H291.805ZM309.93 129.216C312.072 129.216 313.278 127.902 313.278 125.364V123.258C313.278 120.72 312.072 119.388 309.93 119.388C308.922 119.388 308.13 119.694 307.5 120.36V115.86H304.836V129H307.104L307.176 127.866C307.878 128.802 308.742 129.216 309.93 129.216ZM309.3 127.056C308.472 127.056 307.878 126.57 307.5 125.634V122.988C307.878 122.034 308.472 121.548 309.318 121.548C310.164 121.548 310.614 122.034 310.614 123.258V125.346C310.614 126.552 310.164 127.056 309.3 127.056ZM315.259 132.276H317.923V128.244C318.553 128.91 319.345 129.216 320.353 129.216C322.495 129.216 323.701 127.884 323.701 125.346V123.24C323.701 120.702 322.495 119.388 320.353 119.388C319.165 119.388 318.301 119.802 317.599 120.738L317.527 119.604H315.259V132.276ZM319.741 127.056C318.895 127.056 318.301 126.57 317.923 125.616V122.97C318.301 122.034 318.895 121.548 319.723 121.548C320.587 121.548 321.037 122.052 321.037 123.258V125.346C321.037 126.57 320.587 127.056 319.741 127.056Z" fill="white"/>
<g filter="url(#filter2_d)">
<circle cx="459.5" cy="122.5" r="58.5" stroke="#C5C5C5" stroke-width="10"/>
<path d="M429.5 72C412.429 82.2173 401 100.89 401 122.232C401 154.541 427.191 180.732 459.5 180.732C479.348 180.732 496.888 170.848 507.464 155.732" stroke="#E52826" stroke-width="10"/>
<path d="M518 122.5C518 90.1913 492.309 64 460 64" stroke="#008D36" stroke-width="10"/>
</g>
<path d="M427.161 129H435.675V126.714H432.759V116.76H430.221C429.519 117.858 428.511 118.308 426.801 118.344V120.414C427.899 120.396 429.051 120.342 430.095 120.036V126.714H427.161V129ZM441.663 129.216C444.633 129.216 446.091 127.776 446.091 125.04C446.091 122.484 444.813 121.098 442.491 121.098C441.393 121.098 440.547 121.404 439.863 122.088V120.882C439.863 119.496 440.457 118.794 441.717 118.794C442.851 118.794 443.373 119.37 443.445 120.108H446.001C445.929 117.84 444.579 116.544 441.753 116.544C438.765 116.544 437.199 117.984 437.199 120.774V125.076C437.199 127.812 438.747 129.216 441.663 129.216ZM441.681 126.966C440.475 126.966 439.863 126.282 439.863 124.968V124.698C440.259 123.798 440.907 123.348 441.825 123.348C442.905 123.348 443.427 123.96 443.427 125.112C443.427 126.3 442.869 126.966 441.681 126.966ZM448.606 129H457.12V126.714H454.204V116.76H451.666C450.964 117.858 449.956 118.308 448.246 118.344V120.414C449.344 120.396 450.496 120.342 451.54 120.036V126.714H448.606V129ZM463.955 129H466.619V126.498H467.879V124.32H466.619V116.76H463.775L458.249 124.158V126.498H463.955V129ZM460.805 124.32L463.955 119.946V124.32H460.805ZM478.93 129.216C481.072 129.216 482.278 127.902 482.278 125.364V123.258C482.278 120.72 481.072 119.388 478.93 119.388C477.922 119.388 477.13 119.694 476.5 120.36V115.86H473.836V129H476.104L476.176 127.866C476.878 128.802 477.742 129.216 478.93 129.216ZM478.3 127.056C477.472 127.056 476.878 126.57 476.5 125.634V122.988C476.878 122.034 477.472 121.548 478.318 121.548C479.164 121.548 479.614 122.034 479.614 123.258V125.346C479.614 126.552 479.164 127.056 478.3 127.056ZM484.259 132.276H486.923V128.244C487.553 128.91 488.345 129.216 489.353 129.216C491.495 129.216 492.701 127.884 492.701 125.346V123.24C492.701 120.702 491.495 119.388 489.353 119.388C488.165 119.388 487.301 119.802 486.599 120.738L486.527 119.604H484.259V132.276ZM488.741 127.056C487.895 127.056 487.301 126.57 486.923 125.616V122.97C487.301 122.034 487.895 121.548 488.723 121.548C489.587 121.548 490.037 122.052 490.037 123.258V125.346C490.037 126.57 489.587 127.056 488.741 127.056Z" fill="white"/>
<g filter="url(#filter3_d)">
<circle cx="132.5" cy="283.5" r="58.5" stroke="#C5C5C5" stroke-width="10"/>
<path d="M132.376 225C130.351 225 128.349 225.103 126.376 225.304C106.764 227.302 90.018 238.988 81 255.5" stroke="#333332" stroke-width="10"/>
<path d="M74 289C76.7722 318.73 101.791 342 132.245 342C134.614 342 136.95 341.859 139.245 341.586" stroke="#115F92" stroke-width="10"/>
<path d="M191 282.646C191 260.278 178.446 241.843 160 232" stroke="#1399F1" stroke-width="10"/>
</g>
<path d="M111.671 282.276H114.335V278.244C114.965 278.91 115.757 279.216 116.765 279.216C118.907 279.216 120.113 277.884 120.113 275.346V273.24C120.113 270.702 118.907 269.388 116.765 269.388C115.577 269.388 114.713 269.802 114.011 270.738L113.939 269.604H111.671V282.276ZM116.153 277.056C115.307 277.056 114.713 276.57 114.335 275.616V272.97C114.713 272.034 115.307 271.548 116.135 271.548C116.999 271.548 117.449 272.052 117.449 273.258V275.346C117.449 276.57 116.999 277.056 116.153 277.056ZM120.978 279H123.714L124.488 276.534H128.34L129.114 279H131.976L127.872 266.76H125.082L120.978 279ZM125.154 274.284L126.414 269.82L127.674 274.284H125.154ZM133.367 279H136.067V274.482H137.525L139.955 279H143.033L140.387 274.23C141.917 273.78 142.565 272.628 142.565 270.63C142.565 267.894 141.377 266.76 138.371 266.76H133.367V279ZM136.067 272.178V269.064H138.083C139.397 269.064 139.865 269.514 139.865 270.63C139.865 271.728 139.397 272.178 138.083 272.178H136.067ZM143.443 279H146.179L146.953 276.534H150.805L151.579 279H154.441L150.337 266.76H147.547L143.443 279ZM147.619 274.284L148.879 269.82L150.139 274.284H147.619ZM104.787 301H107.451V298.498H108.711V296.32H107.451V288.76H104.607L99.0808 296.158V298.498H104.787V301ZM101.637 296.32L104.787 291.946V296.32H101.637ZM114.555 301.216C117.633 301.216 119.235 299.956 119.235 297.616C119.235 296.158 118.605 295.15 117.363 294.646V294.61C118.425 294.124 118.947 293.242 118.947 291.964C118.947 289.768 117.381 288.544 114.573 288.544C111.747 288.544 110.181 289.768 110.181 291.982C110.181 293.242 110.703 294.124 111.747 294.61V294.646C110.505 295.15 109.875 296.158 109.875 297.616C109.875 299.956 111.477 301.216 114.555 301.216ZM114.555 293.692C113.439 293.692 112.791 293.188 112.791 292.198C112.791 291.226 113.403 290.758 114.555 290.758C115.707 290.758 116.319 291.226 116.319 292.198C116.319 293.188 115.671 293.692 114.555 293.692ZM114.537 299.002C113.169 299.002 112.521 298.534 112.521 297.49C112.521 296.41 113.223 295.906 114.537 295.906C115.869 295.906 116.571 296.41 116.571 297.49C116.571 298.534 115.905 299.002 114.537 299.002ZM122.362 301H125.206C125.386 296.986 126.772 294.052 129.742 291.172V288.76H120.742V291.1H126.988C124.108 293.62 122.542 296.914 122.362 301ZM131.501 301H140.375V298.714H134.183C134.345 297.976 134.975 297.508 136.631 296.77C139.313 295.564 140.375 294.268 140.375 292.234C140.375 289.894 138.881 288.544 136.037 288.544C133.229 288.544 131.699 289.876 131.699 292.414V292.99H134.219V292.648C134.219 291.388 134.813 290.794 136.019 290.794C137.189 290.794 137.729 291.37 137.729 292.252C137.729 293.278 137.117 293.89 135.281 294.754C132.545 296.032 131.501 297.418 131.501 299.74V301ZM151.93 301.216C154.072 301.216 155.278 299.902 155.278 297.364V295.258C155.278 292.72 154.072 291.388 151.93 291.388C150.922 291.388 150.13 291.694 149.5 292.36V287.86H146.836V301H149.104L149.176 299.866C149.878 300.802 150.742 301.216 151.93 301.216ZM151.3 299.056C150.472 299.056 149.878 298.57 149.5 297.634V294.988C149.878 294.034 150.472 293.548 151.318 293.548C152.164 293.548 152.614 294.034 152.614 295.258V297.346C152.614 298.552 152.164 299.056 151.3 299.056ZM157.259 304.276H159.923V300.244C160.553 300.91 161.345 301.216 162.353 301.216C164.495 301.216 165.701 299.884 165.701 297.346V295.24C165.701 292.702 164.495 291.388 162.353 291.388C161.165 291.388 160.301 291.802 159.599 292.738L159.527 291.604H157.259V304.276ZM161.741 299.056C160.895 299.056 160.301 298.57 159.923 297.616V294.97C160.301 294.034 160.895 293.548 161.723 293.548C162.587 293.548 163.037 294.052 163.037 295.258V297.346C163.037 298.57 162.587 299.056 161.741 299.056Z" fill="white"/>
<g filter="url(#filter4_d)">
<circle cx="290.5" cy="283.5" r="58.5" stroke="#C5C5C5" stroke-width="10"/>
<path d="M254.5 329.615C240.804 318.908 232 302.232 232 283.5C232 251.191 258.191 225 290.5 225C316.158 225 337.957 241.518 345.845 264.5" stroke="#F8AF3E" stroke-width="10"/>
</g>
<path d="M261.815 290.216C264.857 290.216 266.387 288.812 266.387 285.95C266.387 283.304 265.073 281.882 262.643 281.882C261.707 281.882 260.915 282.098 260.267 282.602L260.429 280.046H265.829V277.76H258.215L257.765 284.816H260.087C260.537 284.366 261.131 284.078 261.905 284.078C263.093 284.078 263.723 284.744 263.723 286.022C263.723 287.3 263.093 287.966 261.797 287.966C260.681 287.966 260.015 287.462 259.961 286.58H257.405C257.423 288.992 258.971 290.216 261.815 290.216ZM272.555 290.216C275.453 290.216 276.983 288.794 276.983 286.094V281.666C276.983 278.948 275.453 277.544 272.555 277.544C269.657 277.544 268.127 278.948 268.127 281.666V286.094C268.127 288.794 269.657 290.216 272.555 290.216ZM272.555 287.966C271.313 287.966 270.791 287.372 270.791 285.986V281.774C270.791 280.388 271.313 279.794 272.555 279.794C273.797 279.794 274.319 280.388 274.319 281.774V285.986C274.319 287.372 273.797 287.966 272.555 287.966ZM283.278 290.216C286.356 290.216 287.958 288.956 287.958 286.616C287.958 285.158 287.328 284.15 286.086 283.646V283.61C287.148 283.124 287.67 282.242 287.67 280.964C287.67 278.768 286.104 277.544 283.296 277.544C280.47 277.544 278.904 278.768 278.904 280.982C278.904 282.242 279.426 283.124 280.47 283.61V283.646C279.228 284.15 278.598 285.158 278.598 286.616C278.598 288.956 280.2 290.216 283.278 290.216ZM283.278 282.692C282.162 282.692 281.514 282.188 281.514 281.198C281.514 280.226 282.126 279.758 283.278 279.758C284.43 279.758 285.042 280.226 285.042 281.198C285.042 282.188 284.394 282.692 283.278 282.692ZM283.26 288.002C281.892 288.002 281.244 287.534 281.244 286.49C281.244 285.41 281.946 284.906 283.26 284.906C284.592 284.906 285.294 285.41 285.294 286.49C285.294 287.534 284.628 288.002 283.26 288.002ZM289.501 290H298.375V287.714H292.183C292.345 286.976 292.975 286.508 294.631 285.77C297.313 284.564 298.375 283.268 298.375 281.234C298.375 278.894 296.881 277.544 294.037 277.544C291.229 277.544 289.699 278.876 289.699 281.414V281.99H292.219V281.648C292.219 280.388 292.813 279.794 294.019 279.794C295.189 279.794 295.729 280.37 295.729 281.252C295.729 282.278 295.117 282.89 293.281 283.754C290.545 285.032 289.501 286.418 289.501 288.74V290ZM309.93 290.216C312.072 290.216 313.278 288.902 313.278 286.364V284.258C313.278 281.72 312.072 280.388 309.93 280.388C308.922 280.388 308.13 280.694 307.5 281.36V276.86H304.836V290H307.104L307.176 288.866C307.878 289.802 308.742 290.216 309.93 290.216ZM309.3 288.056C308.472 288.056 307.878 287.57 307.5 286.634V283.988C307.878 283.034 308.472 282.548 309.318 282.548C310.164 282.548 310.614 283.034 310.614 284.258V286.346C310.614 287.552 310.164 288.056 309.3 288.056ZM315.259 293.276H317.923V289.244C318.553 289.91 319.345 290.216 320.353 290.216C322.495 290.216 323.701 288.884 323.701 286.346V284.24C323.701 281.702 322.495 280.388 320.353 280.388C319.165 280.388 318.301 280.802 317.599 281.738L317.527 280.604H315.259V293.276ZM319.741 288.056C318.895 288.056 318.301 287.57 317.923 286.616V283.97C318.301 283.034 318.895 282.548 319.723 282.548C320.587 282.548 321.037 283.052 321.037 284.258V286.346C321.037 287.57 320.587 288.056 319.741 288.056Z" fill="white"/>
<g filter="url(#filter5_d)">
<circle cx="459.5" cy="283.5" r="58.5" stroke="#C5C5C5" stroke-width="10"/>
<path d="M401.542 291.5C401.185 288.884 401 286.214 401 283.5C401 269.694 405.782 257.006 413.781 247" stroke="#333332" stroke-width="10"/>
<path d="M442 227.821C447.671 225.99 453.72 225 460 225C474.215 225 487.363 230.57 497.5 239" stroke="#1399F1" stroke-width="10"/>
<path d="M470.43 340.87C466.711 341.611 462.866 342 458.93 342C437.797 342 419.781 330.794 409.5 314" stroke="#115F92" stroke-width="10"/>
<path d="M509 252.5C513.368 259.635 516.536 267.279 517.5 276" stroke="#008D36" stroke-width="10"/>
<path d="M518 283C518 300.083 510.678 315.805 499 326.5" stroke="#E52826" stroke-width="10"/>
</g>
<path d="M429.618 282.276H432.282V278.244C432.912 278.91 433.704 279.216 434.712 279.216C436.854 279.216 438.06 277.884 438.06 275.346V273.24C438.06 270.702 436.854 269.388 434.712 269.388C433.524 269.388 432.66 269.802 431.958 270.738L431.886 269.604H429.618V282.276ZM434.1 277.056C433.254 277.056 432.66 276.57 432.282 275.616V272.97C432.66 272.034 433.254 271.548 434.082 271.548C434.946 271.548 435.396 272.052 435.396 273.258V275.346C435.396 276.57 434.946 277.056 434.1 277.056ZM438.926 279H441.662L442.436 276.534H446.288L447.062 279H449.924L445.82 266.76H443.03L438.926 279ZM443.102 274.284L444.362 269.82L445.622 274.284H443.102ZM451.314 279H454.014V274.482H455.472L457.902 279H460.98L458.334 274.23C459.864 273.78 460.512 272.628 460.512 270.63C460.512 267.894 459.324 266.76 456.318 266.76H451.314V279ZM454.014 272.178V269.064H456.03C457.344 269.064 457.812 269.514 457.812 270.63C457.812 271.728 457.344 272.178 456.03 272.178H454.014ZM461.39 279H464.126L464.9 276.534H468.752L469.526 279H472.388L468.284 266.76H465.494L461.39 279ZM465.566 274.284L466.826 269.82L468.086 274.284H465.566ZM472.847 274.806H478.553V272.502H472.847V274.806ZM480.494 279H483.194V274.482H484.652L487.082 279H490.16L487.514 274.23C489.044 273.78 489.692 272.628 489.692 270.63C489.692 267.894 488.504 266.76 485.498 266.76H480.494V279ZM483.194 272.178V269.064H485.21C486.524 269.064 486.992 269.514 486.992 270.63C486.992 271.728 486.524 272.178 485.21 272.178H483.194ZM430.815 301.216C433.857 301.216 435.387 299.812 435.387 296.95C435.387 294.304 434.073 292.882 431.643 292.882C430.707 292.882 429.915 293.098 429.267 293.602L429.429 291.046H434.829V288.76H427.215L426.765 295.816H429.087C429.537 295.366 430.131 295.078 430.905 295.078C432.093 295.078 432.723 295.744 432.723 297.022C432.723 298.3 432.093 298.966 430.797 298.966C429.681 298.966 429.015 298.462 428.961 297.58H426.405C426.423 299.992 427.971 301.216 430.815 301.216ZM441.573 301.216C444.561 301.216 446.073 300.028 446.073 297.58C446.073 296.104 445.515 295.132 444.255 294.646V294.61C445.299 294.124 445.785 293.242 445.785 291.964C445.785 289.732 444.309 288.544 441.573 288.544C438.747 288.544 437.271 289.822 437.271 292.234V292.612H439.809V292.378C439.809 291.352 440.385 290.794 441.519 290.794C442.599 290.794 443.157 291.28 443.157 292.27C443.157 293.296 442.563 293.71 441.303 293.71H440.187V295.942H441.357C442.797 295.942 443.409 296.41 443.409 297.454C443.409 298.516 442.743 298.966 441.573 298.966C440.277 298.966 439.665 298.426 439.665 297.346V297.058H437.091V297.688C437.091 300.028 438.603 301.216 441.573 301.216ZM452.278 301.216C455.176 301.216 456.706 299.794 456.706 297.094V292.666C456.706 289.948 455.176 288.544 452.278 288.544C449.38 288.544 447.85 289.948 447.85 292.666V297.094C447.85 299.794 449.38 301.216 452.278 301.216ZM452.278 298.966C451.036 298.966 450.514 298.372 450.514 296.986V292.774C450.514 291.388 451.036 290.794 452.278 290.794C453.52 290.794 454.042 291.388 454.042 292.774V296.986C454.042 298.372 453.52 298.966 452.278 298.966ZM458.501 301H467.375V298.714H461.183C461.345 297.976 461.975 297.508 463.631 296.77C466.313 295.564 467.375 294.268 467.375 292.234C467.375 289.894 465.881 288.544 463.037 288.544C460.229 288.544 458.699 289.876 458.699 292.414V292.99H461.219V292.648C461.219 291.388 461.813 290.794 463.019 290.794C464.189 290.794 464.729 291.37 464.729 292.252C464.729 293.278 464.117 293.89 462.281 294.754C459.545 296.032 458.501 297.418 458.501 299.74V301ZM478.93 301.216C481.072 301.216 482.278 299.902 482.278 297.364V295.258C482.278 292.72 481.072 291.388 478.93 291.388C477.922 291.388 477.13 291.694 476.5 292.36V287.86H473.836V301H476.104L476.176 299.866C476.878 300.802 477.742 301.216 478.93 301.216ZM478.3 299.056C477.472 299.056 476.878 298.57 476.5 297.634V294.988C476.878 294.034 477.472 293.548 478.318 293.548C479.164 293.548 479.614 294.034 479.614 295.258V297.346C479.614 298.552 479.164 299.056 478.3 299.056ZM484.259 304.276H486.923V300.244C487.553 300.91 488.345 301.216 489.353 301.216C491.495 301.216 492.701 299.884 492.701 297.346V295.24C492.701 292.702 491.495 291.388 489.353 291.388C488.165 291.388 487.301 291.802 486.599 292.738L486.527 291.604H484.259V304.276ZM488.741 299.056C487.895 299.056 487.301 298.57 486.923 297.616V294.97C487.301 294.034 487.895 293.548 488.723 293.548C489.587 293.548 490.037 294.052 490.037 295.258V297.346C490.037 298.57 489.587 299.056 488.741 299.056Z" fill="white"/>
<g filter="url(#filter6_d)">
<circle cx="132.5" cy="444.5" r="58.5" stroke="#C5C5C5" stroke-width="10"/>
<path d="M149.5 500.5C159.033 497.42 168.996 491.139 175.688 484" stroke="#E52826" stroke-width="10"/>
<path d="M181.5 476.5C186.413 469.322 189.268 460.992 190.576 452" stroke="#008D36" stroke-width="10"/>
<path d="M96.5 490.615C82.8041 479.908 74 463.232 74 444.5C74 412.191 100.191 386 132.5 386C158.158 386 179.957 402.518 187.845 425.5" stroke="#F8AF3E" stroke-width="10"/>
</g>
<path d="M102.029 443.276H104.693V439.244C105.323 439.91 106.115 440.216 107.123 440.216C109.265 440.216 110.471 438.884 110.471 436.346V434.24C110.471 431.702 109.265 430.388 107.123 430.388C105.935 430.388 105.071 430.802 104.369 431.738L104.297 430.604H102.029V443.276ZM106.511 438.056C105.665 438.056 105.071 437.57 104.693 436.616V433.97C105.071 433.034 105.665 432.548 106.493 432.548C107.357 432.548 107.807 433.052 107.807 434.258V436.346C107.807 437.57 107.357 438.056 106.511 438.056ZM112.651 440H115.351V436.76L116.791 434.924L119.581 440H122.659L118.663 432.782L122.605 427.76H119.509L115.351 433.106V427.76H112.651V440ZM122.534 440H125.27L126.044 437.534H129.896L130.67 440H133.532L129.428 427.76H126.638L122.534 440ZM126.71 435.284L127.97 430.82L129.23 435.284H126.71ZM134.922 440H137.478V431.756L141.924 440H144.498V427.76H141.942V435.482L137.784 427.76H134.922V440ZM146.436 435.806H152.142V433.502H146.436V435.806ZM154.082 440H156.782V435.482H158.24L160.67 440H163.748L161.102 435.23C162.632 434.78 163.28 433.628 163.28 431.63C163.28 428.894 162.092 427.76 159.086 427.76H154.082V440ZM156.782 433.178V430.064H158.798C160.112 430.064 160.58 430.514 160.58 431.63C160.58 432.728 160.112 433.178 158.798 433.178H156.782ZM103.815 462.216C106.857 462.216 108.387 460.812 108.387 457.95C108.387 455.304 107.073 453.882 104.643 453.882C103.707 453.882 102.915 454.098 102.267 454.602L102.429 452.046H107.829V449.76H100.215L99.7648 456.816H102.087C102.537 456.366 103.131 456.078 103.905 456.078C105.093 456.078 105.723 456.744 105.723 458.022C105.723 459.3 105.093 459.966 103.797 459.966C102.681 459.966 102.015 459.462 101.961 458.58H99.4048C99.4228 460.992 100.971 462.216 103.815 462.216ZM114.537 462.216C117.579 462.216 119.109 460.812 119.109 457.95C119.109 455.304 117.795 453.882 115.365 453.882C114.429 453.882 113.637 454.098 112.989 454.602L113.151 452.046H118.551V449.76H110.937L110.487 456.816H112.809C113.259 456.366 113.853 456.078 114.627 456.078C115.815 456.078 116.445 456.744 116.445 458.022C116.445 459.3 115.815 459.966 114.519 459.966C113.403 459.966 112.737 459.462 112.683 458.58H110.127C110.145 460.992 111.693 462.216 114.537 462.216ZM121.606 462H130.12V459.714H127.204V449.76H124.666C123.964 450.858 122.956 451.308 121.246 451.344V453.414C122.344 453.396 123.496 453.342 124.54 453.036V459.714H121.606V462ZM131.501 462H140.375V459.714H134.183C134.345 458.976 134.975 458.508 136.631 457.77C139.313 456.564 140.375 455.268 140.375 453.234C140.375 450.894 138.881 449.544 136.037 449.544C133.229 449.544 131.699 450.876 131.699 453.414V453.99H134.219V453.648C134.219 452.388 134.813 451.794 136.019 451.794C137.189 451.794 137.729 452.37 137.729 453.252C137.729 454.278 137.117 454.89 135.281 455.754C132.545 457.032 131.501 458.418 131.501 460.74V462ZM151.93 462.216C154.072 462.216 155.278 460.902 155.278 458.364V456.258C155.278 453.72 154.072 452.388 151.93 452.388C150.922 452.388 150.13 452.694 149.5 453.36V448.86H146.836V462H149.104L149.176 460.866C149.878 461.802 150.742 462.216 151.93 462.216ZM151.3 460.056C150.472 460.056 149.878 459.57 149.5 458.634V455.988C149.878 455.034 150.472 454.548 151.318 454.548C152.164 454.548 152.614 455.034 152.614 456.258V458.346C152.614 459.552 152.164 460.056 151.3 460.056ZM157.259 465.276H159.923V461.244C160.553 461.91 161.345 462.216 162.353 462.216C164.495 462.216 165.701 460.884 165.701 458.346V456.24C165.701 453.702 164.495 452.388 162.353 452.388C161.165 452.388 160.301 452.802 159.599 453.738L159.527 452.604H157.259V465.276ZM161.741 460.056C160.895 460.056 160.301 459.57 159.923 458.616V455.97C160.301 455.034 160.895 454.548 161.723 454.548C162.587 454.548 163.037 455.052 163.037 456.258V458.346C163.037 459.57 162.587 460.056 161.741 460.056Z" fill="white"/>
<g filter="url(#filter7_d)">
<circle cx="132.5" cy="605.5" r="58.5" stroke="#C5C5C5" stroke-width="10"/>
<path d="M106.5 553.081C87.2377 562.653 74 582.531 74 605.5C74 607.526 74.103 609.527 74.3039 611.5M139.5 663.586C162.79 660.808 181.879 644.348 188.5 622.472" stroke="#F8AF3E" stroke-width="10"/>
</g>
<path d="M103.635 612.216C106.623 612.216 108.189 610.776 108.189 607.986V603.684C108.189 600.948 106.641 599.544 103.725 599.544C100.755 599.544 99.2968 600.984 99.2968 603.72C99.2968 606.276 100.575 607.662 102.897 607.662C103.995 607.662 104.841 607.356 105.525 606.672V607.878C105.525 609.264 104.931 609.966 103.671 609.966C102.537 609.966 102.015 609.39 101.943 608.652H99.3868C99.4588 610.92 100.809 612.216 103.635 612.216ZM103.563 605.412C102.483 605.412 101.961 604.8 101.961 603.648C101.961 602.46 102.519 601.794 103.707 601.794C104.913 601.794 105.525 602.478 105.525 603.792V604.062C105.129 604.962 104.481 605.412 103.563 605.412ZM115.509 612H118.173V609.498H119.433V607.32H118.173V599.76H115.329L109.803 607.158V609.498H115.509V612ZM112.359 607.32L115.509 602.946V607.32H112.359ZM121.606 612H130.12V609.714H127.204V599.76H124.666C123.964 600.858 122.956 601.308 121.246 601.344V603.414C122.344 603.396 123.496 603.342 124.54 603.036V609.714H121.606V612ZM136.001 612.216C138.899 612.216 140.429 610.794 140.429 608.094V603.666C140.429 600.948 138.899 599.544 136.001 599.544C133.103 599.544 131.573 600.948 131.573 603.666V608.094C131.573 610.794 133.103 612.216 136.001 612.216ZM136.001 609.966C134.759 609.966 134.237 609.372 134.237 607.986V603.774C134.237 602.388 134.759 601.794 136.001 601.794C137.243 601.794 137.765 602.388 137.765 603.774V607.986C137.765 609.372 137.243 609.966 136.001 609.966ZM151.93 612.216C154.072 612.216 155.278 610.902 155.278 608.364V606.258C155.278 603.72 154.072 602.388 151.93 602.388C150.922 602.388 150.13 602.694 149.5 603.36V598.86H146.836V612H149.104L149.176 610.866C149.878 611.802 150.742 612.216 151.93 612.216ZM151.3 610.056C150.472 610.056 149.878 609.57 149.5 608.634V605.988C149.878 605.034 150.472 604.548 151.318 604.548C152.164 604.548 152.614 605.034 152.614 606.258V608.346C152.614 609.552 152.164 610.056 151.3 610.056ZM157.259 615.276H159.923V611.244C160.553 611.91 161.345 612.216 162.353 612.216C164.495 612.216 165.701 610.884 165.701 608.346V606.24C165.701 603.702 164.495 602.388 162.353 602.388C161.165 602.388 160.301 602.802 159.599 603.738L159.527 602.604H157.259V615.276ZM161.741 610.056C160.895 610.056 160.301 609.57 159.923 608.616V605.97C160.301 605.034 160.895 604.548 161.723 604.548C162.587 604.548 163.037 605.052 163.037 606.258V608.346C163.037 609.57 162.587 610.056 161.741 610.056Z" fill="white"/>
<g filter="url(#filter8_d)">
<circle cx="290.5" cy="444.5" r="58.5" stroke="#C5C5C5" stroke-width="10"/>
<path d="M249 485.5C258.018 494.46 269.941 501.001 283.231 502.586" stroke="#115F92" stroke-width="10"/>
<path d="M343.5 469.5C347.089 461.919 349 453.444 349 444.5C349 441.091 348.56 437.749 348 434.5" stroke="#1399F1" stroke-width="10"/>
<path d="M308 500.338C317.959 497.219 326.773 491.51 333.651 484" stroke="#333332" stroke-width="10"/>
<path d="M305 387.811C316.868 390.837 327.285 397.492 335 406.525" stroke="#1399F1" stroke-width="10"/>
<path d="M237.362 420C233.92 427.453 232 435.752 232 444.5C232 452.665 233.673 460.44 236.695 467.5" stroke="#115F92" stroke-width="10"/>
<path d="M279.104 387.13C266.456 389.651 255.278 396.251 247 405.5" stroke="#333332" stroke-width="10"/>
</g>
<path d="M261.833 451.216C264.911 451.216 266.513 449.956 266.513 447.616C266.513 446.158 265.883 445.15 264.641 444.646V444.61C265.703 444.124 266.225 443.242 266.225 441.964C266.225 439.768 264.659 438.544 261.851 438.544C259.025 438.544 257.459 439.768 257.459 441.982C257.459 443.242 257.981 444.124 259.025 444.61V444.646C257.783 445.15 257.153 446.158 257.153 447.616C257.153 449.956 258.755 451.216 261.833 451.216ZM261.833 443.692C260.717 443.692 260.069 443.188 260.069 442.198C260.069 441.226 260.681 440.758 261.833 440.758C262.985 440.758 263.597 441.226 263.597 442.198C263.597 443.188 262.949 443.692 261.833 443.692ZM261.815 449.002C260.447 449.002 259.799 448.534 259.799 447.49C259.799 446.41 260.501 445.906 261.815 445.906C263.147 445.906 263.849 446.41 263.849 447.49C263.849 448.534 263.183 449.002 261.815 449.002ZM272.357 451.216C275.345 451.216 276.911 449.776 276.911 446.986V442.684C276.911 439.948 275.363 438.544 272.447 438.544C269.477 438.544 268.019 439.984 268.019 442.72C268.019 445.276 269.297 446.662 271.619 446.662C272.717 446.662 273.563 446.356 274.247 445.672V446.878C274.247 448.264 273.653 448.966 272.393 448.966C271.259 448.966 270.737 448.39 270.665 447.652H268.109C268.181 449.92 269.531 451.216 272.357 451.216ZM272.285 444.412C271.205 444.412 270.683 443.8 270.683 442.648C270.683 441.46 271.241 440.794 272.429 440.794C273.635 440.794 274.247 441.478 274.247 442.792V443.062C273.851 443.962 273.203 444.412 272.285 444.412ZM283.08 451.216C286.068 451.216 287.634 449.776 287.634 446.986V442.684C287.634 439.948 286.086 438.544 283.17 438.544C280.2 438.544 278.742 439.984 278.742 442.72C278.742 445.276 280.02 446.662 282.342 446.662C283.44 446.662 284.286 446.356 284.97 445.672V446.878C284.97 448.264 284.376 448.966 283.116 448.966C281.982 448.966 281.46 448.39 281.388 447.652H278.832C278.904 449.92 280.254 451.216 283.08 451.216ZM283.008 444.412C281.928 444.412 281.406 443.8 281.406 442.648C281.406 441.46 281.964 440.794 283.152 440.794C284.358 440.794 284.97 441.478 284.97 442.792V443.062C284.574 443.962 283.926 444.412 283.008 444.412ZM294.001 451.216C296.899 451.216 298.429 449.794 298.429 447.094V442.666C298.429 439.948 296.899 438.544 294.001 438.544C291.103 438.544 289.573 439.948 289.573 442.666V447.094C289.573 449.794 291.103 451.216 294.001 451.216ZM294.001 448.966C292.759 448.966 292.237 448.372 292.237 446.986V442.774C292.237 441.388 292.759 440.794 294.001 440.794C295.243 440.794 295.765 441.388 295.765 442.774V446.986C295.765 448.372 295.243 448.966 294.001 448.966ZM309.93 451.216C312.072 451.216 313.278 449.902 313.278 447.364V445.258C313.278 442.72 312.072 441.388 309.93 441.388C308.922 441.388 308.13 441.694 307.5 442.36V437.86H304.836V451H307.104L307.176 449.866C307.878 450.802 308.742 451.216 309.93 451.216ZM309.3 449.056C308.472 449.056 307.878 448.57 307.5 447.634V444.988C307.878 444.034 308.472 443.548 309.318 443.548C310.164 443.548 310.614 444.034 310.614 445.258V447.346C310.614 448.552 310.164 449.056 309.3 449.056ZM315.259 454.276H317.923V450.244C318.553 450.91 319.345 451.216 320.353 451.216C322.495 451.216 323.701 449.884 323.701 447.346V445.24C323.701 442.702 322.495 441.388 320.353 441.388C319.165 441.388 318.301 441.802 317.599 442.738L317.527 441.604H315.259V454.276ZM319.741 449.056C318.895 449.056 318.301 448.57 317.923 447.616V444.97C318.301 444.034 318.895 443.548 319.723 443.548C320.587 443.548 321.037 444.052 321.037 445.258V447.346C321.037 448.57 320.587 449.056 319.741 449.056Z" fill="white"/>
<g filter="url(#filter9_d)">
<circle cx="459.5" cy="444.5" r="58.5" stroke="#C5C5C5" stroke-width="10"/>
<path d="M484.5 391.596C476.919 388.007 468.444 386 459.5 386C437.335 386 418.049 398.327 408.124 416.5" stroke="#F8AF3E" stroke-width="10"/>
<path d="M515 463.043C516.946 457.216 518 450.981 518 444.5C518 436.064 516.214 428.044 513 420.8" stroke="#1399F1" stroke-width="10"/>
<path d="M429 494.43C437.881 499.866 448.325 503 459.5 503C463.79 503 467.973 502.538 472 501.662" stroke="#115F92" stroke-width="10"/>
<path d="M490 494.43C498.244 489.383 505.142 482.351 510.028 474" stroke="#333332" stroke-width="10"/>
</g>
<path d="M430.635 451.216C433.623 451.216 435.189 449.776 435.189 446.986V442.684C435.189 439.948 433.641 438.544 430.725 438.544C427.755 438.544 426.297 439.984 426.297 442.72C426.297 445.276 427.575 446.662 429.897 446.662C430.995 446.662 431.841 446.356 432.525 445.672V446.878C432.525 448.264 431.931 448.966 430.671 448.966C429.537 448.966 429.015 448.39 428.943 447.652H426.387C426.459 449.92 427.809 451.216 430.635 451.216ZM430.563 444.412C429.483 444.412 428.961 443.8 428.961 442.648C428.961 441.46 429.519 440.794 430.707 440.794C431.913 440.794 432.525 441.478 432.525 442.792V443.062C432.129 443.962 431.481 444.412 430.563 444.412ZM437.055 451H445.929V448.714H439.737C439.899 447.976 440.529 447.508 442.185 446.77C444.867 445.564 445.929 444.268 445.929 442.234C445.929 439.894 444.435 438.544 441.591 438.544C438.783 438.544 437.253 439.876 437.253 442.414V442.99H439.773V442.648C439.773 441.388 440.367 440.794 441.573 440.794C442.743 440.794 443.283 441.37 443.283 442.252C443.283 443.278 442.671 443.89 440.835 444.754C438.099 446.032 437.055 447.418 437.055 449.74V451ZM452.278 451.216C455.176 451.216 456.706 449.794 456.706 447.094V442.666C456.706 439.948 455.176 438.544 452.278 438.544C449.38 438.544 447.85 439.948 447.85 442.666V447.094C447.85 449.794 449.38 451.216 452.278 451.216ZM452.278 448.966C451.036 448.966 450.514 448.372 450.514 446.986V442.774C450.514 441.388 451.036 440.794 452.278 440.794C453.52 440.794 454.042 441.388 454.042 442.774V446.986C454.042 448.372 453.52 448.966 452.278 448.966ZM463.001 451.216C465.899 451.216 467.429 449.794 467.429 447.094V442.666C467.429 439.948 465.899 438.544 463.001 438.544C460.103 438.544 458.573 439.948 458.573 442.666V447.094C458.573 449.794 460.103 451.216 463.001 451.216ZM463.001 448.966C461.759 448.966 461.237 448.372 461.237 446.986V442.774C461.237 441.388 461.759 440.794 463.001 440.794C464.243 440.794 464.765 441.388 464.765 442.774V446.986C464.765 448.372 464.243 448.966 463.001 448.966ZM478.93 451.216C481.072 451.216 482.278 449.902 482.278 447.364V445.258C482.278 442.72 481.072 441.388 478.93 441.388C477.922 441.388 477.13 441.694 476.5 442.36V437.86H473.836V451H476.104L476.176 449.866C476.878 450.802 477.742 451.216 478.93 451.216ZM478.3 449.056C477.472 449.056 476.878 448.57 476.5 447.634V444.988C476.878 444.034 477.472 443.548 478.318 443.548C479.164 443.548 479.614 444.034 479.614 445.258V447.346C479.614 448.552 479.164 449.056 478.3 449.056ZM484.259 454.276H486.923V450.244C487.553 450.91 488.345 451.216 489.353 451.216C491.495 451.216 492.701 449.884 492.701 447.346V445.24C492.701 442.702 491.495 441.388 489.353 441.388C488.165 441.388 487.301 441.802 486.599 442.738L486.527 441.604H484.259V454.276ZM488.741 449.056C487.895 449.056 487.301 448.57 486.923 447.616V444.97C487.301 444.034 487.895 443.548 488.723 443.548C489.587 443.548 490.037 444.052 490.037 445.258V447.346C490.037 448.57 489.587 449.056 488.741 449.056Z" fill="white"/>
<defs>
<filter id="filter0_d" x="61" y="55" width="143" height="143" filterUnits="userSpaceOnUse" color-interpolation-filters="sRGB">
<feFlood flood-opacity="0" result="BackgroundImageFix"/>
<feColorMatrix in="SourceAlpha" type="matrix" values="0 0 0 0 0 0 0 0 0 0 0 0 0 0 0 0 0 0 127 0"/>
<feOffset dy="4"/>
<feGaussianBlur stdDeviation="4"/>
<feColorMatrix type="matrix" values="0 0 0 0 0 0 0 0 0 0 0 0 0 0 0 0 0 0 0.25 0"/>
<feBlend mode="normal" in2="BackgroundImageFix" result="effect1_dropShadow"/>
<feBlend mode="normal" in="SourceGraphic" in2="effect1_dropShadow" result="shape"/>
</filter>
<filter id="filter1_d" x="219" y="55" width="143" height="143" filterUnits="userSpaceOnUse" color-interpolation-filters="sRGB">
<feFlood flood-opacity="0" result="BackgroundImageFix"/>
<feColorMatrix in="SourceAlpha" type="matrix" values="0 0 0 0 0 0 0 0 0 0 0 0 0 0 0 0 0 0 127 0"/>
<feOffset dy="4"/>
<feGaussianBlur stdDeviation="4"/>
<feColorMatrix type="matrix" values="0 0 0 0 0 0 0 0 0 0 0 0 0 0 0 0 0 0 0.25 0"/>
<feBlend mode="normal" in2="BackgroundImageFix" result="effect1_dropShadow"/>
<feBlend mode="normal" in="SourceGraphic" in2="effect1_dropShadow" result="shape"/>
</filter>
<filter id="filter2_d" x="388" y="55" width="143" height="143" filterUnits="userSpaceOnUse" color-interpolation-filters="sRGB">
<feFlood flood-opacity="0" result="BackgroundImageFix"/>
<feColorMatrix in="SourceAlpha" type="matrix" values="0 0 0 0 0 0 0 0 0 0 0 0 0 0 0 0 0 0 127 0"/>
<feOffset dy="4"/>
<feGaussianBlur stdDeviation="4"/>
<feColorMatrix type="matrix" values="0 0 0 0 0 0 0 0 0 0 0 0 0 0 0 0 0 0 0.25 0"/>
<feBlend mode="normal" in2="BackgroundImageFix" result="effect1_dropShadow"/>
<feBlend mode="normal" in="SourceGraphic" in2="effect1_dropShadow" result="shape"/>
</filter>
<filter id="filter3_d" x="61" y="216" width="143" height="143" filterUnits="userSpaceOnUse" color-interpolation-filters="sRGB">
<feFlood flood-opacity="0" result="BackgroundImageFix"/>
<feColorMatrix in="SourceAlpha" type="matrix" values="0 0 0 0 0 0 0 0 0 0 0 0 0 0 0 0 0 0 127 0"/>
<feOffset dy="4"/>
<feGaussianBlur stdDeviation="4"/>
<feColorMatrix type="matrix" values="0 0 0 0 0 0 0 0 0 0 0 0 0 0 0 0 0 0 0.25 0"/>
<feBlend mode="normal" in2="BackgroundImageFix" result="effect1_dropShadow"/>
<feBlend mode="normal" in="SourceGraphic" in2="effect1_dropShadow" result="shape"/>
</filter>
<filter id="filter4_d" x="219" y="216" width="143" height="143" filterUnits="userSpaceOnUse" color-interpolation-filters="sRGB">
<feFlood flood-opacity="0" result="BackgroundImageFix"/>
<feColorMatrix in="SourceAlpha" type="matrix" values="0 0 0 0 0 0 0 0 0 0 0 0 0 0 0 0 0 0 127 0"/>
<feOffset dy="4"/>
<feGaussianBlur stdDeviation="4"/>
<feColorMatrix type="matrix" values="0 0 0 0 0 0 0 0 0 0 0 0 0 0 0 0 0 0 0.25 0"/>
<feBlend mode="normal" in2="BackgroundImageFix" result="effect1_dropShadow"/>
<feBlend mode="normal" in="SourceGraphic" in2="effect1_dropShadow" result="shape"/>
</filter>
<filter id="filter5_d" x="388" y="216" width="143" height="143" filterUnits="userSpaceOnUse" color-interpolation-filters="sRGB">
<feFlood flood-opacity="0" result="BackgroundImageFix"/>
<feColorMatrix in="SourceAlpha" type="matrix" values="0 0 0 0 0 0 0 0 0 0 0 0 0 0 0 0 0 0 127 0"/>
<feOffset dy="4"/>
<feGaussianBlur stdDeviation="4"/>
<feColorMatrix type="matrix" values="0 0 0 0 0 0 0 0 0 0 0 0 0 0 0 0 0 0 0.25 0"/>
<feBlend mode="normal" in2="BackgroundImageFix" result="effect1_dropShadow"/>
<feBlend mode="normal" in="SourceGraphic" in2="effect1_dropShadow" result="shape"/>
</filter>
<filter id="filter6_d" x="61" y="377" width="143" height="143" filterUnits="userSpaceOnUse" color-interpolation-filters="sRGB">
<feFlood flood-opacity="0" result="BackgroundImageFix"/>
<feColorMatrix in="SourceAlpha" type="matrix" values="0 0 0 0 0 0 0 0 0 0 0 0 0 0 0 0 0 0 127 0"/>
<feOffset dy="4"/>
<feGaussianBlur stdDeviation="4"/>
<feColorMatrix type="matrix" values="0 0 0 0 0 0 0 0 0 0 0 0 0 0 0 0 0 0 0.25 0"/>
<feBlend mode="normal" in2="BackgroundImageFix" result="effect1_dropShadow"/>
<feBlend mode="normal" in="SourceGraphic" in2="effect1_dropShadow" result="shape"/>
</filter>
<filter id="filter7_d" x="61" y="538" width="143" height="143" filterUnits="userSpaceOnUse" color-interpolation-filters="sRGB">
<feFlood flood-opacity="0" result="BackgroundImageFix"/>
<feColorMatrix in="SourceAlpha" type="matrix" values="0 0 0 0 0 0 0 0 0 0 0 0 0 0 0 0 0 0 127 0"/>
<feOffset dy="4"/>
<feGaussianBlur stdDeviation="4"/>
<feColorMatrix type="matrix" values="0 0 0 0 0 0 0 0 0 0 0 0 0 0 0 0 0 0 0.25 0"/>
<feBlend mode="normal" in2="BackgroundImageFix" result="effect1_dropShadow"/>
<feBlend mode="normal" in="SourceGraphic" in2="effect1_dropShadow" result="shape"/>
</filter>
<filter id="filter8_d" x="219" y="377" width="143" height="143" filterUnits="userSpaceOnUse" color-interpolation-filters="sRGB">
<feFlood flood-opacity="0" result="BackgroundImageFix"/>
<feColorMatrix in="SourceAlpha" type="matrix" values="0 0 0 0 0 0 0 0 0 0 0 0 0 0 0 0 0 0 127 0"/>
<feOffset dy="4"/>
<feGaussianBlur stdDeviation="4"/>
<feColorMatrix type="matrix" values="0 0 0 0 0 0 0 0 0 0 0 0 0 0 0 0 0 0 0.25 0"/>
<feBlend mode="normal" in2="BackgroundImageFix" result="effect1_dropShadow"/>
<feBlend mode="normal" in="SourceGraphic" in2="effect1_dropShadow" result="shape"/>
</filter>
<filter id="filter9_d" x="388" y="377" width="143" height="143" filterUnits="userSpaceOnUse" color-interpolation-filters="sRGB">
<feFlood flood-opacity="0" result="BackgroundImageFix"/>
<feColorMatrix in="SourceAlpha" type="matrix" values="0 0 0 0 0 0 0 0 0 0 0 0 0 0 0 0 0 0 127 0"/>
<feOffset dy="4"/>
<feGaussianBlur stdDeviation="4"/>
<feColorMatrix type="matrix" values="0 0 0 0 0 0 0 0 0 0 0 0 0 0 0 0 0 0 0.25 0"/>
<feBlend mode="normal" in2="BackgroundImageFix" result="effect1_dropShadow"/>
<feBlend mode="normal" in="SourceGraphic" in2="effect1_dropShadow" result="shape"/>
</filter>
<linearGradient id="paint0_linear" x1="295.5" y1="0" x2="295.5" y2="720" gradientUnits="userSpaceOnUse">
<stop stop-color="#014C91"/>
<stop offset="1" stop-color="#003257"/>
</linearGradient>
</defs>
</svg>
