<svg width="21" height="43" viewBox="0 0 21 43" fill="none" xmlns="http://www.w3.org/2000/svg">
<g clip-path="url(#clip0)">
<path d="M9.36253 42.7026C8.72442 42.7026 7.75047 42.4713 7.21311 42.3061C6.67576 42.1408 6.23916 40.2243 6.23916 40.2243C4.82861 34.805 2.91939 26.831 2.8759 22.0239C2.86729 21.0712 2.87588 2.56982 2.87588 2.56982H3.95585H15.8359V22.0239C15.8359 26.989 13.5942 34.805 12.1836 40.2243C12.1836 40.2243 11.747 42.1408 11.2097 42.3061C10.6723 42.4713 9.69837 42.7026 9.06026 42.7026" fill="#868CA6"/>
<path opacity="0.7" d="M9.32329 42.0366C8.75235 42.0366 7.87915 41.8383 7.40897 41.6731C6.93879 41.5409 6.53577 39.7896 6.53577 39.7896C5.25956 34.932 3.96514 27.7706 3.5957 23.5079C3.5957 21.3146 3.5957 5.13512 3.5957 5.13512V3.58203H15.1157C15.1157 3.58203 15.3172 21.2608 15.1157 23.5079C14.7463 27.7706 13.1519 34.899 11.8757 39.7565C11.8757 39.7565 11.4727 41.4748 11.0025 41.6401C10.5323 41.7722 9.65914 42.0035 9.0882 42.0035" fill="#C0C3D2"/>
<rect x="1.43579" y="2.56982" width="16.56" height="1.41861" fill="#868CA6"/>
<path opacity="0.7" d="M9.32353 42.0365C8.75259 42.0365 7.8794 41.8383 7.40921 41.673C6.93903 41.5409 6.53601 39.7895 6.53601 39.7895C5.2598 34.932 3.96538 27.7705 3.59595 23.5078V21.0117H9.69238H15.116V23.5078C14.7465 27.7705 13.1522 34.8989 11.876 39.7565C11.876 39.7565 11.4729 41.4748 11.0028 41.64C10.5326 41.7722 9.65938 42.0035 9.08844 42.0035" fill="#ED3431"/>
<rect x="2.87598" y="8.54688" width="12.96" height="11.3489" fill="white"/>
<path d="M12.236 3.98828H15.836C15.836 3.98828 15.836 20.7021 15.836 22.7913C15.836 24.8805 14.396 31.4964 14.396 31.4964C14.396 31.4964 11.6735 41.7901 11.516 41.9425C11.3585 42.0948 9.35596 42.2907 9.35596 42.2907L12.236 22.7913V3.98828Z" fill="black" fill-opacity="0.1"/>
<rect x="-0.00415039" y="0.441895" width="18.72" height="1.41861" fill="#868CA6"/>
<rect x="3.59595" y="1.86035" width="11.52" height="0.709303" fill="#577898"/>
<path fill-rule="evenodd" clip-rule="evenodd" d="M20.6403 1.23845C20.8204 1.53799 20.8759 1.87905 20.8759 2.21515C20.8759 2.55125 20.8204 2.89232 20.6403 3.19186C20.4498 3.50851 20.1682 3.69959 19.8687 3.81026C19.5882 3.91385 19.2787 3.95237 18.9858 3.97041C18.6932 3.98842 18.3593 3.98842 18.0122 3.98841H17.9959V2.56981C18.3629 2.56981 18.6531 2.56951 18.8959 2.55456C19.143 2.53935 19.2835 2.51137 19.363 2.48197C19.3804 2.47555 19.392 2.47007 19.3991 2.46626C19.4011 2.46522 19.4027 2.46431 19.404 2.46354C19.4047 2.46189 19.4056 2.4598 19.4066 2.45723C19.4097 2.44901 19.4141 2.43556 19.4186 2.41547C19.4277 2.37427 19.4359 2.31015 19.4359 2.21515C19.4359 2.12016 19.4277 2.05604 19.4186 2.01484C19.4141 1.99475 19.4097 1.9813 19.4066 1.97308C19.4056 1.97051 19.4047 1.96842 19.404 1.96676C19.4027 1.96599 19.4011 1.96508 19.3991 1.96405C19.392 1.96024 19.3804 1.95475 19.363 1.94833C19.2835 1.91894 19.143 1.89095 18.8959 1.87574C18.6531 1.86079 18.3629 1.8605 17.9959 1.8605L17.9958 0.441895L18.0121 0.441895C18.3593 0.441889 18.6932 0.441883 18.9858 0.459898C19.2787 0.477935 19.5882 0.51645 19.8687 0.62005C20.1682 0.730714 20.4498 0.921797 20.6403 1.23845Z" fill="#868CA6"/>
</g>
<defs>
<clipPath id="clip0">
<rect width="21" height="43" fill="white"/>
</clipPath>
</defs>
</svg>
