<svg width="21" height="43" viewBox="0 0 21 43" fill="none" xmlns="http://www.w3.org/2000/svg">
<g clip-path="url(#clip0)">
<path d="M9.02818 42.7026C8.41287 42.7026 7.4737 42.4713 6.95554 42.3061C6.43737 42.1408 6.01637 40.2243 6.01637 40.2243C4.65619 34.805 2.81516 26.831 2.77322 22.0239C2.76492 21.0712 2.77321 2.56982 2.77321 2.56982H3.81461H15.2704V22.0239C15.2704 26.989 13.1087 34.805 11.7485 40.2243C11.7485 40.2243 11.3275 42.1408 10.8094 42.3061C10.2912 42.4713 9.35204 42.7026 8.73672 42.7026" fill="#868CA6"/>
<path opacity="0.7" d="M8.99031 42.0366C8.43977 42.0366 7.59776 41.8383 7.14436 41.6731C6.69097 41.5409 6.30235 39.7896 6.30235 39.7896C5.07172 34.932 3.82352 27.7706 3.46729 23.5079C3.46729 21.3146 3.46729 5.13512 3.46729 5.13512V3.58203H14.5759C14.5759 3.58203 14.7702 21.2608 14.5759 23.5079C14.2196 27.7706 12.6822 34.899 11.4516 39.7565C11.4516 39.7565 11.063 41.4748 10.6096 41.6401C10.1562 41.7722 9.31417 42.0035 8.76362 42.0035" fill="#C0C3D2"/>
<rect x="1.38452" y="2.56982" width="15.9686" height="1.41861" fill="#868CA6"/>
<path opacity="0.4" d="M8.99056 42.0365C8.44001 42.0365 7.598 41.8383 7.14461 41.673C6.69122 41.5409 6.30259 39.7895 6.30259 39.7895C5.07196 34.932 3.82377 27.7705 3.46753 23.5078V21.0117H9.34623H14.5761V23.5078C14.2199 27.7705 12.6825 34.8989 11.4518 39.7565C11.4518 39.7565 11.0632 41.4748 10.6098 41.64C10.1564 41.7722 9.31441 42.0035 8.76386 42.0035" fill="#ED3431"/>
<rect x="2.77319" y="8.54688" width="12.4972" height="11.3489" fill="white"/>
<path d="M11.7989 3.98828H15.2703C15.2703 3.98828 15.2703 20.7021 15.2703 22.7913C15.2703 24.8805 13.8817 31.4964 13.8817 31.4964C13.8817 31.4964 11.2565 41.7901 11.1046 41.9425C10.9527 42.0948 9.02173 42.2907 9.02173 42.2907L11.7989 22.7913V3.98828Z" fill="black" fill-opacity="0.1"/>
<rect x="-0.00390625" y="0.441895" width="18.0515" height="1.41861" fill="#868CA6"/>
<rect x="3.46753" y="1.86035" width="11.1086" height="0.709303" fill="#577898"/>
<path fill-rule="evenodd" clip-rule="evenodd" d="M19.9032 1.23845C20.077 1.53799 20.1304 1.87905 20.1304 2.21515C20.1304 2.55125 20.077 2.89232 19.9032 3.19186C19.7196 3.50851 19.4481 3.69959 19.1592 3.81026C18.8888 3.91385 18.5903 3.95237 18.3078 3.97041C18.0257 3.98842 17.7037 3.98842 17.369 3.98841H17.3533V2.56981C17.7072 2.56981 17.987 2.56951 18.2212 2.55456C18.4594 2.53935 18.5949 2.51137 18.6716 2.48197C18.6884 2.47555 18.6996 2.47007 18.7064 2.46626C18.7083 2.46522 18.7098 2.46431 18.7111 2.46354C18.7118 2.46189 18.7127 2.4598 18.7136 2.45723C18.7167 2.44901 18.7209 2.43556 18.7252 2.41547C18.734 2.37427 18.7418 2.31015 18.7418 2.21515C18.7418 2.12016 18.734 2.05604 18.7252 2.01484C18.7209 1.99475 18.7167 1.9813 18.7136 1.97308C18.7127 1.97051 18.7118 1.96842 18.7111 1.96676C18.7098 1.96599 18.7083 1.96508 18.7064 1.96405C18.6996 1.96024 18.6884 1.95475 18.6716 1.94833C18.5949 1.91894 18.4594 1.89095 18.2212 1.87574C17.987 1.86079 17.7072 1.8605 17.3533 1.8605L17.3533 0.441895L17.369 0.441895C17.7037 0.441889 18.0257 0.441883 18.3078 0.459898C18.5903 0.477935 18.8888 0.51645 19.1592 0.62005C19.4481 0.730714 19.7196 0.921797 19.9032 1.23845Z" fill="#868CA6"/>
</g>
<defs>
<clipPath id="clip0">
<rect width="21" height="43" fill="white"/>
</clipPath>
</defs>
</svg>
