
<svg xmlns="http://www.w3.org/2000/svg" width="176" height="48" fill="none" viewBox="0 0 176 48">
    <g filter="url(#a)">
        <path fill="#00AEEF" d="M3 40h170v3H3z"/>
        <path fill="#99DFF9" d="M6.696 38h162.608L173 40H3l3.696-2z"/>
        <path fill="#00AEEF" d="M3 1h170v3H3z"/>
        <ellipse cx="22.267" cy="38.5" fill="#000" fill-opacity=".3" rx="6.8" ry=".5"/>
        <ellipse cx="153.733" cy="38.5" fill="#000" fill-opacity=".3" rx="6.8" ry=".5"/>
        <ellipse cx="120.867" cy="38.5" fill="#000" fill-opacity=".3" rx="6.8" ry=".5"/>
        <ellipse cx="88" cy="38.5" fill="#000" fill-opacity=".3" rx="6.8" ry=".5"/>
        <ellipse cx="55.133" cy="38.5" fill="#000" fill-opacity=".3" rx="6.8" ry=".5"/>
        <path fill="#008BC0" fill-rule="evenodd" d="M173 4H3l2 2h6V5h18v1h16V5h18v1h16V5h18v1h16V5h18v1h16V5h18v1h6l2-2z" clip-rule="evenodd"/>
        <path fill="#00AEEF" d="M5 5h2v34H5zM168 5h2v34h-2z"/>
    </g>
    <defs>
        <filter id="a" width="176" height="48" x="0" y="0" color-interpolation-filters="sRGB" filterUnits="userSpaceOnUse">
            <feFlood flood-opacity="0" result="BackgroundImageFix"/>
            <feColorMatrix in="SourceAlpha" values="0 0 0 0 0 0 0 0 0 0 0 0 0 0 0 0 0 0 127 0"/>
            <feOffset dy="2"/>
            <feGaussianBlur stdDeviation="1.5"/>
            <feColorMatrix values="0 0 0 0 0 0 0 0 0 0 0 0 0 0 0 0 0 0 0.1 0"/>
            <feBlend in2="BackgroundImageFix" result="effect1_dropShadow"/>
            <feBlend in="SourceGraphic" in2="effect1_dropShadow" result="shape"/>
        </filter>
    </defs>
</svg>
