<svg width="541" height="416" viewBox="0 0 541 416" fill="none" xmlns="http://www.w3.org/2000/svg">
<path d="M16 400H57V408C57 412.418 53.4183 416 49 416H24C19.5817 416 16 412.418 16 408V400Z" fill="#555555"/>
<rect x="16" y="400" width="41" height="6" fill="#333333"/>
<path d="M484 400H525V408C525 412.418 521.418 416 517 416H492C487.582 416 484 412.418 484 408V400Z" fill="#555555"/>
<rect x="484" y="400" width="41" height="6" fill="#333333"/>
<mask id="mask0_7797_144227" style="mask-type:alpha" maskUnits="userSpaceOnUse" x="0" y="80" width="541" height="320">
<path d="M0 80H541V390C541 395.523 536.523 400 531 400H10C4.47716 400 0 395.523 0 390V80Z" fill="#EBEBEB"/>
</mask>
<g mask="url(#mask0_7797_144227)">
<rect y="61" width="541" height="373" fill="#CCEFFC"/>
<path d="M549 421H-8V69H50.3755C52.8079 85.9041 56.6996 97.562 59.1319 104.557C128.21 295.165 489.652 123.21 546.081 299.245C547.541 304.491 548.514 380.78 549 383.112C549 395.935 549 408.759 549 421Z" fill="#99DFF9"/>
<path d="M541 461H-31V78H28.9476C31.4454 96.3928 35.4419 109.077 37.9397 116.688C108.878 324.083 480.053 136.984 538.003 328.522C539.501 334.23 540.5 417.238 541 419.775C541 433.728 541 447.681 541 461Z" fill="#33BEF2"/>
<rect x="-22" y="394" width="570" height="6" fill="#00AEEF"/>
</g>
<rect x="61" y="115" width="226" height="250" rx="9.5" fill="white"/>
<rect x="61" y="115" width="226" height="250" rx="9.5" stroke="#CCD8E1"/>
<g clip-path="url(#clip0_7797_144227)">
<path d="M225 159H72V353H225V159Z" fill="#173E50"/>
<path opacity="0.2" d="M163.627 159L71 353H130.759L224 159H163.627Z" fill="white" fill-opacity="0.5"/>
<path opacity="0.2" d="M227.874 159L136 353H142.517L235 159H227.874Z" fill="white" fill-opacity="0.5"/>
<path d="M226.279 159H74C72.8954 159 72 159.895 72 161V361.078C72 362.182 72.8954 363.078 74 363.078H226.279C227.383 363.078 228.279 362.182 228.279 361.078V161C228.279 159.895 227.383 159 226.279 159Z" stroke="#031D29" stroke-width="4" stroke-miterlimit="10"/>
</g>
<rect x="234" y="159" width="42" height="96" rx="5" fill="#E5ECF0"/>
<rect x="304" y="115" width="176" height="250" rx="9.5" fill="white"/>
<rect x="304" y="115" width="176" height="250" rx="9.5" stroke="#CCD8E1"/>
<g clip-path="url(#clip1_7797_144227)">
<path d="M469 156.5H316V204.5H469V156.5Z" fill="#173E50"/>
<path opacity="0.2" d="M407.627 156.5L315 204.5H374.759L468 156.5H407.627Z" fill="white" fill-opacity="0.5"/>
<path opacity="0.2" d="M471.874 156.5L380 204.5H386.517L479 156.5H471.874Z" fill="white" fill-opacity="0.5"/>
<path d="M470.279 156.5H318C316.895 156.5 316 157.395 316 158.5V204.994C316 206.098 316.895 206.994 318 206.994H470.279C471.383 206.994 472.279 206.098 472.279 204.994V158.5C472.279 157.395 471.383 156.5 470.279 156.5Z" stroke="#031D29" stroke-width="4" stroke-miterlimit="10"/>
</g>
<rect y="77" width="541" height="3" fill="#668BA6"/>
<path d="M0 55C0 49.4772 4.47715 45 10 45H531C536.523 45 541 49.4772 541 55V77H0V55Z" fill="#CCEFFC"/>
<path fill-rule="evenodd" clip-rule="evenodd" d="M163.125 26.859C158.826 31.9177 156.288 38.5217 156.288 44.5659H137C137 33.5921 141.427 22.6994 148.38 14.516C155.343 6.32122 165.617 0 177.719 0H362.885C374.968 0 385.243 6.27605 392.219 14.4689C399.184 22.6499 403.605 33.5474 403.605 44.5659H384.317C384.317 38.46 381.773 31.8608 377.486 26.8264C373.21 21.8036 367.947 19.1452 362.885 19.1452H177.719C172.677 19.1452 167.413 21.8117 163.125 26.859Z" fill="#66CEF5"/>
<line x1="88" y1="256" x2="208" y2="256" stroke="white" stroke-width="2"/>
<defs>
<clipPath id="clip0_7797_144227">
<rect x="72" y="159" width="153" height="194" rx="2" fill="white"/>
</clipPath>
<clipPath id="clip1_7797_144227">
<rect x="316" y="156.5" width="153" height="48" rx="2" fill="white"/>
</clipPath>
</defs>
</svg>
