<svg width="87" height="327" viewBox="0 0 87 327" fill="none" xmlns="http://www.w3.org/2000/svg">
<rect x="1.22559" y="205.133" width="85" height="7" rx="3.5" fill="#00253F"/>
<rect x="1.22559" y="74.1328" width="85" height="7" rx="3.5" fill="#00253F"/>
<rect y="199.737" width="86.7543" height="10.0877" rx="4" fill="#9F9F9F"/>
<rect x="26.2281" y="199.662" width="34.2982" height="10.0877" fill="#797979" fill-opacity="0.6"/>
<rect y="68.5972" width="86.7543" height="10.0877" rx="4" fill="#9F9F9F"/>
<rect x="26.2281" y="68.5972" width="34.2982" height="10.0877" fill="#797979" fill-opacity="0.6"/>
<path d="M30.2631 4.1748L55.7544 4.03494L54.4736 266.309L48.4209 274.386L38.3332 274.386L32.2806 266.315L30.2631 4.1748Z" fill="#C6EDFC"/>
<path d="M33.209 265.5L32.6968 178H53.6968L53.1846 265.5L46.526 274H39.8675L33.209 265.5Z" fill="#00116B"/>
<circle cx="37" cy="265" r="1.5" fill="#F5F7F9" stroke="#84BE60"/>
<circle cx="41" cy="265" r="1.5" fill="#F5F7F9" stroke="#84BE60"/>
<circle cx="45" cy="265" r="1.5" fill="#F5F7F9" stroke="#84BE60"/>
<circle cx="49" cy="265" r="1.5" fill="#F5F7F9" stroke="#84BE60"/>
<circle cx="39" cy="268" r="1.5" fill="#F5F7F9" stroke="#84BE60"/>
<circle cx="41" cy="271" r="1.5" fill="#F5F7F9" stroke="#84BE60"/>
<circle cx="45" cy="271" r="1.5" fill="#F5F7F9" stroke="#84BE60"/>
<circle cx="47" cy="268" r="1.5" fill="#F5F7F9" stroke="#84BE60"/>
<circle cx="43" cy="268" r="1.5" fill="#F5F7F9" stroke="#84BE60"/>
<circle cx="51" cy="262" r="1.5" fill="#F5F7F9" stroke="#84BE60"/>
<circle cx="47" cy="262" r="1.5" fill="#F5F7F9" stroke="#84BE60"/>
<circle cx="43" cy="262" r="1.5" fill="#F5F7F9" stroke="#84BE60"/>
<circle cx="39" cy="262" r="1.5" fill="#F5F7F9" stroke="#84BE60"/>
<circle cx="36" cy="262" r="1.5" fill="#F5F7F9" stroke="#84BE60"/>
<circle cx="41" cy="259" r="1.5" fill="#F5F7F9" stroke="#84BE60"/>
<circle cx="41" cy="253" r="1.5" fill="#F5F7F9" stroke="#84BE60"/>
<circle cx="41" cy="247" r="1.5" fill="#F5F7F9" stroke="#84BE60"/>
<circle cx="45" cy="247" r="1.5" fill="#F5F7F9" stroke="#84BE60"/>
<circle cx="49" cy="247" r="1.5" fill="#F5F7F9" stroke="#84BE60"/>
<circle cx="51" cy="247" r="1.5" fill="#F5F7F9" stroke="#84BE60"/>
<circle cx="37" cy="247" r="1.5" fill="#F5F7F9" stroke="#84BE60"/>
<circle cx="36" cy="247" r="1.5" fill="#F5F7F9" stroke="#84BE60"/>
<circle cx="45" cy="253" r="1.5" fill="#F5F7F9" stroke="#84BE60"/>
<circle cx="49" cy="253" r="1.5" fill="#F5F7F9" stroke="#84BE60"/>
<circle cx="50" cy="253" r="1.5" fill="#F5F7F9" stroke="#84BE60"/>
<circle cx="37" cy="253" r="1.5" fill="#F5F7F9" stroke="#84BE60"/>
<circle cx="36" cy="253" r="1.5" fill="#F5F7F9" stroke="#84BE60"/>
<circle cx="45" cy="259" r="1.5" fill="#F5F7F9" stroke="#84BE60"/>
<circle cx="49" cy="259" r="1.5" fill="#F5F7F9" stroke="#84BE60"/>
<circle cx="51" cy="259" r="1.5" fill="#F5F7F9" stroke="#84BE60"/>
<circle cx="37" cy="259" r="1.5" fill="#F5F7F9" stroke="#84BE60"/>
<circle cx="36" cy="259" r="1.5" fill="#F5F7F9" stroke="#84BE60"/>
<circle cx="43" cy="256" r="1.5" fill="#F5F7F9" stroke="#84BE60"/>
<circle cx="43" cy="250" r="1.5" fill="#F5F7F9" stroke="#84BE60"/>
<circle cx="47" cy="250" r="1.5" fill="#F5F7F9" stroke="#84BE60"/>
<circle cx="51" cy="250" r="1.5" fill="#F5F7F9" stroke="#84BE60"/>
<circle cx="39" cy="250" r="1.5" fill="#F5F7F9" stroke="#84BE60"/>
<circle cx="36" cy="250" r="1.5" fill="#F5F7F9" stroke="#84BE60"/>
<circle cx="43" cy="244" r="1.5" fill="#F5F7F9" stroke="#84BE60"/>
<circle cx="47" cy="244" r="1.5" fill="#F5F7F9" stroke="#84BE60"/>
<circle cx="51" cy="244" r="1.5" fill="#F5F7F9" stroke="#84BE60"/>
<circle cx="39" cy="244" r="1.5" fill="#F5F7F9" stroke="#84BE60"/>
<circle cx="36" cy="244" r="1.5" fill="#F5F7F9" stroke="#84BE60"/>
<circle cx="41" cy="241" r="1.5" fill="#F5F7F9" stroke="#84BE60"/>
<circle cx="45" cy="241" r="1.5" fill="#F5F7F9" stroke="#84BE60"/>
<circle cx="49" cy="241" r="1.5" fill="#F5F7F9" stroke="#84BE60"/>
<circle cx="51" cy="241" r="1.5" fill="#F5F7F9" stroke="#84BE60"/>
<circle cx="37" cy="241" r="1.5" fill="#F5F7F9" stroke="#84BE60"/>
<circle cx="36" cy="241" r="1.5" fill="#F5F7F9" stroke="#84BE60"/>
<circle cx="43" cy="238" r="1.5" fill="#F5F7F9" stroke="#84BE60"/>
<circle cx="47" cy="238" r="1.5" fill="#F5F7F9" stroke="#84BE60"/>
<circle cx="51" cy="238" r="1.5" fill="#F5F7F9" stroke="#84BE60"/>
<circle cx="39" cy="238" r="1.5" fill="#F5F7F9" stroke="#84BE60"/>
<circle cx="36" cy="238" r="1.5" fill="#F5F7F9" stroke="#84BE60"/>
<circle cx="41" cy="235" r="1.5" fill="#F5F7F9" stroke="#84BE60"/>
<circle cx="45" cy="235" r="1.5" fill="#F5F7F9" stroke="#84BE60"/>
<circle cx="49" cy="235" r="1.5" fill="#F5F7F9" stroke="#84BE60"/>
<circle cx="51" cy="235" r="1.5" fill="#F5F7F9" stroke="#84BE60"/>
<circle cx="37" cy="235" r="1.5" fill="#F5F7F9" stroke="#84BE60"/>
<circle cx="36" cy="235" r="1.5" fill="#F5F7F9" stroke="#84BE60"/>
<circle cx="43" cy="232" r="1.5" fill="#F5F7F9" stroke="#84BE60"/>
<circle cx="47" cy="232" r="1.5" fill="#F5F7F9" stroke="#84BE60"/>
<circle cx="51" cy="232" r="1.5" fill="#F5F7F9" stroke="#84BE60"/>
<circle cx="39" cy="232" r="1.5" fill="#F5F7F9" stroke="#84BE60"/>
<circle cx="36" cy="232" r="1.5" fill="#F5F7F9" stroke="#84BE60"/>
<circle cx="41" cy="229" r="1.5" fill="#F5F7F9" stroke="#84BE60"/>
<circle cx="45" cy="229" r="1.5" fill="#F5F7F9" stroke="#84BE60"/>
<circle cx="49" cy="229" r="1.5" fill="#F5F7F9" stroke="#84BE60"/>
<circle cx="51" cy="229" r="1.5" fill="#F5F7F9" stroke="#84BE60"/>
<circle cx="37" cy="229" r="1.5" fill="#F5F7F9" stroke="#84BE60"/>
<circle cx="36" cy="229" r="1.5" fill="#F5F7F9" stroke="#84BE60"/>
<circle cx="43" cy="226" r="1.5" fill="#F5F7F9" stroke="#84BE60"/>
<circle cx="47" cy="226" r="1.5" fill="#F5F7F9" stroke="#84BE60"/>
<circle cx="51" cy="226" r="1.5" fill="#F5F7F9" stroke="#84BE60"/>
<circle cx="39" cy="226" r="1.5" fill="#F5F7F9" stroke="#84BE60"/>
<circle cx="36" cy="226" r="1.5" fill="#F5F7F9" stroke="#84BE60"/>
<circle cx="47" cy="256" r="1.5" fill="#F5F7F9" stroke="#84BE60"/>
<circle cx="51" cy="256" r="1.5" fill="#F5F7F9" stroke="#84BE60"/>
<circle cx="39" cy="256" r="1.5" fill="#F5F7F9" stroke="#84BE60"/>
<circle cx="36" cy="256" r="1.5" fill="#F5F7F9" stroke="#84BE60"/>
<path d="M30.2631 4.17529L55.7544 4.03543L54.4736 266.309L48.4209 274.386L38.3332 274.386L32.2806 266.316L30.2631 4.17529Z" fill="#C6EDFC" fill-opacity="0.6"/>
<path opacity="0.8" d="M28.2456 2.1945e-08L58.5087 0V6.05263L28.2456 6.05263L28.2456 2.1945e-08Z" fill="#D3F0FB"/>
<path opacity="0.8" d="M29.6946 110.965H56.9079V117.017H29.6946V110.965Z" fill="#D3F0FB"/>
<path d="M38.3334 274.386H48.4211L46.4035 284.474H40.3509L38.3334 274.386Z" fill="#C6EDFC"/>
<rect x="36.3159" y="284.474" width="14.1228" height="4.03508" fill="#C6EDFC"/>
<path d="M48.4209 284.474L52.456 282.456V290.526L48.4209 288.509V284.474Z" fill="#C6EDFC"/>
<rect x="52.4562" y="282.456" width="4.03508" height="8.07017" fill="#C6EDFC"/>
<path d="M36.3159 288.509L34.2984 290.526L34.2984 282.456L36.3159 284.474L36.3159 288.509Z" fill="#C6EDFC"/>
<rect x="34.2985" y="290.526" width="2.01754" height="8.07017" transform="rotate(-180 34.2985 290.526)" fill="#C6EDFC"/>
<rect x="56.4912" y="284.474" width="6.05263" height="4.03508" fill="#93BDCD"/>
<rect x="60.5262" y="282.456" width="8.07017" height="8.07017" fill="#2D944A"/>
<rect x="30.2631" y="284.474" width="2.01754" height="4.03508" fill="#3FB25F"/>
<rect x="20.1755" y="280.438" width="6.05263" height="12.1053" fill="#3FB25F"/>
<path d="M26.2281 280.438L30.2632 284.474V288.509L26.2281 292.544V280.438Z" fill="#3FB25F"/>
<path d="M30.2631 284.474L26.228 280.438V292.544L30.2631 288.509V284.474Z" fill="#22803C" fill-opacity="0.6"/>
<path d="M40.3508 287.5H46.4035V326.842H44.3859L40.3508 314.737V287.5Z" fill="#C6EDFC"/>
<path d="M43.3771 304.648L46.4035 326.841H44.3859L40.3508 314.736L43.3771 304.648Z" fill="#6698AB"/>
<circle cx="5.04377" cy="73.6401" r="3.02631" fill="#797878"/>
<circle cx="6.05245" cy="72.6313" r="2.01754" fill="#D1D1D1"/>
<circle cx="81.7103" cy="73.6401" r="3.02631" fill="#797878"/>
<circle cx="82.7193" cy="72.6313" r="2.01754" fill="#D1D1D1"/>
<circle cx="5.04377" cy="204.78" r="3.02631" fill="#797878"/>
<circle cx="6.05245" cy="203.771" r="2.01754" fill="#D1D1D1"/>
<circle cx="81.7103" cy="204.78" r="3.02631" fill="#797878"/>
<circle cx="82.7193" cy="203.771" r="2.01754" fill="#D1D1D1"/>
<path d="M30.2631 6.05225H38.3332V274.385L32.2806 266.315L30.2631 6.05225Z" fill="#B1D8E8" fill-opacity="0.4"/>
<path d="M55.4823 6.05225H48.4209V274.385L54.4735 266.315L55.4823 6.05225Z" fill="#B1D8E8" fill-opacity="0.4"/>
<path opacity="0.8" d="M28.2456 2.1945e-08L58.5087 0V6.05263L28.2456 6.05263L28.2456 2.1945e-08Z" fill="#E4F8FF"/>
<path opacity="0.8" d="M28.2456 2.1945e-08L36.3158 0V6.05263L28.2456 6.05263L28.2456 2.1945e-08Z" fill="#BEE1EE"/>
<path opacity="0.8" d="M50.4387 2.1945e-08L58.5089 0V6.05263L50.4387 6.05263L50.4387 2.1945e-08Z" fill="#BEE1EE"/>
<path opacity="0.8" d="M30.2631 6.05225L55.7507 6.05225V10.0873H30.3182L30.2631 6.05225Z" fill="black" fill-opacity="0.2"/>
<path opacity="0.8" d="M29.7486 110.965H56.8958V117.017H29.7479L29.7486 110.965Z" fill="#E4F8FF"/>
<path opacity="0.8" d="M29.7036 110.965H36.3157V117.017H29.7035L29.7036 110.965Z" fill="#C4E4F0"/>
<path opacity="0.8" d="M50.4387 110.965H56.9116V117.017H50.4386L50.4387 110.965Z" fill="#C4E4F0"/>
<path opacity="0.8" d="M31.1272 117.017H55.1987V121.052H31.1695L31.1272 117.017Z" fill="black" fill-opacity="0.2"/>
<path opacity="0.8" d="M31.2147 254.21H55.5439L55.4824 260.263H31.2712L31.2147 254.21Z" fill="#E4F8FF"/>
<path opacity="0.8" d="M31.272 254.21H36.3158L36.3056 260.263H31.2813L31.272 254.21Z" fill="#C8E7F2"/>
<path opacity="0.8" d="M50.4387 254.21H55.4826L55.4724 260.263H50.4481L50.4387 254.21Z" fill="#C8E7F2"/>
<path opacity="0.8" d="M32.2334 260.263H54.4736V264.298H32.2807L32.2334 260.263Z" fill="black" fill-opacity="0.2"/>
<path d="M60.5923 195.524C60.6151 193.4 58.9115 191.676 56.7872 191.672L52.5636 191.666L52.4559 201.666L54.3717 201.669C57.7706 201.674 60.5557 198.923 60.5923 195.524V195.524Z" fill="white"/>
<path d="M26.2696 213.607C26.2467 211.483 27.9503 209.759 30.0746 209.755L34.2982 209.749L34.4059 219.749L32.4901 219.752C29.0912 219.757 26.3061 217.006 26.2696 213.607V213.607Z" fill="white"/>
<path d="M60.5923 213.607C60.6151 211.483 58.9115 209.759 56.7872 209.755L52.5636 209.749L52.4559 219.749L54.3717 219.752C57.7706 219.757 60.5557 217.006 60.5923 213.607V213.607Z" fill="white"/>
<path d="M26.2696 195.524C26.2467 193.4 27.9503 191.676 30.0746 191.672L34.2982 191.666L34.4059 201.666L32.4901 201.669C29.0912 201.674 26.3061 198.923 26.2696 195.524V195.524Z" fill="white"/>
<path d="M60.5923 64.459C60.6151 62.3348 58.9115 60.6101 56.7872 60.6068L52.5636 60.6002L52.4559 70.6004L54.3717 70.6034C57.7706 70.6087 60.5557 67.8578 60.5923 64.459V64.459Z" fill="white"/>
<path d="M26.2696 82.542C26.2467 80.4178 27.9503 78.6931 30.0746 78.6898L34.2982 78.6832L34.4059 88.6834L32.4901 88.6864C29.0912 88.6917 26.3061 85.9408 26.2696 82.542V82.542Z" fill="white"/>
<path d="M60.5923 82.542C60.6151 80.4178 58.9115 78.6931 56.7872 78.6898L52.5636 78.6832L52.4559 88.6834L54.3717 88.6864C57.7706 88.6917 60.5557 85.9408 60.5923 82.542V82.542Z" fill="white"/>
<path d="M26.2696 64.459C26.2467 62.3348 27.9503 60.6101 30.0746 60.6068L34.2982 60.6002L34.4059 70.6004L32.4901 70.6034C29.0912 70.6087 26.3061 67.8578 26.2696 64.459V64.459Z" fill="white"/>
<circle cx="64.5617" cy="286.54" r="1.85821" fill="#3FB25F"/>
<rect x="60.5265" y="290.576" width="8.07017" height="8.07017" transform="rotate(-90 60.5265 290.576)" fill="#93BDCD"/>
<path d="M52.4386 288.558C51.334 288.558 50.4386 287.645 50.4386 286.541V286.541C50.4386 285.436 51.334 284.523 52.4386 284.523H58.5088V288.558H52.4386Z" fill="#3FB35F"/>
<path d="M76.6847 284.523C77.7893 284.523 78.6847 285.436 78.6847 286.54V286.54C78.6847 287.645 77.7893 288.558 76.6847 288.558L70.6145 288.558L70.6145 284.523L76.6847 284.523Z" fill="#3FB35F"/>
<path d="M58.5089 288.558V284.523L60.5265 282.506V290.576L58.5089 288.558Z" fill="#22803C"/>
<path d="M70.6149 284.523L70.6149 288.558L68.5973 290.576L68.5973 282.505L70.6149 284.523Z" fill="#22803C"/>
</svg>
