<?xml version="1.0" encoding="UTF-8"?><svg id="Layer_1" xmlns="http://www.w3.org/2000/svg" xmlns:xlink="http://www.w3.org/1999/xlink" viewBox="0 0 580 612"><defs><style>.cls-1{fill:url(#linear-gradient);}.cls-2{fill:#f7c5fc;}.cls-3{fill:#f2f2f2;}.cls-4{fill:#faac48;}.cls-5{fill:#ffe0b8;}.cls-6,.cls-7{fill:#fff;}.cls-8{fill:#fff7ec;}.cls-9{fill:#e9aaf2;}.cls-10{fill:#edc4f3;}.cls-11,.cls-12{fill:#e52826;}.cls-13{fill:#edc6f2;}.cls-14{fill:#fcf0c5;}.cls-15{fill:#fce5ff;}.cls-16{fill:#84be60;}.cls-17{fill:#b71614;}.cls-18{fill:#bdbdbd;}.cls-19{fill:#cb83d7;}.cls-20{fill:#c4eeaa;}.cls-21{fill:#d07808;}.cls-22{fill:#d71e1c;}.cls-23{fill:#e0ffcd;}.cls-24{fill:#e0e0e0;}.cls-25{fill:#868ca6;}.cls-26{stroke:#fff;}.cls-26,.cls-27,.cls-28,.cls-29{fill:none;}.cls-26,.cls-30{stroke-width:2px;}.cls-31{opacity:.5;}.cls-31,.cls-32{fill:#e5ecf0;}.cls-31,.cls-32,.cls-33{isolation:isolate;}.cls-32{opacity:.6;}.cls-33{fill:#1a649b;opacity:.8;}.cls-33,.cls-34,.cls-35,.cls-36,.cls-37,.cls-38,.cls-7,.cls-39,.cls-12,.cls-40,.cls-41,.cls-42{fill-rule:evenodd;}.cls-43{stroke:#de8a1f;stroke-width:2.5px;}.cls-43,.cls-30{fill:#fbce94;}.cls-27,.cls-28,.cls-29{stroke:#faac48;stroke-linecap:round;}.cls-27,.cls-29{stroke-width:3px;}.cls-34{fill:#f9b359;}.cls-35{fill:#c4c4c4;}.cls-36{fill:#de8a1f;}.cls-37{fill:#afb3c5;}.cls-38{fill:#333332;}.cls-39{fill:#fcc47b;}.cls-40{fill:#003e6b;}.cls-41{fill:#008d36;}.cls-42{fill:#66a1db;}.cls-30{stroke:#e8ad62;}.cls-29{stroke-linejoin:round;}</style><linearGradient id="linear-gradient" x1="290" y1="1350" x2="290" y2="1962" gradientTransform="translate(0 -1350)" gradientUnits="userSpaceOnUse"><stop offset="0" stop-color="#014c91"/><stop offset="1" stop-color="#003257"/></linearGradient></defs><path class="cls-1" d="m5,0h570c2.8,0,5,2.2,5,5v602c0,2.8-2.2,5-5,5H5c-2.8,0-5-2.2-5-5V5C0,2.2,2.2,0,5,0Z"/><line class="cls-26" x1="466" y1="516" x2="466" y2="532"/><path class="cls-37" d="m279.4,48c-.6,0-1.1.5-1.1,1.1s.5,1.1,1.1,1.1h1.8v19.1c-4.9,11.1-14.5,33.1-15,35.4-.7,2.7.6,3.5,1.6,4.2h0c.1,0,.1.1.2.1.8.6,14.1.9,21.2,1.1h.6c7.1-.1,20.4-.5,21.2-1.1,0,0,.1,0,.1-.1,0,0,.1,0,.1-.1,1.1-.7,2.3-1.5,1.6-4.2-.6-2.2-9.9-23.8-14.9-35v-19.4h1.1c.6,0,1.1-.5,1.1-1.1s-.5-1.1-1.1-1.1h-19.6Z"/><path class="cls-25" d="m281.2,50.2h1v-1h-1v1Zm0,19l.9.4.1-.2v-.2s-1,0-1,0Zm-15,35.4l1,.2h0l-1-.2Zm1.6,4.2l-.5.8h0l.5-.8Zm0,0l.5-.8h0l-.5.8Zm0,0l.5-.8h0l-.5.8Zm.2.1l-.5.8h0l.5-.8Zm21.2,1.1h1v-1h-1v1Zm0,0h-1v1h1v-1Zm.3,0v-1h0v1Zm.3,0v1h1v-1h-1Zm0,0v-1h-1v1h1Zm21.2-1.1l-.5-.8h0l.5.8Zm.1,0l.5.8h0l-.5-.8Zm.1-.1l.5.8h0l-.5-.8Zm1.6-4.2l1-.2h0l-1,.2Zm-14.9-35h-1v.2l.1.2.9-.4Zm0-19.4v-1h-1v1h1Zm-18.6-1.1c0-.1.1-.1,0,0l.1-2.1c-1.1,0-2.1.9-2.1,2.1h2Zm.1.1s-.1-.1,0,0l-2.1-.1c0,1.1.9,2.1,2.1,2.1v-2Zm1.8,0h-1.8v2h1.8v-2Zm1,20v-19h-2v19.1l2-.1h0Zm-15,35.7c.1-.2.2-.7.6-1.6.3-.8.8-1.9,1.3-3.2,1.1-2.5,2.5-5.9,4-9.4,3.1-7.2,6.7-15.4,9.1-21l-1.8-.8c-2.5,5.6-6.1,13.9-9.1,21-1.5,3.6-2.9,6.9-4,9.5-.5,1.3-1,2.4-1.3,3.2-.3.8-.6,1.5-.6,1.8l1.8.5Zm1.1,3.1c-.6-.4-.9-.6-1.1-1-.2-.3-.4-.9-.1-2.1l-1.9-.5c-.4,1.5-.3,2.7.3,3.6.5.9,1.3,1.4,1.8,1.7l1-1.7Zm0-.1h0l-1,1.7h0l1-1.7Zm0,0h0l-1.1,1.7h0l1.1-1.7Zm.3.2c-.1,0-.1-.1-.2-.1l-1.1,1.7c.1,0,.1.1.2.1l1.1-1.7Zm20.6.9c-3.5-.1-8.6-.2-12.9-.4-2.2-.1-4.1-.2-5.6-.3-.7-.1-1.3-.1-1.8-.2-.2,0-.4-.1-.5-.1-.2,0-.1,0,0,0l-1.1,1.7c.2.1.5.2.6.2.2,0,.4.1.6.1.5.1,1.1.1,1.9.2,1.5.1,3.5.2,5.6.3,4.3.2,9.4.3,13,.4l.2-1.9Zm1,1h-2,2Zm-.7-1h-.3v2h.3v-2Zm.3,0h-.3v2h.3v-2Zm-1,1h2-2Zm21.6-1.9q.2-.1,0,0h-.5c-.4.1-1,.1-1.8.2-1.5.1-3.4.2-5.6.3-4.3.2-9.4.3-12.9.4v2c3.5-.1,8.6-.2,13-.4,2.2-.1,4.1-.2,5.6-.3.7-.1,1.4-.1,1.9-.2.2,0,.5-.1.6-.1s.4-.1.6-.2l-.9-1.7Zm.1-.1s-.1,0-.1.1l1.1,1.7s.1,0,.1-.1l-1.1-1.7Zm.2,0s-.1,0-.1.1l1.1,1.7s.1,0,.1-.1l-1.1-1.7Zm1.1-3.1c.3,1.2.1,1.8-.1,2.1-.2.4-.6.6-1.1,1l1.1,1.7c.5-.3,1.3-.8,1.8-1.7.5-.9.6-2.1.3-3.6l-2,.5Zm-14.8-34.9c2.5,5.6,6,13.8,9.1,20.9,1.5,3.5,2.9,6.8,3.9,9.3.5,1.3.9,2.3,1.3,3.1.3.8.5,1.4.6,1.6l1.9-.5c-.1-.4-.3-1-.6-1.8-.3-.8-.8-1.9-1.3-3.2-1-2.5-2.4-5.8-3.9-9.3-3-7.1-6.6-15.3-9.1-20.9l-1.9.8Zm-.1-19.8v19.5h2v-19.5h-2Zm2.1-1h-1.1v2h1.1v-2Zm.1-.1s0,.1,0,0l-.1,2.1c1.1,0,2.1-.9,2.1-2.1h-2Zm-.1-.1q.1,0,0,0l2.1.1c0-1.1-.9-2.1-2.1-2.1v2Zm-19.6,0h19.6v-2h-19.6v2Z"/><path class="cls-25" d="m280.1,48h18.9c.6,0,1.1.5,1.1,1.1h0c0,.6-.5,1.1-1.1,1.1h-18.9c-.6,0-1.1-.5-1.1-1.1h0c.1-.6.5-1.1,1.1-1.1Z"/><path class="cls-14" d="m301.9,80.3h-24.7c-3,6.8-9,21.1-10.2,24s.8,3.7,1.8,3.9c3.9.4,13.5,1.1,21,1.1,9.4,0,16.3-1.1,19.6-1.1,2.6,0,3-2.2,2.9-3.2l-10.4-24.7Z"/><path d="m292.8,69.9v-19.7h4.4v19.7c4.8,10.9,14.1,32.6,14.9,35.1.6,2.2-1.1,3-1.8,3.2-1.9.4-5.1.7-5.1.7,0,0-8-26.6-12.4-39Z"/><path class="cls-37" d="m41.4,182c-.6,0-1.1.5-1.1,1.1s.5,1.1,1.1,1.1h1.8v19.1c-4.9,11.1-14.5,33.1-15,35.4-.7,2.7.6,3.5,1.6,4.2h0c.1,0,.1.1.2.1.8.6,14.1.9,21.2,1.1h.6c7.1-.1,20.4-.5,21.2-1.1,0,0,.1,0,.1-.1,0,0,.1,0,.1-.1,1.1-.7,2.3-1.5,1.6-4.2-.6-2.2-9.9-23.8-14.9-35v-19.5h1.1c.6,0,1.1-.5,1.1-1.1s-.5-1.1-1.1-1.1h-19.6v.1Z"/><path class="cls-25" d="m43.2,184.1h1v-1h-1v1Zm0,19.1l.9.4.1-.2v-.2h-1Zm-15,35.4l1,.2h0l-1-.2Zm1.6,4.2l-.5.8h0l.5-.8Zm0,0l.5-.8h0l-.5.8Zm0,0l.5-.8h0l-.5.8Zm.2.1l-.6.8h0l.6-.8Zm21.2,1.1h1v-1h-1v1Zm0,0h-1v1h1v-1Zm.3,0v-1h0v1Zm.3,0v1h1v-1h-1Zm0,0v-1h-1v1h1Zm21.2-1.1l-.5-.8h0l.5.8Zm.1,0l.5.8h0l-.5-.8Zm.1-.1l.5.8h0l-.5-.8Zm1.6-4.2l1-.2h0l-1,.2Zm-14.9-35h-1v.2l.1.2.9-.4Zm0-19.5v-1h-1v1h1Zm-18.6-1c0-.1.1-.1,0,0l.1-2.1c-1.1,0-2.1.9-2.1,2.1h2Zm.1,0s-.1,0,0,0l-2.1-.1c0,1.1.9,2.1,2.1,2.1v-2Zm1.8,0h-1.8v2h1.8v-2Zm1,20.1v-19.1h-2v19.1h2Zm-15,35.7c.1-.2.2-.7.6-1.6.3-.8.8-1.9,1.3-3.2,1.1-2.5,2.5-5.9,4-9.4,3.1-7.2,6.7-15.4,9.1-21l-1.8-.8c-2.5,5.6-6.1,13.9-9.1,21-1.5,3.6-2.9,6.9-4,9.5-.5,1.3-1,2.4-1.3,3.2s-.6,1.5-.6,1.8l1.8.5Zm1.1,3.1c-.6-.4-.9-.6-1.1-1-.2-.3-.4-.9-.1-2.1l-1.9-.5c-.4,1.5-.3,2.7.3,3.6.5.9,1.3,1.4,1.8,1.7l1-1.7Zm0-.1h0l-1,1.7h0l1-1.7Zm0,0h0l-1.1,1.7h0l1.1-1.7Zm.3.2c-.1,0-.1-.1-.2-.1l-1.1,1.7c.1,0,.1.1.2.1l1.1-1.7Zm20.6.9c-3.5-.1-8.6-.2-12.9-.4-2.2-.1-4.1-.2-5.6-.3-.7-.1-1.3-.1-1.8-.2-.2,0-.4-.1-.5-.1-.2,0-.1,0,0,0l-1.1,1.7c.2.1.5.2.6.2.2,0,.4.1.7.1.5.1,1.1.1,1.9.2,1.5.1,3.5.2,5.6.3,4.3.2,9.4.3,13,.4l.1-1.9Zm1,1h-2,2Zm-.7-1h-.3v2h.3v-2Zm.3,0h-.3v2h.3v-2Zm-1,1h2-2Zm21.6-1.9q.2-.1,0,0h-.5c-.4.1-1,.1-1.8.2-1.5.1-3.4.2-5.6.3-4.3.2-9.4.3-12.9.4v2c3.5-.1,8.6-.2,13-.4,2.2-.1,4.1-.2,5.6-.3.7-.1,1.4-.1,1.9-.2.2,0,.5-.1.7-.1.1,0,.4-.1.6-.2l-1-1.7Zm.1-.1s-.1,0-.1.1l1.1,1.7s.1,0,.1-.1l-1.1-1.7Zm.2,0s-.1,0-.1.1l1.1,1.7s.1,0,.1-.1l-1.1-1.7Zm1.1-3.1c.3,1.2.1,1.8-.1,2.1-.2.4-.6.6-1.1,1l1.1,1.7c.5-.3,1.3-.8,1.8-1.7s.6-2.1.3-3.6l-2,.5Zm-14.8-34.9c2.5,5.6,6,13.8,9.1,20.9,1.5,3.5,2.9,6.8,3.9,9.3.5,1.3.9,2.3,1.3,3.1.3.8.5,1.4.6,1.6l1.9-.5c-.1-.4-.3-1-.6-1.8-.3-.8-.8-1.9-1.3-3.2-1-2.5-2.4-5.8-3.9-9.3-3-7.1-6.6-15.3-9.1-20.9l-1.9.8Zm-.1-19.9v19.5h2v-19.5h-2Zm2.1-1h-1.1v2h1.1v-2Zm.1,0h0l-.1,2.1c1.1,0,2.1-.9,2.1-2.1h-2Zm-.1-.1q.1,0,0,0l2.1.1c0-1.1-.9-2.1-2.1-2.1v2Zm-19.6,0h19.6v-2h-19.6v2Z"/><path class="cls-25" d="m42.1,182h18.9c.6,0,1.1.5,1.1,1.1h0c0,.6-.5,1.1-1.1,1.1h-18.9c-.6,0-1.1-.5-1.1-1.1h0c.1-.6.5-1.1,1.1-1.1Z"/><path class="cls-2" d="m63.9,214.3h-24.7c-3,6.8-9,21.1-10.2,24s.8,3.7,1.8,3.9c3.9.4,13.5,1.1,21,1.1,9.4,0,16.3-1.1,19.6-1.1,2.6,0,3-2.1,2.9-3.2l-10.4-24.7Z"/><path d="m54.8,203.9v-19.7h4.4v19.7c4.8,10.9,14.2,32.6,14.9,35.1.6,2.2-1.1,3-1.8,3.2-1.9.4-5.1.7-5.1.7,0,0-8-26.6-12.4-39Z"/><path class="cls-6" d="m457.6,99h3.7c1.9,0,2.8-.8,2.8-2.4,0-1.2-.4-1.9-1.5-2.2h0c.8-.3,1.2-.9,1.2-1.9,0-1.6-.9-2.3-2.8-2.3h-3.4v8.8h0Zm1.2-5v-2.7h2.2c1.2,0,1.7.4,1.7,1.4s-.5,1.4-1.7,1.4h-2.2v-.1Zm0,3.9v-2.9h2.2c1.4,0,2,.4,2,1.5,0,1-.5,1.5-1.8,1.5l-2.4-.1h0Zm9,1.3c1,0,1.7-.4,2.3-1.1v.9h1v-4.4c0-1.7-.9-2.5-2.6-2.5s-2.6.7-2.7,2.2h1.1c0-.8.6-1.2,1.5-1.2,1,0,1.5.5,1.5,1.5v.4h-1.6c-1.9,0-2.8.8-2.8,2.1,0,1.3.9,2.1,2.3,2.1Zm.1-1c-.8,0-1.3-.4-1.3-1.1,0-.8.5-1.1,1.7-1.1h1.6v.9c-.4.8-1.1,1.3-2,1.3Zm7.6,1c1.7,0,2.6-.9,2.7-2.5h-1.1c-.1,1.1-.6,1.5-1.6,1.5-1.1,0-1.7-.6-1.7-1.9v-1.3c0-1.3.5-1.9,1.7-1.9.9,0,1.5.4,1.6,1.5h1.1c-.1-1.6-1-2.5-2.7-2.5-1.8,0-2.8,1-2.8,2.8v1.3c0,2,1,3,2.8,3Zm6.4-.2h1v-1h-.8c-.8,0-1-.2-1-1.1v-3.7h1.7v-.9h-1.7v-1.8h-1l-.1,1.8h-1v.9h1.2v3.7c-.1,1.5.5,2.1,1.7,2.1Zm5,.2c1.6,0,2.6-.7,2.7-2.2h-1.1c-.1.7-.6,1.2-1.6,1.2-1.2,0-1.7-.6-1.7-1.9v-.3h4.5v-1c0-1.8-1-2.8-2.8-2.8s-2.8,1-2.8,2.8v1.3c-.1,1.9.9,2.9,2.8,2.9Zm-1.8-4.2c0-1.3.5-1.9,1.7-1.9s1.7.6,1.7,1.9h-3.4Zm6.3,4h1.1v-3.9c.2-1.3.8-1.8,1.9-1.8h.3v-1.1h-.5c-1,0-1.6.4-1.9,1.4l-.1-1.2h-1v6.6h.2Zm4.6-7.9h1.2v-1.3h-1.2v1.3Zm.1,7.9h1.1v-6.7h-1.1v6.7Zm5,.2c1,0,1.7-.4,2.3-1.1v.9h1v-4.4c0-1.7-.9-2.5-2.6-2.5s-2.6.7-2.7,2.2h1.1c0-.8.6-1.2,1.5-1.2,1,0,1.5.5,1.5,1.5v.4h-1.6c-1.9,0-2.8.8-2.8,2.1.1,1.3,1,2.1,2.3,2.1Zm.2-1c-.8,0-1.3-.4-1.3-1.1,0-.8.5-1.1,1.7-1.1h1.6v.9c-.4.8-1.1,1.3-2,1.3Zm10.3,1c1,0,1.7-.4,2.3-1.1v.9h1v-4.4c0-1.7-.9-2.5-2.6-2.5s-2.6.7-2.7,2.2h1.1c0-.8.6-1.2,1.5-1.2,1,0,1.5.5,1.5,1.5v.4h-1.6c-1.9,0-2.8.8-2.8,2.1.1,1.3.9,2.1,2.3,2.1Zm.2-1c-.8,0-1.3-.4-1.3-1.1,0-.8.5-1.1,1.7-1.1h1.6v.9c-.5.8-1.1,1.3-2,1.3Zm5.1.8h1.1v-3.9c.2-1.3.8-1.8,1.9-1.8h.3v-1.1h-.5c-1,0-1.6.4-1.9,1.4l-.1-1.2h-1v6.6h.2Zm7.2.2c1.6,0,2.6-.7,2.7-2.2h-1.1c-.1.7-.6,1.2-1.6,1.2-1.2,0-1.7-.6-1.7-1.9v-.3h4.5v-1c0-1.8-1-2.8-2.8-2.8s-2.8,1-2.8,2.8v1.3c-.1,1.9.9,2.9,2.8,2.9Zm-1.8-4.2c0-1.3.5-1.9,1.7-1.9s1.7.6,1.7,1.9h-3.4Zm-52.7,12.1h1.2v-1.3h-1.2v1.3Zm0,7.9h1.1v-6.7h-1.1v6.7Zm3.3,0h1.1v-4.4c.5-1,1.1-1.5,1.9-1.5s1.2.5,1.2,1.5v4.3h1.1v-4.4c0-1.6-.7-2.5-2.1-2.5-.9,0-1.7.4-2.2,1.2v-1.1h-1v6.9Zm9.6.2c1,0,1.7-.4,2.3-1.2v1.1h1v-9.5h-1.1v3.7c-.5-.7-1.2-1-2.1-1-1.6,0-2.5,1-2.5,2.8v1.4c-.1,1.7.8,2.7,2.4,2.7Zm.1-1c-.9,0-1.5-.6-1.5-1.8v-1.4c0-1.2.5-1.8,1.5-1.8.9,0,1.5.6,2,1.5v2c-.5.9-1.1,1.5-2,1.5Zm7.3,1c.9,0,1.7-.4,2.3-1.2v1.1h1v-6.7h-1.2v4.4c-.5,1-1.1,1.5-1.9,1.5s-1.2-.5-1.2-1.5v-4.3h-1.1v4.4c0,1.4.7,2.3,2.1,2.3Zm7.9,0c1.7,0,2.6-.9,2.7-2.5h-1.1c-.1,1.1-.6,1.5-1.6,1.5-1.1,0-1.7-.6-1.7-1.9v-1.3c0-1.3.5-1.9,1.7-1.9.9,0,1.5.4,1.6,1.5h1.1c-.1-1.6-1-2.5-2.7-2.5-1.8,0-2.8,1-2.8,2.8v1.3c0,2,1,3,2.8,3Zm7,0c1.6,0,2.6-.7,2.7-2.2h-1.1c-.1.7-.6,1.2-1.6,1.2-1.2,0-1.7-.6-1.7-1.9v-.3h4.5v-1c0-1.8-1-2.8-2.8-2.8s-2.8,1-2.8,2.8v1.3c-.1,1.9.9,2.9,2.8,2.9Zm-1.8-4.2c0-1.3.5-1.9,1.7-1.9s1.7.6,1.7,1.9h-3.4Zm8.5,4.2c1,0,1.7-.4,2.3-1.2v1.1h1v-9.5h-1.1v3.7c-.5-.7-1.2-1-2.1-1-1.6,0-2.5,1-2.5,2.8v1.4c-.1,1.7.8,2.7,2.4,2.7Zm.1-1c-.9,0-1.5-.6-1.5-1.8v-1.4c0-1.2.5-1.8,1.5-1.8.9,0,1.5.6,2,1.5v2c-.4.9-1.1,1.5-2,1.5Zm10.8.8h1v-1h-.8c-.8,0-1-.2-1-1.1v-3.7h1.7v-.9h-1.7v-1.8h-1l-.1,1.8h-1.2v.9h1.2v3.7c.1,1.5.6,2.1,1.9,2.1Zm5,.2c1.9,0,2.9-1,2.9-3v-1.1c0-1.9-1-3-2.9-3s-2.9,1-2.9,3v1.1c0,1.9,1,3,2.9,3Zm0-1c-1.2,0-1.8-.7-1.8-2v-1c0-1.4.6-2,1.8-2s1.8.6,1.8,2v1c-.1,1.3-.7,2-1.8,2Zm-71.1,17c1.6,0,2.6-.7,2.7-2.2h-1.1c-.1.7-.6,1.2-1.6,1.2-1.2,0-1.7-.6-1.7-1.9v-.3h4.5v-1c0-1.8-1-2.8-2.8-2.8s-2.8,1-2.8,2.8v1.3c-.1,1.9,1,2.9,2.8,2.9Zm-1.7-4.2c0-1.3.5-1.9,1.7-1.9s1.7.6,1.7,1.9h-3.4Zm5.2,4h1.3l1.7-2.6,1.8,2.6h1.4l-2.3-3.3,2.2-3.4h-1.3l-1.6,2.5-1.7-2.5h-1.3l2.2,3.2-2.4,3.5Zm7.4,2.4h1.1v-3.2c.5.7,1.2,1,2.1,1,1.6,0,2.5-1,2.5-2.8v-1.4c0-1.8-.9-2.8-2.5-2.8-1,0-1.7.4-2.3,1.2v-1.1h-1l.1,9.1h0Zm3.1-3.2c-.9,0-1.5-.6-2-1.5v-2c.4-1,1.1-1.5,2-1.5s1.5.6,1.5,1.8v1.4c0,1.1-.6,1.8-1.5,1.8Zm4.4.8h1.1v-3.9c.2-1.3.8-1.8,1.9-1.8h.3v-1.1h-.5c-1,0-1.6.4-1.9,1.4l-.1-1.2h-1v6.6h.2Zm7.2.2c1.6,0,2.6-.7,2.7-2.2h-1.1c-.1.7-.6,1.2-1.6,1.2-1.2,0-1.7-.6-1.7-1.9v-.3h4.5v-1c0-1.8-1-2.8-2.8-2.8s-2.8,1-2.8,2.8v1.3c-.1,1.9.9,2.9,2.8,2.9Zm-1.7-4.2c0-1.3.5-1.9,1.7-1.9s1.7.6,1.7,1.9h-3.4Zm8.5,4.2c1.8,0,2.7-.7,2.7-2.1,0-1.3-.7-1.8-2.5-2-1.2-.1-1.7-.4-1.7-1s.5-1,1.5-1,1.4.4,1.4,1.1h1.1c0-1.4-.9-2.1-2.5-2.1s-2.6.7-2.6,2c0,1.2.6,1.7,2.4,1.9,1.3.2,1.8.4,1.8,1.1,0,.6-.5,1-1.6,1s-1.7-.4-1.7-1.2h-1.1c0,1.5.9,2.3,2.8,2.3Zm6.4,0c1.8,0,2.7-.7,2.7-2.1,0-1.3-.7-1.8-2.5-2-1.2-.1-1.7-.4-1.7-1s.5-1,1.5-1,1.4.4,1.4,1.1h1.1c0-1.4-.9-2.1-2.5-2.1s-2.6.7-2.6,2c0,1.2.6,1.7,2.4,1.9,1.3.2,1.8.4,1.8,1.1,0,.6-.5,1-1.6,1s-1.7-.4-1.7-1.2h-1.1c.1,1.5,1,2.3,2.8,2.3Zm10.3,2.3c1.9,0,2.9-.9,2.9-2.7v-6.6h-1l-.1,1c-.6-.8-1.3-1.2-2.2-1.2-1.6,0-2.5,1-2.5,2.8v1.1c0,1.8.9,2.8,2.5,2.8.9,0,1.6-.3,2.1-1v1.1c0,1.2-.5,1.7-1.7,1.7-.9,0-1.6-.3-1.6-1.1h-1.1c.1,1.4,1,2.1,2.7,2.1Zm-.3-3.7c-.9,0-1.5-.6-1.5-1.8v-1c0-1.2.5-1.8,1.5-1.8.8,0,1.5.5,2,1.5v1.7c-.4.8-1.1,1.4-2,1.4Zm7.9,1.4c1.6,0,2.6-.7,2.7-2.2h-1.1c-.1.7-.6,1.2-1.6,1.2-1.2,0-1.7-.6-1.7-1.9v-.3h4.5v-1c0-1.8-1-2.8-2.8-2.8s-2.8,1-2.8,2.8v1.3c-.1,1.9.9,2.9,2.8,2.9Zm-1.8-4.2c0-1.3.5-1.9,1.7-1.9s1.7.6,1.7,1.9h-3.4Zm6.3,4h1.1v-4.4c.5-1,1.1-1.5,1.9-1.5s1.2.5,1.2,1.5v4.3h1.1v-4.4c0-1.6-.7-2.5-2.1-2.5-.9,0-1.7.4-2.2,1.2v-1.1h-1v6.9Zm10,.2c1.6,0,2.6-.7,2.7-2.2h-1.1c-.1.7-.6,1.2-1.6,1.2-1.2,0-1.7-.6-1.7-1.9v-.3h4.5v-1c0-1.8-1-2.8-2.8-2.8s-2.8,1-2.8,2.8v1.3c-.1,1.9.9,2.9,2.8,2.9Zm-1.7-4.2c0-1.3.5-1.9,1.7-1.9s1.7.6,1.7,1.9h-3.4Z"/><path class="cls-6" d="m61.1,294.2c2.1,0,3.1-1,3.2-3.1h-1.1c-.1,1.4-.7,2-2.1,2-1.5,0-2.1-.8-2.1-2.5v-2.1c0-1.7.7-2.5,2.1-2.5s2,.6,2.1,2h1.1c-.1-2.1-1.1-3.1-3.2-3.1s-3.3,1.2-3.3,3.5v2.2c0,2.4,1.1,3.6,3.3,3.6Zm7.7,0c1.6,0,2.6-.7,2.7-2.2h-1.1c-.1.7-.6,1.2-1.6,1.2-1.2,0-1.7-.6-1.7-1.9v-.3h4.5v-1c0-1.8-1-2.8-2.8-2.8s-2.8,1-2.8,2.8v1.3c-.2,1.9.9,2.9,2.8,2.9Zm-1.8-4.2c0-1.3.5-1.9,1.7-1.9s1.7.6,1.7,1.9h-3.4Zm6.3,4h1.1v-9.5h-1.1v9.5Zm3.3,0h1.1v-9.5h-1.1v9.5Zm5.5.2c1.8,0,2.7-.7,2.7-2.1,0-1.3-.7-1.8-2.5-2-1.2-.1-1.7-.4-1.7-1s.5-1,1.5-1,1.4.4,1.4,1.1h1.1c0-1.4-.9-2.1-2.5-2.1-1.7,0-2.6.7-2.6,2,0,1.2.7,1.7,2.4,1.9,1.3.2,1.8.4,1.8,1.1,0,.6-.5,1-1.6,1s-1.7-.4-1.7-1.2h-1.1c0,1.5.9,2.3,2.8,2.3Zm9.4,0c1,0,1.7-.4,2.3-1.1v.9h1v-4.4c0-1.7-.9-2.5-2.6-2.5s-2.6.7-2.7,2.2h1.1c0-.8.6-1.2,1.5-1.2,1,0,1.5.5,1.5,1.5v.4h-1.6c-1.9,0-2.8.8-2.8,2.1.1,1.3.9,2.1,2.3,2.1Zm.2-1c-.8,0-1.3-.4-1.3-1.1,0-.8.5-1.1,1.7-1.1h1.6v.9c-.4.8-1.1,1.3-2,1.3Zm5.1.8h1.2v-3.9c.2-1.3.8-1.8,1.9-1.8h.3v-1.1h-.5c-1,0-1.6.4-1.9,1.4l-.1-1.2h-1l.1,6.6h0Zm7.2.2c1.6,0,2.6-.7,2.7-2.2h-1.1c-.1.7-.6,1.2-1.6,1.2-1.2,0-1.7-.6-1.7-1.9v-.3h4.5v-1c0-1.8-1-2.8-2.8-2.8s-2.8,1-2.8,2.8v1.3c-.1,1.9.9,2.9,2.8,2.9Zm-1.7-4.2c0-1.3.5-1.9,1.7-1.9s1.7.6,1.7,1.9h-3.4Zm-40.9,20.2c1.6,0,2.5-1,2.5-2.8v-1.4c0-1.8-.9-2.8-2.5-2.8-.9,0-1.6.3-2.1,1v-3.7h-1.1v9.5h1v-1.1c.5.9,1.2,1.3,2.2,1.3Zm-.2-1c-.8,0-1.5-.6-2-1.5v-2c.4-1,1.1-1.5,2-1.5s1.5.6,1.5,1.8v1.4c0,1.1-.6,1.8-1.5,1.8Zm6.5,1c.9,0,1.7-.4,2.3-1.2v1.1h1v-6.7h-1.1v4.4c-.5,1-1.1,1.5-1.9,1.5s-1.2-.5-1.2-1.5v-4.3h-1.1v4.4c-.2,1.4.6,2.3,2,2.3Zm5.4-.2h1.1v-3.9c.2-1.3.8-1.8,1.9-1.8h.3v-1.1h-.5c-1,0-1.6.4-1.9,1.4l-.1-1.2h-1v6.6h.2Zm6.9.2c1.8,0,2.7-.7,2.7-2.1,0-1.3-.7-1.8-2.5-2-1.2-.1-1.7-.4-1.7-1s.5-1,1.5-1,1.4.4,1.4,1.1h1.1c0-1.4-.9-2.1-2.5-2.1-1.7,0-2.6.7-2.6,2,0,1.2.7,1.7,2.4,1.9,1.3.2,1.8.4,1.8,1.1,0,.6-.5,1-1.6,1s-1.7-.4-1.7-1.2h-1.1c.1,1.5,1,2.3,2.8,2.3Zm6.4-.2h1v-1h-.8c-.8,0-1-.2-1-1.1v-3.7h1.7v-.9h-1.7v-1.8h-1l-.1,1.8h-1.2v.9h1.2v3.7c0,1.5.6,2.1,1.9,2.1Zm8.3.2c1.9,0,2.9-1,2.9-3v-1.1c0-2-1-3-2.9-3s-2.9,1-2.9,3v1.1c0,1.9,1,3,2.9,3Zm0-1c-1.2,0-1.8-.6-1.8-2v-1c0-1.4.6-2,1.8-2s1.8.6,1.8,2v1c0,1.3-.6,2-1.8,2Zm4.7,3.2h1.1v-3.2c.5.7,1.2,1,2.1,1,1.6,0,2.5-1,2.5-2.8v-1.4c0-1.8-.9-2.8-2.5-2.8-1,0-1.7.4-2.3,1.2v-1.1h-1v9.1h.1Zm3.2-3.2c-.9,0-1.5-.6-2-1.5v-2c.4-1,1.1-1.5,2-1.5s1.5.6,1.5,1.8v1.4c-.1,1.1-.6,1.8-1.5,1.8Zm7,1c1.6,0,2.6-.7,2.7-2.2h-1.1c-.1.7-.6,1.2-1.6,1.2-1.2,0-1.7-.6-1.7-1.9v-.3h4.5v-1c0-1.8-1-2.8-2.8-2.8s-2.8,1-2.8,2.8v1.3c-.1,1.9.9,2.9,2.8,2.9Zm-1.8-4.2c0-1.3.5-1.9,1.7-1.9s1.7.6,1.7,1.9h-3.4Zm6.3,4h1.1v-4.4c.5-1,1.1-1.5,1.9-1.5s1.2.5,1.2,1.5v4.3h1.1v-4.4c0-1.6-.7-2.5-2.1-2.5-.9,0-1.7.4-2.2,1.2v-1.1h-1v6.9Z"/><path class="cls-6" d="m396.7,199.2c2.2,0,3.3-1.1,3.3-3.4v-1.6h-3v1.1h1.9v.5c0,1.6-.7,2.3-2.1,2.3-1.5,0-2.2-.8-2.2-2.4v-2.2c0-1.6.7-2.4,2.2-2.4,1.4,0,2,.7,2.1,1.8h1.1c-.1-1.9-1.3-2.9-3.2-2.9-2.2,0-3.3,1.2-3.3,3.4v2.3c-.2,2.3,1,3.5,3.2,3.5Zm7.9,0c1.6,0,2.6-.7,2.7-2.2h-1.1c-.1.7-.6,1.2-1.6,1.2-1.2,0-1.7-.6-1.7-1.9v-.3h4.5v-1c0-1.8-1-2.8-2.8-2.8s-2.8,1-2.8,2.8v1.3c-.1,1.9.9,2.9,2.8,2.9Zm-1.8-4.2c0-1.3.5-1.9,1.7-1.9s1.7.6,1.7,1.9h-3.4Zm6.3,4h1.1v-4.4c.5-1,1.1-1.5,1.9-1.5s1.2.5,1.2,1.5v4.3h1.1v-4.4c0-1.6-.7-2.5-2.1-2.5-.9,0-1.7.4-2.2,1.2v-1.1h-1v6.9Zm10,.2c1.6,0,2.6-.7,2.7-2.2h-1.1c-.1.7-.6,1.2-1.6,1.2-1.2,0-1.7-.6-1.7-1.9v-.3h4.5v-1c0-1.8-1-2.8-2.8-2.8s-2.8,1-2.8,2.8v1.3c-.1,1.9.9,2.9,2.8,2.9Zm-1.8-4.2c0-1.3.5-1.9,1.7-1.9s1.7.6,1.7,1.9h-3.4Zm9.7-3.9h1.2v-1.3h-1.2v1.3Zm.1,7.9h1.1v-6.7h-1.1v6.7Zm5.4.2c1.8,0,2.7-.7,2.7-2.1,0-1.3-.7-1.8-2.5-2-1.2-.1-1.7-.4-1.7-1s.5-1,1.5-1,1.4.4,1.4,1.1h1.1c0-1.4-.9-2.1-2.5-2.1s-2.6.7-2.6,2c0,1.2.6,1.7,2.4,1.9,1.3.2,1.8.4,1.8,1.1,0,.6-.5,1-1.6,1s-1.7-.4-1.7-1.2h-1.1c.1,1.5,1,2.3,2.8,2.3Zm9.8-.2h1v-1h-.8c-.8,0-1-.2-1-1.1v-3.7h1.7v-.9h-1.7v-1.8h-1l-.1,1.8h-1.2v.9h1.2v3.7c.1,1.5.7,2.1,1.9,2.1Zm2.4,0h1.1v-3.9c.2-1.3.8-1.8,1.9-1.8h.3v-1.1h-.5c-1,0-1.6.4-1.9,1.4l-.1-1.2h-1v6.6h.2Zm6.3.2c1,0,1.7-.4,2.3-1.1v.9h1v-4.4c0-1.7-.9-2.5-2.6-2.5s-2.6.7-2.7,2.2h1.1c0-.8.6-1.2,1.5-1.2,1,0,1.5.5,1.5,1.5v.4h-1.6c-1.9,0-2.8.8-2.8,2.1.1,1.3.9,2.1,2.3,2.1Zm.2-1c-.8,0-1.3-.4-1.3-1.1,0-.8.5-1.1,1.7-1.1h1.6v.9c-.4.8-1.1,1.3-2,1.3Zm5.1.8h1.1v-4.4c.5-1,1.1-1.5,1.9-1.5s1.2.5,1.2,1.5v4.3h1.1v-4.4c0-1.6-.7-2.5-2.1-2.5-.9,0-1.7.4-2.2,1.2v-1.1h-1v6.9Zm9.6.2c1.8,0,2.7-.7,2.7-2.1,0-1.3-.7-1.8-2.5-2-1.2-.1-1.7-.4-1.7-1s.5-1,1.5-1,1.4.4,1.4,1.1h1.1c0-1.4-.9-2.1-2.5-2.1s-2.6.7-2.6,2c0,1.2.6,1.7,2.4,1.9,1.3.2,1.8.4,1.8,1.1,0,.6-.5,1-1.6,1s-1.7-.4-1.7-1.2h-1.1c.1,1.5,1,2.3,2.8,2.3Zm6.8,0c1.7,0,2.6-.9,2.7-2.5h-1.1c-.1,1.1-.6,1.5-1.6,1.5-1.1,0-1.7-.6-1.7-1.9v-1.3c0-1.3.5-1.9,1.7-1.9.9,0,1.5.4,1.6,1.5h1.1c-.1-1.6-1-2.5-2.7-2.5-1.8,0-2.8,1-2.8,2.8v1.3c0,2,1,3,2.8,3Zm4.2-.2h1.1v-3.9c.2-1.3.8-1.8,1.9-1.8h.3v-1.1h-.5c-1,0-1.6.4-1.9,1.4l-.1-1.2h-1v6.6h.2Zm4.6-7.9h1.2v-1.3h-1.2v1.3Zm.1,7.9h1.1v-6.7h-1.1v6.7Zm6.6.2c1.6,0,2.5-1,2.5-2.8v-1.4c0-1.8-.9-2.8-2.5-2.8-.9,0-1.6.3-2.1,1v-3.7h-1.1v9.5h1v-1.1c.5.9,1.2,1.3,2.2,1.3Zm-.2-1c-.8,0-1.5-.6-2-1.5v-2c.4-1,1.1-1.5,2-1.5s1.5.6,1.5,1.8v1.4c0,1.1-.5,1.8-1.5,1.8Zm7,1c1.6,0,2.6-.7,2.7-2.2h-1.1c-.1.7-.6,1.2-1.6,1.2-1.2,0-1.7-.6-1.7-1.9v-.3h4.5v-1c0-1.8-1-2.8-2.8-2.8s-2.8,1-2.8,2.8v1.3c-.1,1.9,1,2.9,2.8,2.9Zm-1.7-4.2c0-1.3.5-1.9,1.7-1.9s1.7.6,1.7,1.9h-3.4Zm8.4,4.2c1,0,1.7-.4,2.3-1.2v1.1h1v-9.5h-1.1v3.7c-.5-.7-1.2-1-2.1-1-1.6,0-2.5,1-2.5,2.8v1.4c0,1.7.9,2.7,2.4,2.7Zm.2-1c-.9,0-1.5-.6-1.5-1.8v-1.4c0-1.2.5-1.8,1.5-1.8.9,0,1.5.6,2,1.5v2c-.5.9-1.2,1.5-2,1.5Zm-80.9,8.9h1.2v-1.3h-1.2v1.3Zm0,7.9h1.1v-6.7h-1.1v6.7Zm3.3,0h1.1v-4.4c.5-1,1.1-1.5,1.9-1.5s1.2.5,1.2,1.5v4.3h1.1v-4.4c0-1.6-.7-2.5-2.1-2.5-.9,0-1.7.4-2.2,1.2v-1.1h-1v6.9Zm9.5,0h1v-1h-.8c-.8,0-1-.2-1-1.1v-3.7h1.7v-.9h-1.7v-1.8h-1l-.1,1.8h-1.2v.9h1.2v3.7c.1,1.5.6,2.1,1.9,2.1Zm4.9.2c1.9,0,2.9-1,2.9-3v-1.1c0-2-1-3-2.9-3s-2.9,1-2.9,3v1.1c0,1.9,1,3,2.9,3Zm0-1c-1.2,0-1.8-.6-1.8-2v-1c0-1.4.6-2,1.8-2s1.8.6,1.8,2v1c0,1.3-.6,2-1.8,2Zm8.2.8h1.1v-4.3c.5-1,1.1-1.5,1.8-1.5s1.1.4,1.1,1.3v4.5h1.1v-4.4c.5-1,1.1-1.4,1.8-1.4s1.1.4,1.1,1.3v4.5h1.1v-4.6c0-1.5-.7-2.3-2.1-2.3-.9,0-1.5.3-2.1,1.2-.3-.8-.9-1.2-1.8-1.2s-1.6.4-2.1,1.2v-1.1h-1v6.8Zm11.3,0h1.2v-3.6h1.9l2.1,3.6h1.4l-2.2-3.7c1.3-.2,1.8-1,1.8-2.5,0-1.9-.8-2.6-2.8-2.6h-3.4v8.8Zm1.2-4.7v-3.1h2.1c1.3,0,1.8.4,1.8,1.6,0,1.1-.5,1.6-1.8,1.6h-2.1v-.1Zm7,4.7h1.1v-7.1l4.3,7.1h1.1v-8.8h-1.1v6.7l-4.1-6.7h-1.4v8.8h.1Zm7.9,0h1.2l.8-2.3h3.6l.8,2.3h1.2l-3.2-8.8h-1.2l-3.2,8.8Zm2.4-3.3l1.4-4,1.4,4h-2.8Z"/><path class="cls-6" d="m233.3,274h1.1v-4.3c.5-1,1.1-1.5,1.8-1.5s1.1.4,1.1,1.3v4.5h1.1v-4.4c.5-1,1.1-1.4,1.8-1.4s1.1.4,1.1,1.3v4.5h1.1v-4.6c0-1.5-.7-2.3-2.1-2.3-.9,0-1.5.3-2.1,1.2-.3-.8-.9-1.2-1.8-1.2s-1.6.4-2.1,1.2v-1.1h-1v6.8h0Zm11.3,0h1.2v-3.6h1.9l2.1,3.6h1.4l-2.2-3.7c1.3-.2,1.8-1,1.8-2.5,0-1.9-.8-2.6-2.8-2.6h-3.4v8.8Zm1.1-4.7v-3.1h2.1c1.3,0,1.8.4,1.8,1.6,0,1.1-.5,1.6-1.8,1.6h-2.1v-.1Zm7.1,4.7h1.1v-7.1l4.3,7.1h1.1v-8.8h-1.1v6.7l-4.1-6.7h-1.4l.1,8.8h0Zm7.9,0h1.2l.8-2.3h3.6l.8,2.3h1.2l-3.2-8.8h-1.2l-3.2,8.8Zm2.4-3.3l1.4-4,1.4,4h-2.8Zm9.8-4.6h1.2v-1.3h-1.2v1.3Zm.1,7.9h1.1v-6.7h-1.1v6.7Zm5.4.2c1.8,0,2.7-.7,2.7-2.1,0-1.3-.7-1.8-2.5-2-1.2-.1-1.7-.4-1.7-1s.5-1,1.5-1,1.4.4,1.4,1.1h1.1c0-1.4-.9-2.1-2.5-2.1s-2.6.7-2.6,2c0,1.2.6,1.7,2.4,1.9,1.3.2,1.8.4,1.8,1.1,0,.6-.5,1-1.6,1s-1.7-.4-1.7-1.2h-1.1c.1,1.5,1,2.3,2.8,2.3Zm9.8-.2h1v-1h-.8c-.8,0-1-.2-1-1.1v-3.7h1.7v-.9h-1.7v-1.8h-1l-.1,1.8h-1.2v.9h1.2v3.7c.1,1.5.6,2.1,1.9,2.1Zm2.4,0h1.1v-3.9c.2-1.3.8-1.8,1.9-1.8h.3v-1.1h-.5c-1,0-1.6.4-1.9,1.4l-.1-1.2h-1v6.6h.2Zm6.3.2c1,0,1.7-.4,2.3-1.1v.9h1v-4.4c0-1.7-.9-2.5-2.6-2.5s-2.6.7-2.7,2.2h1.1c0-.8.6-1.2,1.5-1.2,1,0,1.5.5,1.5,1.5v.4h-1.6c-1.9,0-2.8.8-2.8,2.1.1,1.3.9,2.1,2.3,2.1Zm.2-1c-.8,0-1.3-.4-1.3-1.1,0-.8.5-1.1,1.7-1.1h1.6v.9c-.5.8-1.1,1.3-2,1.3Zm5.1.8h1.1v-4.4c.5-1,1.1-1.5,1.9-1.5s1.2.5,1.2,1.5v4.3h1.1v-4.4c0-1.6-.7-2.5-2.1-2.5-.9,0-1.7.4-2.2,1.2v-1.1h-1v6.9Zm9.6.2c1.8,0,2.7-.7,2.7-2.1,0-1.3-.7-1.8-2.5-2-1.2-.1-1.7-.4-1.7-1s.5-1,1.5-1,1.4.4,1.4,1.1h1.1c0-1.4-.9-2.1-2.5-2.1s-2.6.7-2.6,2c0,1.2.6,1.7,2.4,1.9,1.3.2,1.8.4,1.8,1.1,0,.6-.5,1-1.6,1s-1.7-.4-1.7-1.2h-1.1c0,1.5.9,2.3,2.8,2.3Zm4.3-.2h1.1v-9.5h-1.1v9.5Zm5,.2c1,0,1.7-.4,2.3-1.1v.9h1v-4.4c0-1.7-.9-2.5-2.6-2.5s-2.6.7-2.7,2.2h1.1c0-.8.6-1.2,1.5-1.2,1,0,1.5.5,1.5,1.5v.4h-1.6c-1.9,0-2.8.8-2.8,2.1.1,1.3.9,2.1,2.3,2.1Zm.2-1c-.8,0-1.3-.4-1.3-1.1,0-.8.5-1.1,1.7-1.1h1.6v.9c-.5.8-1.1,1.3-2,1.3Zm7.1.8h1v-1h-.8c-.8,0-1-.2-1-1.1v-3.7h1.7v-.9h-1.7v-1.8h-1l-.1,1.8h-1.2v.9h1.2v3.7c.1,1.5.6,2.1,1.9,2.1Zm5,.2c1.6,0,2.6-.7,2.7-2.2h-1.1c-.1.7-.6,1.2-1.6,1.2-1.2,0-1.7-.6-1.7-1.9v-.3h4.5v-1c0-1.8-1-2.8-2.8-2.8s-2.8,1-2.8,2.8v1.3c-.2,1.9.9,2.9,2.8,2.9Zm-1.8-4.2c0-1.3.5-1.9,1.7-1.9s1.7.6,1.7,1.9h-3.4Zm8.4,4.2c1,0,1.7-.4,2.3-1.2v1.1h1v-9.5h-1.1v3.7c-.5-.7-1.2-1-2.1-1-1.6,0-2.5,1-2.5,2.8v1.4c0,1.7.9,2.7,2.4,2.7Zm.2-1c-.9,0-1.5-.6-1.5-1.8v-1.4c0-1.2.5-1.8,1.5-1.8.9,0,1.5.6,2,1.5v2c-.5.9-1.2,1.5-2,1.5Zm-82.9,8.9h1.2v-1.3h-1.2v1.3Zm0,7.9h1.1v-6.7h-1.1v6.7Zm3.3,0h1.1v-4.4c.5-1,1.1-1.5,1.9-1.5s1.2.5,1.2,1.5v4.3h1.1v-4.4c0-1.6-.7-2.5-2.1-2.5-.9,0-1.7.4-2.2,1.2v-1.1h-1v6.9Zm9.5,0h1v-1h-.8c-.8,0-1-.2-1-1.1v-3.7h1.7v-.9h-1.7v-1.8h-1l-.1,1.8h-1.2v.9h1.2v3.7c0,1.5.6,2.1,1.9,2.1Zm4.9.2c1.9,0,2.9-1,2.9-3v-1.1c0-2-1-3-2.9-3s-2.9,1-2.9,3v1.1c0,1.9,1,3,2.9,3Zm0-1c-1.2,0-1.8-.6-1.8-2v-1c0-1.4.6-2,1.8-2s1.8.6,1.8,2v1c0,1.3-.6,2-1.8,2Zm8.1,3.2h1.1v-3.2c.5.7,1.2,1,2.1,1,1.6,0,2.5-1,2.5-2.8v-1.4c0-1.8-.9-2.8-2.5-2.8-1,0-1.7.4-2.3,1.2v-1.1h-1l.1,9.1h0Zm3.2-3.2c-.9,0-1.5-.6-2-1.5v-2c.4-1,1.1-1.5,2-1.5s1.5.6,1.5,1.8v1.4c-.1,1.1-.6,1.8-1.5,1.8Zm4.4.8h1.1v-3.9c.2-1.3.8-1.8,1.9-1.8h.3v-1.1h-.5c-1,0-1.6.4-1.9,1.4l-.1-1.2h-1v6.6h.2Zm7.2.2c1.9,0,2.9-1,2.9-3v-1.1c0-2-1-3-2.9-3s-2.9,1-2.9,3v1.1c0,1.9,1,3,2.9,3Zm0-1c-1.2,0-1.8-.6-1.8-2v-1c0-1.4.6-2,1.8-2s1.8.6,1.8,2v1c0,1.3-.6,2-1.8,2Zm6.7.8h1v-1h-.8c-.8,0-1-.2-1-1.1v-3.7h1.7v-.9h-1.7v-1.8h-1l-.1,1.8h-1.2v.9h1.2v3.7c.1,1.5.6,2.1,1.9,2.1Zm5,.2c1.6,0,2.6-.7,2.7-2.2h-1.1c-.1.7-.6,1.2-1.6,1.2-1.2,0-1.7-.6-1.7-1.9v-.3h4.5v-1c0-1.8-1-2.8-2.8-2.8s-2.8,1-2.8,2.8v1.3c-.1,1.9.9,2.9,2.8,2.9Zm-1.8-4.2c0-1.3.5-1.9,1.7-1.9s1.7.6,1.7,1.9h-3.4Zm6.3-3.9h1.2v-1.3h-1.2v1.3Zm0,7.9h1.1v-6.7h-1.1v6.7Zm3.3,0h1.1v-4.4c.5-1,1.1-1.5,1.9-1.5s1.2.5,1.2,1.5v4.3h1.1v-4.4c0-1.6-.7-2.5-2.1-2.5-.9,0-1.7.4-2.2,1.2v-1.1h-1v6.9Z"/><path class="cls-6" d="m431.5,549h1.2v-3.4h2.2c2.1,0,3-.8,3-2.7s-.9-2.7-3-2.7h-3.3v8.8h-.1Zm1.2-4.5v-3.3h2.1c1.4,0,1.9.5,1.9,1.7s-.5,1.6-1.9,1.6h-2.1Zm8.7,4.7c.9,0,1.7-.4,2.3-1.2v1.1h1v-6.7h-1.1v4.4c-.5,1-1.1,1.5-1.9,1.5s-1.2-.5-1.2-1.5v-4.3h-1.1v4.4c-.1,1.4.6,2.3,2,2.3Zm5.5-.2h1.1v-3.9c.2-1.3.8-1.8,1.9-1.8h.3v-1.1h-.5c-1,0-1.6.4-1.9,1.4l-.1-1.2h-1v6.6h.2Zm7.2.2c1.6,0,2.6-.7,2.7-2.2h-1.1c-.1.7-.6,1.2-1.6,1.2-1.2,0-1.7-.6-1.7-1.9v-.3h4.5v-1c0-1.8-1-2.8-2.8-2.8s-2.8,1-2.8,2.8v1.3c-.1,1.9.9,2.9,2.8,2.9Zm-1.8-4.2c0-1.3.5-1.9,1.7-1.9s1.7.6,1.7,1.9h-3.4Zm9.8,6.4h1.1v-3.2c.5.7,1.2,1,2.1,1,1.6,0,2.5-1,2.5-2.8v-1.4c0-1.8-.9-2.8-2.5-2.8-1,0-1.7.4-2.3,1.2v-1.1h-1l.1,9.1h0Zm3.1-3.2c-.9,0-1.5-.6-2-1.5v-2c.4-1,1.1-1.5,2-1.5s1.5.6,1.5,1.8v1.4c0,1.1-.6,1.8-1.5,1.8Zm4.4.8h1.1v-3.9c.2-1.3.8-1.8,1.9-1.8h.3v-1.1h-.5c-1,0-1.6.4-1.9,1.4l-.1-1.2h-1v6.6h.2Zm7.2.2c1.9,0,2.9-1,2.9-3v-1.1c0-1.9-1-3-2.9-3s-2.9,1-2.9,3v1.1c0,1.9,1,3,2.9,3Zm0-1c-1.2,0-1.8-.7-1.8-2v-1c0-1.4.6-2,1.8-2s1.8.6,1.8,2v1c0,1.3-.6,2-1.8,2Zm6.7.8h1v-1h-.8c-.8,0-1-.2-1-1.1v-3.7h1.7v-.9h-1.7v-1.8h-1l-.1,1.8h-1.2v.9h1.2v3.7c.1,1.5.7,2.1,1.9,2.1Zm5,.2c1.6,0,2.6-.7,2.7-2.2h-1.1c-.1.7-.6,1.2-1.6,1.2-1.2,0-1.7-.6-1.7-1.9v-.3h4.5v-1c0-1.8-1-2.8-2.8-2.8s-2.8,1-2.8,2.8v1.3c-.1,1.9.9,2.9,2.8,2.9Zm-1.8-4.2c0-1.3.5-1.9,1.7-1.9s1.7.6,1.7,1.9h-3.4Zm6.3-3.9h1.2v-1.3h-1.2v1.3Zm0,7.9h1.1v-6.7h-1.1v6.7Zm3.3,0h1.1v-4.4c.5-1,1.1-1.5,1.9-1.5s1.2.5,1.2,1.5v4.3h1.1v-4.4c0-1.6-.7-2.5-2.1-2.5-.9,0-1.7.4-2.2,1.2v-1.1h-1v6.9Z"/><path class="cls-6" d="m230.7,551.2c2.3,0,3.4-1.2,3.4-3.5v-2.1c0-2.3-1.1-3.5-3.4-3.5s-3.4,1.2-3.4,3.5v2.1c-.1,2.3,1.1,3.5,3.4,3.5Zm0-1.1c-1.6,0-2.3-.8-2.3-2.5v-2.1c0-1.7.7-2.5,2.3-2.5s2.3.8,2.3,2.5v2.1c-.1,1.7-.8,2.5-2.3,2.5Zm7.4.9h1v-1h-.8c-.8,0-1-.2-1-1.1v-3.7h1.7v-.9h-1.7v-1.8h-1l-.1,1.8h-1.2v.9h1.2v3.7c.1,1.5.6,2.1,1.9,2.1Zm2.4,0h1.1v-4.4c.5-1,1.1-1.5,1.9-1.5s1.2.5,1.2,1.5v4.3h1.1v-4.4c0-1.6-.7-2.5-2.1-2.5-.9,0-1.5.3-2.1,1v-3.7h-1.1v9.7h0Zm10,.2c1.6,0,2.6-.7,2.7-2.2h-1.1c-.1.7-.6,1.2-1.6,1.2-1.2,0-1.7-.6-1.7-1.9v-.3h4.5v-1c0-1.8-1-2.8-2.8-2.8s-2.8,1-2.8,2.8v1.3c-.2,1.9.9,2.9,2.8,2.9Zm-1.8-4.2c0-1.3.5-1.9,1.7-1.9s1.7.6,1.7,1.9h-3.4Zm6.3,4h1.1v-3.9c.2-1.3.8-1.8,1.9-1.8h.3v-1.1h-.3c-1,0-1.6.4-1.9,1.4l-.1-1.2h-1v6.6Zm10.6.2c1.7,0,2.6-.9,2.7-2.5h-1.1c-.1,1.1-.6,1.5-1.6,1.5-1.1,0-1.7-.6-1.7-1.9v-1.3c0-1.3.5-1.9,1.7-1.9.9,0,1.5.4,1.6,1.5h1.1c-.1-1.6-1-2.5-2.7-2.5-1.8,0-2.8,1-2.8,2.8v1.3c0,2,.9,3,2.8,3Zm6.9,0c1.9,0,2.9-1,2.9-3v-1.1c0-1.9-1-3-2.9-3s-2.9,1-2.9,3v1.1c0,1.9,1,3,2.9,3Zm0-1c-1.2,0-1.8-.7-1.8-2v-1c0-1.4.6-2,1.8-2s1.8.6,1.8,2v1c0,1.3-.6,2-1.8,2Zm4.7.8h1.1v-4.3c.5-1,1.1-1.5,1.8-1.5s1.1.4,1.1,1.3v4.5h1.1v-4.4c.5-1,1.1-1.4,1.8-1.4s1.1.4,1.1,1.3v4.5h1.1v-4.6c0-1.5-.7-2.3-2.1-2.3-.9,0-1.5.3-2.1,1.2-.3-.8-.9-1.2-1.8-1.2s-1.6.4-2.1,1.2v-1.1h-1v6.8Zm11.2,2.4h1.1v-3.2c.5.7,1.2,1,2.1,1,1.6,0,2.5-1,2.5-2.8v-1.4c0-1.8-.9-2.8-2.5-2.8-1,0-1.7.4-2.3,1.2v-1.1h-1l.1,9.1h0Zm3.2-3.2c-.9,0-1.5-.6-2-1.5v-2c.4-1,1.1-1.5,2-1.5s1.5.6,1.5,1.8v1.4c-.1,1.1-.6,1.8-1.5,1.8Zm7,1c1.9,0,2.9-1,2.9-3v-1.1c0-1.9-1-3-2.9-3s-2.9,1-2.9,3v1.1c0,1.9,1,3,2.9,3Zm0-1c-1.2,0-1.8-.7-1.8-2v-1c0-1.4.6-2,1.8-2s1.8.6,1.8,2v1c-.1,1.3-.6,2-1.8,2Zm4.7.8h1.1v-4.4c.5-1,1.1-1.5,1.9-1.5s1.2.5,1.2,1.5v4.3h1.1v-4.4c0-1.6-.7-2.5-2.1-2.5-.9,0-1.7.4-2.2,1.2v-1.1h-1v6.9Zm10,.2c1.6,0,2.6-.7,2.7-2.2h-1.1c-.1.7-.6,1.2-1.6,1.2-1.2,0-1.7-.6-1.7-1.9v-.3h4.5v-1c0-1.8-1-2.8-2.8-2.8s-2.8,1-2.8,2.8v1.3c-.1,1.9.9,2.9,2.8,2.9Zm-1.8-4.2c0-1.3.5-1.9,1.7-1.9s1.7.6,1.7,1.9h-3.4Zm6.3,4h1.1v-4.4c.5-1,1.1-1.5,1.9-1.5s1.2.5,1.2,1.5v4.3h1.1v-4.4c0-1.6-.7-2.5-2.1-2.5-.9,0-1.7.4-2.2,1.2v-1.1h-1v6.9Zm9.5,0h1v-1h-.8c-.8,0-1-.2-1-1.1v-3.7h1.7v-.9h-1.7v-1.8h-1l-.1,1.8h-1.2v.9h1.2v3.7c0,1.5.6,2.1,1.9,2.1Zm4.6.2c1.8,0,2.7-.7,2.7-2.1,0-1.3-.7-1.8-2.5-2-1.2-.1-1.7-.4-1.7-1s.5-1,1.5-1,1.4.4,1.4,1.1h1.1c0-1.4-.9-2.1-2.5-2.1-1.7,0-2.6.7-2.6,2,0,1.2.6,1.7,2.4,1.9,1.3.2,1.8.4,1.8,1.1,0,.6-.5,1-1.6,1s-1.7-.4-1.7-1.2h-1.1c.1,1.5,1,2.3,2.8,2.3Zm-83.2,16c1,0,1.7-.4,2.3-1.1v.9h1v-4.4c0-1.7-.9-2.5-2.6-2.5s-2.6.7-2.7,2.2h1.1c0-.8.6-1.2,1.5-1.2,1,0,1.5.5,1.5,1.5v.4h-1.6c-1.9,0-2.8.8-2.8,2.1.1,1.3.9,2.1,2.3,2.1Zm.2-1c-.8,0-1.3-.4-1.3-1.1,0-.8.5-1.1,1.7-1.1h1.6v.9c-.5.8-1.1,1.3-2,1.3Zm5.1.8h1.1v-3.9c.2-1.3.8-1.8,1.9-1.8h.3v-1.1h-.3c-1,0-1.6.4-1.9,1.4l-.1-1.2h-1v6.6Zm7.2.2c1.6,0,2.6-.7,2.7-2.2h-1.1c-.1.7-.6,1.2-1.6,1.2-1.2,0-1.7-.6-1.7-1.9v-.3h4.5v-1c0-1.8-1-2.8-2.8-2.8s-2.8,1-2.8,2.8v1.3c-.1,1.9.9,2.9,2.8,2.9Zm-1.7-4.2c0-1.3.5-1.9,1.7-1.9s1.7.6,1.7,1.9h-3.4Zm9.7,4h1.1v-3.9c.2-1.3.8-1.8,1.9-1.8h.3v-1.1h-.5c-1,0-1.6.4-1.9,1.4l-.1-1.2h-1v6.6h.2Zm7.2.2c1.6,0,2.6-.7,2.7-2.2h-1.1c-.1.7-.6,1.2-1.6,1.2-1.2,0-1.7-.6-1.7-1.9v-.3h4.5v-1c0-1.8-1-2.8-2.8-2.8s-2.8,1-2.8,2.8v1.3c-.1,1.9.9,2.9,2.8,2.9Zm-1.8-4.2c0-1.3.5-1.9,1.7-1.9s1.7.6,1.7,1.9h-3.4Zm6.4,4h1.1v-4.3c.5-1,1.1-1.5,1.8-1.5s1.1.4,1.1,1.3v4.5h1.1v-4.4c.5-1,1.1-1.4,1.8-1.4s1.1.4,1.1,1.3v4.5h1.1v-4.6c0-1.5-.7-2.3-2.1-2.3-.9,0-1.5.3-2.1,1.2-.3-.8-.9-1.2-1.8-1.2s-1.6.4-2.1,1.2v-1.1h-1v6.8Zm13.7.2c1.9,0,2.9-1,2.9-3v-1.1c0-1.9-1-3-2.9-3s-2.9,1-2.9,3v1.1c0,1.9,1,3,2.9,3Zm0-1c-1.2,0-1.8-.7-1.8-2v-1c0-1.4.6-2,1.8-2s1.8.6,1.8,2v1c0,1.3-.6,2-1.8,2Zm6.1.8h1.2l2.4-6.7h-1.2l-1.8,5.3-1.8-5.3h-1.2l2.4,6.7Zm7.3.2c1.6,0,2.6-.7,2.7-2.2h-1.1c-.1.7-.6,1.2-1.6,1.2-1.2,0-1.7-.6-1.7-1.9v-.3h4.5v-1c0-1.8-1-2.8-2.8-2.8s-2.8,1-2.8,2.8v1.3c-.2,1.9.9,2.9,2.8,2.9Zm-1.8-4.2c0-1.3.5-1.9,1.7-1.9s1.7.6,1.7,1.9h-3.4Zm8.4,4.2c1,0,1.7-.4,2.3-1.2v1.1h1v-9.5h-1.1v3.7c-.5-.7-1.2-1-2.1-1-1.6,0-2.5,1-2.5,2.8v1.4c0,1.7.9,2.7,2.4,2.7Zm.2-1c-.9,0-1.5-.6-1.5-1.8v-1.4c0-1.2.5-1.8,1.5-1.8.9,0,1.5.6,2,1.5v2c-.5.9-1.2,1.5-2,1.5Z"/><path class="cls-6" d="m68.4,416.2c2.1,0,3.1-1,3.2-3.1h-1.1c-.1,1.4-.7,2-2.1,2-1.5,0-2.1-.8-2.1-2.5v-2.1c0-1.7.6-2.5,2.1-2.5,1.4,0,2,.6,2.1,2h1.1c-.1-2.1-1.1-3.1-3.2-3.1s-3.3,1.2-3.3,3.5v2.2c0,2.4,1,3.6,3.3,3.6Zm7.6,0c1.9,0,2.9-1,2.9-3v-1.1c0-2-1-3-2.9-3s-2.9,1-2.9,3v1.1c0,1.9,1,3,2.9,3Zm0-1c-1.2,0-1.8-.6-1.8-2v-1c0-1.4.6-2,1.8-2s1.8.6,1.8,2v1c-.1,1.3-.6,2-1.8,2Zm4.7.8h1.1v-9.5h-1.1v9.5Zm5.3.2c.9,0,1.7-.4,2.3-1.2v1.1h1v-6.7h-1.1v4.4c-.5,1-1.1,1.5-1.9,1.5s-1.2-.5-1.2-1.5v-4.3h-1.1v4.4c-.1,1.4.6,2.3,2,2.3Zm5.5-.2h1.1v-4.3c.5-1,1.1-1.5,1.8-1.5s1.1.4,1.1,1.3v4.5h1.1v-4.4c.5-1,1.1-1.4,1.8-1.4s1.1.4,1.1,1.3v4.5h1.1v-4.6c0-1.5-.7-2.3-2.1-2.3-.9,0-1.5.3-2.1,1.2-.3-.8-.9-1.2-1.8-1.2s-1.6.4-2.1,1.2v-1.1h-1v6.8Zm11.2,0h1.1v-4.4c.5-1,1.1-1.5,1.9-1.5s1.2.5,1.2,1.5v4.3h1.1v-4.4c0-1.6-.7-2.5-2.1-2.5-.9,0-1.7.4-2.2,1.2v-1.1h-1v6.9Z"/><path class="cls-6" d="m137.4,41.2c2.1,0,3.1-1,3.2-3.1h-1.1c-.1,1.4-.7,2-2.1,2-1.5,0-2.1-.8-2.1-2.5v-2.1c0-1.7.6-2.5,2.1-2.5,1.4,0,2,.6,2.1,2h1.1c-.1-2.1-1.1-3.1-3.2-3.1s-3.3,1.2-3.3,3.5v2.2c0,2.4,1.1,3.6,3.3,3.6Zm7.6,0c1.9,0,2.9-1,2.9-3v-1.1c0-1.9-1-3-2.9-3s-2.9,1-2.9,3v1.1c0,1.9,1,3,2.9,3Zm0-1c-1.2,0-1.8-.6-1.8-2v-1c0-1.4.6-2,1.8-2s1.8.6,1.8,2v1c0,1.3-.6,2-1.8,2Zm4.8.8h1.1v-9.5h-1.1v9.5Zm5.8.2c1.9,0,2.9-1,2.9-3v-1.1c0-1.9-1-3-2.9-3s-2.9,1-2.9,3v1.1c0,1.9,1,3,2.9,3Zm0-1c-1.2,0-1.8-.6-1.8-2v-1c0-1.4.6-2,1.8-2s1.8.6,1.8,2v1c0,1.3-.6,2-1.8,2Zm4.7.8h1.1v-4.4c.5-1,1.1-1.5,1.9-1.5s1.2.5,1.2,1.5v4.4h1.1v-4.4c0-1.6-.7-2.5-2.1-2.5-.9,0-1.7.4-2.2,1.2v-1.1h-1v6.8Zm7.1,2.4h.7c1,0,1.5-.4,1.9-1.6l2.6-7.5h-1.2l-1.7,5-1.8-5h-1.2l2.4,6.4-.3.9c-.2.5-.4.7-.9.7h-.6v1.1s.1,0,.1,0Zm9.8-10.3h1.2v-1.3h-1.2v1.3Zm.1,7.9h1.1v-6.7h-1.1v6.7Zm5.5.2c1.8,0,2.7-.7,2.7-2.1,0-1.3-.7-1.8-2.5-2-1.2-.1-1.7-.4-1.7-1s.5-1,1.5-1,1.4.4,1.4,1.1h1.1c0-1.4-.9-2.1-2.5-2.1s-2.6.7-2.6,2c0,1.2.7,1.7,2.4,1.9,1.3.2,1.8.4,1.8,1.1,0,.6-.5,1-1.6,1s-1.7-.4-1.7-1.2h-1.1c0,1.5.9,2.3,2.8,2.3Zm10.2,2.3c1.9,0,2.9-.9,2.9-2.7v-6.6h-1l-.1,1c-.6-.8-1.3-1.2-2.2-1.2-1.6,0-2.5,1-2.5,2.8v1.2c0,1.8.9,2.8,2.5,2.8.9,0,1.6-.3,2.1-1v1.1c0,1.2-.5,1.7-1.7,1.7-.9,0-1.6-.3-1.6-1.1h-1.1c.1,1.3,1,2,2.7,2Zm-.2-3.7c-.9,0-1.5-.6-1.5-1.8v-1c0-1.2.5-1.8,1.5-1.8.8,0,1.5.5,2,1.5v1.7c-.5.8-1.2,1.4-2,1.4Zm5.2,1.2h1.1v-3.9c.2-1.3.8-1.8,1.9-1.8h.3v-1.1h-.3c-1,0-1.6.4-1.9,1.4l-.1-1.2h-1v6.6Zm7.2.2c1.9,0,2.9-1,2.9-3v-1.1c0-1.9-1-3-2.9-3s-2.9,1-2.9,3v1.1c0,1.9,1,3,2.9,3Zm0-1c-1.2,0-1.8-.6-1.8-2v-1c0-1.4.6-2,1.8-2s1.8.6,1.8,2v1c0,1.3-.6,2-1.8,2Zm5.8.8h1.2l1.6-5.1,1.6,5.1h1.2l2.1-6.7h-1.2l-1.5,5.2-1.6-5.2h-1.1l-1.6,5.2-1.5-5.2h-1.2l2,6.7Zm8.9,0h1.1v-4.4c.5-1,1.1-1.5,1.9-1.5s1.2.5,1.2,1.5v4.4h1.1v-4.4c0-1.6-.7-2.5-2.1-2.5-.9,0-1.7.4-2.2,1.2v-1.1h-1v6.8Zm-87.5,8.1h1.2v-1.3h-1.2v1.3Zm.1,7.9h1.1v-6.7h-1.1v6.7Zm3.3,0h1.1v-4.4c.5-1,1.1-1.5,1.9-1.5s1.2.5,1.2,1.5v4.4h1.1v-4.4c0-1.6-.7-2.5-2.1-2.5-.9,0-1.7.4-2.2,1.2v-1.1h-1v6.8Zm9.4,0h1v-1h-.8c-.8,0-1-.2-1-1.1v-3.7h1.7v-.9h-1.7v-1.8h-1l-.1,1.8h-1.2v.9h1.2v3.7c.1,1.5.7,2.1,1.9,2.1Zm5,.2c1.9,0,2.9-1,2.9-3v-1.1c0-1.9-1-3-2.9-3s-2.9,1-2.9,3v1.1c0,1.9,1,3,2.9,3Zm0-1c-1.2,0-1.8-.6-1.8-2v-1c0-1.4.6-2,1.8-2s1.8.6,1.8,2v1c-.1,1.3-.6,2-1.8,2Zm8.1.8h1.1v-9.5h-1.1v9.5Zm5.1.2c1,0,1.7-.4,2.3-1.1v.9h1v-4.4c0-1.7-.9-2.5-2.6-2.5s-2.6.7-2.7,2.2h1.1c0-.8.6-1.2,1.5-1.2,1,0,1.5.5,1.5,1.5v.4h-1.6c-1.9,0-2.8.8-2.8,2.1,0,1.3.9,2.1,2.3,2.1Zm.1-1c-.8,0-1.3-.4-1.3-1.1,0-.8.5-1.1,1.7-1.1h1.6v.9c-.4.8-1.1,1.3-2,1.3Zm5.2.8h1.1v-3.9c.2-1.3.8-1.8,1.9-1.8h.3v-1.1h-.5c-1,0-1.6.4-1.9,1.4l-.1-1.2h-1v6.6h.2Zm7.1,2.5c1.9,0,2.9-.9,2.9-2.7v-6.6h-1l-.1,1c-.6-.8-1.3-1.2-2.2-1.2-1.6,0-2.5,1-2.5,2.8v1.2c0,1.8.9,2.8,2.5,2.8.9,0,1.6-.3,2.1-1v1.1c0,1.2-.5,1.7-1.7,1.7-.9,0-1.6-.3-1.6-1.1h-1.1c.1,1.3,1,2,2.7,2Zm-.2-3.7c-.9,0-1.5-.6-1.5-1.8v-1c0-1.2.5-1.8,1.5-1.8.8,0,1.5.5,2,1.5v1.7c-.5.8-1.2,1.4-2,1.4Zm7.8,1.4c1.6,0,2.6-.7,2.7-2.2h-1.1c-.1.7-.6,1.2-1.6,1.2-1.2,0-1.7-.6-1.7-1.9v-.3h4.5v-1c0-1.8-1-2.8-2.8-2.8s-2.8,1-2.8,2.8v1.3c-.1,1.9.9,2.9,2.8,2.9Zm-1.7-4.2c0-1.3.5-1.9,1.7-1.9s1.7.6,1.7,1.9h-3.4Zm12.2,4.2c1.7,0,2.6-.9,2.7-2.5h-1.1c-.1,1.1-.6,1.5-1.6,1.5-1.1,0-1.7-.6-1.7-1.9v-1.3c0-1.3.5-1.9,1.7-1.9.9,0,1.5.4,1.6,1.5h1.1c-.1-1.6-1-2.5-2.7-2.5-1.8,0-2.8,1-2.8,2.8v1.3c0,2,.9,3,2.8,3Zm6.3,0c.9,0,1.7-.4,2.3-1.2v1.1h1v-6.7h-1.1v4.4c-.5,1-1.1,1.5-1.9,1.5s-1.2-.5-1.2-1.5v-4.3h-1.3v4.4c0,1.4.7,2.3,2.2,2.3Zm5.4-.2h1.1v-9.5h-1.1v9.5Zm5.4,0h1v-1h-.8c-.8,0-1-.2-1-1.1v-3.7h1.7v-.9h-1.7v-1.8h-1l-.1,1.8h-1.1v.9h1.2v3.7c-.1,1.5.5,2.1,1.8,2.1Zm4.5.2c.9,0,1.7-.4,2.3-1.2v1.1h1v-6.7h-1.1v4.4c-.5,1-1.1,1.5-1.9,1.5s-1.2-.5-1.2-1.5v-4.3h-1.1v4.4c-.2,1.4.6,2.3,2,2.3Zm5.4-.2h1.1v-3.9c.2-1.3.8-1.8,1.9-1.8h.3v-1.1h-.5c-1,0-1.6.4-1.9,1.4l-.1-1.2h-1v6.6h.2Zm7.2.2c1.6,0,2.6-.7,2.7-2.2h-1.1c-.1.7-.6,1.2-1.6,1.2-1.2,0-1.7-.6-1.7-1.9v-.3h4.5v-1c0-1.8-1-2.8-2.8-2.8s-2.8,1-2.8,2.8v1.3c-.1,1.9.9,2.9,2.8,2.9Zm-1.7-4.2c0-1.3.5-1.9,1.7-1.9s1.7.6,1.7,1.9h-3.4Z"/><path class="cls-6" d="m275.6,122.3h1v-2.8h2.7v-1h-2.7v-2.8h-1v2.8h-2.7v1h2.7v2.8Zm4.5.7h1.2l.8-2.3h3.6l.8,2.3h1.2l-3.2-8.8h-1.2l-3.2,8.8Zm2.4-3.3l1.4-4,1.4,4h-2.8Zm6.6,3.3h1.1v-4.3c.5-1,1.1-1.5,1.8-1.5s1.1.4,1.1,1.3v4.5h1.1v-4.4c.5-1,1.1-1.4,1.8-1.4s1.1.4,1.1,1.3v4.5h1.1v-4.6c0-1.5-.7-2.3-2.1-2.3-.9,0-1.5.3-2.1,1.2-.3-.8-.9-1.2-1.8-1.2s-1.6.4-2.1,1.2v-1.1h-1v6.8Zm11.2,2.4h1.1v-3.2c.5.7,1.2,1,2.1,1,1.6,0,2.5-1,2.5-2.8v-1.4c0-1.8-.9-2.8-2.5-2.8-1,0-1.7.4-2.3,1.2v-1.1h-1l.1,9.1h0Zm3.1-3.2c-.9,0-1.5-.6-2-1.5v-2c.4-1,1.1-1.5,2-1.5s1.5.6,1.5,1.8v1.4c0,1.1-.5,1.8-1.5,1.8Z"/><path class="cls-43" d="m234.3,224c0-9.6,6.1-18.6,16.3-25.1,10.2-6.5,24.4-10.6,40.1-10.6s29.9,4.1,40.1,10.6c10.2,6.6,16.3,15.5,16.3,25.1s-6.1,18.6-16.3,25.1c-10.2,6.5-24.4,10.6-40.1,10.6s-29.9-4.1-40.1-10.6-16.3-15.5-16.3-25.1Z"/><path class="cls-42" d="m295.5,248.4c.8-.1,1.5-.6,1.9-1h0c.7-.7,1.8-1.4,3.3-1.7,1.5-.2,3.2.1,4.8,1.7,1,1,1.9,1.1,2.6,1,.8-.1,1.5-.6,1.9-1,.5-.5,1.3-.5,1.8,0s.5,1.3,0,1.8c-.7.7-1.8,1.4-3.3,1.7-1.5.2-3.2-.1-4.8-1.7-1-1-1.9-1.1-2.6-1-.8.1-1.5.6-1.9,1h0m0,0c-.7.7-1.8,1.4-3.3,1.7-1.5.2-3.2-.1-4.8-1.7-.5-.5-.5-1.3,0-1.8s1.3-.5,1.8,0c1,1,1.9,1.1,2.6,1"/><path class="cls-42" d="m295.5,243.4c.8-.1,1.5-.6,1.9-1h0c.7-.7,1.8-1.4,3.3-1.7,1.5-.2,3.2.1,4.8,1.7,1,1,1.9,1.1,2.6,1,.8-.1,1.5-.6,1.9-1,.5-.5,1.3-.5,1.8,0s.5,1.3,0,1.8c-.7.7-1.8,1.4-3.3,1.7-1.5.2-3.2-.1-4.8-1.7-1-1-1.9-1.1-2.6-1-.8.1-1.5.6-1.9,1h0m0,0c-.7.7-1.8,1.4-3.3,1.7-1.5.2-3.2-.1-4.8-1.7-.5-.5-.5-1.3,0-1.8s1.3-.5,1.8,0c1,1,1.9,1.1,2.6,1"/><path class="cls-42" d="m295.5,238.4c.8-.1,1.5-.6,1.9-1h0c.7-.7,1.8-1.4,3.3-1.7,1.5-.2,3.2.1,4.8,1.7,1,1,1.9,1.1,2.6,1,.8-.1,1.5-.6,1.9-1,.5-.5,1.3-.5,1.8,0s.5,1.3,0,1.8c-.7.7-1.8,1.4-3.3,1.7-1.5.2-3.2-.1-4.8-1.7-1-1-1.9-1.1-2.6-1-.8.1-1.5.6-1.9,1h0m0,0c-.7.7-1.8,1.4-3.3,1.7-1.5.2-3.2-.1-4.8-1.7-.5-.5-.5-1.3,0-1.8s1.3-.5,1.8,0c1,1,1.9,1.1,2.6,1"/><path class="cls-34" d="m271.8,243c.4-2.5,1.7-6,4.2-10.6,1.7-3,2.1-5.7,1.8-7.7-.2-.9-.5-2-1.4-2.6-.4-.3-1-.6-1.6-.6s-1.1.2-1.5.5c-1.7,1.2-2.8,2-3.6,2.8-.8.8-1.3,1.5-1.4,2.3-.1.6-.1,1.3,0,1.7v.2c0,.5,0,1-.1,1.8-.6,2.7-2.1,4.3-3.3,5.7l-.1.1c-.6.7-1.3,1.4-1.7,2.3-.4,1-.5,2.1.1,3.3.7,1.4.7,2,.6,2.2h0s0,.2-.6.3-1.5,0-2.7-.4c-1.1-.3-2.4-.9-3.6-1.5-1.2-.6-2.4-1.4-3.3-2.1-1-.8-1.6-1.5-1.9-2.1-.3-.6-.2-.8-.1-.9.1-.2.7-.7,2.2-1,.7-.2,1.1,0,1.4.3.2.2.4.4.6.7.1.1.1.2.2.3.2.2.4.5.6.7.3.3.7.7,1.3,1,.6.3,1.3.4,2,.1.6-.2,1.2-.6,1.7-1.1.6-.5,1.2-1.3,1.8-2.2,2.9-4.1,3.3-6.7,2.4-8.9-.3-.7-.7-1.4-1-1.8-.1-.1-.1-.2-.2-.3-.1-.2-.2-.3-.2-.4q.1,0,.2-.1t.2-.1c.3-.1.6-.2,1-.4,1.5-.7,3.5-1.9,5.7-5,.6-.8,1.2-1.1,1.6-1.3.5-.1,1-.1,1.7.2,1.2.4,2.4,1.3,3.6,2.2.2.2.5.3.7.5,4.3,3.1,8.4,3,10.7,1.1,1.1-1,1.7-2.4,1.3-3.9-.4-1.5-1.6-2.8-3.4-3.5-1.5-.6-2.7-1.1-3.9-1.5-3.6-1.4-6.2-2.3-10.6-5.1-5-3.1-8.3-4.2-10.6-4.3-1.1,0-2.1.2-2.8.8-.7.6-1,1.4-1,2.2s.6,1.4.9,1.7c.4.3.8.6,1.2.9.4.2.8.5,1.2.7.1,0,.1.1.2.1.5.3,1,.6,1.5.9,1,.6,1.8,1.2,2.2,1.8.4.6.5,1,.4,1.6-.1.5-.8,1.2-2,2s-2.8,1.5-4.4,2.1l-.6.3c-1.4.6-2.7,1.2-3.8,1.8-.6.3-1.2.7-1.7,1.2-.4.5-.9,1.2-.8,2.1.2,1.3,1.1,2.2,1.8,2.6.4.2.8.4,1.1.6.1.1.2.1.3.2l.6.3c.3.2.4.3.5.3,0,.1-.2.4-.5.8-.3.3-.9.6-2,.5s-2.3-.6-3.3-1.3-1.6-1.6-1.7-2.7c-.1-1,.2-2.4,1.7-4.2,3.1-3.7,6-4.9,7.8-5.4.3-.1.6-.2.9-.3.1,0,.2-.1.3-.1.3-.1.8-.2,1.1-.4.2-.1.5-.3.7-.7s.2-.9.1-1.3c-.1-.3-.3-.6-.4-.8s-.3-.4-.5-.5c-2.1-2-5.4-3.3-8.9-3s-7.1,2.3-9.8,6.5c-2.2,3.5-2.5,7.2-1.9,10.5.6,3.2,1.9,5.9,3.1,7.5.5.7,1.4.9,2,.4.7-.4.8-1.3.3-2-.9-1.3-2.1-3.6-2.6-6.3s-.2-5.7,1.5-8.5c2.3-3.6,5.2-5,7.7-5.3,2.1-.2,4,.4,5.5,1.3q-.1,0-.2.1c-2.2.7-5.6,2.1-9.1,6.3-1.8,2.2-2.6,4.3-2.3,6.4.3,2,1.5,3.6,2.9,4.7,1.4,1.1,3.2,1.8,4.8,1.9,1.6.1,3.4-.2,4.5-1.5.8-1,1.4-2.2,1-3.5-.4-1.2-1.5-1.8-2.1-2.1-.2-.1-.5-.3-.8-.4-.1,0-.2-.1-.3-.1-.3-.2-.6-.3-.8-.4-.2-.1-.3-.3-.4-.3h0c.2-.2.5-.4,1-.7.9-.5,2.1-1,3.5-1.6l.6-.3c1.6-.7,3.3-1.5,4.8-2.3,1.4-.9,2.8-2,3.2-3.6.4-1.6-.1-3-.9-4.1s-2-1.9-3-2.6c-.5-.3-1.1-.6-1.6-.9-.1,0-.1-.1-.2-.1-.4-.2-.8-.4-1.1-.6-.1-.1-.2-.1-.3-.2.1,0,.3-.1.6-.1,1.4,0,4.2.9,9,3.9,4.7,2.9,7.6,4,11.3,5.4,1.1.4,2.3.9,3.7,1.4,1.2.5,1.5,1.1,1.6,1.4.1.3,0,.8-.5,1.2-.9.8-3.4,1.4-7-1.2-.2-.1-.4-.3-.6-.4-1.2-.9-2.8-2.1-4.6-2.7-1-.4-2.2-.6-3.4-.2-1.2.3-2.3,1.1-3.2,2.3-2,2.7-3.6,3.7-4.6,4.1-.3.1-.5.2-.8.3,0,0-.1,0-.2.1-.2.1-.4.1-.6.2-.5.2-1.3.6-1.5,1.6-.3,1.2.2,2.2.6,2.8.2.2.3.4.4.6.2.3.4.6.6,1,.3.8.6,2.4-2.1,6.2-.6.9-1.1,1.5-1.5,1.8-.3.3-.5.4-.6.5,0,0-.1-.1-.2-.2-.1-.1-.2-.3-.4-.5-.1-.1-.2-.2-.3-.4-.3-.3-.6-.8-1.1-1.1-1-.8-2.3-1.3-4-.9-1.8.4-3.2,1.1-3.9,2.2-.8,1.3-.5,2.6.1,3.8.6,1.1,1.6,2.1,2.7,3,1.1.9,2.5,1.8,3.8,2.5,1.4.7,2.8,1.3,4.2,1.7,1.3.4,2.7.6,3.9.5,1.2-.1,2.5-.7,2.9-2.1.4-1.3,0-2.8-.8-4.4-.2-.3-.2-.5,0-.8.2-.4.6-.9,1.2-1.6l.1-.1c1.3-1.4,3.1-3.4,3.9-6.8.3-1.2.3-2,.2-2.7v-1.1c0-.1.1-.4.7-1,.5-.5,1.4-1.2,2.9-2.3,0,.1.1.2.1.4.2,1.2-.1,3.3-1.5,5.8-2.6,4.7-4,8.5-4.5,11.4-.3,1.5-.3,2.7-.2,3.8.1,1.1.5,2,1,2.8.6.8,1.5,1.2,2.5,1.2.9,0,1.7-.5,2.4-1.1,1.3-1.2,2.2-3.4,2.5-6.3.3-2.6.9-4.3,1.5-5.7.6-1.2,1.3-2.1,2-3,.1-.1.1-.2.2-.2.7-.9,1.5-2,1.8-3.4s.2-3.1-.4-5.1c-.2-.8-1.1-1.2-1.8-1-.8.2-1.2,1-.9,1.8.6,1.8.6,2.8.4,3.6s-.6,1.5-1.3,2.4c-.1.1-.1.2-.2.2-.7.9-1.5,2-2.2,3.5-.8,1.6-1.5,3.7-1.8,6.6-.3,2.5-1.1,4-1.7,4.7-.2.2-.4.3-.5.3h0c-.1-.1-.3-.5-.4-1.2.4-1.1.4-2.1.6-3.3Zm-10.1-36.5h0c.1,0,0,0,0,0Z"/><path class="cls-36" d="m272.5,246.9c-.2.1-.3.2-.4.2h-.1c-.1-.1-.1-.2-.2-.4-.1-.1-.1-.3-.1-.5h0c0-.1,0-.2-.1-.4-.1-.7-.1-1.7.2-3,.4-2.5,1.7-6,4.2-10.6,1.7-3,2.1-5.7,1.8-7.7-.2-.9-.5-2-1.4-2.6-.4-.3-1-.6-1.6-.6s-1.1.2-1.5.5c-1.7,1.2-2.8,2-3.6,2.8-.8.8-1.3,1.5-1.4,2.3-.1.6-.1,1.3,0,1.7v.2c0,.5,0,1-.2,1.8-.6,2.7-2.1,4.3-3.3,5.7l-.1.1c-.6.7-1.3,1.4-1.7,2.3-.4,1-.5,2.1.1,3.3.7,1.4.7,2,.6,2.2h0s0,.2-.6.3-1.5,0-2.7-.4c-1.1-.3-2.4-.9-3.6-1.5-1.2-.6-2.4-1.4-3.3-2.1-1-.8-1.6-1.5-1.9-2.1-.3-.6-.2-.8-.1-.9.1-.2.7-.7,2.2-1,.7-.2,1.1,0,1.4.3.2.2.4.4.6.7.1.1.1.2.2.3.2.2.4.5.6.7.3.3.7.7,1.3,1,.6.3,1.3.4,2,.1.6-.2,1.2-.6,1.7-1.1.6-.5,1.2-1.3,1.8-2.2,2.9-4.1,3.3-6.7,2.4-8.9-.2-.6-.6-1.2-.9-1.6,0-.1-.1-.1-.1-.2-.1-.1-.1-.2-.2-.3-.1-.2-.2-.3-.2-.3h0q.1,0,.2-.1t.2-.1c.3-.1.6-.2,1-.4,1.5-.7,3.5-1.9,5.7-5,.6-.8,1.2-1.1,1.6-1.3.5-.1,1-.1,1.7.2,1.2.4,2.4,1.3,3.6,2.2.2.2.5.3.7.5,4.3,3.1,8.4,3,10.7,1.1,1.1-1,1.7-2.4,1.3-3.9-.4-1.5-1.6-2.8-3.4-3.5-1.5-.6-2.7-1.1-3.9-1.5-3.6-1.4-6.2-2.3-10.6-5.1-5-3.1-8.3-4.2-10.6-4.3-1.1,0-2.1.2-2.8.8-.7.6-1,1.4-1,2.2s.6,1.4.9,1.7c.4.3.8.6,1.2.9.4.2.8.5,1.2.7l.2.1c.5.3,1,.6,1.5.9,1,.6,1.8,1.2,2.2,1.8.4.5.5,1,.4,1.6-.1.5-.8,1.2-2,2s-2.8,1.5-4.4,2.1l-.6.3c-1.4.6-2.7,1.2-3.8,1.8-.6.3-1.2.7-1.7,1.2-.4.5-.9,1.2-.8,2.1.2,1.3,1.1,2.2,1.8,2.6.4.2.8.4,1.1.6.1.1.2.1.3.2l.6.3c.3.2.4.3.5.3,0,.1-.2.4-.5.8-.3.3-.9.6-2,.5s-2.3-.6-3.3-1.3-1.6-1.6-1.7-2.7c-.1-1,.2-2.4,1.7-4.2,3.1-3.7,6-4.9,7.8-5.4.3-.1.6-.2.9-.3.1,0,.2-.1.3-.1.3-.1.8-.2,1.1-.4.2-.1.5-.3.7-.7s.2-.9.1-1.3c-.1-.3-.3-.6-.4-.8s-.3-.4-.5-.5c-2.1-2-5.4-3.3-8.9-3s-7.1,2.3-9.8,6.5c-2.2,3.5-2.5,7.2-1.9,10.5.6,3.2,1.9,5.9,3.1,7.5.5.7,1.4.9,2,.4.7-.4.8-1.3.3-2-.9-1.3-2.1-3.6-2.6-6.3s-.2-5.7,1.5-8.5c2.3-3.6,5.2-5,7.7-5.3,1.5-.1,3,.1,4.3.7.3.1.6.3.9.5.1.1.2.1.3.2q-.1,0-.2.1c-.3.1-.7.2-1,.3-2.1.8-5,2.4-8,5.9-1.8,2.2-2.6,4.3-2.3,6.4.3,2,1.5,3.6,2.9,4.7,1.4,1.1,3.2,1.7,4.8,1.9,1.6.1,3.4-.2,4.5-1.5.8-1,1.4-2.2,1-3.5-.4-1.2-1.5-1.8-2.1-2.1-.2-.1-.5-.3-.8-.4-.1,0-.2-.1-.3-.1-.1-.1-.2-.1-.4-.2s-.3-.2-.4-.3h-.2c-.1-.1-.2-.2-.3-.2h0q.1-.1.3-.2c.1-.1.3-.2.5-.3h0c.1-.1.2-.1.3-.2.9-.5,2.1-1,3.5-1.6l.6-.3c1.6-.7,3.3-1.5,4.8-2.3.6-.4,1.3-.9,1.8-1.4.2-.2.3-.3.5-.5s.4-.5.5-.7c.2-.3.3-.7.4-1,.4-1.6-.1-3-.9-4.1s-2-1.9-3-2.6c-.4-.3-.9-.5-1.3-.8-.1-.1-.2-.1-.3-.2l-.2-.1c-.3-.2-.5-.3-.8-.4-.1-.1-.2-.1-.3-.2h0c-.1-.1-.2-.1-.3-.2.1,0,.3,0,.5-.1h.2c.3,0,.7.1,1.2.2.1,0,.2,0,.3.1h.2c1.6.4,4,1.5,7.4,3.6,4.7,2.9,7.6,4,11.3,5.4,1.1.4,2.3.9,3.7,1.4,1.2.5,1.5,1.1,1.6,1.4.1.3,0,.8-.5,1.2-.9.8-3.4,1.4-7-1.2-.2-.1-.4-.3-.6-.4-1.2-.9-2.8-2.1-4.6-2.7-1-.4-2.2-.6-3.4-.2-1,.2-1.9.8-2.6,1.6-.2.2-.4.4-.6.7-.2.2-.3.4-.5.6-1.8,2.3-3.2,3.1-4.2,3.5-.3.1-.5.2-.8.3,0,0-.1,0-.2.1-.2.1-.4.1-.6.2-.5.2-1.3.6-1.5,1.6-.3,1.2.2,2.2.6,2.8.2.2.3.4.4.6.2.3.4.6.6,1,.3.8.6,2.4-2.1,6.2-.6.9-1.1,1.5-1.5,1.8-.3.3-.5.4-.6.5,0,0-.1-.1-.2-.2-.1-.1-.2-.3-.4-.5-.1-.1-.2-.2-.3-.4-.3-.3-.6-.8-1.1-1.1-1-.8-2.3-1.3-4-.9-1.8.4-3.2,1.1-3.9,2.2-.8,1.3-.5,2.6.1,3.8.6,1.1,1.6,2.1,2.7,3,1.1.9,2.5,1.8,3.8,2.5,1.4.7,2.8,1.3,4.2,1.7,1.3.4,2.7.6,3.9.5,1.2-.1,2.5-.7,2.9-2.1.4-1.3,0-2.8-.8-4.4-.2-.3-.2-.5,0-.8.2-.4.6-.9,1.2-1.6l.1-.1c1.3-1.4,3.1-3.4,3.9-6.8.3-1.2.3-2,.2-2.7v-1.1c0-.1.1-.4.7-1,.4-.4,1.1-1,2.1-1.7.1-.1.2-.1.2-.2.2-.1.4-.3.6-.4,0,.1.1.2.1.4s.1.5.1.8c0,1.2-.4,3-1.6,5.1-2.6,4.7-4,8.5-4.5,11.4-.3,1.5-.3,2.7-.2,3.8.1,1.1.5,2,1,2.8.6.8,1.5,1.2,2.5,1.2.9,0,1.7-.5,2.4-1.1,1.3-1.2,2.2-3.4,2.5-6.3.3-2.6.9-4.4,1.5-5.7.6-1.2,1.3-2.1,2-3,.1-.1.1-.2.2-.2.7-.9,1.5-2,1.8-3.4s.2-3.1-.4-5.1c-.2-.8-1.1-1.2-1.8-1-.8.2-1.2,1-.9,1.8.6,1.8.6,2.8.4,3.6s-.6,1.5-1.3,2.4c-.1.1-.1.2-.2.2-.7.9-1.5,2-2.2,3.5-.8,1.6-1.5,3.7-1.8,6.6-.2,2.2-.9,3.7-1.4,4.5h0c.3-.2.2-.1,0,0,.1,0,0,0,0,0Zm.1-1.9c0-.5.1-1.1.2-1.8.2-.9.4-1.9.8-3.1-.1.6-.2,1.2-.3,1.9-.1,1.3-.4,2.3-.7,3Zm5.2-13.9c.6-1.3.9-2.5,1.1-3.7.2.9.1,1.4,0,1.8-.2.6-.5,1.1-1.1,1.9Zm-3.8-4.5c-.1,1-.5,2.3-1.4,3.8-.1.2-.3.5-.4.7.1-.8.1-1.5.1-2.1v-.8h0c0-.1.2-.2.4-.5.3-.3.7-.7,1.3-1.1Zm-1.8,1.6h0Zm-3,9.5c-.4.5-.8,1-1.2,1.4l-.1.1c-.7.8-1,1.1-1.1,1.4h0c.5,1,.9,2,1,3,0-.5.1-1,.2-1.5.2-1.3.6-2.7,1.2-4.4Zm-1.4,7.7c0,.3,0,.5.1.8.1,1.2.5,2.3,1.3,3.3s2,1.7,3.4,1.6c1.2-.1,2.3-.7,3-1.4,1.5-1.4,2.4-3.9,2.8-6.9.3-2.5.8-4.2,1.4-5.4s1.2-2,1.9-2.9c.1-.1.1-.2.2-.2.7-.9,1.6-2.1,2-3.7.4-1.6.2-3.5-.5-5.7-.1-.3-.3-.7-.5-.9,3.2,1.1,6.1.7,8-1,1.3-1.1,2.1-2.9,1.6-4.8-.5-2-2.1-3.4-4.1-4.2-1.5-.6-2.7-1.1-3.9-1.5h0c-3.6-1.3-6.1-2.3-10.5-5-5-3.1-8.6-4.4-11.1-4.5-1.3,0-2.5.3-3.5,1.1-.9.8-1.3,1.9-1.3,2.9,0,.8.3,1.4.7,1.8-1.8-.7-3.8-1-5.8-.8-3.8.4-7.6,2.5-10.5,6.9-2.4,3.7-2.7,7.7-2.1,11.1.6,3.4,2,6.2,3.2,8,.8,1.1,2.3,1.4,3.4.7,1.1-.7,1.3-2.2.5-3.3s-1.9-3.3-2.4-5.9c-.4-2.5-.2-5.3,1.4-7.8,2.2-3.4,4.8-4.6,7-4.8,1-.1,1.9,0,2.8.2-2.1.9-4.8,2.6-7.5,5.8-1.9,2.3-2.8,4.7-2.5,7.1.3,2.4,1.7,4.2,3.3,5.4.9.7,2,1.3,3.1,1.6h-.1c-1.8.4-3.5,1.2-4.4,2.6-1,1.6-.7,3.4.1,4.7.7,1.3,1.8,2.4,3,3.3,1.2,1,2.6,1.9,4,2.6,1.4.7,2.9,1.4,4.4,1.8,1.4.4,2.9.7,4.3.5s3.1-.9,3.7-2.8c0,0,0-.2.1-.3Zm-11.2-12c1.4-.1,2.8-.6,3.7-1.9.8-1,1.5-2.3,1.3-3.8.1.1.1.2.2.2h0c.2.4.4.5.5.8.1.2.2.6,0,1.4-.2.8-.7,2.1-2.1,3.9-.5.7-.9,1.2-1.2,1.5-.1-.1-.1-.2-.2-.2-.3-.4-.7-.8-1.2-1.3-.3-.2-.7-.4-1-.6Zm4.1-7.6c-.6-.7-1.3-1.1-1.7-1.3-.3-.1-.6-.3-.8-.4h-.1c.8-.4,1.8-.9,3.1-1.4-.2.3-.4.6-.5,1.1-.2.7-.2,1.4,0,2Zm19.9-2.7c-.6-.3-1.2-.7-1.9-1.2-.2-.2-.5-.3-.7-.5h0c-1.3-.9-2.3-1.7-3.4-2.1-.5-.2-.9-.2-1.1-.1-.2.1-.6.2-1.1.9-2.3,3.2-4.4,4.6-6.1,5.3-.1.1-.3.1-.4.2.3.4.6,1,.9,1.6.6,1.4.7,3,.1,4.8.2-.4.3-.8.4-1.3.2-.7.2-1.1.1-1.6v-.2h0c0-.4-.1-1.2.1-2,.2-1.1.8-1.9,1.7-2.8.8-.8,2-1.7,3.7-2.9.5-.4,1.2-.6,2-.6s1.6.3,2.2.8c1,.7,1.4,1.8,1.6,2.8.3-.5.8-.8,1.3-1,.3-.1.5-.1.6-.1Zm-18.6,16.5c-.2.9-.1,2,.5,3,.3.5.4.9.5,1.2-.5,0-1.1-.1-2.1-.4-1.1-.3-2.3-.8-3.4-1.4s-2.3-1.3-3.1-2c-.9-.7-1.4-1.4-1.7-1.8h0c.2-.1.6-.3,1.5-.5.2-.1.3,0,.4,0h0l.1.1.5.5c.1.1.1.2.2.3h0c.2.2.4.5.6.7.3.4.8.9,1.6,1.3.9.4,1.8.5,2.8.2.5-.4,1.1-.8,1.6-1.2Zm1,4.6h0Zm5.2-34.5c.9.5,2,1.1,3.2,1.8,4.8,3,7.8,4.1,11.5,5.5,1.1.4,2.3.9,3.7,1.4.7.3.9.6,1,.6h0s-.1.1-.2.3c-.5.4-2.4,1.2-5.8-1.2-.2-.1-.4-.3-.6-.4h0c-1.2-.9-2.9-2.2-4.8-2.8-1.2-.4-2.6-.6-4-.3-.6.1-1.1.4-1.6.7.3-1.7-.3-3.3-1.2-4.5-.5-.4-.8-.8-1.2-1.1Zm-5,2.1c.1.1.2.1.3.2,1,.6,1.6,1.1,2,1.6.2.2.2.3.2.4v.3c-.1.2-.4.7-1.6,1.5-1.1.7-2.6,1.4-4.2,2.1l-.6.3h0c-1.3.6-2.8,1.2-3.8,1.8-.6.4-1.3.8-1.9,1.4-.5.6-1.2,1.5-1,2.9.2,1.8,1.4,2.8,2.3,3.4.4.3.9.5,1.2.7.1.1.2.1.3.2h.1c-.2.1-.5.2-1.1.1-.9-.1-1.9-.5-2.7-1.1s-1.2-1.3-1.3-2,.1-1.9,1.5-3.5c3-3.5,5.7-4.6,7.4-5.1.3-.1.6-.2.9-.3.1,0,.2-.1.3-.1h0c.3-.1.9-.2,1.3-.5.3-.2.7-.5,1-1.1.3-.7.3-1.4.1-2-.3-.6-.6-.9-.7-1.2Zm-1.5-5.3s.1,0,0,0h0Z"/><path class="cls-39" d="m281.2,229.3c-.2.8-.7,1.7-1.6,2.9-.2.2-.1.5.1.7s.5.1.7-.1c.9-1.2,1.4-2.2,1.7-3.2.3-1,.3-1.9.1-3,0-.3-.3-.5-.6-.4-.3,0-.5.3-.4.5.2,1,.2,1.8,0,2.6Z"/><path class="cls-39" d="m274.8,242.4c0,1.4-.3,3.6-2,5.3-.2.2-.2.5,0,.7s.5.2.7,0c2.1-1.9,2.4-4.5,2.3-6,0-.3-.2-.5-.5-.5-.3.1-.6.3-.5.5Z"/><path class="cls-39" d="m271,240.9c.3.1.5-.1.6-.4.4-2.9,1.6-5,3.9-8.8.1-.2,0-.5-.2-.7-.2-.1-.6-.1-.7.2-2.3,3.8-3.5,6-4,9.1-.1.3.1.5.4.6Z"/><path class="cls-39" d="m270.5,231.3c.3,0,.5-.3.4-.5-.1-.5-.1-1.3-.1-2,0-.4,0-.7.1-1,0-.3.1-.5.1-.5.2-.3.6-.7,1.1-1.1.5-.4,1.1-.8,1.4-1,.2-.1.3-.5.1-.7-.2-.2-.5-.3-.7-.1-.4.2-.9.7-1.5,1.1-.5.4-1.1.9-1.3,1.3-.2.2-.2.6-.3.9,0,.3-.1.7-.1,1.1,0,.8.1,1.6.1,2.2.1.1.4.3.7.3Z"/><path class="cls-39" d="m264,245.9c-.5.3-1.1.2-1.5.1-.3-.1-.5.1-.6.3-.1.3.1.5.4.6.6.2,1.5.2,2.2-.2.8-.5,1.3-1.4,1.3-2.9,0-.3-.2-.5-.5-.5s-.5.2-.5.5c.1,1.3-.3,1.8-.8,2.1Z"/><path class="cls-39" d="m264,231.5c-1,2.9-2.8,4.9-3.5,5.4-.2.2-.2.5-.1.7.2.2.5.3.7.1.9-.7,2.8-2.8,3.8-5.9.1-.3-.1-.5-.3-.6-.2-.1-.5.1-.6.3Z"/><path class="cls-39" d="m254.7,236.3c.1-.2.1-.5-.2-.7s-.8-.2-1.3-.1c-.6.1-1.3.4-2.2,1-1,.7-1.3,1.5-1.2,2.3.1.7.5,1.4.9,1.7.2.2.5.2.7,0s.2-.5,0-.7-.5-.7-.6-1.1c0-.4.1-.9.8-1.4.8-.6,1.4-.8,1.9-.9.4-.1.5,0,.6,0h0c.1.2.4.1.6-.1Z"/><path class="cls-39" d="m269.4,219.8c-1,1.5-2.8,2.6-3.7,3-.2.1-.3.4-.2.6.1.2.4.4.7.2.9-.4,2.9-1.6,4-3.3.1-.2.1-.5-.2-.7-.2-.1-.5,0-.6.2Z"/><path class="cls-39" d="m289.1,220.1c-.7.7-1.7,1-2.5,1.1-.3,0-.5.3-.4.5,0,.3.3.5.6.4.9-.1,2.2-.5,3.1-1.3.4-.4.8-1,.9-1.7s-.1-1.5-.5-2.4c-.1-.2-.4-.4-.7-.3-.2.1-.3.4-.2.6.4.8.5,1.4.4,1.9-.1.5-.4.9-.7,1.2Z"/><path class="cls-39" d="m281.9,214c.1-.2,0-.5-.3-.6-1.4-.5-4.9-2.1-7.8-4-.2-.1-.5-.1-.7.1s-.1.5.2.7c3,2,6.5,3.5,8,4.1.2,0,.5-.1.6-.3Z"/><path class="cls-39" d="m267.6,215.7c-.4.8-1.2,1.3-1.7,1.5-.2.1-.3.4-.2.7.1.2.4.3.7.2.6-.3,1.5-1,2.1-1.9.6-1,.8-2.2.1-3.7-.1-.2-.4-.4-.7-.3-.2.1-.4.4-.2.6.6,1.2.4,2.1-.1,2.9Z"/><path class="cls-39" d="m258.4,230c-.7.7-1.8,1.1-2.7,1.3-.3,0-.4.3-.4.6.1.3.3.4.6.4,1-.2,2.3-.6,3.2-1.5.4-.4.8-1,.9-1.7s-.1-1.5-.6-2.3c-.1-.2-.4-.3-.7-.2-.2.1-.3.4-.2.7.4.7.5,1.2.5,1.7-.1.3-.3.6-.6,1Z"/><path class="cls-39" d="m261.9,220.3c-.1-.2-.4-.4-.7-.3-2.6,1-4.5,2-5.1,2.4-.2.1-.3.4-.2.7.1.2.4.3.7.2.6-.3,2.5-1.3,5-2.3.3-.2.4-.5.3-.7Z"/><path class="cls-39" d="m261.6,213.8c-.1.1-.2.2-.4.2-1.1.2-2.1.6-2.4.8-.2.1-.3.4-.2.7.1.2.4.3.7.2.3-.2,1.1-.5,2.1-.7.4-.1.8-.2,1-.5s.3-.6.3-.9c-.1-.6-.6-1.2-1.4-1.3-.3,0-.5.1-.5.4s.2.5.4.5c.4,0,.5.3.5.4s0,.2-.1.2Z"/><path class="cls-39" d="m249.4,226.3c.3,0,.5-.2.5-.5,0-1.1.5-3.6,2.8-5.1.2-.1.3-.4.1-.7-.2-.2-.5-.3-.7-.2-2.7,1.7-3.2,4.6-3.2,5.9-.1.3.2.6.5.6Z"/><path class="cls-39" d="m245.3,232.9h-.2c-.3,0-.5.1-.5.4s.2.5.4.5.6,0,.9-.1c.2-.1.3-.2.5-.3.1-.2.2-.4.1-.7-.1-.3-.2-.5-.4-.8,0-.1-.1-.1-.1-.2-.1-.2-.3-.5-.5-.8-.5-.8-1-2-1.4-3.6-.1-.3-.3-.4-.6-.4s-.4.3-.4.6c.4,1.7,1,3,1.5,3.9.2.3.4.6.5.9,0,.1.1.1.1.2.1.2.2.4.3.5-.1-.1-.2-.1-.2-.1Z"/><path class="cls-39" d="m252,211.6c-.1-.3-.3-.4-.6-.4-1.5.3-2.9,1.2-4,2.3-1.1,1-2,2.2-2.5,3-.1.2-.1.5.2.7.2.2.5.1.7-.1.5-.7,1.3-1.8,2.4-2.8,1.1-1,2.3-1.8,3.6-2,.1-.2.3-.4.2-.7Z"/><path class="cls-40" d="m317.8,239.8l-3.3,3.3,3.9,3.1-.2-2.3c4.1-.2,6.5-2.3,7.7-4.4.3-.5.1-1.1-.3-1.4-.4-.3-1-.2-1.3.3-.9,1.6-2.8,3.3-6.3,3.5l-.2-2.1Z"/><path class="cls-40" d="m303.3,224.7l-1.6-4.7-4.4,2.1,2,.9c-1.5,3.8-.7,7,.6,9,.3.4.9.6,1.3.3s.6-.8.3-1.3c-1-1.6-1.7-4-.5-7.3l2.3,1Z"/><path class="cls-33" d="m131.9,326.1l.6,83.2h-1.3l.1,7.8h1.2v.1l.1,7.7h0l7.8,10.5,2.6,13.1h-5.2l-2.6-2.6h-2.6v2.6h-2.6l-5.2-5.2h-7.8v15.7h7.8l5.2-5.2h2.6v2.6h2.6l2.6-2.6h5.2v22.5h7.8v-22.5h2.6l5.2,2.6h5.2v-2.6h2.6l2.6,2.6v-2.6h0v2.6h10.5l2.6-2.6h8.5c1.1,0,2-.9,2-2v-1.2c0-1.1-.9-2-2-2h-8.5l-2.6-2.6h-10.5v2.6h0v-2.6l-2.6,2.6h-2.4v-2.6h-5.2l-5.2,2.6h-2.6l2.6-13.1,1.2-1.6,6.6-8.8h0v-7.8h1.3l.1-7.8h-1.3l.4-83.2h-30v-.2h0Z"/><path class="cls-33" d="m266.3,326.1l.6,83.2h-1.3l.1,7.8h1.2v.1l.1,7.7h0l7.8,10.5,2.6,13.1h-5.2l-2.6-2.6h-2.6v2.6h-2.6l-5.2-5.2h-7.8v15.7h7.8l5.2-5.2h2.6v2.6h2.6l2.6-2.6h5.2v22.5h7.8v-22.5h2.6l5.2,2.6h5.2v-2.6h2.6l2.6,2.6v-2.6h0v2.6h10.5l2.6-2.6h8.5c1.1,0,2-.9,2-2v-1.2c0-1.1-.9-2-2-2h-8.5l-2.6-2.6h-10.5v2.6h0v-2.6l-2.6,2.6h-2.6v-2.6h-5.2l-5.2,2.6h-2.6l2.6-13.1,1.2-1.6,6.6-8.8h0v-7.8h1.3l.1-7.8h-1.3l.4-83.2h-29.8v-.2Z"/><path class="cls-28" d="m133.3,327.9l1.1,95.5,6.6,8.4,3.3,10.5h4.4l3.3-10.5,6.6-8.4,1.1-95.5"/><path class="cls-28" d="m268.3,327.9l1.1,95.5,6.6,8.4,3.3,10.5h4.4l3.3-10.5,6.6-8.4,1.1-95.5"/><circle class="cls-18" cx="284.7" cy="428.2" r="3.1"/><circle class="cls-24" cx="284.4" cy="428" r="2.8"/><circle class="cls-3" cx="283.5" cy="427" r="1.4"/><circle class="cls-18" cx="281.1" cy="435.1" r="3.1"/><circle class="cls-24" cx="280.8" cy="434.8" r="2.8"/><circle class="cls-3" cx="279.9" cy="433.9" r="1.4"/><circle class="cls-18" cx="278.1" cy="427.1" r="3.1"/><circle class="cls-24" cx="277.8" cy="426.8" r="2.8"/><circle class="cls-3" cx="276.9" cy="425.9" r="1.4"/><circle class="cls-18" cx="289.1" cy="422.1" r="3.1"/><circle class="cls-24" cx="288.8" cy="421.8" r="2.8"/><circle class="cls-3" cx="287.9" cy="420.9" r="1.4"/><circle class="cls-18" cx="289.1" cy="415.1" r="3.1"/><circle class="cls-24" cx="288.8" cy="414.8" r="2.8"/><circle class="cls-3" cx="287.9" cy="413.9" r="1.4"/><circle class="cls-18" cx="281.6" cy="421" r="3.1"/><circle class="cls-24" cx="281.4" cy="420.8" r="2.8"/><circle class="cls-3" cx="280.4" cy="419.9" r="1.4"/><circle class="cls-18" cx="274.1" cy="421.1" r="3.1"/><circle class="cls-24" cx="273.8" cy="420.8" r="2.8"/><circle class="cls-3" cx="272.9" cy="419.9" r="1.4"/><circle class="cls-18" cx="277.5" cy="413.9" r="3.1"/><circle class="cls-24" cx="277.3" cy="413.7" r="2.8"/><circle class="cls-3" cx="276.3" cy="412.8" r="1.4"/><circle class="cls-18" cx="274.1" cy="401.1" r="3.1"/><circle class="cls-24" cx="273.8" cy="400.8" r="2.8"/><circle class="cls-3" cx="272.9" cy="399.9" r="1.4"/><circle class="cls-18" cx="289.1" cy="407.1" r="3.1"/><circle class="cls-24" cx="288.8" cy="406.8" r="2.8"/><circle class="cls-3" cx="287.9" cy="405.9" r="1.4"/><circle class="cls-18" cx="284.7" cy="402.7" r="3.1"/><circle class="cls-24" cx="284.4" cy="402.4" r="2.8"/><circle class="cls-3" cx="283.5" cy="401.5" r="1.4"/><circle class="cls-18" cx="280.1" cy="407.1" r="3.1"/><circle class="cls-24" cx="279.8" cy="406.8" r="2.8"/><circle class="cls-3" cx="278.9" cy="405.9" r="1.4"/><circle class="cls-18" cx="273.4" cy="408.8" r="3.1"/><circle class="cls-24" cx="273.2" cy="408.6" r="2.8"/><circle class="cls-3" cx="272.3" cy="407.6" r="1.4"/><circle class="cls-18" cx="283.6" cy="396.6" r="3.1"/><circle class="cls-24" cx="283.4" cy="396.3" r="2.8"/><circle class="cls-3" cx="282.5" cy="395.4" r="1.4"/><circle class="cls-18" cx="289.8" cy="399.1" r="3.1"/><circle class="cls-24" cx="289.5" cy="398.8" r="2.8"/><circle class="cls-3" cx="288.6" cy="397.9" r="1.4"/><circle class="cls-18" cx="289.8" cy="392.1" r="3.1"/><circle class="cls-24" cx="289.5" cy="391.8" r="2.8"/><circle class="cls-3" cx="288.6" cy="390.9" r="1.4"/><circle class="cls-18" cx="277.1" cy="395.1" r="3.1"/><circle class="cls-24" cx="276.8" cy="394.8" r="2.8"/><circle class="cls-3" cx="275.9" cy="393.9" r="1.4"/><circle class="cls-18" cx="283.1" cy="390.1" r="3.1"/><circle class="cls-24" cx="282.8" cy="389.8" r="2.8"/><circle class="cls-3" cx="281.9" cy="388.9" r="1.4"/><circle class="cls-18" cx="273.1" cy="390.1" r="3.1"/><circle class="cls-24" cx="272.8" cy="389.8" r="2.8"/><circle class="cls-3" cx="271.9" cy="388.9" r="1.4"/><circle class="cls-18" cx="278.1" cy="385.1" r="3.1"/><circle class="cls-24" cx="277.8" cy="384.8" r="2.8"/><circle class="cls-3" cx="276.9" cy="383.9" r="1.4"/><circle class="cls-18" cx="288.1" cy="386.1" r="3.1"/><circle class="cls-24" cx="287.8" cy="385.8" r="2.8"/><circle class="cls-3" cx="286.9" cy="384.9" r="1.4"/><circle class="cls-18" cx="290.1" cy="366.1" r="3.1"/><circle class="cls-24" cx="289.8" cy="365.8" r="2.8"/><circle class="cls-3" cx="288.9" cy="364.9" r="1.4"/><circle class="cls-18" cx="274.1" cy="363.1" r="3.1"/><circle class="cls-24" cx="273.8" cy="362.8" r="2.8"/><circle class="cls-3" cx="272.9" cy="361.9" r="1.4"/><circle class="cls-18" cx="289.1" cy="359.1" r="3.1"/><circle class="cls-24" cx="288.8" cy="358.8" r="2.8"/><circle class="cls-3" cx="287.9" cy="357.9" r="1.4"/><circle class="cls-18" cx="282.1" cy="360.1" r="3.1"/><circle class="cls-24" cx="281.8" cy="359.8" r="2.8"/><circle class="cls-3" cx="280.9" cy="358.9" r="1.4"/><circle class="cls-18" cx="276.1" cy="357.1" r="3.1"/><circle class="cls-24" cx="275.8" cy="356.8" r="2.8"/><circle class="cls-3" cx="274.9" cy="355.9" r="1.4"/><circle class="cls-18" cx="273.1" cy="351.1" r="3.1"/><circle class="cls-24" cx="272.8" cy="350.8" r="2.8"/><circle class="cls-3" cx="271.9" cy="349.9" r="1.4"/><circle class="cls-18" cx="290.1" cy="348.1" r="3.1"/><circle class="cls-24" cx="289.8" cy="347.8" r="2.8"/><circle class="cls-3" cx="288.9" cy="346.9" r="1.4"/><circle class="cls-18" cx="279.1" cy="348.1" r="3.1"/><circle class="cls-24" cx="278.8" cy="347.8" r="2.8"/><circle class="cls-3" cx="277.9" cy="346.9" r="1.4"/><circle class="cls-18" cx="284.1" cy="344.1" r="3.1"/><circle class="cls-24" cx="283.8" cy="343.8" r="2.8"/><circle class="cls-3" cx="282.9" cy="342.9" r="1.4"/><circle class="cls-18" cx="290.1" cy="340.1" r="3.1"/><circle class="cls-24" cx="289.8" cy="339.8" r="2.8"/><circle class="cls-3" cx="288.9" cy="338.9" r="1.4"/><circle class="cls-18" cx="273.1" cy="343.1" r="3.1"/><circle class="cls-24" cx="272.8" cy="342.8" r="2.8"/><circle class="cls-3" cx="271.9" cy="341.9" r="1.4"/><circle class="cls-18" cx="278.1" cy="338.1" r="3.1"/><circle class="cls-24" cx="277.8" cy="337.8" r="2.8"/><circle class="cls-3" cx="276.9" cy="336.9" r="1.4"/><circle class="cls-18" cx="285.1" cy="336.1" r="3.1"/><circle class="cls-24" cx="284.8" cy="335.8" r="2.8"/><circle class="cls-3" cx="283.9" cy="334.9" r="1.4"/><circle class="cls-18" cx="290.1" cy="332.1" r="3.1"/><circle class="cls-24" cx="289.8" cy="331.8" r="2.8"/><circle class="cls-3" cx="288.9" cy="330.9" r="1.4"/><circle class="cls-18" cx="280.1" cy="331.1" r="3.1"/><circle class="cls-24" cx="279.8" cy="330.8" r="2.8"/><circle class="cls-3" cx="278.9" cy="329.9" r="1.4"/><circle class="cls-18" cx="273.4" cy="333.2" r="3.1"/><circle class="cls-24" cx="273.2" cy="333" r="2.8"/><circle class="cls-3" cx="272.3" cy="332" r="1.4"/><circle class="cls-18" cx="285.1" cy="353.1" r="3.1"/><circle class="cls-24" cx="284.8" cy="352.8" r="2.8"/><circle class="cls-3" cx="283.9" cy="351.9" r="1.4"/><circle class="cls-4" cx="278.5" cy="499.5" r="3.5"/><circle class="cls-5" cx="278.2" cy="499.2" r="3.2"/><circle class="cls-8" cx="277.2" cy="498.2" r="1.6"/><circle class="cls-4" cx="280.5" cy="507.5" r="3.5"/><circle class="cls-5" cx="280.2" cy="507.2" r="3.2"/><circle class="cls-8" cx="279.2" cy="506.2" r="1.6"/><circle class="cls-16" cx="272.6" cy="504.6" r="3.6"/><circle class="cls-20" cx="272.3" cy="504.3" r="3.3"/><circle class="cls-23" cx="271.2" cy="503.2" r="1.6"/><circle class="cls-16" cx="275.6" cy="491.6" r="3.6"/><circle class="cls-20" cx="275.3" cy="491.3" r="3.3"/><circle class="cls-23" cx="274.2" cy="490.2" r="1.6"/><circle class="cls-16" cx="286.6" cy="500.6" r="3.6"/><circle class="cls-20" cx="286.3" cy="500.3" r="3.3"/><circle class="cls-23" cx="285.2" cy="499.2" r="1.6"/><circle class="cls-19" cx="269.5" cy="497.5" r="3.5"/><circle class="cls-10" cx="269.2" cy="497.2" r="3.2"/><circle class="cls-15" cx="268.2" cy="496.2" r="1.6"/><circle class="cls-19" cx="283.5" cy="492.5" r="3.5"/><circle class="cls-10" cx="283.2" cy="492.2" r="3.2"/><circle class="cls-15" cx="282.2" cy="491.2" r="1.6"/><circle class="cls-19" cx="294.5" cy="502.5" r="3.5"/><circle class="cls-10" cx="294.2" cy="502.2" r="3.2"/><circle class="cls-15" cx="293.2" cy="501.2" r="1.6"/><circle class="cls-19" cx="288.5" cy="508.5" r="3.5"/><circle class="cls-10" cx="288.2" cy="508.2" r="3.2"/><circle class="cls-15" cx="287.2" cy="507.2" r="1.6"/><circle class="cls-4" cx="291.5" cy="494.5" r="3.5"/><circle class="cls-5" cx="291.2" cy="494.2" r="3.2"/><circle class="cls-8" cx="290.2" cy="493.2" r="1.6"/><path class="cls-33" d="m449.9,326.1l.6,83.2h-1.3l.1,7.8h1.2v.1l.1,7.7h0l7.8,10.5,2.6,13.1h-5.2l-2.6-2.6h-2.6v2.6h-2.6l-5.2-5.2h-7.8v15.7h7.8l5.2-5.2h2.6v2.6h2.6l2.6-2.6h5.2v22.5h7.8v-22.5h2.6l5.2,2.6h5.2v-2.6h5.2v2.6l2.6,2.6v8.5c0,1.1.9,2,2,2h1.2c1.1,0,2-.9,2-2v-8.5l2.6-2.6h0v-10.5l-2.6-2.6v-8.5c0-1.1-.9-2-2-2h-1.2c-1.1,0-2,.9-2,2v8.5l-2.6,2.6v2.6h-5v-2.6h-5.2l-5.2,2.6h-2.6l2.6-13.1,1.4-1.8,6.5-8.6h0v-7.8h1.3l.1-7.8h-1.3l.4-83.2h-30.1v-.1h0Z"/><path class="cls-28" d="m451.3,327.9l1.1,95.5,6.6,8.4,3.3,10.5h4.4l3.3-10.5,6.6-8.4,1.1-95.5"/><circle class="cls-18" cx="464.6" cy="434.3" r="3.1"/><circle class="cls-24" cx="464.4" cy="434.1" r="2.8"/><circle class="cls-3" cx="463.4" cy="433.1" r="1.4"/><circle class="cls-18" cx="467.7" cy="428.2" r="3.1"/><circle class="cls-24" cx="467.4" cy="428" r="2.8"/><circle class="cls-3" cx="466.5" cy="427" r="1.4"/><circle class="cls-18" cx="460.5" cy="427.2" r="3.1"/><circle class="cls-24" cx="460.3" cy="426.9" r="2.8"/><circle class="cls-3" cx="459.3" cy="426" r="1.4"/><circle class="cls-18" cx="456.4" cy="422.1" r="3.1"/><circle class="cls-24" cx="456.2" cy="421.8" r="2.8"/><circle class="cls-3" cx="455.3" cy="420.9" r="1.4"/><circle class="cls-18" cx="464.6" cy="421" r="3.1"/><circle class="cls-24" cx="464.4" cy="420.8" r="2.8"/><circle class="cls-3" cx="463.4" cy="419.9" r="1.4"/><circle class="cls-18" cx="460.5" cy="415.9" r="3.1"/><circle class="cls-24" cx="460.3" cy="415.7" r="2.8"/><circle class="cls-3" cx="459.3" cy="414.8" r="1.4"/><circle class="cls-18" cx="468.7" cy="414.9" r="3.1"/><circle class="cls-24" cx="468.5" cy="414.7" r="2.8"/><circle class="cls-3" cx="467.5" cy="413.7" r="1.4"/><circle class="cls-18" cx="463.6" cy="409.8" r="3.1"/><circle class="cls-24" cx="463.4" cy="409.6" r="2.8"/><circle class="cls-3" cx="462.4" cy="408.6" r="1.4"/><circle class="cls-18" cx="471.8" cy="408.8" r="3.1"/><circle class="cls-24" cx="471.5" cy="408.6" r="2.8"/><circle class="cls-3" cx="470.6" cy="407.6" r="1.4"/><circle class="cls-18" cx="466.7" cy="403.7" r="3.1"/><circle class="cls-24" cx="466.4" cy="403.4" r="2.8"/><circle class="cls-3" cx="465.5" cy="402.5" r="1.4"/><circle class="cls-18" cx="456.4" cy="408.8" r="3.1"/><circle class="cls-24" cx="456.2" cy="408.6" r="2.8"/><circle class="cls-3" cx="455.3" cy="407.6" r="1.4"/><circle class="cls-18" cx="459.5" cy="401.6" r="3.1"/><circle class="cls-24" cx="459.3" cy="401.4" r="2.8"/><circle class="cls-3" cx="458.3" cy="400.5" r="1.4"/><circle class="cls-18" cx="456.4" cy="395.5" r="3.1"/><circle class="cls-24" cx="456.2" cy="395.3" r="2.8"/><circle class="cls-3" cx="455.3" cy="394.3" r="1.4"/><circle class="cls-18" cx="465.6" cy="397.6" r="3.1"/><circle class="cls-24" cx="465.4" cy="397.3" r="2.8"/><circle class="cls-3" cx="464.5" cy="396.4" r="1.4"/><circle class="cls-18" cx="472.8" cy="401.6" r="3.1"/><circle class="cls-24" cx="472.5" cy="401.4" r="2.8"/><circle class="cls-3" cx="471.6" cy="400.5" r="1.4"/><circle class="cls-18" cx="472.8" cy="394.5" r="3.1"/><circle class="cls-24" cx="472.5" cy="394.3" r="2.8"/><circle class="cls-3" cx="471.6" cy="393.3" r="1.4"/><circle class="cls-18" cx="466.7" cy="390.4" r="3.1"/><circle class="cls-24" cx="466.4" cy="390.2" r="2.8"/><circle class="cls-3" cx="465.5" cy="389.2" r="1.4"/><circle class="cls-18" cx="472.8" cy="387.3" r="3.1"/><circle class="cls-24" cx="472.5" cy="387.1" r="2.8"/><circle class="cls-3" cx="471.6" cy="386.2" r="1.4"/><circle class="cls-18" cx="459.5" cy="389.4" r="3.1"/><circle class="cls-24" cx="459.3" cy="389.2" r="2.8"/><circle class="cls-3" cx="458.3" cy="388.2" r="1.4"/><circle class="cls-18" cx="456.4" cy="383.3" r="3.1"/><circle class="cls-24" cx="456.2" cy="383" r="2.8"/><circle class="cls-3" cx="455.3" cy="382.1" r="1.4"/><circle class="cls-18" cx="463.6" cy="384.3" r="3.1"/><circle class="cls-24" cx="463.4" cy="384" r="2.8"/><circle class="cls-3" cx="462.4" cy="383.1" r="1.4"/><circle class="cls-18" cx="469.7" cy="380.2" r="3.1"/><circle class="cls-24" cx="469.5" cy="380" r="2.8"/><circle class="cls-3" cx="468.5" cy="379" r="1.4"/><circle class="cls-18" cx="463.6" cy="377.1" r="3.1"/><circle class="cls-24" cx="463.4" cy="376.9" r="2.8"/><circle class="cls-3" cx="462.4" cy="376" r="1.4"/><circle class="cls-18" cx="456.4" cy="376.1" r="3.1"/><circle class="cls-24" cx="456.2" cy="375.9" r="2.8"/><circle class="cls-3" cx="455.3" cy="374.9" r="1.4"/><circle class="cls-18" cx="456.4" cy="369" r="3.1"/><circle class="cls-24" cx="456.2" cy="368.7" r="2.8"/><circle class="cls-3" cx="455.3" cy="367.8" r="1.4"/><circle class="cls-18" cx="463.6" cy="370" r="3.1"/><circle class="cls-24" cx="463.4" cy="369.8" r="2.8"/><circle class="cls-3" cx="462.4" cy="368.8" r="1.4"/><circle class="cls-18" cx="470.7" cy="373" r="3.1"/><circle class="cls-24" cx="470.5" cy="372.8" r="2.8"/><circle class="cls-3" cx="469.6" cy="371.9" r="1.4"/><circle class="cls-18" cx="469.7" cy="365.9" r="3.1"/><circle class="cls-24" cx="469.5" cy="365.7" r="2.8"/><circle class="cls-3" cx="468.5" cy="364.7" r="1.4"/><circle class="cls-18" cx="463.6" cy="362.8" r="3.1"/><circle class="cls-24" cx="463.4" cy="362.6" r="2.8"/><circle class="cls-3" cx="462.4" cy="361.7" r="1.4"/><circle class="cls-18" cx="456.4" cy="361.8" r="3.1"/><circle class="cls-24" cx="456.2" cy="361.6" r="2.8"/><circle class="cls-3" cx="455.3" cy="360.6" r="1.4"/><circle class="cls-18" cx="472.8" cy="358.8" r="3.1"/><circle class="cls-24" cx="472.5" cy="358.5" r="2.8"/><circle class="cls-3" cx="471.6" cy="357.6" r="1.4"/><circle class="cls-18" cx="465.6" cy="356.7" r="3.1"/><circle class="cls-24" cx="465.4" cy="356.5" r="2.8"/><circle class="cls-3" cx="464.5" cy="355.5" r="1.4"/><circle class="cls-18" cx="456.4" cy="354.7" r="3.1"/><circle class="cls-24" cx="456.2" cy="354.4" r="2.8"/><circle class="cls-3" cx="455.3" cy="353.5" r="1.4"/><circle class="cls-18" cx="461.5" cy="350.6" r="3.1"/><circle class="cls-24" cx="461.3" cy="350.4" r="2.8"/><circle class="cls-3" cx="460.4" cy="349.4" r="1.4"/><circle class="cls-18" cx="468.7" cy="350.6" r="3.1"/><circle class="cls-24" cx="468.5" cy="350.4" r="2.8"/><circle class="cls-3" cx="467.5" cy="349.4" r="1.4"/><circle class="cls-18" cx="465.6" cy="344.5" r="3.1"/><circle class="cls-24" cx="465.4" cy="344.2" r="2.8"/><circle class="cls-3" cx="464.5" cy="343.3" r="1.4"/><circle class="cls-18" cx="456.4" cy="345.5" r="3.1"/><circle class="cls-24" cx="456.2" cy="345.2" r="2.8"/><circle class="cls-3" cx="455.3" cy="344.3" r="1.4"/><circle class="cls-18" cx="460.5" cy="339.4" r="3.1"/><circle class="cls-24" cx="460.3" cy="339.1" r="2.8"/><circle class="cls-3" cx="459.3" cy="338.2" r="1.4"/><circle class="cls-18" cx="468.7" cy="338.3" r="3.1"/><circle class="cls-24" cx="468.5" cy="338.1" r="2.8"/><circle class="cls-3" cx="467.5" cy="337.2" r="1.4"/><circle class="cls-18" cx="472.8" cy="332.2" r="3.1"/><circle class="cls-24" cx="472.5" cy="332" r="2.8"/><circle class="cls-3" cx="471.6" cy="331" r="1.4"/><circle class="cls-18" cx="464.6" cy="332.2" r="3.1"/><circle class="cls-24" cx="464.4" cy="332" r="2.8"/><circle class="cls-3" cx="463.4" cy="331" r="1.4"/><circle class="cls-18" cx="456.4" cy="333.2" r="3.1"/><circle class="cls-24" cx="456.2" cy="333" r="2.8"/><circle class="cls-3" cx="455.3" cy="332" r="1.4"/><circle class="cls-18" cx="472.8" cy="345.5" r="3.1"/><circle class="cls-24" cx="472.5" cy="345.2" r="2.8"/><circle class="cls-3" cx="471.6" cy="344.3" r="1.4"/><circle class="cls-18" cx="471.8" cy="422.1" r="3.1"/><circle class="cls-24" cx="471.5" cy="421.8" r="2.8"/><circle class="cls-3" cx="470.6" cy="420.9" r="1.4"/><path class="cls-29" d="m80,58V22h214v18.8"/><line class="cls-27" x1="331.5" y1="80.5" x2="539.5" y2="80.5"/><line class="cls-27" x1="539.5" y1="223.5" x2="364.5" y2="223.5"/><line class="cls-27" x1="539.5" y1="223.5" x2="539.5" y2="80.5"/><line class="cls-27" x1="364.3" y1="223.3" x2="371.6" y2="216"/><line class="cls-27" x1="364.3" y1="223.7" x2="371.6" y2="231"/><line class="cls-27" x1="50.5" y1="367.5" x2="115.5" y2="367.5"/><line class="cls-27" x1="176.5" y1="367.5" x2="253.5" y2="367.5"/><line class="cls-27" x1="312.5" y1="367.5" x2="435.5" y2="367.5"/><line class="cls-27" x1="50.5" y1="367.5" x2="50.5" y2="250.5"/><line class="cls-27" x1="117.4" y1="367.3" x2="110.1" y2="360"/><line class="cls-27" x1="117.4" y1="367.7" x2="110.1" y2="375"/><line class="cls-27" x1="256.4" y1="367.3" x2="249.1" y2="360"/><line class="cls-27" x1="256.4" y1="367.7" x2="249.1" y2="375"/><line class="cls-27" x1="437.4" y1="367.3" x2="430.1" y2="360"/><line class="cls-27" x1="437.4" y1="367.7" x2="430.1" y2="375"/><line class="cls-27" x1="219.5" y1="227.5" x2="87.5" y2="227.5"/><line class="cls-27" x1="84" y1="227.7" x2="91.3" y2="235"/><line class="cls-27" x1="84" y1="227.3" x2="91.3" y2="220"/><line class="cls-27" x1="287.1" y1="34" x2="294" y2="40.9"/><line class="cls-27" x1="300.9" y1="34" x2="294" y2="40.9"/><line class="cls-26" x1="114" y1="413" x2="133" y2="413"/><line class="cls-26" x1="283" y1="538" x2="283" y2="516"/><path class="cls-31" d="m139.5,76v8c-1.5-2.5-13.5-9-59.5-9-36.8,0-52.7,5.7-56,8.5v-7.5c0-1,5.5-9,56-9,40.4,0,56.5,6,59.5,9Z"/><path class="cls-30" d="m138.6,82.5c0,.2-.1.6-.8,1.1s-1.7,1.1-3.1,1.6c-2.8,1.1-7,2.1-12.2,2.9-10.4,1.7-24.7,2.7-40.6,2.7s-30.2-1-40.6-2.7c-5.2-.8-9.3-1.8-12.2-2.9-1.4-.5-2.4-1.1-3.1-1.6s-.8-.9-.8-1.1.1-.6.8-1.1c.7-.5,1.7-1.1,3.1-1.6,2.8-1.1,7-2.1,12.2-2.9,10.4-1.7,24.7-2.7,40.6-2.7s30.2,1,40.6,2.7c5.2.8,9.3,1.8,12.2,2.9,1.4.5,2.4,1.1,3.1,1.6.7.6.8.9.8,1.1Z"/><ellipse class="cls-11" cx="42" cy="83.5" rx="5.6" ry="1.9"/><ellipse class="cls-11" cx="57.8" cy="77.9" rx="5.6" ry="1.9"/><ellipse class="cls-11" cx="63.4" cy="87.2" rx="5.6" ry="1.9"/><ellipse class="cls-11" cx="78.3" cy="79.7" rx="5.6" ry="1.9"/><ellipse class="cls-11" cx="87.6" cy="86.2" rx="5.6" ry="1.9"/><ellipse class="cls-11" cx="97.8" cy="77.9" rx="5.6" ry="1.9"/><ellipse class="cls-11" cx="107.1" cy="87.2" rx="5.6" ry="1.9"/><ellipse class="cls-11" cx="121" cy="81.6" rx="5.6" ry="1.9"/><path class="cls-21" d="m24,93v-11c1.5,2.5,12.5,9,58.5,9,36.8,0,53.7-5.7,57-8.5v10.5c0,1-6.5,9-57,9-40.4,0-55.5-6-58.5-9Z"/><path class="cls-32" d="m24,95v-19c1.5,2.5,12.5,9,58.5,9,36.8,0,53.7-5.7,57-8.5v18.5c0,1-6.5,9-57,9-40.4,0-55.5-6-58.5-9Z"/><path class="cls-6" d="m313.6,359h1.2v-3.4h2.2c2.1,0,3-.8,3-2.7s-.9-2.7-3-2.7h-3.3v8.8h-.1Zm1.2-4.5v-3.3h2.1c1.4,0,1.9.5,1.9,1.7s-.5,1.6-1.9,1.6h-2.1Zm6.7,4.5h1.1v-3.9c.2-1.3.8-1.8,1.9-1.8h.3v-1.1h-.5c-1,0-1.6.4-1.9,1.4l-.1-1.2h-1v6.6h.2Zm7.1.2c1.9,0,2.9-1,2.9-3v-1.1c0-2-1-3-2.9-3s-2.9,1-2.9,3v1.1c.1,1.9,1.1,3,2.9,3Zm0-1c-1.2,0-1.8-.6-1.8-2v-1c0-1.4.6-2,1.8-2s1.8.6,1.8,2v1c0,1.3-.6,2-1.8,2Zm6.8.8h1v-1h-.8c-.8,0-1-.2-1-1.1v-3.7h1.7v-.9h-1.7v-1.8h-1l-.1,1.8h-1.2v.9h1.2v3.7c0,1.5.6,2.1,1.9,2.1Zm4.9.2c1.6,0,2.6-.7,2.7-2.2h-1.1c-.1.7-.6,1.2-1.6,1.2-1.2,0-1.7-.6-1.7-1.9v-.3h4.5v-1c0-1.8-1-2.8-2.8-2.8s-2.8,1-2.8,2.8v1.3c-.1,1.9.9,2.9,2.8,2.9Zm-1.7-4.2c0-1.3.5-1.9,1.7-1.9s1.7.6,1.7,1.9h-3.4Zm6.2-3.9h1.2v-1.3h-1.2v1.3Zm.1,7.9h1.1v-6.7h-1.1v6.7Zm3.3,0h1.1v-4.4c.5-1,1.1-1.5,1.9-1.5s1.2.5,1.2,1.5v4.3h1.1v-4.4c0-1.6-.7-2.5-2.1-2.5-.9,0-1.7.4-2.2,1.2v-1.1h-1v6.9Zm10.8-7.9h1.2v-1.3h-1.2v1.3Zm0,7.9h1.1v-6.7h-1.1v6.7Zm5.5.2c1.8,0,2.7-.7,2.7-2.1,0-1.3-.7-1.8-2.5-2-1.2-.1-1.7-.4-1.7-1s.5-1,1.5-1,1.4.4,1.4,1.1h1.1c0-1.4-.9-2.1-2.5-2.1s-2.6.7-2.6,2c0,1.2.6,1.7,2.4,1.9,1.3.2,1.8.4,1.8,1.1,0,.6-.5,1-1.6,1s-1.7-.4-1.7-1.2h-1.1c0,1.5.9,2.3,2.8,2.3Zm7.7-.2h1.1v-3.9c.2-1.3.8-1.8,1.9-1.8h.3v-1.1h-.5c-1,0-1.6.4-1.9,1.4l-.1-1.2h-1v6.6h.2Zm7.2.2c1.6,0,2.6-.7,2.7-2.2h-1.1c-.1.7-.6,1.2-1.6,1.2-1.2,0-1.7-.6-1.7-1.9v-.3h4.5v-1c0-1.8-1-2.8-2.8-2.8s-2.8,1-2.8,2.8v1.3c-.1,1.9.9,2.9,2.8,2.9Zm-1.7-4.2c0-1.3.5-1.9,1.7-1.9s1.7.6,1.7,1.9h-3.4Zm6.3,4h1.1v-9.5h-1.1v9.5Zm5.8.2c1.6,0,2.6-.7,2.7-2.2h-1.1c-.1.7-.6,1.2-1.6,1.2-1.2,0-1.7-.6-1.7-1.9v-.3h4.5v-1c0-1.8-1-2.8-2.8-2.8s-2.8,1-2.8,2.8v1.3c-.1,1.9,1,2.9,2.8,2.9Zm-1.7-4.2c0-1.3.5-1.9,1.7-1.9s1.7.6,1.7,1.9h-3.4Zm8.1,4.2c1,0,1.7-.4,2.3-1.1v.9h1v-4.4c0-1.7-.9-2.5-2.6-2.5s-2.6.7-2.7,2.2h1.1c0-.8.6-1.2,1.5-1.2,1,0,1.5.5,1.5,1.5v.4h-1.6c-1.9,0-2.8.8-2.8,2.1s.9,2.1,2.3,2.1Zm.1-1c-.8,0-1.3-.4-1.3-1.1,0-.8.5-1.1,1.7-1.1h1.6v.9c-.4.8-1.1,1.3-2,1.3Zm7.3,1c1.8,0,2.7-.7,2.7-2.1,0-1.3-.7-1.8-2.5-2-1.2-.1-1.7-.4-1.7-1s.5-1,1.5-1,1.4.4,1.4,1.1h1.1c0-1.4-.9-2.1-2.5-2.1s-2.6.7-2.6,2c0,1.2.6,1.7,2.4,1.9,1.3.2,1.8.4,1.8,1.1,0,.6-.5,1-1.6,1s-1.7-.4-1.7-1.2h-1.1c.1,1.5,1,2.3,2.8,2.3Zm6.9,0c1.6,0,2.6-.7,2.7-2.2h-1.1c-.1.7-.6,1.2-1.6,1.2-1.2,0-1.7-.6-1.7-1.9v-.3h4.5v-1c0-1.8-1-2.8-2.8-2.8s-2.8,1-2.8,2.8v1.3c-.1,1.9.9,2.9,2.8,2.9Zm-1.7-4.2c0-1.3.5-1.9,1.7-1.9s1.7.6,1.7,1.9h-3.4Zm8.4,4.2c1,0,1.7-.4,2.3-1.2v1.1h1v-9.5h-1.1v3.7c-.5-.7-1.2-1-2.1-1-1.6,0-2.5,1-2.5,2.8v1.4c0,1.7.9,2.7,2.4,2.7Zm.2-1c-.9,0-1.5-.6-1.5-1.8v-1.4c0-1.2.5-1.8,1.5-1.8.9,0,1.5.6,2,1.5v2c-.5.9-1.2,1.5-2,1.5Z"/><circle class="cls-17" cx="292" cy="199.3" r="5.3"/><circle class="cls-22" cx="291.6" cy="198.9" r="4.9"/><circle class="cls-11" cx="290" cy="197.3" r="2.4"/><circle class="cls-17" cx="307.1" cy="199.3" r="5.3"/><circle class="cls-22" cx="306.7" cy="198.9" r="4.9"/><circle class="cls-11" cx="305.1" cy="197.3" r="2.4"/><circle class="cls-17" cx="319.6" cy="204.3" r="5.3"/><circle class="cls-22" cx="319.2" cy="203.9" r="4.9"/><circle class="cls-11" cx="317.6" cy="202.3" r="2.4"/><circle class="cls-17" cx="310.9" cy="215.6" r="5.3"/><circle class="cls-22" cx="310.5" cy="215.2" r="4.9"/><circle class="cls-11" cx="308.8" cy="213.6" r="2.4"/><circle class="cls-17" cx="298.3" cy="210.6" r="5.3"/><circle class="cls-22" cx="297.9" cy="210.2" r="4.9"/><circle class="cls-11" cx="296.3" cy="208.6" r="2.4"/><circle class="cls-18" cx="149.7" cy="428.2" r="3.1"/><circle class="cls-24" cx="149.4" cy="428" r="2.8"/><circle class="cls-3" cx="148.5" cy="427" r="1.4"/><circle class="cls-18" cx="146.1" cy="435.1" r="3.1"/><circle class="cls-24" cx="145.8" cy="434.8" r="2.8"/><circle class="cls-3" cx="144.9" cy="433.9" r="1.4"/><circle class="cls-18" cx="143.1" cy="427.1" r="3.1"/><circle class="cls-24" cx="142.8" cy="426.8" r="2.8"/><circle class="cls-3" cx="141.9" cy="425.9" r="1.4"/><circle class="cls-18" cx="154.1" cy="422.1" r="3.1"/><circle class="cls-24" cx="153.8" cy="421.8" r="2.8"/><circle class="cls-3" cx="152.9" cy="420.9" r="1.4"/><circle class="cls-18" cx="154.1" cy="415.1" r="3.1"/><circle class="cls-24" cx="153.8" cy="414.8" r="2.8"/><circle class="cls-3" cx="152.9" cy="413.9" r="1.4"/><circle class="cls-18" cx="146.6" cy="421" r="3.1"/><circle class="cls-24" cx="146.4" cy="420.8" r="2.8"/><circle class="cls-3" cx="145.4" cy="419.9" r="1.4"/><circle class="cls-18" cx="139.1" cy="421.1" r="3.1"/><circle class="cls-24" cx="138.8" cy="420.8" r="2.8"/><circle class="cls-3" cx="137.9" cy="419.9" r="1.4"/><circle class="cls-18" cx="142" cy="414.9" r="3.1"/><circle class="cls-24" cx="141.8" cy="414.7" r="2.8"/><circle class="cls-3" cx="140.8" cy="413.7" r="1.4"/><circle class="cls-18" cx="139.1" cy="401.1" r="3.1"/><circle class="cls-24" cx="138.8" cy="400.8" r="2.8"/><circle class="cls-3" cx="137.9" cy="399.9" r="1.4"/><circle class="cls-18" cx="154.1" cy="407.1" r="3.1"/><circle class="cls-24" cx="153.8" cy="406.8" r="2.8"/><circle class="cls-3" cx="152.9" cy="405.9" r="1.4"/><circle class="cls-18" cx="145.1" cy="405.5" r="3.1"/><circle class="cls-24" cx="144.8" cy="405.3" r="2.8"/><circle class="cls-3" cx="143.9" cy="404.3" r="1.4"/><circle class="cls-18" cx="148.6" cy="411.3" r="3.1"/><circle class="cls-24" cx="148.4" cy="411.1" r="2.8"/><circle class="cls-3" cx="147.5" cy="410.2" r="1.4"/><circle class="cls-18" cx="138.4" cy="408.8" r="3.1"/><circle class="cls-24" cx="138.2" cy="408.6" r="2.8"/><circle class="cls-3" cx="137.3" cy="407.6" r="1.4"/><circle class="cls-18" cx="148.3" cy="399.1" r="3.1"/><circle class="cls-24" cx="148.1" cy="398.9" r="2.8"/><circle class="cls-3" cx="147.1" cy="398" r="1.4"/><circle class="cls-18" cx="154.8" cy="400.4" r="3.1"/><circle class="cls-24" cx="154.5" cy="400.2" r="2.8"/><circle class="cls-3" cx="153.6" cy="399.2" r="1.4"/><circle class="cls-18" cx="154.8" cy="393.1" r="3.1"/><circle class="cls-24" cx="154.5" cy="392.9" r="2.8"/><circle class="cls-3" cx="153.6" cy="391.9" r="1.4"/><circle class="cls-18" cx="142.1" cy="395.1" r="3.1"/><circle class="cls-24" cx="141.8" cy="394.8" r="2.8"/><circle class="cls-3" cx="140.9" cy="393.9" r="1.4"/><circle class="cls-18" cx="148.1" cy="391.7" r="3.1"/><circle class="cls-24" cx="147.8" cy="391.5" r="2.8"/><circle class="cls-3" cx="146.9" cy="390.5" r="1.4"/><circle class="cls-18" cx="138.1" cy="389.4" r="3.1"/><circle class="cls-24" cx="137.8" cy="389.1" r="2.8"/><circle class="cls-3" cx="136.9" cy="388.2" r="1.4"/><circle class="cls-18" cx="148.7" cy="380.8" r="3.1"/><circle class="cls-24" cx="148.5" cy="380.6" r="2.8"/><circle class="cls-3" cx="147.5" cy="379.6" r="1.4"/><circle class="cls-18" cx="144" cy="386.1" r="3.1"/><circle class="cls-24" cx="143.7" cy="385.8" r="2.8"/><circle class="cls-3" cx="142.8" cy="384.9" r="1.4"/><circle class="cls-18" cx="138.1" cy="381.5" r="3.1"/><circle class="cls-24" cx="137.8" cy="381.2" r="2.8"/><circle class="cls-3" cx="136.9" cy="380.3" r="1.4"/><circle class="cls-18" cx="155.1" cy="377.7" r="3.1"/><circle class="cls-24" cx="154.8" cy="377.5" r="2.8"/><circle class="cls-3" cx="153.9" cy="376.6" r="1.4"/><circle class="cls-18" cx="153.1" cy="386.3" r="3.1"/><circle class="cls-24" cx="152.8" cy="386.1" r="2.8"/><circle class="cls-3" cx="151.9" cy="385.1" r="1.4"/><circle class="cls-18" cx="149.6" cy="372.9" r="3.1"/><circle class="cls-24" cx="149.3" cy="372.7" r="2.8"/><circle class="cls-3" cx="148.4" cy="371.7" r="1.4"/><circle class="cls-18" cx="155.3" cy="369" r="3.1"/><circle class="cls-24" cx="155.1" cy="368.8" r="2.8"/><circle class="cls-3" cx="154.2" cy="367.8" r="1.4"/><circle class="cls-18" cx="138.1" cy="371.7" r="3.1"/><circle class="cls-24" cx="137.8" cy="371.5" r="2.8"/><circle class="cls-3" cx="136.9" cy="370.6" r="1.4"/><circle class="cls-18" cx="138.2" cy="364" r="3.1"/><circle class="cls-24" cx="138" cy="363.7" r="2.8"/><circle class="cls-3" cx="137.1" cy="362.8" r="1.4"/><circle class="cls-18" cx="151.3" cy="363.1" r="3.1"/><circle class="cls-24" cx="151.1" cy="362.8" r="2.8"/><circle class="cls-3" cx="150.1" cy="361.9" r="1.4"/><circle class="cls-18" cx="145.2" cy="367.3" r="3.1"/><circle class="cls-24" cx="144.9" cy="367" r="2.8"/><circle class="cls-3" cx="144" cy="366.1" r="1.4"/><circle class="cls-18" cx="143.1" cy="376.8" r="3.1"/><circle class="cls-24" cx="142.8" cy="376.5" r="2.8"/><circle class="cls-3" cx="141.9" cy="375.6" r="1.4"/><circle class="cls-18" cx="155.3" cy="357" r="3.1"/><circle class="cls-24" cx="155.1" cy="356.8" r="2.8"/><circle class="cls-3" cx="154.2" cy="355.8" r="1.4"/><circle class="cls-17" cx="155.1" cy="332" r="3.1"/><circle class="cls-22" cx="154.9" cy="331.8" r="2.8"/><circle class="cls-11" cx="153.9" cy="330.9" r="1.4"/><circle class="cls-17" cx="138.4" cy="333.2" r="3.1"/><circle class="cls-22" cx="138.2" cy="333" r="2.8"/><circle class="cls-11" cx="137.3" cy="332.1" r="1.4"/><circle class="cls-17" cx="138" cy="344" r="3.1"/><circle class="cls-22" cx="137.8" cy="343.7" r="2.8"/><circle class="cls-11" cx="136.8" cy="342.8" r="1.4"/><circle class="cls-17" cx="143.1" cy="339" r="3.1"/><circle class="cls-22" cx="142.8" cy="338.7" r="2.8"/><circle class="cls-11" cx="141.9" cy="337.8" r="1.4"/><circle class="cls-17" cx="150.1" cy="337" r="3.1"/><circle class="cls-22" cx="149.8" cy="336.7" r="2.8"/><circle class="cls-11" cx="148.9" cy="335.8" r="1.4"/><circle class="cls-17" cx="155.1" cy="341" r="3.1"/><circle class="cls-22" cx="154.8" cy="340.7" r="2.8"/><circle class="cls-11" cx="153.9" cy="339.8" r="1.4"/><circle class="cls-19" cx="155.2" cy="349" r="3.5"/><circle class="cls-9" cx="154.9" cy="348.8" r="3.2"/><circle class="cls-13" cx="153.8" cy="347.7" r="1.6"/><circle class="cls-19" cx="144.3" cy="359.4" r="3.5"/><circle class="cls-9" cx="144.1" cy="359.1" r="3.2"/><circle class="cls-13" cx="143" cy="358" r="1.6"/><circle class="cls-4" cx="143.1" cy="349" r="3.5"/><circle class="cls-5" cx="142.8" cy="348.8" r="3.2"/><circle class="cls-8" cx="141.7" cy="347.7" r="1.6"/><circle class="cls-4" cx="149.2" cy="353.7" r="3.5"/><circle class="cls-5" cx="148.9" cy="353.4" r="3.2"/><circle class="cls-8" cx="147.8" cy="352.3" r="1.6"/><circle class="cls-16" cx="148.9" cy="344.2" r="3.6"/><circle class="cls-20" cx="148.6" cy="343.9" r="3.3"/><circle class="cls-23" cx="147.5" cy="342.8" r="1.6"/><circle class="cls-16" cx="138" cy="354.8" r="3.6"/><circle class="cls-20" cx="137.7" cy="354.5" r="3.3"/><circle class="cls-23" cx="136.6" cy="353.4" r="1.6"/><circle class="cls-17" cx="145.4" cy="331.2" r="3.1"/><circle class="cls-22" cx="145.2" cy="331" r="2.8"/><circle class="cls-11" cx="144.2" cy="330.1" r="1.4"/><circle class="cls-17" cx="286.3" cy="371.5" r="3.1"/><circle class="cls-22" cx="286.5" cy="371.3" r="2.8"/><circle class="cls-11" cx="287.4" cy="370.3" r="1.4"/><circle class="cls-17" cx="279.7" cy="374.6" r="3.1"/><circle class="cls-22" cx="279.9" cy="374.4" r="2.8"/><circle class="cls-11" cx="280.9" cy="373.4" r="1.4"/><circle class="cls-17" cx="273.4" cy="370.8" r="3.1"/><circle class="cls-22" cx="273.7" cy="370.5" r="2.8"/><circle class="cls-11" cx="274.6" cy="369.5" r="1.4"/><circle class="cls-17" cx="280.9" cy="367.3" r="3.1"/><circle class="cls-22" cx="281.1" cy="367.1" r="2.8"/><circle class="cls-11" cx="282.1" cy="366.1" r="1.4"/><circle class="cls-17" cx="273.4" cy="378.9" r="3.1"/><circle class="cls-22" cx="273.6" cy="378.7" r="2.8"/><circle class="cls-11" cx="274.5" cy="377.7" r="1.4"/><circle class="cls-17" cx="289.4" cy="377.6" r="3.1"/><circle class="cls-22" cx="289.7" cy="377.4" r="2.8"/><circle class="cls-11" cx="290.6" cy="376.4" r="1.4"/><circle class="cls-17" cx="283.2" cy="380.6" r="3.1"/><circle class="cls-22" cx="283.5" cy="380.4" r="2.8"/><circle class="cls-11" cx="284.4" cy="379.4" r="1.4"/><circle class="cls-17" cx="464.8" cy="488" r="3.1"/><circle class="cls-22" cx="464.6" cy="487.8" r="2.8"/><circle class="cls-11" cx="463.7" cy="486.9" r="1.4"/><circle class="cls-17" cx="462.7" cy="496.2" r="3.1"/><circle class="cls-22" cx="462.5" cy="496" r="2.8"/><circle class="cls-11" cx="461.6" cy="495.1" r="1.4"/><circle class="cls-17" cx="453.6" cy="496.3" r="3.1"/><circle class="cls-22" cx="453.4" cy="496" r="2.8"/><circle class="cls-11" cx="452.4" cy="495.1" r="1.4"/><circle class="cls-17" cx="459.6" cy="503.3" r="3.1"/><circle class="cls-22" cx="459.4" cy="503" r="2.8"/><circle class="cls-11" cx="458.4" cy="502.1" r="1.4"/><circle class="cls-17" cx="470" cy="503.4" r="3.1"/><circle class="cls-22" cx="469.7" cy="503.1" r="2.8"/><circle class="cls-11" cx="468.8" cy="502.2" r="1.4"/><circle class="cls-17" cx="478" cy="499.3" r="3.1"/><circle class="cls-22" cx="477.8" cy="499" r="2.8"/><circle class="cls-11" cx="476.8" cy="498.1" r="1.4"/><circle class="cls-17" cx="471.9" cy="494.2" r="3.1"/><circle class="cls-22" cx="471.7" cy="493.9" r="2.8"/><circle class="cls-11" cx="470.7" cy="493" r="1.4"/><path class="cls-7" d="m329.65,213.17c-6.4,0-11.59,5.19-11.59,11.59s5.19,11.59,11.59,11.59,11.59-5.19,11.59-11.59-5.19-11.59-11.59-11.59Zm-.13,17.84c-3.43,0-6.22-2.78-6.22-6.22s2.78-6.22,6.22-6.22,6.22,2.78,6.22,6.22-2.78,6.22-6.22,6.22Z"/><path class="cls-35" d="m329.65,214.45c-5.69,0-10.3,4.61-10.3,10.3s4.61,10.3,10.3,10.3,10.3-4.61,10.3-10.3-4.61-10.3-10.3-10.3Zm0,17.44c-3.94,0-7.13-3.19-7.13-7.13s3.19-7.13,7.13-7.13,7.13,3.19,7.13,7.13-3.19,7.13-7.13,7.13Z"/><path class="cls-12" d="m325.08,219.28c1.21-1.01,2.75-1.62,4.44-1.65v-3.17c-2.56.03-4.89,1-6.68,2.58l2.24,2.24Z"/><path class="cls-42" d="m339.27,228.42c.43-1.14.68-2.37.68-3.67,0-3.44-1.69-6.48-4.28-8.35-.62.85-1.25,1.7-1.87,2.55,1.81,1.29,2.99,3.4,2.99,5.8,0,.96-.19,1.88-.54,2.72,1.01.32,2.02.63,3.02.95Z"/><path class="cls-38" d="m337.05,231.91c-.84-.65-1.68-1.31-2.52-1.96-1.28,1.2-2.99,1.94-4.88,1.94-.5,0-.99-.05-1.46-.15-.21,1.03-.42,2.07-.63,3.1.67.14,1.37.21,2.08.21,2.91,0,5.53-1.21,7.4-3.15Z"/><path class="cls-41" d="m320.2,220.66c.98.4,1.96.8,2.94,1.2.31-.7.74-1.35,1.25-1.91-.71-.78-1.43-1.57-2.14-2.35-.85.88-1.55,1.92-2.05,3.06Z"/><path class="cls-42" d="m322.52,224.76c0-.47.05-.92.13-1.36l-3.06-.84c-.15.71-.24,1.44-.24,2.19,0,3.54,1.79,6.67,4.52,8.52l1.75-2.64c-1.87-1.29-3.1-3.44-3.1-5.88Z"/></svg>