<svg width="20" height="60" viewBox="0 0 20 60" fill="none" xmlns="http://www.w3.org/2000/svg">
<path d="M19 5H1V50H19V5Z" fill="#868CA6"/>
<path d="M18 5H2V50H18V5Z" fill="#AFB3C5"/>
<path d="M1 50H19L11.6005 59.2494C11.2209 59.7238 10.6463 60 10.0388 60H9.96125C9.35368 60 8.77906 59.7238 8.39951 59.2494L1 50Z" fill="#868CA6"/>
<path d="M2 50H18L11.44 58.3025C11.0919 58.743 10.5614 59 10 59C9.4386 59 8.90808 58.743 8.56004 58.3025L2 50Z" fill="#AFB3C5"/>
<path fill-rule="evenodd" clip-rule="evenodd" d="M17 25.6826H3L3.00008 49.7497L8.74011 57.0144C9.04465 57.3998 9.50886 57.6247 10.0001 57.6247C10.4913 57.6247 10.9555 57.3998 11.2601 57.0144L16.9998 49.75L17 25.6826Z" fill="#3FB0E0"/>
<path d="M11 12.5C10.7239 12.5 10.5 12.7239 10.5 13C10.5 13.2761 10.7239 13.5 11 13.5V12.5ZM11 13.5H19V12.5H11V13.5Z" fill="#0063C3"/>
<path d="M11 17.5C10.7239 17.5 10.5 17.7239 10.5 18C10.5 18.2761 10.7239 18.5 11 18.5V17.5ZM11 18.5H19V17.5H11V18.5Z" fill="#0063C3"/>
<path d="M11 22.5C10.7239 22.5 10.5 22.7239 10.5 23C10.5 23.2761 10.7239 23.5 11 23.5V22.5ZM11 23.5H19V22.5H11V23.5Z" fill="#0063C3"/>
<path d="M11 27.5C10.7239 27.5 10.5 27.7239 10.5 28C10.5 28.2761 10.7239 28.5 11 28.5V27.5ZM11 28.5H19V27.5H11V28.5Z" fill="#0063C3"/>
<path d="M11 32.5C10.7239 32.5 10.5 32.7239 10.5 33C10.5 33.2761 10.7239 33.5 11 33.5V32.5ZM11 33.5H19V32.5H11V33.5Z" fill="#0063C3"/>
<path d="M11 37.5C10.7239 37.5 10.5 37.7239 10.5 38C10.5 38.2761 10.7239 38.5 11 38.5V37.5ZM11 38.5H19V37.5H11V38.5Z" fill="#0063C3"/>
<path d="M11 42.5C10.7239 42.5 10.5 42.7239 10.5 43C10.5 43.2761 10.7239 43.5 11 43.5V42.5ZM11 43.5H19V42.5H11V43.5Z" fill="#0063C3"/>
<path d="M20 5H0V6H20V5Z" fill="#797E95"/>
<rect x="0.949219" y="8.26416" width="17.9961" height="16.0877" fill="white"/>
<ellipse cx="9.94715" cy="16.3082" rx="4.99891" ry="5.02742" fill="#78C871"/>
<path fill-rule="evenodd" clip-rule="evenodd" d="M7 57.5682L13.9273 48.9091V5H18.9454V50L11.5459 59.2494C11.1664 59.7238 10.5918 60 9.9842 60H9.9067C9.29913 60 8.72451 59.7238 8.34496 59.2494L7 57.5682Z" fill="black" fill-opacity="0.1"/>
</svg>
