<svg xmlns="http://www.w3.org/2000/svg" width="40" height="86" fill="none" viewBox="0 0 40 86">
    <path fill="#868CA6" d="M13.046 85.58c-.889 0-2.245-.325-2.994-.558-.748-.233-1.356-2.935-1.356-2.935-1.965-7.64-4.624-18.883-4.685-25.66C4 55.084 4.011 29 4.011 29h18.052v27.427c0 7-3.123 18.02-5.087 25.66 0 0-.609 2.702-1.357 2.935-.748.233-2.105.559-2.994.559"/>
    <path fill="#C0C3D2" d="M12.992 84.641c-.795 0-2.011-.28-2.666-.512-.655-.186-1.216-2.656-1.216-2.656C7.332 74.626 5.53 64.53 5.015 58.52V30.426H21.06s.281 24.925 0 28.093c-.514 6.01-2.735 16.06-4.512 22.908 0 0-.562 2.422-1.217 2.655-.655.187-1.87.513-2.666.513" opacity=".7"/>
    <path fill="#868CA6" d="M2.006 29h23.066v2H2.006z"/>
    <path fill="#99DFF9" d="M12.992 84.642c-.795 0-2.011-.28-2.666-.513-.655-.186-1.216-2.655-1.216-2.655-1.778-6.849-3.58-16.945-4.095-22.955V55H21.06v3.52c-.514 6.009-2.735 16.059-4.512 22.907 0 0-.562 2.423-1.217 2.656-.655.186-1.87.512-2.666.512" opacity=".7"/>
    <path fill="#fff" d="M4.012 37.427h18.052v16H4.012z"/>
    <path fill="#000" fill-opacity=".1" d="M17.049 31h5.014v26.51c0 2.945-2.006 12.272-2.006 12.272s-3.792 14.513-4.011 14.727c-.22.215-3.009.491-3.009.491l4.012-27.49V31z"/>
    <path fill="#868CA6" d="M0 26h26.074v2H0z"/>
    <path fill="#577898" d="M5.015 28h16.046v1H5.015z"/>
    <path fill="#868CA6" fill-rule="evenodd" d="M28.755 27.123c.25.422.328.903.328 1.377s-.077.955-.328 1.377c-.266.447-.658.716-1.075.872-.39.146-.822.2-1.23.226-.407.025-.872.025-1.356.025h-.023v-2c.511 0 .916 0 1.254-.021.344-.022.54-.061.65-.103a.406.406 0 0 0 .05-.022l.008-.004a1.351 1.351 0 0 0 .044-.35c0-.134-.011-.224-.024-.282a.422.422 0 0 0-.02-.068l-.007-.004a.406.406 0 0 0-.05-.022c-.111-.042-.307-.081-.651-.102A21.652 21.652 0 0 0 25.071 28v-2h.023c.484 0 .949 0 1.356.025.408.026.84.08 1.23.226.417.156.81.426 1.075.872z" clip-rule="evenodd"/>
    <ellipse xmlns="http://www.w3.org/2000/svg" cx="13.0315" cy="45.4268" rx="5.01429" ry="5" fill="#CCD8E1"/>
</svg>
