<svg width="132" height="127" viewBox="0 0 132 127" fill="none" xmlns="http://www.w3.org/2000/svg">
<path d="M0 5C0 2.23857 2.23858 0 5 0H132V127H5C2.23858 127 0 124.761 0 122V5Z" fill="#01496E"/>
<rect y="105" width="132" height="10" fill="#B0C3D0"/>
<path d="M0 115H132V127H5C2.23858 127 0 124.761 0 122V115Z" fill="#99B2C4"/>
<path fill-rule="evenodd" clip-rule="evenodd" d="M61.6217 54.7205L59.0432 29.7479C58.9051 29.0319 59.0659 28.4842 59.9995 28.4824L85.5724 28.4833C86.47 28.4833 86.628 28.9796 86.5325 29.5806L83.5047 54.9869C83.5047 59.9712 87.2529 64.0018 89.8206 66.763L89.8903 66.838L94.2272 71.1236C95.227 72.1125 95.228 73.7128 94.2272 74.6989C93.2293 75.6887 91.6071 75.6887 90.6102 74.6989L86.0028 70.145C85.3804 69.6767 84.9519 69.8459 84.9538 70.7797L84.9519 75.2877L84.9576 75.2877L84.9557 91.9601C84.9557 93.3547 83.8112 94.4885 82.3999 94.4885L82.398 94.4885C80.9877 94.4885 79.8413 93.3556 79.8422 91.9601L79.8422 75.9822C79.8129 75.0139 78.0819 74.9634 78.1094 75.9832L78.1094 95.0727C78.1094 96.4672 76.9658 97.6001 75.5545 97.6001L75.5517 97.5992C74.1423 97.6001 72.9959 96.4663 72.9959 95.0736L72.9959 75.9822C72.9959 74.997 71.265 74.8634 71.265 75.9813L71.264 91.4376C71.264 92.834 70.1195 93.966 68.7082 93.9669L68.7045 93.9669C67.2951 93.9669 66.1468 92.834 66.1468 91.4385L66.1468 75.9822C66.1477 74.9793 64.4177 74.9755 64.4187 75.9813L64.4168 86.5528C64.4168 87.9474 63.2732 89.0803 61.861 89.0803L61.8591 89.0812C60.4479 89.0803 59.3024 87.9474 59.3024 86.5528L59.3033 71.9574L59.2882 71.9134C59.2947 71.7531 59.2994 71.5928 59.3041 71.4334L59.3043 71.4265L59.3043 71.4845C59.3029 71.5225 59.3017 71.5605 59.3005 71.5985L59.3043 71.5985L59.3043 71.4845C59.402 68.7255 59.9503 65.9339 60.489 63.191C61.0608 60.28 61.6217 57.4239 61.6217 54.7205ZM72.8058 35.6099C74.0356 35.6099 75.0325 34.613 75.0325 33.3832C75.0325 32.1535 74.0356 31.1566 72.8058 31.1566C71.5761 31.1566 70.5792 32.1535 70.5792 33.3832C70.5792 34.613 71.5761 35.6099 72.8058 35.6099Z" fill="#0063C3"/>
<path fill-rule="evenodd" clip-rule="evenodd" d="M59.9346 29.7479L62.513 54.7205C62.513 60.0062 60.3687 65.8752 60.1919 71.5984L60.1956 71.5984L60.1956 71.4265C60.1909 71.5882 60.1862 71.7508 60.1796 71.9134L60.1947 71.9574L60.1937 86.5528C60.1937 87.9474 61.3392 89.0803 62.7505 89.0812L62.7524 89.0803C64.1646 89.0803 65.3081 87.9474 65.3081 86.5528L65.31 75.9813C65.3091 74.9755 67.0391 74.9793 67.0381 75.9822L67.0381 91.4385C67.0381 92.834 68.1865 93.9669 69.5958 93.9669L69.5996 93.9669C71.0109 93.966 72.1554 92.834 72.1554 91.4376L72.1563 75.9813C72.1563 74.8634 73.8873 74.997 73.8873 75.9822L73.8873 95.0736C73.8873 96.4663 75.0337 97.6001 76.4431 97.5992L76.4459 97.6001C77.8572 97.6001 79.0007 96.4672 79.0007 95.0727L79.0007 75.9832C78.9733 74.9634 80.7043 75.0139 80.7336 75.9822L80.7336 91.9601C80.7326 93.3556 81.8791 94.4885 83.2894 94.4885L83.2913 94.4885C84.7025 94.4885 85.847 93.3547 85.847 91.9601L85.8489 75.2877L85.8432 75.2877L85.8451 70.7797C85.8432 69.8459 86.2717 69.6767 86.8941 70.145L91.5015 74.6989C92.4985 75.6887 94.1207 75.6887 95.1186 74.6989C96.1193 73.7128 96.1184 72.1125 95.1186 71.1236L90.7817 66.838C88.2127 64.075 84.396 60.0165 84.396 54.9869L87.4238 29.5806C87.5194 28.9796 87.3614 28.4833 86.4637 28.4833L60.8909 28.4823C59.9573 28.4842 59.7965 29.032 59.9346 29.7479Z" fill="#00AEEF"/>
<path fill-rule="evenodd" clip-rule="evenodd" d="M92.6217 54.7205L90.0432 29.7479C89.9051 29.0319 90.0659 28.4842 90.9995 28.4824L116.572 28.4833C117.47 28.4833 117.628 28.9796 117.532 29.5806L114.505 54.9869C114.505 59.9712 118.253 64.0018 120.821 66.763L120.89 66.838L125.227 71.1236C126.227 72.1125 126.228 73.7128 125.227 74.6989C124.229 75.6887 122.607 75.6887 121.61 74.6989L117.003 70.145C116.38 69.6767 115.952 69.8459 115.954 70.7797L115.952 75.2877L115.958 75.2877L115.956 91.9601C115.956 93.3547 114.811 94.4885 113.4 94.4885L113.398 94.4885C111.988 94.4885 110.841 93.3556 110.842 91.9601L110.842 75.9822C110.813 75.0139 109.082 74.9634 109.109 75.9832L109.109 95.0727C109.109 96.4672 107.966 97.6001 106.555 97.6001L106.552 97.5992C105.142 97.6001 103.996 96.4663 103.996 95.0736L103.996 75.9822C103.996 74.997 102.265 74.8634 102.265 75.9813L102.264 91.4376C102.264 92.834 101.119 93.966 99.7082 93.9669L99.7045 93.9669C98.2951 93.9669 97.1468 92.834 97.1468 91.4385L97.1468 75.9822C97.1477 74.9793 95.4177 74.9755 95.4187 75.9813L95.4168 86.5528C95.4168 87.9474 94.2732 89.0803 92.861 89.0803L92.8591 89.0812C91.4479 89.0803 90.3024 87.9474 90.3024 86.5528L90.3033 71.9574L90.2882 71.9134C90.2947 71.7531 90.2994 71.5928 90.3041 71.4334L90.3043 71.4265L90.3043 71.4845C90.3029 71.5225 90.3017 71.5605 90.3005 71.5985L90.3043 71.5985L90.3043 71.4845C90.402 68.7255 90.9503 65.9339 91.489 63.191C92.0608 60.28 92.6217 57.4239 92.6217 54.7205ZM103.806 35.6099C105.036 35.6099 106.032 34.613 106.032 33.3832C106.032 32.1535 105.036 31.1566 103.806 31.1566C102.576 31.1566 101.579 32.1535 101.579 33.3832C101.579 34.613 102.576 35.6099 103.806 35.6099Z" fill="#0063C3"/>
<path fill-rule="evenodd" clip-rule="evenodd" d="M90.9346 29.7479L93.513 54.7205C93.513 60.0062 91.3687 65.8752 91.1919 71.5984L91.1956 71.5984L91.1956 71.4265C91.1909 71.5882 91.1862 71.7508 91.1796 71.9134L91.1947 71.9574L91.1937 86.5528C91.1937 87.9474 92.3392 89.0803 93.7505 89.0812L93.7524 89.0803C95.1646 89.0803 96.3081 87.9474 96.3081 86.5528L96.31 75.9813C96.3091 74.9755 98.0391 74.9793 98.0381 75.9822L98.0381 91.4385C98.0381 92.834 99.1865 93.9669 100.596 93.9669L100.6 93.9669C102.011 93.966 103.155 92.834 103.155 91.4376L103.156 75.9813C103.156 74.8634 104.887 74.997 104.887 75.9822L104.887 95.0736C104.887 96.4663 106.034 97.6001 107.443 97.5992L107.446 97.6001C108.857 97.6001 110.001 96.4672 110.001 95.0727L110.001 75.9832C109.973 74.9634 111.704 75.0139 111.734 75.9822L111.734 91.9601C111.733 93.3556 112.879 94.4885 114.289 94.4885L114.291 94.4885C115.703 94.4885 116.847 93.3547 116.847 91.9601L116.849 75.2877L116.843 75.2877L116.845 70.7797C116.843 69.8459 117.272 69.6767 117.894 70.145L122.502 74.6989C123.498 75.6887 125.121 75.6887 126.119 74.6989C127.119 73.7128 127.118 72.1125 126.119 71.1236L121.782 66.838C119.213 64.075 115.396 60.0165 115.396 54.9869L118.424 29.5806C118.519 28.9796 118.361 28.4833 117.464 28.4833L91.8909 28.4823C90.9573 28.4842 90.7965 29.032 90.9346 29.7479Z" fill="#00AEEF"/>
<ellipse cx="33" cy="110" rx="27" ry="3" fill="#99B2C4" fill-opacity="0.5"/>
<path d="M53.794 91.18C53.381 87.3174 52.1922 76.251 44.88 70.8617C43.4909 69.8397 41.8182 68.9721 40.279 66.7404C37.9848 63.4076 37.8847 59.7786 37.8347 56.6292C37.8013 54.3392 38.0057 50.7102 39.4281 46.3971C39.8911 44.9997 39.7618 43.4688 39.0861 42.1591L37.4592 38.9972C37.1381 38.3757 36.6166 37.9961 35.9618 37.75H24.7911C23.7232 38.3423 22.1256 39.431 20.9243 41.3123C20.2402 42.3843 19.919 43.3437 19.7438 43.9318C18.3047 48.7288 18.8845 54.2266 18.2088 58.6565C17.5747 62.8194 15.9479 65.2805 15.0136 67.2493C12.5066 72.5469 10.7213 83.4047 13.1615 107.36C13.3659 109.379 15.072 110.919 17.0992 110.919H47.8249C49.4642 110.919 50.9367 109.913 51.5207 108.382C52.9723 104.57 54.5782 98.5131 53.794 91.18Z" fill="#CCCCCC"/>
<path d="M35.0607 39.8732C33.4423 44.7786 33.2045 48.904 33.2462 51.5111C33.3004 55.0942 33.4131 59.2238 36.0285 63.0155C37.5718 65.2555 39.2404 66.2899 40.6961 67.2994C40.5585 67.1242 40.4208 66.9407 40.2832 66.7404C37.989 63.4076 37.8889 59.7786 37.8388 56.6292C37.8054 54.3392 38.0098 50.7102 39.4322 46.3971C39.8952 44.9997 39.7659 43.4688 39.0902 42.1591L37.4634 38.9972C37.1422 38.3757 36.6208 37.9961 35.9659 37.75H35.3611C35.3819 38.4675 35.2901 39.1849 35.0607 39.8732Z" fill="#E2E2E2"/>
<path d="M53.794 91.1805C53.381 87.3179 52.1922 76.2515 44.8799 70.8622C44.6255 70.6745 44.3585 70.4909 44.0874 70.3032C49.9022 76.8813 50.9867 86.9758 51.3997 90.8176C52.2923 99.1602 50.4653 106.051 48.8093 110.393C48.7509 110.544 48.6842 110.69 48.6091 110.836C49.9147 110.569 51.0284 109.668 51.5165 108.387C52.9722 104.57 54.5782 98.5136 53.794 91.1805Z" fill="#E2E2E2"/>
<path opacity="0.32" d="M17.7458 107.423C15.3473 83.8841 17.1034 73.2223 19.5644 68.0166C20.4821 66.0811 22.0797 63.6659 22.7012 59.5739C23.3645 55.2191 22.7972 49.8173 24.2071 45.1037C24.3781 44.5281 24.6951 43.5812 25.3667 42.53C26.5472 40.6822 28.1156 39.6143 29.1667 39.0303H37.4759L37.4592 39.0011C37.1381 38.3796 36.6166 38 35.9618 37.7539H24.7911C23.7232 38.3462 22.1256 39.4349 20.9243 41.3162C20.2402 42.3882 19.919 43.3476 19.7438 43.9358C18.3047 48.7327 18.8845 54.2305 18.2088 58.6604C17.5747 62.8233 15.9479 65.2844 15.0136 67.2532C12.5066 72.5508 10.7213 83.4086 13.1615 107.364C13.3659 109.383 15.072 110.922 17.0992 110.922H21.6167C19.6187 110.922 17.946 109.408 17.7458 107.423Z" fill="#A0A0A0"/>
<path d="M24.7911 37.7545H35.966V36.6699C33.409 36.6699 27.686 36.6699 24.7911 36.6699V37.7545Z" fill="#DD260E"/>
<path d="M36.0994 29.1572H24.5784H23.8108V36.6655C24.0778 36.6655 24.4073 36.6655 24.7869 36.6655C27.6818 36.6655 33.4048 36.6655 35.9618 36.6655C36.3289 36.6655 36.6292 36.6655 36.8461 36.6655L36.867 29.1572H36.0994Z" fill="#FB6A4B"/>
<path d="M26.201 27.9604C25.9924 27.9688 25.6921 28.0188 25.3792 28.1982C24.837 28.5111 24.6326 29.0116 24.5825 29.1576H36.1036C36.0994 29.0283 36.0619 28.8322 35.7782 28.5027C35.3861 28.0397 35.0274 27.9688 34.8981 27.9604H34.8522H26.3845H26.201Z" fill="#DD260E"/>
<path d="M35.6489 36.3582C35.5572 36.3582 35.4821 36.2831 35.4821 36.1914V29.6424C35.4821 29.5507 35.5572 29.4756 35.6489 29.4756C35.7407 29.4756 35.8158 29.5507 35.8158 29.6424V36.1914C35.82 36.2831 35.7449 36.3582 35.6489 36.3582Z" fill="#E5543C"/>
<path d="M34.773 36.3582C34.6812 36.3582 34.6061 36.2831 34.6061 36.1914V29.6424C34.6061 29.5507 34.6812 29.4756 34.773 29.4756C34.8648 29.4756 34.9398 29.5507 34.9398 29.6424V36.1914C34.9398 36.2831 34.8648 36.3582 34.773 36.3582Z" fill="#E5543C"/>
<path d="M33.8928 36.3582C33.8011 36.3582 33.726 36.2831 33.726 36.1914V29.6424C33.726 29.5507 33.8011 29.4756 33.8928 29.4756C33.9846 29.4756 34.0597 29.5507 34.0597 29.6424V36.1914C34.0597 36.2831 33.9846 36.3582 33.8928 36.3582Z" fill="#E5543C"/>
<path d="M33.0127 36.3582C32.921 36.3582 32.8459 36.2831 32.8459 36.1914V29.6424C32.8459 29.5507 32.921 29.4756 33.0127 29.4756C33.1045 29.4756 33.1796 29.5507 33.1796 29.6424V36.1914C33.1837 36.2831 33.1087 36.3582 33.0127 36.3582Z" fill="#E5543C"/>
<path d="M32.1367 36.3582C32.0449 36.3582 31.9698 36.2831 31.9698 36.1914V29.6424C31.9698 29.5507 32.0449 29.4756 32.1367 29.4756C32.2284 29.4756 32.3035 29.5507 32.3035 29.6424V36.1914C32.3035 36.2831 32.2284 36.3582 32.1367 36.3582Z" fill="#E5543C"/>
<path d="M31.2565 36.3582C31.1648 36.3582 31.0897 36.2831 31.0897 36.1914V29.6424C31.0897 29.5507 31.1648 29.4756 31.2565 29.4756C31.3483 29.4756 31.4234 29.5507 31.4234 29.6424V36.1914C31.4234 36.2831 31.3483 36.3582 31.2565 36.3582Z" fill="#E5543C"/>
<path d="M30.3764 36.3582C30.2846 36.3582 30.2095 36.2831 30.2095 36.1914V29.6424C30.2095 29.5507 30.2846 29.4756 30.3764 29.4756C30.4681 29.4756 30.5432 29.5507 30.5432 29.6424V36.1914C30.5474 36.2831 30.4723 36.3582 30.3764 36.3582Z" fill="#E5543C"/>
<path d="M29.5004 36.3582C29.4087 36.3582 29.3336 36.2831 29.3336 36.1914V29.6424C29.3336 29.5507 29.4087 29.4756 29.5004 29.4756C29.5922 29.4756 29.6673 29.5507 29.6673 29.6424V36.1914C29.6673 36.2831 29.5922 36.3582 29.5004 36.3582Z" fill="#E5543C"/>
<path d="M28.6203 36.3582C28.5286 36.3582 28.4535 36.2831 28.4535 36.1914V29.6424C28.4535 29.5507 28.5286 29.4756 28.6203 29.4756C28.7121 29.4756 28.7872 29.5507 28.7872 29.6424V36.1914C28.7872 36.2831 28.7121 36.3582 28.6203 36.3582Z" fill="#E5543C"/>
<path d="M27.7402 36.3582C27.6484 36.3582 27.5733 36.2831 27.5733 36.1914V29.6424C27.5733 29.5507 27.6484 29.4756 27.7402 29.4756C27.8319 29.4756 27.907 29.5507 27.907 29.6424V36.1914C27.9112 36.2831 27.8361 36.3582 27.7402 36.3582Z" fill="#E5543C"/>
<path d="M26.8642 36.3582C26.7724 36.3582 26.6973 36.2831 26.6973 36.1914V29.6424C26.6973 29.5507 26.7724 29.4756 26.8642 29.4756C26.9559 29.4756 27.031 29.5507 27.031 29.6424V36.1914C27.031 36.2831 26.9559 36.3582 26.8642 36.3582Z" fill="#E5543C"/>
<path d="M25.9841 36.3582C25.8923 36.3582 25.8172 36.2831 25.8172 36.1914V29.6424C25.8172 29.5507 25.8923 29.4756 25.9841 29.4756C26.0758 29.4756 26.1509 29.5507 26.1509 29.6424V36.1914C26.1509 36.2831 26.0758 36.3582 25.9841 36.3582Z" fill="#E5543C"/>
<path d="M25.1039 36.3582C25.0121 36.3582 24.937 36.2831 24.937 36.1914V29.6424C24.937 29.5507 25.0121 29.4756 25.1039 29.4756C25.1956 29.4756 25.2707 29.5507 25.2707 29.6424V36.1914C25.2749 36.2831 25.1998 36.3582 25.1039 36.3582Z" fill="#E5543C"/>
<path d="M36.529 36.3582C36.4373 36.3582 36.3622 36.2831 36.3622 36.1914V29.6424C36.3622 29.5507 36.4373 29.4756 36.529 29.4756C36.6208 29.4756 36.6959 29.5507 36.6959 29.6424V36.1914C36.6959 36.2831 36.6208 36.3582 36.529 36.3582Z" fill="#E5543C"/>
<path d="M24.2279 36.3582C24.1362 36.3582 24.0611 36.2831 24.0611 36.1914V29.6424C24.0611 29.5507 24.1362 29.4756 24.2279 29.4756C24.3197 29.4756 24.3948 29.5507 24.3948 29.6424V36.1914C24.3948 36.2831 24.3197 36.3582 24.2279 36.3582Z" fill="#E5543C"/>
<path d="M46.1731 20.3644C46.1773 20.3644 46.1773 20.3644 46.1731 20.3644C46.0229 19.234 45.927 17.9826 45.9312 16.6186C45.9353 15.3922 46.0229 14.2577 46.1564 13.2273C41.2468 13.1523 36.333 13.0772 31.4193 13.0021C27.9613 12.9479 24.57 13.9448 21.6877 15.8553C19.8565 17.0733 16.1816 19.5218 16.6404 21.8911C16.7614 22.521 17.1368 22.9381 17.3746 23.2009C18.9638 24.957 21.2538 23.9184 23.669 25.1823C24.4073 25.5702 25.4543 26.3252 26.3845 27.9603H34.8481C37.1923 26.8549 39.2446 25.8371 41.5889 24.7359C41.5972 24.7443 41.6055 24.7568 41.6097 24.7651C41.8016 24.4898 42.006 24.2145 42.2271 23.935C43.4409 22.4209 44.8133 21.2571 46.1731 20.3644Z" fill="#FB6A4B"/>
<path d="M46.1772 20.3646C46.3191 20.0684 46.5818 19.8348 46.9114 19.7347L49.4976 18.9672C50.5821 18.646 51.4581 17.7825 51.6958 16.6772C51.7417 16.4728 51.7626 16.26 51.7459 16.0473C51.7292 15.7803 51.6625 15.5217 51.5665 15.2756C51.1035 14.0743 49.9272 13.2942 48.6383 13.2734C47.8124 13.2609 46.9823 13.2484 46.1564 13.2358C46.0229 14.2661 45.9353 15.4007 45.9311 16.6271C45.927 17.9869 46.0271 19.2383 46.1772 20.3646Z" fill="#DD260E"/>
<path d="M24.3239 17.4362C25.3667 16.9189 28.1073 15.6759 36.8795 15.2337C39.3906 15.1086 42.4565 15.0419 45.9854 15.1712C46.0229 14.4912 46.0855 13.8447 46.1606 13.2357C41.2468 13.1523 36.333 13.0772 31.4193 13.0021C27.9613 12.9479 24.57 13.9448 21.6877 15.8553C19.8565 17.0733 16.1816 19.5218 16.6404 21.8911C16.7614 22.521 17.1368 22.9381 17.3746 23.2009C17.3787 23.2051 17.3787 23.2051 17.3829 23.2092C19.0347 21.0944 21.2872 18.9462 24.3239 17.4362Z" fill="#FB6A4B"/>
<path d="M38.2643 51.0937C38.5062 49.6588 38.8775 48.082 39.4322 46.401C39.8953 45.0036 39.7659 43.4727 39.0902 42.163L37.4634 39.0011C37.1422 38.3796 36.6208 38 35.9659 37.7539H24.791C23.7816 38.3129 22.3133 39.3181 21.1412 41.0033C24.2029 41.4664 27.5483 42.5008 30.8895 44.5072C34.0513 46.4093 36.4456 48.7286 38.2643 51.0937Z" fill="#B7B7B7"/>
<path d="M23.5105 40.5779C29.8008 40.678 35.2359 42.2464 39.6909 44.2903C39.6367 43.5562 39.4364 42.8304 39.0944 42.163L37.4676 39.0011C37.1464 38.3796 36.625 38 35.9701 37.7539H24.791C23.865 38.267 22.5427 39.1555 21.4248 40.6029C22.1089 40.5737 22.8013 40.5695 23.5105 40.5779Z" fill="#A0A0A0"/>
<path d="M48.4923 29.3033C46.9197 26.0873 46.3274 24.4813 46.1272 22.4666C46.1272 22.4541 46.1272 22.4416 46.123 22.4249C46.0688 21.8451 46.0521 21.3153 46.0563 20.8606C46.0605 20.6854 46.1022 20.5144 46.1731 20.3643C44.8091 21.2569 43.4409 22.4165 42.227 23.9349C42.006 24.2102 41.8016 24.4897 41.6097 24.765C41.764 24.9819 41.9351 25.2196 42.1186 25.4783C43.1406 26.9132 44.588 28.9446 46.0938 31.0594C48.6383 34.6301 50.1316 36.6907 51.2037 36.3611C51.5374 36.261 51.7459 35.9524 51.8752 35.6896C50.4862 33.2619 49.3641 31.0928 48.4923 29.3033Z" fill="#DD260E"/>
<path d="M20.4404 74.3363C20.4404 74.3363 19.018 77.3647 19.018 91.9016C19.018 106.439 21.525 105.346 32.4621 105.346C43.3992 105.346 47.0074 101.646 47.0074 90.5668C47.0074 79.4879 28.4702 72.4134 28.4702 62.6192C28.4702 52.825 21.5083 70.1859 20.4404 74.3363Z" fill="#0071BC"/>
<path d="M24.2279 91.9021C24.2279 77.3651 25.6503 74.3368 25.6503 74.3368C26.08 72.6599 27.4773 68.8265 28.9832 65.4978C28.6453 64.5635 28.4576 63.6041 28.4576 62.6197C28.4576 52.8255 21.4957 70.1822 20.4279 74.3368C20.4279 74.3368 19.0055 77.3651 19.0055 91.9021C19.0055 106.343 21.4832 105.363 32.2368 105.35C25.8631 105.183 24.2279 103.628 24.2279 91.9021Z" fill="#005F93"/>
<path d="M26.0758 92.35C26.4512 92.8005 26.8475 93.2385 27.2772 93.6639C28.7246 95.1114 30.3097 96.2501 31.9115 97.0594C33.4882 96.2751 34.7312 95.2031 34.7688 94.2396C34.7813 93.9017 34.6436 93.6389 34.4601 93.3761C31.9365 92.8589 29.2126 91.5449 27.6943 90.085C27.0602 90.7524 26.5096 91.5366 26.0758 92.35Z" fill="#F15A24"/>
<path d="M38.719 82.2248C33.8136 77.3194 27.2771 75.9053 24.1195 79.0671C21.4582 81.7284 22.0422 86.7924 25.2249 91.2515C25.521 90.8844 25.8381 90.5215 26.1843 90.1753C26.4679 89.8916 26.7599 89.6288 27.0602 89.3827C26.7224 88.9239 26.5221 88.465 26.5055 88.0187C26.4512 86.638 28.1615 86.1166 28.2657 84.0894C28.4076 81.3071 25.3125 79.8347 25.7713 78.9003C26.3511 77.7282 32.2452 78.0452 36.1244 81.6575C39.4948 84.7943 41.4637 90.5131 39.499 92.6322C38.9693 93.2036 38.1517 93.504 37.1881 93.5916C36.6792 95.1057 35.7282 96.6658 34.3808 98.0548C37.3466 98.9225 40.1289 98.5762 41.8766 96.8285C45.0385 93.6625 43.6244 87.1261 38.719 82.2248Z" fill="#F15A24"/>
<path d="M25.6378 97.4836C24.7076 96.4783 25.0372 94.3218 26.0758 92.3488C25.7755 91.9859 25.4877 91.6188 25.2249 91.2476C22.5761 94.522 21.9671 98.4347 23.9652 100.433C26.1843 102.652 30.781 101.659 34.2265 98.2136C34.2807 98.1594 34.3266 98.1052 34.3809 98.0468C33.5675 97.809 32.7374 97.4795 31.9115 97.0582C29.6756 98.1719 26.7641 98.6975 25.6378 97.4836Z" fill="white"/>
<path d="M27.6943 90.0922C27.7986 89.9837 27.9029 89.8752 28.0113 89.7751C30.7393 87.239 34.8814 87.0137 35.286 87.8397C35.6072 88.4946 33.434 89.529 33.5341 91.4854C33.58 92.4156 34.1097 92.8953 34.4601 93.3833C35.4279 93.5794 36.3622 93.6628 37.1881 93.5877C37.939 91.3686 37.7471 89.2579 36.4456 87.9565C34.4101 85.9209 30.3764 86.5924 27.0603 89.3789C27.2355 89.6208 27.4482 89.8586 27.6943 90.0922Z" fill="white"/>
<path d="M34.4601 93.3838C34.6478 93.6424 34.7855 93.9094 34.7688 94.2472C34.7312 95.2108 33.4882 96.2828 31.9114 97.067C32.7374 97.4842 33.5633 97.8137 34.3808 98.0556C35.724 96.6666 36.675 95.1065 37.1881 93.5924C36.3622 93.6633 35.4278 93.5798 34.4601 93.3838Z" fill="white"/>
<path d="M27.6943 90.0927C27.4482 89.8591 27.2355 89.6172 27.0603 89.3794C26.7641 89.6297 26.468 89.8883 26.1843 90.1719C25.8381 90.5182 25.5211 90.8811 25.2249 91.2481C25.4919 91.6194 25.7755 91.9864 26.0759 92.3493C26.5097 91.5359 27.0603 90.7518 27.6943 90.0927Z" fill="#F15A24"/>
</svg>
