<svg width="126" height="102" viewBox="0 0 126 102" fill="none" xmlns="http://www.w3.org/2000/svg">
<g clip-path="url(#clip0)">
<mask id="mask0" mask-type="alpha" maskUnits="userSpaceOnUse" x="-24" y="-153" width="161" height="285">
<rect x="-24" y="-153" width="160.484" height="284.286" fill="#C4C4C4"/>
</mask>
<g mask="url(#mask0)">
<path d="M34.0087 -417.706L76.1118 -417.939L73.9963 19.9133L63.9994 33.3968L47.3379 33.3967L37.341 19.9241L34.0087 -417.706Z" fill="#C6EDFC"/>
<path d="M38.8743 18.5629L38.0284 -127.514H72.7134L71.8674 18.5629L60.8697 32.7532H49.872L38.8743 18.5629Z" fill="#AA2F2F"/>
<path d="M47.9392 17.7281C47.9392 19.301 46.6791 20.567 45.1359 20.567C43.5926 20.567 42.3325 19.301 42.3325 17.7281C42.3325 16.1551 43.5926 14.8892 45.1359 14.8892C46.6791 14.8892 47.9392 16.1551 47.9392 17.7281Z" fill="#F5F7F9" stroke="#84BE60"/>
<path d="M54.5458 17.7281C54.5458 19.301 53.2857 20.567 51.7425 20.567C50.1993 20.567 48.9392 19.301 48.9392 17.7281C48.9392 16.1551 50.1993 14.8892 51.7425 14.8892C53.2857 14.8892 54.5458 16.1551 54.5458 17.7281Z" fill="#F5F7F9" stroke="#84BE60"/>
<path d="M61.1525 17.7281C61.1525 19.301 59.8924 20.567 58.3492 20.567C56.806 20.567 55.5458 19.301 55.5458 17.7281C55.5458 16.1551 56.806 14.8892 58.3492 14.8892C59.8924 14.8892 61.1525 16.1551 61.1525 17.7281Z" fill="#F5F7F9" stroke="#84BE60"/>
<path d="M67.7592 17.7281C67.7592 19.301 66.499 20.567 64.9558 20.567C63.4126 20.567 62.1525 19.301 62.1525 17.7281C62.1525 16.1551 63.4126 14.8892 64.9558 14.8892C66.499 14.8892 67.7592 16.1551 67.7592 17.7281Z" fill="#F5F7F9" stroke="#84BE60"/>
<path d="M51.2425 22.7364C51.2425 24.3093 49.9824 25.5753 48.4392 25.5753C46.896 25.5753 45.6358 24.3093 45.6358 22.7364C45.6358 21.1634 46.896 19.8975 48.4392 19.8975C49.9824 19.8975 51.2425 21.1634 51.2425 22.7364Z" fill="#F5F7F9" stroke="#84BE60"/>
<path d="M54.5458 27.7446C54.5458 29.3176 53.2857 30.5835 51.7425 30.5835C50.1993 30.5835 48.9392 29.3176 48.9392 27.7446C48.9392 26.1717 50.1993 24.9058 51.7425 24.9058C53.2857 24.9058 54.5458 26.1717 54.5458 27.7446Z" fill="#F5F7F9" stroke="#84BE60"/>
<path d="M61.1525 27.7446C61.1525 29.3176 59.8924 30.5835 58.3492 30.5835C56.806 30.5835 55.5458 29.3176 55.5458 27.7446C55.5458 26.1717 56.806 24.9058 58.3492 24.9058C59.8924 24.9058 61.1525 26.1717 61.1525 27.7446Z" fill="#F5F7F9" stroke="#84BE60"/>
<path d="M64.4558 22.7364C64.4558 24.3093 63.1957 25.5753 61.6525 25.5753C60.1093 25.5753 58.8492 24.3093 58.8492 22.7364C58.8492 21.1634 60.1093 19.8975 61.6525 19.8975C63.1957 19.8975 64.4558 21.1634 64.4558 22.7364Z" fill="#F5F7F9" stroke="#84BE60"/>
<path d="M57.8492 22.7364C57.8492 24.3093 56.589 25.5753 55.0458 25.5753C53.5026 25.5753 52.2425 24.3093 52.2425 22.7364C52.2425 21.1634 53.5026 19.8975 55.0458 19.8975C56.589 19.8975 57.8492 21.1634 57.8492 22.7364Z" fill="#F5F7F9" stroke="#84BE60"/>
<path d="M71.0625 12.7198C71.0625 14.2927 69.8024 15.5587 68.2592 15.5587C66.716 15.5587 65.4558 14.2927 65.4558 12.7198C65.4558 11.1468 66.716 9.88086 68.2592 9.88086C69.8024 9.88086 71.0625 11.1468 71.0625 12.7198Z" fill="#F5F7F9" stroke="#84BE60"/>
<path d="M64.4558 12.7198C64.4558 14.2927 63.1957 15.5587 61.6525 15.5587C60.1093 15.5587 58.8492 14.2927 58.8492 12.7198C58.8492 11.1468 60.1093 9.88086 61.6525 9.88086C63.1957 9.88086 64.4558 11.1468 64.4558 12.7198Z" fill="#F5F7F9" stroke="#84BE60"/>
<path d="M57.8492 12.7198C57.8492 14.2927 56.589 15.5587 55.0458 15.5587C53.5026 15.5587 52.2425 14.2927 52.2425 12.7198C52.2425 11.1468 53.5026 9.88086 55.0458 9.88086C56.589 9.88086 57.8492 11.1468 57.8492 12.7198Z" fill="#F5F7F9" stroke="#84BE60"/>
<path d="M51.2425 12.7198C51.2425 14.2927 49.9824 15.5587 48.4392 15.5587C46.896 15.5587 45.6358 14.2927 45.6358 12.7198C45.6358 11.1468 46.896 9.88086 48.4392 9.88086C49.9824 9.88086 51.2425 11.1468 51.2425 12.7198Z" fill="#F5F7F9" stroke="#84BE60"/>
<path d="M46.2875 12.7198C46.2875 14.2927 45.0274 15.5587 43.4842 15.5587C41.941 15.5587 40.6808 14.2927 40.6808 12.7198C40.6808 11.1468 41.941 9.88086 43.4842 9.88086C45.0274 9.88086 46.2875 11.1468 46.2875 12.7198Z" fill="#F5F7F9" stroke="#84BE60"/>
<path d="M54.5458 7.71144C54.5458 9.28437 53.2857 10.5503 51.7425 10.5503C50.1993 10.5503 48.9392 9.28437 48.9392 7.71144C48.9392 6.13851 50.1993 4.87256 51.7425 4.87256C53.2857 4.87256 54.5458 6.13851 54.5458 7.71144Z" fill="#F5F7F9" stroke="#84BE60"/>
<path d="M54.5458 -2.30515C54.5458 -0.732204 53.2857 0.533752 51.7425 0.533752C50.1993 0.533752 48.9392 -0.732204 48.9392 -2.30515C48.9392 -3.87809 50.1993 -5.14404 51.7425 -5.14404C53.2857 -5.14404 54.5458 -3.87809 54.5458 -2.30515Z" fill="#F5F7F9" stroke="#84BE60"/>
<path d="M61.1525 -2.30515C61.1525 -0.732204 59.8924 0.533752 58.3492 0.533752C56.806 0.533752 55.5458 -0.732204 55.5458 -2.30515C55.5458 -3.87809 56.806 -5.14404 58.3492 -5.14404C59.8924 -5.14404 61.1525 -3.87809 61.1525 -2.30515Z" fill="#F5F7F9" stroke="#84BE60"/>
<path d="M67.7592 -2.30515C67.7592 -0.732203 66.499 0.533752 64.9558 0.533752C63.4126 0.533752 62.1525 -0.732203 62.1525 -2.30515C62.1525 -3.87809 63.4126 -5.14404 64.9558 -5.14404C66.499 -5.14404 67.7592 -3.87809 67.7592 -2.30515Z" fill="#F5F7F9" stroke="#84BE60"/>
<path d="M69.4108 -2.30515C69.4108 -0.732204 68.1507 0.533752 66.6075 0.533752C65.0643 0.533752 63.8042 -0.732204 63.8042 -2.30515C63.8042 -3.87809 65.0643 -5.14404 66.6075 -5.14404C68.1507 -5.14404 69.4108 -3.87809 69.4108 -2.30515Z" fill="#F5F7F9" stroke="#84BE60"/>
<path d="M47.9392 -2.30515C47.9392 -0.732204 46.6791 0.533752 45.1359 0.533752C43.5926 0.533752 42.3325 -0.732204 42.3325 -2.30515C42.3325 -3.87809 43.5926 -5.14404 45.1359 -5.14404C46.6791 -5.14404 47.9392 -3.87809 47.9392 -2.30515Z" fill="#F5F7F9" stroke="#84BE60"/>
<path d="M46.2875 -2.30515C46.2875 -0.732204 45.0274 0.533752 43.4842 0.533752C41.941 0.533752 40.6808 -0.732204 40.6808 -2.30515C40.6808 -3.87809 41.941 -5.14404 43.4842 -5.14404C45.0274 -5.14404 46.2875 -3.87809 46.2875 -2.30515Z" fill="#F5F7F9" stroke="#84BE60"/>
<path d="M61.1525 7.71144C61.1525 9.28437 59.8924 10.5503 58.3492 10.5503C56.806 10.5503 55.5458 9.28437 55.5458 7.71144C55.5458 6.13851 56.806 4.87256 58.3492 4.87256C59.8924 4.87256 61.1525 6.13851 61.1525 7.71144Z" fill="#F5F7F9" stroke="#84BE60"/>
<path d="M67.7592 7.71144C67.7592 9.28437 66.499 10.5503 64.9558 10.5503C63.4126 10.5503 62.1525 9.28437 62.1525 7.71144C62.1525 6.13851 63.4126 4.87256 64.9558 4.87256C66.499 4.87256 67.7592 6.13851 67.7592 7.71144Z" fill="#F5F7F9" stroke="#84BE60"/>
<path d="M71.0625 7.71144C71.0625 9.28437 69.8024 10.5503 68.2592 10.5503C66.716 10.5503 65.4558 9.28437 65.4558 7.71144C65.4558 6.13851 66.716 4.87256 68.2592 4.87256C69.8024 4.87256 71.0625 6.13851 71.0625 7.71144Z" fill="#F5F7F9" stroke="#84BE60"/>
<path d="M47.9392 7.71144C47.9392 9.28437 46.6791 10.5503 45.1359 10.5503C43.5926 10.5503 42.3325 9.28437 42.3325 7.71144C42.3325 6.13851 43.5926 4.87256 45.1359 4.87256C46.6791 4.87256 47.9392 6.13851 47.9392 7.71144Z" fill="#F5F7F9" stroke="#84BE60"/>
<path d="M46.2875 7.71144C46.2875 9.28437 45.0274 10.5503 43.4842 10.5503C41.941 10.5503 40.6808 9.28437 40.6808 7.71144C40.6808 6.13851 41.941 4.87256 43.4842 4.87256C45.0274 4.87256 46.2875 6.13851 46.2875 7.71144Z" fill="#F5F7F9" stroke="#84BE60"/>
<path d="M57.8492 2.70314C57.8492 4.27607 56.589 5.54202 55.0458 5.54202C53.5026 5.54202 52.2425 4.27607 52.2425 2.70314C52.2425 1.13021 53.5026 -0.135742 55.0458 -0.135742C56.589 -0.135742 57.8492 1.13021 57.8492 2.70314Z" fill="#F5F7F9" stroke="#84BE60"/>
<path d="M64.4558 2.70314C64.4558 4.27607 63.1957 5.54202 61.6525 5.54202C60.1093 5.54202 58.8492 4.27607 58.8492 2.70314C58.8492 1.13021 60.1093 -0.135742 61.6525 -0.135742C63.1957 -0.135742 64.4558 1.13021 64.4558 2.70314Z" fill="#F5F7F9" stroke="#84BE60"/>
<path d="M71.0625 2.70314C71.0625 4.27607 69.8024 5.54202 68.2592 5.54202C66.716 5.54202 65.4558 4.27607 65.4558 2.70314C65.4558 1.13021 66.716 -0.135742 68.2592 -0.135742C69.8024 -0.135742 71.0625 1.13021 71.0625 2.70314Z" fill="#F5F7F9" stroke="#84BE60"/>
<path d="M51.2425 2.70314C51.2425 4.27607 49.9824 5.54202 48.4392 5.54202C46.896 5.54202 45.6358 4.27607 45.6358 2.70314C45.6358 1.13021 46.896 -0.135742 48.4392 -0.135742C49.9824 -0.135742 51.2425 1.13021 51.2425 2.70314Z" fill="#F5F7F9" stroke="#84BE60"/>
<path d="M46.2875 2.70314C46.2875 4.27607 45.0274 5.54202 43.4842 5.54202C41.941 5.54202 40.6808 4.27607 40.6808 2.70314C40.6808 1.13021 41.941 -0.135742 43.4842 -0.135742C45.0274 -0.135742 46.2875 1.13021 46.2875 2.70314Z" fill="#F5F7F9" stroke="#84BE60"/>
<path d="M34.0087 -417.705L76.1119 -417.939L73.9964 19.9138L63.9995 33.3973L47.338 33.3972L37.341 19.9246L34.0087 -417.705Z" fill="#C6EDFC" fill-opacity="0.6"/>
<path d="M47.3382 33.3979H63.9997L60.6674 51.618H50.6705L47.3382 33.3979Z" fill="#C6EDFC"/>
<path d="M50.6704 53.3374H60.6673V120.97H57.335L50.6704 100.761V53.3374Z" fill="#C6EDFC"/>
<path d="M55.6689 83.9185L60.6673 120.968H57.335L50.6704 100.759L55.6689 83.9185Z" fill="#6698AB"/>
<path d="M34.0087 -414.572H47.338V33.3959L37.341 19.9232L34.0087 -414.572Z" fill="#B1D8E8" fill-opacity="0.4"/>
<path d="M75.6624 -414.572H63.9993V33.3959L73.9962 19.9232L75.6624 -414.572Z" fill="#B1D8E8" fill-opacity="0.4"/>
<rect x="42.406" y="50.564" width="40.121" height="4.58524" fill="#C6EDFC"/>
<path d="M42.7795 56.4936L39.4472 59.8618L39.4472 46.3891L42.7795 49.7573L42.7795 56.4936Z" fill="#C6EDFC"/>
<rect x="39.4472" y="59.8618" width="3.33231" height="13.4727" transform="rotate(-180 39.4472 59.8618)" fill="#C6EDFC"/>
<rect x="32.7822" y="49.7583" width="3.3323" height="6.73633" fill="#3FB25F"/>
<rect x="16.121" y="43.0205" width="9.99691" height="20.2091" fill="#3FB25F"/>
<path d="M32.7822 49.7569L26.1176 43.0205V63.2296L32.7822 56.4932V49.7569Z" fill="#22803C" fill-opacity="0.6"/>
<rect x="96.1678" y="46.4609" width="13.3292" height="13.4727" transform="rotate(90 96.1678 46.4609)" fill="#93BDCD"/>
<path d="M111.009 49.793C112.114 49.793 113.009 50.6884 113.009 51.793L113.009 54.4576C113.009 55.5621 112.114 56.4576 111.009 56.4576L99.5363 56.4576L99.5363 49.793L111.009 49.793Z" fill="#3FB35F"/>
<path d="M67.854 56.458C66.7495 56.458 65.854 55.5626 65.854 54.458L65.854 51.7934C65.854 50.6888 66.7495 49.7934 67.854 49.7934L79.3267 49.7934L79.3267 56.458L67.854 56.458Z" fill="#3FB35F"/>
<path d="M99.5368 49.7932L99.5368 56.4578L96.1686 59.7901L96.1686 46.4609L99.5368 49.7932Z" fill="#22803C"/>
<path d="M79.3266 56.4582L79.3266 49.7936L82.6948 46.4613L82.6948 59.7905L79.3266 56.4582Z" fill="#22803C"/>
<mask id="mask1" mask-type="alpha" maskUnits="userSpaceOnUse" x="-24" y="-55" width="161" height="93">
<rect x="-24" y="-54.417" width="160.484" height="91.7051" fill="#C4C4C4"/>
</mask>
<g mask="url(#mask1)">
<path d="M34.0087 -416.558L76.1119 -416.791L73.9964 21.0613L63.9995 34.5447L47.338 34.5447L37.341 21.0721L34.0087 -416.558Z" fill="#FAAC48"/>
<path d="M47.3382 34.5459H63.9997L60.6674 51.3867H50.6705L47.3382 34.5459Z" fill="#FAAC48"/>
<path d="M38.8743 19.7104L38.0284 -126.366H72.7134L71.8674 19.7104L60.8697 33.9008H49.872L38.8743 19.7104Z" fill="#FFF7ED"/>
<g opacity="0.3">
<path d="M47.9392 18.875C47.9392 20.4479 46.6791 21.7138 45.1359 21.7138C43.5926 21.7138 42.3325 20.4479 42.3325 18.875C42.3325 17.3021 43.5926 16.0361 45.1359 16.0361C46.6791 16.0361 47.9392 17.3021 47.9392 18.875Z" fill="#FFF7ED" stroke="#FAAC48"/>
<path d="M54.5458 18.875C54.5458 20.4479 53.2857 21.7138 51.7425 21.7138C50.1993 21.7138 48.9392 20.4479 48.9392 18.875C48.9392 17.3021 50.1993 16.0361 51.7425 16.0361C53.2857 16.0361 54.5458 17.3021 54.5458 18.875Z" fill="#FFF7ED" stroke="#FAAC48"/>
<path d="M61.1525 18.875C61.1525 20.4479 59.8924 21.7138 58.3492 21.7138C56.806 21.7138 55.5459 20.4479 55.5459 18.875C55.5459 17.3021 56.806 16.0361 58.3492 16.0361C59.8924 16.0361 61.1525 17.3021 61.1525 18.875Z" fill="#FFF7ED" stroke="#FAAC48"/>
<path d="M67.7592 18.875C67.7592 20.4479 66.4991 21.7138 64.9558 21.7138C63.4126 21.7138 62.1525 20.4479 62.1525 18.875C62.1525 17.3021 63.4126 16.0361 64.9558 16.0361C66.4991 16.0361 67.7592 17.3021 67.7592 18.875Z" fill="#FFF7ED" stroke="#FAAC48"/>
<path d="M51.2425 23.8839C51.2425 25.4568 49.9824 26.7228 48.4392 26.7228C46.896 26.7228 45.6358 25.4568 45.6358 23.8839C45.6358 22.3109 46.896 21.0449 48.4392 21.0449C49.9824 21.0449 51.2425 22.3109 51.2425 23.8839Z" fill="#FFF7ED" stroke="#FAAC48"/>
<path d="M54.5458 28.8916C54.5458 30.4645 53.2857 31.7305 51.7425 31.7305C50.1993 31.7305 48.9392 30.4645 48.9392 28.8916C48.9392 27.3187 50.1993 26.0527 51.7425 26.0527C53.2857 26.0527 54.5458 27.3187 54.5458 28.8916Z" fill="#FFF7ED" stroke="#FAAC48"/>
<path d="M61.1525 28.8916C61.1525 30.4645 59.8924 31.7305 58.3492 31.7305C56.806 31.7305 55.5459 30.4645 55.5459 28.8916C55.5459 27.3187 56.806 26.0527 58.3492 26.0527C59.8924 26.0527 61.1525 27.3187 61.1525 28.8916Z" fill="#FFF7ED" stroke="#FAAC48"/>
<path d="M64.4559 23.8839C64.4559 25.4568 63.1957 26.7228 61.6525 26.7228C60.1093 26.7228 58.8492 25.4568 58.8492 23.8839C58.8492 22.3109 60.1093 21.0449 61.6525 21.0449C63.1957 21.0449 64.4559 22.3109 64.4559 23.8839Z" fill="#FFF7ED" stroke="#FAAC48"/>
<path d="M57.8492 23.8839C57.8492 25.4568 56.5891 26.7228 55.0459 26.7228C53.5027 26.7228 52.2425 25.4568 52.2425 23.8839C52.2425 22.3109 53.5027 21.0449 55.0459 21.0449C56.5891 21.0449 57.8492 22.3109 57.8492 23.8839Z" fill="#FFF7ED" stroke="#FAAC48"/>
<path d="M71.0625 13.8663C71.0625 15.4393 69.8024 16.7053 68.2592 16.7053C66.716 16.7053 65.4558 15.4393 65.4558 13.8663C65.4558 12.2933 66.716 11.0273 68.2592 11.0273C69.8024 11.0273 71.0625 12.2933 71.0625 13.8663Z" fill="#FFF7ED" stroke="#FAAC48"/>
<path d="M64.4559 13.8663C64.4559 15.4393 63.1957 16.7053 61.6525 16.7053C60.1093 16.7053 58.8492 15.4393 58.8492 13.8663C58.8492 12.2933 60.1093 11.0273 61.6525 11.0273C63.1957 11.0273 64.4559 12.2933 64.4559 13.8663Z" fill="#FFF7ED" stroke="#FAAC48"/>
<path d="M57.8492 13.8663C57.8492 15.4393 56.5891 16.7053 55.0459 16.7053C53.5027 16.7053 52.2425 15.4393 52.2425 13.8663C52.2425 12.2933 53.5027 11.0273 55.0459 11.0273C56.5891 11.0273 57.8492 12.2933 57.8492 13.8663Z" fill="#FFF7ED" stroke="#FAAC48"/>
<path d="M51.2425 13.8663C51.2425 15.4393 49.9824 16.7053 48.4392 16.7053C46.896 16.7053 45.6358 15.4393 45.6358 13.8663C45.6358 12.2933 46.896 11.0273 48.4392 11.0273C49.9824 11.0273 51.2425 12.2933 51.2425 13.8663Z" fill="#FFF7ED" stroke="#FAAC48"/>
<path d="M46.2875 13.8663C46.2875 15.4393 45.0274 16.7053 43.4842 16.7053C41.941 16.7053 40.6809 15.4393 40.6809 13.8663C40.6809 12.2933 41.941 11.0273 43.4842 11.0273C45.0274 11.0273 46.2875 12.2933 46.2875 13.8663Z" fill="#FFF7ED" stroke="#FAAC48"/>
<path d="M54.5458 8.85835C54.5458 10.4312 53.2857 11.6972 51.7425 11.6972C50.1993 11.6972 48.9392 10.4312 48.9392 8.85835C48.9392 7.28546 50.1993 6.01953 51.7425 6.01953C53.2857 6.01953 54.5458 7.28546 54.5458 8.85835Z" fill="#FFF7ED" stroke="#FAAC48"/>
<path d="M54.5458 -1.15863C54.5458 0.414332 53.2857 1.6803 51.7425 1.6803C50.1993 1.6803 48.9392 0.414332 48.9392 -1.15863C48.9392 -2.73159 50.1993 -3.99756 51.7425 -3.99756C53.2857 -3.99756 54.5458 -2.73159 54.5458 -1.15863Z" fill="#FFF7ED" stroke="#FAAC48"/>
<path d="M61.1525 -1.15863C61.1525 0.414333 59.8924 1.6803 58.3492 1.6803C56.806 1.6803 55.5459 0.414333 55.5459 -1.15863C55.5459 -2.73159 56.806 -3.99756 58.3492 -3.99756C59.8924 -3.99756 61.1525 -2.73159 61.1525 -1.15863Z" fill="#FFF7ED" stroke="#FAAC48"/>
<path d="M67.7592 -1.15863C67.7592 0.414332 66.499 1.6803 64.9558 1.6803C63.4126 1.6803 62.1525 0.414332 62.1525 -1.15863C62.1525 -2.73159 63.4126 -3.99756 64.9558 -3.99756C66.499 -3.99756 67.7592 -2.73159 67.7592 -1.15863Z" fill="#FFF7ED" stroke="#FAAC48"/>
<path d="M69.4109 -1.15863C69.4109 0.414331 68.1507 1.6803 66.6075 1.6803C65.0643 1.6803 63.8042 0.414331 63.8042 -1.15863C63.8042 -2.73159 65.0643 -3.99756 66.6075 -3.99756C68.1507 -3.99756 69.4109 -2.73159 69.4109 -1.15863Z" fill="#FFF7ED" stroke="#FAAC48"/>
<path d="M47.9392 -1.15863C47.9392 0.414333 46.679 1.6803 45.1359 1.6803C43.5927 1.6803 42.3325 0.414333 42.3325 -1.15863C42.3325 -2.73159 43.5927 -3.99756 45.1359 -3.99756C46.679 -3.99756 47.9392 -2.73159 47.9392 -1.15863Z" fill="#FFF7ED" stroke="#FAAC48"/>
<path d="M46.2875 -1.15863C46.2875 0.414332 45.0274 1.6803 43.4842 1.6803C41.941 1.6803 40.6809 0.414332 40.6809 -1.15863C40.6809 -2.73159 41.941 -3.99756 43.4842 -3.99756C45.0274 -3.99756 46.2875 -2.73159 46.2875 -1.15863Z" fill="#FFF7ED" stroke="#FAAC48"/>
<path d="M61.1525 8.85835C61.1525 10.4312 59.8924 11.6972 58.3492 11.6972C56.806 11.6972 55.5459 10.4312 55.5459 8.85835C55.5459 7.28546 56.806 6.01953 58.3492 6.01953C59.8924 6.01953 61.1525 7.28546 61.1525 8.85835Z" fill="#FFF7ED" stroke="#FAAC48"/>
<path d="M67.7592 8.85835C67.7592 10.4312 66.4991 11.6972 64.9558 11.6972C63.4126 11.6972 62.1525 10.4312 62.1525 8.85835C62.1525 7.28546 63.4126 6.01953 64.9558 6.01953C66.4991 6.01953 67.7592 7.28546 67.7592 8.85835Z" fill="#FFF7ED" stroke="#FAAC48"/>
<path d="M71.0625 8.85835C71.0625 10.4312 69.8024 11.6972 68.2592 11.6972C66.716 11.6972 65.4558 10.4312 65.4558 8.85835C65.4558 7.28547 66.716 6.01953 68.2592 6.01953C69.8024 6.01953 71.0625 7.28547 71.0625 8.85835Z" fill="#FFF7ED" stroke="#FAAC48"/>
<path d="M47.9392 8.85835C47.9392 10.4312 46.6791 11.6972 45.1359 11.6972C43.5926 11.6972 42.3325 10.4312 42.3325 8.85835C42.3325 7.28546 43.5926 6.01953 45.1359 6.01953C46.6791 6.01953 47.9392 7.28546 47.9392 8.85835Z" fill="#FFF7ED" stroke="#FAAC48"/>
<path d="M46.2875 8.85835C46.2875 10.4312 45.0274 11.6972 43.4842 11.6972C41.941 11.6972 40.6809 10.4312 40.6809 8.85835C40.6809 7.28546 41.941 6.01953 43.4842 6.01953C45.0274 6.01953 46.2875 7.28546 46.2875 8.85835Z" fill="#FFF7ED" stroke="#FAAC48"/>
<path d="M57.8492 3.84964C57.8492 5.42258 56.5891 6.68854 55.0459 6.68854C53.5027 6.68854 52.2425 5.42258 52.2425 3.84964C52.2425 2.2767 53.5027 1.01074 55.0459 1.01074C56.5891 1.01074 57.8492 2.2767 57.8492 3.84964Z" fill="#FFF7ED" stroke="#FAAC48"/>
<path d="M64.4559 3.84964C64.4559 5.42258 63.1957 6.68854 61.6525 6.68854C60.1093 6.68854 58.8492 5.42258 58.8492 3.84964C58.8492 2.2767 60.1093 1.01074 61.6525 1.01074C63.1957 1.01074 64.4559 2.2767 64.4559 3.84964Z" fill="#FFF7ED" stroke="#FAAC48"/>
<path d="M71.0625 3.84964C71.0625 5.42258 69.8024 6.68854 68.2592 6.68854C66.716 6.68854 65.4558 5.42258 65.4558 3.84964C65.4558 2.2767 66.716 1.01074 68.2592 1.01074C69.8024 1.01074 71.0625 2.2767 71.0625 3.84964Z" fill="#FFF7ED" stroke="#FAAC48"/>
<path d="M51.2425 3.84964C51.2425 5.42258 49.9824 6.68854 48.4392 6.68854C46.896 6.68854 45.6358 5.42258 45.6358 3.84964C45.6358 2.2767 46.896 1.01074 48.4392 1.01074C49.9824 1.01074 51.2425 2.2767 51.2425 3.84964Z" fill="#FFF7ED" stroke="#FAAC48"/>
<path d="M46.2875 3.84964C46.2875 5.42258 45.0274 6.68854 43.4842 6.68854C41.941 6.68854 40.6809 5.42258 40.6809 3.84964C40.6809 2.2767 41.941 1.01074 43.4842 1.01074C45.0274 1.01074 46.2875 2.2767 46.2875 3.84964Z" fill="#FFF7ED" stroke="#FAAC48"/>
</g>
<mask id="mask2" mask-type="alpha" maskUnits="userSpaceOnUse" x="-24" y="-55" width="161" height="93">
<rect x="-24" y="-54.4146" width="160.484" height="91.705" fill="#C4C4C4"/>
</mask>
<g mask="url(#mask2)">
<path d="M34.0087 -416.558L76.1119 -416.791L73.9964 21.0613L63.9995 34.5447L47.338 34.5447L37.341 21.0721L34.0087 -416.558Z" fill="#BDE5F4"/>
<path d="M47.3382 34.5459H63.9997L60.6674 51.3867H50.6705L47.3382 34.5459Z" fill="#BDE5F4"/>
<path d="M38.8743 19.7104L38.0284 -126.366H72.7134L71.8674 19.7104L60.8697 33.9008H49.872L38.8743 19.7104Z" fill="white"/>
<g opacity="0.3">
<path d="M47.9392 18.875C47.9392 20.4479 46.6791 21.7138 45.1359 21.7138C43.5926 21.7138 42.3325 20.4479 42.3325 18.875C42.3325 17.3021 43.5926 16.0361 45.1359 16.0361C46.6791 16.0361 47.9392 17.3021 47.9392 18.875Z" fill="#CCD8E1" stroke="#668BA6"/>
<path d="M54.5458 18.875C54.5458 20.4479 53.2857 21.7138 51.7425 21.7138C50.1993 21.7138 48.9392 20.4479 48.9392 18.875C48.9392 17.3021 50.1993 16.0361 51.7425 16.0361C53.2857 16.0361 54.5458 17.3021 54.5458 18.875Z" fill="#CCD8E1" stroke="#668BA6"/>
<path d="M61.1525 18.875C61.1525 20.4479 59.8924 21.7138 58.3492 21.7138C56.806 21.7138 55.5459 20.4479 55.5459 18.875C55.5459 17.3021 56.806 16.0361 58.3492 16.0361C59.8924 16.0361 61.1525 17.3021 61.1525 18.875Z" fill="#CCD8E1" stroke="#668BA6"/>
<path d="M67.7592 18.875C67.7592 20.4479 66.4991 21.7138 64.9558 21.7138C63.4126 21.7138 62.1525 20.4479 62.1525 18.875C62.1525 17.3021 63.4126 16.0361 64.9558 16.0361C66.4991 16.0361 67.7592 17.3021 67.7592 18.875Z" fill="#CCD8E1" stroke="#668BA6"/>
<path d="M51.2425 23.8839C51.2425 25.4568 49.9824 26.7228 48.4392 26.7228C46.896 26.7228 45.6358 25.4568 45.6358 23.8839C45.6358 22.3109 46.896 21.0449 48.4392 21.0449C49.9824 21.0449 51.2425 22.3109 51.2425 23.8839Z" fill="#CCD8E1" stroke="#668BA6"/>
<path d="M54.5458 28.8916C54.5458 30.4645 53.2857 31.7305 51.7425 31.7305C50.1993 31.7305 48.9392 30.4645 48.9392 28.8916C48.9392 27.3187 50.1993 26.0527 51.7425 26.0527C53.2857 26.0527 54.5458 27.3187 54.5458 28.8916Z" fill="#CCD8E1" stroke="#668BA6"/>
<path d="M61.1525 28.8916C61.1525 30.4645 59.8924 31.7305 58.3492 31.7305C56.806 31.7305 55.5459 30.4645 55.5459 28.8916C55.5459 27.3187 56.806 26.0527 58.3492 26.0527C59.8924 26.0527 61.1525 27.3187 61.1525 28.8916Z" fill="#CCD8E1" stroke="#668BA6"/>
<path d="M64.4559 23.8839C64.4559 25.4568 63.1957 26.7228 61.6525 26.7228C60.1093 26.7228 58.8492 25.4568 58.8492 23.8839C58.8492 22.3109 60.1093 21.0449 61.6525 21.0449C63.1957 21.0449 64.4559 22.3109 64.4559 23.8839Z" fill="#CCD8E1" stroke="#668BA6"/>
<path d="M57.8492 23.8839C57.8492 25.4568 56.5891 26.7228 55.0459 26.7228C53.5027 26.7228 52.2425 25.4568 52.2425 23.8839C52.2425 22.3109 53.5027 21.0449 55.0459 21.0449C56.5891 21.0449 57.8492 22.3109 57.8492 23.8839Z" fill="#CCD8E1" stroke="#668BA6"/>
<path d="M71.0625 13.8663C71.0625 15.4393 69.8024 16.7053 68.2592 16.7053C66.716 16.7053 65.4558 15.4393 65.4558 13.8663C65.4558 12.2933 66.716 11.0273 68.2592 11.0273C69.8024 11.0273 71.0625 12.2933 71.0625 13.8663Z" fill="#CCD8E1" stroke="#668BA6"/>
<path d="M64.4559 13.8663C64.4559 15.4393 63.1957 16.7053 61.6525 16.7053C60.1093 16.7053 58.8492 15.4393 58.8492 13.8663C58.8492 12.2933 60.1093 11.0273 61.6525 11.0273C63.1957 11.0273 64.4559 12.2933 64.4559 13.8663Z" fill="#CCD8E1" stroke="#668BA6"/>
<path d="M57.8492 13.8663C57.8492 15.4393 56.5891 16.7053 55.0459 16.7053C53.5027 16.7053 52.2425 15.4393 52.2425 13.8663C52.2425 12.2933 53.5027 11.0273 55.0459 11.0273C56.5891 11.0273 57.8492 12.2933 57.8492 13.8663Z" fill="#CCD8E1" stroke="#668BA6"/>
<path d="M51.2425 13.8663C51.2425 15.4393 49.9824 16.7053 48.4392 16.7053C46.896 16.7053 45.6358 15.4393 45.6358 13.8663C45.6358 12.2933 46.896 11.0273 48.4392 11.0273C49.9824 11.0273 51.2425 12.2933 51.2425 13.8663Z" fill="#CCD8E1" stroke="#668BA6"/>
<path d="M46.2875 13.8663C46.2875 15.4393 45.0274 16.7053 43.4842 16.7053C41.941 16.7053 40.6809 15.4393 40.6809 13.8663C40.6809 12.2933 41.941 11.0273 43.4842 11.0273C45.0274 11.0273 46.2875 12.2933 46.2875 13.8663Z" fill="#CCD8E1" stroke="#668BA6"/>
<path d="M54.5458 8.85835C54.5458 10.4312 53.2857 11.6972 51.7425 11.6972C50.1993 11.6972 48.9392 10.4312 48.9392 8.85835C48.9392 7.28546 50.1993 6.01953 51.7425 6.01953C53.2857 6.01953 54.5458 7.28546 54.5458 8.85835Z" fill="#CCD8E1" stroke="#668BA6"/>
<path d="M54.5458 -1.15863C54.5458 0.414332 53.2857 1.6803 51.7425 1.6803C50.1993 1.6803 48.9392 0.414332 48.9392 -1.15863C48.9392 -2.73159 50.1993 -3.99756 51.7425 -3.99756C53.2857 -3.99756 54.5458 -2.73159 54.5458 -1.15863Z" fill="#CCD8E1" stroke="#668BA6"/>
<path d="M61.1525 -1.15863C61.1525 0.414333 59.8924 1.6803 58.3492 1.6803C56.806 1.6803 55.5459 0.414333 55.5459 -1.15863C55.5459 -2.73159 56.806 -3.99756 58.3492 -3.99756C59.8924 -3.99756 61.1525 -2.73159 61.1525 -1.15863Z" fill="#CCD8E1" stroke="#668BA6"/>
<path d="M67.7592 -1.15863C67.7592 0.414332 66.499 1.6803 64.9558 1.6803C63.4126 1.6803 62.1525 0.414332 62.1525 -1.15863C62.1525 -2.73159 63.4126 -3.99756 64.9558 -3.99756C66.499 -3.99756 67.7592 -2.73159 67.7592 -1.15863Z" fill="#CCD8E1" stroke="#668BA6"/>
<path d="M69.4109 -1.15863C69.4109 0.414331 68.1507 1.6803 66.6075 1.6803C65.0643 1.6803 63.8042 0.414331 63.8042 -1.15863C63.8042 -2.73159 65.0643 -3.99756 66.6075 -3.99756C68.1507 -3.99756 69.4109 -2.73159 69.4109 -1.15863Z" fill="#CCD8E1" stroke="#668BA6"/>
<path d="M47.9392 -1.15863C47.9392 0.414333 46.679 1.6803 45.1359 1.6803C43.5927 1.6803 42.3325 0.414333 42.3325 -1.15863C42.3325 -2.73159 43.5927 -3.99756 45.1359 -3.99756C46.679 -3.99756 47.9392 -2.73159 47.9392 -1.15863Z" fill="#CCD8E1" stroke="#668BA6"/>
<path d="M46.2875 -1.15863C46.2875 0.414332 45.0274 1.6803 43.4842 1.6803C41.941 1.6803 40.6809 0.414332 40.6809 -1.15863C40.6809 -2.73159 41.941 -3.99756 43.4842 -3.99756C45.0274 -3.99756 46.2875 -2.73159 46.2875 -1.15863Z" fill="#CCD8E1" stroke="#668BA6"/>
<path d="M61.1525 8.85835C61.1525 10.4312 59.8924 11.6972 58.3492 11.6972C56.806 11.6972 55.5459 10.4312 55.5459 8.85835C55.5459 7.28546 56.806 6.01953 58.3492 6.01953C59.8924 6.01953 61.1525 7.28546 61.1525 8.85835Z" fill="#CCD8E1" stroke="#668BA6"/>
<path d="M67.7592 8.85835C67.7592 10.4312 66.4991 11.6972 64.9558 11.6972C63.4126 11.6972 62.1525 10.4312 62.1525 8.85835C62.1525 7.28546 63.4126 6.01953 64.9558 6.01953C66.4991 6.01953 67.7592 7.28546 67.7592 8.85835Z" fill="#CCD8E1" stroke="#668BA6"/>
<path d="M71.0625 8.85835C71.0625 10.4312 69.8024 11.6972 68.2592 11.6972C66.716 11.6972 65.4558 10.4312 65.4558 8.85835C65.4558 7.28547 66.716 6.01953 68.2592 6.01953C69.8024 6.01953 71.0625 7.28547 71.0625 8.85835Z" fill="#CCD8E1" stroke="#668BA6"/>
<path d="M47.9392 8.85835C47.9392 10.4312 46.6791 11.6972 45.1359 11.6972C43.5926 11.6972 42.3325 10.4312 42.3325 8.85835C42.3325 7.28546 43.5926 6.01953 45.1359 6.01953C46.6791 6.01953 47.9392 7.28546 47.9392 8.85835Z" fill="#CCD8E1" stroke="#668BA6"/>
<path d="M46.2875 8.85835C46.2875 10.4312 45.0274 11.6972 43.4842 11.6972C41.941 11.6972 40.6809 10.4312 40.6809 8.85835C40.6809 7.28546 41.941 6.01953 43.4842 6.01953C45.0274 6.01953 46.2875 7.28546 46.2875 8.85835Z" fill="#CCD8E1" stroke="#668BA6"/>
<path d="M57.8492 3.84964C57.8492 5.42258 56.5891 6.68854 55.0459 6.68854C53.5027 6.68854 52.2425 5.42258 52.2425 3.84964C52.2425 2.2767 53.5027 1.01074 55.0459 1.01074C56.5891 1.01074 57.8492 2.2767 57.8492 3.84964Z" fill="#CCD8E1" stroke="#668BA6"/>
<path d="M64.4559 3.84964C64.4559 5.42258 63.1957 6.68854 61.6525 6.68854C60.1093 6.68854 58.8492 5.42258 58.8492 3.84964C58.8492 2.2767 60.1093 1.01074 61.6525 1.01074C63.1957 1.01074 64.4559 2.2767 64.4559 3.84964Z" fill="#CCD8E1" stroke="#668BA6"/>
<path d="M71.0625 3.84964C71.0625 5.42258 69.8024 6.68854 68.2592 6.68854C66.716 6.68854 65.4558 5.42258 65.4558 3.84964C65.4558 2.2767 66.716 1.01074 68.2592 1.01074C69.8024 1.01074 71.0625 2.2767 71.0625 3.84964Z" fill="#CCD8E1" stroke="#668BA6"/>
<path d="M51.2425 3.84964C51.2425 5.42258 49.9824 6.68854 48.4392 6.68854C46.896 6.68854 45.6358 5.42258 45.6358 3.84964C45.6358 2.2767 46.896 1.01074 48.4392 1.01074C49.9824 1.01074 51.2425 2.2767 51.2425 3.84964Z" fill="#CCD8E1" stroke="#668BA6"/>
<path d="M46.2875 3.84964C46.2875 5.42258 45.0274 6.68854 43.4842 6.68854C41.941 6.68854 40.6809 5.42258 40.6809 3.84964C40.6809 2.2767 41.941 1.01074 43.4842 1.01074C45.0274 1.01074 46.2875 2.2767 46.2875 3.84964Z" fill="#CCD8E1" stroke="#668BA6"/>
</g>
</g>
</g>
</g>
</g>
<defs>
<clipPath id="clip0">
<rect width="126" height="102" fill="white"/>
</clipPath>
</defs>
</svg>
