<svg width="132" height="149" viewBox="0 0 132 149" fill="none" xmlns="http://www.w3.org/2000/svg">
<mask id="mask0" mask-type="alpha" maskUnits="userSpaceOnUse" x="0" y="0" width="132" height="149">
<rect width="132" height="149" fill="#C4C4C4"/>
</mask>
<g mask="url(#mask0)">
<path d="M31.5894 127.356L25.3012 -739.334L103.144 -739.787L99.1523 127.336L80.6722 153.495L50.0708 153.495L31.5894 127.356Z" fill="#BDE5F4" stroke="#336589" stroke-width="1.7"/>
<path d="M33.6386 124.929L32.0401 -164.737H97.5768L95.9784 124.929L75.1984 153.068H54.4185L33.6386 124.929Z" fill="#F7F7F7"/>
<g opacity="0.3">
<path d="M50.754 123.729C50.754 126.964 48.2935 129.5 45.3624 129.5C42.4312 129.5 39.9708 126.964 39.9708 123.729C39.9708 120.494 42.4312 117.958 45.3624 117.958C48.2935 117.958 50.754 120.494 50.754 123.729Z" fill="#F5F7F9" stroke="#336589" stroke-width="1.7"/>
<path d="M63.2372 123.729C63.2372 126.964 60.7767 129.5 57.8456 129.5C54.9144 129.5 52.454 126.964 52.454 123.729C52.454 120.494 54.9144 117.958 57.8456 117.958C60.7767 117.958 63.2372 120.494 63.2372 123.729Z" fill="#F5F7F9" stroke="#336589" stroke-width="1.7"/>
<path d="M75.7203 123.729C75.7203 126.964 73.2599 129.5 70.3288 129.5C67.3976 129.5 64.9372 126.964 64.9372 123.729C64.9372 120.494 67.3976 117.958 70.3288 117.958C73.2599 117.958 75.7203 120.494 75.7203 123.729Z" fill="#F5F7F9" stroke="#336589" stroke-width="1.7"/>
<path d="M88.2035 123.729C88.2035 126.964 85.7431 129.5 82.8119 129.5C79.8808 129.5 77.4203 126.964 77.4203 123.729C77.4203 120.494 79.8808 117.958 82.8119 117.958C85.7431 117.958 88.2035 120.494 88.2035 123.729Z" fill="#F5F7F9" stroke="#336589" stroke-width="1.7"/>
<path d="M56.9956 133.661C56.9956 136.896 54.5351 139.432 51.604 139.432C48.6728 139.432 46.2124 136.896 46.2124 133.661C46.2124 130.426 48.6728 127.89 51.604 127.89C54.5351 127.89 56.9956 130.426 56.9956 133.661Z" fill="#F5F7F9" stroke="#336589" stroke-width="1.7"/>
<path d="M63.2372 143.592C63.2372 146.827 60.7767 149.363 57.8456 149.363C54.9144 149.363 52.454 146.827 52.454 143.592C52.454 140.357 54.9144 137.821 57.8456 137.821C60.7767 137.821 63.2372 140.357 63.2372 143.592Z" fill="#F5F7F9" stroke="#336589" stroke-width="1.7"/>
<path d="M75.7203 143.592C75.7203 146.827 73.2599 149.363 70.3288 149.363C67.3976 149.363 64.9372 146.827 64.9372 143.592C64.9372 140.357 67.3976 137.821 70.3288 137.821C73.2599 137.821 75.7203 140.357 75.7203 143.592Z" fill="#F5F7F9" stroke="#336589" stroke-width="1.7"/>
<path d="M81.962 133.661C81.962 136.896 79.5015 139.432 76.5704 139.432C73.6392 139.432 71.1788 136.896 71.1788 133.661C71.1788 130.426 73.6392 127.89 76.5704 127.89C79.5015 127.89 81.962 130.426 81.962 133.661Z" fill="#F5F7F9" stroke="#336589" stroke-width="1.7"/>
<path d="M69.4788 133.661C69.4788 136.896 67.0183 139.432 64.0872 139.432C61.156 139.432 58.6956 136.896 58.6956 133.661C58.6956 130.426 61.156 127.89 64.0872 127.89C67.0183 127.89 69.4788 130.426 69.4788 133.661Z" fill="#F5F7F9" stroke="#336589" stroke-width="1.7"/>
<path d="M94.4451 113.797C94.4451 117.032 91.9847 119.568 89.0535 119.568C86.1224 119.568 83.6619 117.032 83.6619 113.797C83.6619 110.562 86.1224 108.026 89.0535 108.026C91.9847 108.026 94.4451 110.562 94.4451 113.797Z" fill="#F5F7F9" stroke="#336589" stroke-width="1.7"/>
<path d="M81.962 113.797C81.962 117.032 79.5015 119.568 76.5704 119.568C73.6393 119.568 71.1788 117.032 71.1788 113.797C71.1788 110.562 73.6393 108.026 76.5704 108.026C79.5015 108.026 81.962 110.562 81.962 113.797Z" fill="#F5F7F9" stroke="#336589" stroke-width="1.7"/>
<path d="M69.4788 113.797C69.4788 117.032 67.0183 119.568 64.0872 119.568C61.1561 119.568 58.6956 117.032 58.6956 113.797C58.6956 110.562 61.1561 108.026 64.0872 108.026C67.0183 108.026 69.4788 110.562 69.4788 113.797Z" fill="#F5F7F9" stroke="#336589" stroke-width="1.7"/>
<path d="M56.9956 113.797C56.9956 117.032 54.5351 119.568 51.604 119.568C48.6729 119.568 46.2124 117.032 46.2124 113.797C46.2124 110.562 48.6729 108.026 51.604 108.026C54.5351 108.026 56.9956 110.562 56.9956 113.797Z" fill="#F5F7F9" stroke="#336589" stroke-width="1.7"/>
<path d="M47.6332 113.797C47.6332 117.032 45.1727 119.568 42.2416 119.568C39.3105 119.568 36.85 117.032 36.85 113.797C36.85 110.562 39.3105 108.026 42.2416 108.026C45.1727 108.026 47.6332 110.562 47.6332 113.797Z" fill="#F5F7F9" stroke="#336589" stroke-width="1.7"/>
<path d="M63.2372 103.866C63.2372 107.101 60.7767 109.637 57.8456 109.637C54.9144 109.637 52.454 107.101 52.454 103.866C52.454 100.631 54.9144 98.0951 57.8456 98.0951C60.7767 98.0951 63.2372 100.631 63.2372 103.866Z" fill="#F5F7F9" stroke="#336589" stroke-width="1.7"/>
<path d="M63.2372 84.0027C63.2372 87.2379 60.7767 89.7737 57.8456 89.7737C54.9144 89.7737 52.454 87.2379 52.454 84.0027C52.454 80.7676 54.9144 78.2318 57.8456 78.2318C60.7767 78.2318 63.2372 80.7676 63.2372 84.0027Z" fill="#F5F7F9" stroke="#336589" stroke-width="1.7"/>
<path d="M63.2372 64.1414C63.2372 67.3764 60.7767 69.9122 57.8456 69.9122C54.9144 69.9122 52.454 67.3764 52.454 64.1414C52.454 60.9063 54.9144 58.3705 57.8456 58.3705C60.7767 58.3705 63.2372 60.9063 63.2372 64.1414Z" fill="#F5F7F9" stroke="#336589" stroke-width="1.7"/>
<path d="M75.7203 64.1414C75.7203 67.3764 73.2599 69.9122 70.3288 69.9122C67.3976 69.9122 64.9372 67.3764 64.9372 64.1414C64.9372 60.9063 67.3976 58.3705 70.3288 58.3705C73.2599 58.3705 75.7203 60.9063 75.7203 64.1414Z" fill="#F5F7F9" stroke="#336589" stroke-width="1.7"/>
<path d="M88.2035 64.1414C88.2035 67.3764 85.7431 69.9122 82.8119 69.9122C79.8808 69.9122 77.4203 67.3764 77.4203 64.1414C77.4203 60.9063 79.8808 58.3705 82.8119 58.3705C85.7431 58.3705 88.2035 60.9063 88.2035 64.1414Z" fill="#F5F7F9" stroke="#336589" stroke-width="1.7"/>
<path d="M94.4451 64.1414C94.4451 67.3764 91.9847 69.9122 89.0535 69.9122C86.1224 69.9122 83.6619 67.3764 83.6619 64.1414C83.6619 60.9063 86.1224 58.3705 89.0535 58.3705C91.9847 58.3705 94.4451 60.9063 94.4451 64.1414Z" fill="#F5F7F9" stroke="#336589" stroke-width="1.7"/>
<path d="M50.754 64.1414C50.754 67.3764 48.2935 69.9122 45.3624 69.9122C42.4312 69.9122 39.9708 67.3764 39.9708 64.1414C39.9708 60.9063 42.4312 58.3705 45.3624 58.3705C48.2935 58.3705 50.754 60.9063 50.754 64.1414Z" fill="#F5F7F9" stroke="#336589" stroke-width="1.7"/>
<path d="M47.6332 64.1414C47.6332 67.3765 45.1727 69.9122 42.2416 69.9122C39.3105 69.9122 36.85 67.3765 36.85 64.1414C36.85 60.9063 39.3105 58.3705 42.2416 58.3705C45.1727 58.3705 47.6332 60.9063 47.6332 64.1414Z" fill="#F5F7F9" stroke="#336589" stroke-width="1.7"/>
<path d="M75.7203 84.0027C75.7203 87.2379 73.2599 89.7737 70.3288 89.7737C67.3976 89.7737 64.9372 87.2379 64.9372 84.0027C64.9372 80.7676 67.3976 78.2318 70.3288 78.2318C73.2599 78.2318 75.7203 80.7676 75.7203 84.0027Z" fill="#F5F7F9" stroke="#336589" stroke-width="1.7"/>
<path d="M88.2035 84.0027C88.2035 87.2379 85.7431 89.7737 82.8119 89.7737C79.8808 89.7737 77.4203 87.2379 77.4203 84.0027C77.4203 80.7676 79.8808 78.2318 82.8119 78.2318C85.7431 78.2318 88.2035 80.7676 88.2035 84.0027Z" fill="#F5F7F9" stroke="#336589" stroke-width="1.7"/>
<path d="M91.3243 84.0027C91.3243 87.2379 88.8639 89.7737 85.9327 89.7737C83.0015 89.7737 80.5411 87.2379 80.5411 84.0027C80.5411 80.7676 83.0015 78.2318 85.9327 78.2318C88.8639 78.2318 91.3243 80.7676 91.3243 84.0027Z" fill="#F5F7F9" stroke="#336589" stroke-width="1.7"/>
<path d="M50.754 84.0027C50.754 87.2379 48.2935 89.7737 45.3624 89.7737C42.4312 89.7737 39.9708 87.2379 39.9708 84.0027C39.9708 80.7676 42.4312 78.2318 45.3624 78.2318C48.2935 78.2318 50.754 80.7676 50.754 84.0027Z" fill="#F5F7F9" stroke="#336589" stroke-width="1.7"/>
<path d="M47.6332 84.0027C47.6332 87.2379 45.1727 89.7737 42.2416 89.7737C39.3105 89.7737 36.85 87.2379 36.85 84.0027C36.85 80.7676 39.3105 78.2318 42.2416 78.2318C45.1727 78.2318 47.6332 80.7676 47.6332 84.0027Z" fill="#F5F7F9" stroke="#336589" stroke-width="1.7"/>
<path d="M75.7203 103.866C75.7203 107.101 73.2599 109.637 70.3288 109.637C67.3976 109.637 64.9372 107.101 64.9372 103.866C64.9372 100.631 67.3976 98.0951 70.3288 98.0951C73.2599 98.0951 75.7203 100.631 75.7203 103.866Z" fill="#F5F7F9" stroke="#336589" stroke-width="1.7"/>
<path d="M88.2035 103.866C88.2035 107.101 85.7431 109.637 82.8119 109.637C79.8808 109.637 77.4203 107.101 77.4203 103.866C77.4203 100.631 79.8808 98.0951 82.8119 98.0951C85.7431 98.0951 88.2035 100.631 88.2035 103.866Z" fill="#F5F7F9" stroke="#336589" stroke-width="1.7"/>
<path d="M94.4451 103.866C94.4451 107.101 91.9847 109.637 89.0535 109.637C86.1224 109.637 83.6619 107.101 83.6619 103.866C83.6619 100.631 86.1224 98.0951 89.0535 98.0951C91.9847 98.0951 94.4451 100.631 94.4451 103.866Z" fill="#F5F7F9" stroke="#336589" stroke-width="1.7"/>
<path d="M50.754 103.866C50.754 107.101 48.2935 109.637 45.3624 109.637C42.4312 109.637 39.9708 107.101 39.9708 103.866C39.9708 100.631 42.4312 98.0951 45.3624 98.0951C48.2935 98.0951 50.754 100.631 50.754 103.866Z" fill="#F5F7F9" stroke="#336589" stroke-width="1.7"/>
<path d="M47.6332 103.866C47.6332 107.101 45.1727 109.637 42.2416 109.637C39.3105 109.637 36.85 107.101 36.85 103.866C36.85 100.631 39.3105 98.0951 42.2416 98.0951C45.1727 98.0951 47.6332 100.631 47.6332 103.866Z" fill="#F5F7F9" stroke="#336589" stroke-width="1.7"/>
<path d="M69.4788 93.9354C69.4788 97.1705 67.0183 99.7063 64.0872 99.7063C61.156 99.7063 58.6956 97.1705 58.6956 93.9354C58.6956 90.7002 61.156 88.1645 64.0872 88.1645C67.0183 88.1645 69.4788 90.7002 69.4788 93.9354Z" fill="#F5F7F9" stroke="#336589" stroke-width="1.7"/>
<path d="M69.4788 74.0721C69.4788 77.3073 67.0183 79.8431 64.0872 79.8431C61.156 79.8431 58.6956 77.3073 58.6956 74.0721C58.6956 70.837 61.156 68.3012 64.0872 68.3012C67.0183 68.3012 69.4788 70.837 69.4788 74.0721Z" fill="#F5F7F9" stroke="#336589" stroke-width="1.7"/>
<path d="M81.962 74.0721C81.962 77.3073 79.5015 79.8431 76.5704 79.8431C73.6392 79.8431 71.1788 77.3073 71.1788 74.0721C71.1788 70.837 73.6392 68.3012 76.5704 68.3012C79.5015 68.3012 81.962 70.837 81.962 74.0721Z" fill="#F5F7F9" stroke="#336589" stroke-width="1.7"/>
<path d="M94.4451 74.0721C94.4451 77.3073 91.9847 79.8431 89.0535 79.8431C86.1224 79.8431 83.6619 77.3073 83.6619 74.0721C83.6619 70.837 86.1224 68.3012 89.0535 68.3012C91.9847 68.3012 94.4451 70.837 94.4451 74.0721Z" fill="#F5F7F9" stroke="#336589" stroke-width="1.7"/>
<path d="M56.9956 74.0721C56.9956 77.3073 54.5351 79.8431 51.604 79.8431C48.6728 79.8431 46.2124 77.3073 46.2124 74.0721C46.2124 70.837 48.6728 68.3012 51.604 68.3012C54.5351 68.3012 56.9956 70.837 56.9956 74.0721Z" fill="#F5F7F9" stroke="#336589" stroke-width="1.7"/>
<path d="M47.6332 74.0721C47.6332 77.3073 45.1727 79.8431 42.2416 79.8431C39.3105 79.8431 36.85 77.3073 36.85 74.0721C36.85 70.837 39.3105 68.3012 42.2416 68.3012C45.1727 68.3012 47.6332 70.837 47.6332 74.0721Z" fill="#F5F7F9" stroke="#336589" stroke-width="1.7"/>
<path d="M69.4788 54.2101C69.4788 57.4451 67.0184 59.9809 64.0872 59.9809C61.156 59.9809 58.6956 57.4451 58.6956 54.2101C58.6956 50.9751 61.156 48.4394 64.0872 48.4394C67.0184 48.4394 69.4788 50.9751 69.4788 54.2101Z" fill="#F5F7F9" stroke="#336589" stroke-width="1.7"/>
<path d="M81.962 54.2101C81.962 57.4451 79.5015 59.9809 76.5704 59.9809C73.6392 59.9809 71.1788 57.4451 71.1788 54.2101C71.1788 50.9751 73.6392 48.4394 76.5704 48.4394C79.5015 48.4394 81.962 50.9751 81.962 54.2101Z" fill="#F5F7F9" stroke="#336589" stroke-width="1.7"/>
<path d="M94.4451 54.2101C94.4451 57.4451 91.9847 59.9809 89.0535 59.9809C86.1224 59.9809 83.6619 57.4451 83.6619 54.2101C83.6619 50.9751 86.1224 48.4394 89.0535 48.4394C91.9847 48.4394 94.4451 50.9751 94.4451 54.2101Z" fill="#F5F7F9" stroke="#336589" stroke-width="1.7"/>
<path d="M56.9956 54.2101C56.9956 57.4451 54.5351 59.9809 51.604 59.9809C48.6728 59.9809 46.2124 57.4451 46.2124 54.2101C46.2124 50.9751 48.6728 48.4394 51.604 48.4394C54.5351 48.4394 56.9956 50.9751 56.9956 54.2101Z" fill="#F5F7F9" stroke="#336589" stroke-width="1.7"/>
<path d="M47.6332 54.2101C47.6332 57.4451 45.1727 59.9809 42.2416 59.9809C39.3105 59.9809 36.85 57.4451 36.85 54.2101C36.85 50.9751 39.3105 48.4394 42.2416 48.4394C45.1727 48.4394 47.6332 50.9751 47.6332 54.2101Z" fill="#F5F7F9" stroke="#336589" stroke-width="1.7"/>
<path d="M63.2372 44.278C63.2372 47.5131 60.7767 50.0489 57.8456 50.0489C54.9144 50.0489 52.454 47.5131 52.454 44.278C52.454 41.043 54.9144 38.5072 57.8456 38.5072C60.7767 38.5072 63.2372 41.043 63.2372 44.278Z" fill="#F5F7F9" stroke="#336589" stroke-width="1.7"/>
<path d="M75.7203 44.278C75.7203 47.5131 73.2599 50.0489 70.3288 50.0489C67.3976 50.0489 64.9372 47.5131 64.9372 44.278C64.9372 41.043 67.3976 38.5072 70.3288 38.5072C73.2599 38.5072 75.7203 41.043 75.7203 44.278Z" fill="#F5F7F9" stroke="#336589" stroke-width="1.7"/>
<path d="M54.3254 60.5039L57.8142 62.7923L56.6512 66.6064" stroke="#336589" stroke-width="1.7"/>
<path d="M88.2035 44.278C88.2035 47.5131 85.7431 50.0489 82.8119 50.0489C79.8808 50.0489 77.4203 47.5131 77.4203 44.278C77.4203 41.043 79.8808 38.5072 82.8119 38.5072C85.7431 38.5072 88.2035 41.043 88.2035 44.278Z" fill="#F5F7F9" stroke="#336589" stroke-width="1.7"/>
<path d="M94.4451 44.278C94.4451 47.5131 91.9847 50.0489 89.0535 50.0489C86.1224 50.0489 83.6619 47.5131 83.6619 44.278C83.6619 41.043 86.1224 38.5072 89.0535 38.5072C91.9847 38.5072 94.4451 41.043 94.4451 44.278Z" fill="#F5F7F9" stroke="#336589" stroke-width="1.7"/>
<path d="M53.8712 44.2948C53.8712 47.1333 51.7415 49.3298 49.2389 49.3298C46.7363 49.3298 44.6066 47.1333 44.6066 44.2948C44.6066 41.4562 46.7363 39.2597 49.2389 39.2597C51.7415 39.2597 53.8712 41.4562 53.8712 44.2948Z" fill="#F5F7F9" stroke="#336589" stroke-width="1.7"/>
<path d="M47.6332 44.278C47.6332 47.5131 45.1727 50.0489 42.2416 50.0489C39.3105 50.0489 36.85 47.5131 36.85 44.278C36.85 41.043 39.3105 38.5072 42.2416 38.5072C45.1727 38.5072 47.6332 41.043 47.6332 44.278Z" fill="#F5F7F9" stroke="#336589" stroke-width="1.7"/>
<path d="M69.4788 34.3455C69.4788 37.5805 67.0183 40.1163 64.0872 40.1163C61.156 40.1163 58.6956 37.5805 58.6956 34.3455C58.6956 31.1104 61.156 28.5746 64.0872 28.5746C67.0183 28.5746 69.4788 31.1104 69.4788 34.3455Z" fill="#F5F7F9" stroke="#336589" stroke-width="1.7"/>
<path d="M81.962 34.3455C81.962 37.5805 79.5015 40.1163 76.5704 40.1163C73.6392 40.1163 71.1788 37.5805 71.1788 34.3455C71.1788 31.1104 73.6392 28.5746 76.5704 28.5746C79.5015 28.5746 81.962 31.1104 81.962 34.3455Z" fill="#F5F7F9" stroke="#336589" stroke-width="1.7"/>
<path d="M94.4451 34.3455C94.4451 37.5805 91.9847 40.1163 89.0535 40.1163C86.1224 40.1163 83.6619 37.5805 83.6619 34.3455C83.6619 31.1104 86.1224 28.5746 89.0535 28.5746C91.9847 28.5746 94.4451 31.1104 94.4451 34.3455Z" fill="#F5F7F9" stroke="#336589" stroke-width="1.7"/>
<path d="M56.9956 34.3455C56.9956 37.5805 54.5351 40.1163 51.604 40.1163C48.6728 40.1163 46.2124 37.5805 46.2124 34.3455C46.2124 31.1104 48.6728 28.5746 51.604 28.5746C54.5351 28.5746 56.9956 31.1104 56.9956 34.3455Z" fill="#F5F7F9" stroke="#336589" stroke-width="1.7"/>
<path d="M47.6332 34.3455C47.6332 37.5806 45.1727 40.1163 42.2416 40.1163C39.3105 40.1163 36.85 37.5806 36.85 34.3455C36.85 31.1104 39.3105 28.5746 42.2416 28.5746C45.1727 28.5746 47.6332 31.1104 47.6332 34.3455Z" fill="#F5F7F9" stroke="#336589" stroke-width="1.7"/>
<path d="M63.2372 24.4148C63.2372 27.6499 60.7767 30.1857 57.8456 30.1857C54.9144 30.1857 52.454 27.6499 52.454 24.4148C52.454 21.1797 54.9144 18.6439 57.8456 18.6439C60.7767 18.6439 63.2372 21.1797 63.2372 24.4148Z" fill="#F5F7F9" stroke="#336589" stroke-width="1.7"/>
<path d="M75.7203 24.4148C75.7203 27.6499 73.2599 30.1857 70.3288 30.1857C67.3976 30.1857 64.9372 27.6499 64.9372 24.4148C64.9372 21.1797 67.3976 18.6439 70.3288 18.6439C73.2599 18.6439 75.7203 21.1797 75.7203 24.4148Z" fill="#F5F7F9" stroke="#336589" stroke-width="1.7"/>
<path d="M88.2035 24.4148C88.2035 27.6499 85.7431 30.1857 82.8119 30.1857C79.8808 30.1857 77.4203 27.6499 77.4203 24.4148C77.4203 21.1797 79.8808 18.6439 82.8119 18.6439C85.7431 18.6439 88.2035 21.1797 88.2035 24.4148Z" fill="#F5F7F9" stroke="#336589" stroke-width="1.7"/>
<path d="M94.4451 24.4148C94.4451 27.6499 91.9847 30.1857 89.0535 30.1857C86.1224 30.1857 83.6619 27.6499 83.6619 24.4148C83.6619 21.1797 86.1224 18.6439 89.0535 18.6439C91.9847 18.6439 94.4451 21.1797 94.4451 24.4148Z" fill="#F5F7F9" stroke="#336589" stroke-width="1.7"/>
<path d="M50.754 24.4148C50.754 27.6499 48.2935 30.1857 45.3624 30.1857C42.4312 30.1857 39.9708 27.6499 39.9708 24.4148C39.9708 21.1797 42.4312 18.6439 45.3624 18.6439C48.2935 18.6439 50.754 21.1797 50.754 24.4148Z" fill="#F5F7F9" stroke="#336589" stroke-width="1.7"/>
<path d="M47.6332 24.4148C47.6332 27.6499 45.1727 30.1857 42.2416 30.1857C39.3105 30.1857 36.85 27.6499 36.85 24.4148C36.85 21.1797 39.3105 18.6439 42.2416 18.6439C45.1727 18.6439 47.6332 21.1797 47.6332 24.4148Z" fill="#F5F7F9" stroke="#336589" stroke-width="1.7"/>
<path d="M69.4788 14.4834C69.4788 17.7186 67.0183 20.2545 64.0872 20.2545C61.1561 20.2545 58.6956 17.7186 58.6956 14.4834C58.6956 11.2481 61.1561 8.7123 64.0872 8.7123C67.0183 8.7123 69.4788 11.2481 69.4788 14.4834Z" fill="#F5F7F9" stroke="#336589" stroke-width="1.7"/>
<path d="M81.962 14.4834C81.962 17.7186 79.5015 20.2545 76.5704 20.2545C73.6392 20.2545 71.1788 17.7186 71.1788 14.4834C71.1788 11.2481 73.6392 8.7123 76.5704 8.7123C79.5015 8.7123 81.962 11.2481 81.962 14.4834Z" fill="#F5F7F9" stroke="#336589" stroke-width="1.7"/>
<path d="M94.4451 14.4834C94.4451 17.7186 91.9847 20.2545 89.0535 20.2545C86.1224 20.2545 83.6619 17.7186 83.6619 14.4834C83.6619 11.2481 86.1224 8.7123 89.0535 8.7123C91.9847 8.7123 94.4451 11.2481 94.4451 14.4834Z" fill="#F5F7F9" stroke="#336589" stroke-width="1.7"/>
<path d="M56.9956 14.4834C56.9956 17.7186 54.5351 20.2545 51.604 20.2545C48.6729 20.2545 46.2124 17.7186 46.2124 14.4834C46.2124 11.2481 48.6729 8.7123 51.604 8.7123C54.5351 8.7123 56.9956 11.2481 56.9956 14.4834Z" fill="#F5F7F9" stroke="#336589" stroke-width="1.7"/>
<path d="M47.6332 14.4834C47.6332 17.7186 45.1727 20.2545 42.2416 20.2545C39.3105 20.2545 36.85 17.7186 36.85 14.4834C36.85 11.2481 39.3105 8.7123 42.2416 8.7123C45.1727 8.7123 47.6332 11.2481 47.6332 14.4834Z" fill="#F5F7F9" stroke="#336589" stroke-width="1.7"/>
<path d="M63.2372 4.55249C63.2372 7.78758 60.7767 10.3233 57.8456 10.3233C54.9144 10.3233 52.454 7.78758 52.454 4.55249C52.454 1.3174 54.9144 -1.21836 57.8456 -1.21836C60.7767 -1.21836 63.2372 1.3174 63.2372 4.55249Z" fill="#F5F7F9" stroke="#336589" stroke-width="1.7"/>
<path d="M75.7203 4.55249C75.7203 7.78758 73.2599 10.3233 70.3288 10.3233C67.3976 10.3233 64.9372 7.78758 64.9372 4.55249C64.9372 1.3174 67.3976 -1.21836 70.3288 -1.21836C73.2599 -1.21836 75.7203 1.3174 75.7203 4.55249Z" fill="#F5F7F9" stroke="#336589" stroke-width="1.7"/>
<path d="M88.2035 4.55249C88.2035 7.78758 85.7431 10.3233 82.8119 10.3233C79.8808 10.3233 77.4203 7.78758 77.4203 4.55249C77.4203 1.3174 79.8808 -1.21836 82.8119 -1.21836C85.7431 -1.21836 88.2035 1.3174 88.2035 4.55249Z" fill="#F5F7F9" stroke="#336589" stroke-width="1.7"/>
<path d="M94.4451 4.55249C94.4451 7.78758 91.9847 10.3233 89.0535 10.3233C86.1224 10.3233 83.6619 7.78758 83.6619 4.55249C83.6619 1.31741 86.1224 -1.21836 89.0535 -1.21836C91.9847 -1.21836 94.4451 1.31741 94.4451 4.55249Z" fill="#F5F7F9" stroke="#336589" stroke-width="1.7"/>
<path d="M50.754 4.55249C50.754 7.78758 48.2935 10.3233 45.3624 10.3233C42.4312 10.3233 39.9708 7.78758 39.9708 4.55249C39.9708 1.3174 42.4312 -1.21836 45.3624 -1.21836C48.2935 -1.21836 50.754 1.3174 50.754 4.55249Z" fill="#F5F7F9" stroke="#336589" stroke-width="1.7"/>
<path d="M47.6332 4.55249C47.6332 7.78758 45.1727 10.3233 42.2416 10.3233C39.3105 10.3233 36.85 7.78758 36.85 4.55249C36.85 1.3174 39.3105 -1.21836 42.2416 -1.21836C45.1727 -1.21836 47.6332 1.3174 47.6332 4.55249Z" fill="#F5F7F9" stroke="#336589" stroke-width="1.7"/>
<path d="M69.4788 -5.37906C69.4788 -2.14391 67.0183 0.39188 64.0872 0.39188C61.156 0.39188 58.6956 -2.14391 58.6956 -5.37906C58.6956 -8.61421 61.156 -11.15 64.0872 -11.15C67.0183 -11.15 69.4788 -8.61421 69.4788 -5.37906Z" fill="#F5F7F9" stroke="#336589" stroke-width="1.7"/>
<path d="M81.962 -5.37906C81.962 -2.14391 79.5015 0.39188 76.5704 0.39188C73.6392 0.39188 71.1788 -2.14391 71.1788 -5.37906C71.1788 -8.61421 73.6392 -11.15 76.5704 -11.15C79.5015 -11.15 81.962 -8.61421 81.962 -5.37906Z" fill="#F5F7F9" stroke="#336589" stroke-width="1.7"/>
<path d="M94.4451 -5.37906C94.4451 -2.14391 91.9847 0.39188 89.0535 0.39188C86.1224 0.39188 83.6619 -2.14391 83.6619 -5.37906C83.6619 -8.61421 86.1224 -11.15 89.0535 -11.15C91.9847 -11.15 94.4451 -8.61421 94.4451 -5.37906Z" fill="#F5F7F9" stroke="#336589" stroke-width="1.7"/>
<path d="M56.9956 -5.37906C56.9956 -2.14391 54.5351 0.39188 51.604 0.39188C48.6728 0.39188 46.2124 -2.14391 46.2124 -5.37906C46.2124 -8.61421 48.6728 -11.15 51.604 -11.15C54.5351 -11.15 56.9956 -8.61421 56.9956 -5.37906Z" fill="#F5F7F9" stroke="#336589" stroke-width="1.7"/>
<path d="M47.6332 -5.37906C47.6332 -2.14391 45.1727 0.39188 42.2416 0.39188C39.3105 0.39188 36.85 -2.14391 36.85 -5.37906C36.85 -8.61421 39.3105 -11.15 42.2416 -11.15C45.1727 -11.15 47.6332 -8.61421 47.6332 -5.37906Z" fill="#F5F7F9" stroke="#336589" stroke-width="1.7"/>
<path d="M81.962 93.9354C81.962 97.1705 79.5015 99.7063 76.5704 99.7063C73.6392 99.7063 71.1788 97.1705 71.1788 93.9354C71.1788 90.7002 73.6392 88.1645 76.5704 88.1645C79.5015 88.1645 81.962 90.7002 81.962 93.9354Z" fill="#F5F7F9" stroke="#336589" stroke-width="1.7"/>
<path d="M79.7216 48.3521L74.5257 55.144L76.4209 59.2835" stroke="#336589" stroke-width="1.7"/>
<path d="M76.644 16.3589L74.1526 11.3162L71.7692 11.4121" stroke="#336589" stroke-width="1.7"/>
<path d="M51.7636 17.9802L53.4136 13.7258L55.9665 13.0079L56.1761 11.6855" stroke="#336589" stroke-width="1.7"/>
<path d="M75.069 20.0186L72.1617 23.68H69.2544L66.5361 28.2872" stroke="#336589" stroke-width="1.7"/>
<path d="M74.202 107.154L71.1428 104.515L71.557 102.645L67.5737 99.9282" stroke="#336589" stroke-width="1.7"/>
<path d="M92.7912 7.94986L89.7319 5.3105L90.1461 3.44001L86.1628 0.723603" stroke="#336589" stroke-width="1.7"/>
<path d="M60.6556 7.14668L57.5964 4.5073L58.0105 2.6368L54.0273 -0.0796334" stroke="#336589" stroke-width="1.7"/>
<path d="M61.8844 108.712L63.0473 113.594L65.9546 112.373V116.645" stroke="#336589" stroke-width="1.7"/>
<path d="M55.4883 19.0078L56.6512 23.8897L59.5585 22.6692V26.9409" stroke="#336589" stroke-width="1.7"/>
<path d="M39.2074 49.52L40.3704 54.4018L43.2777 53.1814V57.4529" stroke="#336589" stroke-width="1.7"/>
<path d="M83.3984 80.0312L84.5613 84.9131L87.4686 83.6926V87.9642" stroke="#336589" stroke-width="1.7"/>
<path d="M88.1608 10.3628L89.3237 15.2447L92.231 14.0242V18.2959" stroke="#336589" stroke-width="1.7"/>
<path d="M54.7212 39.2505L55.8842 44.1324L58.7915 42.9119V47.1836" stroke="#336589" stroke-width="1.7"/>
<path d="M39.5394 109.03L40.7023 113.912L43.6096 112.691V116.963" stroke="#336589" stroke-width="1.7"/>
<path d="M55.8808 70.2676L52.9735 73.929H50.0662L47.3479 78.5363" stroke="#336589" stroke-width="1.7"/>
<path d="M80.3022 109.322L77.3949 112.984H74.4876L71.7692 117.591" stroke="#336589" stroke-width="1.7"/>
<path d="M47.3479 25.1105L42.8526 25.0025L42.3879 23.5111L36.8816 23.8573" stroke="#336589" stroke-width="1.7"/>
<path d="M81.0725 74.6448L76.5772 74.5368L76.1125 73.0454L70.6063 73.3916" stroke="#336589" stroke-width="1.7"/>
<path d="M49.3424 29.7201L52.7163 32.9283L52.1472 34.8506L53.3477 35.6637" stroke="#336589" stroke-width="1.7"/>
<path d="M61.0339 69.5162L64.4079 72.7242L63.8388 74.6465L65.0393 75.4595" stroke="#336589" stroke-width="1.7"/>
<path d="M68.1497 38.2548L71.3904 43.0757L70.3741 46.5084L71.5899 47.6576" stroke="#336589" stroke-width="1.7"/>
<path d="M79.3275 89.0972L74.832 92.8708L77.7959 96.1378L73.2768 98.1" stroke="#336589" stroke-width="1.7"/>
<path d="M37.3784 71.3643L40.6449 76.2344L44.2295 73.6586L45.6874 78.3521" stroke="#336589" stroke-width="1.7"/>
<path d="M78.3374 120.006L81.604 124.877L85.1886 122.301L86.6464 126.994" stroke="#336589" stroke-width="1.7"/>
<path d="M84.2414 100.67L87.508 105.54L91.0926 102.964L92.5505 107.658" stroke="#336589" stroke-width="1.7"/>
<path d="M60.0421 30.5664L63.3087 35.4366L66.8933 32.8607L68.3512 37.5543" stroke="#336589" stroke-width="1.7"/>
<path d="M67.331 49.3394L62.8354 53.1129L65.7993 56.3799L61.2802 58.3421" stroke="#336589" stroke-width="1.7"/>
<path d="M45.4017 30.0029L40.9061 33.7765L43.87 37.0435L39.3509 39.0057" stroke="#336589" stroke-width="1.7"/>
<path d="M52.1909 103.894L57.8539 105.461L58.8853 101.178L63.0618 103.788" stroke="#336589" stroke-width="1.7"/>
<path d="M64.8424 64.3799L70.5054 65.9474L71.5368 61.6644L75.7133 64.2741" stroke="#336589" stroke-width="1.7"/>
<path d="M91.5379 40.9321L87.5122 43.9444L89.7958 46.1137L85.8669 47.8195" stroke="#336589" stroke-width="1.7"/>
<path d="M90.9676 28.498L90.3429 23.5193L87.3199 24.4181L87.7849 20.1717" stroke="#336589" stroke-width="1.7"/>
<path d="M77.323 38.3291L76.6983 33.3503L73.6753 34.2491L74.1403 30.0027" stroke="#336589" stroke-width="1.7"/>
<path d="M64.6715 96.3379L64.0468 91.3591L61.0238 92.2579L61.4888 88.0116" stroke="#336589" stroke-width="1.7"/>
<path d="M79.0098 136.692L78.3852 131.714L75.3622 132.612L75.8272 128.366" stroke="#336589" stroke-width="1.7"/>
<path d="M39.3061 64.6206L43.388 64.2927L42.7653 61.7961L46.2104 62.3297" stroke="#336589" stroke-width="1.7"/>
<path d="M67.0783 129.207L63.0526 132.219L65.3362 134.388L61.4073 136.094" stroke="#336589" stroke-width="1.7"/>
<path d="M59.4874 82.127L55.4617 85.1394L57.7453 87.3089L53.8164 89.0148" stroke="#336589" stroke-width="1.7"/>
<path d="M94.4451 93.9354C94.4451 97.1705 91.9847 99.7063 89.0535 99.7063C86.1224 99.7063 83.6619 97.1705 83.6619 93.9354C83.6619 90.7002 86.1224 88.1645 89.0535 88.1645C91.9847 88.1645 94.4451 90.7002 94.4451 93.9354Z" fill="#F5F7F9" stroke="#336589" stroke-width="1.7"/>
<path d="M56.9956 93.9354C56.9956 97.1705 54.5351 99.7063 51.604 99.7063C48.6728 99.7063 46.2124 97.1705 46.2124 93.9354C46.2124 90.7002 48.6728 88.1645 51.604 88.1645C54.5351 88.1645 56.9956 90.7002 56.9956 93.9354Z" fill="#F5F7F9" stroke="#336589" stroke-width="1.7"/>
<path d="M47.6332 93.9354C47.6332 97.1705 45.1727 99.7063 42.2416 99.7063C39.3105 99.7063 36.85 97.1705 36.85 93.9354C36.85 90.7002 39.3105 88.1645 42.2416 88.1645C45.1727 88.1645 47.6332 90.7002 47.6332 93.9354Z" fill="#F5F7F9" stroke="#336589" stroke-width="1.7"/>
<path d="M44.0462 98.3262L43.4216 93.3474L40.3986 94.2462L40.8636 89.9998" stroke="#336589" stroke-width="1.7"/>
<path d="M60.0462 146.326L59.4216 141.347L56.3986 142.246L56.8636 138" stroke="#336589" stroke-width="1.7"/>
<path d="M90.0462 68.3262L89.4216 63.3474L86.3986 64.2462L86.8636 59.9998" stroke="#336589" stroke-width="1.7"/>
<path d="M44.0462 8.32617L43.4216 3.34738L40.3986 4.24619L40.8636 -0.000199985" stroke="#336589" stroke-width="1.7"/>
<path d="M55.2292 125.58L60.2296 125.163L59.4571 122.105L63.6806 122.746" stroke="#336589" stroke-width="1.7"/>
<path d="M48 135.024L53.0004 134.607L52.228 131.549L56.4514 132.19" stroke="#336589" stroke-width="1.7"/>
</g>
<path d="M118.135 126.484L103.291 99.2168C102.159 97.3464 100.19 96.2144 98 96.2144C95.8098 96.2144 93.841 97.3464 92.7089 99.2168L77.8645 126.484C76.7327 128.428 76.708 130.741 77.8155 132.685C78.9228 134.63 80.9161 135.786 83.1556 135.786H112.844C115.084 135.786 117.077 134.63 118.185 132.685C119.292 130.741 119.267 128.428 118.135 126.484Z" fill="#333333"/>
<path d="M118.185 132.685C117.077 134.63 115.084 135.786 112.844 135.786H98V96.2144C100.19 96.2144 102.159 97.3465 103.291 99.2168L110.713 112.85L118.135 126.484C119.267 128.428 119.292 130.741 118.185 132.685Z" fill="#333333"/>
<path d="M116.019 127.739L101.175 100.472C100.51 99.3397 99.3044 98.6753 98 98.6753C96.6956 98.6753 95.4898 99.3398 94.8255 100.472L79.9809 127.739C79.2919 128.896 79.2919 130.298 79.9565 131.455C80.6209 132.636 81.8266 133.325 83.1557 133.325H112.844C114.173 133.325 115.379 132.636 116.044 131.455C116.708 130.298 116.708 128.896 116.019 127.739Z" fill="#FAAC48"/>
<path d="M116.044 131.455C115.379 132.636 114.173 133.325 112.844 133.325H98V98.6753C99.3044 98.6753 100.51 99.3398 101.175 100.472L116.019 127.739C116.708 128.896 116.708 130.298 116.044 131.455Z" fill="#FAAC48"/>
<path d="M98 130.864C96.6434 130.864 95.5391 129.759 95.5391 128.403C95.5391 127.046 96.6434 125.942 98 125.942C99.3566 125.942 100.461 127.046 100.461 128.403C100.461 129.759 99.3566 130.864 98 130.864Z" fill="#333333"/>
<path d="M100.461 121.02C100.461 122.377 99.3566 123.481 98 123.481C96.6434 123.481 95.5391 122.377 95.5391 121.02V108.715C95.5391 107.359 96.6434 106.254 98 106.254C99.3566 106.254 100.461 107.359 100.461 108.715V121.02Z" fill="#333333"/>
<path d="M100.461 128.403C100.461 127.046 99.3566 125.942 98 125.942V130.864C99.3566 130.864 100.461 129.759 100.461 128.403Z" fill="#333333"/>
<path d="M100.461 121.02V108.715C100.461 107.359 99.3566 106.254 98 106.254V123.481C99.3566 123.481 100.461 122.377 100.461 121.02Z" fill="#333333"/>
</g>
</svg>
