<svg xmlns="http://www.w3.org/2000/svg" width="129" height="99" fill="none" viewBox="0 70 158 129">
    <path fill="#DD4242" d="M135.901 88.21H21.384l-3.545 2.235v6.057l3.055 3.598c.292.408.524.903.683 1.453.158.55.239 1.143.237 1.743l7.416 34.687c.119 3.219 1.276 5.767 2.655 5.767h85.733c1.379 0 2.536-2.548 2.64-5.767l15.436-34.665a6.441 6.441 0 0 1 .24-1.723 4.99 4.99 0 0 1 .664-1.45l2.967-3.643v-6.057l-3.664-2.235z"/>
    <path fill="#7D0F0F" d="M127.744 97.15H20.639l-2.4 4.262v6.792l3.062 4.575c.29.508.521 1.127.68 1.816a9.99 9.99 0 0 1 .248 2.19l-3.21 31.258c.118 4.006 1.267 7.217 2.65 7.217h105.088c1.384 0 2.532-3.211 2.635-7.217l-2.267-31.258c0-.751.079-1.494.234-2.183.154-.689.38-1.31.664-1.823l2.944-4.575 6.359-6.792-9.582-4.262z"/>
    <path fill="#143C6D" d="M130.527 144.003H25.216v13.411h105.311v-13.411z"/>
    <path fill="#A42121" d="M30.48 99.236L16.273 112.87l6.081 33.905 7.06 4.381 1.066-7.153V99.236zM126.199 99.737l10.359 12.13 1.771 32.977-10.917 6.312-1.213-8.27V99.737z"/>
    <path fill="#DD4242" d="M132.722 108.802s2.463 3.241 2.418 4.47v18.86c-.089 2.86-1.469 5.14-3.828 5.14H25.276c-1.23 0-3.271-2.235-3.375-5.14l-.587-18.882c0-1.229 2.33-4.47 2.33-4.47l-.12-4.314H0v16.607l4.257 5.051a6.59 6.59 0 0 1 .953 2.031c.22.77.33 1.601.323 2.439l10.382 60.36c.149 4.47 1.765 8.046 3.679 8.046h118.349c1.929 0 3.516-3.554 3.679-8.046l10.294-60.36a8.882 8.882 0 0 1 .325-2.431 6.833 6.833 0 0 1 .935-2.039l4.183-5.074v-16.561h-24.37l-.267 4.313z"/>
    <path fill="#3A0000" d="M29.1 99.236h99.166c.143-.166-.164-.307 0-.42V97.23H29.099v1.56c.18.078-.122.233 0 .445z" opacity=".4"/>
    <path fill="#000" d="M.104 121.34l4.212 5.029c.401.576.719 1.27.933 2.039.214.769.321 1.597.313 2.431l10.309 60.289c.148 4.47 1.75 7.845 3.664 7.845h6.956l-2.966-2.034c-3.308-2.525-5.607-9.588-5.77-17.724l-6.304-75.403H.104v17.528zM141.652 191.218l10.264-60.401a8.777 8.777 0 0 1 .342-2.375c.22-.749.537-1.424.933-1.983l4.183-5.029v-17.528h-11.273l-6.318 75.403c-.178 8.135-2.477 15.042-5.785 17.567l-2.967 2.101h6.912c1.958 0 3.545-3.285 3.709-7.755z" opacity=".05"/>
    <path fill="#C53131" d="M32.121 96.621H17.413L.104 104.49H23.54l8.582-7.868zM125.395 96.621h14.669l17.325 7.868h-24.4l-7.594-7.868z"/>
    <path fill="#C73B3B" d="M31.119 96.621l-7.594 7.868.103 4.336 7.595-8.56-.104-3.644zM125.395 96.621l7.594 7.868-.104 4.336-7.594-8.56.104-3.644z"/>
    <rect width="82.2" height="46.114" x="37.086" y="145.343" fill="#FB9907" stroke="#fff" stroke-width="2" rx="4"/>
    <path fill="#000" d="M73.742 164.498a7.266 7.266 0 0 1 4.535-1.58c1.717 0 3.296.593 4.539 1.583a10.696 10.696 0 0 0 1.64-1.993 9.874 9.874 0 0 0-6.18-2.16 9.875 9.875 0 0 0-6.135 2.126c.445.737.984 1.419 1.601 2.024zM85.434 168.983c.055.354.083.715.083 1.084 0 3.011-1.896 5.592-4.57 6.644.195.836.495 1.65.888 2.416 3.674-1.412 6.285-4.941 6.285-9.061 0-.477-.035-.945-.103-1.404-.868.031-1.733.139-2.583.321zM71.036 170.066c0-.366.029-.727.083-1.08a6.728 6.728 0 0 0-2.575-.372 9.6 9.6 0 0 0-.11 1.452c0 4.103 2.588 7.621 6.238 9.044a7.399 7.399 0 0 0 .967-2.387c-2.692-1.044-4.603-3.634-4.603-6.657z"/>
    <path fill="#000" d="M94.827 168.806c-1.342-2.313-3.447-3.93-5.839-4.727.834-4.361-1.21-8.989-5.4-11.349a11.196 11.196 0 0 0-3.955-1.339c-.025.15-.035.302-.03.454a7.724 7.724 0 0 1 3.537 1.631c2.85 2.31 3.685 6.377 1.797 9.645-.083.143-.17.282-.261.419l-.04.003a7.72 7.72 0 0 1-6.042 3.387l.006 1.063a2.19 2.19 0 0 1 1.838 2.149c0 .26-.047.509-.131.74l.792.498a7.723 7.723 0 0 1 6.327-3.498v.002h.04l.121-.001.058.001.075.002a5.344 5.344 0 0 1 .23.007 7.727 7.727 0 0 1 2.662.6l.109.047.067.029c1.42.637 2.66 1.7 3.495 3.14a7.497 7.497 0 0 1 .613 6.211.62.62 0 0 0 .49.212c1.246-2.944 1.152-6.378-.559-9.326zM61.375 178.157a.424.424 0 0 0 .172-.107 7.509 7.509 0 0 1-.467-2.613c0-4.203 3.45-7.61 7.707-7.61a7.726 7.726 0 0 1 6.517 3.545l.852-.48a2.15 2.15 0 0 1-.135-.749c0-1.076.79-1.97 1.83-2.147l-.006-1.064c-4.085-.191-7.336-3.52-7.336-7.6 0-3.729 2.716-6.83 6.3-7.483.011-.163.005-.327-.017-.489-3.28.385-6.317 2.221-8.058 5.235a10.351 10.351 0 0 0-1.17 7.326 10.822 10.822 0 0 0-7.24 10.229c0 1.41.27 2.756.757 3.992a.437.437 0 0 0 .294.015zM93.723 180.534a.423.423 0 0 0-.275-.095c-.558.642-1.235 1.156-2.022 1.602-1.212.685-2.534.952-3.837.952h-.001c-4.257 0-7.708-3.352-7.708-7.554 0-1.248.305-2.401.845-3.44l-.79-.484a2.22 2.22 0 0 1-1.706.802 2.212 2.212 0 0 1-1.7-.786l-.856.483a7.507 7.507 0 0 1 .822 3.422 7.503 7.503 0 0 1-.948 3.659l.01.019a7.72 7.72 0 0 1-6.757 3.948 7.726 7.726 0 0 1-5.852-2.659.438.438 0 0 0-.394.341c1.967 2.571 5.056 4.228 8.531 4.228 2.695 0 5.157-.996 7.045-2.641 3.382 2.84 8.392 3.413 12.532 1.071a11.07 11.07 0 0 0 3.187-2.697.418.418 0 0 0-.126-.171z"/>
    <path fill="#C53131" d="M135.724 88.21H21.576c-.147.12-3.533 2.005-3.533 2.005H139.33s-3.489-1.765-3.607-2.005z"/>
    <path fill="#000" fill-opacity=".09" d="M21.551 121.288H0l5.012 7.017h16.54v-7.017zM135.322 121.288h21.551l-5.012 7.017h-16.539v-7.017z"/>
    <path fill="#fff" d="M42.1 90.215h4.01v7.017H42.1z"/>
    <path fill="#F7F7F7" d="M33.079 79.188h91.216v8.02c0 .553-.448 1.002-1.002 1.002H34.081a1.002 1.002 0 0 1-1.002-1.003v-8.019z"/>
    <path fill="#D0CFCF" d="M34.081 77.183h89.212l1.002 2.005H33.079l1.002-2.005z"/>
    <path fill="#F7F7F7" d="M34.081 4.01h89.212v73.174H34.081z"/>
    <path fill="#C4C4C4" d="M34.081 4.01A4.01 4.01 0 0 1 38.091 0h81.193a4.01 4.01 0 0 1 4.009 4.01H34.081z"/>
    <path fill="#fff" d="M112.267 90.215h4.01v7.017h-4.01z"/>
    <path fill="#D0CFCF" d="M47.613 88.21l-1.503 2.005H42.1l1.504-2.005h4.01zM110.763 88.21l1.504 2.005h4.009l-1.503-2.005h-4.01z"/>
</svg>