<svg xmlns="http://www.w3.org/2000/svg" width="129" height="99" fill="none" viewBox="0 0 129 99">
    <path fill="#DD4242" d="M111.388 7.455H17.527L14.62 9.3v5.005l2.505 2.973c.239.338.429.746.559 1.2.13.455.196.946.194 1.441l6.079 28.663c.097 2.659 1.046 4.764 2.176 4.764h70.269c1.13 0 2.078-2.105 2.164-4.764l12.651-28.644c.003-.49.07-.974.197-1.425.127-.45.312-.857.544-1.198l2.432-3.01V9.301l-3.003-1.846z"/>
    <path fill="#7D0F0F" d="M104.702 14.842H16.916l-1.966 3.522v5.611l2.509 3.78c.237.421.427.932.558 1.502.13.57.2 1.185.202 1.81l-2.63 25.827c.096 3.31 1.037 5.964 2.172 5.964h86.132c1.135 0 2.076-2.653 2.16-5.964l-1.858-25.828c0-.62.065-1.234.192-1.804.126-.57.311-1.082.544-1.506l2.413-3.78 5.212-5.612-7.854-3.522z"/>
    <path fill="#143C6D" d="M106.983 53.557H20.667v11.08h86.316v-11.08z"/>
    <path fill="#A42121" d="M24.982 16.565L13.338 27.831l4.984 28.016 5.786 3.62.874-5.91V16.565zM103.436 16.98l8.49 10.023 1.452 27.248-8.948 5.215-.994-6.833V16.98z"/>
    <path fill="#DD4242" d="M108.783 24.47s2.018 2.678 1.981 3.694v15.583c-.073 2.364-1.204 4.248-3.137 4.248h-86.91c-1.009 0-2.681-1.847-2.767-4.248l-.48-15.602c0-1.016 1.909-3.694 1.909-3.694l-.098-3.564H0V34.61l3.49 4.173c.334.47.6 1.043.78 1.679.18.636.27 1.323.265 2.015l8.51 49.876C13.166 96.045 14.49 99 16.06 99h97.002c1.58 0 2.881-2.936 3.015-6.648l8.437-49.876a7.442 7.442 0 0 1 .266-2.008 5.686 5.686 0 0 1 .767-1.686l3.429-4.192V20.906h-19.975l-.218 3.564z"/>
    <path fill="#3A0000" d="M23.85 16.566h81.28c.117-.137-.134-.254 0-.348v-1.309H23.85v1.289c.147.065-.1.193 0 .368z" opacity=".4"/>
    <path fill="#000" d="M.085 34.83l3.453 4.156c.328.475.588 1.049.764 1.684.176.636.263 1.32.257 2.01l8.45 49.816c.12 3.693 1.434 6.482 3.002 6.482h5.702l-2.432-1.68c-2.71-2.088-4.595-7.923-4.729-14.646L9.385 20.347h-9.3V34.83zM116.101 92.57l8.413-49.909a7.297 7.297 0 0 1 .281-1.962c.179-.62.44-1.177.764-1.639l3.429-4.155V20.42h-9.24l-5.179 62.306c-.146 6.722-2.03 12.428-4.741 14.515l-2.431 1.736h5.665c1.605 0 2.905-2.715 3.039-6.408z" opacity=".05"/>
    <path fill="#C53131" d="M26.327 14.405H14.272l-14.187 6.5h19.208l7.034-6.5zM102.777 14.405H114.8l14.2 6.5h-19.999l-6.224-6.5z"/>
    <path fill="#C73B3B" d="M25.506 14.405l-6.225 6.5.085 3.584 6.225-7.073-.085-3.01zM102.777 14.405l6.224 6.5-.085 3.584-6.224-7.073.085-3.01z"/>
    <rect width="67.013" height="37.757" x="30.577" y="54.837" fill="#FB9907" stroke="#fff" stroke-width="2" rx="4"/>
    <path fill="#000" d="M60.441 70.491a5.923 5.923 0 0 1 3.717-1.305c1.407 0 2.701.49 3.72 1.308a8.812 8.812 0 0 0 1.345-1.647 8.051 8.051 0 0 0-5.065-1.784c-1.901 0-3.65.657-5.03 1.755.365.61.807 1.174 1.313 1.673zM70.024 74.197c.045.292.068.591.068.896 0 2.488-1.554 4.62-3.746 5.49.16.691.406 1.363.728 1.996 3.011-1.166 5.151-4.082 5.151-7.487 0-.394-.028-.78-.084-1.16-.712.026-1.42.115-2.117.265zM58.223 75.092c0-.303.023-.601.068-.892a5.48 5.48 0 0 0-2.111-.308 8 8 0 0 0-.09 1.2c0 3.39 2.122 6.297 5.113 7.472a6.145 6.145 0 0 0 .792-1.971c-2.206-.863-3.772-3.003-3.772-5.5z"/>
    <path fill="#000" d="M77.723 74.051a8.681 8.681 0 0 0-4.786-3.906c.683-3.603-.991-7.427-4.427-9.377a9.123 9.123 0 0 0-3.241-1.107 1.99 1.99 0 0 0-.025.375 6.31 6.31 0 0 1 2.9 1.348 6.268 6.268 0 0 1 1.258 8.316l-.032.002a6.317 6.317 0 0 1-4.953 2.8l.006.878a1.804 1.804 0 0 1 1.398 2.387l.65.41a6.319 6.319 0 0 1 5.186-2.89v.002h.033a5.446 5.446 0 0 1 .208.002c.05 0 .098.002.147.004l.042.001a6.303 6.303 0 0 1 2.18.496l.09.04a6.267 6.267 0 0 1 2.92 2.618 6.24 6.24 0 0 1 .502 5.132c.097.115.25.182.402.175 1.02-2.433.944-5.27-.458-7.706zM50.304 81.778a.349.349 0 0 0 .142-.089 6.25 6.25 0 0 1-.383-2.16c0-3.472 2.828-6.287 6.317-6.287a6.32 6.32 0 0 1 5.341 2.93l.698-.397a1.804 1.804 0 0 1 1.39-2.393l-.006-.88c-3.347-.157-6.012-2.908-6.012-6.28 0-3.08 2.226-5.643 5.164-6.182a2.08 2.08 0 0 0-.014-.405c-2.688.319-5.178 1.836-6.605 4.326a8.613 8.613 0 0 0-.959 6.053c-3.453 1.212-5.933 4.538-5.933 8.453 0 1.165.22 2.277.62 3.298a.35.35 0 0 0 .24.013zM76.818 83.741a.35.35 0 0 0-.226-.078c-.457.53-1.012.956-1.657 1.324-.994.566-2.076.787-3.145.787-3.49 0-6.318-2.77-6.318-6.242 0-1.031.25-1.984.692-2.843l-.647-.4a1.814 1.814 0 0 1-2.792.013l-.701.4c.43.85.673 1.81.673 2.827a6.239 6.239 0 0 1-.777 3.024l.008.015a6.32 6.32 0 0 1-5.538 3.263 6.312 6.312 0 0 1-4.796-2.198.363.363 0 0 0-.323.282c1.612 2.124 4.144 3.494 6.992 3.494a8.713 8.713 0 0 0 5.774-2.183c2.772 2.347 6.878 2.82 10.272.886a9.102 9.102 0 0 0 2.612-2.23.35.35 0 0 0-.103-.14z"/>
    <path fill="#C53131" d="M111.243 7.455H17.685c-.121.099-2.897 1.656-2.897 1.656H114.2s-2.859-1.458-2.956-1.656z"/>
    <path fill="#000" fill-opacity=".09" d="M17.664 34.787H0l4.108 5.798h13.556v-5.798zM110.913 34.787h17.664l-4.108 5.798h-13.556v-5.798z"/>
    <path fill="#F7F7F7" d="M27.934 7.455L25.88 9.11v5.798l-8.627 7.04v13.253l.294 9.786a4 4 0 0 0 3.998 3.88h85.897a4 4 0 0 0 3.999-3.88l.294-9.786V21.949l-8.627-7.04V9.111l-2.054-1.656h-73.12z"/>
    <path fill="#E2E2E2" d="M103.108 9.111H25.88l2.054-1.656h73.12l2.054 1.656zM111.735 21.95H17.253l8.627-7.04h77.228l8.627 7.04z"/>
</svg>
