<svg xmlns="http://www.w3.org/2000/svg" width="55" height="80" fill="none" viewBox="0 0 55 80">
    <path fill="#E3ECEF" fill-rule="evenodd" d="M52 4H3L0 8v70h55V8l-3-4z" clip-rule="evenodd"/>
    <path fill="#F2F6F7" d="M3 8h25v70H5a2 2 0 0 1-2-2V8z"/>
    <path fill="#C9DADF" d="M47 8h6v68a2 2 0 0 1-2 2h-4V8z"/>
    <path fill="#B9C9CE" d="M0 69h55v9H0v-9z"/>
    <path fill="#A1B4BA" d="M0 77h55v1a2 2 0 0 1-2 2H2a2 2 0 0 1-2-2v-1zM2 69h2v6a1 1 0 1 1-2 0v-6zM6 69h2v6a1 1 0 1 1-2 0v-6zM10 69h2v6a1 1 0 1 1-2 0v-6zM14 69h2v6a1 1 0 1 1-2 0v-6zM18 69h2v6a1 1 0 1 1-2 0v-6zM22 69h2v6a1 1 0 1 1-2 0v-6zM26 69h3v5.5a1.5 1.5 0 0 1-3 0V69zM31 69h2v6a1 1 0 1 1-2 0v-6zM35 69h2v6a1 1 0 1 1-2 0v-6zM39 69h2v6a1 1 0 1 1-2 0v-6zM43 69h2v6a1 1 0 1 1-2 0v-6zM47 69h2v6a1 1 0 1 1-2 0v-6zM51 69h2v6a1 1 0 1 1-2 0v-6z"/>
    <path fill="#F2F6F7" d="M6 4h23l-1 4H3l3-4z"/>
    <path fill="#C9DADF" d="M50.5 4H45l2 4h6l-2.5-4z"/>
    <rect width="24" height="2" x="29" y="2" fill="#C9DADF" rx="1"/>
    <rect width="29" height="2" x="2" y="2" fill="#F2F6F7" rx="1"/>
    <path fill="#E3ECEF" d="M2 1h51v2H2z"/>
    <path fill="#F2F6F7" d="M2 1a1 1 0 0 1 1-1h49a1 1 0 0 1 1 1v1H2V1z"/>
</svg>
