<svg width="149" height="349" viewBox="0 0 149 349" fill="none" xmlns="http://www.w3.org/2000/svg">
<circle cx="97.4702" cy="45.5299" r="36.5299" fill="#003E6B"/>
<path d="M73.8918 23.2798H45L64.5933 39.5522L73.8918 23.2798Z" fill="#003E6B"/>
<mask id="mask0" mask-type="alpha" maskUnits="userSpaceOnUse" x="60" y="9" width="74" height="74">
<circle cx="97.4702" cy="45.5299" r="36.5299" fill="#99B2C4"/>
</mask>
<g mask="url(#mask0)">
<g filter="url(#filter0_d)">
<path d="M102.548 38.0844L102.371 40.5959L101.574 58.762H93.4266L92.541 40.5959L92.3639 38.0844H102.548Z" fill="#F7DD89"/>
<path d="M102.548 38.0844L102.371 40.5959H92.541L92.3639 38.0844H102.548Z" fill="#E4C76A"/>
<path d="M108.48 38.6706H86.5172C86.4286 38.6706 86.34 38.6706 86.34 38.5869V35.322C86.34 35.322 86.4286 35.2383 86.5172 35.2383L108.48 35.2383C108.569 35.2383 108.569 35.322 108.569 35.322V38.5869C108.569 38.6706 108.569 38.6706 108.48 38.6706Z" fill="#F7DD89"/>
<path fill-rule="evenodd" clip-rule="evenodd" d="M112.997 155.932L112.997 53.564C112.997 51.806 112.023 50.9494 110.429 50.196L104.761 47.5171L97.5874 44.2522L89.617 47.9357L84.6576 50.196C82.975 50.9494 82.0009 52.4563 82.0009 54.2143L82.0009 155.99C82.0009 157.37 88.9404 158.488 97.5009 158.488C106.061 158.488 113.001 157.37 113.001 155.99C113.001 155.971 112.999 155.951 112.997 155.932Z" fill="#F5F7F9"/>
<mask id="mask1" mask-type="alpha" maskUnits="userSpaceOnUse" x="82" y="44" width="32" height="115">
<path fill-rule="evenodd" clip-rule="evenodd" d="M112.997 155.932L112.997 53.564C112.997 51.806 112.023 50.9494 110.429 50.196L104.761 47.5171L97.5874 44.2522L89.617 47.9357L84.6576 50.196C82.975 50.9494 82.0009 52.4563 82.0009 54.2143L82.0009 155.99C82.0009 157.37 88.9404 158.488 97.5009 158.488C106.061 158.488 113.001 157.37 113.001 155.99C113.001 155.971 112.999 155.951 112.997 155.932Z" fill="#F5F7F9"/>
</mask>
<g mask="url(#mask1)">
<rect x="82.0009" y="49.8167" width="7.75" height="108.671" fill="#E5ECF0"/>
<rect x="105.251" y="49.8167" width="7.75" height="108.671" fill="#E5ECF0"/>
</g>
<path d="M97.587 44.7553C100.913 44.7553 103.609 43.7433 103.609 42.495C103.609 41.2466 100.913 40.2346 97.587 40.2346C94.2611 40.2346 91.5649 41.2466 91.5649 42.495C91.5649 43.7433 94.2611 44.7553 97.587 44.7553Z" fill="#F5F7F9"/>
<path d="M108.921 46.0939C107.15 43.4151 104.405 41.4059 101.305 40.5688C100.685 40.9873 99.2683 41.2385 97.4971 41.2385C95.8145 41.2385 94.4861 40.9873 93.7776 40.6525C90.678 41.5733 87.8441 43.4151 86.0729 46.1777C85.453 47.1822 85.1873 48.438 85.1873 49.61V61.0789C85.1873 61.9998 86.0729 62.6695 87.0471 62.5858C89.9696 62.0835 93.4234 61.7486 97.2315 61.7486C101.305 61.7486 104.848 62.0835 107.947 62.5858C108.921 62.7532 109.807 62.0835 109.807 61.0789V49.4425C109.807 48.2705 109.541 47.0985 108.921 46.0939Z" fill="#F7DD89"/>
<path d="M86.433 48.0195C87.6728 46.429 89.444 45.2569 91.3038 44.3361C92.2779 43.9175 93.2521 43.5826 94.3148 43.3315C95.3775 43.0804 96.4403 42.9966 97.503 42.9966C99.6284 42.9966 101.842 43.4152 103.702 44.3361C105.65 45.1732 107.333 46.429 108.573 48.0195C106.802 46.9312 105.031 46.0941 103.171 45.5081C102.197 45.2569 101.311 45.0058 100.337 44.8384C99.3627 44.6709 98.3886 44.5872 97.4144 44.5872C95.4661 44.5872 93.5178 44.9221 91.658 45.4244C89.9754 46.0941 88.1156 46.9312 86.433 48.0195Z" fill="#E9CE78"/>
<path d="M109.721 49.861V61.0788C109.721 61.9996 108.924 62.6693 107.862 62.5019C106.888 62.3345 105.825 62.2508 104.674 62.0833V47.8518C106.091 48.3541 106.888 48.7727 108.127 49.275C109.102 49.5261 109.102 49.5261 109.721 49.861Z" fill="#E9CE78"/>
<path d="M85.278 49.8636V61.0814C85.278 62.0022 86.075 62.672 87.1377 62.5045C88.1119 62.3371 89.1746 62.2534 90.3259 62.086V47.8544C88.9089 48.3567 88.1119 48.7753 86.872 49.2776C85.8979 49.5287 85.8979 49.5287 85.278 49.8636Z" fill="#E9CE78"/>
</g>
</g>
<path d="M74.1132 101.192C76.6572 101.192 77.9372 100.136 77.9372 98.008C77.9372 96.024 76.9452 95.128 74.3212 94.792C72.4812 94.552 71.8092 94.04 71.8092 92.952C71.8092 91.848 72.6252 91.24 74.1132 91.24C75.6172 91.24 76.3372 91.848 76.3372 93.112H77.7772C77.7772 90.984 76.5612 89.928 74.1612 89.928C71.7132 89.928 70.3852 91.016 70.3852 93.096C70.3852 94.968 71.3132 95.816 73.8092 96.152C75.8092 96.424 76.5132 96.968 76.5132 98.136C76.5132 99.288 75.7132 99.88 74.1292 99.88C72.4812 99.88 71.6332 99.224 71.6332 97.912H70.1932C70.1932 100.104 71.5212 101.192 74.1132 101.192ZM83.2538 101.192C85.2378 101.192 86.4698 100.296 86.5818 98.536H85.2218C85.1258 99.432 84.4698 99.976 83.2218 99.976C81.7498 99.976 81.0778 99.24 81.0778 97.624V97.256H86.6458V96.056C86.6458 93.784 85.4138 92.552 83.1578 92.552C80.9018 92.552 79.6698 93.784 79.6698 96.056V97.688C79.6698 99.96 80.9338 101.192 83.2538 101.192ZM81.0778 96.088C81.0778 94.504 81.7338 93.768 83.1898 93.768C84.6298 93.768 85.2858 94.504 85.2858 96.088H81.0778ZM91.8911 101.192C93.9711 101.192 95.1231 100.136 95.1871 98.136H93.8271C93.7311 99.464 93.0591 99.96 91.9071 99.96C90.5151 99.96 89.8591 99.24 89.8591 97.656V96.088C89.8591 94.504 90.5151 93.784 91.9071 93.784C93.0591 93.784 93.7311 94.28 93.8271 95.608H95.1871C95.1231 93.608 93.9711 92.552 91.8911 92.552C89.6511 92.552 88.4511 93.768 88.4511 96.056V97.688C88.4511 99.976 89.6511 101.192 91.8911 101.192ZM100.472 101.192C102.808 101.192 104.04 99.944 104.04 97.544V96.2C104.04 93.8 102.808 92.552 100.472 92.552C98.1362 92.552 96.9042 93.8 96.9042 96.2V97.544C96.9042 99.944 98.1362 101.192 100.472 101.192ZM100.472 99.96C99.0162 99.96 98.3122 99.16 98.3122 97.496V96.232C98.3122 94.568 99.0162 93.784 100.472 93.784C101.928 93.784 102.632 94.568 102.632 96.232V97.496C102.632 99.16 101.928 99.96 100.472 99.96ZM106.273 101H107.681V95.64C108.273 94.424 109.025 93.848 110.001 93.848C110.977 93.848 111.457 94.408 111.457 95.704V101H112.865V95.576C112.865 93.592 112.001 92.552 110.273 92.552C109.121 92.552 108.241 93.016 107.521 94.04L107.473 92.744H106.273V101ZM118.022 101.192C119.222 101.192 120.102 100.728 120.806 99.688L120.854 101H122.054V89.32H120.646V93.832C119.974 92.952 119.126 92.552 118.022 92.552C116.102 92.552 114.982 93.736 114.982 95.992V97.752C114.982 100.008 116.102 101.192 118.022 101.192ZM118.198 99.96C117.062 99.96 116.39 99.176 116.39 97.704V96.04C116.39 94.568 117.062 93.784 118.198 93.784C119.254 93.784 120.102 94.472 120.646 95.656V98.088C120.102 99.272 119.254 99.96 118.198 99.96ZM84.6641 121.192C86.8401 121.192 87.9601 120.328 87.9601 118.664C87.9601 117.096 87.1281 116.392 84.9201 116.152C83.4001 115.992 82.8401 115.688 82.8401 114.936C82.8401 114.184 83.4801 113.752 84.6321 113.752C85.8161 113.752 86.4081 114.216 86.4081 115.096H87.7841C87.7841 113.432 86.6961 112.552 84.6481 112.552C82.6001 112.552 81.4641 113.448 81.4641 115.048C81.4641 116.52 82.2641 117.16 84.4241 117.416C86.0241 117.608 86.5841 117.96 86.5841 118.776C86.5841 119.56 85.9441 119.992 84.6641 119.992C83.2881 119.992 82.6161 119.512 82.6161 118.568H81.2721C81.2721 120.312 82.3921 121.192 84.6641 121.192ZM92.4739 121H93.7539V119.784H92.8099C91.8659 119.784 91.6259 119.512 91.6259 118.44V113.896H93.6579V112.744H91.6259V110.568H90.3619L90.2499 112.744H88.7939V113.896H90.2179V118.424C90.2179 120.232 90.8899 121 92.4739 121ZM98.5503 121.192C100.886 121.192 102.118 119.944 102.118 117.544V116.2C102.118 113.8 100.886 112.552 98.5503 112.552C96.2143 112.552 94.9823 113.8 94.9823 116.2V117.544C94.9823 119.944 96.2143 121.192 98.5503 121.192ZM98.5503 119.96C97.0943 119.96 96.3903 119.16 96.3903 117.496V116.232C96.3903 114.568 97.0943 113.784 98.5503 113.784C100.006 113.784 100.71 114.568 100.71 116.232V117.496C100.71 119.16 100.006 119.96 98.5503 119.96ZM104.351 123.912H105.759V119.912C106.431 120.792 107.279 121.192 108.383 121.192C110.303 121.192 111.423 120.008 111.423 117.752V115.992C111.423 113.736 110.303 112.552 108.383 112.552C107.183 112.552 106.303 113.016 105.599 114.056L105.551 112.744H104.351V123.912ZM108.207 119.96C107.151 119.96 106.303 119.272 105.759 118.088V115.656C106.303 114.472 107.151 113.784 108.207 113.784C109.343 113.784 110.015 114.568 110.015 116.04V117.704C110.015 119.176 109.343 119.96 108.207 119.96Z" fill="white"/>
<g filter="url(#filter1_d)">
<path d="M29.5474 22.0844L29.3703 24.5959L28.5733 42.762H20.4258L19.5402 24.5959L19.3631 22.0844H29.5474Z" fill="#F7DD89"/>
<path d="M29.5474 22.0844L29.3703 24.5959H19.5402L19.3631 22.0844H29.5474Z" fill="#E4C76A"/>
<path d="M35.4791 22.6706L13.5163 22.6706C13.4278 22.6706 13.3392 22.6706 13.3392 22.5869V19.322C13.3392 19.322 13.4278 19.2383 13.5163 19.2383L35.4791 19.2383C35.5677 19.2383 35.5677 19.322 35.5677 19.322V22.5869C35.5677 22.6706 35.5677 22.6706 35.4791 22.6706Z" fill="#F7DD89"/>
<path d="M27.8214 243.665H21.2478C20.9018 243.665 20.625 243.348 20.625 242.951V233.672H28.375V242.951C28.375 243.348 28.0982 243.665 27.8214 243.665Z" fill="#99B2C4"/>
<path d="M14.1667 156.228H24.5V212.438H19.3333C19.3333 212.438 18.5952 176.464 14.1667 156.228Z" fill="#E5ECF0"/>
<path d="M34.8333 156.228H24.5V212.438H29.6666C29.6666 212.438 30.4047 176.464 34.8333 156.228Z" fill="#E5ECF0"/>
<path d="M19.3333 162.478C19.3333 159.716 21.5719 157.478 24.3333 157.478H24.6666C27.4281 157.478 29.6666 159.716 29.6666 162.478V236.669C29.6666 237.773 28.7712 238.669 27.6666 238.669H21.3333C20.2287 238.669 19.3333 237.773 19.3333 236.669V162.478Z" fill="#E5ECF0"/>
<path fill-rule="evenodd" clip-rule="evenodd" d="M37.4167 136.243H11.5833L11.5833 156.228C11.5833 157.608 17.3663 158.727 24.5 158.727C31.6337 158.727 37.4167 157.608 37.4167 156.228V136.243Z" fill="#CCD8E1"/>
<path fill-rule="evenodd" clip-rule="evenodd" d="M39.9959 139.932L39.9959 37.564C39.9959 35.806 39.0218 34.9494 37.4277 34.196L31.7599 31.5171L24.5865 28.2522L16.6161 31.9357L11.6568 34.196C9.97416 34.9494 9 36.4563 9 38.2143L9 139.99C9 141.37 15.9396 142.488 24.5 142.488C33.0604 142.488 40 141.37 40 139.99C40 139.971 39.9986 139.951 39.9959 139.932Z" fill="#F5F7F9"/>
<mask id="mask2" mask-type="alpha" maskUnits="userSpaceOnUse" x="9" y="28" width="31" height="115">
<path fill-rule="evenodd" clip-rule="evenodd" d="M39.9959 139.932L39.9959 37.564C39.9959 35.806 39.0218 34.9494 37.4277 34.196L31.7599 31.5171L24.5865 28.2522L16.6161 31.9357L11.6568 34.196C9.97416 34.9494 9 36.4563 9 38.2143L9 139.99C9 141.37 15.9396 142.488 24.5 142.488C33.0604 142.488 40 141.37 40 139.99C40 139.971 39.9986 139.951 39.9959 139.932Z" fill="#F5F7F9"/>
</mask>
<g mask="url(#mask2)">
<rect x="9" y="33.8167" width="7.75" height="108.671" fill="#E5ECF0"/>
<rect x="32.25" y="33.8167" width="7.75" height="108.671" fill="#E5ECF0"/>
</g>
<path d="M24.5862 28.7553C27.9121 28.7553 30.6082 27.7433 30.6082 26.495C30.6082 25.2466 27.9121 24.2346 24.5862 24.2346C21.2603 24.2346 18.5641 25.2466 18.5641 26.495C18.5641 27.7433 21.2603 28.7553 24.5862 28.7553Z" fill="#F5F7F9"/>
<path d="M35.9205 30.0939C34.1493 27.4151 31.404 25.4059 28.3044 24.5688C27.6845 24.9873 26.2675 25.2385 24.4963 25.2385C22.8137 25.2385 21.4853 24.9873 20.7768 24.6525C17.6772 25.5733 14.8433 27.4151 13.0721 30.1777C12.4522 31.1822 12.1865 32.438 12.1865 33.61L12.1865 45.0789C12.1865 45.9998 13.0721 46.6695 14.0462 46.5858C16.9687 46.0835 20.4226 45.7486 24.2306 45.7486C28.3044 45.7486 31.8468 46.0835 34.9464 46.5858C35.9205 46.7532 36.8061 46.0835 36.8061 45.0789V33.4425C36.8061 32.2705 36.5404 31.0985 35.9205 30.0939Z" fill="#F7DD89"/>
<path d="M13.4321 32.0195C14.672 30.429 16.4432 29.2569 18.3029 28.3361C19.2771 27.9175 20.2512 27.5826 21.314 27.3315C22.3767 27.0804 23.4394 26.9966 24.5021 26.9966C26.6275 26.9966 28.8415 27.4152 30.7013 28.3361C32.6496 29.1732 34.3322 30.429 35.5721 32.0195C33.8009 30.9312 32.0297 30.0941 30.1699 29.5081C29.1958 29.2569 28.3102 29.0058 27.336 28.8384C26.3619 28.6709 25.3877 28.5872 24.4135 28.5872C22.4652 28.5872 20.5169 28.9221 18.6572 29.4244C16.9745 30.0941 15.1148 30.9312 13.4321 32.0195Z" fill="#E9CE78"/>
<path d="M29.6667 72.5388H19.3333L19.3333 107.403H29.6667L29.6667 72.5388Z" fill="#F7DD89"/>
<path d="M27.5068 79.575H21.619L21.619 99.8424H27.5068L27.5068 79.575Z" fill="#FBF9DE"/>
<path d="M27.5068 79.575H21.619V79.995H27.5068V79.575Z" fill="#A49448"/>
<path d="M27.5068 99.5273H21.619V99.9473H27.5068V99.5273Z" fill="#A49448"/>
<path d="M27.5068 92.9112H21.619V93.3313H27.5068V92.9112Z" fill="#A49448"/>
<path d="M27.5068 86.1906H21.619V86.6105H27.5068V86.1906Z" fill="#A49448"/>
<path d="M24.6527 81.5801C25.0432 81.5801 25.3533 81.6846 25.5829 81.8937C25.8144 82.1008 25.9302 82.3777 25.9302 82.7242C25.9302 82.9882 25.8438 83.2742 25.6712 83.5823C25.5004 83.8903 25.1992 84.2982 24.7675 84.8061H26.1774V85.4716H23.5136V85.3919C23.8236 85.0343 24.0895 84.7135 24.3113 84.4293C24.535 84.1433 24.7077 83.9068 24.8293 83.7198C24.951 83.5309 25.0373 83.3705 25.0883 83.2385C25.1394 83.1065 25.1649 82.9699 25.1649 82.8287C25.1649 82.6527 25.104 82.5051 24.9824 82.3859C24.8627 82.2649 24.7165 82.2044 24.5438 82.2044C24.2338 82.2044 23.9119 82.3694 23.5783 82.6995V81.9459C23.9296 81.7021 24.2877 81.5801 24.6527 81.5801Z" fill="#101620"/>
<path d="M24.8647 88.1611C25.2807 88.1611 25.6103 88.3362 25.8537 88.6864C26.099 89.0365 26.2216 89.5151 26.2216 90.1219C26.2216 90.7343 26.1009 91.2174 25.8596 91.5713C25.6182 91.9251 25.2885 92.1021 24.8705 92.1021C24.4467 92.1021 24.1111 91.927 23.8639 91.5768C23.6186 91.2248 23.4959 90.7435 23.4959 90.1329C23.4959 89.5242 23.6186 89.0439 23.8639 88.6919C24.1092 88.338 24.4428 88.1611 24.8647 88.1611ZM24.2612 90.1549C24.2612 91.0332 24.4624 91.4723 24.8647 91.4723C25.2571 91.4723 25.4534 91.0102 25.4534 90.0862C25.4534 89.2226 25.2552 88.7909 24.8588 88.7909C24.4604 88.7909 24.2612 89.2456 24.2612 90.1549Z" fill="#101620"/>
<path d="M24.8722 94.7051C25.2882 94.7051 25.6179 94.8802 25.8612 95.2304C26.1065 95.5806 26.2292 96.0591 26.2292 96.666C26.2292 97.2783 26.1085 97.7615 25.8671 98.1153C25.6258 98.4692 25.2961 98.6461 24.8781 98.6461C24.4543 98.6461 24.1187 98.471 23.8714 98.1208C23.6262 97.7688 23.5035 97.2875 23.5035 96.677C23.5035 96.0683 23.6262 95.5879 23.8714 95.2359C24.1167 94.882 24.4503 94.7051 24.8722 94.7051ZM24.2688 96.699C24.2688 97.5772 24.47 98.0163 24.8722 98.0163C25.2647 98.0163 25.4609 97.5543 25.4609 96.6302C25.4609 95.7667 25.2627 95.3349 24.8663 95.3349C24.468 95.3349 24.2688 95.7896 24.2688 96.699Z" fill="#DB0300"/>
<path d="M36.7206 33.861V45.0788C36.7206 45.9996 35.9236 46.6693 34.8609 46.5019C33.8867 46.3345 32.824 46.2508 31.6727 46.0833L31.6727 31.8518C33.0897 32.3541 33.8867 32.7727 35.1266 33.275C36.1007 33.5261 36.1007 33.5261 36.7206 33.861Z" fill="#E9CE78"/>
<path d="M12.2771 33.8636L12.2771 45.0814C12.2771 46.0022 13.0741 46.672 14.1369 46.5045C15.111 46.3371 16.1737 46.2534 17.325 46.086L17.325 31.8544C15.9081 32.3567 15.111 32.7753 13.8712 33.2776C12.897 33.5287 12.897 33.5287 12.2771 33.8636Z" fill="#E9CE78"/>
<g filter="url(#filter2_d)">
<path opacity="0.5" d="M25.7925 316.523H23.2092L20.4106 267.247H28.5911L25.7925 316.523Z" fill="#FEF9E1"/>
<g opacity="0.7">
<path opacity="0.7" d="M21.7022 267.247H20.4106L23.2092 316.523H23.4245L21.7022 267.247Z" fill="#FEF9E1"/>
<path opacity="0.7" d="M27.2976 267.247L25.5753 316.523H25.7906L28.5892 267.247H27.2976Z" fill="#FEF9E1"/>
</g>
<path opacity="0.7" d="M28.3759 269.15L28.5911 267.881H20.4106V269.15H28.3759Z" fill="#FEF9E1"/>
<path opacity="0.7" d="M28.8064 268.727H20.1953L19.5494 257.518H29.2369L28.8064 268.727Z" fill="#FEF9E1"/>
<path opacity="0.7" d="M21.9167 268.727H20.1961L19.5503 257.518H21.2708L21.9167 268.727Z" fill="#FEF9E1"/>
<path opacity="0.7" d="M27.0833 268.727H28.8039L29.4497 257.518H27.7292L27.0833 268.727Z" fill="#FEF9E1"/>
<path opacity="0.7" d="M29.0208 258.259L29.2361 256.567H19.3333V258.259H29.0208Z" fill="#FEF9E1"/>
<path opacity="0.7" d="M29.8833 258.153H19.1194L18.4735 237.004H30.3138L29.8833 258.153Z" fill="#FEF9E1"/>
<path opacity="0.7" d="M21.2708 258.153H19.1189L18.4731 237.004H20.625L21.2708 258.153Z" fill="#FEF9E1"/>
<path opacity="0.7" d="M27.5147 258.153H29.6667L30.3125 237.004H28.1606L27.5147 258.153Z" fill="#FEF9E1"/>
<path opacity="0.7" d="M30.3138 239.754L30.5291 237.639H18.4735V239.754H30.3138Z" fill="#FEF9E1"/>
<path opacity="0.7" d="M30.9583 236.581H18.0417V239.119H30.9583V236.581Z" fill="#FEF9E1"/>
<path d="M21.2708 256.567L19.9792 237.83H21.2708V256.567Z" fill="#EDE3B6"/>
<path d="M27.7292 256.567V237.83H29.0208L27.7292 256.567Z" fill="#EDE3B6"/>
<path opacity="0.3" d="M29.4094 258.44H19.5917L19.7219 259.69H29.2802L29.4094 258.44Z" fill="#CCB450"/>
<path opacity="0.3" d="M28.5042 269.058H20.625L20.7552 270.307H28.375L28.5042 269.058Z" fill="#CCB450"/>
</g>
</g>
<g filter="url(#filter3_d)">
<path d="M29.5474 22.0844L29.3703 24.5959L28.5733 42.762H20.4258L19.5402 24.5959L19.3631 22.0844H29.5474Z" fill="#F7DD89"/>
<path d="M29.5474 22.0844L29.3703 24.5959H19.5402L19.3631 22.0844H29.5474Z" fill="#E4C76A"/>
<path d="M35.4791 22.6706L13.5163 22.6706C13.4278 22.6706 13.3392 22.6706 13.3392 22.5869V19.322C13.3392 19.322 13.4278 19.2383 13.5163 19.2383L35.4791 19.2383C35.5677 19.2383 35.5677 19.322 35.5677 19.322V22.5869C35.5677 22.6706 35.5677 22.6706 35.4791 22.6706Z" fill="#F7DD89"/>
<path d="M27.8214 243.665H21.2478C20.9018 243.665 20.625 243.348 20.625 242.951V233.672H28.375V242.951C28.375 243.348 28.0982 243.665 27.8214 243.665Z" fill="#99B2C4"/>
<path d="M14.1667 156.228H24.5V212.438H19.3333C19.3333 212.438 18.5952 176.464 14.1667 156.228Z" fill="#E5ECF0"/>
<path d="M34.8333 156.228H24.5V212.438H29.6666C29.6666 212.438 30.4047 176.464 34.8333 156.228Z" fill="#E5ECF0"/>
<path d="M19.3333 162.478C19.3333 159.716 21.5719 157.478 24.3333 157.478H24.6666C27.4281 157.478 29.6666 159.716 29.6666 162.478V236.669C29.6666 237.773 28.7712 238.669 27.6666 238.669H21.3333C20.2287 238.669 19.3333 237.773 19.3333 236.669V162.478Z" fill="#E5ECF0"/>
<path fill-rule="evenodd" clip-rule="evenodd" d="M37.4167 136.243H11.5833L11.5833 156.228C11.5833 157.608 17.3663 158.727 24.5 158.727C31.6337 158.727 37.4167 157.608 37.4167 156.228V136.243Z" fill="#CCD8E1"/>
<path fill-rule="evenodd" clip-rule="evenodd" d="M39.9959 139.932L39.9959 37.564C39.9959 35.806 39.0218 34.9494 37.4277 34.196L31.7599 31.5171L24.5865 28.2522L16.6161 31.9357L11.6568 34.196C9.97416 34.9494 9 36.4563 9 38.2143L9 139.99C9 141.37 15.9396 142.488 24.5 142.488C33.0604 142.488 40 141.37 40 139.99C40 139.971 39.9986 139.951 39.9959 139.932Z" fill="#F5F7F9"/>
<mask id="mask3" mask-type="alpha" maskUnits="userSpaceOnUse" x="9" y="28" width="31" height="115">
<path fill-rule="evenodd" clip-rule="evenodd" d="M39.9959 139.932L39.9959 37.564C39.9959 35.806 39.0218 34.9494 37.4277 34.196L31.7599 31.5171L24.5865 28.2522L16.6161 31.9357L11.6568 34.196C9.97416 34.9494 9 36.4563 9 38.2143L9 139.99C9 141.37 15.9396 142.488 24.5 142.488C33.0604 142.488 40 141.37 40 139.99C40 139.971 39.9986 139.951 39.9959 139.932Z" fill="#F5F7F9"/>
</mask>
<g mask="url(#mask3)">
<rect x="9" y="33.8167" width="7.75" height="108.671" fill="#E5ECF0"/>
<rect x="32.25" y="33.8167" width="7.75" height="108.671" fill="#E5ECF0"/>
</g>
<path d="M24.5862 28.7553C27.9121 28.7553 30.6082 27.7433 30.6082 26.495C30.6082 25.2466 27.9121 24.2346 24.5862 24.2346C21.2603 24.2346 18.5641 25.2466 18.5641 26.495C18.5641 27.7433 21.2603 28.7553 24.5862 28.7553Z" fill="#F5F7F9"/>
<path d="M35.9205 30.0939C34.1493 27.4151 31.404 25.4059 28.3044 24.5688C27.6845 24.9873 26.2675 25.2385 24.4963 25.2385C22.8137 25.2385 21.4853 24.9873 20.7768 24.6525C17.6772 25.5733 14.8433 27.4151 13.0721 30.1777C12.4522 31.1822 12.1865 32.438 12.1865 33.61L12.1865 45.0789C12.1865 45.9998 13.0721 46.6695 14.0462 46.5858C16.9687 46.0835 20.4226 45.7486 24.2306 45.7486C28.3044 45.7486 31.8468 46.0835 34.9464 46.5858C35.9205 46.7532 36.8061 46.0835 36.8061 45.0789V33.4425C36.8061 32.2705 36.5404 31.0985 35.9205 30.0939Z" fill="#F7DD89"/>
<path d="M13.4321 32.0195C14.672 30.429 16.4432 29.2569 18.3029 28.3361C19.2771 27.9175 20.2512 27.5826 21.314 27.3315C22.3767 27.0804 23.4394 26.9966 24.5021 26.9966C26.6275 26.9966 28.8415 27.4152 30.7013 28.3361C32.6496 29.1732 34.3322 30.429 35.5721 32.0195C33.8009 30.9312 32.0297 30.0941 30.1699 29.5081C29.1958 29.2569 28.3102 29.0058 27.336 28.8384C26.3619 28.6709 25.3877 28.5872 24.4135 28.5872C22.4652 28.5872 20.5169 28.9221 18.6572 29.4244C16.9745 30.0941 15.1148 30.9312 13.4321 32.0195Z" fill="#E9CE78"/>
<path d="M29.6667 72.5388H19.3333L19.3333 107.403H29.6667L29.6667 72.5388Z" fill="#F7DD89"/>
<path d="M27.5068 79.575H21.619L21.619 99.8424H27.5068L27.5068 79.575Z" fill="#FBF9DE"/>
<path d="M27.5068 79.575H21.619V79.995H27.5068V79.575Z" fill="#A49448"/>
<path d="M27.5068 99.5273H21.619V99.9473H27.5068V99.5273Z" fill="#A49448"/>
<path d="M27.5068 92.9112H21.619V93.3313H27.5068V92.9112Z" fill="#A49448"/>
<path d="M27.5068 86.1906H21.619V86.6105H27.5068V86.1906Z" fill="#A49448"/>
<path d="M24.6527 81.5801C25.0432 81.5801 25.3533 81.6846 25.5829 81.8937C25.8144 82.1008 25.9302 82.3777 25.9302 82.7242C25.9302 82.9882 25.8438 83.2742 25.6712 83.5823C25.5004 83.8903 25.1992 84.2982 24.7675 84.8061H26.1774V85.4716H23.5136V85.3919C23.8236 85.0343 24.0895 84.7135 24.3113 84.4293C24.535 84.1433 24.7077 83.9068 24.8293 83.7198C24.951 83.5309 25.0373 83.3705 25.0883 83.2385C25.1394 83.1065 25.1649 82.9699 25.1649 82.8287C25.1649 82.6527 25.104 82.5051 24.9824 82.3859C24.8627 82.2649 24.7165 82.2044 24.5438 82.2044C24.2338 82.2044 23.9119 82.3694 23.5783 82.6995V81.9459C23.9296 81.7021 24.2877 81.5801 24.6527 81.5801Z" fill="#101620"/>
<path d="M24.8647 88.1611C25.2807 88.1611 25.6103 88.3362 25.8537 88.6864C26.099 89.0365 26.2216 89.5151 26.2216 90.1219C26.2216 90.7343 26.1009 91.2174 25.8596 91.5713C25.6182 91.9251 25.2885 92.1021 24.8705 92.1021C24.4467 92.1021 24.1111 91.927 23.8639 91.5768C23.6186 91.2248 23.4959 90.7435 23.4959 90.1329C23.4959 89.5242 23.6186 89.0439 23.8639 88.6919C24.1092 88.338 24.4428 88.1611 24.8647 88.1611ZM24.2612 90.1549C24.2612 91.0332 24.4624 91.4723 24.8647 91.4723C25.2571 91.4723 25.4534 91.0102 25.4534 90.0862C25.4534 89.2226 25.2552 88.7909 24.8588 88.7909C24.4604 88.7909 24.2612 89.2456 24.2612 90.1549Z" fill="#101620"/>
<path d="M24.8722 94.7051C25.2882 94.7051 25.6179 94.8802 25.8612 95.2304C26.1065 95.5806 26.2292 96.0591 26.2292 96.666C26.2292 97.2783 26.1085 97.7615 25.8671 98.1153C25.6258 98.4692 25.2961 98.6461 24.8781 98.6461C24.4543 98.6461 24.1187 98.471 23.8714 98.1208C23.6262 97.7688 23.5035 97.2875 23.5035 96.677C23.5035 96.0683 23.6262 95.5879 23.8714 95.2359C24.1167 94.882 24.4503 94.7051 24.8722 94.7051ZM24.2688 96.699C24.2688 97.5772 24.47 98.0163 24.8722 98.0163C25.2647 98.0163 25.4609 97.5543 25.4609 96.6302C25.4609 95.7667 25.2627 95.3349 24.8663 95.3349C24.468 95.3349 24.2688 95.7896 24.2688 96.699Z" fill="#DB0300"/>
<path d="M36.7206 33.861V45.0788C36.7206 45.9996 35.9236 46.6693 34.8609 46.5019C33.8867 46.3345 32.824 46.2508 31.6727 46.0833L31.6727 31.8518C33.0897 32.3541 33.8867 32.7727 35.1266 33.275C36.1007 33.5261 36.1007 33.5261 36.7206 33.861Z" fill="#E9CE78"/>
<path d="M12.2771 33.8636L12.2771 45.0814C12.2771 46.0022 13.0741 46.672 14.1369 46.5045C15.111 46.3371 16.1737 46.2534 17.325 46.086L17.325 31.8544C15.9081 32.3567 15.111 32.7753 13.8712 33.2776C12.897 33.5287 12.897 33.5287 12.2771 33.8636Z" fill="#E9CE78"/>
<g filter="url(#filter4_d)">
<path opacity="0.5" d="M25.7925 316.523H23.2092L20.4106 267.247H28.5911L25.7925 316.523Z" fill="#FEF9E1"/>
<g opacity="0.7">
<path opacity="0.7" d="M21.7022 267.247H20.4106L23.2092 316.523H23.4245L21.7022 267.247Z" fill="#FEF9E1"/>
<path opacity="0.7" d="M27.2976 267.247L25.5753 316.523H25.7906L28.5892 267.247H27.2976Z" fill="#FEF9E1"/>
</g>
<path opacity="0.7" d="M28.3759 269.15L28.5911 267.881H20.4106V269.15H28.3759Z" fill="#FEF9E1"/>
<path opacity="0.7" d="M28.8064 268.727H20.1953L19.5494 257.518H29.2369L28.8064 268.727Z" fill="#FEF9E1"/>
<path opacity="0.7" d="M21.9167 268.727H20.1961L19.5503 257.518H21.2708L21.9167 268.727Z" fill="#FEF9E1"/>
<path opacity="0.7" d="M27.0833 268.727H28.8039L29.4497 257.518H27.7292L27.0833 268.727Z" fill="#FEF9E1"/>
<path opacity="0.7" d="M29.0208 258.259L29.2361 256.567H19.3333V258.259H29.0208Z" fill="#FEF9E1"/>
<path opacity="0.7" d="M29.8833 258.153H19.1194L18.4735 237.004H30.3138L29.8833 258.153Z" fill="#FEF9E1"/>
<path opacity="0.7" d="M21.2708 258.153H19.1189L18.4731 237.004H20.625L21.2708 258.153Z" fill="#FEF9E1"/>
<path opacity="0.7" d="M27.5147 258.153H29.6667L30.3125 237.004H28.1606L27.5147 258.153Z" fill="#FEF9E1"/>
<path opacity="0.7" d="M30.3138 239.754L30.5291 237.639H18.4735V239.754H30.3138Z" fill="#FEF9E1"/>
<path opacity="0.7" d="M30.9583 236.581H18.0417V239.119H30.9583V236.581Z" fill="#FEF9E1"/>
<path d="M21.2708 256.567L19.9792 237.83H21.2708V256.567Z" fill="#EDE3B6"/>
<path d="M27.7292 256.567V237.83H29.0208L27.7292 256.567Z" fill="#EDE3B6"/>
<path opacity="0.3" d="M29.4094 258.44H19.5917L19.7219 259.69H29.2802L29.4094 258.44Z" fill="#CCB450"/>
<path opacity="0.3" d="M28.5042 269.058H20.625L20.7552 270.307H28.375L28.5042 269.058Z" fill="#CCB450"/>
</g>
</g>
<path d="M34 335C34 339.694 30.1944 343.5 25.5 343.5C20.8056 343.5 17 339.694 17 335C17 330.306 25.5 321 25.5 321C25.5 321 34 330.306 34 335Z" fill="#D25453"/>
<path d="M25 342.5C29.6944 342.5 33.5 338.694 33.5 334L29.5 338.5L25 342.5Z" fill="#A41034"/>
<path d="M27 296H22L23.3 306.26C23.3 306.573 23.3 306.885 23.4 307.25L24.4 316H24.9L25.6875 307.25C25.6875 306.938 25.6875 306.625 25.7875 306.26L27 296Z" fill="#D25453"/>
<defs>
<filter id="filter0_d" x="79.0009" y="18" width="37" height="352" filterUnits="userSpaceOnUse" color-interpolation-filters="sRGB">
<feFlood flood-opacity="0" result="BackgroundImageFix"/>
<feColorMatrix in="SourceAlpha" type="matrix" values="0 0 0 0 0 0 0 0 0 0 0 0 0 0 0 0 0 0 127 0"/>
<feOffset dy="2"/>
<feGaussianBlur stdDeviation="1.5"/>
<feColorMatrix type="matrix" values="0 0 0 0 0 0 0 0 0 0 0 0 0 0 0 0 0 0 0.25 0"/>
<feBlend mode="normal" in2="BackgroundImageFix" result="effect1_dropShadow"/>
<feBlend mode="normal" in="SourceGraphic" in2="effect1_dropShadow" result="shape"/>
</filter>
<filter id="filter1_d" x="6" y="2" width="37" height="352" filterUnits="userSpaceOnUse" color-interpolation-filters="sRGB">
<feFlood flood-opacity="0" result="BackgroundImageFix"/>
<feColorMatrix in="SourceAlpha" type="matrix" values="0 0 0 0 0 0 0 0 0 0 0 0 0 0 0 0 0 0 127 0"/>
<feOffset dy="2"/>
<feGaussianBlur stdDeviation="1.5"/>
<feColorMatrix type="matrix" values="0 0 0 0 0 0 0 0 0 0 0 0 0 0 0 0 0 0 0.25 0"/>
<feBlend mode="normal" in2="BackgroundImageFix" result="effect1_dropShadow"/>
<feBlend mode="normal" in="SourceGraphic" in2="effect1_dropShadow" result="shape"/>
</filter>
<filter id="filter2_d" x="15.0417" y="235.581" width="18.9167" height="85.9422" filterUnits="userSpaceOnUse" color-interpolation-filters="sRGB">
<feFlood flood-opacity="0" result="BackgroundImageFix"/>
<feColorMatrix in="SourceAlpha" type="matrix" values="0 0 0 0 0 0 0 0 0 0 0 0 0 0 0 0 0 0 127 0"/>
<feOffset dy="2"/>
<feGaussianBlur stdDeviation="1.5"/>
<feColorMatrix type="matrix" values="0 0 0 0 0 0 0 0 0 0 0 0 0 0 0 0 0 0 0.25 0"/>
<feBlend mode="normal" in2="BackgroundImageFix" result="effect1_dropShadow"/>
<feBlend mode="normal" in="SourceGraphic" in2="effect1_dropShadow" result="shape"/>
</filter>
<filter id="filter3_d" x="6" y="2" width="37" height="352" filterUnits="userSpaceOnUse" color-interpolation-filters="sRGB">
<feFlood flood-opacity="0" result="BackgroundImageFix"/>
<feColorMatrix in="SourceAlpha" type="matrix" values="0 0 0 0 0 0 0 0 0 0 0 0 0 0 0 0 0 0 127 0"/>
<feOffset dy="2"/>
<feGaussianBlur stdDeviation="1.5"/>
<feColorMatrix type="matrix" values="0 0 0 0 0 0 0 0 0 0 0 0 0 0 0 0 0 0 0.25 0"/>
<feBlend mode="normal" in2="BackgroundImageFix" result="effect1_dropShadow"/>
<feBlend mode="normal" in="SourceGraphic" in2="effect1_dropShadow" result="shape"/>
</filter>
<filter id="filter4_d" x="15.0417" y="235.581" width="18.9167" height="85.9422" filterUnits="userSpaceOnUse" color-interpolation-filters="sRGB">
<feFlood flood-opacity="0" result="BackgroundImageFix"/>
<feColorMatrix in="SourceAlpha" type="matrix" values="0 0 0 0 0 0 0 0 0 0 0 0 0 0 0 0 0 0 127 0"/>
<feOffset dy="2"/>
<feGaussianBlur stdDeviation="1.5"/>
<feColorMatrix type="matrix" values="0 0 0 0 0 0 0 0 0 0 0 0 0 0 0 0 0 0 0.25 0"/>
<feBlend mode="normal" in2="BackgroundImageFix" result="effect1_dropShadow"/>
<feBlend mode="normal" in="SourceGraphic" in2="effect1_dropShadow" result="shape"/>
</filter>
</defs>
</svg>
