<svg width="149" height="349" viewBox="0 0 149 349" fill="none" xmlns="http://www.w3.org/2000/svg">
<g clip-path="url(#clip0)">
<path d="M88.072 118H95.544V116.672H89.464C89.528 115.504 90.248 114.8 92.248 113.904C94.664 112.816 95.576 111.76 95.576 110.032C95.576 108.128 94.328 106.928 91.96 106.928C89.592 106.928 88.232 108.096 88.232 110.24V110.608H89.608V110.384C89.608 108.928 90.424 108.208 91.944 108.208C93.448 108.208 94.168 108.928 94.168 110.064C94.168 111.2 93.496 111.92 91.576 112.8C89.032 113.968 88.072 115.168 88.072 117.184V118ZM101.441 118.192C103.873 118.192 105.185 116.928 105.185 114.576V110.544C105.185 108.192 103.873 106.928 101.441 106.928C99.009 106.928 97.697 108.192 97.697 110.544V114.576C97.697 116.928 99.009 118.192 101.441 118.192ZM101.441 116.912C99.873 116.912 99.105 116.112 99.105 114.48V110.64C99.105 109.008 99.873 108.208 101.441 108.208C103.009 108.208 103.777 109.008 103.777 110.64V114.48C103.777 116.112 103.009 116.912 101.441 116.912ZM107.658 118H109.29V116.368H107.658V118ZM115.519 118.192C117.951 118.192 119.263 116.928 119.263 114.576V110.544C119.263 108.192 117.951 106.928 115.519 106.928C113.087 106.928 111.775 108.192 111.775 110.544V114.576C111.775 116.928 113.087 118.192 115.519 118.192ZM115.519 116.912C113.951 116.912 113.183 116.112 113.183 114.48V110.64C113.183 109.008 113.951 108.208 115.519 108.208C117.087 108.208 117.855 109.008 117.855 110.64V114.48C117.855 116.112 117.087 116.912 115.519 116.912ZM125.875 120.912H127.283V117.904C127.635 118.096 128.051 118.192 128.547 118.192C129.651 118.192 130.547 117.728 131.283 116.656L131.331 118H132.531V109.744H131.123V115.056C130.483 116.352 129.747 116.912 128.755 116.912C127.763 116.912 127.283 116.336 127.283 115.04V109.744H125.875V120.912ZM135.187 118H136.595V106.32H135.187V118Z" fill="white"/>
<g filter="url(#filter0_d)">
<path d="M57.6137 -40.9221L57.2205 -35.2532L55.4511 5.75183H37.3643L35.3983 -35.2532L35.0051 -40.9221L57.6137 -40.9221Z" fill="#F7DD89"/>
<path d="M23.4696 261.871H46.4088V388.748H34.9392C34.9392 388.748 33.3007 307.547 23.4696 261.871Z" fill="#E5ECF0"/>
<path d="M69.348 261.871H46.4088V388.748H57.8784C57.8784 388.748 59.5169 307.547 69.348 261.871Z" fill="#E5ECF0"/>
<path d="M34.9392 269.691C34.9392 266.929 37.1778 264.691 39.9392 264.691H52.8784C55.6398 264.691 57.8784 266.929 57.8784 269.691V445.958C57.8784 447.062 56.983 447.958 55.8784 447.958H36.9392C35.8346 447.958 34.9392 447.062 34.9392 445.958V269.691Z" fill="#E5ECF0"/>
<path fill-rule="evenodd" clip-rule="evenodd" d="M75.0828 216.759L17.7348 216.759L17.7348 261.871C17.7348 264.986 30.5726 267.51 46.4088 267.51C62.245 267.51 75.0828 264.986 75.0828 261.871V216.759Z" fill="#CCD8E1"/>
<path fill-rule="evenodd" clip-rule="evenodd" d="M80.8086 225.087L80.8086 -5.98129C80.8086 -9.94952 78.646 -11.8831 75.1073 -13.5837L62.5252 -19.6306L46.6009 -27.0002L28.9073 -18.6858L17.8979 -13.5837C14.1626 -11.8831 12 -8.48174 12 -4.5135L12 225.217C12 228.332 27.4053 230.856 46.4088 230.856C65.4123 230.856 80.8176 228.332 80.8176 225.217C80.8176 225.174 80.8146 225.13 80.8086 225.087Z" fill="#F5F7F9"/>
<mask id="mask0" mask-type="alpha" maskUnits="userSpaceOnUse" x="12" y="-28" width="69" height="259">
<path fill-rule="evenodd" clip-rule="evenodd" d="M80.8086 225.087L80.8086 -5.98129C80.8086 -9.94952 78.646 -11.8831 75.1073 -13.5837L62.5252 -19.6306L46.6009 -27.0002L28.9073 -18.6858L17.8979 -13.5837C14.1626 -11.8831 12 -8.48174 12 -4.5135L12 225.217C12 228.332 27.4053 230.856 46.4088 230.856C65.4123 230.856 80.8176 228.332 80.8176 225.217C80.8176 225.174 80.8146 225.13 80.8086 225.087Z" fill="#F5F7F9"/>
</mask>
<g mask="url(#mask0)">
<rect x="12" y="-14.4398" width="17.2044" height="245.296" fill="#E5ECF0"/>
<rect x="63.6132" y="-14.4398" width="17.2044" height="245.296" fill="#E5ECF0"/>
</g>
<path d="M71.7612 -22.8427C67.8293 -28.8895 61.7348 -33.4247 54.8539 -35.3143C53.4778 -34.3695 50.3322 -33.8026 46.4003 -33.8026C42.665 -33.8026 39.7161 -34.3695 38.1433 -35.1253C31.2624 -33.0467 24.9714 -28.8895 21.0394 -22.6538C19.6633 -20.3862 19.0735 -17.5517 19.0735 -14.9063L19.0735 10.9817C19.0735 13.0603 21.0394 14.572 23.202 14.3831C29.6897 13.2493 37.3569 12.4934 45.8105 12.4934C54.854 12.4934 62.7178 13.2493 69.5986 14.3831C71.7612 14.761 73.7272 13.2493 73.7272 10.9817V-15.2842C73.7272 -17.9297 73.1374 -20.5752 71.7612 -22.8427Z" fill="#F7DD89"/>
<path d="M57.8784 72.9646H34.9392L34.9392 151.661H57.8784L57.8784 72.9646Z" fill="#F7DD89"/>
<path d="M53.0836 88.8469H40.0132L40.0132 134.595H53.0836L53.0836 88.8469Z" fill="#FBF9DE"/>
<path d="M53.0836 88.8469H40.0132V89.795H53.0836V88.8469Z" fill="#A49448"/>
<path d="M53.0836 133.884H40.0132V134.832H53.0836V133.884Z" fill="#A49448"/>
<path d="M53.0836 118.95H40.0132V119.898H53.0836V118.95Z" fill="#A49448"/>
<path d="M53.0836 103.78H40.0132V104.728H53.0836V103.78Z" fill="#A49448"/>
<path d="M46.7478 93.3729C47.6147 93.3729 48.303 93.6088 48.8127 94.0806C49.3267 94.5483 49.5837 95.1732 49.5837 95.9553C49.5837 96.5513 49.3921 97.1969 49.0087 97.8922C48.6297 98.5874 47.961 99.5082 47.0027 100.655H50.1326V102.157H44.2191V101.977C44.9073 101.17 45.4976 100.446 45.9899 99.8041C46.4865 99.1585 46.8698 98.6247 47.1399 98.2025C47.41 97.7763 47.6017 97.4142 47.7149 97.1162C47.8282 96.8182 47.8848 96.5099 47.8848 96.1912C47.8848 95.7939 47.7498 95.4608 47.4797 95.1918C47.214 94.9186 46.8894 94.7821 46.5061 94.7821C45.8178 94.7821 45.1034 95.1545 44.3628 95.8995V94.1986C45.1426 93.6481 45.9376 93.3729 46.7478 93.3729Z" fill="#101620"/>
<path d="M47.2183 108.228C48.1418 108.228 48.8737 108.623 49.4139 109.413C49.9584 110.204 50.2306 111.284 50.2306 112.654C50.2306 114.036 49.9627 115.126 49.4269 115.925C48.8911 116.724 48.1593 117.123 47.2314 117.123C46.2905 117.123 45.5455 116.728 44.9967 115.938C44.4521 115.143 44.1799 114.057 44.1799 112.679C44.1799 111.305 44.4521 110.22 44.9967 109.426C45.5412 108.627 46.2817 108.228 47.2183 108.228ZM45.8788 112.728C45.8788 114.711 46.3253 115.702 47.2183 115.702C48.0896 115.702 48.5252 114.659 48.5252 112.573C48.5252 110.624 48.0852 109.649 47.2053 109.649C46.3209 109.649 45.8788 110.675 45.8788 112.728Z" fill="#101620"/>
<path d="M47.2351 122.999C48.1586 122.999 48.8905 123.394 49.4306 124.185C49.9752 124.975 50.2474 126.055 50.2474 127.425C50.2474 128.807 49.9795 129.898 49.4437 130.697C48.9079 131.495 48.1761 131.895 47.2482 131.895C46.3072 131.895 45.5623 131.499 45.0134 130.709C44.4689 129.914 44.1967 128.828 44.1967 127.45C44.1967 126.076 44.4689 124.992 45.0134 124.197C45.558 123.398 46.2985 122.999 47.2351 122.999ZM45.8956 127.5C45.8956 129.482 46.3421 130.473 47.2351 130.473C48.1064 130.473 48.542 129.43 48.542 127.344C48.542 125.395 48.102 124.421 47.222 124.421C46.3377 124.421 45.8956 125.447 45.8956 127.5Z" fill="#DB0300"/>
<path d="M73.5379 -14.3398V10.9813C73.5379 13.0599 71.7685 14.5716 69.4094 14.1937C67.2468 13.8157 64.8877 13.6268 62.3319 13.2488L62.3319 -18.8749C65.4774 -17.7412 67.2468 -16.7963 69.9992 -15.6626C72.1617 -15.0957 72.1617 -15.0957 73.5379 -14.3398Z" fill="#E9CE78"/>
<path d="M19.2749 -14.3337L19.2749 10.9873C19.2749 13.0659 21.0443 14.5777 23.4034 14.1997C25.566 13.8218 27.9251 13.6328 30.4809 13.2549L30.4809 -18.8689C27.3353 -17.7351 25.566 -16.7903 22.8136 -15.6565C20.6511 -15.0896 20.6511 -15.0896 19.2749 -14.3337Z" fill="#E9CE78"/>
</g>
</g>
<defs>
<filter id="filter0_d" x="9" y="-85" width="74.8176" height="787" filterUnits="userSpaceOnUse" color-interpolation-filters="sRGB">
<feFlood flood-opacity="0" result="BackgroundImageFix"/>
<feColorMatrix in="SourceAlpha" type="matrix" values="0 0 0 0 0 0 0 0 0 0 0 0 0 0 0 0 0 0 127 0"/>
<feOffset dy="2"/>
<feGaussianBlur stdDeviation="1.5"/>
<feColorMatrix type="matrix" values="0 0 0 0 0 0 0 0 0 0 0 0 0 0 0 0 0 0 0.25 0"/>
<feBlend mode="normal" in2="BackgroundImageFix" result="effect1_dropShadow"/>
<feBlend mode="normal" in="SourceGraphic" in2="effect1_dropShadow" result="shape"/>
</filter>
<clipPath id="clip0">
<rect width="149" height="349" fill="white"/>
</clipPath>
</defs>
</svg>
