<svg xmlns="http://www.w3.org/2000/svg" width="132" height="107" fill="none" viewBox="0 0 132 107">
    <g>
        <path fill="url(#b)" d="M447-325h-784v629.729h784V-325z"/>
        <path fill="#668BA6" d="M-312.975 97.348v170.71h110.103v-119.49h549.598v119.49h6.699V97.348h-666.4z"/>
        <path fill="#99B2C4" d="M352.997 96.72h-677.521v11.898h677.521V96.72z"/>
        <path fill="#B0C3D0" d="M352.997 86.573h-666.852l-10.669 10.147h677.521V86.573z"/>
    </g>
    <path fill="#868CA6" d="M82.04 85.58c-.889 0-2.245-.326-2.994-.558-.748-.234-1.356-2.936-1.356-2.936-1.965-7.64-4.624-18.882-4.685-25.659-.012-1.343 0-27.427 0-27.427h18.052v27.427c0 7-3.123 18.02-5.087 25.66 0 0-.608 2.701-1.357 2.934-.748.233-2.105.56-2.994.56"/>
    <path fill="#C0C3D2" d="M81.987 84.641c-.796 0-2.012-.279-2.667-.512-.655-.186-1.216-2.655-1.216-2.655-1.778-6.849-3.58-16.945-4.095-22.955V30.427h16.046s.28 24.924 0 28.092c-.515 6.01-2.736 16.06-4.513 22.908 0 0-.562 2.422-1.217 2.655-.654.187-1.87.513-2.666.513" opacity=".7"/>
    <path fill="#868CA6" d="M71 29h23.066v2H71z"/>
    <path fill="#35AFE2" d="M81.987 84.641c-.796 0-2.012-.28-2.667-.512-.655-.186-1.216-2.656-1.216-2.656-1.778-6.848-3.58-16.944-4.095-22.954V55h16.046v3.519c-.515 6.01-2.736 16.06-4.513 22.908 0 0-.562 2.422-1.217 2.655-.654.187-1.87.513-2.666.513" opacity=".7"/>
    <path fill="#fff" d="M73.006 37.427h18.052v16H73.006z"/>
    <ellipse cx="82.032" cy="45.427" fill="#C87176" rx="5.014" ry="5"/>
    <path fill="#000" fill-opacity=".1" d="M86.043 31h5.014v26.51c0 2.945-2.006 12.272-2.006 12.272S85.26 84.294 85.04 84.509c-.22.215-3.009.491-3.009.491l4.012-27.49V31z"/>
    <path fill="#868CA6" d="M68.994 26h26.074v2H68.994z"/>
    <path fill="#577898" d="M74.009 28h16.046v1H74.009z"/>
    <path fill="#868CA6" fill-rule="evenodd" d="M97.749 27.123c.25.422.328.903.328 1.377s-.077.955-.328 1.377c-.266.446-.658.716-1.075.872-.39.146-.822.2-1.23.226-.407.025-.872.025-1.356.025h-.023v-2c.512 0 .916 0 1.254-.021.344-.022.54-.061.65-.103a.406.406 0 0 0 .058-.026 1.351 1.351 0 0 0 .044-.35c0-.134-.011-.224-.024-.282a.425.425 0 0 0-.02-.068.406.406 0 0 0-.057-.026c-.111-.042-.307-.081-.65-.103A21.551 21.551 0 0 0 94.064 28v-2h.023c.484 0 .949 0 1.356.025.408.026.84.08 1.23.226.417.156.81.426 1.075.872z" clip-rule="evenodd"/>
    <path fill="#868CA6" d="M48.04 85.58c-.889 0-2.245-.326-2.993-.558-.749-.234-1.357-2.936-1.357-2.936-1.965-7.64-4.624-18.882-4.685-25.659-.012-1.343 0-27.427 0-27.427h18.052v27.427c0 7-3.123 18.02-5.087 25.66 0 0-.608 2.701-1.357 2.934-.748.233-2.105.56-2.994.56"/>
    <path fill="#C0C3D2" d="M47.986 84.641c-.795 0-2.011-.279-2.666-.512-.655-.186-1.216-2.655-1.216-2.655-1.778-6.849-3.58-16.945-4.095-22.955V30.427h16.045s.281 24.924 0 28.092c-.514 6.01-2.735 16.06-4.512 22.908 0 0-.562 2.422-1.217 2.655-.655.187-1.87.513-2.666.513" opacity=".7"/>
    <path fill="#868CA6" d="M37 29h23.066v2H37z"/>
    <path fill="#00AEEF" d="M47.986 84.641c-.795 0-2.011-.28-2.666-.512-.655-.186-1.216-2.656-1.216-2.656-1.778-6.848-3.58-16.944-4.095-22.954V55h16.045v3.519c-.514 6.01-2.735 16.06-4.512 22.908 0 0-.562 2.422-1.217 2.655-.655.187-1.87.513-2.666.513" opacity=".7"/>
    <path fill="#fff" d="M39.006 37.427h18.052v16H39.006z"/>
    <ellipse cx="48.032" cy="45.427" fill="#58595F" rx="5.014" ry="5"/>
    <path fill="#000" fill-opacity=".1" d="M52.043 31h5.014v26.51c0 2.945-2.006 12.272-2.006 12.272S51.26 84.294 51.04 84.509c-.22.215-3.009.491-3.009.491l4.012-27.49V31z"/>
    <path fill="#868CA6" d="M34.994 26h26.074v2H34.994z"/>
    <path fill="#577898" d="M40.009 28h16.046v1H40.009z"/>
    <path fill="#868CA6" fill-rule="evenodd" d="M63.749 27.123c.25.422.328.903.328 1.377s-.077.955-.328 1.377c-.266.446-.658.716-1.075.872-.39.146-.822.2-1.23.226-.407.025-.872.025-1.356.025h-.023v-2c.512 0 .916 0 1.254-.021.344-.022.54-.061.65-.103a.406.406 0 0 0 .058-.026 1.351 1.351 0 0 0 .044-.35c0-.134-.011-.224-.024-.282a.425.425 0 0 0-.02-.068.406.406 0 0 0-.057-.026c-.111-.042-.307-.081-.65-.103A21.551 21.551 0 0 0 60.064 28v-2h.023c.484 0 .949 0 1.356.025.408.026.84.08 1.23.226.417.156.81.426 1.075.872z" clip-rule="evenodd"/>
    <path fill="#00AEEF" d="M31 90h71v3H31z"/>
    <path fill="#99DFF9" d="M34.696 88h63.608L102 90H31l3.696-2z"/>
    <path fill="#00AEEF" d="M31 51h71v3H31v-3z"/>
    <ellipse cx="50.267" cy="88.5" fill="#000" fill-opacity=".3" rx="6.8" ry=".5"/>
    <ellipse cx="82.8" cy="88.5" fill="#000" fill-opacity=".3" rx="6.8" ry=".5"/>
    <path fill="#008BC0" fill-rule="evenodd" d="M102 54H31l2 2h6v-1h18v1h16v-1h18v1h9l2-2z" clip-rule="evenodd"/>
    <path fill="#00AEEF" d="M33 55h2v34h-2zM98 55h2v34h-2z"/>
    <defs>
        <linearGradient id="b" x1="55" x2="55" y1="-325" y2="304.729" gradientUnits="userSpaceOnUse">
            <stop stop-color="#005C8C"/>
            <stop offset="1" stop-color="#003754"/>
        </linearGradient>
    </defs>
</svg>
