<svg width="132" height="100" viewBox="0 0 132 100" fill="none" xmlns="http://www.w3.org/2000/svg">
    <mask id="mask0" mask-type="alpha" maskUnits="userSpaceOnUse" x="0" y="0" width="132" height="100">
        <path d="M0.5 5C0.5 2.51472 2.51472 0.5 5 0.5H131.5V99.5H5C2.51472 99.5 0.5 97.4853 0.5 95V5Z" fill="#003E6B"
              stroke="#668BA6"/>
    </mask>
    <g mask="url(#mask0)">
        <g clip-path="url(#clip0)">
            <rect width="500.076" height="322" transform="translate(-139 -96)" fill="#336589"/>
            <path opacity="0.3" d="M109.868 110.33L32.2429 70.8616L-174.887 203.335L-88.2901 249.447L109.868 110.33Z"
                  fill="#C4C4C4"/>
            <path opacity="0.1"
                  d="M22.4912 -146.801L400.864 16.5436L374.339 159.568L137.953 53.2766L109.868 110.33L32.6332 71.2524L22.4912 -146.801Z"
                  fill="#AAAAAA"/>
            <path opacity="0.2"
                  d="M109.868 109.549L139.903 52.4951L-46.6805 177.153L-48.8928 178.716L-93.3613 253.354L109.868 109.549Z"
                  fill="#D0D0D0"/>
            <path d="M139.513 53.2766L-46.1621 177.153L-44.6018 177.544L67.3496 229.517L397.743 257.262L379.019 161.913L139.513 53.2766Z"
                  fill="#C4C4C4" fill-opacity="0.3"/>
            <path d="M23.2715 -138.986L32.6333 70.8615L-139.39 180.67L-160.844 186.922V-39.7283L23.2715 -138.986Z"
                  fill="white" fill-opacity="0.1"/>
            <path d="M368.878 4.03871L80.2224 -123.354L-54.7435 -98.3448L-148.361 -45.9807L-154.603 -31.9127L-167.085 -17.0632"
                  stroke="#F2F2F2" stroke-opacity="0.3" stroke-width="6"/>
            <path opacity="0.4"
                  d="M407.885 177.035L138.822 52.0422L-38.8304 175.478L-39.1406 175.27L178.633 276.593L246.468 276.801H407.885V177.035Z"
                  fill="#B2D3DC"/>
            <path opacity="0.8" d="M251.855 276.697L-39.1406 138.466L138.822 14.9805L407.885 139.973V276.697H251.855Z"
                  fill="#B2D3DC"/>
            <path opacity="0.5" d="M89.584 58.3567L138.733 24.3591V57.1844L89.584 91.182V58.3567Z" fill="#376B79"/>
            <path opacity="0.7" d="M155.117 64.2183L138.734 57.1843L89.1943 91.5727L105.187 98.6067L155.117 64.2183Z"
                  fill="#2E5D6B"/>
            <path opacity="0.5" d="M33.4131 98.2158L82.5625 64.2183V97.0435L33.4131 131.041V98.2158Z" fill="#376B79"/>
            <path opacity="0.6" d="M98.9456 71.2522L82.5625 64.2183V97.0435L98.9456 104.077V71.2522Z" fill="#2E5D6B"/>
            <path opacity="0.7" d="M98.9456 104.077L82.5625 97.0435L33.4131 131.041L49.0161 138.466L98.9456 104.077Z"
                  fill="#2E5D6B"/>
            <path d="M389.941 113.456L28.7319 -50.6699L-152.263 47.8058V238.505L-81.6592 233.425C-81.6592 233.425 -49.6731 179.498 -48.8929 178.716C-48.1128 177.934 -46.5525 176.762 -45.3822 177.153C-44.212 177.544 74.7608 233.425 74.7608 233.425L375.118 238.505L389.941 113.456Z"
                  fill="#00AEEF" fill-opacity="0.3"/>
            <path d="M272.139 233.816L-149.922 48.5874L-163.185 233.816H-82.049C-82.049 233.816 -50.0629 181.061 -49.2828 179.107C-48.5026 177.153 -46.1622 176.762 -44.6019 177.544C-43.0416 178.325 62.6687 227.563 62.6687 227.563L272.139 233.816Z"
                  fill="#00AEEF" fill-opacity="0.3"/>
        </g>
        <g clip-path="url(#clip1)">
            <mask id="mask1" mask-type="alpha" maskUnits="userSpaceOnUse" x="53" y="-70" width="26" height="180">
                <path opacity="0.8" fill-rule="evenodd" clip-rule="evenodd"
                      d="M53.6602 -70L78.3396 -70L76.9683 -22.453L75.4625 -22.453L74.2259 2.71869L72.7496 2.71869L68.7418 109.011L63.2576 109.002L59.2501 2.71869L57.7731 2.71869L56.5395 -22.453L55.0312 -22.453L53.6602 -70Z"
                      fill="#F7EFC7"/>
            </mask>
            <g mask="url(#mask1)">
                <path opacity="0.8"
                      d="M52.5312 -25.1753L79.9521 -25.3287L79.3616 2.64372L53.4228 2.78888L52.5312 -25.1753Z"
                      fill="#F7EFC7"/>
                <path opacity="0.8"
                      d="M58.1504 -0.0344238L74.6029 -0.126498L69.7055 108.981L64.2213 109.011L58.1504 -0.0344238Z"
                      fill="#F7EFC7"/>
                <path d="M64.6293 109.004L59.161 -67.1661L53.6768 -67.1354L52.2903 109.027L64.6293 109.004Z"
                      fill="#F7EFC7"/>
                <path d="M67.3713 108.988L72.871 -67.2429L78.3552 -67.2736L79.7109 108.988L67.3713 108.988Z"
                      fill="#F7EFC7"/>
                <path opacity="0.2" fill-rule="evenodd" clip-rule="evenodd"
                      d="M79.7117 -64.4064L52.29 -64.4033L52.3212 -61.5339L79.7107 -61.6121L79.7117 -64.4064ZM52.9644 -22.3781L77.2252 -22.5165L77.1563 -19.7218L52.5609 -19.5815L52.9644 -22.3781ZM58.4399 2.76262L74.3443 2.67189L74.3042 5.46729L58.1805 5.55927L58.4399 2.76262Z"
                      fill="#333333"/>
            </g>
            <path opacity="0.7" d="M70.3871 11.1094L61.6123 11.1094L64.6286 109L67.3708 109L70.3871 11.1094Z"
                  fill="#E00000"/>
        </g>
        <path opacity="0.5" d="M33 98.136L48.603 105.17V137.995L43.5 135.5V109L33 105.17V98.136Z" fill="#A0C4CE"/>
        <path opacity="0.5" d="M48.6035 106.17L99 71.5V104L48.6035 138.995V106.17Z" fill="#8DC8D9"/>
        <path d="M148 -18H-21V118H148V-18Z" fill="url(#paint0_linear)"/>
        <path d="M38.6149 78.352C38.6149 75.3287 36.9176 72.7035 34.4276 71.363V21.4235C34.4276 19.3332 32.727 17.646 30.6382 17.646C28.5494 17.646 26.8488 19.3331 26.8488 21.4235V71.366C24.3631 72.7081 22.6699 75.3312 22.6699 78.352C22.6699 82.741 26.2425 86.2946 30.6424 86.2946C35.04 86.2946 38.6149 82.7412 38.6149 78.352Z"
              stroke="#FAAC48" stroke-width="2"/>
        <path d="M33.4276 71.9886V39.7019H27.8488V71.9907C25.3889 73.0628 23.6699 75.5079 23.6699 78.3523C23.6699 82.1851 26.791 85.2949 30.6424 85.2949C34.4918 85.2949 37.6149 82.1851 37.6149 78.3523C37.6149 75.5059 35.8917 73.0586 33.4276 71.9886Z"
              fill="#A41034"/>
        <path d="M27.8525 69.7002H33.4293H27.8525Z" stroke="#FBFBFB" stroke-width="2" stroke-linecap="round"/>
        <path d="M27.8525 63.7002H33.4293H27.8525Z" stroke="#FBFBFB" stroke-width="2" stroke-linecap="round"/>
        <path d="M27.8525 57.7021H33.4293H27.8525Z" stroke="#FBFBFB" stroke-width="2" stroke-linecap="round"/>
        <path d="M27.8525 51.7017H33.4293H27.8525Z" stroke="#FBFBFB" stroke-width="2" stroke-linecap="round"/>
        <path d="M27.8525 45.7021H33.4293H27.8525Z" stroke="#FBFBFB" stroke-width="2" stroke-linecap="round"/>
        <path d="M27.8525 39.7017H33.4293H27.8525Z" stroke="#FBFBFB" stroke-width="2" stroke-linecap="round"/>
        <path d="M27.8525 33.7017H33.4293H27.8525Z" stroke="#FBFBFB" stroke-width="2" stroke-linecap="round"/>
        <path d="M27.8525 27.7017H33.4293H27.8525Z" stroke="#FBFBFB" stroke-width="2" stroke-linecap="round"/>
        <path d="M27.8535 21.7014H33.4302H27.8535Z" stroke="#FBFBFB" stroke-width="2" stroke-linecap="round"/>
        <path d="M66.43 57.448V55.303C66.43 52.69 65.65 50.662 63.778 49.609C65.533 48.634 66.43 46.801 66.43 44.11V43.252C66.43 38.884 64.051 36.388 59.722 36.388C55.393 36.388 53.014 38.884 53.014 43.252V44.11C53.014 46.801 53.872 48.634 55.666 49.609C53.794 50.662 53.014 52.69 53.014 55.303V57.448C53.014 61.816 55.393 64.312 59.722 64.312C64.051 64.312 66.43 61.816 66.43 57.448ZM57.304 57.331V54.796C57.304 52.651 58.201 51.715 59.722 51.715C61.243 51.715 62.14 52.651 62.14 54.796V57.331C62.101 59.749 61.087 60.412 59.722 60.412C58.357 60.412 57.304 59.749 57.304 57.331ZM57.304 43.408C57.304 40.951 58.357 40.288 59.722 40.288C61.087 40.288 62.14 40.951 62.14 43.408V44.929C62.14 47.113 61.087 47.815 59.722 47.815C58.318 47.815 57.304 47.113 57.304 44.929V43.408ZM74.9619 42.979C74.9619 41.029 75.8199 40.288 77.1849 40.288C78.5499 40.288 79.4079 41.029 79.4079 42.979V57.721C79.4079 59.671 78.5499 60.412 77.1849 60.412C75.8199 60.412 74.9619 59.671 74.9619 57.721V42.979ZM70.6719 57.448C70.6719 61.816 72.9729 64.312 77.1849 64.312C81.3969 64.312 83.6979 61.816 83.6979 57.448V43.252C83.6979 38.884 81.3969 36.388 77.1849 36.388C72.9729 36.388 70.6719 38.884 70.6719 43.252V57.448ZM87.5108 40.249C87.5108 42.394 89.2268 44.11 91.3718 44.11C93.5168 44.11 95.2328 42.394 95.2328 40.249C95.2328 38.104 93.5168 36.388 91.3718 36.388C89.2268 36.388 87.5108 38.104 87.5108 40.249ZM89.4608 40.249C89.4608 39.196 90.3188 38.338 91.3718 38.338C92.4248 38.338 93.2828 39.196 93.2828 40.249C93.2828 41.302 92.4248 42.16 91.3718 42.16C90.3188 42.16 89.4608 41.302 89.4608 40.249ZM107.745 53.821V57.721C107.745 59.671 106.887 60.373 105.522 60.373C104.157 60.373 103.299 59.671 103.299 57.721V42.979C103.299 41.029 104.157 40.288 105.522 40.288C106.887 40.288 107.745 41.029 107.745 42.979V45.904H111.801V43.252C111.801 38.884 109.617 36.388 105.405 36.388C101.193 36.388 99.0088 38.884 99.0088 43.252V57.448C99.0088 61.816 101.193 64.312 105.405 64.312C109.617 64.312 111.801 61.816 111.801 57.448V53.821H107.745Z"
              fill="white"/>
    </g>
    <defs>
        <linearGradient id="a" x1="66" x2="66" y2="104" gradientUnits="userSpaceOnUse">
            <stop offset="0" stop-color="#005C8C"/>
            <stop offset="1" stop-color="#003754"/>
        </linearGradient>
        <clipPath id="clip0">
            <rect width="500.076" height="322" fill="white" transform="translate(-139 -96)"/>
        </clipPath>
        <clipPath id="clip1">
            <rect width="27.4213" height="179" fill="white" transform="translate(52.2891 -70)"/>
        </clipPath>
    </defs>
</svg>
