<svg xmlns="http://www.w3.org/2000/svg" width="132" height="104" fill="none" viewBox="0 0 132 104">
    <path fill="url(#a)" d="M132 0H5a5 5 0 0 0-5 5v94a5 5 0 0 0 5 5h127V0z"/>
    <path fill="#B0C3D0" d="M132 81.573H0V91.72h132V81.573z"/>
    <path fill="#99B2C4" d="M132 91.72H0V99a5 5 0 0 0 5 5h127V91.72z"/>
    <path fill="#EBEBEB" d="M111.903 29.263H20.857v53.953h91.046V29.263z"/>
    <path fill="#B0E298" d="M111.903 77.596H20.857v8.43h91.046v-8.43z"/>
    <path fill="#fff" d="M109.092 45.561H23.667v35.407h85.425V45.56z"/>
    <path fill="#54BCE3" d="M109.092 80.968H23.667V45.56h8.953a19.81 19.81 0 0 0 1.343 4.5c10.594 24.12 66.027 2.36 74.681 24.637.224.664.373 1.18.448 1.475v4.795z"/>
    <path fill="#E4E4E4" d="M109.092 31.511H23.948c12.083 1.686 37.767 5.058 43.837 5.058s30.067-3.372 41.307-5.058z"/>
    <path fill="#003E6B" d="M68.535 41.627h.665l1.074-3.85 1.067 3.85h.672l1.337-4.968h-.658l-1.015 3.902-1.074-3.902h-.643l-1.067 3.887-1.015-3.887h-.68l1.337 4.968zM73.363 41.627h.68l.452-1.27h2.002l.453 1.27h.701L75.84 36.66h-.665l-1.811 4.968zm1.344-1.87l.789-2.258.789 2.258h-1.578zM78.762 41.627h.658v-4.361h1.468v-.607h-3.595v.607h1.47v4.361zM81.61 41.627h3.325v-.599h-2.667v-1.644h2.228v-.599h-2.228v-1.527h2.594v-.599H81.61v4.968zM85.87 41.627h.657v-2.016h1.09l1.183 2.016h.76l-1.213-2.06c.723-.139 1.03-.584 1.03-1.432 0-1.045-.468-1.476-1.6-1.476H85.87v4.968zm.657-2.615v-1.754h1.191c.746 0 1.001.241 1.001.877s-.255.877-1 .877h-1.191zM92.405 41.627h2.068c1.096 0 1.6-.438 1.6-1.373 0-.658-.248-1.045-.818-1.22v-.015c.453-.168.65-.519.65-1.074 0-.884-.511-1.286-1.578-1.286h-1.922v4.968zm.658-2.834v-1.535h1.213c.694 0 .979.22.979.775 0 .548-.278.76-.972.76h-1.22zm0 2.235v-1.636h1.235c.81 0 1.118.226 1.118.818 0 .577-.293.818-1.038.818h-1.315zM96.451 41.627h.68l.452-1.27h2.002l.453 1.27h.702l-1.812-4.968h-.665l-1.812 4.968zm1.344-1.87l.79-2.258.788 2.258h-1.578zM101.85 41.627h.658v-4.361h1.469v-.607h-3.595v.607h1.468v4.361zM104.699 41.627h.657v-2.235h2.404v2.235h.658V36.66h-.658v2.119h-2.404v-2.119h-.657v4.968z"/>
    <path fill="#E4E4E4" d="M24.229 45h84.301l.562.561H23.667l.562-.562z"/>
    <path fill="#BEBEBE" d="M109.655 29.263h-86.55v-.492c0-.983.82-1.756 1.86-1.756h82.755c1.042 0 1.86.773 1.86 1.756v.492h.075z"/>
    <path fill="#E4E4E4" d="M111.903 29.245v-3.66a.602.602 0 0 0-.598-.595h-89.85a.601.601 0 0 0-.598.595v3.678h91.046v-.018z" opacity=".71"/>
    <path fill="#EBEBEB" d="M111.903 26.054H20.857v1.262h91.046v-1.262z" opacity=".69"/>
    <path fill="#fff" d="M110.238 21.745H22.522c-.923 0-1.665.74-1.665 1.659v3.281h91.046v-3.281c0-.901-.742-1.659-1.665-1.659z" opacity=".83"/>
    <path fill="#54BCE3" fill-rule="evenodd" d="M48.27 20.89c-.726.857-1.154 1.976-1.154 3h-3.258c0-1.86.748-3.706 1.922-5.093 1.176-1.389 2.911-2.46 4.955-2.46h31.272c2.04 0 3.775 1.064 4.953 2.452 1.177 1.387 1.923 3.234 1.923 5.102h-3.257c0-1.035-.43-2.154-1.154-3.007-.722-.851-1.61-1.302-2.465-1.302H50.735c-.851 0-1.74.452-2.465 1.308z" clip-rule="evenodd"/>
    <mask id="b" width="24" height="14" x="33" y="52" maskUnits="userSpaceOnUse">
        <rect width="23.604" height="12.364" x="33.222" y="52.867" fill="#C4C4C4" rx="1"/>
    </mask>
    <g mask="url(#b)">
        <path fill="#4873E2" d="M56.826 52.867H33.222v12.365h23.604V52.867z"/>
        <path fill="#254FBB" d="M33.222 52.867h23.604v.495H33.222z"/>
        <path fill="#254FBB" d="M33.222 65.232V52.868h.4v11.87l-.4.494z"/>
    </g>
    <path fill="#fff" d="M36.787 63.058c.952 0 1.478-.402 1.478-1.224 0-.532-.217-.872-.674-1.027v-.012c.377-.16.569-.476.569-.933 0-.742-.501-1.156-1.367-1.156-.902 0-1.422.445-1.422 1.217v.093h.526v-.055c0-.489.309-.76.878-.76.544 0 .847.246.847.71 0 .451-.29.68-.841.68h-.47v.495h.464c.649 0 .946.247.946.73 0 .512-.334.747-.934.747-.63 0-.946-.26-.946-.766v-.08h-.531v.154c0 .773.513 1.187 1.477 1.187zM40.494 63.058c.964 0 1.508-.47 1.508-1.422 0-.903-.495-1.397-1.348-1.397-.377 0-.686.099-.933.297l.08-1.243h2.01v-.513h-2.498l-.142 2.275h.5c.248-.217.52-.322.86-.322.593 0 .927.316.927.915 0 .612-.346.915-.97.915-.563 0-.903-.247-.922-.667h-.531c.012.723.525 1.162 1.459 1.162zM43.508 60.517c.562 0 .97-.408.97-.977 0-.562-.408-.97-.97-.97-.563 0-.97.408-.97.97 0 .569.407.977.97.977zm0-.433c-.31 0-.526-.229-.526-.544 0-.309.217-.538.526-.538.309 0 .525.23.525.538 0 .316-.216.544-.525.544zM46.63 63.058c.989 0 1.496-.482 1.533-1.453h-.544c-.031.643-.346.946-.99.946-.704 0-1.013-.359-1.013-1.169v-1.001c0-.81.309-1.169 1.014-1.169.642 0 .958.303.989.953h.544c-.037-.977-.544-1.46-1.533-1.46-1.058 0-1.57.557-1.57 1.664v1.026c0 1.106.512 1.663 1.57 1.663z"/>
    <path fill="#fff" d="M47.796 53.362l-14.117 11.87h9.107l14.211-11.87h-9.201zM58.818 53.362L45.18 65.232h1.825l13.192-11.87h-1.38z" opacity=".2"/>
    <path fill="#fff" d="M35.697 56.835c.447 0 .672-.185.672-.559 0-.348-.174-.506-.635-.565-.323-.042-.441-.132-.441-.323 0-.194.143-.3.404-.3.264 0 .39.106.39.328h.254c0-.374-.214-.56-.635-.56-.43 0-.664.192-.664.557 0 .33.163.478.602.537.351.048.475.143.475.348 0 .203-.14.307-.419.307-.29 0-.438-.115-.438-.346h-.253c0 .385.233.576.688.576zM37.303 56.835c.348 0 .564-.157.584-.466h-.239c-.017.157-.132.253-.351.253-.259 0-.377-.13-.377-.413v-.065h.978v-.21c0-.4-.216-.616-.612-.616-.397 0-.613.216-.613.615v.287c0 .399.222.615.63.615zm-.383-.896c0-.278.116-.408.371-.408.253 0 .369.13.369.408h-.74zM38.727 56.801h.225v-.213h-.166c-.166 0-.208-.048-.208-.236v-.798h.357v-.203h-.357v-.382h-.222l-.02.383h-.255v.202h.25v.795c0 .318.118.453.396.453zM40.426 56.801h.224v-.213h-.165c-.166 0-.208-.048-.208-.236v-.798h.357v-.203h-.357v-.382h-.222l-.02.383h-.256v.202h.25v.795c0 .318.118.453.397.453zM41.496 56.835c.348 0 .564-.157.584-.466h-.239c-.017.157-.132.253-.35.253-.26 0-.377-.13-.377-.413v-.065h.977v-.21c0-.4-.216-.616-.612-.616s-.613.216-.613.615v.287c0 .399.222.615.63.615zm-.383-.896c0-.278.116-.408.371-.408.253 0 .369.13.369.408h-.74zM42.479 56.801h.247v-.935c.107-.225.228-.32.382-.32.152 0 .236.092.236.286v.97h.248v-.95c.106-.211.23-.307.382-.307s.236.093.236.287v.97h.247v-.99c0-.32-.16-.494-.45-.494a.514.514 0 0 0-.455.253c-.059-.166-.197-.253-.399-.253-.197 0-.34.081-.455.261l-.008-.227h-.211v1.45zM44.902 57.313h.247v-.703a.541.541 0 0 0 .461.225c.337 0 .534-.208.534-.604v-.31c0-.395-.197-.603-.534-.603a.547.547 0 0 0-.489.264l-.008-.23h-.211v1.96zm.677-.694c-.185 0-.334-.121-.43-.329v-.427c.096-.208.245-.329.43-.329.2 0 .318.138.318.396v.293c0 .258-.118.396-.318.396z"/>
    <mask id="c" width="8" height="7" x="57" y="59" maskUnits="userSpaceOnUse">
        <path fill="#80CCE8" d="M57.95 59.565c0-.285.23-.516.515-.516h5.152c.285 0 .515.231.515.516v5.151c0 .285-.23.515-.515.515h-5.152a.515.515 0 0 1-.515-.515v-5.151z"/>
    </mask>
    <g mask="url(#c)">
        <path fill="#DD871A" d="M57.95 59.565c0-.285.23-.516.515-.516h5.152c.285 0 .515.231.515.516v5.151c0 .285-.23.515-.515.515h-5.152a.515.515 0 0 1-.515-.515v-5.151z"/>
        <path fill="#BA6C08" d="M57.95 59.307c0-.142.126-.258.281-.258.155 0 .281.116.281.258v5.667c0 .142-.126.257-.28.257-.156 0-.282-.115-.282-.257v-5.667z"/>
        <path fill="#BA6C08" d="M58.465 64.67h5.41c.142 0 .257.125.257.28 0 .156-.115.281-.257.281H57.95l.515-.562z"/>
        <path fill="#BA6C08" d="M63.851 65.231c-.155 0-.28-.115-.28-.257v-5.667c0-.142.125-.258.28-.258.156 0 .281.116.281.258v5.667c0 .142-.126.257-.28.257z"/>
        <path fill="#BA6C08" d="M57.95 59.33c0-.155.115-.28.258-.28h5.924l-.515.561h-5.41c-.142 0-.257-.125-.257-.28z"/>
    </g>
    <path fill="#333" fill-rule="evenodd" d="M63.102 61.855l-2.088 1.971v-1.119l2.088-1.972v1.12zm-4.122 0l2.034 1.971v-1.119l-2.034-1.972v1.12z" clip-rule="evenodd"/>
    <mask id="d" width="8" height="8" x="57" y="52" maskUnits="userSpaceOnUse">
        <path fill="#DD871A" d="M57.95 53.383c0-.285.23-.516.515-.516h5.152c.285 0 .515.231.515.516v5.151c0 .285-.23.516-.515.516h-5.152a.515.515 0 0 1-.515-.516v-5.151z"/>
    </mask>
    <g mask="url(#d)">
        <path fill="#DD871A" d="M57.95 53.383c0-.285.23-.516.515-.516h5.152c.285 0 .515.231.515.516v5.151c0 .285-.23.516-.515.516h-5.152a.515.515 0 0 1-.515-.516v-5.151z"/>
        <path fill="#BA6C08" d="M57.95 53.125c0-.142.126-.258.281-.258.155 0 .281.116.281.258v5.667c0 .142-.126.258-.28.258-.156 0-.282-.116-.282-.258v-5.667z"/>
        <path fill="#BA6C08" d="M58.465 58.487h5.41c.142 0 .257.126.257.282 0 .155-.115.28-.257.28H57.95l.515-.562z"/>
        <path fill="#BA6C08" d="M63.851 59.05c-.155 0-.28-.116-.28-.258v-5.667c0-.142.125-.258.28-.258.156 0 .281.116.281.258v5.667c0 .142-.126.258-.28.258z"/>
        <path fill="#BA6C08" d="M57.95 53.148c0-.155.115-.28.258-.28h5.924l-.515.561h-5.41c-.142 0-.257-.125-.257-.28z"/>
    </g>
    <path fill="#333" fill-rule="evenodd" d="M58.98 56.385l2.088-1.972v1.12l-2.087 1.971v-1.119zm4.122 0l-2.034-1.972v1.12l2.034 1.971v-1.119z" clip-rule="evenodd"/>
    <mask id="e" width="8" height="8" x="57" y="52" maskUnits="userSpaceOnUse">
        <path fill="#80CCE8" d="M57.95 53.383c0-.285.23-.516.515-.516h5.152c.285 0 .515.231.515.516v5.151c0 .285-.23.516-.515.516h-5.152a.515.515 0 0 1-.515-.516v-5.151z"/>
    </mask>
    <g mask="url(#e)">
        <path fill="#FAAC48" d="M57.95 53.383c0-.285.23-.516.515-.516h5.152c.285 0 .515.231.515.516v5.151c0 .285-.23.516-.515.516h-5.152a.515.515 0 0 1-.515-.516v-5.151z"/>
        <path fill="#FFD5A0" d="M57.95 53.125c0-.142.126-.258.281-.258.155 0 .281.116.281.258v5.667c0 .142-.126.258-.28.258-.156 0-.282-.116-.282-.258v-5.667z"/>
        <path fill="#DD871A" d="M58.465 58.487h5.41c.142 0 .257.126.257.282 0 .155-.115.28-.257.28H57.95l.515-.562z"/>
        <path fill="#DD871A" d="M63.851 59.05c-.155 0-.28-.116-.28-.258v-5.667c0-.142.125-.258.28-.258.156 0 .281.116.281.258v5.667c0 .142-.126.258-.28.258z"/>
        <path fill="#FFD5A0" d="M57.95 53.148c0-.155.115-.28.258-.28h5.924l-.515.561h-5.41c-.142 0-.257-.125-.257-.28z"/>
    </g>
    <path fill="#333" fill-rule="evenodd" d="M58.98 56.385l2.088-1.972v1.12l-2.087 1.971v-1.119zm4.122 0l-2.034-1.972v1.12l2.034 1.971v-1.119z" clip-rule="evenodd"/>
    <mask id="f" width="8" height="7" x="57" y="59" maskUnits="userSpaceOnUse">
        <path fill="#80CCE8" d="M57.95 59.565c0-.285.23-.516.515-.516h5.152c.285 0 .515.231.515.516v5.151c0 .285-.23.515-.515.515h-5.152a.515.515 0 0 1-.515-.515v-5.151z"/>
    </mask>
    <g mask="url(#f)">
        <path fill="#FAAC48" d="M57.95 59.565c0-.285.23-.516.515-.516h5.152c.285 0 .515.231.515.516v5.151c0 .285-.23.515-.515.515h-5.152a.515.515 0 0 1-.515-.515v-5.151z"/>
        <path fill="#FFD5A0" d="M57.95 59.307c0-.142.126-.258.281-.258.155 0 .281.116.281.258v5.667c0 .142-.126.257-.28.257-.156 0-.282-.115-.282-.257v-5.667z"/>
        <path fill="#DD871A" d="M58.465 64.67h5.41c.142 0 .257.125.257.28 0 .156-.115.281-.257.281H57.95l.515-.562z"/>
        <path fill="#DD871A" d="M63.851 65.231c-.155 0-.28-.115-.28-.257v-5.667c0-.142.125-.258.28-.258.156 0 .281.116.281.258v5.667c0 .142-.126.257-.28.257z"/>
        <path fill="#FFD5A0" d="M57.95 59.33c0-.155.115-.28.258-.28h5.924l-.515.561h-5.41c-.142 0-.257-.125-.257-.28z"/>
    </g>
    <path fill="#333" fill-rule="evenodd" d="M63.102 61.855l-2.088 1.971v-1.119l2.088-1.972v1.12zm-4.122 0l2.034 1.971v-1.119l-2.034-1.972v1.12z" clip-rule="evenodd"/>
    <mask id="g" width="25" height="14" x="68" y="52" maskUnits="userSpaceOnUse">
        <rect width="23.604" height="12.364" x="68.628" y="52.867" fill="#C4C4C4" rx="1"/>
    </mask>
    <g mask="url(#g)">
        <path fill="#4873E2" d="M92.232 52.867H68.628v12.365h23.604V52.867z"/>
        <path fill="#254FBB" d="M68.628 52.867h23.604v.495H68.628z"/>
        <path fill="#254FBB" d="M68.628 65.232V52.868h.4v11.87l-.4.494z"/>
    </g>
    <path fill="#fff" d="M71.087 62.984h2.608v-.514h-1.032v-3.69h-.52c-.278.358-.648.519-1.18.538v.482c.414-.013.81-.062 1.156-.303v2.973h-1.032v.514zM75.9 63.058c.964 0 1.508-.47 1.508-1.422 0-.903-.495-1.397-1.348-1.397-.377 0-.686.099-.933.297l.08-1.243h2.01v-.513h-2.498l-.142 2.275h.5c.248-.217.52-.322.86-.322.593 0 .927.316.927.915 0 .612-.346.915-.97.915-.563 0-.903-.247-.922-.668h-.531c.012.724.525 1.163 1.459 1.163zM78.296 60.66h.63v-.631h-.63v.63zm0 2.324h.63v-.631h-.63v.63zM81.333 63.058c.94 0 1.447-.489 1.447-1.397v-1.558c0-.909-.507-1.397-1.447-1.397-.94 0-1.447.488-1.447 1.397v1.558c0 .908.507 1.397 1.447 1.397zm0-.495c-.606 0-.903-.309-.903-.94V60.14c0-.63.297-.94.903-.94.606 0 .903.31.903.94v1.483c0 .631-.297.94-.903.94zM85.052 63.058c.94 0 1.447-.489 1.447-1.397v-1.558c0-.909-.507-1.397-1.447-1.397-.94 0-1.447.488-1.447 1.397v1.558c0 .908.507 1.397 1.447 1.397zm0-.495c-.606 0-.903-.309-.903-.94V60.14c0-.63.297-.94.903-.94.606 0 .902.31.902.94v1.483c0 .631-.296.94-.902.94z"/>
    <path fill="#fff" d="M83.202 53.362l-14.117 11.87h9.108l14.21-11.87h-9.2zM94.224 53.362l-13.637 11.87h1.825l13.192-11.87h-1.38z" opacity=".2"/>
    <path fill="#fff" d="M71.103 56.835c.447 0 .672-.185.672-.559 0-.348-.174-.506-.635-.565-.323-.042-.441-.132-.441-.323 0-.194.143-.3.404-.3.265 0 .391.106.391.328h.253c0-.373-.214-.559-.635-.559-.43 0-.663.191-.663.556 0 .33.163.478.601.537.351.048.475.143.475.349 0 .202-.14.306-.419.306-.29 0-.438-.115-.438-.346h-.253c0 .385.233.576.688.576zM72.709 56.835c.348 0 .565-.157.584-.466h-.239c-.016.157-.132.253-.35.253-.26 0-.377-.13-.377-.413v-.065h.978v-.21c0-.4-.217-.616-.613-.616s-.613.216-.613.615v.287c0 .399.222.615.63.615zm-.382-.896c0-.278.115-.407.37-.407.254 0 .369.129.369.407h-.74zM74.133 56.802h.225v-.214h-.166c-.165 0-.208-.048-.208-.236v-.798h.357v-.202h-.357v-.383h-.222l-.02.383h-.255v.202h.25v.795c0 .318.118.453.396.453zM75.832 56.802h.225v-.214h-.166c-.166 0-.208-.048-.208-.236v-.798h.357v-.202h-.357v-.383h-.222l-.02.383h-.255v.202h.25v.795c0 .318.118.453.396.453zM76.329 55.09h.27v-.275h-.27v.275zm.011 1.712h.247v-1.45h-.247v1.45zM77.054 56.802h.247v-.936c.107-.225.227-.32.382-.32.152 0 .236.092.236.286v.97h.247v-.95c.107-.21.23-.306.383-.306.151 0 .235.092.235.286v.97h.248v-.99c0-.32-.16-.494-.45-.494a.514.514 0 0 0-.455.253c-.059-.166-.197-.253-.399-.253-.197 0-.34.081-.455.261l-.009-.227h-.21v1.45zM80.033 56.835c.349 0 .565-.157.585-.466h-.24c-.016.157-.131.253-.35.253-.26 0-.377-.13-.377-.413v-.065h.978v-.21c0-.4-.217-.616-.613-.616s-.612.216-.612.615v.287c0 .399.222.615.629.615zm-.382-.896c0-.278.115-.407.37-.407.254 0 .369.129.369.407h-.74z"/>
    <mask id="h" width="7" height="7" x="93" y="59" maskUnits="userSpaceOnUse">
        <path fill="#80CCE8" d="M93.356 59.565c0-.285.231-.516.516-.516h5.151c.285 0 .516.231.516.516v5.151c0 .285-.231.515-.516.515h-5.151a.515.515 0 0 1-.516-.515v-5.151z"/>
    </mask>
    <g mask="url(#h)">
        <path fill="#DD871A" d="M93.356 59.565c0-.285.231-.516.516-.516h5.151c.285 0 .516.231.516.516v5.151c0 .285-.231.515-.516.515h-5.151a.515.515 0 0 1-.516-.515v-5.151z"/>
        <path fill="#BA6C08" d="M93.356 59.307c0-.142.126-.258.282-.258.155 0 .28.116.28.258v5.667c0 .142-.125.257-.28.257-.156 0-.282-.115-.282-.257v-5.667z"/>
        <path fill="#BA6C08" d="M93.872 64.67h5.409c.142 0 .257.125.257.28 0 .156-.115.281-.257.281h-5.925l.516-.562z"/>
        <path fill="#BA6C08" d="M99.258 65.231c-.156 0-.281-.115-.281-.257v-5.667c0-.142.125-.258.28-.258.156 0 .282.116.282.258v5.667c0 .142-.126.257-.281.257z"/>
        <path fill="#BA6C08" d="M93.356 59.33c0-.155.116-.28.258-.28h5.924l-.515.561h-5.409c-.142 0-.258-.125-.258-.28z"/>
    </g>
    <path fill="#333" fill-rule="evenodd" d="M98.508 61.855l-2.088 1.971v-1.119l2.088-1.972v1.12zm-4.121 0l2.033 1.971v-1.119l-2.034-1.972v1.12z" clip-rule="evenodd"/>
    <mask id="i" width="7" height="8" x="93" y="52" maskUnits="userSpaceOnUse">
        <path fill="#DD871A" d="M93.356 53.383c0-.285.231-.516.516-.516h5.151c.285 0 .516.231.516.516v5.151c0 .285-.231.516-.516.516h-5.151a.515.515 0 0 1-.516-.516v-5.151z"/>
    </mask>
    <g mask="url(#i)">
        <path fill="#DD871A" d="M93.356 53.383c0-.285.231-.516.516-.516h5.151c.285 0 .516.231.516.516v5.151c0 .285-.231.516-.516.516h-5.151a.515.515 0 0 1-.516-.516v-5.151z"/>
        <path fill="#BA6C08" d="M93.356 53.125c0-.142.126-.258.282-.258.155 0 .28.116.28.258v5.667c0 .142-.125.258-.28.258-.156 0-.282-.116-.282-.258v-5.667z"/>
        <path fill="#BA6C08" d="M93.872 58.487h5.409c.142 0 .257.126.257.282 0 .155-.115.28-.257.28h-5.925l.516-.562z"/>
        <path fill="#BA6C08" d="M99.258 59.05c-.156 0-.281-.116-.281-.258v-5.667c0-.142.125-.258.28-.258.156 0 .282.116.282.258v5.667c0 .142-.126.258-.281.258z"/>
        <path fill="#BA6C08" d="M93.356 53.148c0-.155.116-.28.258-.28h5.924l-.515.561h-5.409c-.142 0-.258-.125-.258-.28z"/>
    </g>
    <path fill="#333" fill-rule="evenodd" d="M94.387 56.385l2.087-1.972v1.12l-2.087 1.971v-1.119zm4.121 0l-2.034-1.972v1.12l2.034 1.971v-1.119z" clip-rule="evenodd"/>
    <mask id="j" width="7" height="8" x="93" y="52" maskUnits="userSpaceOnUse">
        <path fill="#80CCE8" d="M93.356 53.383c0-.285.231-.516.516-.516h5.151c.285 0 .516.231.516.516v5.151c0 .285-.231.516-.516.516h-5.151a.515.515 0 0 1-.516-.516v-5.151z"/>
    </mask>
    <g mask="url(#j)">
        <path fill="#FAAC48" d="M93.356 53.383c0-.285.231-.516.516-.516h5.151c.285 0 .516.231.516.516v5.151c0 .285-.231.516-.516.516h-5.151a.515.515 0 0 1-.516-.516v-5.151z"/>
        <path fill="#FFD5A0" d="M93.356 53.125c0-.142.126-.258.282-.258.155 0 .28.116.28.258v5.667c0 .142-.125.258-.28.258-.156 0-.282-.116-.282-.258v-5.667z"/>
        <path fill="#DD871A" d="M93.872 58.487h5.409c.142 0 .257.126.257.282 0 .155-.115.28-.257.28h-5.925l.516-.562z"/>
        <path fill="#DD871A" d="M99.258 59.05c-.156 0-.281-.116-.281-.258v-5.667c0-.142.125-.258.28-.258.156 0 .282.116.282.258v5.667c0 .142-.126.258-.281.258z"/>
        <path fill="#FFD5A0" d="M93.356 53.148c0-.155.116-.28.258-.28h5.924l-.515.561h-5.409c-.142 0-.258-.125-.258-.28z"/>
    </g>
    <path fill="#333" fill-rule="evenodd" d="M94.387 56.385l2.087-1.972v1.12l-2.087 1.971v-1.119zm4.121 0l-2.034-1.972v1.12l2.034 1.971v-1.119z" clip-rule="evenodd"/>
    <mask id="k" width="21" height="7" x="56" y="69" maskUnits="userSpaceOnUse">
        <rect width="20.232" height="6.744" x="56.264" y="69.165" fill="#FAAC48" rx="1"/>
    </mask>
    <g mask="url(#k)">
        <rect width="20.232" height="6.744" x="56.264" y="69.165" fill="#FAAC48" rx="1"/>
        <path fill="#FFD5A0" d="M56.264 69.472c0-.17.137-.306.306-.306h19.313c.338 0 .613.274.613.613H56.57a.306.306 0 0 1-.306-.307z"/>
        <path fill="#DD871A" d="M76.496 75.603c0 .17-.137.307-.306.307H56.876a.613.613 0 0 1-.613-.613h19.925c.17 0 .307.137.307.306z"/>
        <path fill="#FFD5A0" d="M56.545 69.165a.281.281 0 0 0-.281.281v6.464l.562-.614v-5.85a.281.281 0 0 0-.281-.28z"/>
        <path fill="#DD871A" d="M76.215 75.91a.281.281 0 0 0 .281-.281v-6.463l-.562.613v5.85c0 .155.126.28.281.28z"/>
    </g>
    <path fill="#333" d="M63.747 73.662c.48 0 .72-.211.72-.636 0-.396-.187-.575-.681-.642-.347-.048-.474-.15-.474-.367 0-.22.154-.342.435-.342.283 0 .419.122.419.374h.271c0-.425-.229-.635-.681-.635-.462 0-.712.217-.712.632 0 .373.175.543.645.61.377.054.51.163.51.396 0 .23-.15.348-.45.348-.31 0-.47-.131-.47-.393h-.271c0 .438.25.655.739.655zM65.337 73.623h.241v-.242H65.4c-.178 0-.223-.055-.223-.269v-.906h.383v-.23h-.383v-.435h-.238l-.021.435h-.275v.23h.269v.903c0 .361.127.514.425.514zM66.313 73.662a.627.627 0 0 0 .528-.262l.009.223h.226v-1.076c0-.409-.2-.61-.61-.61-.388 0-.6.182-.626.54h.259c.009-.201.138-.297.359-.297.24 0 .353.118.353.374v.089h-.375c-.437 0-.642.185-.642.514 0 .323.2.505.519.505zm.04-.243c-.197 0-.293-.096-.293-.268 0-.185.114-.275.386-.275h.365v.233c-.094.201-.25.31-.459.31zM67.543 73.623h.266v-.948c.05-.316.193-.453.446-.453h.078v-.278h-.105c-.226 0-.368.105-.447.338l-.012-.306h-.226v1.647zM69.136 73.623h.241v-.242H69.2c-.178 0-.223-.055-.223-.269v-.906h.383v-.23h-.383v-.435h-.238l-.021.435h-.275v.23h.269v.903c0 .361.126.514.425.514z"/>
    <defs>
        <linearGradient id="a" x1="66" x2="66" y2="104" gradientUnits="userSpaceOnUse">
            <stop stop-color="#005C8C"/>
            <stop offset="1" stop-color="#003754"/>
        </linearGradient>
    </defs>
</svg>
