<svg width="150" height="183" viewBox="0 0 150 183" fill="none" xmlns="http://www.w3.org/2000/svg">
<path d="M150 89.4883H0V178.054H150V89.4883Z" fill="#EBEBEB"/>
<path d="M150 168.83H0V182.669H150V168.83Z" fill="#B0E298"/>
<path d="M145.37 93.1797H5.09259C25 95.9474 67.3148 101.483 77.3148 101.483C87.3148 101.483 126.852 95.9474 145.37 93.1797Z" fill="#E4E4E4"/>
<path d="M145 101H5V174H145V101Z" fill="white"/>
<path d="M145.37 174.364H4.62964V101.242H19.3798C19.9944 104.754 20.9777 107.175 21.5923 108.628C39.0466 148.224 130.374 112.503 144.633 149.071C145.002 150.161 145.247 166.009 145.37 166.493C145.37 169.157 145.37 171.821 145.37 174.364Z" fill="#54BCE3"/>
<path d="M5.55556 100H144.444L145.37 100.923H4.62964L5.55556 100Z" fill="#E4E4E4"/>
<path d="M146.296 89.4891H3.70367V88.6818C3.70367 87.0674 5.05236 85.7988 6.76886 85.7988H143.108C144.825 85.7988 146.174 87.0674 146.174 88.6818V89.4891H146.296Z" fill="#BEBEBE"/>
<mask id="mask0" mask-type="alpha" maskUnits="userSpaceOnUse" x="20" y="119" width="39" height="23">
<rect x="20" y="119.768" width="39" height="21.96" rx="1" fill="#C4C4C4"/>
</mask>
<g mask="url(#mask0)">
<path d="M59.2592 119.768H20.3704V142.726H59.2592V119.768Z" fill="#4873E2"/>
<rect x="20.3704" y="119.768" width="38.8889" height="0.918327" fill="#254FBB"/>
<path d="M20.3704 142.727L20.3704 119.769L21.0295 119.769L21.0295 141.808L20.3704 142.727Z" fill="#254FBB"/>
</g>
<path opacity="0.2" d="M44.6109 120.766L21 141.727H36.2326L60 120.766H44.6109Z" fill="white"/>
<path opacity="0.2" d="M62.5408 121.049L40.0729 140.533H43.0806L64.8147 121.049H62.5408Z" fill="white"/>
<mask id="mask1" mask-type="alpha" maskUnits="userSpaceOnUse" x="79" y="119" width="39" height="23">
<rect x="79" y="119.768" width="39" height="21.96" rx="1" fill="#C4C4C4"/>
</mask>
<g mask="url(#mask1)">
<path d="M118 120.236H78.7037V141.727H118V120.236Z" fill="#4873E2"/>
<rect x="78.7037" y="120.236" width="39.2963" height="0.85965" fill="#254FBB"/>
<path d="M78.7037 141.727L78.7037 120.235L79.3698 120.235L79.3698 140.867L78.7037 141.727Z" fill="#254FBB"/>
</g>
<path opacity="0.2" d="M102.716 121.049L79.4571 140.533H94.4624L117.875 121.049H102.716Z" fill="white"/>
<path opacity="0.2" d="M120.874 121.049L98.4063 140.533H101.414L123.148 121.049H120.874Z" fill="white"/>
<path d="M61.0001 120.683C61.0001 120.177 61.4105 119.768 61.9167 119.768H71.0834C71.5897 119.768 72.0001 120.177 72.0001 120.683V129.833C72.0001 130.338 71.5897 130.748 71.0834 130.748H61.9167C61.4105 130.748 61.0001 130.338 61.0001 129.833V120.683Z" fill="#FAAC48"/>
<path d="M71.5 130.748C71.2239 130.748 71 130.543 71 130.291L71 120.226C71 119.973 71.2239 119.768 71.5 119.768C71.7761 119.768 72 119.973 72 120.226L72 130.291C72 130.543 71.7761 130.748 71.5 130.748Z" fill="#DD871A"/>
<path d="M61.0001 120.225C61.0001 119.972 61.2239 119.768 61.5001 119.768V119.768C61.7762 119.768 62.0001 119.972 62.0001 120.225V130.29C62.0001 130.543 61.7762 130.748 61.5001 130.748V130.748C61.2239 130.748 61.0001 130.543 61.0001 130.29V120.225Z" fill="#FFD5A0"/>
<path d="M71.5417 119.768C71.673 119.768 71.7914 119.828 71.875 119.924C71.5 120.267 71.5 120.267 71.5 120.267C71.5 120.267 71.5 120.267 71 120.766L61.4584 120.766C61.2052 120.766 61 120.542 61 120.267C61 119.991 61.2052 119.768 61.4584 119.768L71.5417 119.768Z" fill="#FFD5A0"/>
<path d="M61.4583 130.748C61.3269 130.748 61.2085 130.688 61.125 130.592C61.5 130.249 61.4999 130.249 61.4999 130.249C61.4999 130.249 61.4999 130.249 61.9999 129.75L71.5416 129.75C71.7947 129.75 71.9999 129.973 71.9999 130.249C71.9999 130.525 71.7947 130.748 71.5416 130.748L61.4583 130.748Z" fill="#DD871A"/>
<path fill-rule="evenodd" clip-rule="evenodd" d="M62.8333 126.016L66.5476 122.514V124.501L62.8333 128.004V126.016ZM70.1666 126.016L66.5476 122.514V124.501L70.1666 128.004V126.016Z" fill="#333333"/>
<path d="M120 120.683C120 120.177 120.41 119.768 120.917 119.768H130.083C130.59 119.768 131 120.177 131 120.683V129.833C131 130.338 130.59 130.748 130.083 130.748H120.917C120.41 130.748 120 130.338 120 129.833V120.683Z" fill="#FAAC48"/>
<path d="M130.5 130.748C130.224 130.748 130 130.543 130 130.291L130 120.226C130 119.973 130.224 119.768 130.5 119.768C130.776 119.768 131 119.973 131 120.226L131 130.291C131 130.543 130.776 130.748 130.5 130.748Z" fill="#DD871A"/>
<path d="M120 120.225C120 119.972 120.224 119.768 120.5 119.768V119.768C120.776 119.768 121 119.972 121 120.225V130.29C121 130.543 120.776 130.748 120.5 130.748V130.748C120.224 130.748 120 130.543 120 130.29V120.225Z" fill="#FFD5A0"/>
<path d="M130.542 119.768C130.673 119.768 130.791 119.828 130.875 119.924C130.5 120.267 130.5 120.267 130.5 120.267C130.5 120.267 130.5 120.267 130 120.766L120.458 120.766C120.205 120.766 120 120.542 120 120.267C120 119.991 120.205 119.768 120.458 119.768L130.542 119.768Z" fill="#FFD5A0"/>
<path d="M120.458 130.748C120.327 130.748 120.209 130.688 120.125 130.592C120.5 130.249 120.5 130.249 120.5 130.249C120.5 130.249 120.5 130.249 121 129.75L130.542 129.75C130.795 129.75 131 129.973 131 130.249C131 130.525 130.795 130.748 130.542 130.748L120.458 130.748Z" fill="#DD871A"/>
<path fill-rule="evenodd" clip-rule="evenodd" d="M121.833 126.016L125.548 122.514V124.501L121.833 128.004V126.016ZM129.167 126.016L125.548 122.514V124.501L129.167 128.004V126.016Z" fill="#333333"/>
<path d="M61.0001 131.661C61.0001 131.156 61.4105 130.746 61.9167 130.746H71.0834C71.5897 130.746 72.0001 131.156 72.0001 131.661V140.811C72.0001 141.316 71.5897 141.726 71.0834 141.726H61.9167C61.4105 141.726 61.0001 141.316 61.0001 140.811V131.661Z" fill="#FAAC48"/>
<path d="M71.5 141.727C71.2239 141.727 71 141.522 71 141.269L71 131.204C71 130.951 71.2239 130.747 71.5 130.747C71.7761 130.747 72 130.951 72 131.204L72 141.269C72 141.522 71.7761 141.727 71.5 141.727Z" fill="#DD871A"/>
<path d="M61.0001 131.204C61.0001 130.951 61.2239 130.746 61.5001 130.746V130.746C61.7762 130.746 62.0001 130.951 62.0001 131.204V141.269C62.0001 141.521 61.7762 141.726 61.5001 141.726V141.726C61.2239 141.726 61.0001 141.521 61.0001 141.269V131.204Z" fill="#FFD5A0"/>
<path d="M71.5417 130.746C71.673 130.746 71.7914 130.806 71.875 130.903C71.5 131.245 71.5 131.245 71.5 131.245C71.5 131.245 71.5 131.245 71 131.744L61.4584 131.744C61.2052 131.744 61 131.521 61 131.245C61 130.97 61.2052 130.746 61.4584 130.746L71.5417 130.746Z" fill="#FFD5A0"/>
<path d="M61.4583 141.727C61.3269 141.727 61.2085 141.666 61.125 141.57C61.5 141.227 61.4999 141.227 61.4999 141.227C61.4999 141.227 61.4999 141.227 61.9999 140.728L71.5416 140.728C71.7947 140.728 71.9999 140.952 71.9999 141.227C71.9999 141.503 71.7947 141.727 71.5416 141.727L61.4583 141.727Z" fill="#DD871A"/>
<path fill-rule="evenodd" clip-rule="evenodd" d="M70.1666 135.478L66.4522 138.98L66.4522 136.993L70.1666 133.49L70.1666 135.478ZM62.8332 135.478L66.4522 138.98L66.4522 136.993L62.8332 133.49L62.8332 135.478Z" fill="#333333"/>
<path d="M120 131.661C120 131.156 120.41 130.746 120.917 130.746H130.083C130.59 130.746 131 131.156 131 131.661V140.811C131 141.316 130.59 141.726 130.083 141.726H120.917C120.41 141.726 120 141.316 120 140.811V131.661Z" fill="#FAAC48"/>
<path d="M130.5 141.727C130.224 141.727 130 141.522 130 141.269L130 131.204C130 130.951 130.224 130.747 130.5 130.747C130.776 130.747 131 130.951 131 131.204L131 141.269C131 141.522 130.776 141.727 130.5 141.727Z" fill="#DD871A"/>
<path d="M120 131.204C120 130.951 120.224 130.746 120.5 130.746V130.746C120.776 130.746 121 130.951 121 131.204V141.269C121 141.521 120.776 141.726 120.5 141.726V141.726C120.224 141.726 120 141.521 120 141.269V131.204Z" fill="#FFD5A0"/>
<path d="M130.542 130.746C130.673 130.746 130.791 130.806 130.875 130.903C130.5 131.245 130.5 131.245 130.5 131.245C130.5 131.245 130.5 131.245 130 131.744L120.458 131.744C120.205 131.744 120 131.521 120 131.245C120 130.97 120.205 130.746 120.458 130.746L130.542 130.746Z" fill="#FFD5A0"/>
<path d="M120.458 141.727C120.327 141.727 120.209 141.666 120.125 141.57C120.5 141.227 120.5 141.227 120.5 141.227C120.5 141.227 120.5 141.227 121 140.728L130.542 140.728C130.795 140.728 131 140.952 131 141.227C131 141.503 130.795 141.727 130.542 141.727L120.458 141.727Z" fill="#DD871A"/>
<path fill-rule="evenodd" clip-rule="evenodd" d="M129.167 135.478L125.452 138.98L125.452 136.993L129.167 133.49L129.167 135.478ZM121.833 135.478L125.452 138.98L125.452 136.993L121.833 133.49L121.833 135.478Z" fill="#333333"/>
<rect x="42.8571" y="38.748" width="68.9441" height="5.53537" rx="2.76768" fill="#54BCE3"/>
<rect x="42.8571" y="38.748" width="5.59006" height="5.53537" rx="2.76768" fill="#3B8ECA"/>
<rect x="106.211" y="38.748" width="5.59007" height="5.53537" rx="2.76768" fill="#3B8ECA"/>
<path opacity="0.71" d="M0 4C0 1.79086 1.79086 0 4 0H146C148.209 0 150 1.79086 150 4V89.4885H0V4Z" fill="#D4DEE6"/>
<path opacity="0.71" d="M0 89.4883L-3.76404e-06 3.69002L6.52174 3.69002L6.52174 89.4883L0 89.4883Z" fill="#EBEBEB"/>
<path opacity="0.2" d="M115.528 3.68945L6.52173 89.4877H24.9658L134.161 3.68945H115.528Z" fill="white"/>
<path opacity="0.2" d="M138.82 3.68945L29.8137 89.4878H33.5106L141.615 3.68945H138.82Z" fill="white"/>
<path opacity="0.71" d="M150 89.4883L150 3.69002L143.478 3.69002L143.478 89.4883L150 89.4883Z" fill="#EBEBEB"/>
<path opacity="0.71" d="M0 3.69025C0 1.65218 1.65218 0 3.69025 0H146.31C148.348 0 150 1.65218 150 3.69025V3.69025H0V3.69025Z" fill="white"/>
</svg>
