<svg width="15" height="111" viewBox="0 0 15 85" fill="none" xmlns="http://www.w3.org/2000/svg">
    <g clip-path="url(#clip0)">
        <g clip-path="url(#clip1)">
            <path d="M6.97248 2.09952L6.92544 10.3603L3.43343 10.3418L3.48047 2.08105L6.97248 2.09952Z" fill="#D5B85C"/>
            <path d="M6.97248 2.09952L6.96753 2.96907L3.47552 2.95061L3.48047 2.08105L6.97248 2.09952Z" fill="#BD9C33"/>
            <path d="M9.55674 2.11341L0.931485 2.06781C0.896565 2.06762 0.861645 2.06744 0.861947 2.01439L0.871548 0.328331C0.871548 0.328331 0.874023 -0.106445 1.31052 -0.104138L9.16754 -0.0625985C9.52111 -0.0607293 9.58903 0.277027 9.59948 0.357083C9.601 0.368617 9.60166 0.380246 9.60147 0.391877L9.59196 2.06055C9.59166 2.11359 9.59166 2.11359 9.55674 2.11341Z"
                  fill="#F7DD89"/>
            <path d="M1.30443 0.983013C1.30475 0.925358 1.32806 0.870186 1.36923 0.829635C1.41039 0.789083 1.46603 0.766473 1.52391 0.766779C1.5818 0.767085 1.63718 0.790282 1.67788 0.831266C1.71858 0.872251 1.74126 0.927666 1.74093 0.985321L1.73474 2.07226L1.29824 2.06995L1.30443 0.983013ZM3.05043 0.992244C3.05076 0.934589 3.07407 0.879417 3.11523 0.838865C3.15639 0.798314 3.21203 0.775704 3.26992 0.77601C3.3278 0.776316 3.38318 0.799513 3.42388 0.840497C3.46458 0.881482 3.48726 0.936897 3.48693 0.994552L3.48074 2.08149L3.04424 2.07919L3.05043 0.992244ZM4.79643 1.00148C4.79676 0.94382 4.82007 0.888648 4.86123 0.848096C4.9024 0.807545 4.95804 0.784935 5.01592 0.785241C5.07381 0.785547 5.12919 0.808744 5.16989 0.849728C5.21058 0.890713 5.23326 0.946128 5.23293 1.00378L5.22675 2.09072L4.79024 2.08842L4.79643 1.00148ZM6.54244 1.01071C6.54277 0.953051 6.56608 0.897879 6.60724 0.857327C6.6484 0.816775 6.70404 0.794166 6.76193 0.794472C6.81981 0.794778 6.87519 0.817974 6.91589 0.858959C6.95659 0.899944 6.97927 0.955359 6.97894 1.01301L6.97275 2.09995L6.53625 2.09765L6.54244 1.01071ZM8.28844 1.01994C8.28877 0.962282 8.31208 0.90711 8.35324 0.866558C8.3944 0.826006 8.45005 0.803396 8.50793 0.803702C8.56581 0.804009 8.6212 0.827205 8.66189 0.86819C8.70259 0.909175 8.72527 0.96459 8.72494 1.02224L8.71875 2.10919L8.28225 2.10688L8.28844 1.01994ZM2.17743 0.987629C2.17776 0.929974 2.20107 0.874802 2.24223 0.83425C2.28339 0.793698 2.33903 0.771088 2.39692 0.771394C2.4548 0.7717 2.51018 0.794897 2.55088 0.835882C2.59158 0.876866 2.61426 0.932281 2.61393 0.989936L2.60774 2.07688L2.17124 2.07457L2.17743 0.987629ZM3.92343 0.99686C3.92376 0.939205 3.94707 0.884033 3.98823 0.843481C4.02939 0.802929 4.08504 0.780319 4.14292 0.780625C4.2008 0.780931 4.25619 0.804128 4.29688 0.845113C4.33758 0.886097 4.36026 0.941512 4.35993 0.999167L4.35374 2.08611L3.91724 2.0838L3.92343 0.99686ZM5.66944 1.00609C5.66976 0.948436 5.69307 0.893264 5.73424 0.852712C5.7754 0.81216 5.83104 0.78955 5.88892 0.789856C5.94681 0.790162 6.00219 0.813359 6.04289 0.854344C6.08359 0.895328 6.10627 0.950743 6.10594 1.0084L6.09975 2.09534L5.66325 2.09303L5.66944 1.00609ZM7.41544 1.01532C7.41577 0.957666 7.43908 0.902495 7.48024 0.861943C7.5214 0.821391 7.57704 0.798781 7.63493 0.799087C7.69281 0.799393 7.74819 0.82259 7.78889 0.863575C7.82959 0.904559 7.85227 0.959974 7.85194 1.01763L7.84575 2.10457L7.40925 2.10226L7.41544 1.01532ZM9.16144 1.02455C9.16177 0.966897 9.18508 0.911725 9.22624 0.871174C9.26741 0.830622 9.32305 0.808012 9.38093 0.808318C9.43882 0.808624 9.4942 0.831821 9.5349 0.872805C9.57559 0.91379 9.59827 0.969205 9.59794 1.02686L9.59176 2.1138L9.15525 2.11149L9.16144 1.02455Z"
                  fill="#BD9C33"/>
        </g>
        <g clip-path="url(#clip2)">
            <path d="M5.88478 83.6922L3.66331 83.6805C3.54639 83.6799 3.45348 83.569 3.45427 83.4309L3.47266 80.2012L6.09166 80.215L6.07327 83.4448C6.07249 83.5828 5.97832 83.6927 5.88478 83.6922Z"
                  fill="#99B2C4"/>
            <path fill-rule="evenodd" clip-rule="evenodd"
                  d="M4.93537 53.2528L4.93537 53.2528L8.42738 53.2713C6.89069 60.3068 6.56996 72.827 6.56996 72.827L6.52792 80.2113C6.52242 81.1756 5.73626 81.9532 4.77197 81.9481C3.80768 81.943 3.03042 81.1572 3.03591 80.1929L3.07795 72.8085C3.07761 72.7841 2.8984 60.2788 1.44336 53.2344L4.93537 53.2528Z"
                  fill="#E5ECF0"/>
            <path fill-rule="evenodd" clip-rule="evenodd"
                  d="M9.34037 46.3186L0.610352 46.2725L0.57074 53.2289C0.57074 53.2289 0.57074 53.2289 0.57074 53.2289C0.568016 53.7091 2.52008 54.1088 4.9308 54.1215C7.34153 54.1343 9.29803 53.7553 9.30076 53.275C9.30076 53.2749 9.30076 53.2747 9.30076 53.2745L9.34037 46.3186Z"
                  fill="#CCD8E1"/>
            <path fill-rule="evenodd" clip-rule="evenodd"
                  d="M-0.270294 47.5725L-0.0685731 12.1472C-0.0650887 11.5353 0.267101 11.0125 0.837218 10.7533L2.51764 9.9754L5.21842 8.70753L7.63609 9.85677L9.54614 10.7993C10.0833 11.0644 10.4108 11.3643 10.4074 11.9763L10.2045 47.6078C10.2053 47.6145 10.2058 47.6212 10.2057 47.6279C10.203 48.1082 7.85564 48.4851 4.96277 48.4698C2.06989 48.4545 -0.273029 48.0528 -0.270294 47.5725Z"
                  fill="#F5F7F9"/>
            <mask id="mask0" mask-type="alpha" maskUnits="userSpaceOnUse" x="-1" y="8" width="12" height="41">
                <path fill-rule="evenodd" clip-rule="evenodd"
                      d="M-0.270294 47.5725L-0.0685731 12.1472C-0.0650887 11.5353 0.267101 11.0125 0.837218 10.7533L2.51764 9.9754L5.21842 8.70753L7.63609 9.85677L9.54614 10.7993C10.0833 11.0644 10.4108 11.3643 10.4074 11.9763L10.2045 47.6078C10.2053 47.6145 10.2058 47.6212 10.2057 47.6279C10.203 48.1082 7.85564 48.4851 4.96277 48.4698C2.06989 48.4545 -0.273029 48.0528 -0.270294 47.5725Z"
                      fill="#F5F7F9"/>
            </mask>
            <g mask="url(#mask0)">
                <rect width="2.61904" height="37.8262"
                      transform="matrix(0.999986 0.0052868 -0.00569416 0.999984 -0.0595703 10.6162)" fill="#E5ECF0"/>
                <rect width="2.61904" height="37.8262"
                      transform="matrix(0.999986 0.0052868 -0.00569416 0.999984 7.79688 10.6582)" fill="#E5ECF0"/>
            </g>
            <path d="M5.21752 8.88211C6.34146 8.88805 7.2546 8.54063 7.25708 8.10612C7.25955 7.67161 6.35042 7.31455 5.22648 7.30861C4.10254 7.30267 3.1894 7.65009 3.18693 8.0846C3.18445 8.51911 4.09358 8.87617 5.21752 8.88211Z"
                  fill="#F5F7F9"/>
            <path d="M9.04479 9.36889C8.45155 8.43328 7.52778 7.72904 6.48197 7.43212C6.27165 7.5767 5.79231 7.66159 5.19376 7.65842C4.62514 7.65542 4.17672 7.56563 3.93796 7.44781C2.88867 7.7628 1.92734 8.39879 1.32332 9.3572C1.11183 9.70576 1.01956 10.1424 1.01724 10.5503L0.994505 14.5423C0.99268 14.8629 1.29063 15.0976 1.62 15.0702C2.6086 14.9005 3.77644 14.7902 5.06333 14.797C6.44 14.8042 7.63643 14.9271 8.6829 15.1075C9.01178 15.1675 9.31238 14.936 9.31437 14.5863L9.33743 10.536C9.33976 10.1281 9.2523 9.71966 9.04479 9.36889Z"
                  fill="#F7DD89"/>
            <path d="M1.44122 9.99931C1.86336 9.44788 2.46423 9.04311 3.09453 8.7259C3.42457 8.58195 3.75443 8.46713 4.11406 8.38161C4.47369 8.2961 4.83299 8.26886 5.19212 8.27075C5.91038 8.27455 6.65774 8.4242 7.28439 8.74805C7.94114 9.04292 8.50728 9.48301 8.92311 10.0389C8.32672 9.65689 7.72982 9.36234 7.10251 9.15505C6.7738 9.06589 6.47502 8.97689 6.14615 8.91687C5.81728 8.85685 5.48824 8.82598 5.15904 8.82423C4.50063 8.82075 3.84156 8.93383 3.21209 9.10534C2.64214 9.33544 2.012 9.62351 1.44122 9.99931Z"
                  fill="#D5B85C"/>
            <path d="M6.84748 24.1317L3.35547 24.1133L3.28637 36.2486L6.77838 36.267L6.84748 24.1317Z" fill="#F7DD89"/>
            <path d="M6.10395 26.5769L4.11426 26.5664L4.07409 33.621L6.06378 33.6315L6.10395 26.5769Z" fill="#FBF9DE"/>
            <path d="M6.10395 26.5769L4.11426 26.5664L4.11343 26.7126L6.10312 26.7231L6.10395 26.5769Z" fill="#A49448"/>
            <path d="M6.06391 33.5222L4.07422 33.5117L4.07339 33.6579L6.06308 33.6684L6.06391 33.5222Z" fill="#A49448"/>
            <path d="M6.07758 31.2195L4.08789 31.209L4.08706 31.3552L6.07675 31.3657L6.07758 31.2195Z" fill="#A49448"/>
            <path d="M6.09126 28.8797L4.10156 28.8691L4.10073 29.0153L6.09042 29.0258L6.09126 28.8797Z" fill="#A49448"/>
            <path d="M5.13593 27.2696C5.2679 27.2703 5.37246 27.3072 5.44964 27.3804C5.52748 27.4529 5.56605 27.5495 5.56537 27.6701C5.56484 27.762 5.5351 27.8614 5.47613 27.9683C5.41783 28.0752 5.31523 28.2167 5.16833 28.3927L5.6448 28.3952L5.64348 28.6269L4.74326 28.6221L4.74342 28.5943C4.84891 28.4704 4.9394 28.3592 5.0149 28.2607C5.09106 28.1616 5.14989 28.0795 5.19137 28.0147C5.23286 27.9492 5.26236 27.8935 5.27986 27.8476C5.29736 27.8018 5.30626 27.7543 5.30654 27.7051C5.30688 27.6439 5.28662 27.5924 5.24574 27.5507C5.20553 27.5083 5.15624 27.487 5.09789 27.4867C4.99311 27.4862 4.88403 27.543 4.77064 27.6573L4.77214 27.395C4.89132 27.3108 5.01259 27.269 5.13593 27.2696Z"
                  fill="#101620"/>
            <path d="M5.19399 29.561C5.33457 29.5618 5.44563 29.6233 5.52717 29.7456C5.60937 29.868 5.64986 30.0348 5.64866 30.246C5.64745 30.4591 5.60571 30.6271 5.52344 30.7498C5.44117 30.8725 5.32941 30.9335 5.18816 30.9328C5.04493 30.932 4.93188 30.8705 4.84901 30.7482C4.76682 30.6252 4.72633 30.4575 4.72754 30.2449C4.72874 30.0331 4.77114 29.8661 4.85473 29.744C4.93833 29.6213 5.05141 29.5603 5.19399 29.561ZM4.98612 30.254C4.98438 30.5597 5.05148 30.7129 5.18742 30.7136C5.32005 30.7143 5.38728 30.5538 5.38911 30.2322C5.39082 29.9316 5.3247 29.7809 5.19075 29.7802C5.05613 29.7795 4.98792 29.9374 4.98612 30.254Z"
                  fill="#101620"/>
            <path d="M5.18324 31.8384C5.32383 31.8391 5.43489 31.9007 5.51643 32.023C5.59863 32.1453 5.63912 32.3121 5.63792 32.5233C5.63671 32.7365 5.59497 32.9044 5.5127 33.0272C5.43043 33.1499 5.31867 33.2109 5.17742 33.2101C5.03418 33.2094 4.92113 33.1478 4.83827 33.0255C4.75608 32.9025 4.71558 32.7348 4.71679 32.5223C4.718 32.3104 4.7604 32.1434 4.84399 32.0213C4.92758 31.8986 5.04067 31.8376 5.18324 31.8384ZM4.97538 32.5313C4.97364 32.837 5.04074 32.9902 5.17668 32.9909C5.30931 32.9916 5.37654 32.8312 5.37837 32.5095C5.38008 32.2089 5.31396 32.0583 5.18001 32.0576C5.04539 32.0569 4.97718 32.2148 4.97538 32.5313Z"
                  fill="#DB0300"/>
            <path d="M9.30834 10.681L9.2861 14.5856C9.28428 14.9061 9.0136 15.1378 8.6548 15.0777C8.32593 15.0176 7.96697 14.9866 7.57824 14.9263L7.60645 9.97266C8.08429 10.15 8.35281 10.2971 8.7708 10.4742C9.09951 10.5633 9.09951 10.5633 9.30834 10.681Z"
                  fill="#E9CE78"/>
            <path d="M1.04778 10.6388L1.02554 14.5434C1.02372 14.8639 1.29174 15.0985 1.6512 15.0421C1.98074 14.9855 2.34003 14.9583 2.72942 14.9021L2.75763 9.94847C2.27779 10.1208 2.00761 10.265 1.58763 10.4377C1.25793 10.5233 1.25793 10.5233 1.04778 10.6388Z"
                  fill="#E9CE78"/>
        </g>
    </g>
    <defs>
        <clipPath id="clip0">
            <rect width="10.4762" height="110" fill="white"/>
        </clipPath>
        <clipPath id="clip1">
            <rect width="8.73014" height="10.4348" fill="white"
                  transform="matrix(0.999986 0.0052868 -0.00569416 0.999984 0.874023 -0.106445)"/>
        </clipPath>
        <clipPath id="clip2">
            <rect width="10.4762" height="110" fill="white"
                  transform="matrix(0.999986 0.0052868 -0.00569416 0.999984 0.000976562 -0.110352)"/>
        </clipPath>
    </defs>
</svg>
