<svg xmlns="http://www.w3.org/2000/svg" width="98" height="106" fill="none" viewBox="0 0 98 106">
    <g filter="url(#a)">
        <path fill="#00AEEF" d="M3 98h92v3H3z"/>
        <path fill="#99DFF9" d="M5 96h88l2 2H3l2-2z"/>
        <path fill="#00AEEF" d="M3 59h92v3H3z"/>
        <path fill="#008BC0" fill-rule="evenodd" d="M93 64h-7v-1H70v1H56.8v-1h-16v1H5l-2-2h92l-2 2zm-65-1H12v1h16v-1z" clip-rule="evenodd"/>
        <path fill="#00AEEF" d="M5 63h2v34H5zM90 63h2v34h-2z"/>
        <ellipse cx="49.5" cy="96.5" fill="#000" fill-opacity=".3" rx="8.5" ry=".5"/>
        <ellipse cx="75.5" cy="96.5" fill="#000" fill-opacity=".3" rx="8.5" ry=".5"/>
        <ellipse cx="24.5" cy="96.5" fill="#000" fill-opacity=".3" rx="8.5" ry=".5"/>
    </g>
    <defs>
        <filter id="a" width="98" height="107" x="0" y="-1" color-interpolation-filters="sRGB" filterUnits="userSpaceOnUse">
            <feFlood flood-opacity="0" result="BackgroundImageFix"/>
            <feColorMatrix in="SourceAlpha" values="0 0 0 0 0 0 0 0 0 0 0 0 0 0 0 0 0 0 127 0"/>
            <feOffset dy="2"/>
            <feGaussianBlur stdDeviation="1.5"/>
            <feColorMatrix values="0 0 0 0 0 0 0 0 0 0 0 0 0 0 0 0 0 0 0.1 0"/>
            <feBlend in2="BackgroundImageFix" result="effect1_dropShadow"/>
            <feBlend in="SourceGraphic" in2="effect1_dropShadow" result="shape"/>
        </filter>
    </defs>
</svg>
