<svg width="409" height="149" viewBox="0 0 409 149" fill="none" xmlns="http://www.w3.org/2000/svg">
<path opacity="0.2" fill-rule="evenodd" clip-rule="evenodd" d="M56.916 42.8895C56.916 50.6358 50.6363 56.9155 42.89 56.9155C35.1437 56.9155 28.864 50.6358 28.864 42.8895C28.864 35.1432 35.1437 28.8635 42.89 28.8635C50.6363 28.8635 56.916 35.1432 56.916 42.8895ZM69.3835 42.8895C69.3835 57.5215 57.522 69.383 42.89 69.383C28.258 69.383 16.3965 57.5215 16.3965 42.8895C16.3965 28.2575 28.258 16.396 42.89 16.396C57.522 16.396 69.3835 28.2575 69.3835 42.8895ZM46.7861 22.6298C46.7861 24.7815 45.0417 26.5259 42.89 26.5259C40.7382 26.5259 38.9939 24.7815 38.9939 22.6298C38.9939 20.478 40.7382 18.7337 42.89 18.7337C45.0417 18.7337 46.7861 20.478 46.7861 22.6298ZM22.6303 38.9934C24.782 38.9934 26.5264 40.7377 26.5264 42.8895C26.5264 45.0413 24.782 46.7856 22.6303 46.7856C20.4785 46.7856 18.7341 45.0413 18.7341 42.8895C18.7341 40.7377 20.4785 38.9934 22.6303 38.9934ZM42.89 67.0453C45.0417 67.0453 46.7861 65.301 46.7861 63.1492C46.7861 60.9975 45.0417 59.2531 42.89 59.2531C40.7382 59.2531 38.9939 60.9975 38.9939 63.1492C38.9939 65.301 40.7382 67.0453 42.89 67.0453ZM63.1497 38.9934C65.3015 38.9934 67.0458 40.7377 67.0458 42.8895C67.0458 45.0413 65.3015 46.7856 63.1497 46.7856C60.998 46.7856 59.2536 45.0413 59.2536 42.8895C59.2536 40.7377 60.998 38.9934 63.1497 38.9934ZM36.4045 23.6662C37.4803 25.5297 36.8419 27.9125 34.9784 28.9884C33.1149 30.0643 30.7321 29.4258 29.6562 27.5623C28.5803 25.6989 29.2188 23.316 31.0823 22.2402C32.9458 21.1643 35.3286 21.8027 36.4045 23.6662ZM23.6667 49.9155C25.5302 48.8396 27.913 49.4781 28.9889 51.3415C30.0648 53.205 29.4263 55.5878 27.5628 56.6637C25.6993 57.7396 23.3165 57.1011 22.2406 55.2376C21.1648 53.3742 21.8032 50.9913 23.6667 49.9155ZM55.2381 64.0793C57.1016 63.0034 57.7401 60.6206 56.6642 58.7571C55.5883 56.8936 53.2055 56.2552 51.342 57.3311C49.4786 58.4069 48.8401 60.7898 49.916 62.6532C50.9918 64.5167 53.3747 65.1552 55.2381 64.0793ZM58.7576 29.6557C60.6211 28.5798 63.0039 29.2183 64.0798 31.0818C65.1557 32.9453 64.5172 35.3281 62.6537 36.404C60.7902 37.4799 58.4074 36.8414 57.3315 34.9779C56.2557 33.1144 56.8941 30.7316 58.7576 29.6557ZM28.9889 34.9777C30.0648 33.1143 29.4263 30.7314 27.5628 29.6556C25.6993 28.5797 23.3165 29.2182 22.2406 31.0816C21.1648 32.9451 21.8032 35.3279 23.6667 36.4038C25.5302 37.4797 27.913 36.8412 28.9889 34.9777ZM34.9784 57.3309C33.1149 56.255 30.7321 56.8935 29.6562 58.757C28.5803 60.6204 29.2188 63.0033 31.0823 64.0791C32.9458 65.155 35.3286 64.5165 36.4045 62.6531C37.4803 60.7896 36.8419 58.4068 34.9784 57.3309ZM62.6537 49.9153C64.5172 50.9912 65.1557 53.374 64.0798 55.2375C63.0039 57.101 60.6211 57.7394 58.7576 56.6636C56.8941 55.5877 56.2557 53.2049 57.3315 51.3414C58.4074 49.4779 60.7902 48.8394 62.6537 49.9153ZM55.2381 22.24C53.3747 21.1641 50.9918 21.8026 49.916 23.6661C48.8401 25.5295 49.4786 27.9124 51.342 28.9882C53.2055 30.0641 55.5883 29.4256 56.6642 27.5622C57.7401 25.6987 57.1016 23.3159 55.2381 22.24Z" fill="#333333"/>
<path opacity="0.9" d="M38.3919 48.8638V47.6038C38.3919 45.2818 39.4359 43.8958 42.1719 42.6178C44.0079 41.7538 44.6199 41.1418 44.6199 40.1158C44.6199 39.2338 44.0799 38.6578 42.9099 38.6578C41.7039 38.6578 41.1099 39.2518 41.1099 40.5118V40.8538H38.5899V40.2778C38.5899 37.7398 40.1199 36.4078 42.9279 36.4078C45.7719 36.4078 47.2659 37.7578 47.2659 40.0978C47.2659 42.1318 46.2039 43.4278 43.5219 44.6338C41.8659 45.3718 41.2359 45.8398 41.0739 46.5778H47.2659V48.8638H38.3919Z" fill="#333333"/>
<path d="M39.7725 63.1491C39.7725 61.4277 41.1679 60.0322 42.8893 60.0322C44.6108 60.0322 46.0062 61.4277 46.0062 63.1491C46.0062 64.8705 44.6108 66.266 42.8893 66.266C41.1679 66.266 39.7725 64.8705 39.7725 63.1491Z" fill="#333333"/>
<path d="M39.7725 22.6301C39.7725 20.9087 41.1679 19.5132 42.8893 19.5132C44.6108 19.5132 46.0062 20.9087 46.0062 22.6301C46.0062 24.3515 44.6108 25.747 42.8893 25.747C41.1679 25.747 39.7725 24.3515 39.7725 22.6301Z" fill="#333333"/>
<path opacity="0.2" fill-rule="evenodd" clip-rule="evenodd" d="M120.916 42.8895C120.916 50.6358 114.636 56.9155 106.89 56.9155C99.1437 56.9155 92.864 50.6358 92.864 42.8895C92.864 35.1432 99.1437 28.8635 106.89 28.8635C114.636 28.8635 120.916 35.1432 120.916 42.8895ZM133.383 42.8895C133.383 57.5215 121.522 69.383 106.89 69.383C92.258 69.383 80.3965 57.5215 80.3965 42.8895C80.3965 28.2575 92.258 16.396 106.89 16.396C121.522 16.396 133.383 28.2575 133.383 42.8895ZM110.786 22.6298C110.786 24.7815 109.042 26.5259 106.89 26.5259C104.738 26.5259 102.994 24.7815 102.994 22.6298C102.994 20.478 104.738 18.7337 106.89 18.7337C109.042 18.7337 110.786 20.478 110.786 22.6298ZM86.6303 38.9934C88.782 38.9934 90.5264 40.7377 90.5264 42.8895C90.5264 45.0413 88.782 46.7856 86.6303 46.7856C84.4785 46.7856 82.7341 45.0413 82.7341 42.8895C82.7341 40.7377 84.4785 38.9934 86.6303 38.9934ZM106.89 67.0453C109.042 67.0453 110.786 65.301 110.786 63.1492C110.786 60.9975 109.042 59.2531 106.89 59.2531C104.738 59.2531 102.994 60.9975 102.994 63.1492C102.994 65.301 104.738 67.0453 106.89 67.0453ZM127.15 38.9934C129.301 38.9934 131.046 40.7377 131.046 42.8895C131.046 45.0413 129.301 46.7856 127.15 46.7856C124.998 46.7856 123.254 45.0413 123.254 42.8895C123.254 40.7377 124.998 38.9934 127.15 38.9934ZM100.404 23.6662C101.48 25.5297 100.842 27.9125 98.9784 28.9884C97.1149 30.0643 94.7321 29.4258 93.6562 27.5623C92.5803 25.6989 93.2188 23.316 95.0823 22.2402C96.9458 21.1643 99.3286 21.8027 100.404 23.6662ZM87.6667 49.9155C89.5302 48.8396 91.913 49.4781 92.9889 51.3415C94.0648 53.205 93.4263 55.5878 91.5628 56.6637C89.6993 57.7396 87.3165 57.1011 86.2406 55.2376C85.1648 53.3742 85.8032 50.9913 87.6667 49.9155ZM119.238 64.0793C121.102 63.0034 121.74 60.6206 120.664 58.7571C119.588 56.8936 117.206 56.2552 115.342 57.3311C113.479 58.4069 112.84 60.7898 113.916 62.6532C114.992 64.5167 117.375 65.1552 119.238 64.0793ZM122.758 29.6557C124.621 28.5798 127.004 29.2183 128.08 31.0818C129.156 32.9453 128.517 35.3281 126.654 36.404C124.79 37.4799 122.407 36.8414 121.332 34.9779C120.256 33.1144 120.894 30.7316 122.758 29.6557ZM92.9889 34.9777C94.0648 33.1143 93.4263 30.7314 91.5628 29.6556C89.6993 28.5797 87.3165 29.2182 86.2406 31.0816C85.1648 32.9451 85.8032 35.3279 87.6667 36.4038C89.5302 37.4797 91.913 36.8412 92.9889 34.9777ZM98.9784 57.3309C97.1149 56.255 94.7321 56.8935 93.6562 58.757C92.5803 60.6204 93.2188 63.0033 95.0823 64.0791C96.9458 65.155 99.3286 64.5165 100.404 62.6531C101.48 60.7896 100.842 58.4068 98.9784 57.3309ZM126.654 49.9153C128.517 50.9912 129.156 53.374 128.08 55.2375C127.004 57.101 124.621 57.7394 122.758 56.6636C120.894 55.5877 120.256 53.2049 121.332 51.3414C122.407 49.4779 124.79 48.8394 126.654 49.9153ZM119.238 22.24C117.375 21.1641 114.992 21.8026 113.916 23.6661C112.84 25.5295 113.479 27.9124 115.342 28.9882C117.206 30.0641 119.588 29.4256 120.664 27.5622C121.74 25.6987 121.102 23.3159 119.238 22.24Z" fill="#333333"/>
<path opacity="0.9" d="M106.91 49.0798C103.94 49.0798 102.428 47.8918 102.428 45.5518V44.9218H105.002V45.2098C105.002 46.2898 105.614 46.8298 106.91 46.8298C108.08 46.8298 108.746 46.3798 108.746 45.3178C108.746 44.2738 108.134 43.8058 106.694 43.8058H105.524V41.5738H106.64C107.9 41.5738 108.494 41.1598 108.494 40.1338C108.494 39.1438 107.936 38.6578 106.856 38.6578C105.722 38.6578 105.146 39.2158 105.146 40.2418V40.4758H102.608V40.0978C102.608 37.6858 104.084 36.4078 106.91 36.4078C109.646 36.4078 111.122 37.5958 111.122 39.8278C111.122 41.1058 110.636 41.9878 109.592 42.4738V42.5098C110.852 42.9958 111.41 43.9678 111.41 45.4438C111.41 47.8918 109.898 49.0798 106.91 49.0798Z" fill="#333333"/>
<path d="M122.006 51.7313C122.867 50.2405 124.773 49.7298 126.264 50.5905C127.755 51.4512 128.265 53.3574 127.405 54.8482C126.544 56.339 124.638 56.8498 123.147 55.9891C121.656 55.1284 121.145 53.2221 122.006 51.7313Z" fill="#333333"/>
<path d="M88.056 50.5905C89.5468 49.7298 91.4531 50.2405 92.3138 51.7313C93.1745 53.2221 92.6637 55.1284 91.1729 55.9891C89.6821 56.8498 87.7759 56.339 86.9152 54.8482C86.0545 53.3574 86.5652 51.4512 88.056 50.5905Z" fill="#333333"/>
<path d="M103.772 22.6301C103.772 20.9087 105.168 19.5132 106.889 19.5132C108.611 19.5132 110.006 20.9087 110.006 22.6301C110.006 24.3515 108.611 25.747 106.889 25.747C105.168 25.747 103.772 24.3515 103.772 22.6301Z" fill="#333333"/>
<path opacity="0.2" fill-rule="evenodd" clip-rule="evenodd" d="M184.916 42.8895C184.916 50.6358 178.636 56.9155 170.89 56.9155C163.144 56.9155 156.864 50.6358 156.864 42.8895C156.864 35.1432 163.144 28.8635 170.89 28.8635C178.636 28.8635 184.916 35.1432 184.916 42.8895ZM197.383 42.8895C197.383 57.5215 185.522 69.383 170.89 69.383C156.258 69.383 144.396 57.5215 144.396 42.8895C144.396 28.2575 156.258 16.396 170.89 16.396C185.522 16.396 197.383 28.2575 197.383 42.8895ZM174.786 22.6298C174.786 24.7815 173.042 26.5259 170.89 26.5259C168.738 26.5259 166.994 24.7815 166.994 22.6298C166.994 20.478 168.738 18.7337 170.89 18.7337C173.042 18.7337 174.786 20.478 174.786 22.6298ZM150.63 38.9934C152.782 38.9934 154.526 40.7377 154.526 42.8895C154.526 45.0413 152.782 46.7856 150.63 46.7856C148.478 46.7856 146.734 45.0413 146.734 42.8895C146.734 40.7377 148.478 38.9934 150.63 38.9934ZM170.89 67.0453C173.042 67.0453 174.786 65.301 174.786 63.1492C174.786 60.9975 173.042 59.2531 170.89 59.2531C168.738 59.2531 166.994 60.9975 166.994 63.1492C166.994 65.301 168.738 67.0453 170.89 67.0453ZM191.15 38.9934C193.301 38.9934 195.046 40.7377 195.046 42.8895C195.046 45.0413 193.301 46.7856 191.15 46.7856C188.998 46.7856 187.254 45.0413 187.254 42.8895C187.254 40.7377 188.998 38.9934 191.15 38.9934ZM164.404 23.6662C165.48 25.5297 164.842 27.9125 162.978 28.9884C161.115 30.0643 158.732 29.4258 157.656 27.5623C156.58 25.6989 157.219 23.316 159.082 22.2402C160.946 21.1643 163.329 21.8027 164.404 23.6662ZM151.667 49.9155C153.53 48.8396 155.913 49.4781 156.989 51.3415C158.065 53.205 157.426 55.5878 155.563 56.6637C153.699 57.7396 151.317 57.1011 150.241 55.2376C149.165 53.3742 149.803 50.9913 151.667 49.9155ZM183.238 64.0793C185.102 63.0034 185.74 60.6206 184.664 58.7571C183.588 56.8936 181.206 56.2552 179.342 57.3311C177.479 58.4069 176.84 60.7898 177.916 62.6532C178.992 64.5167 181.375 65.1552 183.238 64.0793ZM186.758 29.6557C188.621 28.5798 191.004 29.2183 192.08 31.0818C193.156 32.9453 192.517 35.3281 190.654 36.404C188.79 37.4799 186.407 36.8414 185.332 34.9779C184.256 33.1144 184.894 30.7316 186.758 29.6557ZM156.989 34.9777C158.065 33.1143 157.426 30.7314 155.563 29.6556C153.699 28.5797 151.317 29.2182 150.241 31.0816C149.165 32.9451 149.803 35.3279 151.667 36.4038C153.53 37.4797 155.913 36.8412 156.989 34.9777ZM162.978 57.3309C161.115 56.255 158.732 56.8935 157.656 58.757C156.58 60.6204 157.219 63.0033 159.082 64.0791C160.946 65.155 163.329 64.5165 164.404 62.6531C165.48 60.7896 164.842 58.4068 162.978 57.3309ZM190.654 49.9153C192.517 50.9912 193.156 53.374 192.08 55.2375C191.004 57.101 188.621 57.7394 186.758 56.6636C184.894 55.5877 184.256 53.2049 185.332 51.3414C186.407 49.4779 188.79 48.8394 190.654 49.9153ZM183.238 22.24C181.375 21.1641 178.992 21.8026 177.916 23.6661C176.84 25.5295 177.479 27.9124 179.342 28.9882C181.206 30.0641 183.588 29.4256 184.664 27.5622C185.74 25.6987 185.102 23.3159 183.238 22.24Z" fill="#333333"/>
<path opacity="0.9" d="M171.846 48.8638V46.3618H166.14V44.0218L171.666 36.6238H174.51V44.1838H175.77V46.3618H174.51V48.8638H171.846ZM168.696 44.1838H171.846V39.8098L168.696 44.1838Z" fill="#333333"/>
<path d="M188.032 42.8898C188.032 41.1684 189.428 39.7729 191.149 39.7729C192.871 39.7729 194.266 41.1684 194.266 42.8898C194.266 44.6112 192.871 46.0067 191.149 46.0067C189.428 46.0067 188.032 44.6112 188.032 42.8898Z" fill="#333333"/>
<path d="M167.772 63.1491C167.772 61.4277 169.168 60.0322 170.889 60.0322C172.611 60.0322 174.006 61.4277 174.006 63.1491C174.006 64.8705 172.611 66.266 170.889 66.266C169.168 66.266 167.772 64.8705 167.772 63.1491Z" fill="#333333"/>
<path d="M147.513 42.8898C147.513 41.1684 148.908 39.7729 150.63 39.7729C152.351 39.7729 153.746 41.1684 153.746 42.8898C153.746 44.6112 152.351 46.0067 150.63 46.0067C148.908 46.0067 147.513 44.6112 147.513 42.8898Z" fill="#333333"/>
<path d="M167.772 22.6301C167.772 20.9087 169.168 19.5132 170.889 19.5132C172.611 19.5132 174.006 20.9087 174.006 22.6301C174.006 24.3515 172.611 25.747 170.889 25.747C169.168 25.747 167.772 24.3515 167.772 22.6301Z" fill="#333333"/>
<path opacity="0.2" fill-rule="evenodd" clip-rule="evenodd" d="M248.916 42.8895C248.916 50.6358 242.636 56.9155 234.89 56.9155C227.144 56.9155 220.864 50.6358 220.864 42.8895C220.864 35.1432 227.144 28.8635 234.89 28.8635C242.636 28.8635 248.916 35.1432 248.916 42.8895ZM261.383 42.8895C261.383 57.5215 249.522 69.383 234.89 69.383C220.258 69.383 208.396 57.5215 208.396 42.8895C208.396 28.2575 220.258 16.396 234.89 16.396C249.522 16.396 261.383 28.2575 261.383 42.8895ZM238.786 22.6298C238.786 24.7815 237.042 26.5259 234.89 26.5259C232.738 26.5259 230.994 24.7815 230.994 22.6298C230.994 20.478 232.738 18.7337 234.89 18.7337C237.042 18.7337 238.786 20.478 238.786 22.6298ZM214.63 38.9934C216.782 38.9934 218.526 40.7377 218.526 42.8895C218.526 45.0413 216.782 46.7856 214.63 46.7856C212.478 46.7856 210.734 45.0413 210.734 42.8895C210.734 40.7377 212.478 38.9934 214.63 38.9934ZM234.89 67.0453C237.042 67.0453 238.786 65.301 238.786 63.1492C238.786 60.9975 237.042 59.2531 234.89 59.2531C232.738 59.2531 230.994 60.9975 230.994 63.1492C230.994 65.301 232.738 67.0453 234.89 67.0453ZM255.15 38.9934C257.301 38.9934 259.046 40.7377 259.046 42.8895C259.046 45.0413 257.301 46.7856 255.15 46.7856C252.998 46.7856 251.254 45.0413 251.254 42.8895C251.254 40.7377 252.998 38.9934 255.15 38.9934ZM228.404 23.6662C229.48 25.5297 228.842 27.9125 226.978 28.9884C225.115 30.0643 222.732 29.4258 221.656 27.5623C220.58 25.6989 221.219 23.316 223.082 22.2402C224.946 21.1643 227.329 21.8027 228.404 23.6662ZM215.667 49.9155C217.53 48.8396 219.913 49.4781 220.989 51.3415C222.065 53.205 221.426 55.5878 219.563 56.6637C217.699 57.7396 215.317 57.1011 214.241 55.2376C213.165 53.3742 213.803 50.9913 215.667 49.9155ZM247.238 64.0793C249.102 63.0034 249.74 60.6206 248.664 58.7571C247.588 56.8936 245.206 56.2552 243.342 57.3311C241.479 58.4069 240.84 60.7898 241.916 62.6532C242.992 64.5167 245.375 65.1552 247.238 64.0793ZM250.758 29.6557C252.621 28.5798 255.004 29.2183 256.08 31.0818C257.156 32.9453 256.517 35.3281 254.654 36.404C252.79 37.4799 250.407 36.8414 249.332 34.9779C248.256 33.1144 248.894 30.7316 250.758 29.6557ZM220.989 34.9777C222.065 33.1143 221.426 30.7314 219.563 29.6556C217.699 28.5797 215.317 29.2182 214.241 31.0816C213.165 32.9451 213.803 35.3279 215.667 36.4038C217.53 37.4797 219.913 36.8412 220.989 34.9777ZM226.978 57.3309C225.115 56.255 222.732 56.8935 221.656 58.757C220.58 60.6204 221.219 63.0033 223.082 64.0791C224.946 65.155 227.329 64.5165 228.404 62.6531C229.48 60.7896 228.842 58.4068 226.978 57.3309ZM254.654 49.9153C256.517 50.9912 257.156 53.374 256.08 55.2375C255.004 57.101 252.621 57.7394 250.758 56.6636C248.894 55.5877 248.256 53.2049 249.332 51.3414C250.407 49.4779 252.79 48.8394 254.654 49.9153ZM247.238 22.24C245.375 21.1641 242.992 21.8026 241.916 23.6661C240.84 25.5295 241.479 27.9124 243.342 28.9882C245.206 30.0641 247.588 29.4256 248.664 27.5622C249.74 25.6987 249.102 23.3159 247.238 22.24Z" fill="#333333"/>
<path opacity="0.9" d="M235.846 48.8638V46.3618H230.14V44.0218L235.666 36.6238H238.51V44.1838H239.77V46.3618H238.51V48.8638H235.846ZM232.696 44.1838H235.846V39.8098L232.696 44.1838Z" fill="#333333"/>
<path d="M243.731 58.006C245.222 57.1453 247.128 57.6561 247.989 59.1469C248.849 60.6376 248.339 62.5439 246.848 63.4046C245.357 64.2653 243.451 63.7545 242.59 62.2637C241.729 60.773 242.24 58.8667 243.731 58.006Z" fill="#333333"/>
<path d="M231.772 63.1491C231.772 61.4277 233.168 60.0322 234.889 60.0322C236.611 60.0322 238.006 61.4277 238.006 63.1491C238.006 64.8705 236.611 66.266 234.889 66.266C233.168 66.266 231.772 64.8705 231.772 63.1491Z" fill="#333333"/>
<path d="M223.471 22.9152C224.962 22.0545 226.868 22.5652 227.729 24.056C228.59 25.5468 228.079 27.4531 226.588 28.3138C225.097 29.1745 223.191 28.6637 222.33 27.1729C221.47 25.6821 221.98 23.7759 223.471 22.9152Z" fill="#333333"/>
<path d="M231.772 22.6301C231.772 20.9087 233.168 19.5132 234.889 19.5132C236.611 19.5132 238.006 20.9087 238.006 22.6301C238.006 24.3515 236.611 25.747 234.889 25.747C233.168 25.747 231.772 24.3515 231.772 22.6301Z" fill="#333333"/>
<path opacity="0.2" fill-rule="evenodd" clip-rule="evenodd" d="M312.916 42.8895C312.916 50.6358 306.636 56.9155 298.89 56.9155C291.144 56.9155 284.864 50.6358 284.864 42.8895C284.864 35.1432 291.144 28.8635 298.89 28.8635C306.636 28.8635 312.916 35.1432 312.916 42.8895ZM325.383 42.8895C325.383 57.5215 313.522 69.383 298.89 69.383C284.258 69.383 272.396 57.5215 272.396 42.8895C272.396 28.2575 284.258 16.396 298.89 16.396C313.522 16.396 325.383 28.2575 325.383 42.8895ZM302.786 22.6298C302.786 24.7815 301.042 26.5259 298.89 26.5259C296.738 26.5259 294.994 24.7815 294.994 22.6298C294.994 20.478 296.738 18.7337 298.89 18.7337C301.042 18.7337 302.786 20.478 302.786 22.6298ZM278.63 38.9934C280.782 38.9934 282.526 40.7377 282.526 42.8895C282.526 45.0413 280.782 46.7856 278.63 46.7856C276.478 46.7856 274.734 45.0413 274.734 42.8895C274.734 40.7377 276.478 38.9934 278.63 38.9934ZM298.89 67.0453C301.042 67.0453 302.786 65.301 302.786 63.1492C302.786 60.9975 301.042 59.2531 298.89 59.2531C296.738 59.2531 294.994 60.9975 294.994 63.1492C294.994 65.301 296.738 67.0453 298.89 67.0453ZM319.15 38.9934C321.301 38.9934 323.046 40.7377 323.046 42.8895C323.046 45.0413 321.301 46.7856 319.15 46.7856C316.998 46.7856 315.254 45.0413 315.254 42.8895C315.254 40.7377 316.998 38.9934 319.15 38.9934ZM292.404 23.6662C293.48 25.5297 292.842 27.9125 290.978 28.9884C289.115 30.0643 286.732 29.4258 285.656 27.5623C284.58 25.6989 285.219 23.316 287.082 22.2402C288.946 21.1643 291.329 21.8027 292.404 23.6662ZM279.667 49.9155C281.53 48.8396 283.913 49.4781 284.989 51.3415C286.065 53.205 285.426 55.5878 283.563 56.6637C281.699 57.7396 279.317 57.1011 278.241 55.2376C277.165 53.3742 277.803 50.9913 279.667 49.9155ZM311.238 64.0793C313.102 63.0034 313.74 60.6206 312.664 58.7571C311.588 56.8936 309.206 56.2552 307.342 57.3311C305.479 58.4069 304.84 60.7898 305.916 62.6532C306.992 64.5167 309.375 65.1552 311.238 64.0793ZM314.758 29.6557C316.621 28.5798 319.004 29.2183 320.08 31.0818C321.156 32.9453 320.517 35.3281 318.654 36.404C316.79 37.4799 314.407 36.8414 313.332 34.9779C312.256 33.1144 312.894 30.7316 314.758 29.6557ZM284.989 34.9777C286.065 33.1143 285.426 30.7314 283.563 29.6556C281.699 28.5797 279.317 29.2182 278.241 31.0816C277.165 32.9451 277.803 35.3279 279.667 36.4038C281.53 37.4797 283.913 36.8412 284.989 34.9777ZM290.978 57.3309C289.115 56.255 286.732 56.8935 285.656 58.757C284.58 60.6204 285.219 63.0033 287.082 64.0791C288.946 65.155 291.329 64.5165 292.404 62.6531C293.48 60.7896 292.842 58.4068 290.978 57.3309ZM318.654 49.9153C320.517 50.9912 321.156 53.374 320.08 55.2375C319.004 57.101 316.621 57.7394 314.758 56.6636C312.894 55.5877 312.256 53.2049 313.332 51.3414C314.407 49.4779 316.79 48.8394 318.654 49.9153ZM311.238 22.24C309.375 21.1641 306.992 21.8026 305.916 23.6661C304.84 25.5295 305.479 27.9124 307.342 28.9882C309.206 30.0641 311.588 29.4256 312.664 27.5622C313.74 25.6987 313.102 23.3159 311.238 22.24Z" fill="#333333"/>
<path opacity="0.9" d="M298.874 49.0798C296.03 49.0798 294.482 47.8558 294.464 45.4438H297.02C297.074 46.3258 297.74 46.8298 298.856 46.8298C300.152 46.8298 300.782 46.1638 300.782 44.8858C300.782 43.6078 300.152 42.9418 298.964 42.9418C298.19 42.9418 297.596 43.2298 297.146 43.6798H294.824L295.274 36.6238H302.888V38.9098H297.488L297.326 41.4658C297.974 40.9618 298.766 40.7458 299.702 40.7458C302.132 40.7458 303.446 42.1678 303.446 44.8138C303.446 47.6758 301.916 49.0798 298.874 49.0798Z" fill="#333333"/>
<path d="M316.032 42.8898C316.032 41.1684 317.428 39.7729 319.149 39.7729C320.871 39.7729 322.266 41.1684 322.266 42.8898C322.266 44.6112 320.871 46.0067 319.149 46.0067C317.428 46.0067 316.032 44.6112 316.032 42.8898Z" fill="#333333"/>
<path d="M314.006 51.7313C314.867 50.2405 316.773 49.7298 318.264 50.5905C319.755 51.4512 320.265 53.3574 319.405 54.8482C318.544 56.339 316.638 56.8498 315.147 55.9891C313.656 55.1284 313.145 53.2221 314.006 51.7313Z" fill="#333333"/>
<path d="M280.056 50.5905C281.547 49.7298 283.453 50.2405 284.314 51.7313C285.174 53.2221 284.664 55.1284 283.173 55.9891C281.682 56.8498 279.776 56.339 278.915 54.8482C278.054 53.3574 278.565 51.4512 280.056 50.5905Z" fill="#333333"/>
<path d="M275.513 42.8898C275.513 41.1684 276.908 39.7729 278.63 39.7729C280.351 39.7729 281.746 41.1684 281.746 42.8898C281.746 44.6112 280.351 46.0067 278.63 46.0067C276.908 46.0067 275.513 44.6112 275.513 42.8898Z" fill="#333333"/>
<path d="M295.772 22.6301C295.772 20.9087 297.168 19.5132 298.889 19.5132C300.611 19.5132 302.006 20.9087 302.006 22.6301C302.006 24.3515 300.611 25.747 298.889 25.747C297.168 25.747 295.772 24.3515 295.772 22.6301Z" fill="#333333"/>
<path opacity="0.2" fill-rule="evenodd" clip-rule="evenodd" d="M376.916 42.8895C376.916 50.6358 370.636 56.9155 362.89 56.9155C355.144 56.9155 348.864 50.6358 348.864 42.8895C348.864 35.1432 355.144 28.8635 362.89 28.8635C370.636 28.8635 376.916 35.1432 376.916 42.8895ZM389.383 42.8895C389.383 57.5215 377.522 69.383 362.89 69.383C348.258 69.383 336.396 57.5215 336.396 42.8895C336.396 28.2575 348.258 16.396 362.89 16.396C377.522 16.396 389.383 28.2575 389.383 42.8895ZM366.786 22.6298C366.786 24.7815 365.042 26.5259 362.89 26.5259C360.738 26.5259 358.994 24.7815 358.994 22.6298C358.994 20.478 360.738 18.7337 362.89 18.7337C365.042 18.7337 366.786 20.478 366.786 22.6298ZM342.63 38.9934C344.782 38.9934 346.526 40.7377 346.526 42.8895C346.526 45.0413 344.782 46.7856 342.63 46.7856C340.478 46.7856 338.734 45.0413 338.734 42.8895C338.734 40.7377 340.478 38.9934 342.63 38.9934ZM362.89 67.0453C365.042 67.0453 366.786 65.301 366.786 63.1492C366.786 60.9975 365.042 59.2531 362.89 59.2531C360.738 59.2531 358.994 60.9975 358.994 63.1492C358.994 65.301 360.738 67.0453 362.89 67.0453ZM383.15 38.9934C385.301 38.9934 387.046 40.7377 387.046 42.8895C387.046 45.0413 385.301 46.7856 383.15 46.7856C380.998 46.7856 379.254 45.0413 379.254 42.8895C379.254 40.7377 380.998 38.9934 383.15 38.9934ZM356.404 23.6662C357.48 25.5297 356.842 27.9125 354.978 28.9884C353.115 30.0643 350.732 29.4258 349.656 27.5623C348.58 25.6989 349.219 23.316 351.082 22.2402C352.946 21.1643 355.329 21.8027 356.404 23.6662ZM343.667 49.9155C345.53 48.8396 347.913 49.4781 348.989 51.3415C350.065 53.205 349.426 55.5878 347.563 56.6637C345.699 57.7396 343.317 57.1011 342.241 55.2376C341.165 53.3742 341.803 50.9913 343.667 49.9155ZM375.238 64.0793C377.102 63.0034 377.74 60.6206 376.664 58.7571C375.588 56.8936 373.206 56.2552 371.342 57.3311C369.479 58.4069 368.84 60.7898 369.916 62.6532C370.992 64.5167 373.375 65.1552 375.238 64.0793ZM378.758 29.6557C380.621 28.5798 383.004 29.2183 384.08 31.0818C385.156 32.9453 384.517 35.3281 382.654 36.404C380.79 37.4799 378.407 36.8414 377.332 34.9779C376.256 33.1144 376.894 30.7316 378.758 29.6557ZM348.989 34.9777C350.065 33.1143 349.426 30.7314 347.563 29.6556C345.699 28.5797 343.317 29.2182 342.241 31.0816C341.165 32.9451 341.803 35.3279 343.667 36.4038C345.53 37.4797 347.913 36.8412 348.989 34.9777ZM354.978 57.3309C353.115 56.255 350.732 56.8935 349.656 58.757C348.58 60.6204 349.219 63.0033 351.082 64.0791C352.946 65.155 355.329 64.5165 356.404 62.6531C357.48 60.7896 356.842 58.4068 354.978 57.3309ZM382.654 49.9153C384.517 50.9912 385.156 53.374 384.08 55.2375C383.004 57.101 380.621 57.7394 378.758 56.6636C376.894 55.5877 376.256 53.2049 377.332 51.3414C378.407 49.4779 380.79 48.8394 382.654 49.9153ZM375.238 22.24C373.375 21.1641 370.992 21.8026 369.916 23.6661C368.84 25.5295 369.479 27.9124 371.342 28.9882C373.206 30.0641 375.588 29.4256 376.664 27.5622C377.74 25.6987 377.102 23.3159 375.238 22.24Z" fill="#333333"/>
<path opacity="0.9" d="M363 49.0798C360.084 49.0798 358.536 47.6758 358.536 44.9398V40.6378C358.536 37.8478 360.102 36.4078 363.09 36.4078C365.916 36.4078 367.266 37.7038 367.338 39.9718H364.782C364.71 39.2338 364.188 38.6578 363.054 38.6578C361.794 38.6578 361.2 39.3598 361.2 40.7458V41.9518C361.884 41.2678 362.73 40.9618 363.828 40.9618C366.15 40.9618 367.428 42.3478 367.428 44.9038C367.428 47.6398 365.97 49.0798 363 49.0798ZM363.018 46.8298C364.206 46.8298 364.764 46.1638 364.764 44.9758C364.764 43.8238 364.242 43.2118 363.162 43.2118C362.244 43.2118 361.596 43.6618 361.2 44.5618V44.8318C361.2 46.1458 361.812 46.8298 363.018 46.8298Z" fill="#333333"/>
<path d="M379.147 30.3307C380.638 29.47 382.544 29.9808 383.405 31.4716C384.265 32.9623 383.755 34.8686 382.264 35.7293C380.773 36.59 378.867 36.0792 378.006 34.5884C377.145 33.0977 377.656 31.1914 379.147 30.3307Z" fill="#333333"/>
<path d="M378.006 51.7313C378.867 50.2405 380.773 49.7298 382.264 50.5905C383.755 51.4512 384.265 53.3574 383.405 54.8482C382.544 56.339 380.638 56.8498 379.147 55.9891C377.656 55.1284 377.145 53.2221 378.006 51.7313Z" fill="#333333"/>
<path d="M359.772 63.1491C359.772 61.4277 361.168 60.0322 362.889 60.0322C364.611 60.0322 366.006 61.4277 366.006 63.1491C366.006 64.8705 364.611 66.266 362.889 66.266C361.168 66.266 359.772 64.8705 359.772 63.1491Z" fill="#333333"/>
<path d="M344.056 50.5905C345.547 49.7298 347.453 50.2405 348.314 51.7313C349.174 53.2221 348.664 55.1284 347.173 55.9891C345.682 56.8498 343.776 56.339 342.915 54.8482C342.054 53.3574 342.565 51.4512 344.056 50.5905Z" fill="#333333"/>
<path d="M342.915 31.4716C343.776 29.9808 345.682 29.47 347.173 30.3307C348.664 31.1914 349.174 33.0977 348.314 34.5884C347.453 36.0792 345.547 36.59 344.056 35.7293C342.565 34.8686 342.054 32.9623 342.915 31.4716Z" fill="#333333"/>
<path d="M359.772 22.6301C359.772 20.9087 361.168 19.5132 362.889 19.5132C364.611 19.5132 366.006 20.9087 366.006 22.6301C366.006 24.3515 364.611 25.747 362.889 25.747C361.168 25.747 359.772 24.3515 359.772 22.6301Z" fill="#333333"/>
<path opacity="0.2" fill-rule="evenodd" clip-rule="evenodd" d="M56.916 106.89C56.916 114.636 50.6363 120.915 42.89 120.915C35.1437 120.915 28.864 114.636 28.864 106.89C28.864 99.1432 35.1437 92.8635 42.89 92.8635C50.6363 92.8635 56.916 99.1432 56.916 106.89ZM69.3835 106.89C69.3835 121.521 57.522 133.383 42.89 133.383C28.258 133.383 16.3965 121.521 16.3965 106.89C16.3965 92.2575 28.258 80.396 42.89 80.396C57.522 80.396 69.3835 92.2575 69.3835 106.89ZM46.7861 86.6298C46.7861 88.7815 45.0417 90.5259 42.89 90.5259C40.7382 90.5259 38.9939 88.7815 38.9939 86.6298C38.9939 84.478 40.7382 82.7337 42.89 82.7337C45.0417 82.7337 46.7861 84.478 46.7861 86.6298ZM22.6303 102.993C24.782 102.993 26.5264 104.738 26.5264 106.89C26.5264 109.041 24.782 110.786 22.6303 110.786C20.4785 110.786 18.7341 109.041 18.7341 106.89C18.7341 104.738 20.4785 102.993 22.6303 102.993ZM42.89 131.045C45.0417 131.045 46.7861 129.301 46.7861 127.149C46.7861 124.997 45.0417 123.253 42.89 123.253C40.7382 123.253 38.9939 124.997 38.9939 127.149C38.9939 129.301 40.7382 131.045 42.89 131.045ZM63.1497 102.993C65.3015 102.993 67.0458 104.738 67.0458 106.89C67.0458 109.041 65.3015 110.786 63.1497 110.786C60.998 110.786 59.2536 109.041 59.2536 106.89C59.2536 104.738 60.998 102.993 63.1497 102.993ZM36.4045 87.6662C37.4803 89.5297 36.8419 91.9125 34.9784 92.9884C33.1149 94.0643 30.7321 93.4258 29.6562 91.5623C28.5803 89.6989 29.2188 87.316 31.0823 86.2402C32.9458 85.1643 35.3286 85.8027 36.4045 87.6662ZM23.6667 113.915C25.5302 112.84 27.913 113.478 28.9889 115.342C30.0648 117.205 29.4263 119.588 27.5628 120.664C25.6993 121.74 23.3165 121.101 22.2406 119.238C21.1648 117.374 21.8032 114.991 23.6667 113.915ZM55.2381 128.079C57.1016 127.003 57.7401 124.621 56.6642 122.757C55.5883 120.894 53.2055 120.255 51.342 121.331C49.4786 122.407 48.8401 124.79 49.916 126.653C50.9918 128.517 53.3747 129.155 55.2381 128.079ZM58.7576 93.6557C60.6211 92.5798 63.0039 93.2183 64.0798 95.0818C65.1557 96.9453 64.5172 99.3281 62.6537 100.404C60.7902 101.48 58.4074 100.841 57.3315 98.9779C56.2557 97.1144 56.8941 94.7316 58.7576 93.6557ZM28.9889 98.9777C30.0648 97.1143 29.4263 94.7314 27.5628 93.6556C25.6993 92.5797 23.3165 93.2182 22.2406 95.0816C21.1648 96.9451 21.8032 99.3279 23.6667 100.404C25.5302 101.48 27.913 100.841 28.9889 98.9777ZM34.9784 121.331C33.1149 120.255 30.7321 120.893 29.6562 122.757C28.5803 124.62 29.2188 127.003 31.0823 128.079C32.9458 129.155 35.3286 128.517 36.4045 126.653C37.4803 124.79 36.8419 122.407 34.9784 121.331ZM62.6537 113.915C64.5172 114.991 65.1557 117.374 64.0798 119.237C63.0039 121.101 60.6211 121.739 58.7576 120.664C56.8941 119.588 56.2557 117.205 57.3315 115.341C58.4074 113.478 60.7902 112.839 62.6537 113.915ZM55.2381 86.24C53.3747 85.1641 50.9918 85.8026 49.916 87.6661C48.8401 89.5295 49.4786 91.9124 51.342 92.9882C53.2055 94.0641 55.5883 93.4256 56.6642 91.5622C57.7401 89.6987 57.1016 87.3159 55.2381 86.24Z" fill="#333333"/>
<path opacity="0.9" d="M42.9999 113.08C40.0839 113.08 38.5359 111.676 38.5359 108.94V104.638C38.5359 101.848 40.1019 100.408 43.0899 100.408C45.9159 100.408 47.2659 101.704 47.3379 103.972H44.7819C44.7099 103.234 44.1879 102.658 43.0539 102.658C41.7939 102.658 41.1999 103.36 41.1999 104.746V105.952C41.8839 105.268 42.7299 104.962 43.8279 104.962C46.1499 104.962 47.4279 106.348 47.4279 108.904C47.4279 111.64 45.9699 113.08 42.9999 113.08ZM43.0179 110.83C44.2059 110.83 44.7639 110.164 44.7639 108.976C44.7639 107.824 44.2419 107.212 43.1619 107.212C42.2439 107.212 41.5959 107.662 41.1999 108.562V108.832C41.1999 110.146 41.8119 110.83 43.0179 110.83Z" fill="#333333"/>
<path d="M50.59 88.0555C51.4507 86.5648 53.3569 86.054 54.8477 86.9147C56.3385 87.7754 56.8493 89.6816 55.9886 91.1724C55.1279 92.6632 53.2216 93.174 51.7308 92.3133C50.2401 91.4526 49.7293 89.5463 50.59 88.0555Z" fill="#333333"/>
<path d="M51.7308 122.006C53.2216 121.145 55.1279 121.656 55.9886 123.147C56.8493 124.638 56.3385 126.544 54.8477 127.405C53.3569 128.265 51.4507 127.755 50.59 126.264C49.7293 124.773 50.2401 122.867 51.7308 122.006Z" fill="#333333"/>
<path d="M39.7725 127.149C39.7725 125.428 41.1679 124.032 42.8893 124.032C44.6108 124.032 46.0062 125.428 46.0062 127.149C46.0062 128.871 44.6108 130.266 42.8893 130.266C41.1679 130.266 39.7725 128.871 39.7725 127.149Z" fill="#333333"/>
<path d="M30.3302 123.147C31.1909 121.656 33.0972 121.145 34.588 122.006C36.0787 122.867 36.5895 124.773 35.7288 126.264C34.8681 127.755 32.9619 128.265 31.4711 127.405C29.9803 126.544 29.4695 124.638 30.3302 123.147Z" fill="#333333"/>
<path d="M31.4711 86.9152C32.9619 86.0545 34.8681 86.5652 35.7288 88.056C36.5895 89.5468 36.0787 91.4531 34.588 92.3138C33.0972 93.1745 31.1909 92.6637 30.3302 91.1729C29.4695 89.6821 29.9803 87.7759 31.4711 86.9152Z" fill="#333333"/>
<path d="M39.7725 86.6301C39.7725 84.9087 41.1679 83.5132 42.8893 83.5132C44.6108 83.5132 46.0062 84.9087 46.0062 86.6301C46.0062 88.3515 44.6108 89.747 42.8893 89.747C41.1679 89.747 39.7725 88.3515 39.7725 86.6301Z" fill="#333333"/>
<path opacity="0.2" fill-rule="evenodd" clip-rule="evenodd" d="M120.916 106.89C120.916 114.636 114.636 120.915 106.89 120.915C99.1437 120.915 92.864 114.636 92.864 106.89C92.864 99.1432 99.1437 92.8635 106.89 92.8635C114.636 92.8635 120.916 99.1432 120.916 106.89ZM133.383 106.89C133.383 121.521 121.522 133.383 106.89 133.383C92.258 133.383 80.3965 121.521 80.3965 106.89C80.3965 92.2575 92.258 80.396 106.89 80.396C121.522 80.396 133.383 92.2575 133.383 106.89ZM110.786 86.6298C110.786 88.7815 109.042 90.5259 106.89 90.5259C104.738 90.5259 102.994 88.7815 102.994 86.6298C102.994 84.478 104.738 82.7337 106.89 82.7337C109.042 82.7337 110.786 84.478 110.786 86.6298ZM86.6303 102.993C88.782 102.993 90.5264 104.738 90.5264 106.89C90.5264 109.041 88.782 110.786 86.6303 110.786C84.4785 110.786 82.7341 109.041 82.7341 106.89C82.7341 104.738 84.4785 102.993 86.6303 102.993ZM106.89 131.045C109.042 131.045 110.786 129.301 110.786 127.149C110.786 124.997 109.042 123.253 106.89 123.253C104.738 123.253 102.994 124.997 102.994 127.149C102.994 129.301 104.738 131.045 106.89 131.045ZM127.15 102.993C129.301 102.993 131.046 104.738 131.046 106.89C131.046 109.041 129.301 110.786 127.15 110.786C124.998 110.786 123.254 109.041 123.254 106.89C123.254 104.738 124.998 102.993 127.15 102.993ZM100.404 87.6662C101.48 89.5297 100.842 91.9125 98.9784 92.9884C97.1149 94.0643 94.7321 93.4258 93.6562 91.5623C92.5803 89.6989 93.2188 87.316 95.0823 86.2402C96.9458 85.1643 99.3286 85.8027 100.404 87.6662ZM87.6667 113.915C89.5302 112.84 91.913 113.478 92.9889 115.342C94.0648 117.205 93.4263 119.588 91.5628 120.664C89.6993 121.74 87.3165 121.101 86.2406 119.238C85.1648 117.374 85.8032 114.991 87.6667 113.915ZM119.238 128.079C121.102 127.003 121.74 124.621 120.664 122.757C119.588 120.894 117.206 120.255 115.342 121.331C113.479 122.407 112.84 124.79 113.916 126.653C114.992 128.517 117.375 129.155 119.238 128.079ZM122.758 93.6557C124.621 92.5798 127.004 93.2183 128.08 95.0818C129.156 96.9453 128.517 99.3281 126.654 100.404C124.79 101.48 122.407 100.841 121.332 98.9779C120.256 97.1144 120.894 94.7316 122.758 93.6557ZM92.9889 98.9777C94.0648 97.1143 93.4263 94.7314 91.5628 93.6556C89.6993 92.5797 87.3165 93.2182 86.2406 95.0816C85.1648 96.9451 85.8032 99.3279 87.6667 100.404C89.5302 101.48 91.913 100.841 92.9889 98.9777ZM98.9784 121.331C97.1149 120.255 94.7321 120.893 93.6562 122.757C92.5803 124.62 93.2188 127.003 95.0823 128.079C96.9458 129.155 99.3286 128.517 100.404 126.653C101.48 124.79 100.842 122.407 98.9784 121.331ZM126.654 113.915C128.517 114.991 129.156 117.374 128.08 119.237C127.004 121.101 124.621 121.739 122.758 120.664C120.894 119.588 120.256 117.205 121.332 115.341C122.407 113.478 124.79 112.839 126.654 113.915ZM119.238 86.24C117.375 85.1641 114.992 85.8026 113.916 87.6661C112.84 89.5295 113.479 91.9124 115.342 92.9882C117.206 94.0641 119.588 93.4256 120.664 91.5622C121.74 89.6987 121.102 87.3159 119.238 86.24Z" fill="#333333"/>
<path opacity="0.9" d="M103.976 112.864C104.156 108.778 105.722 105.484 108.602 102.964H102.356V100.624H111.356V103.036C108.386 105.916 107 108.85 106.82 112.864H103.976Z" fill="#333333"/>
<path d="M114.59 88.0555C115.451 86.5648 117.357 86.054 118.848 86.9147C120.339 87.7754 120.849 89.6816 119.989 91.1724C119.128 92.6632 117.222 93.174 115.731 92.3133C114.24 91.4526 113.729 89.5463 114.59 88.0555Z" fill="#333333"/>
<path d="M122.006 115.731C122.867 114.241 124.773 113.73 126.264 114.59C127.755 115.451 128.265 117.357 127.405 118.848C126.544 120.339 124.638 120.85 123.147 119.989C121.656 119.128 121.145 117.222 122.006 115.731Z" fill="#333333"/>
<path d="M115.731 122.006C117.222 121.145 119.128 121.656 119.989 123.147C120.849 124.638 120.339 126.544 118.848 127.405C117.357 128.265 115.451 127.755 114.59 126.264C113.729 124.773 114.24 122.867 115.731 122.006Z" fill="#333333"/>
<path d="M94.3302 123.147C95.1909 121.656 97.0972 121.145 98.588 122.006C100.079 122.867 100.59 124.773 99.7288 126.264C98.8681 127.755 96.9619 128.265 95.4711 127.405C93.9803 126.544 93.4695 124.638 94.3302 123.147Z" fill="#333333"/>
<path d="M88.056 114.59C89.5468 113.73 91.4531 114.241 92.3138 115.731C93.1745 117.222 92.6637 119.128 91.1729 119.989C89.6821 120.85 87.7759 120.339 86.9152 118.848C86.0545 117.357 86.5652 115.451 88.056 114.59Z" fill="#333333"/>
<path d="M95.4711 86.9152C96.9619 86.0545 98.8681 86.5652 99.7288 88.056C100.59 89.5468 100.079 91.4531 98.588 92.3138C97.0972 93.1745 95.1909 92.6637 94.3302 91.1729C93.4695 89.6821 93.9803 87.7759 95.4711 86.9152Z" fill="#333333"/>
<path d="M103.772 86.6301C103.772 84.9087 105.168 83.5132 106.889 83.5132C108.611 83.5132 110.006 84.9087 110.006 86.6301C110.006 88.3515 108.611 89.747 106.889 89.747C105.168 89.747 103.772 88.3515 103.772 86.6301Z" fill="#333333"/>
<path opacity="0.2" fill-rule="evenodd" clip-rule="evenodd" d="M184.916 106.89C184.916 114.636 178.636 120.915 170.89 120.915C163.144 120.915 156.864 114.636 156.864 106.89C156.864 99.1432 163.144 92.8635 170.89 92.8635C178.636 92.8635 184.916 99.1432 184.916 106.89ZM197.383 106.89C197.383 121.521 185.522 133.383 170.89 133.383C156.258 133.383 144.396 121.521 144.396 106.89C144.396 92.2575 156.258 80.396 170.89 80.396C185.522 80.396 197.383 92.2575 197.383 106.89ZM174.786 86.6298C174.786 88.7815 173.042 90.5259 170.89 90.5259C168.738 90.5259 166.994 88.7815 166.994 86.6298C166.994 84.478 168.738 82.7337 170.89 82.7337C173.042 82.7337 174.786 84.478 174.786 86.6298ZM150.63 102.993C152.782 102.993 154.526 104.738 154.526 106.89C154.526 109.041 152.782 110.786 150.63 110.786C148.478 110.786 146.734 109.041 146.734 106.89C146.734 104.738 148.478 102.993 150.63 102.993ZM170.89 131.045C173.042 131.045 174.786 129.301 174.786 127.149C174.786 124.997 173.042 123.253 170.89 123.253C168.738 123.253 166.994 124.997 166.994 127.149C166.994 129.301 168.738 131.045 170.89 131.045ZM191.15 102.993C193.301 102.993 195.046 104.738 195.046 106.89C195.046 109.041 193.301 110.786 191.15 110.786C188.998 110.786 187.254 109.041 187.254 106.89C187.254 104.738 188.998 102.993 191.15 102.993ZM164.404 87.6662C165.48 89.5297 164.842 91.9125 162.978 92.9884C161.115 94.0643 158.732 93.4258 157.656 91.5623C156.58 89.6989 157.219 87.316 159.082 86.2402C160.946 85.1643 163.329 85.8027 164.404 87.6662ZM151.667 113.915C153.53 112.84 155.913 113.478 156.989 115.342C158.065 117.205 157.426 119.588 155.563 120.664C153.699 121.74 151.317 121.101 150.241 119.238C149.165 117.374 149.803 114.991 151.667 113.915ZM183.238 128.079C185.102 127.003 185.74 124.621 184.664 122.757C183.588 120.894 181.206 120.255 179.342 121.331C177.479 122.407 176.84 124.79 177.916 126.653C178.992 128.517 181.375 129.155 183.238 128.079ZM186.758 93.6557C188.621 92.5798 191.004 93.2183 192.08 95.0818C193.156 96.9453 192.517 99.3281 190.654 100.404C188.79 101.48 186.407 100.841 185.332 98.9779C184.256 97.1144 184.894 94.7316 186.758 93.6557ZM156.989 98.9777C158.065 97.1143 157.426 94.7314 155.563 93.6556C153.699 92.5797 151.317 93.2182 150.241 95.0816C149.165 96.9451 149.803 99.3279 151.667 100.404C153.53 101.48 155.913 100.841 156.989 98.9777ZM162.978 121.331C161.115 120.255 158.732 120.893 157.656 122.757C156.58 124.62 157.219 127.003 159.082 128.079C160.946 129.155 163.329 128.517 164.404 126.653C165.48 124.79 164.842 122.407 162.978 121.331ZM190.654 113.915C192.517 114.991 193.156 117.374 192.08 119.237C191.004 121.101 188.621 121.739 186.758 120.664C184.894 119.588 184.256 117.205 185.332 115.341C186.407 113.478 188.79 112.839 190.654 113.915ZM183.238 86.24C181.375 85.1641 178.992 85.8026 177.916 87.6661C176.84 89.5295 177.479 91.9124 179.342 92.9882C181.206 94.0641 183.588 93.4256 184.664 91.5622C185.74 89.6987 185.102 87.3159 183.238 86.24Z" fill="#333333"/>
<path opacity="0.9" d="M170.892 113.08C167.814 113.08 166.212 111.82 166.212 109.48C166.212 108.022 166.842 107.014 168.084 106.51V106.474C167.04 105.988 166.518 105.106 166.518 103.846C166.518 101.632 168.084 100.408 170.91 100.408C173.718 100.408 175.284 101.632 175.284 103.828C175.284 105.106 174.762 105.988 173.7 106.474V106.51C174.942 107.014 175.572 108.022 175.572 109.48C175.572 111.82 173.97 113.08 170.892 113.08ZM170.892 105.556C172.008 105.556 172.656 105.052 172.656 104.062C172.656 103.09 172.044 102.622 170.892 102.622C169.74 102.622 169.128 103.09 169.128 104.062C169.128 105.052 169.776 105.556 170.892 105.556ZM170.874 110.866C172.242 110.866 172.908 110.398 172.908 109.354C172.908 108.274 172.206 107.77 170.874 107.77C169.56 107.77 168.858 108.274 168.858 109.354C168.858 110.398 169.506 110.866 170.874 110.866Z" fill="#333333"/>
<path d="M187.147 94.3307C188.638 93.47 190.544 93.9808 191.405 95.4716C192.265 96.9623 191.755 98.8686 190.264 99.7293C188.773 100.59 186.867 100.079 186.006 98.5884C185.145 97.0977 185.656 95.1914 187.147 94.3307Z" fill="#333333"/>
<path d="M188.032 106.89C188.032 105.168 189.428 103.773 191.149 103.773C192.871 103.773 194.266 105.168 194.266 106.89C194.266 108.611 192.871 110.007 191.149 110.007C189.428 110.007 188.032 108.611 188.032 106.89Z" fill="#333333"/>
<path d="M179.731 122.006C181.222 121.145 183.128 121.656 183.989 123.147C184.849 124.638 184.339 126.544 182.848 127.405C181.357 128.265 179.451 127.755 178.59 126.264C177.729 124.773 178.24 122.867 179.731 122.006Z" fill="#333333"/>
<path d="M167.772 127.149C167.772 125.428 169.168 124.032 170.889 124.032C172.611 124.032 174.006 125.428 174.006 127.149C174.006 128.871 172.611 130.266 170.889 130.266C169.168 130.266 167.772 128.871 167.772 127.149Z" fill="#333333"/>
<path d="M152.056 114.59C153.547 113.73 155.453 114.241 156.314 115.731C157.174 117.222 156.664 119.128 155.173 119.989C153.682 120.85 151.776 120.339 150.915 118.848C150.054 117.357 150.565 115.451 152.056 114.59Z" fill="#333333"/>
<path d="M147.513 106.89C147.513 105.168 148.908 103.773 150.63 103.773C152.351 103.773 153.746 105.168 153.746 106.89C153.746 108.611 152.351 110.007 150.63 110.007C148.908 110.007 147.513 108.611 147.513 106.89Z" fill="#333333"/>
<path d="M159.471 86.9152C160.962 86.0545 162.868 86.5652 163.729 88.056C164.59 89.5468 164.079 91.4531 162.588 92.3138C161.097 93.1745 159.191 92.6637 158.33 91.1729C157.47 89.6821 157.98 87.7759 159.471 86.9152Z" fill="#333333"/>
<path d="M167.772 86.6301C167.772 84.9087 169.168 83.5132 170.889 83.5132C172.611 83.5132 174.006 84.9087 174.006 86.6301C174.006 88.3515 172.611 89.747 170.889 89.747C169.168 89.747 167.772 88.3515 167.772 86.6301Z" fill="#333333"/>
<path opacity="0.2" fill-rule="evenodd" clip-rule="evenodd" d="M248.916 106.89C248.916 114.636 242.636 120.915 234.89 120.915C227.144 120.915 220.864 114.636 220.864 106.89C220.864 99.1432 227.144 92.8635 234.89 92.8635C242.636 92.8635 248.916 99.1432 248.916 106.89ZM261.383 106.89C261.383 121.521 249.522 133.383 234.89 133.383C220.258 133.383 208.396 121.521 208.396 106.89C208.396 92.2575 220.258 80.396 234.89 80.396C249.522 80.396 261.383 92.2575 261.383 106.89ZM238.786 86.6298C238.786 88.7815 237.042 90.5259 234.89 90.5259C232.738 90.5259 230.994 88.7815 230.994 86.6298C230.994 84.478 232.738 82.7337 234.89 82.7337C237.042 82.7337 238.786 84.478 238.786 86.6298ZM214.63 102.993C216.782 102.993 218.526 104.738 218.526 106.89C218.526 109.041 216.782 110.786 214.63 110.786C212.478 110.786 210.734 109.041 210.734 106.89C210.734 104.738 212.478 102.993 214.63 102.993ZM234.89 131.045C237.042 131.045 238.786 129.301 238.786 127.149C238.786 124.997 237.042 123.253 234.89 123.253C232.738 123.253 230.994 124.997 230.994 127.149C230.994 129.301 232.738 131.045 234.89 131.045ZM255.15 102.993C257.301 102.993 259.046 104.738 259.046 106.89C259.046 109.041 257.301 110.786 255.15 110.786C252.998 110.786 251.254 109.041 251.254 106.89C251.254 104.738 252.998 102.993 255.15 102.993ZM228.404 87.6662C229.48 89.5297 228.842 91.9125 226.978 92.9884C225.115 94.0643 222.732 93.4258 221.656 91.5623C220.58 89.6989 221.219 87.316 223.082 86.2402C224.946 85.1643 227.329 85.8027 228.404 87.6662ZM215.667 113.915C217.53 112.84 219.913 113.478 220.989 115.342C222.065 117.205 221.426 119.588 219.563 120.664C217.699 121.74 215.317 121.101 214.241 119.238C213.165 117.374 213.803 114.991 215.667 113.915ZM247.238 128.079C249.102 127.003 249.74 124.621 248.664 122.757C247.588 120.894 245.206 120.255 243.342 121.331C241.479 122.407 240.84 124.79 241.916 126.653C242.992 128.517 245.375 129.155 247.238 128.079ZM250.758 93.6557C252.621 92.5798 255.004 93.2183 256.08 95.0818C257.156 96.9453 256.517 99.3281 254.654 100.404C252.79 101.48 250.407 100.841 249.332 98.9779C248.256 97.1144 248.894 94.7316 250.758 93.6557ZM220.989 98.9777C222.065 97.1143 221.426 94.7314 219.563 93.6556C217.699 92.5797 215.317 93.2182 214.241 95.0816C213.165 96.9451 213.803 99.3279 215.667 100.404C217.53 101.48 219.913 100.841 220.989 98.9777ZM226.978 121.331C225.115 120.255 222.732 120.893 221.656 122.757C220.58 124.62 221.219 127.003 223.082 128.079C224.946 129.155 227.329 128.517 228.404 126.653C229.48 124.79 228.842 122.407 226.978 121.331ZM254.654 113.915C256.517 114.991 257.156 117.374 256.08 119.237C255.004 121.101 252.621 121.739 250.758 120.664C248.894 119.588 248.256 117.205 249.332 115.341C250.407 113.478 252.79 112.839 254.654 113.915ZM247.238 86.24C245.375 85.1641 242.992 85.8026 241.916 87.6661C240.84 89.5295 241.479 91.9124 243.342 92.9882C245.206 94.0641 247.588 93.4256 248.664 91.5622C249.74 89.6987 249.102 87.3159 247.238 86.24Z" fill="#333333"/>
<path opacity="0.9" d="M234.694 113.08C231.868 113.08 230.518 111.784 230.446 109.516H233.002C233.074 110.254 233.596 110.83 234.73 110.83C235.99 110.83 236.584 110.128 236.584 108.742V107.536C235.9 108.22 235.054 108.526 233.956 108.526C231.634 108.526 230.356 107.14 230.356 104.584C230.356 101.848 231.814 100.408 234.784 100.408C237.7 100.408 239.248 101.812 239.248 104.548V108.85C239.248 111.64 237.682 113.08 234.694 113.08ZM234.622 106.276C235.54 106.276 236.188 105.826 236.584 104.926V104.656C236.584 103.342 235.972 102.658 234.766 102.658C233.578 102.658 233.02 103.324 233.02 104.512C233.02 105.664 233.542 106.276 234.622 106.276Z" fill="#333333"/>
<path d="M242.59 88.0555C243.451 86.5648 245.357 86.054 246.848 86.9147C248.339 87.7754 248.849 89.6816 247.989 91.1724C247.128 92.6632 245.222 93.174 243.731 92.3133C242.24 91.4526 241.729 89.5463 242.59 88.0555Z" fill="#333333"/>
<path d="M251.147 94.3307C252.638 93.47 254.544 93.9808 255.405 95.4716C256.265 96.9623 255.755 98.8686 254.264 99.7293C252.773 100.59 250.867 100.079 250.006 98.5884C249.145 97.0977 249.656 95.1914 251.147 94.3307Z" fill="#333333"/>
<path d="M252.032 106.89C252.032 105.168 253.428 103.773 255.149 103.773C256.871 103.773 258.266 105.168 258.266 106.89C258.266 108.611 256.871 110.007 255.149 110.007C253.428 110.007 252.032 108.611 252.032 106.89Z" fill="#333333"/>
<path d="M243.731 122.006C245.222 121.145 247.128 121.656 247.989 123.147C248.849 124.638 248.339 126.544 246.848 127.405C245.357 128.265 243.451 127.755 242.59 126.264C241.729 124.773 242.24 122.867 243.731 122.006Z" fill="#333333"/>
<path d="M231.772 127.149C231.772 125.428 233.168 124.032 234.889 124.032C236.611 124.032 238.006 125.428 238.006 127.149C238.006 128.871 236.611 130.266 234.889 130.266C233.168 130.266 231.772 128.871 231.772 127.149Z" fill="#333333"/>
<path d="M222.33 123.147C223.191 121.656 225.097 121.145 226.588 122.006C228.079 122.867 228.59 124.773 227.729 126.264C226.868 127.755 224.962 128.265 223.471 127.405C221.98 126.544 221.47 124.638 222.33 123.147Z" fill="#333333"/>
<path d="M211.513 106.89C211.513 105.168 212.908 103.773 214.63 103.773C216.351 103.773 217.746 105.168 217.746 106.89C217.746 108.611 216.351 110.007 214.63 110.007C212.908 110.007 211.513 108.611 211.513 106.89Z" fill="#333333"/>
<path d="M214.915 95.4716C215.776 93.9808 217.682 93.47 219.173 94.3307C220.664 95.1914 221.174 97.0977 220.314 98.5884C219.453 100.079 217.547 100.59 216.056 99.7293C214.565 98.8686 214.054 96.9623 214.915 95.4716Z" fill="#333333"/>
<path d="M223.471 86.9152C224.962 86.0545 226.868 86.5652 227.729 88.056C228.59 89.5468 228.079 91.4531 226.588 92.3138C225.097 93.1745 223.191 92.6637 222.33 91.1729C221.47 89.6821 221.98 87.7759 223.471 86.9152Z" fill="#333333"/>
<path opacity="0.2" fill-rule="evenodd" clip-rule="evenodd" d="M312.916 106.89C312.916 114.636 306.636 120.915 298.89 120.915C291.144 120.915 284.864 114.636 284.864 106.89C284.864 99.1432 291.144 92.8635 298.89 92.8635C306.636 92.8635 312.916 99.1432 312.916 106.89ZM325.383 106.89C325.383 121.521 313.522 133.383 298.89 133.383C284.258 133.383 272.396 121.521 272.396 106.89C272.396 92.2575 284.258 80.396 298.89 80.396C313.522 80.396 325.383 92.2575 325.383 106.89ZM302.786 86.6298C302.786 88.7815 301.042 90.5259 298.89 90.5259C296.738 90.5259 294.994 88.7815 294.994 86.6298C294.994 84.478 296.738 82.7337 298.89 82.7337C301.042 82.7337 302.786 84.478 302.786 86.6298ZM278.63 102.993C280.782 102.993 282.526 104.738 282.526 106.89C282.526 109.041 280.782 110.786 278.63 110.786C276.478 110.786 274.734 109.041 274.734 106.89C274.734 104.738 276.478 102.993 278.63 102.993ZM298.89 131.045C301.042 131.045 302.786 129.301 302.786 127.149C302.786 124.997 301.042 123.253 298.89 123.253C296.738 123.253 294.994 124.997 294.994 127.149C294.994 129.301 296.738 131.045 298.89 131.045ZM319.15 102.993C321.301 102.993 323.046 104.738 323.046 106.89C323.046 109.041 321.301 110.786 319.15 110.786C316.998 110.786 315.254 109.041 315.254 106.89C315.254 104.738 316.998 102.993 319.15 102.993ZM292.404 87.6662C293.48 89.5297 292.842 91.9125 290.978 92.9884C289.115 94.0643 286.732 93.4258 285.656 91.5623C284.58 89.6989 285.219 87.316 287.082 86.2402C288.946 85.1643 291.329 85.8027 292.404 87.6662ZM279.667 113.915C281.53 112.84 283.913 113.478 284.989 115.342C286.065 117.205 285.426 119.588 283.563 120.664C281.699 121.74 279.317 121.101 278.241 119.238C277.165 117.374 277.803 114.991 279.667 113.915ZM311.238 128.079C313.102 127.003 313.74 124.621 312.664 122.757C311.588 120.894 309.206 120.255 307.342 121.331C305.479 122.407 304.84 124.79 305.916 126.653C306.992 128.517 309.375 129.155 311.238 128.079ZM314.758 93.6557C316.621 92.5798 319.004 93.2183 320.08 95.0818C321.156 96.9453 320.517 99.3281 318.654 100.404C316.79 101.48 314.407 100.841 313.332 98.9779C312.256 97.1144 312.894 94.7316 314.758 93.6557ZM284.989 98.9777C286.065 97.1143 285.426 94.7314 283.563 93.6556C281.699 92.5797 279.317 93.2182 278.241 95.0816C277.165 96.9451 277.803 99.3279 279.667 100.404C281.53 101.48 283.913 100.841 284.989 98.9777ZM290.978 121.331C289.115 120.255 286.732 120.893 285.656 122.757C284.58 124.62 285.219 127.003 287.082 128.079C288.946 129.155 291.329 128.517 292.404 126.653C293.48 124.79 292.842 122.407 290.978 121.331ZM318.654 113.915C320.517 114.991 321.156 117.374 320.08 119.237C319.004 121.101 316.621 121.739 314.758 120.664C312.894 119.588 312.256 117.205 313.332 115.341C314.407 113.478 316.79 112.839 318.654 113.915ZM311.238 86.24C309.375 85.1641 306.992 85.8026 305.916 87.6661C304.84 89.5295 305.479 91.9124 307.342 92.9882C309.206 94.0641 311.588 93.4256 312.664 91.5622C313.74 89.6987 313.102 87.3159 311.238 86.24Z" fill="#333333"/>
<path opacity="0.9" d="M289.859 112.864V110.578H292.793V103.9C291.749 104.206 290.597 104.26 289.499 104.278V102.208C291.209 102.172 292.217 101.722 292.919 100.624H295.457V110.578H298.373V112.864H289.859ZM304.253 113.08C301.355 113.08 299.825 111.658 299.825 108.958V104.53C299.825 101.812 301.355 100.408 304.253 100.408C307.151 100.408 308.681 101.812 308.681 104.53V108.958C308.681 111.658 307.151 113.08 304.253 113.08ZM304.253 110.83C305.495 110.83 306.017 110.236 306.017 108.85V104.638C306.017 103.252 305.495 102.658 304.253 102.658C303.011 102.658 302.489 103.252 302.489 104.638V108.85C302.489 110.236 303.011 110.83 304.253 110.83Z" fill="#333333"/>
<path d="M306.59 88.0555C307.451 86.5648 309.357 86.054 310.848 86.9147C312.339 87.7754 312.849 89.6816 311.989 91.1724C311.128 92.6632 309.222 93.174 307.731 92.3133C306.24 91.4526 305.729 89.5463 306.59 88.0555Z" fill="#333333"/>
<path d="M315.147 94.3307C316.638 93.47 318.544 93.9808 319.405 95.4716C320.265 96.9623 319.755 98.8686 318.264 99.7293C316.773 100.59 314.867 100.079 314.006 98.5884C313.145 97.0977 313.656 95.1914 315.147 94.3307Z" fill="#333333"/>
<path d="M316.032 106.89C316.032 105.168 317.428 103.773 319.149 103.773C320.871 103.773 322.266 105.168 322.266 106.89C322.266 108.611 320.871 110.007 319.149 110.007C317.428 110.007 316.032 108.611 316.032 106.89Z" fill="#333333"/>
<path d="M314.006 115.731C314.867 114.241 316.773 113.73 318.264 114.59C319.755 115.451 320.265 117.357 319.405 118.848C318.544 120.339 316.638 120.85 315.147 119.989C313.656 119.128 313.145 117.222 314.006 115.731Z" fill="#333333"/>
<path d="M307.731 122.006C309.222 121.145 311.128 121.656 311.989 123.147C312.849 124.638 312.339 126.544 310.848 127.405C309.357 128.265 307.451 127.755 306.59 126.264C305.729 124.773 306.24 122.867 307.731 122.006Z" fill="#333333"/>
<path d="M286.33 123.147C287.191 121.656 289.097 121.145 290.588 122.006C292.079 122.867 292.59 124.773 291.729 126.264C290.868 127.755 288.962 128.265 287.471 127.405C285.98 126.544 285.47 124.638 286.33 123.147Z" fill="#333333"/>
<path d="M280.056 114.59C281.547 113.73 283.453 114.241 284.314 115.731C285.174 117.222 284.664 119.128 283.173 119.989C281.682 120.85 279.776 120.339 278.915 118.848C278.054 117.357 278.565 115.451 280.056 114.59Z" fill="#333333"/>
<path d="M275.513 106.89C275.513 105.168 276.908 103.773 278.63 103.773C280.351 103.773 281.746 105.168 281.746 106.89C281.746 108.611 280.351 110.007 278.63 110.007C276.908 110.007 275.513 108.611 275.513 106.89Z" fill="#333333"/>
<path d="M278.915 95.4716C279.776 93.9808 281.682 93.47 283.173 94.3307C284.664 95.1914 285.174 97.0977 284.314 98.5884C283.453 100.079 281.547 100.59 280.056 99.7293C278.565 98.8686 278.054 96.9623 278.915 95.4716Z" fill="#333333"/>
<path d="M287.471 86.9152C288.962 86.0545 290.868 86.5652 291.729 88.056C292.59 89.5468 292.079 91.4531 290.588 92.3138C289.097 93.1745 287.191 92.6637 286.33 91.1729C285.47 89.6821 285.98 87.7759 287.471 86.9152Z" fill="#333333"/>
<path opacity="0.2" fill-rule="evenodd" clip-rule="evenodd" d="M376.916 106.89C376.916 114.636 370.636 120.915 362.89 120.915C355.144 120.915 348.864 114.636 348.864 106.89C348.864 99.1432 355.144 92.8635 362.89 92.8635C370.636 92.8635 376.916 99.1432 376.916 106.89ZM389.383 106.89C389.383 121.521 377.522 133.383 362.89 133.383C348.258 133.383 336.396 121.521 336.396 106.89C336.396 92.2575 348.258 80.396 362.89 80.396C377.522 80.396 389.383 92.2575 389.383 106.89ZM366.786 86.6298C366.786 88.7815 365.042 90.5259 362.89 90.5259C360.738 90.5259 358.994 88.7815 358.994 86.6298C358.994 84.478 360.738 82.7337 362.89 82.7337C365.042 82.7337 366.786 84.478 366.786 86.6298ZM342.63 102.993C344.782 102.993 346.526 104.738 346.526 106.89C346.526 109.041 344.782 110.786 342.63 110.786C340.478 110.786 338.734 109.041 338.734 106.89C338.734 104.738 340.478 102.993 342.63 102.993ZM362.89 131.045C365.042 131.045 366.786 129.301 366.786 127.149C366.786 124.997 365.042 123.253 362.89 123.253C360.738 123.253 358.994 124.997 358.994 127.149C358.994 129.301 360.738 131.045 362.89 131.045ZM383.15 102.993C385.301 102.993 387.046 104.738 387.046 106.89C387.046 109.041 385.301 110.786 383.15 110.786C380.998 110.786 379.254 109.041 379.254 106.89C379.254 104.738 380.998 102.993 383.15 102.993ZM356.404 87.6662C357.48 89.5297 356.842 91.9125 354.978 92.9884C353.115 94.0643 350.732 93.4258 349.656 91.5623C348.58 89.6989 349.219 87.316 351.082 86.2402C352.946 85.1643 355.329 85.8027 356.404 87.6662ZM343.667 113.915C345.53 112.84 347.913 113.478 348.989 115.342C350.065 117.205 349.426 119.588 347.563 120.664C345.699 121.74 343.317 121.101 342.241 119.238C341.165 117.374 341.803 114.991 343.667 113.915ZM375.238 128.079C377.102 127.003 377.74 124.621 376.664 122.757C375.588 120.894 373.206 120.255 371.342 121.331C369.479 122.407 368.84 124.79 369.916 126.653C370.992 128.517 373.375 129.155 375.238 128.079ZM378.758 93.6557C380.621 92.5798 383.004 93.2183 384.08 95.0818C385.156 96.9453 384.517 99.3281 382.654 100.404C380.79 101.48 378.407 100.841 377.332 98.9779C376.256 97.1144 376.894 94.7316 378.758 93.6557ZM348.989 98.9777C350.065 97.1143 349.426 94.7314 347.563 93.6556C345.699 92.5797 343.317 93.2182 342.241 95.0816C341.165 96.9451 341.803 99.3279 343.667 100.404C345.53 101.48 347.913 100.841 348.989 98.9777ZM354.978 121.331C353.115 120.255 350.732 120.893 349.656 122.757C348.58 124.62 349.219 127.003 351.082 128.079C352.946 129.155 355.329 128.517 356.404 126.653C357.48 124.79 356.842 122.407 354.978 121.331ZM382.654 113.915C384.517 114.991 385.156 117.374 384.08 119.237C383.004 121.101 380.621 121.739 378.758 120.664C376.894 119.588 376.256 117.205 377.332 115.341C378.407 113.478 380.79 112.839 382.654 113.915ZM375.238 86.24C373.375 85.1641 370.992 85.8026 369.916 87.6661C368.84 89.5295 369.479 91.9124 371.342 92.9882C373.206 94.0641 375.588 93.4256 376.664 91.5622C377.74 89.6987 377.102 87.3159 375.238 86.24Z" fill="#333333"/>
<path opacity="0.9" d="M353.859 112.864V110.578H356.793V103.9C355.749 104.206 354.597 104.26 353.499 104.278V102.208C355.209 102.172 356.217 101.722 356.919 100.624H359.457V110.578H362.373V112.864H353.859ZM363.753 112.864V111.604C363.753 109.282 364.797 107.896 367.533 106.618C369.369 105.754 369.981 105.142 369.981 104.116C369.981 103.234 369.441 102.658 368.271 102.658C367.065 102.658 366.471 103.252 366.471 104.512V104.854H363.951V104.278C363.951 101.74 365.481 100.408 368.289 100.408C371.133 100.408 372.627 101.758 372.627 104.098C372.627 106.132 371.565 107.428 368.883 108.634C367.227 109.372 366.597 109.84 366.435 110.578H372.627V112.864H363.753Z" fill="#333333"/>
<path d="M370.59 88.0555C371.451 86.5648 373.357 86.054 374.848 86.9147C376.339 87.7754 376.849 89.6816 375.989 91.1724C375.128 92.6632 373.222 93.174 371.731 92.3133C370.24 91.4526 369.729 89.5463 370.59 88.0555Z" fill="#333333"/>
<path d="M379.147 94.3307C380.638 93.47 382.544 93.9808 383.405 95.4716C384.265 96.9623 383.755 98.8686 382.264 99.7293C380.773 100.59 378.867 100.079 378.006 98.5884C377.145 97.0977 377.656 95.1914 379.147 94.3307Z" fill="#333333"/>
<path d="M380.032 106.89C380.032 105.168 381.428 103.773 383.149 103.773C384.871 103.773 386.266 105.168 386.266 106.89C386.266 108.611 384.871 110.007 383.149 110.007C381.428 110.007 380.032 108.611 380.032 106.89Z" fill="#333333"/>
<path d="M378.006 115.731C378.867 114.241 380.773 113.73 382.264 114.59C383.755 115.451 384.265 117.357 383.405 118.848C382.544 120.339 380.638 120.85 379.147 119.989C377.656 119.128 377.145 117.222 378.006 115.731Z" fill="#333333"/>
<path d="M371.731 122.006C373.222 121.145 375.128 121.656 375.989 123.147C376.849 124.638 376.339 126.544 374.848 127.405C373.357 128.265 371.451 127.755 370.59 126.264C369.729 124.773 370.24 122.867 371.731 122.006Z" fill="#333333"/>
<path d="M359.772 127.149C359.772 125.428 361.168 124.032 362.889 124.032C364.611 124.032 366.006 125.428 366.006 127.149C366.006 128.871 364.611 130.266 362.889 130.266C361.168 130.266 359.772 128.871 359.772 127.149Z" fill="#333333"/>
<path d="M350.33 123.147C351.191 121.656 353.097 121.145 354.588 122.006C356.079 122.867 356.59 124.773 355.729 126.264C354.868 127.755 352.962 128.265 351.471 127.405C349.98 126.544 349.47 124.638 350.33 123.147Z" fill="#333333"/>
<path d="M344.056 114.59C345.547 113.73 347.453 114.241 348.314 115.731C349.174 117.222 348.664 119.128 347.173 119.989C345.682 120.85 343.776 120.339 342.915 118.848C342.054 117.357 342.565 115.451 344.056 114.59Z" fill="#333333"/>
<path d="M339.513 106.89C339.513 105.168 340.908 103.773 342.63 103.773C344.351 103.773 345.746 105.168 345.746 106.89C345.746 108.611 344.351 110.007 342.63 110.007C340.908 110.007 339.513 108.611 339.513 106.89Z" fill="#333333"/>
<path d="M342.915 95.4716C343.776 93.9808 345.682 93.47 347.173 94.3307C348.664 95.1914 349.174 97.0977 348.314 98.5884C347.453 100.079 345.547 100.59 344.056 99.7293C342.565 98.8686 342.054 96.9623 342.915 95.4716Z" fill="#333333"/>
<path d="M351.471 86.9152C352.962 86.0545 354.868 86.5652 355.729 88.056C356.59 89.5468 356.079 91.4531 354.588 92.3138C353.097 93.1745 351.191 92.6637 350.33 91.1729C349.47 89.6821 349.98 87.7759 351.471 86.9152Z" fill="#333333"/>
<path d="M359.772 86.6301C359.772 84.9087 361.168 83.5132 362.889 83.5132C364.611 83.5132 366.006 84.9087 366.006 86.6301C366.006 88.3515 364.611 89.747 362.889 89.747C361.168 89.747 359.772 88.3515 359.772 86.6301Z" fill="#333333"/>
</svg>
