<svg width="100" height="126" viewBox="0 0 100 126" fill="none" xmlns="http://www.w3.org/2000/svg">
<path fill-rule="evenodd" clip-rule="evenodd" d="M90.2206 100.412L87.9129 121.636L75.77 24.6934H98.2426L90.2206 100.412ZM10.4402 97.421L12.5006 122.116L24.8908 24.7475H2.36328L10.4402 97.421Z" fill="#E4E4E4"/>
<path d="M10 111.116H90L88.8974 122.116C88.8974 122.116 72.0769 125.116 50 125.116C27.9231 125.116 11.1026 122.116 11.1026 122.116L10 111.116Z" fill="#9F9F9F"/>
<path fill-rule="evenodd" clip-rule="evenodd" d="M2.07764 27.3915C2.02686 27.2482 2 27.1733 2 27.1733H2.01611C2.00537 27.1356 2 27.1163 2 27.1163L50 27.1449L98 27.1163C98 27.1163 97.9946 27.1356 97.9839 27.1733H98C98 27.1733 97.9731 27.2482 97.9224 27.3915C97.0615 30.4359 89.3247 57.8298 87.9277 63.8633C87.188 67.0586 88.0415 84 89.1226 94.6132C89.6348 99.7487 90.0903 104.313 90.5454 108.251C91.0005 112.245 88.6675 116.011 85.0825 117.095C76.2051 119.72 64.4824 122.116 50.7114 122.116C50.4736 122.115 50.2363 122.114 50 122.111C49.7637 122.114 49.5264 122.115 49.2886 122.116C35.5176 122.116 23.7949 119.72 14.9175 117.095C11.3325 116.011 8.99951 112.245 9.45459 108.251C9.90967 104.313 10.3652 99.7487 10.8774 94.6132C11.9585 84 12.812 67.0586 12.0723 63.8633C10.6753 57.8298 2.93848 30.4359 2.07764 27.3915Z" fill="#F5F5F5"/>
<path d="M8 37.1721L91 37.1163C84.7694 55.5563 66.5036 64.1163 49.4731 64.1163C32.4427 64.1163 14.5298 55.5564 8 37.1721Z" fill="#D0D0D0"/>
<path d="M98.1311 24.6934C98.1311 27.0582 96.5378 29.313 93.6806 31.3479C86.0432 36.7375 69.34 40.5323 49.9444 40.5323C30.6037 40.5323 13.9004 36.7925 6.26304 31.4029C3.40589 29.368 1.8125 27.1682 1.8125 24.8034C1.8125 16.114 23.3509 9.01946 49.9444 9.01946C76.5927 8.90947 98.1311 15.949 98.1311 24.6934Z" fill="#A8A8A8"/>
<path d="M93.6812 31.2929C86.0439 36.6826 69.3406 40.4773 49.945 40.4773C30.6043 40.4773 13.901 36.7376 6.26367 31.3479C13.901 25.9583 30.6043 22.1636 49.945 22.1636C69.3406 22.1636 86.0439 25.9033 93.6812 31.2929Z" fill="#0D0E0E"/>
<path fill-rule="evenodd" clip-rule="evenodd" d="M83.2813 13.8694C74.8459 10.818 63.0841 8.90978 50.0027 8.937L49.9995 8.937C36.9462 8.937 25.184 10.8722 16.741 13.944C12.5129 15.4823 9.19991 17.2759 6.9733 19.1869C4.74038 21.1033 3.75977 22.9889 3.75977 24.7483C3.75977 26.654 4.88992 28.7206 7.54418 30.7643L7.54935 30.7682L7.55449 30.7723C11.0889 33.5409 16.8813 35.9764 24.2839 37.7134C31.6528 39.4426 40.4881 40.4496 49.9995 40.4496C59.5093 40.4496 68.3438 39.4291 75.7124 37.6866C83.1087 35.9375 88.8997 33.4908 92.4364 30.7236C95.0687 28.6032 96.2392 26.5328 96.2392 24.6383C96.2392 22.8781 95.2611 20.9962 93.034 19.0869C90.8125 17.1825 87.5055 15.3974 83.2813 13.8694ZM95.0642 16.7035C97.6705 18.9379 99.3642 21.6138 99.3642 24.6383C99.3642 27.9115 97.3502 30.7885 94.3837 33.1756L94.3757 33.182L94.3677 33.1883C90.3213 36.358 84.0274 38.9412 76.4294 40.738C68.798 42.5427 59.7204 43.5846 49.9995 43.5846C40.2801 43.5846 31.2033 42.5567 23.5722 40.7661C15.978 38.9841 9.68456 36.4164 5.63636 33.2473C2.57933 30.892 0.634766 28.0103 0.634766 24.7483C0.634766 21.723 2.33272 19.0439 4.94184 16.8047C7.55726 14.56 11.2497 12.607 15.6755 10.9968C24.5398 7.77167 36.6781 3.92109 49.9978 3.92093C63.3444 3.89331 75.483 7.71584 84.3413 10.9202C88.764 12.52 92.4522 14.4644 95.0642 16.7035Z" fill="#828383"/>
<path d="M50 46.8567C30.6593 46.8567 13.4616 41.9621 5.16485 34.0976C1.75826 30.8529 0 27.2781 0 23.4834C0 10.3393 21.978 0.0549962 50 0C78.022 0 100 10.2843 100 23.3734C100 27.1681 98.2417 30.7429 94.8351 33.9876C86.5385 41.9621 69.3407 46.8567 50 46.8567ZM50 4.72967C22.6923 4.72967 4.3956 14.409 4.3956 23.4834C4.3956 25.8482 5.65931 28.268 8.0769 30.5779C15.4945 37.6174 31.978 42.1821 50.0549 42.1821C68.1319 42.1821 84.5604 37.5624 92.033 30.5229C94.4505 28.213 95.7143 25.8482 95.7143 23.4284C95.6044 14.354 77.3077 4.72967 50 4.72967Z" fill="#EEEEEE"/>
<mask id="mask0_3857_472610" style="mask-type:alpha" maskUnits="userSpaceOnUse" x="11" y="49" width="78" height="71">
<path d="M83.8125 114.241C85.8672 113.615 87.4457 111.313 87.1406 108.616L85.7188 94.9288C85.1717 89.5573 84.68 82.6263 84.4219 76.6163C84.2928 73.6106 84.2271 70.8206 84.2344 68.5538C84.2413 66.4194 84.3191 64.3652 84.5938 63.1788C85.1489 60.7807 86.6552 55.1974 88.3281 49.1163H87.6719C78.5319 61.471 63.2537 67.1163 49.0625 67.1163C35.051 67.1163 20.2189 61.6263 11 49.6788C12.6115 55.5438 14.0398 60.8536 14.5781 63.1788C14.8528 64.3652 14.9306 66.4194 14.9375 68.5538C14.9448 70.8206 14.8635 73.6106 14.7344 76.6163C14.4763 82.6242 14 89.5581 13.4531 94.9288C13.3149 99.5598 12.5466 104.024 12.0156 108.616C11.7092 111.314 13.304 113.615 15.3594 114.241C24.0225 116.802 35.4446 119.116 48.8594 119.116C49.0894 119.115 49.3182 119.119 49.5469 119.116H49.5781H49.6094C49.838 119.119 50.0669 119.115 50.2969 119.116C63.7117 119.116 75.1493 116.802 83.8125 114.241Z" fill="white"/>
</mask>
<g mask="url(#mask0_3857_472610)">
<path d="M83.8125 114.241C85.8672 113.615 87.4457 111.313 87.1406 108.616L85.7188 94.9288C85.1717 89.5573 84.68 82.6263 84.4219 76.6163C84.2928 73.6106 84.2271 70.8206 84.2344 68.5538C84.2413 66.4194 84.3191 64.3652 84.5938 63.1788C85.1489 60.7807 86.6552 55.1974 88.3281 49.1163H87.6719C78.5319 61.471 63.2537 67.1163 49.0625 67.1163C35.051 67.1163 20.2189 61.6263 11 49.6788C12.6115 55.5438 14.0398 60.8536 14.5781 63.1788C14.8528 64.3652 14.9306 66.4194 14.9375 68.5538C14.9448 70.8206 14.8635 73.6106 14.7344 76.6163C14.4763 82.6242 14 89.5581 13.4531 94.9288C13.3149 99.5598 12.5466 104.024 12.0156 108.616C11.7092 111.314 13.304 113.615 15.3594 114.241C24.0225 116.802 35.4446 119.116 48.8594 119.116C49.0894 119.115 49.3182 119.119 49.5469 119.116H49.5781H49.6094C49.838 119.119 50.0669 119.115 50.2969 119.116C63.7117 119.116 75.1493 116.802 83.8125 114.241Z" fill="white"/>
<path d="M8 72.1163L91 101.116V112.116H8V72.1163Z" fill="#99C1E7"/>
<path d="M8 80.1163L91 104.116V120.116H8V80.1163Z" fill="#66A1DB"/>
</g>
<rect x="44" y="111.116" width="13.3824" height="5" rx="2.5" fill="#FBBD6D"/>
<path d="M49.6172 114.352H49.9701V113.792H50.2501C50.6548 113.792 50.8266 113.639 50.8266 113.274C50.8266 112.907 50.6548 112.752 50.2501 112.752H49.6172V114.352ZM49.9701 113.49V113.053H50.2195C50.3984 113.053 50.4737 113.119 50.4737 113.272C50.4737 113.425 50.3984 113.49 50.2195 113.49H49.9701Z" fill="#333333"/>
<path d="M51.4477 114.38C51.6006 114.38 51.7135 114.326 51.81 114.201L51.8194 114.352H52.1159V113.123H51.7677V113.914C51.7159 114.032 51.643 114.079 51.5488 114.079C51.45 114.079 51.4053 114.027 51.4053 113.907V113.123H51.0571V113.938C51.0571 114.232 51.1912 114.38 51.4477 114.38Z" fill="#333333"/>
<path d="M52.4176 114.352H52.7658V112.634H52.4176V114.352Z" fill="#333333"/>
<path d="M53.5102 114.38C53.8585 114.38 54.0279 114.25 54.0279 113.982C54.0279 113.745 53.9079 113.629 53.5973 113.594C53.4185 113.573 53.3549 113.538 53.3549 113.458C53.3549 113.387 53.4067 113.347 53.5102 113.347C53.6232 113.347 53.6702 113.389 53.6702 113.486H54.002C54.002 113.232 53.8373 113.095 53.5126 113.095C53.1902 113.095 53.0114 113.234 53.0114 113.5C53.0114 113.733 53.1314 113.836 53.4349 113.872C53.6185 113.893 53.6843 113.93 53.6843 114.018C53.6843 114.093 53.6279 114.128 53.5126 114.128C53.3785 114.128 53.322 114.081 53.322 113.975H52.9902C52.9902 114.248 53.1549 114.38 53.5102 114.38Z" fill="#333333"/>
<path d="M54.7734 114.38C55.1052 114.38 55.2864 114.241 55.3005 113.975H54.9687C54.9617 114.06 54.8934 114.107 54.7758 114.107C54.6252 114.107 54.5617 114.029 54.5617 113.869V113.846H55.3075V113.622C55.3075 113.281 55.1193 113.095 54.7593 113.095C54.4017 113.095 54.2134 113.276 54.2134 113.618V113.858C54.2134 114.203 54.4017 114.38 54.7734 114.38ZM54.5617 113.601C54.5617 113.436 54.6228 113.368 54.7711 113.368C54.9169 113.368 54.9781 113.436 54.9781 113.601H54.5617Z" fill="#333333"/>
<path fill-rule="evenodd" clip-rule="evenodd" d="M46.9014 112.233C46.6116 112.233 46.3089 112.367 46.0449 112.561L45.8858 112.378C46.1725 112.167 46.5304 111.999 46.9014 111.999C47.2361 111.999 47.5707 112.094 47.8563 112.285L48.0576 112.115L48.2228 112.923L47.3969 112.671L47.6635 112.447C47.4319 112.304 47.1665 112.233 46.9014 112.233ZM45.5799 112.924L45.8002 113.681L45.5981 113.628C45.615 114.18 45.9223 114.66 46.3981 114.834L46.3036 115.052C45.6919 114.828 45.3424 114.22 45.3424 113.58V113.561L45.0293 113.479L45.5799 112.924ZM47.5816 114.762C47.9731 114.511 48.2605 114.082 48.2605 113.58H48.5155C48.5155 114.2 48.1407 114.72 47.6472 115.003L47.7272 115.296L46.9013 115.044L47.507 114.489L47.5816 114.762Z" fill="#333333"/>
<path d="M23 72.1163C23 71.0118 23.8954 70.1163 25 70.1163H75.2C76.3046 70.1163 77.2 71.0118 77.2 72.1163V106.116C77.2 107.221 76.3046 108.116 75.2 108.116H25C23.8954 108.116 23 107.221 23 106.116V72.1163Z" fill="white"/>
<path d="M25.84 75.1523C26.35 75.1523 26.599 74.9453 26.599 74.5223C26.599 74.1383 26.434 73.9553 25.957 73.8863C25.669 73.8443 25.564 73.7753 25.564 73.6223C25.564 73.4873 25.66 73.4093 25.846 73.4093C26.041 73.4093 26.134 73.4963 26.134 73.6733H26.572C26.572 73.2443 26.335 73.0403 25.855 73.0403C25.369 73.0403 25.114 73.2503 25.114 73.6673C25.114 74.0393 25.285 74.2073 25.738 74.2793C26.041 74.3273 26.149 74.3993 26.149 74.5673C26.149 74.7143 26.05 74.7863 25.852 74.7863C25.633 74.7863 25.522 74.6993 25.522 74.5013H25.084C25.084 74.9483 25.321 75.1523 25.84 75.1523ZM27.5687 75.1523C27.9917 75.1523 28.2227 74.9753 28.2407 74.6363H27.8177C27.8087 74.7443 27.7217 74.8043 27.5717 74.8043C27.3797 74.8043 27.2987 74.7053 27.2987 74.5013V74.4713H28.2497V74.1863C28.2497 73.7513 28.0097 73.5143 27.5507 73.5143C27.0947 73.5143 26.8547 73.7453 26.8547 74.1803V74.4863C26.8547 74.9273 27.0947 75.1523 27.5687 75.1523ZM27.2987 74.1593C27.2987 73.9493 27.3767 73.8623 27.5657 73.8623C27.7517 73.8623 27.8297 73.9493 27.8297 74.1593H27.2987ZM29.083 75.1163H29.41V74.7683H29.236C29.107 74.7683 29.071 74.7263 29.071 74.5793V73.8863H29.395V73.5503H29.071V73.1603H28.66L28.636 73.5503H28.399V73.8863H28.627V74.6063C28.627 74.9663 28.762 75.1163 29.083 75.1163ZM30.4047 75.1163H30.8547V74.3633H31.0977L31.5027 75.1163H32.0157L31.5747 74.3213C31.8297 74.2463 31.9377 74.0543 31.9377 73.7213C31.9377 73.2653 31.7397 73.0763 31.2387 73.0763H30.4047V75.1163ZM30.8547 73.9793V73.4603H31.1907C31.4097 73.4603 31.4877 73.5353 31.4877 73.7213C31.4877 73.9043 31.4097 73.9793 31.1907 73.9793H30.8547ZM32.3031 75.1163H32.7531V74.4023H33.1101C33.6261 74.4023 33.8451 74.2073 33.8451 73.7423C33.8451 73.2743 33.6261 73.0763 33.1101 73.0763H32.3031V75.1163ZM32.7531 74.0183V73.4603H33.0711C33.2991 73.4603 33.3951 73.5443 33.3951 73.7393C33.3951 73.9343 33.2991 74.0183 33.0711 74.0183H32.7531ZM34.14 75.1163H34.566V73.5773L35.073 75.1163H35.376L35.883 73.5773V75.1163H36.333V73.0763H35.667L35.235 74.4083L34.8 73.0763H34.14V75.1163Z" fill="#333333"/>
<g clip-path="url(#clip0_3857_472610)">
<path d="M25 77.1163C25 76.564 25.4477 76.1163 26 76.1163H47C47.5523 76.1163 48 76.564 48 77.1163V84.1163C48 84.6686 47.5523 85.1163 47 85.1163H26C25.4477 85.1163 25 84.6686 25 84.1163V77.1163Z" fill="white" fill-opacity="0.5"/>
<path d="M48 76.1163H25V85.1163H48V76.1163Z" fill="#173E50"/>
<path opacity="0.2" d="M42.4542 76.1163L12 85.1163H30.3573L61 76.1163H42.4542Z" fill="white" fill-opacity="0.5"/>
<path opacity="0.2" d="M61.8406 76.1163L32 85.1163H33.9748L64 76.1163H61.8406Z" fill="white" fill-opacity="0.5"/>
<path d="M47.2546 76.1163H27C25.8954 76.1163 25 77.0118 25 78.1163V83.9873C25 85.0919 25.8954 85.9873 27 85.9873H47.2545C48.3591 85.9873 49.2545 85.0919 49.2545 83.9873V78.1163C49.2545 77.0118 48.3591 76.1163 47.2546 76.1163Z" stroke="#031D29" stroke-miterlimit="10"/>
</g>
<path fill-rule="evenodd" clip-rule="evenodd" d="M45.0583 78.6396C44.6583 78.6396 44.2405 78.8248 43.8762 79.092L43.6567 78.8393C44.0523 78.5491 44.5463 78.3163 45.0583 78.3163C45.5203 78.3163 45.982 78.4481 46.3761 78.711L46.654 78.4775L46.882 79.5922L45.7422 79.2438L46.1101 78.9346C45.7905 78.7378 45.4242 78.6396 45.0583 78.6396ZM43.2345 79.5929L43.5385 80.638L43.2596 80.5649C43.2829 81.3264 43.707 81.9889 44.3637 82.2297L44.2333 82.5301C43.3891 82.2205 42.9067 81.3819 42.9067 80.4988V80.4725L42.4746 80.3593L43.2345 79.5929ZM45.997 82.1302C46.5374 81.783 46.934 81.1914 46.934 80.4985H47.2859C47.2859 81.3546 46.7687 82.0725 46.0876 82.4625L46.1981 82.8676L45.0582 82.5192L45.8941 81.7528L45.997 82.1302Z" fill="white"/>
<path d="M27.7105 79.2814H27V78.8537C27.1936 78.8537 27.3481 78.839 27.4634 78.8098C27.5828 78.7806 27.6776 78.733 27.7476 78.6672C27.8176 78.5978 27.8794 78.4991 27.933 78.3711H28.3902V82.2095H27.7105V79.2814Z" fill="white"/>
<path d="M30.3203 82.2644C29.9867 82.2644 29.7333 82.1821 29.5603 82.0176C29.3915 81.8531 29.307 81.6173 29.307 81.3103V80.9977H29.9496V81.3377C29.9496 81.5899 30.067 81.716 30.3018 81.716C30.4171 81.716 30.5036 81.685 30.5613 81.6228C30.6231 81.557 30.6539 81.4437 30.6539 81.2828V80.9703C30.6539 80.7948 30.6189 80.6705 30.5489 80.5974C30.4789 80.5206 30.3656 80.4823 30.2091 80.4823H29.9805V79.9339H30.2276C30.3636 79.9339 30.4645 79.9028 30.5304 79.8407C30.6004 79.7785 30.6354 79.6744 30.6354 79.5281V79.2485C30.6354 79.1169 30.6045 79.02 30.5427 78.9579C30.4809 78.8957 30.3986 78.8646 30.2956 78.8646C30.0773 78.8646 29.9681 78.9834 29.9681 79.2211V79.4733H29.3256V79.2704C29.3256 78.9633 29.41 78.7275 29.5789 78.563C29.7519 78.3985 29.999 78.3163 30.3203 78.3163C30.6457 78.3163 30.8929 78.3985 31.0617 78.563C31.2306 78.7239 31.3151 78.9579 31.3151 79.2649V79.402C31.3151 79.6104 31.2759 79.7785 31.1977 79.9065C31.1194 80.0308 30.9979 80.1203 30.8331 80.1752V80.1861C31.0102 80.2446 31.1379 80.3397 31.2162 80.4713C31.2945 80.6029 31.3336 80.7711 31.3336 80.9758V81.3157C31.3336 81.6228 31.2471 81.8586 31.0741 82.0231C30.9052 82.184 30.6539 82.2644 30.3203 82.2644Z" fill="white"/>
<path d="M32.1763 82.2095H31.9539V81.6283H32.6088V82.1492L32.269 82.8676H31.9539L32.1763 82.2095Z" fill="white"/>
<path d="M35.3498 82.2644C35.0203 82.2644 34.769 82.1821 34.596 82.0176C34.423 81.8495 34.3365 81.61 34.3365 81.2993V80.9977H34.9791V81.3432C34.9791 81.5917 35.0965 81.716 35.3313 81.716C35.5661 81.716 35.6835 81.5917 35.6835 81.3432V80.4823C35.6835 80.23 35.5661 80.1039 35.3313 80.1039C35.0965 80.1039 34.9791 80.23 34.9791 80.4823V80.5152H34.3365L34.4601 78.3711H36.2519V78.9195H35.0656L35.01 79.8352H35.0223C35.15 79.6488 35.3457 79.5555 35.6093 79.5555C35.8565 79.5555 36.0439 79.6305 36.1716 79.7804C36.2992 79.9303 36.3631 80.1478 36.3631 80.4329V81.2993C36.3631 81.61 36.2766 81.8495 36.1036 82.0176C35.9306 82.1821 35.6793 82.2644 35.3498 82.2644Z" fill="white"/>
<path d="M37.9349 82.2644C37.6012 82.2644 37.3458 82.1803 37.1687 82.0121C36.9916 81.844 36.903 81.6064 36.903 81.2993V79.2814C36.903 78.9743 36.9916 78.7367 37.1687 78.5685C37.3458 78.4004 37.6012 78.3163 37.9349 78.3163C38.2685 78.3163 38.5239 78.4004 38.701 78.5685C38.8781 78.7367 38.9667 78.9743 38.9667 79.2814V81.2993C38.9667 81.6064 38.8781 81.844 38.701 82.0121C38.5239 82.1803 38.2685 82.2644 37.9349 82.2644ZM37.9349 81.716C38.1696 81.716 38.287 81.5899 38.287 81.3377V79.243C38.287 78.9908 38.1696 78.8646 37.9349 78.8646C37.7001 78.8646 37.5827 78.9908 37.5827 79.243V81.3377C37.5827 81.5899 37.7001 81.716 37.9349 81.716Z" fill="white"/>
<path d="M40.5323 82.2644C40.1986 82.2644 39.9433 82.1803 39.7661 82.0121C39.589 81.844 39.5005 81.6064 39.5005 81.2993V79.2814C39.5005 78.9743 39.589 78.7367 39.7661 78.5685C39.9433 78.4004 40.1986 78.3163 40.5323 78.3163C40.8659 78.3163 41.1213 78.4004 41.2984 78.5685C41.4755 78.7367 41.5641 78.9743 41.5641 79.2814V81.2993C41.5641 81.6064 41.4755 81.844 41.2984 82.0121C41.1213 82.1803 40.8659 82.2644 40.5323 82.2644ZM40.5323 81.716C40.7671 81.716 40.8845 81.5899 40.8845 81.3377V79.243C40.8845 78.9908 40.7671 78.8646 40.5323 78.8646C40.2975 78.8646 40.1801 78.9908 40.1801 79.243V81.3377C40.1801 81.5899 40.2975 81.716 40.5323 81.716Z" fill="white"/>
<path d="M25 87.1163C25 86.564 25.4477 86.1163 26 86.1163H47C47.5523 86.1163 48 86.564 48 87.1163V99.1163C48 99.6686 47.5523 100.116 47 100.116H26C25.4477 100.116 25 99.6686 25 99.1163V87.1163Z" fill="#E5ECF0"/>
<rect x="34.5" y="87.1163" width="4" height="4" rx="1" fill="#0063C3"/>
<path fill-rule="evenodd" clip-rule="evenodd" d="M35.0879 89.3009L36.518 88.1752V88.8141L35.0879 89.9399V89.3009ZM37.9114 89.3009L36.518 88.1752V88.8141L37.9114 89.9399V89.3009Z" fill="white"/>
<path d="M28.0961 94.1163H28.2761V93.5643H28.5741L28.8981 94.1163H29.1061L28.7741 93.5523C28.9721 93.5143 29.0561 93.3923 29.0561 93.1603C29.0561 92.8743 28.9281 92.7563 28.6181 92.7563H28.0961V94.1163ZM28.2761 93.4003V92.9203H28.6021C28.8061 92.9203 28.8761 92.9863 28.8761 93.1603C28.8761 93.3343 28.8061 93.4003 28.6021 93.4003H28.2761ZM29.7475 94.1403C30.0395 94.1403 30.1935 93.9843 30.1935 93.6843V93.5163C30.1935 93.2163 30.0395 93.0603 29.7475 93.0603C29.4555 93.0603 29.3015 93.2163 29.3015 93.5163V93.6843C29.3015 93.9843 29.4555 94.1403 29.7475 94.1403ZM29.7475 93.9863C29.5655 93.9863 29.4775 93.8863 29.4775 93.6783V93.5203C29.4775 93.3123 29.5655 93.2143 29.7475 93.2143C29.9295 93.2143 30.0175 93.3123 30.0175 93.5203V93.6783C30.0175 93.8863 29.9295 93.9863 29.7475 93.9863ZM30.7846 94.1403C30.9306 94.1403 31.0426 94.0823 31.1326 93.9523L31.1386 94.1163H31.2886V93.0843H31.1126V93.7543C31.0366 93.9063 30.9406 93.9783 30.8166 93.9783C30.6926 93.9783 30.6326 93.9083 30.6326 93.7463V93.0843H30.4566V93.7623C30.4566 94.0103 30.5666 94.1403 30.7846 94.1403ZM31.6211 94.1163H31.7971V93.4463C31.8711 93.2943 31.9651 93.2223 32.0871 93.2223C32.2091 93.2223 32.2691 93.2923 32.2691 93.4543V94.1163H32.4451V93.4383C32.4451 93.1903 32.3371 93.0603 32.1211 93.0603C31.9771 93.0603 31.8671 93.1183 31.7771 93.2463L31.7711 93.0843H31.6211V94.1163ZM33.0897 94.1403C33.2397 94.1403 33.3497 94.0823 33.4377 93.9523L33.4437 94.1163H33.5937V92.6563H33.4177V93.2203C33.3337 93.1103 33.2277 93.0603 33.0897 93.0603C32.8497 93.0603 32.7097 93.2083 32.7097 93.4903V93.7103C32.7097 93.9923 32.8497 94.1403 33.0897 94.1403ZM33.1117 93.9863C32.9697 93.9863 32.8857 93.8883 32.8857 93.7043V93.4963C32.8857 93.3123 32.9697 93.2143 33.1117 93.2143C33.2437 93.2143 33.3497 93.3003 33.4177 93.4483V93.7523C33.3497 93.9003 33.2437 93.9863 33.1117 93.9863ZM34.2598 94.1403C34.5318 94.1403 34.6718 94.0323 34.6718 93.8243C34.6718 93.6283 34.5678 93.5403 34.2918 93.5103C34.1018 93.4903 34.0318 93.4523 34.0318 93.3583C34.0318 93.2643 34.1118 93.2103 34.2558 93.2103C34.4038 93.2103 34.4778 93.2683 34.4778 93.3783H34.6498C34.6498 93.1703 34.5138 93.0603 34.2578 93.0603C34.0018 93.0603 33.8598 93.1723 33.8598 93.3723C33.8598 93.5563 33.9598 93.6363 34.2298 93.6683C34.4298 93.6923 34.4998 93.7363 34.4998 93.8383C34.4998 93.9363 34.4198 93.9903 34.2598 93.9903C34.0878 93.9903 34.0038 93.9303 34.0038 93.8123H33.8358C33.8358 94.0303 33.9758 94.1403 34.2598 94.1403ZM35.4473 94.4803H35.6233V93.9803C35.7073 94.0903 35.8133 94.1403 35.9513 94.1403C36.1913 94.1403 36.3313 93.9923 36.3313 93.7103V93.4903C36.3313 93.2083 36.1913 93.0603 35.9513 93.0603C35.8013 93.0603 35.6913 93.1183 35.6033 93.2483L35.5973 93.0843H35.4473V94.4803ZM35.9293 93.9863C35.7973 93.9863 35.6913 93.9003 35.6233 93.7523V93.4483C35.6913 93.3003 35.7973 93.2143 35.9293 93.2143C36.0713 93.2143 36.1553 93.3123 36.1553 93.4963V93.7043C36.1553 93.8883 36.0713 93.9863 35.9293 93.9863ZM37.0073 94.1403C37.2553 94.1403 37.4093 94.0283 37.4233 93.8083H37.2533C37.2413 93.9203 37.1593 93.9883 37.0033 93.9883C36.8193 93.9883 36.7353 93.8963 36.7353 93.6943V93.6483H37.4313V93.4983C37.4313 93.2143 37.2773 93.0603 36.9953 93.0603C36.7133 93.0603 36.5593 93.2143 36.5593 93.4983V93.7023C36.5593 93.9863 36.7173 94.1403 37.0073 94.1403ZM36.7353 93.5023C36.7353 93.3043 36.8173 93.2123 36.9993 93.2123C37.1793 93.2123 37.2613 93.3043 37.2613 93.5023H36.7353ZM37.707 94.1163H37.883V93.5223C37.917 93.3243 38.011 93.2383 38.179 93.2383H38.231V93.0643H38.161C38.011 93.0643 37.917 93.1303 37.865 93.2763L37.857 93.0843H37.707V94.1163ZM38.9512 94.1163H39.1272V93.4503C39.2032 93.2903 39.2892 93.2223 39.3992 93.2223C39.5072 93.2223 39.5672 93.2883 39.5672 93.4263V94.1163H39.7432V93.4403C39.8192 93.2903 39.9072 93.2223 40.0152 93.2223C40.1232 93.2223 40.1832 93.2883 40.1832 93.4263V94.1163H40.3592V93.4123C40.3592 93.1843 40.2452 93.0603 40.0392 93.0603C39.9072 93.0603 39.8012 93.1123 39.7152 93.2403C39.6732 93.1223 39.5752 93.0603 39.4312 93.0603C39.2912 93.0603 39.1892 93.1183 39.1072 93.2463L39.1012 93.0843H38.9512V94.1163ZM40.6678 92.8983H40.8598V92.7023H40.6678V92.8983ZM40.6758 94.1163H40.8518V93.0843H40.6758V94.1163ZM41.1836 94.1163H41.3596V93.4463C41.4336 93.2943 41.5276 93.2223 41.6496 93.2223C41.7716 93.2223 41.8316 93.2923 41.8316 93.4543V94.1163H42.0076V93.4383C42.0076 93.1903 41.8996 93.0603 41.6836 93.0603C41.5396 93.0603 41.4296 93.1183 41.3396 93.2463L41.3336 93.0843H41.1836V94.1163ZM42.6362 94.1403C42.7822 94.1403 42.8942 94.0823 42.9842 93.9523L42.9902 94.1163H43.1402V93.0843H42.9642V93.7543C42.8882 93.9063 42.7922 93.9783 42.6682 93.9783C42.5442 93.9783 42.4842 93.9083 42.4842 93.7463V93.0843H42.3082V93.7623C42.3082 94.0103 42.4182 94.1403 42.6362 94.1403ZM43.7926 94.1163H43.9526V93.9643H43.8346C43.7166 93.9643 43.6866 93.9303 43.6866 93.7963V93.2283H43.9406V93.0843H43.6866V92.8123H43.5286L43.5146 93.0843H43.3326V93.2283H43.5106V93.7943C43.5106 94.0203 43.5946 94.1163 43.7926 94.1163ZM44.5542 94.1403C44.8022 94.1403 44.9562 94.0283 44.9702 93.8083H44.8002C44.7882 93.9203 44.7062 93.9883 44.5502 93.9883C44.3662 93.9883 44.2822 93.8963 44.2822 93.6943V93.6483H44.9782V93.4983C44.9782 93.2143 44.8242 93.0603 44.5422 93.0603C44.2602 93.0603 44.1062 93.2143 44.1062 93.4983V93.7023C44.1062 93.9863 44.2642 94.1403 44.5542 94.1403ZM44.2822 93.5023C44.2822 93.3043 44.3642 93.2123 44.5462 93.2123C44.7262 93.2123 44.8082 93.3043 44.8082 93.5023H44.2822Z" fill="#333333"/>
<rect x="34.5" y="95.1163" width="4" height="4" rx="1" fill="#0063C3"/>
<path fill-rule="evenodd" clip-rule="evenodd" d="M37.9121 96.8141L36.482 97.9399L36.482 97.3009L37.9121 96.1752L37.9121 96.8141ZM35.0886 96.8141L36.482 97.9399L36.482 97.3009L35.0886 96.1752L35.0886 96.8141Z" fill="white"/>
<rect x="50" y="72.1163" width="0.2" height="34" fill="#003E6B"/>
<path d="M53.0402 75.1523C53.5502 75.1523 53.7992 74.9453 53.7992 74.5223C53.7992 74.1383 53.6342 73.9553 53.1572 73.8863C52.8692 73.8443 52.7642 73.7753 52.7642 73.6223C52.7642 73.4873 52.8602 73.4093 53.0462 73.4093C53.2412 73.4093 53.3342 73.4963 53.3342 73.6733H53.7722C53.7722 73.2443 53.5352 73.0403 53.0552 73.0403C52.5692 73.0403 52.3142 73.2503 52.3142 73.6673C52.3142 74.0393 52.4852 74.2073 52.9382 74.2793C53.2412 74.3273 53.3492 74.3993 53.3492 74.5673C53.3492 74.7143 53.2502 74.7863 53.0522 74.7863C52.8332 74.7863 52.7222 74.6993 52.7222 74.5013H52.2842C52.2842 74.9483 52.5212 75.1523 53.0402 75.1523ZM54.7689 75.1523C55.1919 75.1523 55.4229 74.9753 55.4409 74.6363H55.0179C55.0089 74.7443 54.9219 74.8043 54.7719 74.8043C54.5799 74.8043 54.4989 74.7053 54.4989 74.5013V74.4713H55.4499V74.1863C55.4499 73.7513 55.2099 73.5143 54.7509 73.5143C54.2949 73.5143 54.0549 73.7453 54.0549 74.1803V74.4863C54.0549 74.9273 54.2949 75.1523 54.7689 75.1523ZM54.4989 74.1593C54.4989 73.9493 54.5769 73.8623 54.7659 73.8623C54.9519 73.8623 55.0299 73.9493 55.0299 74.1593H54.4989ZM56.2832 75.1163H56.6102V74.7683H56.4362C56.3072 74.7683 56.2712 74.7263 56.2712 74.5793V73.8863H56.5952V73.5503H56.2712V73.1603H55.8602L55.8362 73.5503H55.5992V73.8863H55.8272V74.6063C55.8272 74.9663 55.9622 75.1163 56.2832 75.1163ZM58.0879 75.1163H58.4149V74.7683H58.2409C58.1119 74.7683 58.0759 74.7263 58.0759 74.5793V73.8863H58.3999V73.5503H58.0759V73.1603H57.6649L57.6409 73.5503H57.4039V73.8863H57.6319V74.6063C57.6319 74.9663 57.7669 75.1163 58.0879 75.1163ZM58.6439 73.3283H59.1119V72.9503H58.6439V73.3283ZM58.6559 75.1163H59.0999V73.5503H58.6559V75.1163ZM59.485 75.1163H59.929V74.1113C59.998 73.9613 60.085 73.8983 60.19 73.8983C60.298 73.8983 60.361 73.9613 60.361 74.0993V75.1163H60.805V74.1113C60.877 73.9613 60.961 73.8983 61.069 73.8983C61.177 73.8983 61.237 73.9613 61.237 74.0993V75.1163H61.681V74.0513C61.681 73.7003 61.504 73.5143 61.186 73.5143C61.003 73.5143 60.859 73.5773 60.739 73.7363C60.661 73.5893 60.52 73.5143 60.319 73.5143C60.127 73.5143 59.989 73.5833 59.875 73.7423L59.863 73.5503H59.485V75.1163ZM62.7113 75.1523C63.1343 75.1523 63.3653 74.9753 63.3833 74.6363H62.9603C62.9513 74.7443 62.8643 74.8043 62.7143 74.8043C62.5223 74.8043 62.4413 74.7053 62.4413 74.5013V74.4713H63.3923V74.1863C63.3923 73.7513 63.1523 73.5143 62.6933 73.5143C62.2373 73.5143 61.9973 73.7453 61.9973 74.1803V74.4863C61.9973 74.9273 62.2373 75.1523 62.7113 75.1523ZM62.4413 74.1593C62.4413 73.9493 62.5193 73.8623 62.7083 73.8623C62.8943 73.8623 62.9723 73.9493 62.9723 74.1593H62.4413Z" fill="#333333"/>
<g clip-path="url(#clip1_3857_472610)">
<path d="M52.2002 77.1163C52.2002 76.564 52.6479 76.1163 53.2002 76.1163H74.2002C74.7525 76.1163 75.2002 76.564 75.2002 77.1163V84.1163C75.2002 84.6686 74.7525 85.1163 74.2002 85.1163H53.2002C52.6479 85.1163 52.2002 84.6686 52.2002 84.1163V77.1163Z" fill="white" fill-opacity="0.5"/>
<path d="M75.2002 76.1163H52.2002V85.1163H75.2002V76.1163Z" fill="#173E50"/>
<path opacity="0.2" d="M69.6544 76.1163L39.2002 85.1163H57.5574L88.2002 76.1163H69.6544Z" fill="white" fill-opacity="0.5"/>
<path opacity="0.2" d="M89.0408 76.1163L59.2002 85.1163H61.175L91.2002 76.1163H89.0408Z" fill="white" fill-opacity="0.5"/>
<path d="M74.4547 76.1163H54.2002C53.0956 76.1163 52.2002 77.0118 52.2002 78.1163V83.9873C52.2002 85.0919 53.0956 85.9873 54.2002 85.9873H74.4547C75.5593 85.9873 76.4547 85.0919 76.4547 83.9873V78.1163C76.4547 77.0118 75.5593 76.1163 74.4547 76.1163Z" stroke="#031D29" stroke-miterlimit="10"/>
</g>
<path d="M59.0491 83.8164C58.7746 83.8164 58.5645 83.735 58.4188 83.5722C58.2731 83.4093 58.2002 83.1792 58.2002 82.8818V80.9276C58.2002 80.6302 58.2731 80.4001 58.4188 80.2372C58.5645 80.0743 58.7746 79.9929 59.0491 79.9929C59.3236 79.9929 59.5337 80.0743 59.6794 80.2372C59.8251 80.4001 59.898 80.6302 59.898 80.9276V82.8818C59.898 83.1792 59.8251 83.4093 59.6794 83.5722C59.5337 83.735 59.3236 83.8164 59.0491 83.8164ZM59.0491 83.2854C59.2423 83.2854 59.3388 83.1633 59.3388 82.919V80.8904C59.3388 80.6461 59.2423 80.524 59.0491 80.524C58.8559 80.524 58.7594 80.6461 58.7594 80.8904V82.919C58.7594 83.1633 58.8559 83.2854 59.0491 83.2854Z" fill="white"/>
<path d="M61.1861 83.8164C60.9116 83.8164 60.7015 83.735 60.5557 83.5722C60.41 83.4093 60.3372 83.1792 60.3372 82.8818V80.9276C60.3372 80.6302 60.41 80.4001 60.5557 80.2372C60.7015 80.0743 60.9116 79.9929 61.1861 79.9929C61.4606 79.9929 61.6707 80.0743 61.8164 80.2372C61.9621 80.4001 62.035 80.6302 62.035 80.9276V82.8818C62.035 83.1792 61.9621 83.4093 61.8164 83.5722C61.6707 83.735 61.4606 83.8164 61.1861 83.8164ZM61.1861 83.2854C61.3792 83.2854 61.4758 83.1633 61.4758 82.919V80.8904C61.4758 80.6461 61.3792 80.524 61.1861 80.524C60.9929 80.524 60.8963 80.6461 60.8963 80.8904V82.919C60.8963 83.1633 60.9929 83.2854 61.1861 83.2854Z" fill="white"/>
<path d="M63.4306 81.1771H63.9694V81.7401H63.4306V81.1771ZM63.4306 83.2004H63.9694V83.7633H63.4306V83.2004Z" fill="white"/>
<path d="M66.2143 83.8164C65.9398 83.8164 65.7297 83.735 65.584 83.5722C65.4383 83.4093 65.3654 83.1792 65.3654 82.8818V80.9276C65.3654 80.6302 65.4383 80.4001 65.584 80.2372C65.7297 80.0743 65.9398 79.9929 66.2143 79.9929C66.4888 79.9929 66.6989 80.0743 66.8447 80.2372C66.9904 80.4001 67.0632 80.6302 67.0632 80.9276V82.8818C67.0632 83.1792 66.9904 83.4093 66.8447 83.5722C66.6989 83.735 66.4888 83.8164 66.2143 83.8164ZM66.2143 83.2854C66.4075 83.2854 66.5041 83.1633 66.5041 82.919V80.8904C66.5041 80.6461 66.4075 80.524 66.2143 80.524C66.0212 80.524 65.9246 80.6461 65.9246 80.8904V82.919C65.9246 83.1633 66.0212 83.2854 66.2143 83.2854Z" fill="white"/>
<path d="M68.3513 83.8164C68.0768 83.8164 67.8667 83.735 67.721 83.5722C67.5752 83.4093 67.5024 83.1792 67.5024 82.8818V80.9276C67.5024 80.6302 67.5752 80.4001 67.721 80.2372C67.8667 80.0743 68.0768 79.9929 68.3513 79.9929C68.6258 79.9929 68.8359 80.0743 68.9816 80.2372C69.1273 80.4001 69.2002 80.6302 69.2002 80.9276V82.8818C69.2002 83.1792 69.1273 83.4093 68.9816 83.5722C68.8359 83.735 68.6258 83.8164 68.3513 83.8164ZM68.3513 83.2854C68.5445 83.2854 68.641 83.1633 68.641 82.919V80.8904C68.641 80.6461 68.5445 80.524 68.3513 80.524C68.1581 80.524 68.0615 80.6461 68.0615 80.8904V82.919C68.0615 83.1633 68.1581 83.2854 68.3513 83.2854Z" fill="white"/>
<path d="M59.0029 78.8458H59.3433V78.2138H59.8742V78.8458H60.2146V77.3164H59.8742V77.9214H59.3433V77.3164H59.0029V78.8458Z" fill="white" fill-opacity="0.7"/>
<path d="M60.5994 78.8458H60.9397V78.2138H61.4706V78.8458H61.811V77.3164H61.4706V77.9214H60.9397V77.3164H60.5994V78.8458Z" fill="white" fill-opacity="0.7"/>
<path d="M65.4209 78.8458H65.7351V77.692L66.109 78.8458H66.3324L66.7063 77.692V78.8458H67.0382V77.3164H66.547L66.2284 78.315L65.9076 77.3164H65.4209V78.8458Z" fill="white" fill-opacity="0.7"/>
<path d="M67.414 78.8458H67.7281V77.692L68.102 78.8458H68.3255L68.6994 77.692V78.8458H69.0312V77.3164H68.5401L68.2215 78.315L67.9007 77.3164H67.414V78.8458Z" fill="white" fill-opacity="0.7"/>
<path d="M52.2002 87.1163C52.2002 86.564 52.6479 86.1163 53.2002 86.1163H62.2002C62.7525 86.1163 63.2002 86.564 63.2002 87.1163V99.1163C63.2002 99.6686 62.7525 100.116 62.2002 100.116H53.2002C52.6479 100.116 52.2002 99.6686 52.2002 99.1163V87.1163Z" fill="#E5ECF0"/>
<rect x="55.7002" y="87.1163" width="4" height="4" rx="1" fill="#0063C3"/>
<path fill-rule="evenodd" clip-rule="evenodd" d="M56.2881 89.3009L57.7182 88.1752V88.8141L56.2881 89.9399V89.3009ZM59.1116 89.3009L57.7182 88.1752V88.8141L59.1116 89.9399V89.3009Z" fill="white"/>
<path d="M56.1576 94.1163H56.3316V92.9843L56.7696 94.1163H56.8996L57.3356 92.9883V94.1163H57.5156V92.7563H57.2476L56.8376 93.8243L56.4276 92.7563H56.1576V94.1163ZM57.8842 94.1163H58.0582V92.9843L58.4962 94.1163H58.6262L59.0622 92.9883V94.1163H59.2422V92.7563H58.9742L58.5642 93.8243L58.1542 92.7563H57.8842V94.1163Z" fill="#333333"/>
<rect x="55.7002" y="95.1163" width="4" height="4" rx="1" fill="#0063C3"/>
<path fill-rule="evenodd" clip-rule="evenodd" d="M59.1123 96.8141L57.6822 97.9399L57.6822 97.3009L59.1123 96.1752L59.1123 96.8141ZM56.2888 96.8141L57.6822 97.9399L57.6822 97.3009L56.2888 96.1752L56.2888 96.8141Z" fill="white"/>
<path d="M64.2002 87.1163C64.2002 86.564 64.6479 86.1163 65.2002 86.1163H74.2002C74.7525 86.1163 75.2002 86.564 75.2002 87.1163V99.1163C75.2002 99.6686 74.7525 100.116 74.2002 100.116H65.2002C64.6479 100.116 64.2002 99.6686 64.2002 99.1163V87.1163Z" fill="#E5ECF0"/>
<rect x="67.7002" y="87.1163" width="4" height="4" rx="1" fill="#0063C3"/>
<path fill-rule="evenodd" clip-rule="evenodd" d="M68.2881 89.3009L69.7182 88.1752V88.8141L68.2881 89.9399V89.3009ZM71.1116 89.3009L69.7182 88.1752V88.8141L71.1116 89.9399V89.3009Z" fill="white"/>
<path d="M68.1576 94.1163H68.3316V92.9843L68.7696 94.1163H68.8996L69.3356 92.9883V94.1163H69.5156V92.7563H69.2476L68.8376 93.8243L68.4276 92.7563H68.1576V94.1163ZM69.8842 94.1163H70.0582V92.9843L70.4962 94.1163H70.6262L71.0622 92.9883V94.1163H71.2422V92.7563H70.9742L70.5642 93.8243L70.1542 92.7563H69.8842V94.1163Z" fill="#333333"/>
<rect x="67.7002" y="95.1163" width="4" height="4" rx="1" fill="#0063C3"/>
<path fill-rule="evenodd" clip-rule="evenodd" d="M71.1123 96.8141L69.6822 97.9399L69.6822 97.3009L71.1123 96.1752L71.1123 96.8141ZM68.2888 96.8141L69.6822 97.9399L69.6822 97.3009L68.2888 96.1752L68.2888 96.8141Z" fill="white"/>
<path d="M52.2002 102.116C52.2002 101.564 52.6479 101.116 53.2002 101.116H62.2002C62.7525 101.116 63.2002 101.564 63.2002 102.116V105.116C63.2002 105.669 62.7525 106.116 62.2002 106.116H53.2002C52.6479 106.116 52.2002 105.669 52.2002 105.116V102.116Z" fill="#A41034"/>
<path d="M55.3634 104.517C55.8734 104.517 56.1224 104.31 56.1224 103.887C56.1224 103.503 55.9574 103.32 55.4804 103.251C55.1924 103.209 55.0874 103.14 55.0874 102.987C55.0874 102.852 55.1834 102.774 55.3694 102.774C55.5644 102.774 55.6574 102.861 55.6574 103.038H56.0954C56.0954 102.609 55.8584 102.405 55.3784 102.405C54.8924 102.405 54.6374 102.615 54.6374 103.032C54.6374 103.404 54.8084 103.572 55.2614 103.644C55.5644 103.692 55.6724 103.764 55.6724 103.932C55.6724 104.079 55.5734 104.151 55.3754 104.151C55.1564 104.151 55.0454 104.064 55.0454 103.866H54.6074C54.6074 104.313 54.8444 104.517 55.3634 104.517Z" fill="white"/>
<path d="M56.9994 104.481H57.3264V104.133H57.1524C57.0234 104.133 56.9874 104.091 56.9874 103.944V103.251H57.3114V102.915H56.9874V102.525H56.5764L56.5524 102.915H56.3154V103.251H56.5434V103.971C56.5434 104.331 56.6784 104.481 56.9994 104.481Z" fill="white"/>
<path d="M58.2873 104.517C58.7613 104.517 58.9983 104.292 58.9983 103.842V103.554C58.9983 103.104 58.7613 102.879 58.2873 102.879C57.8133 102.879 57.5763 103.104 57.5763 103.554V103.842C57.5763 104.292 57.8133 104.517 58.2873 104.517ZM58.2873 104.157C58.0983 104.157 58.0203 104.061 58.0203 103.833V103.563C58.0203 103.335 58.0983 103.239 58.2873 103.239C58.4763 103.239 58.5543 103.335 58.5543 103.563V103.833C58.5543 104.061 58.4763 104.157 58.2873 104.157Z" fill="white"/>
<path d="M59.3866 105.027H59.8306V104.355C59.9356 104.466 60.0676 104.517 60.2356 104.517C60.5926 104.517 60.7936 104.295 60.7936 103.872V103.521C60.7936 103.098 60.5926 102.879 60.2356 102.879C60.0376 102.879 59.8936 102.948 59.7766 103.104L59.7646 102.915H59.3866V105.027ZM60.1336 104.157C59.9926 104.157 59.8936 104.076 59.8306 103.917V103.476C59.8936 103.32 59.9926 103.239 60.1306 103.239C60.2746 103.239 60.3496 103.323 60.3496 103.524V103.872C60.3496 104.076 60.2746 104.157 60.1336 104.157Z" fill="white"/>
<rect x="64.2002" y="101.116" width="11" height="5" rx="1" fill="#FAAC48"/>
<path d="M66.9877 104.916C67.5189 104.916 67.7783 104.701 67.7783 104.26C67.7783 103.86 67.6064 103.669 67.1096 103.598C66.8096 103.554 66.7002 103.482 66.7002 103.323C66.7002 103.182 66.8002 103.101 66.9939 103.101C67.1971 103.101 67.2939 103.191 67.2939 103.376H67.7502C67.7502 102.929 67.5033 102.716 67.0033 102.716C66.4971 102.716 66.2314 102.935 66.2314 103.369C66.2314 103.757 66.4096 103.932 66.8814 104.007C67.1971 104.057 67.3096 104.132 67.3096 104.307C67.3096 104.46 67.2064 104.535 67.0002 104.535C66.7721 104.535 66.6564 104.444 66.6564 104.238H66.2002C66.2002 104.704 66.4471 104.916 66.9877 104.916Z" fill="#333333"/>
<path d="M68.6294 104.879H68.97V104.516H68.7887C68.6544 104.516 68.6169 104.473 68.6169 104.319V103.598H68.9544V103.248H68.6169V102.841H68.1887L68.1637 103.248H67.9169V103.598H68.1544V104.348C68.1544 104.723 68.295 104.879 68.6294 104.879Z" fill="#333333"/>
<path d="M69.6703 104.916C69.8859 104.916 70.0484 104.835 70.1609 104.676L70.1765 104.879H70.5672V103.829C70.5672 103.404 70.3547 103.21 69.8922 103.21C69.4422 103.21 69.2234 103.394 69.1984 103.757H69.6453C69.6515 103.644 69.714 103.573 69.8734 103.573C70.039 103.573 70.1047 103.654 70.1047 103.823V103.876H69.8047C69.3703 103.876 69.1547 104.066 69.1547 104.41C69.1547 104.735 69.3484 104.916 69.6703 104.916ZM69.8109 104.554C69.6797 104.554 69.6109 104.491 69.6109 104.373C69.6109 104.254 69.6797 104.182 69.889 104.182H70.1047V104.369C70.039 104.491 69.9422 104.554 69.8109 104.554Z" fill="#333333"/>
<path d="M70.9453 104.879H71.4078V103.966C71.4515 103.738 71.5671 103.648 71.8078 103.648H71.8953V103.216H71.7734C71.5484 103.216 71.4203 103.319 71.3578 103.551L71.339 103.248H70.9453V104.879Z" fill="#333333"/>
<path d="M72.6913 104.879H73.0319V104.516H72.8506C72.7163 104.516 72.6788 104.473 72.6788 104.319V103.598H73.0163V103.248H72.6788V102.841H72.2506L72.2256 103.248H71.9788V103.598H72.2163V104.348C72.2163 104.723 72.3569 104.879 72.6913 104.879Z" fill="#333333"/>
<path d="M25 70.3163H75.2V69.9163H25V70.3163ZM77 72.1163V106.116H77.4V72.1163H77ZM75.2 107.916H25V108.316H75.2V107.916ZM23.2 106.116V72.1163H22.8V106.116H23.2ZM25 107.916C24.0059 107.916 23.2 107.11 23.2 106.116H22.8C22.8 107.331 23.785 108.316 25 108.316V107.916ZM77 106.116C77 107.11 76.1941 107.916 75.2 107.916V108.316C76.415 108.316 77.4 107.331 77.4 106.116H77ZM75.2 70.3163C76.1941 70.3163 77 71.1222 77 72.1163H77.4C77.4 70.9013 76.415 69.9163 75.2 69.9163V70.3163ZM25 69.9163C23.785 69.9163 22.8 70.9013 22.8 72.1163H23.2C23.2 71.1222 24.0059 70.3163 25 70.3163V69.9163Z" fill="#336589"/>
<path opacity="0.7" d="M55.6995 27.7417C55.512 28.306 55.0745 28.745 54.4495 29.1839C53.3245 29.9363 51.5745 30.5006 49.762 30.5006C48.012 30.5006 46.262 29.999 45.0745 29.1839C44.4495 28.745 44.012 28.306 43.8245 27.7417C43.262 26.1742 45.9495 24.7948 49.762 24.7948C53.637 24.7948 56.262 26.1742 55.6995 27.7417Z" fill="#848484"/>
<path opacity="0.7" d="M54.5117 29.1839C53.3867 29.9363 51.6367 30.5006 49.8242 30.5006C48.0742 30.5006 46.3242 29.999 45.1367 29.1839C46.1992 28.6196 47.8867 28.2434 49.8242 28.2434C51.7617 28.2434 53.3867 28.6196 54.5117 29.1839Z" fill="#353535"/>
<path opacity="0.7" d="M27.5745 33.3848C27.387 33.9491 26.9495 34.388 26.3245 34.8269C25.1995 35.5793 23.4495 36.1437 21.637 36.1437C19.887 36.1437 18.137 35.642 16.9495 34.8269C16.3245 34.388 15.887 33.9491 15.6995 33.3848C15.137 31.8173 17.8245 30.4379 21.637 30.4379C25.512 30.4379 28.137 31.8173 27.5745 33.3848Z" fill="#848484"/>
<path opacity="0.7" d="M26.3867 34.827C25.2617 35.5794 23.5117 36.1437 21.6992 36.1437C19.9492 36.1437 18.1992 35.6421 17.0117 34.827C18.0742 34.2627 19.7617 33.8865 21.6992 33.8865C23.6367 33.8865 25.2617 34.2627 26.3867 34.827Z" fill="#353535"/>
<path opacity="0.7" d="M40.6995 29.6227C40.512 30.187 40.0745 30.6259 39.4495 31.0648C38.3245 31.8173 36.5745 32.3816 34.762 32.3816C33.012 32.3816 31.262 31.88 30.0745 31.0648C29.4495 30.6259 29.012 30.187 28.8245 29.6227C28.262 28.0552 30.9495 26.6758 34.762 26.6758C38.637 26.6758 41.262 28.0552 40.6995 29.6227Z" fill="#848484"/>
<path opacity="0.7" d="M39.5117 31.0648C38.3867 31.8172 36.6367 32.3815 34.8242 32.3815C33.0742 32.3815 31.3242 31.8799 30.1367 31.0648C31.1992 30.5005 32.8867 30.1243 34.8242 30.1243C36.7617 30.1243 38.3867 30.5005 39.5117 31.0648Z" fill="#353535"/>
<path opacity="0.7" d="M71.9494 29.6227C71.7619 30.187 71.3244 30.6259 70.6994 31.0648C69.5744 31.8173 67.8244 32.3816 66.012 32.3816C64.262 32.3816 62.512 31.88 61.3245 31.0648C60.6995 30.6259 60.262 30.187 60.0745 29.6227C59.512 28.0552 62.1995 26.6758 66.012 26.6758C69.8869 26.6758 72.5119 28.0552 71.9494 29.6227Z" fill="#848484"/>
<path opacity="0.7" d="M70.7617 31.0648C69.6367 31.8172 67.8867 32.3815 66.0742 32.3815C64.3242 32.3815 62.5742 31.8799 61.3867 31.0648C62.4492 30.5005 64.1367 30.1243 66.0742 30.1243C68.0117 30.1243 69.6367 30.5005 70.7617 31.0648Z" fill="#353535"/>
<path opacity="0.7" d="M85.6995 32.7579C85.512 33.3222 85.0745 33.7611 84.4495 34.2C83.3245 34.9524 81.5745 35.5167 79.762 35.5167C78.012 35.5167 76.262 35.0151 75.0745 34.2C74.4495 33.7611 74.012 33.3222 73.8245 32.7579C73.262 31.1903 75.9495 29.8109 79.762 29.8109C83.637 29.8109 86.262 31.1903 85.6995 32.7579Z" fill="#848484"/>
<path opacity="0.7" d="M84.5117 34.2C83.3867 34.9524 81.6367 35.5168 79.8242 35.5168C78.0742 35.5168 76.3242 35.0151 75.1367 34.2C76.1992 33.6357 77.8867 33.2595 79.8242 33.2595C81.7617 33.2595 83.3867 33.6357 84.5117 34.2Z" fill="#353535"/>
<defs>
<clipPath id="clip0_3857_472610">
<path d="M25 77.1163C25 76.564 25.4477 76.1163 26 76.1163H47C47.5523 76.1163 48 76.564 48 77.1163V84.1163C48 84.6686 47.5523 85.1163 47 85.1163H26C25.4477 85.1163 25 84.6686 25 84.1163V77.1163Z" fill="white"/>
</clipPath>
<clipPath id="clip1_3857_472610">
<path d="M52.2002 77.1163C52.2002 76.564 52.6479 76.1163 53.2002 76.1163H74.2002C74.7525 76.1163 75.2002 76.564 75.2002 77.1163V84.1163C75.2002 84.6686 74.7525 85.1163 74.2002 85.1163H53.2002C52.6479 85.1163 52.2002 84.6686 52.2002 84.1163V77.1163Z" fill="white"/>
</clipPath>
</defs>
</svg>
