<svg xmlns="http://www.w3.org/2000/svg" width="251" height="253" fill="none" viewBox="0 0 251 253">
    <path fill="#A6A6A6" d="M224.76 253h22.337a3.9 3.9 0 0 0 3.903-3.901v-14.834a3.917 3.917 0 0 0-4.108-3.901l-23.416 1.181L224.76 253z"/>
    <path fill="#A6A6A6" d="M225.171.259l5.289-.206a3.269 3.269 0 0 1 3.44 3.08l13.043 227.231-16.791.822L225.171.259z"/>
    <path fill="#D9D9D9" d="M220.395 253h22.338a3.9 3.9 0 0 0 3.902-3.901V234.47c0-2.207-1.848-4.003-4.108-3.901l-23.364 1.181 1.232 21.25z"/>
    <path fill="#D9D9D9" d="M220.806.413l5.341-.154c1.797-.051 3.286 1.335 3.389 3.08l13.043 227.18-16.741 2.104L220.806.413z"/>
    <path fill="#A6A6A6" d="M26.24 253H3.749C1.695 253 0 251.306 0 249.253V234.06c0-2.156 1.797-3.85 3.903-3.747l23.57 1.18L26.24 253z"/>
    <path fill="#A6A6A6" d="M25.83.259L19.666.002c-1.284-.051-2.413.924-2.465 2.258L4.057 230.364l16.791.821L25.83.259z"/>
    <path fill="#D9D9D9" d="M30.605 253H8.113c-2.054 0-3.748-1.694-3.748-3.747v-14.988c0-2.156 1.797-3.85 3.902-3.747l23.57 1.181L30.605 253z"/>
    <path fill="#D9D9D9" d="M30.194.413L23.98.208c-1.284-.052-2.363.975-2.465 2.258L8.42 230.57l16.74 2.258L30.195.413z"/>
    <path fill="#89A9BF" d="M229.073 74.428H22.748L24.7 31.312h202.269l2.105 43.116z"/>
</svg>
