<svg width="200" height="430" viewBox="0 0 555 434" fill="none" xmlns="http://www.w3.org/2000/svg">
    <path d="M586 23.5H5C2.51472 23.5 0.5 25.5147 0.5 28V429C0.5 431.485 2.51472 433.5 5 433.5H586C588.485 433.5 590.5 431.485 590.5 429V28C590.5 25.5147 588.485 23.5 586 23.5Z"
          fill="white" stroke="#668BA6"/>
    <path d="M283 39H21C18.2386 39 16 41.2386 16 44V413C16 415.761 18.2386 418 21 418H283C285.761 418 288 415.761 288 413V44C288 41.2386 285.761 39 283 39Z"
          fill="url(#paint0_linear)"/>
    <path d="M571 39H309C306.239 39 304 41.2386 304 44V413C304 415.761 306.239 418 309 418H571C573.761 418 576 415.761 576 413V44C576 41.2386 573.761 39 571 39Z"
          fill="url(#paint1_linear)"/>
    <g filter="url(#filter0_d)">
        <path d="M441.512 389.152C437.592 389.152 431.609 387.715 428.308 386.688C425.008 385.662 422.326 373.754 422.326 373.754C413.661 340.083 401.933 290.54 401.666 260.673C401.613 254.754 401.665 139.803 401.665 139.803H481.277V260.673C481.277 291.522 467.506 340.083 458.842 373.754C458.842 373.754 456.16 385.662 452.859 386.688C449.558 387.715 443.575 389.152 439.655 389.152"
              fill="#868CA6"/>
        <path opacity="0.7"
              d="M441.273 385.014C437.765 385.014 432.401 383.782 429.513 382.756C426.625 381.934 424.149 371.053 424.149 371.053C416.31 340.873 408.358 296.378 406.089 269.893V146.091H476.855C476.855 146.091 478.093 255.932 476.855 269.893C474.585 296.378 464.791 340.667 456.952 370.848C456.952 370.848 454.476 381.524 451.588 382.55C448.7 383.372 443.336 384.809 439.828 384.809"
              fill="#C0C3D2"/>
        <path d="M392.819 139.803H494.545V148.617H392.819V139.803Z" fill="#868CA6"/>
        <path opacity="0.7"
              d="M441.273 385.014C437.765 385.014 432.401 383.782 429.513 382.755C426.625 381.934 424.149 371.053 424.149 371.053C416.31 340.872 408.358 296.378 406.089 269.893V254.384H476.855V269.893C474.585 296.378 464.791 340.667 456.952 370.847C456.952 370.847 454.476 381.524 451.588 382.55C448.7 383.371 443.336 384.808 439.828 384.808"
              fill="#00AEEF"/>
        <path d="M401.667 176.94H481.279V247.452H401.667V176.94Z" fill="white"/>
        <path d="M441.471 234.231C453.685 234.231 463.585 224.366 463.585 212.196C463.585 200.027 453.685 190.161 441.471 190.161C429.258 190.161 419.357 200.027 419.357 212.196C419.357 224.366 429.258 234.231 441.471 234.231Z"
              fill="#9771C8"/>
        <path d="M459.164 148.617H481.278V265.442C481.278 278.422 472.432 319.528 472.432 319.528C472.432 319.528 455.708 383.484 454.741 384.43C453.773 385.377 441.472 386.594 441.472 386.594L459.164 265.442V148.617Z"
              fill="black" fill-opacity="0.1"/>
        <path d="M383.975 126.582H498.969V135.396H383.975V126.582Z" fill="#868CA6"/>
        <path d="M406.089 135.396H476.855V139.803H406.089V135.396Z" fill="#577898"/>
        <path fill-rule="evenodd" clip-rule="evenodd"
              d="M510.791 131.531C511.898 133.392 512.238 135.511 512.238 137.599C512.238 139.687 511.898 141.806 510.791 143.668C509.621 145.635 507.891 146.822 506.051 147.51C504.328 148.153 502.427 148.393 500.627 148.505C498.83 148.617 496.779 148.617 494.647 148.617H494.546V139.803C496.801 139.803 498.584 139.801 500.076 139.708C501.593 139.613 502.456 139.44 502.945 139.257C503.031 139.225 503.115 139.187 503.196 139.142C503.235 139.046 503.265 138.946 503.286 138.844C503.342 138.588 503.392 138.189 503.392 137.599C503.392 137.009 503.342 136.611 503.286 136.355C503.265 136.253 503.235 136.153 503.196 136.056C503.115 136.011 503.031 135.973 502.945 135.941C502.456 135.759 501.593 135.585 500.076 135.49C498.584 135.397 496.801 135.396 494.546 135.396V126.582H494.646C496.779 126.582 498.83 126.582 500.627 126.694C502.427 126.806 504.328 127.045 506.051 127.689C507.891 128.376 509.621 129.563 510.791 131.531V131.531Z"
              fill="#868CA6"/>
    </g>
    <path d="M432 272C432 275.866 428.866 279 425 279C421.134 279 418 275.866 418 272C418 268.134 421.134 265 425 265C428.866 265 432 268.134 432 272Z"
          stroke="#309DCB" stroke-width="4"/>
    <path d="M461 283C461 286.866 457.866 290 454 290C450.134 290 447 286.866 447 283C447 279.134 450.134 276 454 276C457.866 276 461 279.134 461 283Z"
          stroke="#309DCB" stroke-width="4"/>
    <path d="M438 301C438 304.866 434.866 308 431 308C427.134 308 424 304.866 424 301C424 297.134 427.134 294 431 294C434.866 294 438 297.134 438 301Z"
          stroke="#309DCB" stroke-width="4"/>
    <path d="M456 324C456 327.866 452.866 331 449 331C445.134 331 442 327.866 442 324C442 320.134 445.134 317 449 317C452.866 317 456 320.134 456 324Z"
          stroke="#309DCB" stroke-width="4"/>
    <path d="M438 344C438 347.866 434.866 351 431 351C427.134 351 424 347.866 424 344C424 340.134 427.134 337 431 337C434.866 337 438 340.134 438 344Z"
          stroke="#309DCB" stroke-width="4"/>
    <path d="M449 372C449 375.866 445.866 379 442 379C438.134 379 435 375.866 435 372C435 368.134 438.134 365 442 365C445.866 365 449 368.134 449 372Z"
          stroke="#309DCB" stroke-width="4"/>

</svg>
